<?xml version="1.0" encoding="utf-8"?>
<svg xmlns="http://www.w3.org/2000/svg" xmlns:xlink="http://www.w3.org/1999/xlink" width="750" height="500" viewBox="0 0 3000 2000">
<defs>
  <clipPath id="clip0800">
    <rect x="0" y="0" width="3000" height="2000"/>
  </clipPath>
</defs>
<path clip-path="url(#clip0800)" d="
M0 2000 L3000 2000 L3000 0 L0 0  Z
  " fill="#ffffff" fill-rule="evenodd" fill-opacity="1"/>
<defs>
  <clipPath id="clip0801">
    <rect x="600" y="0" width="2101" height="2000"/>
  </clipPath>
</defs>
<path clip-path="url(#clip0800)" d="
M159.898 1883.47 L2952.76 1883.47 L2952.76 47.2441 L159.898 47.2441  Z
  " fill="#ffffff" fill-rule="evenodd" fill-opacity="1"/>
<defs>
  <clipPath id="clip0802">
    <rect x="159" y="47" width="2794" height="1837"/>
  </clipPath>
</defs>
<polyline clip-path="url(#clip0802)" style="stroke:#b352cc; stroke-width:60; stroke-opacity:1; fill:none" points="
  238.941,1820.4 242.235,1820.06 245.528,1819.71 248.822,1819.35 252.115,1818.99 255.408,1818.61 258.702,1818.23 261.995,1817.83 265.289,1817.43 268.582,1817.01 
  271.876,1816.58 275.169,1816.14 278.463,1815.7 281.756,1815.23 285.05,1814.76 288.343,1814.28 291.637,1813.78 294.93,1813.27 298.223,1812.75 301.517,1812.21 
  304.81,1811.66 308.104,1811.1 311.397,1810.52 314.691,1809.93 317.984,1809.33 321.278,1808.71 324.571,1808.07 327.865,1807.42 331.158,1806.76 334.452,1806.08 
  337.745,1805.38 341.039,1804.67 344.332,1803.94 347.625,1803.19 350.919,1802.42 354.212,1801.64 357.506,1800.84 360.799,1800.02 364.093,1799.19 367.386,1798.33 
  370.68,1797.45 373.973,1796.56 377.267,1795.64 380.56,1794.71 383.854,1793.75 387.147,1792.77 390.44,1791.78 393.734,1790.76 397.027,1789.71 400.321,1788.65 
  403.614,1787.56 406.908,1786.45 410.201,1785.32 413.495,1784.16 416.788,1782.98 420.082,1781.77 423.375,1780.54 426.669,1779.29 429.962,1778.01 433.256,1776.7 
  436.549,1775.36 439.842,1774 443.136,1772.61 446.429,1771.2 449.723,1769.76 453.016,1768.28 456.31,1766.78 459.603,1765.26 462.897,1763.7 466.19,1762.11 
  469.484,1760.49 472.777,1758.84 476.071,1757.16 479.364,1755.45 482.658,1753.71 485.951,1751.94 489.244,1750.13 492.538,1748.29 495.831,1746.42 499.125,1744.51 
  502.418,1742.57 505.712,1740.6 509.005,1738.59 512.299,1736.55 515.592,1734.47 518.886,1732.35 522.179,1730.21 525.473,1728.02 528.766,1725.8 532.059,1723.54 
  535.353,1721.24 538.646,1718.91 541.94,1716.53 545.233,1714.12 548.527,1711.67 551.82,1709.19 555.114,1706.66 558.407,1704.09 561.701,1701.49 564.994,1698.84 
  568.288,1696.15 571.581,1693.42 574.875,1690.66 578.168,1687.85 581.461,1685 584.755,1682.1 588.048,1679.17 591.342,1676.19 594.635,1673.17 597.929,1670.11 
  601.222,1667.01 604.516,1663.86 607.809,1660.67 611.103,1657.44 614.396,1654.16 617.69,1650.84 620.983,1647.48 624.276,1644.07 627.57,1640.62 630.863,1637.12 
  634.157,1633.58 637.45,1629.99 640.744,1626.37 644.037,1622.69 647.331,1618.97 650.624,1615.21 653.918,1611.4 657.211,1607.55 660.505,1603.65 663.798,1599.71 
  667.092,1595.73 670.385,1591.7 673.678,1587.62 676.972,1583.5 680.265,1579.34 683.559,1575.13 686.852,1570.88 690.146,1566.58 693.439,1562.24 696.733,1557.86 
  700.026,1553.43 703.32,1548.96 706.613,1544.44 709.907,1539.89 713.2,1535.29 716.493,1530.65 719.787,1525.96 723.08,1521.24 726.374,1516.47 729.667,1511.66 
  732.961,1506.81 736.254,1501.92 739.548,1496.99 742.841,1492.02 746.135,1487.01 749.428,1481.96 752.722,1476.87 756.015,1471.74 759.309,1466.58 762.602,1461.38 
  765.895,1456.14 769.189,1450.87 772.482,1445.56 775.776,1440.22 779.069,1434.84 782.363,1429.43 785.656,1423.98 788.95,1418.51 792.243,1413 795.537,1407.46 
  798.83,1401.89 802.124,1396.29 805.417,1390.66 808.71,1385 812.004,1379.32 815.297,1373.61 818.591,1367.87 821.884,1362.11 825.178,1356.33 828.471,1350.52 
  831.765,1344.69 835.058,1338.83 838.352,1332.96 841.645,1327.07 844.939,1321.16 848.232,1315.23 851.526,1309.28 854.819,1303.32 858.112,1297.35 861.406,1291.36 
  864.699,1285.36 867.993,1279.34 871.286,1273.32 874.58,1267.29 877.873,1261.24 881.167,1255.2 884.46,1249.14 887.754,1243.08 891.047,1237.02 894.341,1230.96 
  897.634,1224.89 900.927,1218.82 904.221,1212.76 907.514,1206.7 910.808,1200.64 914.101,1194.59 917.395,1188.54 920.688,1182.5 923.982,1176.47 927.275,1170.45 
  930.569,1164.44 933.862,1158.44 937.156,1152.46 940.449,1146.49 943.743,1140.54 947.036,1134.6 950.329,1128.69 953.623,1122.8 956.916,1116.93 960.21,1111.08 
  963.503,1105.26 966.797,1099.46 970.09,1093.69 973.384,1087.95 976.677,1082.24 979.971,1076.56 983.264,1070.92 986.558,1065.3 989.851,1059.73 993.145,1054.19 
  996.438,1048.69 999.731,1043.23 1003.02,1037.81 1006.32,1032.44 1009.61,1027.11 1012.91,1021.82 1016.2,1016.58 1019.49,1011.39 1022.79,1006.25 1026.08,1001.16 
  1029.37,996.119 1032.67,991.134 1035.96,986.203 1039.25,981.328 1042.55,976.511 1045.84,971.753 1049.13,967.054 1052.43,962.417 1055.72,957.843 1059.01,953.332 
  1062.31,948.886 1065.6,944.506 1068.89,940.193 1072.19,935.95 1075.48,931.776 1078.77,927.672 1082.07,923.641 1085.36,919.684 1088.65,915.8 1091.95,911.992 
  1095.24,908.26 1098.54,904.606 1101.83,901.031 1105.12,897.535 1108.42,894.12 1111.71,890.786 1115,887.535 1118.3,884.368 1121.59,881.284 1124.88,878.287 
  1128.18,875.375 1131.47,872.55 1134.76,869.813 1138.06,867.165 1141.35,864.606 1144.64,862.137 1147.94,859.759 1151.23,857.473 1154.52,855.279 1157.82,853.178 
  1161.11,851.17 1164.4,849.257 1167.7,847.438 1170.99,845.714 1174.29,844.086 1177.58,842.555 1180.87,841.12 1184.17,839.782 1187.46,838.541 1190.75,837.399 
  1194.05,836.354 1197.34,835.408 1200.63,834.561 1203.93,833.813 1207.22,833.165 1210.51,832.615 1213.81,832.166 1217.1,831.816 1220.39,831.566 1223.69,831.416 
  1226.98,831.366 1230.27,831.416 1233.57,831.566 1236.86,831.816 1240.15,832.166 1243.45,832.615 1246.74,833.165 1250.03,833.813 1253.33,834.561 1256.62,835.408 
  1259.92,836.354 1263.21,837.399 1266.5,838.541 1269.8,839.782 1273.09,841.12 1276.38,842.555 1279.68,844.086 1282.97,845.714 1286.26,847.438 1289.56,849.257 
  1292.85,851.17 1296.14,853.178 1299.44,855.279 1302.73,857.473 1306.02,859.759 1309.32,862.137 1312.61,864.606 1315.9,867.165 1319.2,869.813 1322.49,872.55 
  1325.78,875.375 1329.08,878.287 1332.37,881.284 1335.66,884.368 1338.96,887.535 1342.25,890.786 1345.55,894.12 1348.84,897.535 1352.13,901.031 1355.43,904.606 
  1358.72,908.26 1362.01,911.992 1365.31,915.8 1368.6,919.684 1371.89,923.641 1375.19,927.672 1378.48,931.776 1381.77,935.95 1385.07,940.193 1388.36,944.506 
  1391.65,948.886 1394.95,953.332 1398.24,957.843 1401.53,962.417 1404.83,967.054 1408.12,971.753 1411.41,976.511 1414.71,981.328 1418,986.203 1421.29,991.134 
  1424.59,996.119 1427.88,1001.16 1431.18,1006.25 1434.47,1011.39 1437.76,1016.58 1441.06,1021.82 1444.35,1027.11 1447.64,1032.44 1450.94,1037.81 1454.23,1043.23 
  1457.52,1048.69 1460.82,1054.19 1464.11,1059.73 1467.4,1065.3 1470.7,1070.92 1473.99,1076.56 1477.28,1082.24 1480.58,1087.95 1483.87,1093.69 1487.16,1099.46 
  1490.46,1105.26 1493.75,1111.08 1497.04,1116.93 1500.34,1122.8 1503.63,1128.69 1506.92,1134.6 1510.22,1140.54 1513.51,1146.49 1516.81,1152.46 1520.1,1158.44 
  1523.39,1164.44 1526.69,1170.45 1529.98,1176.47 1533.27,1182.5 1536.57,1188.54 1539.86,1194.59 1543.15,1200.64 1546.45,1206.7 1549.74,1212.76 1553.03,1218.82 
  1556.33,1224.89 1559.62,1230.96 1562.91,1237.02 1566.21,1243.08 1569.5,1249.14 1572.79,1255.2 1576.09,1261.24 1579.38,1267.29 1582.67,1273.32 1585.97,1279.34 
  1589.26,1285.36 1592.56,1291.36 1595.85,1297.35 1599.14,1303.32 1602.44,1309.28 1605.73,1315.23 1609.02,1321.16 1612.32,1327.07 1615.61,1332.96 1618.9,1338.83 
  1622.2,1344.69 1625.49,1350.52 1628.78,1356.33 1632.08,1362.11 1635.37,1367.87 1638.66,1373.61 1641.96,1379.32 1645.25,1385 1648.54,1390.66 1651.84,1396.29 
  1655.13,1401.89 1658.42,1407.46 1661.72,1413 1665.01,1418.51 1668.3,1423.98 1671.6,1429.43 1674.89,1434.84 1678.19,1440.22 1681.48,1445.56 1684.77,1450.87 
  1688.07,1456.14 1691.36,1461.38 1694.65,1466.58 1697.95,1471.74 1701.24,1476.87 1704.53,1481.96 1707.83,1487.01 1711.12,1492.02 1714.41,1496.99 1717.71,1501.92 
  1721,1506.81 1724.29,1511.66 1727.59,1516.47 1730.88,1521.24 1734.17,1525.96 1737.47,1530.65 1740.76,1535.29 1744.05,1539.89 1747.35,1544.44 1750.64,1548.96 
  1753.93,1553.43 1757.23,1557.86 1760.52,1562.24 1763.82,1566.58 1767.11,1570.88 1770.4,1575.13 1773.7,1579.34 1776.99,1583.5 1780.28,1587.62 1783.58,1591.7 
  1786.87,1595.73 1790.16,1599.71 1793.46,1603.65 1796.75,1607.55 1800.04,1611.4 1803.34,1615.21 1806.63,1618.97 1809.92,1622.69 1813.22,1626.37 1816.51,1629.99 
  1819.8,1633.58 1823.1,1637.12 1826.39,1640.62 1829.68,1644.07 1832.98,1647.48 1836.27,1650.84 1839.56,1654.16 1842.86,1657.44 1846.15,1660.67 1849.45,1663.86 
  1852.74,1667.01 1856.03,1670.11 1859.33,1673.17 1862.62,1676.19 1865.91,1679.17 1869.21,1682.1 1872.5,1685 1875.79,1687.85 1879.09,1690.66 1882.38,1693.42 
  1885.67,1696.15 1888.97,1698.84 1892.26,1701.49 1895.55,1704.09 1898.85,1706.66 1902.14,1709.19 1905.43,1711.67 1908.73,1714.12 1912.02,1716.53 1915.31,1718.91 
  1918.61,1721.24 1921.9,1723.54 1925.19,1725.8 1928.49,1728.02 1931.78,1730.21 1935.08,1732.35 1938.37,1734.47 1941.66,1736.55 1944.96,1738.59 1948.25,1740.6 
  1951.54,1742.57 1954.84,1744.51 1958.13,1746.42 1961.42,1748.29 1964.72,1750.13 1968.01,1751.94 1971.3,1753.71 1974.6,1755.45 1977.89,1757.16 1981.18,1758.84 
  1984.48,1760.49 1987.77,1762.11 1991.06,1763.7 1994.36,1765.26 1997.65,1766.78 2000.94,1768.28 2004.24,1769.76 2007.53,1771.2 2010.83,1772.61 2014.12,1774 
  2017.41,1775.36 2020.71,1776.7 2024,1778.01 2027.29,1779.29 2030.59,1780.54 2033.88,1781.77 2037.17,1782.98 2040.47,1784.16 2043.76,1785.32 2047.05,1786.45 
  2050.35,1787.56 2053.64,1788.65 2056.93,1789.71 2060.23,1790.76 2063.52,1791.78 2066.81,1792.77 2070.11,1793.75 2073.4,1794.71 2076.69,1795.64 2079.99,1796.56 
  2083.28,1797.45 2086.57,1798.33 2089.87,1799.19 2093.16,1800.02 2096.46,1800.84 2099.75,1801.64 2103.04,1802.42 2106.34,1803.19 2109.63,1803.94 2112.92,1804.67 
  2116.22,1805.38 2119.51,1806.08 2122.8,1806.76 2126.1,1807.42 2129.39,1808.07 2132.68,1808.71 2135.98,1809.33 2139.27,1809.93 2142.56,1810.52 2145.86,1811.1 
  2149.15,1811.66 2152.44,1812.21 2155.74,1812.75 2159.03,1813.27 2162.32,1813.78 2165.62,1814.28 2168.91,1814.76 2172.2,1815.23 2175.5,1815.7 2178.79,1816.14 
  2182.09,1816.58 2185.38,1817.01 2188.67,1817.43 2191.97,1817.83 2195.26,1818.23 2198.55,1818.61 2201.85,1818.99 2205.14,1819.35 2208.43,1819.71 2211.73,1820.06 
  2215.02,1820.4 2218.31,1820.72 2221.61,1821.04 2224.9,1821.36 2228.19,1821.66 2231.49,1821.95 2234.78,1822.24 2238.07,1822.52 2241.37,1822.79 2244.66,1823.06 
  2247.95,1823.32 2251.25,1823.57 2254.54,1823.81 2257.83,1824.05 2261.13,1824.28 2264.42,1824.5 2267.72,1824.72 2271.01,1824.93 2274.3,1825.14 2277.6,1825.34 
  2280.89,1825.53 2284.18,1825.72 2287.48,1825.9 2290.77,1826.08 2294.06,1826.25 2297.36,1826.42 2300.65,1826.58 2303.94,1826.74 2307.24,1826.89 2310.53,1827.04 
  2313.82,1827.19 2317.12,1827.33 2320.41,1827.46 2323.7,1827.6 2327,1827.72 2330.29,1827.85 2333.58,1827.97 2336.88,1828.09 2340.17,1828.2 2343.46,1828.31 
  2346.76,1828.42 2350.05,1828.52 2353.35,1828.62 2356.64,1828.72 2359.93,1828.81 2363.23,1828.9 2366.52,1828.99 2369.81,1829.08 2373.11,1829.16 2376.4,1829.24 
  2379.69,1829.32 2382.99,1829.39 2386.28,1829.47 2389.57,1829.54 2392.87,1829.61 2396.16,1829.67 2399.45,1829.74 2402.75,1829.8 2406.04,1829.86 2409.33,1829.92 
  2412.63,1829.97 2415.92,1830.03 2419.21,1830.08 2422.51,1830.13 2425.8,1830.18 2429.1,1830.23 2432.39,1830.27 2435.68,1830.32 2438.98,1830.36 2442.27,1830.4 
  2445.56,1830.44 2448.86,1830.48 2452.15,1830.52 2455.44,1830.55 2458.74,1830.59 2462.03,1830.62 2465.32,1830.65 2468.62,1830.69 2471.91,1830.72 2475.2,1830.75 
  2478.5,1830.77 2481.79,1830.8 2485.08,1830.83 2488.38,1830.85 2491.67,1830.88 2494.96,1830.9 2498.26,1830.92 2501.55,1830.95 2504.84,1830.97 2508.14,1830.99 
  2511.43,1831.01 2514.73,1831.03 2518.02,1831.05 2521.31,1831.06 2524.61,1831.08 2527.9,1831.1 2531.19,1831.11 2534.49,1831.13 2537.78,1831.14 2541.07,1831.16 
  2544.37,1831.17 2547.66,1831.18 2550.95,1831.2 2554.25,1831.21 2557.54,1831.22 2560.83,1831.23 2564.13,1831.24 2567.42,1831.25 2570.71,1831.26 2574.01,1831.27 
  2577.3,1831.28 2580.59,1831.29 2583.89,1831.3 2587.18,1831.31 2590.47,1831.32 2593.77,1831.32 2597.06,1831.33 2600.36,1831.34 2603.65,1831.35 2606.94,1831.35 
  2610.24,1831.36 2613.53,1831.36 2616.82,1831.37 2620.12,1831.38 2623.41,1831.38 2626.7,1831.39 2630,1831.39 2633.29,1831.4 2636.58,1831.4 2639.88,1831.41 
  2643.17,1831.41 2646.46,1831.41 2649.76,1831.42 2653.05,1831.42 2656.34,1831.42 2659.64,1831.43 2662.93,1831.43 2666.22,1831.43 2669.52,1831.44 2672.81,1831.44 
  2676.1,1831.44 2679.4,1831.45 2682.69,1831.45 2685.99,1831.45 2689.28,1831.45 2692.57,1831.46 2695.87,1831.46 2699.16,1831.46 2702.45,1831.46 2705.75,1831.46 
  2709.04,1831.47 2712.33,1831.47 2715.63,1831.47 2718.92,1831.47 2722.21,1831.47 2725.51,1831.47 2728.8,1831.48 2732.09,1831.48 2735.39,1831.48 2738.68,1831.48 
  2741.97,1831.48 2745.27,1831.48 2748.56,1831.48 2751.85,1831.48 2755.15,1831.48 2758.44,1831.49 2761.73,1831.49 2765.03,1831.49 2768.32,1831.49 2771.62,1831.49 
  2774.91,1831.49 2778.2,1831.49 2781.5,1831.49 2784.79,1831.49 2788.08,1831.49 2791.38,1831.49 2794.67,1831.49 2797.96,1831.49 2801.26,1831.5 2804.55,1831.5 
  2807.84,1831.5 2811.14,1831.5 2814.43,1831.5 2817.72,1831.5 2821.02,1831.5 2824.31,1831.5 2827.6,1831.5 2830.9,1831.5 2834.19,1831.5 2837.48,1831.5 
  2840.78,1831.5 2844.07,1831.5 2847.37,1831.5 2850.66,1831.5 2853.95,1831.5 2857.25,1831.5 2860.54,1831.5 2863.83,1831.5 2867.13,1831.5 2870.42,1831.5 
  2873.71,1831.5 
  "/>
<polyline clip-path="url(#clip0802)" style="stroke:#cc3333; stroke-width:60; stroke-opacity:1; fill:none" points="
  238.941,1831.51 242.235,1831.51 245.528,1831.51 248.822,1831.51 252.115,1831.51 255.408,1831.51 258.702,1831.51 261.995,1831.51 265.289,1831.51 268.582,1831.51 
  271.876,1831.51 275.169,1831.51 278.463,1831.51 281.756,1831.51 285.05,1831.51 288.343,1831.51 291.637,1831.51 294.93,1831.51 298.223,1831.51 301.517,1831.51 
  304.81,1831.51 308.104,1831.51 311.397,1831.51 314.691,1831.51 317.984,1831.51 321.278,1831.51 324.571,1831.51 327.865,1831.51 331.158,1831.51 334.452,1831.51 
  337.745,1831.51 341.039,1831.51 344.332,1831.51 347.625,1831.51 350.919,1831.51 354.212,1831.51 357.506,1831.51 360.799,1831.51 364.093,1831.51 367.386,1831.51 
  370.68,1831.51 373.973,1831.51 377.267,1831.51 380.56,1831.51 383.854,1831.51 387.147,1831.51 390.44,1831.51 393.734,1831.51 397.027,1831.51 400.321,1831.51 
  403.614,1831.51 406.908,1831.51 410.201,1831.51 413.495,1831.51 416.788,1831.51 420.082,1831.51 423.375,1831.51 426.669,1831.51 429.962,1831.51 433.256,1831.51 
  436.549,1831.51 439.842,1831.51 443.136,1831.51 446.429,1831.51 449.723,1831.51 453.016,1831.51 456.31,1831.51 459.603,1831.51 462.897,1831.51 466.19,1831.51 
  469.484,1831.51 472.777,1831.51 476.071,1831.51 479.364,1831.51 482.658,1831.51 485.951,1831.51 489.244,1831.51 492.538,1831.51 495.831,1831.51 499.125,1831.51 
  502.418,1831.51 505.712,1831.51 509.005,1831.51 512.299,1831.51 515.592,1831.51 518.886,1831.51 522.179,1831.51 525.473,1831.51 528.766,1831.51 532.059,1831.51 
  535.353,1831.51 538.646,1831.51 541.94,1831.51 545.233,1831.51 548.527,1831.51 551.82,1831.51 555.114,1831.51 558.407,1831.51 561.701,1831.51 564.994,1831.51 
  568.288,1831.51 571.581,1831.51 574.875,1831.51 578.168,1831.51 581.461,1831.51 584.755,1831.51 588.048,1831.51 591.342,1831.51 594.635,1831.51 597.929,1831.51 
  601.222,1831.51 604.516,1831.51 607.809,1831.51 611.103,1831.51 614.396,1831.51 617.69,1831.51 620.983,1831.51 624.276,1831.51 627.57,1831.51 630.863,1831.51 
  634.157,1831.51 637.45,1831.51 640.744,1831.51 644.037,1831.51 647.331,1831.51 650.624,1831.51 653.918,1831.51 657.211,1831.51 660.505,1831.51 663.798,1831.51 
  667.092,1831.51 670.385,1831.51 673.678,1831.51 676.972,1831.51 680.265,1831.51 683.559,1831.51 686.852,1831.51 690.146,1831.51 693.439,1831.51 696.733,1831.51 
  700.026,1831.51 703.32,1831.51 706.613,1831.51 709.907,1831.51 713.2,1831.51 716.493,1831.51 719.787,1831.51 723.08,1831.51 726.374,1831.51 729.667,1831.51 
  732.961,1831.51 736.254,1831.51 739.548,1831.51 742.841,1831.51 746.135,1831.51 749.428,1831.51 752.722,1831.51 756.015,1831.51 759.309,1831.51 762.602,1831.51 
  765.895,1831.51 769.189,1831.51 772.482,1831.51 775.776,1831.51 779.069,1831.51 782.363,1831.51 785.656,1831.51 788.95,1831.51 792.243,1831.51 795.537,1831.51 
  798.83,1831.51 802.124,1831.51 805.417,1831.51 808.71,1831.5 812.004,1831.5 815.297,1831.5 818.591,1831.5 821.884,1831.5 825.178,1831.5 828.471,1831.5 
  831.765,1831.5 835.058,1831.5 838.352,1831.5 841.645,1831.5 844.939,1831.5 848.232,1831.5 851.526,1831.5 854.819,1831.5 858.112,1831.5 861.406,1831.5 
  864.699,1831.5 867.993,1831.5 871.286,1831.5 874.58,1831.5 877.873,1831.5 881.167,1831.5 884.46,1831.5 887.754,1831.5 891.047,1831.5 894.341,1831.5 
  897.634,1831.5 900.927,1831.5 904.221,1831.5 907.514,1831.5 910.808,1831.5 914.101,1831.5 917.395,1831.5 920.688,1831.49 923.982,1831.49 927.275,1831.49 
  930.569,1831.49 933.862,1831.49 937.156,1831.49 940.449,1831.49 943.743,1831.49 947.036,1831.49 950.329,1831.49 953.623,1831.48 956.916,1831.48 960.21,1831.48 
  963.503,1831.48 966.797,1831.48 970.09,1831.48 973.384,1831.47 976.677,1831.47 979.971,1831.47 983.264,1831.47 986.558,1831.46 989.851,1831.46 993.145,1831.46 
  996.438,1831.46 999.731,1831.45 1003.02,1831.45 1006.32,1831.44 1009.61,1831.44 1012.91,1831.44 1016.2,1831.43 1019.49,1831.43 1022.79,1831.42 1026.08,1831.42 
  1029.37,1831.41 1032.67,1831.41 1035.96,1831.4 1039.25,1831.39 1042.55,1831.38 1045.84,1831.38 1049.13,1831.37 1052.43,1831.36 1055.72,1831.35 1059.01,1831.34 
  1062.31,1831.33 1065.6,1831.32 1068.89,1831.31 1072.19,1831.3 1075.48,1831.28 1078.77,1831.27 1082.07,1831.26 1085.36,1831.24 1088.65,1831.23 1091.95,1831.21 
  1095.24,1831.19 1098.54,1831.17 1101.83,1831.15 1105.12,1831.13 1108.42,1831.11 1111.71,1831.09 1115,1831.06 1118.3,1831.04 1121.59,1831.01 1124.88,1830.98 
  1128.18,1830.95 1131.47,1830.92 1134.76,1830.88 1138.06,1830.85 1141.35,1830.81 1144.64,1830.77 1147.94,1830.73 1151.23,1830.69 1154.52,1830.64 1157.82,1830.59 
  1161.11,1830.54 1164.4,1830.49 1167.7,1830.43 1170.99,1830.37 1174.29,1830.31 1177.58,1830.24 1180.87,1830.18 1184.17,1830.1 1187.46,1830.03 1190.75,1829.95 
  1194.05,1829.87 1197.34,1829.78 1200.63,1829.69 1203.93,1829.59 1207.22,1829.49 1210.51,1829.38 1213.81,1829.27 1217.1,1829.16 1220.39,1829.04 1223.69,1828.91 
  1226.98,1828.78 1230.27,1828.64 1233.57,1828.49 1236.86,1828.34 1240.15,1828.18 1243.45,1828.01 1246.74,1827.83 1250.03,1827.65 1253.33,1827.46 1256.62,1827.26 
  1259.92,1827.05 1263.21,1826.83 1266.5,1826.6 1269.8,1826.36 1273.09,1826.11 1276.38,1825.85 1279.68,1825.58 1282.97,1825.3 1286.26,1825 1289.56,1824.7 
  1292.85,1824.37 1296.14,1824.04 1299.44,1823.69 1302.73,1823.33 1306.02,1822.95 1309.32,1822.55 1312.61,1822.14 1315.9,1821.71 1319.2,1821.27 1322.49,1820.8 
  1325.78,1820.32 1329.08,1819.82 1332.37,1819.3 1335.66,1818.76 1338.96,1818.19 1342.25,1817.6 1345.55,1817 1348.84,1816.36 1352.13,1815.71 1355.43,1815.02 
  1358.72,1814.31 1362.01,1813.58 1365.31,1812.81 1368.6,1812.02 1371.89,1811.2 1375.19,1810.35 1378.48,1809.47 1381.77,1808.55 1385.07,1807.6 1388.36,1806.62 
  1391.65,1805.6 1394.95,1804.55 1398.24,1803.45 1401.53,1802.32 1404.83,1801.15 1408.12,1799.94 1411.41,1798.69 1414.71,1797.4 1418,1796.06 1421.29,1794.67 
  1424.59,1793.24 1427.88,1791.77 1431.18,1790.24 1434.47,1788.66 1437.76,1787.03 1441.06,1785.35 1444.35,1783.62 1447.64,1781.83 1450.94,1779.98 1454.23,1778.08 
  1457.52,1776.11 1460.82,1774.09 1464.11,1772 1467.4,1769.85 1470.7,1767.63 1473.99,1765.35 1477.28,1763 1480.58,1760.58 1483.87,1758.1 1487.16,1755.53 
  1490.46,1752.9 1493.75,1750.19 1497.04,1747.4 1500.34,1744.54 1503.63,1741.59 1506.92,1738.56 1510.22,1735.46 1513.51,1732.26 1516.81,1728.98 1520.1,1725.62 
  1523.39,1722.17 1526.69,1718.62 1529.98,1714.99 1533.27,1711.26 1536.57,1707.43 1539.86,1703.51 1543.15,1699.5 1546.45,1695.38 1549.74,1691.17 1553.03,1686.85 
  1556.33,1682.43 1559.62,1677.9 1562.91,1673.27 1566.21,1668.54 1569.5,1663.69 1572.79,1658.73 1576.09,1653.67 1579.38,1648.49 1582.67,1643.2 1585.97,1637.79 
  1589.26,1632.27 1592.56,1626.64 1595.85,1620.88 1599.14,1615.01 1602.44,1609.02 1605.73,1602.91 1609.02,1596.67 1612.32,1590.32 1615.61,1583.84 1618.9,1577.24 
  1622.2,1570.52 1625.49,1563.67 1628.78,1556.7 1632.08,1549.6 1635.37,1542.38 1638.66,1535.03 1641.96,1527.55 1645.25,1519.95 1648.54,1512.23 1651.84,1504.37 
  1655.13,1496.39 1658.42,1488.29 1661.72,1480.06 1665.01,1471.7 1668.3,1463.22 1671.6,1454.61 1674.89,1445.88 1678.19,1437.03 1681.48,1428.05 1684.77,1418.95 
  1688.07,1409.73 1691.36,1400.39 1694.65,1390.94 1697.95,1381.36 1701.24,1371.67 1704.53,1361.86 1707.83,1351.95 1711.12,1341.92 1714.41,1331.78 1717.71,1321.53 
  1721,1311.17 1724.29,1300.71 1727.59,1290.15 1730.88,1279.49 1734.17,1268.74 1737.47,1257.89 1740.76,1246.94 1744.05,1235.91 1747.35,1224.79 1750.64,1213.58 
  1753.93,1202.29 1757.23,1190.93 1760.52,1179.49 1763.82,1167.98 1767.11,1156.4 1770.4,1144.76 1773.7,1133.05 1776.99,1121.29 1780.28,1109.47 1783.58,1097.61 
  1786.87,1085.7 1790.16,1073.74 1793.46,1061.75 1796.75,1049.73 1800.04,1037.68 1803.34,1025.6 1806.63,1013.5 1809.92,1001.39 1813.22,989.263 1816.51,977.132 
  1819.8,965 1823.1,952.872 1826.39,940.752 1829.68,928.645 1832.98,916.557 1836.27,904.492 1839.56,892.456 1842.86,880.454 1846.15,868.491 1849.45,856.573 
  1852.74,844.705 1856.03,832.892 1859.33,821.139 1862.62,809.453 1865.91,797.838 1869.21,786.301 1872.5,774.845 1875.79,763.478 1879.09,752.205 1882.38,741.031 
  1885.67,729.961 1888.97,719.002 1892.26,708.158 1895.55,697.435 1898.85,686.839 1902.14,676.375 1905.43,666.049 1908.73,655.865 1912.02,645.83 1915.31,635.947 
  1918.61,626.224 1921.9,616.665 1925.19,607.274 1928.49,598.058 1931.78,589.021 1935.08,580.168 1938.37,571.504 1941.66,563.033 1944.96,554.761 1948.25,546.693 
  1951.54,538.831 1954.84,531.182 1958.13,523.749 1961.42,516.536 1964.72,509.549 1968.01,502.789 1971.3,496.263 1974.6,489.972 1977.89,483.922 1981.18,478.115 
  1984.48,472.554 1987.77,467.244 1991.06,462.187 1994.36,457.386 1997.65,452.844 2000.94,448.563 2004.24,444.547 2007.53,440.797 2010.83,437.316 2014.12,434.106 
  2017.41,431.168 2020.71,428.505 2024,426.118 2027.29,424.008 2030.59,422.177 2033.88,420.626 2037.17,419.356 2040.47,418.367 2043.76,417.66 2047.05,417.236 
  2050.35,417.095 2053.64,417.236 2056.93,417.66 2060.23,418.367 2063.52,419.356 2066.81,420.626 2070.11,422.177 2073.4,424.008 2076.69,426.118 2079.99,428.505 
  2083.28,431.168 2086.57,434.106 2089.87,437.316 2093.16,440.797 2096.46,444.547 2099.75,448.563 2103.04,452.844 2106.34,457.386 2109.63,462.187 2112.92,467.244 
  2116.22,472.554 2119.51,478.115 2122.8,483.922 2126.1,489.972 2129.39,496.263 2132.68,502.789 2135.98,509.549 2139.27,516.536 2142.56,523.749 2145.86,531.182 
  2149.15,538.831 2152.44,546.693 2155.74,554.761 2159.03,563.033 2162.32,571.504 2165.62,580.168 2168.91,589.021 2172.2,598.058 2175.5,607.274 2178.79,616.665 
  2182.09,626.224 2185.38,635.947 2188.67,645.83 2191.97,655.865 2195.26,666.049 2198.55,676.375 2201.85,686.839 2205.14,697.435 2208.43,708.158 2211.73,719.002 
  2215.02,729.961 2218.31,741.031 2221.61,752.205 2224.9,763.478 2228.19,774.845 2231.49,786.301 2234.78,797.838 2238.07,809.453 2241.37,821.139 2244.66,832.892 
  2247.95,844.705 2251.25,856.573 2254.54,868.491 2257.83,880.454 2261.13,892.456 2264.42,904.492 2267.72,916.557 2271.01,928.645 2274.3,940.752 2277.6,952.872 
  2280.89,965 2284.18,977.132 2287.48,989.263 2290.77,1001.39 2294.06,1013.5 2297.36,1025.6 2300.65,1037.68 2303.94,1049.73 2307.24,1061.75 2310.53,1073.74 
  2313.82,1085.7 2317.12,1097.61 2320.41,1109.47 2323.7,1121.29 2327,1133.05 2330.29,1144.76 2333.58,1156.4 2336.88,1167.98 2340.17,1179.49 2343.46,1190.93 
  2346.76,1202.29 2350.05,1213.58 2353.35,1224.79 2356.64,1235.91 2359.93,1246.94 2363.23,1257.89 2366.52,1268.74 2369.81,1279.49 2373.11,1290.15 2376.4,1300.71 
  2379.69,1311.17 2382.99,1321.53 2386.28,1331.78 2389.57,1341.92 2392.87,1351.95 2396.16,1361.86 2399.45,1371.67 2402.75,1381.36 2406.04,1390.94 2409.33,1400.39 
  2412.63,1409.73 2415.92,1418.95 2419.21,1428.05 2422.51,1437.03 2425.8,1445.88 2429.1,1454.61 2432.39,1463.22 2435.68,1471.7 2438.98,1480.06 2442.27,1488.29 
  2445.56,1496.39 2448.86,1504.37 2452.15,1512.23 2455.44,1519.95 2458.74,1527.55 2462.03,1535.03 2465.32,1542.38 2468.62,1549.6 2471.91,1556.7 2475.2,1563.67 
  2478.5,1570.52 2481.79,1577.24 2485.08,1583.84 2488.38,1590.32 2491.67,1596.67 2494.96,1602.91 2498.26,1609.02 2501.55,1615.01 2504.84,1620.88 2508.14,1626.64 
  2511.43,1632.27 2514.73,1637.79 2518.02,1643.2 2521.31,1648.49 2524.61,1653.67 2527.9,1658.73 2531.19,1663.69 2534.49,1668.54 2537.78,1673.27 2541.07,1677.9 
  2544.37,1682.43 2547.66,1686.85 2550.95,1691.17 2554.25,1695.38 2557.54,1699.5 2560.83,1703.51 2564.13,1707.43 2567.42,1711.26 2570.71,1714.99 2574.01,1718.62 
  2577.3,1722.17 2580.59,1725.62 2583.89,1728.98 2587.18,1732.26 2590.47,1735.46 2593.77,1738.56 2597.06,1741.59 2600.36,1744.54 2603.65,1747.4 2606.94,1750.19 
  2610.24,1752.9 2613.53,1755.53 2616.82,1758.1 2620.12,1760.58 2623.41,1763 2626.7,1765.35 2630,1767.63 2633.29,1769.85 2636.58,1772 2639.88,1774.09 
  2643.17,1776.11 2646.46,1778.08 2649.76,1779.98 2653.05,1781.83 2656.34,1783.62 2659.64,1785.35 2662.93,1787.03 2666.22,1788.66 2669.52,1790.24 2672.81,1791.77 
  2676.1,1793.24 2679.4,1794.67 2682.69,1796.06 2685.99,1797.4 2689.28,1798.69 2692.57,1799.94 2695.87,1801.15 2699.16,1802.32 2702.45,1803.45 2705.75,1804.55 
  2709.04,1805.6 2712.33,1806.62 2715.63,1807.6 2718.92,1808.55 2722.21,1809.47 2725.51,1810.35 2728.8,1811.2 2732.09,1812.02 2735.39,1812.81 2738.68,1813.58 
  2741.97,1814.31 2745.27,1815.02 2748.56,1815.71 2751.85,1816.36 2755.15,1817 2758.44,1817.6 2761.73,1818.19 2765.03,1818.76 2768.32,1819.3 2771.62,1819.82 
  2774.91,1820.32 2778.2,1820.8 2781.5,1821.27 2784.79,1821.71 2788.08,1822.14 2791.38,1822.55 2794.67,1822.95 2797.96,1823.33 2801.26,1823.69 2804.55,1824.04 
  2807.84,1824.37 2811.14,1824.7 2814.43,1825 2817.72,1825.3 2821.02,1825.58 2824.31,1825.85 2827.6,1826.11 2830.9,1826.36 2834.19,1826.6 2837.48,1826.83 
  2840.78,1827.05 2844.07,1827.26 2847.37,1827.46 2850.66,1827.65 2853.95,1827.83 2857.25,1828.01 2860.54,1828.18 2863.83,1828.34 2867.13,1828.49 2870.42,1828.64 
  2873.71,1828.78 
  "/>
<polyline clip-path="url(#clip0802)" style="stroke:#218921; stroke-width:60; stroke-opacity:1; fill:none" points="
  238.941,1831.51 242.235,1831.51 245.528,1831.51 248.822,1831.51 252.115,1831.51 255.408,1831.51 258.702,1831.51 261.995,1831.51 265.289,1831.51 268.582,1831.51 
  271.876,1831.51 275.169,1831.51 278.463,1831.51 281.756,1831.51 285.05,1831.51 288.343,1831.51 291.637,1831.51 294.93,1831.51 298.223,1831.51 301.517,1831.51 
  304.81,1831.51 308.104,1831.51 311.397,1831.51 314.691,1831.51 317.984,1831.51 321.278,1831.51 324.571,1831.51 327.865,1831.51 331.158,1831.51 334.452,1831.51 
  337.745,1831.51 341.039,1831.51 344.332,1831.51 347.625,1831.51 350.919,1831.51 354.212,1831.51 357.506,1831.51 360.799,1831.51 364.093,1831.51 367.386,1831.51 
  370.68,1831.51 373.973,1831.51 377.267,1831.51 380.56,1831.51 383.854,1831.51 387.147,1831.51 390.44,1831.51 393.734,1831.51 397.027,1831.51 400.321,1831.51 
  403.614,1831.51 406.908,1831.51 410.201,1831.51 413.495,1831.51 416.788,1831.51 420.082,1831.51 423.375,1831.51 426.669,1831.51 429.962,1831.51 433.256,1831.51 
  436.549,1831.51 439.842,1831.51 443.136,1831.51 446.429,1831.51 449.723,1831.51 453.016,1831.51 456.31,1831.51 459.603,1831.51 462.897,1831.51 466.19,1831.51 
  469.484,1831.51 472.777,1831.51 476.071,1831.51 479.364,1831.51 482.658,1831.51 485.951,1831.51 489.244,1831.51 492.538,1831.51 495.831,1831.51 499.125,1831.51 
  502.418,1831.51 505.712,1831.51 509.005,1831.51 512.299,1831.51 515.592,1831.51 518.886,1831.51 522.179,1831.51 525.473,1831.51 528.766,1831.51 532.059,1831.51 
  535.353,1831.51 538.646,1831.51 541.94,1831.51 545.233,1831.51 548.527,1831.51 551.82,1831.51 555.114,1831.51 558.407,1831.51 561.701,1831.51 564.994,1831.51 
  568.288,1831.51 571.581,1831.51 574.875,1831.51 578.168,1831.51 581.461,1831.51 584.755,1831.51 588.048,1831.51 591.342,1831.51 594.635,1831.51 597.929,1831.51 
  601.222,1831.51 604.516,1831.51 607.809,1831.51 611.103,1831.51 614.396,1831.51 617.69,1831.51 620.983,1831.51 624.276,1831.51 627.57,1831.51 630.863,1831.51 
  634.157,1831.51 637.45,1831.51 640.744,1831.51 644.037,1831.51 647.331,1831.51 650.624,1831.51 653.918,1831.51 657.211,1831.51 660.505,1831.51 663.798,1831.51 
  667.092,1831.51 670.385,1831.51 673.678,1831.51 676.972,1831.51 680.265,1831.51 683.559,1831.51 686.852,1831.51 690.146,1831.51 693.439,1831.51 696.733,1831.51 
  700.026,1831.51 703.32,1831.51 706.613,1831.51 709.907,1831.51 713.2,1831.51 716.493,1831.51 719.787,1831.51 723.08,1831.51 726.374,1831.51 729.667,1831.51 
  732.961,1831.51 736.254,1831.51 739.548,1831.51 742.841,1831.51 746.135,1831.51 749.428,1831.51 752.722,1831.51 756.015,1831.51 759.309,1831.51 762.602,1831.51 
  765.895,1831.51 769.189,1831.51 772.482,1831.51 775.776,1831.51 779.069,1831.51 782.363,1831.51 785.656,1831.51 788.95,1831.51 792.243,1831.51 795.537,1831.51 
  798.83,1831.51 802.124,1831.51 805.417,1831.51 808.71,1831.51 812.004,1831.51 815.297,1831.51 818.591,1831.51 821.884,1831.51 825.178,1831.51 828.471,1831.51 
  831.765,1831.51 835.058,1831.51 838.352,1831.51 841.645,1831.51 844.939,1831.51 848.232,1831.51 851.526,1831.51 854.819,1831.51 858.112,1831.51 861.406,1831.51 
  864.699,1831.5 867.993,1831.5 871.286,1831.5 874.58,1831.5 877.873,1831.5 881.167,1831.5 884.46,1831.5 887.754,1831.5 891.047,1831.5 894.341,1831.5 
  897.634,1831.5 900.927,1831.5 904.221,1831.5 907.514,1831.5 910.808,1831.5 914.101,1831.5 917.395,1831.5 920.688,1831.5 923.982,1831.5 927.275,1831.5 
  930.569,1831.5 933.862,1831.5 937.156,1831.5 940.449,1831.5 943.743,1831.5 947.036,1831.5 950.329,1831.5 953.623,1831.5 956.916,1831.49 960.21,1831.49 
  963.503,1831.49 966.797,1831.49 970.09,1831.49 973.384,1831.49 976.677,1831.49 979.971,1831.49 983.264,1831.48 986.558,1831.48 989.851,1831.48 993.145,1831.48 
  996.438,1831.48 999.731,1831.47 1003.02,1831.47 1006.32,1831.47 1009.61,1831.46 1012.91,1831.46 1016.2,1831.46 1019.49,1831.45 1022.79,1831.45 1026.08,1831.44 
  1029.37,1831.44 1032.67,1831.43 1035.96,1831.43 1039.25,1831.42 1042.55,1831.41 1045.84,1831.41 1049.13,1831.4 1052.43,1831.39 1055.72,1831.38 1059.01,1831.37 
  1062.31,1831.36 1065.6,1831.35 1068.89,1831.34 1072.19,1831.32 1075.48,1831.31 1078.77,1831.29 1082.07,1831.28 1085.36,1831.26 1088.65,1831.24 1091.95,1831.22 
  1095.24,1831.2 1098.54,1831.18 1101.83,1831.15 1105.12,1831.13 1108.42,1831.1 1111.71,1831.07 1115,1831.04 1118.3,1831 1121.59,1830.97 1124.88,1830.93 
  1128.18,1830.89 1131.47,1830.84 1134.76,1830.79 1138.06,1830.74 1141.35,1830.69 1144.64,1830.63 1147.94,1830.57 1151.23,1830.51 1154.52,1830.44 1157.82,1830.37 
  1161.11,1830.29 1164.4,1830.21 1167.7,1830.12 1170.99,1830.02 1174.29,1829.92 1177.58,1829.82 1180.87,1829.71 1184.17,1829.59 1187.46,1829.46 1190.75,1829.33 
  1194.05,1829.18 1197.34,1829.03 1200.63,1828.87 1203.93,1828.71 1207.22,1828.53 1210.51,1828.34 1213.81,1828.14 1217.1,1827.92 1220.39,1827.7 1223.69,1827.46 
  1226.98,1827.21 1230.27,1826.95 1233.57,1826.67 1236.86,1826.37 1240.15,1826.06 1243.45,1825.73 1246.74,1825.38 1250.03,1825.02 1253.33,1824.63 1256.62,1824.23 
  1259.92,1823.8 1263.21,1823.35 1266.5,1822.87 1269.8,1822.37 1273.09,1821.85 1276.38,1821.3 1279.68,1820.71 1282.97,1820.1 1286.26,1819.46 1289.56,1818.79 
  1292.85,1818.08 1296.14,1817.34 1299.44,1816.56 1302.73,1815.74 1306.02,1814.88 1309.32,1813.98 1312.61,1813.04 1315.9,1812.06 1319.2,1811.02 1322.49,1809.94 
  1325.78,1808.81 1329.08,1807.63 1332.37,1806.39 1335.66,1805.09 1338.96,1803.74 1342.25,1802.33 1345.55,1800.85 1348.84,1799.31 1352.13,1797.7 1355.43,1796.02 
  1358.72,1794.27 1362.01,1792.45 1365.31,1790.55 1368.6,1788.56 1371.89,1786.5 1375.19,1784.35 1378.48,1782.11 1381.77,1779.79 1385.07,1777.36 1388.36,1774.85 
  1391.65,1772.23 1394.95,1769.51 1398.24,1766.69 1401.53,1763.75 1404.83,1760.71 1408.12,1757.55 1411.41,1754.27 1414.71,1750.88 1418,1747.36 1421.29,1743.71 
  1424.59,1739.93 1427.88,1736.01 1431.18,1731.96 1434.47,1727.77 1437.76,1723.43 1441.06,1718.95 1444.35,1714.32 1447.64,1709.53 1450.94,1704.58 1454.23,1699.47 
  1457.52,1694.2 1460.82,1688.76 1464.11,1683.15 1467.4,1677.37 1470.7,1671.41 1473.99,1665.26 1477.28,1658.94 1480.58,1652.42 1483.87,1645.72 1487.16,1638.82 
  1490.46,1631.73 1493.75,1624.44 1497.04,1616.94 1500.34,1609.25 1503.63,1601.34 1506.92,1593.22 1510.22,1584.9 1513.51,1576.36 1516.81,1567.6 1520.1,1558.62 
  1523.39,1549.42 1526.69,1540 1529.98,1530.36 1533.27,1520.49 1536.57,1510.39 1539.86,1500.06 1543.15,1489.51 1546.45,1478.72 1549.74,1467.71 1553.03,1456.46 
  1556.33,1444.98 1559.62,1433.27 1562.91,1421.32 1566.21,1409.15 1569.5,1396.74 1572.79,1384.11 1576.09,1371.24 1579.38,1358.15 1582.67,1344.83 1585.97,1331.28 
  1589.26,1317.52 1592.56,1303.53 1595.85,1289.32 1599.14,1274.9 1602.44,1260.27 1605.73,1245.43 1609.02,1230.38 1612.32,1215.13 1615.61,1199.69 1618.9,1184.05 
  1622.2,1168.22 1625.49,1152.21 1628.78,1136.03 1632.08,1119.67 1635.37,1103.14 1638.66,1086.46 1641.96,1069.62 1645.25,1052.63 1648.54,1035.5 1651.84,1018.25 
  1655.13,1000.86 1658.42,983.361 1661.72,965.752 1665.01,948.041 1668.3,930.239 1671.6,912.354 1674.89,894.395 1678.19,876.372 1681.48,858.295 1684.77,840.172 
  1688.07,822.015 1691.36,803.834 1694.65,785.639 1697.95,767.441 1701.24,749.252 1704.53,731.081 1707.83,712.942 1711.12,694.844 1714.41,676.8 1717.71,658.821 
  1721,640.919 1724.29,623.107 1727.59,605.397 1730.88,587.799 1734.17,570.328 1737.47,552.995 1740.76,535.813 1744.05,518.793 1747.35,501.949 1750.64,485.292 
  1753.93,468.836 1757.23,452.592 1760.52,436.573 1763.82,420.792 1767.11,405.26 1770.4,389.989 1773.7,374.992 1776.99,360.28 1780.28,345.865 1783.58,331.76 
  1786.87,317.974 1790.16,304.52 1793.46,291.408 1796.75,278.65 1800.04,266.255 1803.34,254.235 1806.63,242.6 1809.92,231.358 1813.22,220.521 1816.51,210.096 
  1819.8,200.094 1823.1,190.522 1826.39,181.389 1829.68,172.703 1832.98,164.472 1836.27,156.702 1839.56,149.401 1842.86,142.575 1846.15,136.229 1849.45,130.37 
  1852.74,125.003 1856.03,120.133 1859.33,115.763 1862.62,111.899 1865.91,108.542 1869.21,105.697 1872.5,103.365 1875.79,101.55 1879.09,100.252 1882.38,99.4727 
  1885.67,99.2129 1888.97,99.4727 1892.26,100.252 1895.55,101.55 1898.85,103.365 1902.14,105.697 1905.43,108.542 1908.73,111.899 1912.02,115.763 1915.31,120.133 
  1918.61,125.003 1921.9,130.37 1925.19,136.229 1928.49,142.575 1931.78,149.401 1935.08,156.702 1938.37,164.472 1941.66,172.703 1944.96,181.389 1948.25,190.522 
  1951.54,200.094 1954.84,210.096 1958.13,220.521 1961.42,231.358 1964.72,242.6 1968.01,254.235 1971.3,266.255 1974.6,278.65 1977.89,291.408 1981.18,304.52 
  1984.48,317.974 1987.77,331.76 1991.06,345.865 1994.36,360.28 1997.65,374.992 2000.94,389.989 2004.24,405.26 2007.53,420.792 2010.83,436.573 2014.12,452.592 
  2017.41,468.836 2020.71,485.292 2024,501.949 2027.29,518.793 2030.59,535.813 2033.88,552.995 2037.17,570.328 2040.47,587.799 2043.76,605.397 2047.05,623.107 
  2050.35,640.919 2053.64,658.821 2056.93,676.8 2060.23,694.844 2063.52,712.942 2066.81,731.081 2070.11,749.252 2073.4,767.441 2076.69,785.639 2079.99,803.834 
  2083.28,822.015 2086.57,840.172 2089.87,858.295 2093.16,876.372 2096.46,894.395 2099.75,912.354 2103.04,930.239 2106.34,948.041 2109.63,965.752 2112.92,983.361 
  2116.22,1000.86 2119.51,1018.25 2122.8,1035.5 2126.1,1052.63 2129.39,1069.62 2132.68,1086.46 2135.98,1103.14 2139.27,1119.67 2142.56,1136.03 2145.86,1152.21 
  2149.15,1168.22 2152.44,1184.05 2155.74,1199.69 2159.03,1215.13 2162.32,1230.38 2165.62,1245.43 2168.91,1260.27 2172.2,1274.9 2175.5,1289.32 2178.79,1303.53 
  2182.09,1317.52 2185.38,1331.28 2188.67,1344.83 2191.97,1358.15 2195.26,1371.24 2198.55,1384.11 2201.85,1396.74 2205.14,1409.15 2208.43,1421.32 2211.73,1433.27 
  2215.02,1444.98 2218.31,1456.46 2221.61,1467.71 2224.9,1478.72 2228.19,1489.51 2231.49,1500.06 2234.78,1510.39 2238.07,1520.49 2241.37,1530.36 2244.66,1540 
  2247.95,1549.42 2251.25,1558.62 2254.54,1567.6 2257.83,1576.36 2261.13,1584.9 2264.42,1593.22 2267.72,1601.34 2271.01,1609.25 2274.3,1616.94 2277.6,1624.44 
  2280.89,1631.73 2284.18,1638.82 2287.48,1645.72 2290.77,1652.42 2294.06,1658.94 2297.36,1665.26 2300.65,1671.41 2303.94,1677.37 2307.24,1683.15 2310.53,1688.76 
  2313.82,1694.2 2317.12,1699.47 2320.41,1704.58 2323.7,1709.53 2327,1714.32 2330.29,1718.95 2333.58,1723.43 2336.88,1727.77 2340.17,1731.96 2343.46,1736.01 
  2346.76,1739.93 2350.05,1743.71 2353.35,1747.36 2356.64,1750.88 2359.93,1754.27 2363.23,1757.55 2366.52,1760.71 2369.81,1763.75 2373.11,1766.69 2376.4,1769.51 
  2379.69,1772.23 2382.99,1774.85 2386.28,1777.36 2389.57,1779.79 2392.87,1782.11 2396.16,1784.35 2399.45,1786.5 2402.75,1788.56 2406.04,1790.55 2409.33,1792.45 
  2412.63,1794.27 2415.92,1796.02 2419.21,1797.7 2422.51,1799.31 2425.8,1800.85 2429.1,1802.33 2432.39,1803.74 2435.68,1805.09 2438.98,1806.39 2442.27,1807.63 
  2445.56,1808.81 2448.86,1809.94 2452.15,1811.02 2455.44,1812.06 2458.74,1813.04 2462.03,1813.98 2465.32,1814.88 2468.62,1815.74 2471.91,1816.56 2475.2,1817.34 
  2478.5,1818.08 2481.79,1818.79 2485.08,1819.46 2488.38,1820.1 2491.67,1820.71 2494.96,1821.3 2498.26,1821.85 2501.55,1822.37 2504.84,1822.87 2508.14,1823.35 
  2511.43,1823.8 2514.73,1824.23 2518.02,1824.63 2521.31,1825.02 2524.61,1825.38 2527.9,1825.73 2531.19,1826.06 2534.49,1826.37 2537.78,1826.67 2541.07,1826.95 
  2544.37,1827.21 2547.66,1827.46 2550.95,1827.7 2554.25,1827.92 2557.54,1828.14 2560.83,1828.34 2564.13,1828.53 2567.42,1828.71 2570.71,1828.87 2574.01,1829.03 
  2577.3,1829.18 2580.59,1829.33 2583.89,1829.46 2587.18,1829.59 2590.47,1829.71 2593.77,1829.82 2597.06,1829.92 2600.36,1830.02 2603.65,1830.12 2606.94,1830.21 
  2610.24,1830.29 2613.53,1830.37 2616.82,1830.44 2620.12,1830.51 2623.41,1830.57 2626.7,1830.63 2630,1830.69 2633.29,1830.74 2636.58,1830.79 2639.88,1830.84 
  2643.17,1830.89 2646.46,1830.93 2649.76,1830.97 2653.05,1831 2656.34,1831.04 2659.64,1831.07 2662.93,1831.1 2666.22,1831.13 2669.52,1831.15 2672.81,1831.18 
  2676.1,1831.2 2679.4,1831.22 2682.69,1831.24 2685.99,1831.26 2689.28,1831.28 2692.57,1831.29 2695.87,1831.31 2699.16,1831.32 2702.45,1831.34 2705.75,1831.35 
  2709.04,1831.36 2712.33,1831.37 2715.63,1831.38 2718.92,1831.39 2722.21,1831.4 2725.51,1831.41 2728.8,1831.41 2732.09,1831.42 2735.39,1831.43 2738.68,1831.43 
  2741.97,1831.44 2745.27,1831.44 2748.56,1831.45 2751.85,1831.45 2755.15,1831.46 2758.44,1831.46 2761.73,1831.46 2765.03,1831.47 2768.32,1831.47 2771.62,1831.47 
  2774.91,1831.48 2778.2,1831.48 2781.5,1831.48 2784.79,1831.48 2788.08,1831.48 2791.38,1831.49 2794.67,1831.49 2797.96,1831.49 2801.26,1831.49 2804.55,1831.49 
  2807.84,1831.49 2811.14,1831.49 2814.43,1831.49 2817.72,1831.5 2821.02,1831.5 2824.31,1831.5 2827.6,1831.5 2830.9,1831.5 2834.19,1831.5 2837.48,1831.5 
  2840.78,1831.5 2844.07,1831.5 2847.37,1831.5 2850.66,1831.5 2853.95,1831.5 2857.25,1831.5 2860.54,1831.5 2863.83,1831.5 2867.13,1831.5 2870.42,1831.5 
  2873.71,1831.5 
  "/>
</svg>
