<?xml version="1.0" encoding="utf-8"?>
<svg xmlns="http://www.w3.org/2000/svg" xmlns:xlink="http://www.w3.org/1999/xlink" width="600" height="300" viewBox="0 0 2400 1200">
<defs>
  <clipPath id="clip050">
    <rect x="0" y="0" width="2400" height="1200"/>
  </clipPath>
</defs>
<path clip-path="url(#clip050)" d="M0 1200 L2400 1200 L2400 0 L0 0  Z" fill="#ffffff" fill-rule="evenodd" fill-opacity="1"/>
<defs>
  <clipPath id="clip051">
    <rect x="480" y="0" width="1681" height="1200"/>
  </clipPath>
</defs>
<path clip-path="url(#clip050)" d="M172.015 1099.09 L2352.76 1099.09 L2352.76 47.2441 L172.015 47.2441  Z" fill="#ffffff" fill-rule="evenodd" fill-opacity="1"/>
<defs>
  <clipPath id="clip052">
    <rect x="172" y="47" width="2182" height="1053"/>
  </clipPath>
</defs>
<polyline clip-path="url(#clip052)" style="stroke:#000000; stroke-linecap:round; stroke-linejoin:round; stroke-width:2; stroke-opacity:0.1; fill:none" points="471.115,1099.09 471.115,47.2441 "/>
<polyline clip-path="url(#clip052)" style="stroke:#000000; stroke-linecap:round; stroke-linejoin:round; stroke-width:2; stroke-opacity:0.1; fill:none" points="866.75,1099.09 866.75,47.2441 "/>
<polyline clip-path="url(#clip052)" style="stroke:#000000; stroke-linecap:round; stroke-linejoin:round; stroke-width:2; stroke-opacity:0.1; fill:none" points="1262.39,1099.09 1262.39,47.2441 "/>
<polyline clip-path="url(#clip052)" style="stroke:#000000; stroke-linecap:round; stroke-linejoin:round; stroke-width:2; stroke-opacity:0.1; fill:none" points="1658.02,1099.09 1658.02,47.2441 "/>
<polyline clip-path="url(#clip052)" style="stroke:#000000; stroke-linecap:round; stroke-linejoin:round; stroke-width:2; stroke-opacity:0.1; fill:none" points="2053.66,1099.09 2053.66,47.2441 "/>
<polyline clip-path="url(#clip050)" style="stroke:#000000; stroke-linecap:round; stroke-linejoin:round; stroke-width:4; stroke-opacity:1; fill:none" points="172.015,1099.09 2352.76,1099.09 "/>
<polyline clip-path="url(#clip050)" style="stroke:#000000; stroke-linecap:round; stroke-linejoin:round; stroke-width:4; stroke-opacity:1; fill:none" points="471.115,1099.09 471.115,1080.19 "/>
<polyline clip-path="url(#clip050)" style="stroke:#000000; stroke-linecap:round; stroke-linejoin:round; stroke-width:4; stroke-opacity:1; fill:none" points="866.75,1099.09 866.75,1080.19 "/>
<polyline clip-path="url(#clip050)" style="stroke:#000000; stroke-linecap:round; stroke-linejoin:round; stroke-width:4; stroke-opacity:1; fill:none" points="1262.39,1099.09 1262.39,1080.19 "/>
<polyline clip-path="url(#clip050)" style="stroke:#000000; stroke-linecap:round; stroke-linejoin:round; stroke-width:4; stroke-opacity:1; fill:none" points="1658.02,1099.09 1658.02,1080.19 "/>
<polyline clip-path="url(#clip050)" style="stroke:#000000; stroke-linecap:round; stroke-linejoin:round; stroke-width:4; stroke-opacity:1; fill:none" points="2053.66,1099.09 2053.66,1080.19 "/>
<path clip-path="url(#clip050)" d="M442.851 1157.55 L459.171 1157.55 L459.171 1161.49 L437.226 1161.49 L437.226 1157.55 Q439.888 1154.8 444.472 1150.17 Q449.078 1145.52 450.259 1144.17 Q452.504 1141.65 453.384 1139.91 Q454.286 1138.15 454.286 1136.46 Q454.286 1133.71 452.342 1131.97 Q450.421 1130.24 447.319 1130.24 Q445.12 1130.24 442.666 1131 Q440.236 1131.77 437.458 1133.32 L437.458 1128.59 Q440.282 1127.46 442.736 1126.88 Q445.189 1126.3 447.226 1126.3 Q452.597 1126.3 455.791 1128.99 Q458.985 1131.67 458.985 1136.16 Q458.985 1138.29 458.175 1140.21 Q457.388 1142.11 455.282 1144.71 Q454.703 1145.38 451.601 1148.59 Q448.499 1151.79 442.851 1157.55 Z" fill="#000000" fill-rule="nonzero" fill-opacity="1" /><path clip-path="url(#clip050)" d="M468.985 1155.61 L473.87 1155.61 L473.87 1161.49 L468.985 1161.49 L468.985 1155.61 Z" fill="#000000" fill-rule="nonzero" fill-opacity="1" /><path clip-path="url(#clip050)" d="M484.101 1126.93 L502.457 1126.93 L502.457 1130.86 L488.383 1130.86 L488.383 1139.34 Q489.402 1138.99 490.42 1138.83 Q491.439 1138.64 492.457 1138.64 Q498.244 1138.64 501.624 1141.81 Q505.004 1144.98 505.004 1150.4 Q505.004 1155.98 501.532 1159.08 Q498.059 1162.16 491.74 1162.16 Q489.564 1162.16 487.295 1161.79 Q485.05 1161.42 482.643 1160.68 L482.643 1155.98 Q484.726 1157.11 486.948 1157.67 Q489.17 1158.22 491.647 1158.22 Q495.652 1158.22 497.99 1156.12 Q500.328 1154.01 500.328 1150.4 Q500.328 1146.79 497.99 1144.68 Q495.652 1142.58 491.647 1142.58 Q489.772 1142.58 487.897 1142.99 Q486.045 1143.41 484.101 1144.29 L484.101 1126.93 Z" fill="#000000" fill-rule="nonzero" fill-opacity="1" /><path clip-path="url(#clip050)" d="M833.915 1126.93 L852.271 1126.93 L852.271 1130.86 L838.197 1130.86 L838.197 1139.34 Q839.216 1138.99 840.234 1138.83 Q841.253 1138.64 842.271 1138.64 Q848.058 1138.64 851.438 1141.81 Q854.817 1144.98 854.817 1150.4 Q854.817 1155.98 851.345 1159.08 Q847.873 1162.16 841.554 1162.16 Q839.378 1162.16 837.109 1161.79 Q834.864 1161.42 832.456 1160.68 L832.456 1155.98 Q834.54 1157.11 836.762 1157.67 Q838.984 1158.22 841.461 1158.22 Q845.466 1158.22 847.804 1156.12 Q850.141 1154.01 850.141 1150.4 Q850.141 1146.79 847.804 1144.68 Q845.466 1142.58 841.461 1142.58 Q839.586 1142.58 837.711 1142.99 Q835.859 1143.41 833.915 1144.29 L833.915 1126.93 Z" fill="#000000" fill-rule="nonzero" fill-opacity="1" /><path clip-path="url(#clip050)" d="M864.03 1155.61 L868.915 1155.61 L868.915 1161.49 L864.03 1161.49 L864.03 1155.61 Z" fill="#000000" fill-rule="nonzero" fill-opacity="1" /><path clip-path="url(#clip050)" d="M889.1 1130.01 Q885.489 1130.01 883.66 1133.57 Q881.854 1137.11 881.854 1144.24 Q881.854 1151.35 883.66 1154.91 Q885.489 1158.46 889.1 1158.46 Q892.734 1158.46 894.539 1154.91 Q896.368 1151.35 896.368 1144.24 Q896.368 1137.11 894.539 1133.57 Q892.734 1130.01 889.1 1130.01 M889.1 1126.3 Q894.91 1126.3 897.965 1130.91 Q901.044 1135.49 901.044 1144.24 Q901.044 1152.97 897.965 1157.58 Q894.91 1162.16 889.1 1162.16 Q883.289 1162.16 880.211 1157.58 Q877.155 1152.97 877.155 1144.24 Q877.155 1135.49 880.211 1130.91 Q883.289 1126.3 889.1 1126.3 Z" fill="#000000" fill-rule="nonzero" fill-opacity="1" /><path clip-path="url(#clip050)" d="M1228.7 1126.93 L1250.93 1126.93 L1250.93 1128.92 L1238.38 1161.49 L1233.5 1161.49 L1245.3 1130.86 L1228.7 1130.86 L1228.7 1126.93 Z" fill="#000000" fill-rule="nonzero" fill-opacity="1" /><path clip-path="url(#clip050)" d="M1260.05 1155.61 L1264.93 1155.61 L1264.93 1161.49 L1260.05 1161.49 L1260.05 1155.61 Z" fill="#000000" fill-rule="nonzero" fill-opacity="1" /><path clip-path="url(#clip050)" d="M1275.16 1126.93 L1293.52 1126.93 L1293.52 1130.86 L1279.45 1130.86 L1279.45 1139.34 Q1280.46 1138.99 1281.48 1138.83 Q1282.5 1138.64 1283.52 1138.64 Q1289.31 1138.64 1292.69 1141.81 Q1296.07 1144.98 1296.07 1150.4 Q1296.07 1155.98 1292.59 1159.08 Q1289.12 1162.16 1282.8 1162.16 Q1280.63 1162.16 1278.36 1161.79 Q1276.11 1161.42 1273.7 1160.68 L1273.7 1155.98 Q1275.79 1157.11 1278.01 1157.67 Q1280.23 1158.22 1282.71 1158.22 Q1286.71 1158.22 1289.05 1156.12 Q1291.39 1154.01 1291.39 1150.4 Q1291.39 1146.79 1289.05 1144.68 Q1286.71 1142.58 1282.71 1142.58 Q1280.83 1142.58 1278.96 1142.99 Q1277.11 1143.41 1275.16 1144.29 L1275.16 1126.93 Z" fill="#000000" fill-rule="nonzero" fill-opacity="1" /><path clip-path="url(#clip050)" d="M1610.09 1157.55 L1617.73 1157.55 L1617.73 1131.19 L1609.42 1132.85 L1609.42 1128.59 L1617.69 1126.93 L1622.36 1126.93 L1622.36 1157.55 L1630 1157.55 L1630 1161.49 L1610.09 1161.49 L1610.09 1157.55 Z" fill="#000000" fill-rule="nonzero" fill-opacity="1" /><path clip-path="url(#clip050)" d="M1649.44 1130.01 Q1645.83 1130.01 1644 1133.57 Q1642.2 1137.11 1642.2 1144.24 Q1642.2 1151.35 1644 1154.91 Q1645.83 1158.46 1649.44 1158.46 Q1653.08 1158.46 1654.88 1154.91 Q1656.71 1151.35 1656.71 1144.24 Q1656.71 1137.11 1654.88 1133.57 Q1653.08 1130.01 1649.44 1130.01 M1649.44 1126.3 Q1655.25 1126.3 1658.31 1130.91 Q1661.39 1135.49 1661.39 1144.24 Q1661.39 1152.97 1658.31 1157.58 Q1655.25 1162.16 1649.44 1162.16 Q1643.63 1162.16 1640.56 1157.58 Q1637.5 1152.97 1637.5 1144.24 Q1637.5 1135.49 1640.56 1130.91 Q1643.63 1126.3 1649.44 1126.3 Z" fill="#000000" fill-rule="nonzero" fill-opacity="1" /><path clip-path="url(#clip050)" d="M1669.61 1155.61 L1674.49 1155.61 L1674.49 1161.49 L1669.61 1161.49 L1669.61 1155.61 Z" fill="#000000" fill-rule="nonzero" fill-opacity="1" /><path clip-path="url(#clip050)" d="M1694.68 1130.01 Q1691.06 1130.01 1689.24 1133.57 Q1687.43 1137.11 1687.43 1144.24 Q1687.43 1151.35 1689.24 1154.91 Q1691.06 1158.46 1694.68 1158.46 Q1698.31 1158.46 1700.12 1154.91 Q1701.94 1151.35 1701.94 1144.24 Q1701.94 1137.11 1700.12 1133.57 Q1698.31 1130.01 1694.68 1130.01 M1694.68 1126.3 Q1700.49 1126.3 1703.54 1130.91 Q1706.62 1135.49 1706.62 1144.24 Q1706.62 1152.97 1703.54 1157.58 Q1700.49 1162.16 1694.68 1162.16 Q1688.87 1162.16 1685.79 1157.58 Q1682.73 1152.97 1682.73 1144.24 Q1682.73 1135.49 1685.79 1130.91 Q1688.87 1126.3 1694.68 1126.3 Z" fill="#000000" fill-rule="nonzero" fill-opacity="1" /><path clip-path="url(#clip050)" d="M2006.23 1157.55 L2013.86 1157.55 L2013.86 1131.19 L2005.55 1132.85 L2005.55 1128.59 L2013.82 1126.93 L2018.49 1126.93 L2018.49 1157.55 L2026.13 1157.55 L2026.13 1161.49 L2006.23 1161.49 L2006.23 1157.55 Z" fill="#000000" fill-rule="nonzero" fill-opacity="1" /><path clip-path="url(#clip050)" d="M2039.6 1157.55 L2055.92 1157.55 L2055.92 1161.49 L2033.98 1161.49 L2033.98 1157.55 Q2036.64 1154.8 2041.23 1150.17 Q2045.83 1145.52 2047.01 1144.17 Q2049.26 1141.65 2050.14 1139.91 Q2051.04 1138.15 2051.04 1136.46 Q2051.04 1133.71 2049.1 1131.97 Q2047.17 1130.24 2044.07 1130.24 Q2041.87 1130.24 2039.42 1131 Q2036.99 1131.77 2034.21 1133.32 L2034.21 1128.59 Q2037.04 1127.46 2039.49 1126.88 Q2041.94 1126.3 2043.98 1126.3 Q2049.35 1126.3 2052.54 1128.99 Q2055.74 1131.67 2055.74 1136.16 Q2055.74 1138.29 2054.93 1140.21 Q2054.14 1142.11 2052.04 1144.71 Q2051.46 1145.38 2048.35 1148.59 Q2045.25 1151.79 2039.6 1157.55 Z" fill="#000000" fill-rule="nonzero" fill-opacity="1" /><path clip-path="url(#clip050)" d="M2065.74 1155.61 L2070.62 1155.61 L2070.62 1161.49 L2065.74 1161.49 L2065.74 1155.61 Z" fill="#000000" fill-rule="nonzero" fill-opacity="1" /><path clip-path="url(#clip050)" d="M2080.85 1126.93 L2099.21 1126.93 L2099.21 1130.86 L2085.14 1130.86 L2085.14 1139.34 Q2086.16 1138.99 2087.17 1138.83 Q2088.19 1138.64 2089.21 1138.64 Q2095 1138.64 2098.38 1141.81 Q2101.76 1144.98 2101.76 1150.4 Q2101.76 1155.98 2098.29 1159.08 Q2094.81 1162.16 2088.49 1162.16 Q2086.32 1162.16 2084.05 1161.79 Q2081.8 1161.42 2079.4 1160.68 L2079.4 1155.98 Q2081.48 1157.11 2083.7 1157.67 Q2085.92 1158.22 2088.4 1158.22 Q2092.41 1158.22 2094.74 1156.12 Q2097.08 1154.01 2097.08 1150.4 Q2097.08 1146.79 2094.74 1144.68 Q2092.41 1142.58 2088.4 1142.58 Q2086.53 1142.58 2084.65 1142.99 Q2082.8 1143.41 2080.85 1144.29 L2080.85 1126.93 Z" fill="#000000" fill-rule="nonzero" fill-opacity="1" /><polyline clip-path="url(#clip052)" style="stroke:#000000; stroke-linecap:round; stroke-linejoin:round; stroke-width:2; stroke-opacity:0.1; fill:none" points="172.015,1069.32 2352.76,1069.32 "/>
<polyline clip-path="url(#clip052)" style="stroke:#000000; stroke-linecap:round; stroke-linejoin:round; stroke-width:2; stroke-opacity:0.1; fill:none" points="172.015,862.588 2352.76,862.588 "/>
<polyline clip-path="url(#clip052)" style="stroke:#000000; stroke-linecap:round; stroke-linejoin:round; stroke-width:2; stroke-opacity:0.1; fill:none" points="172.015,655.858 2352.76,655.858 "/>
<polyline clip-path="url(#clip052)" style="stroke:#000000; stroke-linecap:round; stroke-linejoin:round; stroke-width:2; stroke-opacity:0.1; fill:none" points="172.015,449.128 2352.76,449.128 "/>
<polyline clip-path="url(#clip052)" style="stroke:#000000; stroke-linecap:round; stroke-linejoin:round; stroke-width:2; stroke-opacity:0.1; fill:none" points="172.015,242.398 2352.76,242.398 "/>
<polyline clip-path="url(#clip050)" style="stroke:#000000; stroke-linecap:round; stroke-linejoin:round; stroke-width:4; stroke-opacity:1; fill:none" points="172.015,1099.09 172.015,47.2441 "/>
<polyline clip-path="url(#clip050)" style="stroke:#000000; stroke-linecap:round; stroke-linejoin:round; stroke-width:4; stroke-opacity:1; fill:none" points="172.015,1069.32 190.912,1069.32 "/>
<polyline clip-path="url(#clip050)" style="stroke:#000000; stroke-linecap:round; stroke-linejoin:round; stroke-width:4; stroke-opacity:1; fill:none" points="172.015,862.588 190.912,862.588 "/>
<polyline clip-path="url(#clip050)" style="stroke:#000000; stroke-linecap:round; stroke-linejoin:round; stroke-width:4; stroke-opacity:1; fill:none" points="172.015,655.858 190.912,655.858 "/>
<polyline clip-path="url(#clip050)" style="stroke:#000000; stroke-linecap:round; stroke-linejoin:round; stroke-width:4; stroke-opacity:1; fill:none" points="172.015,449.128 190.912,449.128 "/>
<polyline clip-path="url(#clip050)" style="stroke:#000000; stroke-linecap:round; stroke-linejoin:round; stroke-width:4; stroke-opacity:1; fill:none" points="172.015,242.398 190.912,242.398 "/>
<path clip-path="url(#clip050)" d="M124.07 1055.12 Q120.459 1055.12 118.631 1058.68 Q116.825 1062.22 116.825 1069.35 Q116.825 1076.46 118.631 1080.02 Q120.459 1083.57 124.07 1083.57 Q127.705 1083.57 129.51 1080.02 Q131.339 1076.46 131.339 1069.35 Q131.339 1062.22 129.51 1058.68 Q127.705 1055.12 124.07 1055.12 M124.07 1051.41 Q129.881 1051.41 132.936 1056.02 Q136.015 1060.6 136.015 1069.35 Q136.015 1078.08 132.936 1082.69 Q129.881 1087.27 124.07 1087.27 Q118.26 1087.27 115.182 1082.69 Q112.126 1078.08 112.126 1069.35 Q112.126 1060.6 115.182 1056.02 Q118.26 1051.41 124.07 1051.41 Z" fill="#000000" fill-rule="nonzero" fill-opacity="1" /><path clip-path="url(#clip050)" d="M54.5569 875.933 L62.1958 875.933 L62.1958 849.568 L53.8856 851.234 L53.8856 846.975 L62.1495 845.308 L66.8254 845.308 L66.8254 875.933 L74.4642 875.933 L74.4642 879.868 L54.5569 879.868 L54.5569 875.933 Z" fill="#000000" fill-rule="nonzero" fill-opacity="1" /><path clip-path="url(#clip050)" d="M93.9086 848.387 Q90.2975 848.387 88.4688 851.952 Q86.6632 855.494 86.6632 862.623 Q86.6632 869.73 88.4688 873.294 Q90.2975 876.836 93.9086 876.836 Q97.5428 876.836 99.3483 873.294 Q101.177 869.73 101.177 862.623 Q101.177 855.494 99.3483 851.952 Q97.5428 848.387 93.9086 848.387 M93.9086 844.683 Q99.7187 844.683 102.774 849.29 Q105.853 853.873 105.853 862.623 Q105.853 871.35 102.774 875.956 Q99.7187 880.54 93.9086 880.54 Q88.0984 880.54 85.0197 875.956 Q81.9642 871.35 81.9642 862.623 Q81.9642 853.873 85.0197 849.29 Q88.0984 844.683 93.9086 844.683 Z" fill="#000000" fill-rule="nonzero" fill-opacity="1" /><path clip-path="url(#clip050)" d="M124.07 848.387 Q120.459 848.387 118.631 851.952 Q116.825 855.494 116.825 862.623 Q116.825 869.73 118.631 873.294 Q120.459 876.836 124.07 876.836 Q127.705 876.836 129.51 873.294 Q131.339 869.73 131.339 862.623 Q131.339 855.494 129.51 851.952 Q127.705 848.387 124.07 848.387 M124.07 844.683 Q129.881 844.683 132.936 849.29 Q136.015 853.873 136.015 862.623 Q136.015 871.35 132.936 875.956 Q129.881 880.54 124.07 880.54 Q118.26 880.54 115.182 875.956 Q112.126 871.35 112.126 862.623 Q112.126 853.873 115.182 849.29 Q118.26 844.683 124.07 844.683 Z" fill="#000000" fill-rule="nonzero" fill-opacity="1" /><path clip-path="url(#clip050)" d="M57.7745 669.203 L74.0939 669.203 L74.0939 673.138 L52.1495 673.138 L52.1495 669.203 Q54.8115 666.448 59.3949 661.819 Q64.0013 657.166 65.1819 655.823 Q67.4272 653.3 68.3068 651.564 Q69.2096 649.805 69.2096 648.115 Q69.2096 645.36 67.2652 643.624 Q65.3439 641.888 62.2421 641.888 Q60.043 641.888 57.5893 642.652 Q55.1588 643.416 52.381 644.967 L52.381 640.245 Q55.2051 639.111 57.6588 638.532 Q60.1124 637.953 62.1495 637.953 Q67.5198 637.953 70.7142 640.638 Q73.9087 643.323 73.9087 647.814 Q73.9087 649.944 73.0985 651.865 Q72.3115 653.763 70.205 656.356 Q69.6263 657.027 66.5245 660.245 Q63.4226 663.439 57.7745 669.203 Z" fill="#000000" fill-rule="nonzero" fill-opacity="1" /><path clip-path="url(#clip050)" d="M93.9086 641.657 Q90.2975 641.657 88.4688 645.222 Q86.6632 648.763 86.6632 655.893 Q86.6632 662.999 88.4688 666.564 Q90.2975 670.106 93.9086 670.106 Q97.5428 670.106 99.3483 666.564 Q101.177 662.999 101.177 655.893 Q101.177 648.763 99.3483 645.222 Q97.5428 641.657 93.9086 641.657 M93.9086 637.953 Q99.7187 637.953 102.774 642.56 Q105.853 647.143 105.853 655.893 Q105.853 664.62 102.774 669.226 Q99.7187 673.809 93.9086 673.809 Q88.0984 673.809 85.0197 669.226 Q81.9642 664.62 81.9642 655.893 Q81.9642 647.143 85.0197 642.56 Q88.0984 637.953 93.9086 637.953 Z" fill="#000000" fill-rule="nonzero" fill-opacity="1" /><path clip-path="url(#clip050)" d="M124.07 641.657 Q120.459 641.657 118.631 645.222 Q116.825 648.763 116.825 655.893 Q116.825 662.999 118.631 666.564 Q120.459 670.106 124.07 670.106 Q127.705 670.106 129.51 666.564 Q131.339 662.999 131.339 655.893 Q131.339 648.763 129.51 645.222 Q127.705 641.657 124.07 641.657 M124.07 637.953 Q129.881 637.953 132.936 642.56 Q136.015 647.143 136.015 655.893 Q136.015 664.62 132.936 669.226 Q129.881 673.809 124.07 673.809 Q118.26 673.809 115.182 669.226 Q112.126 664.62 112.126 655.893 Q112.126 647.143 115.182 642.56 Q118.26 637.953 124.07 637.953 Z" fill="#000000" fill-rule="nonzero" fill-opacity="1" /><path clip-path="url(#clip050)" d="M67.9133 447.774 Q71.2698 448.491 73.1448 450.76 Q75.0429 453.028 75.0429 456.362 Q75.0429 461.477 71.5244 464.278 Q68.0059 467.079 61.5245 467.079 Q59.3486 467.079 57.0338 466.639 Q54.7421 466.223 52.2884 465.366 L52.2884 460.852 Q54.2328 461.987 56.5477 462.565 Q58.8625 463.144 61.3856 463.144 Q65.7837 463.144 68.0754 461.408 Q70.3902 459.672 70.3902 456.362 Q70.3902 453.306 68.2374 451.593 Q66.1078 449.857 62.2884 449.857 L58.2606 449.857 L58.2606 446.014 L62.4735 446.014 Q65.9226 446.014 67.7513 444.649 Q69.58 443.26 69.58 440.667 Q69.58 438.005 67.6819 436.593 Q65.8069 435.158 62.2884 435.158 Q60.3671 435.158 58.168 435.575 Q55.969 435.991 53.3301 436.871 L53.3301 432.704 Q55.9921 431.964 58.3069 431.593 Q60.6449 431.223 62.705 431.223 Q68.0291 431.223 71.1309 433.653 Q74.2327 436.061 74.2327 440.181 Q74.2327 443.051 72.5892 445.042 Q70.9457 447.01 67.9133 447.774 Z" fill="#000000" fill-rule="nonzero" fill-opacity="1" /><path clip-path="url(#clip050)" d="M93.9086 434.926 Q90.2975 434.926 88.4688 438.491 Q86.6632 442.033 86.6632 449.163 Q86.6632 456.269 88.4688 459.834 Q90.2975 463.375 93.9086 463.375 Q97.5428 463.375 99.3483 459.834 Q101.177 456.269 101.177 449.163 Q101.177 442.033 99.3483 438.491 Q97.5428 434.926 93.9086 434.926 M93.9086 431.223 Q99.7187 431.223 102.774 435.829 Q105.853 440.413 105.853 449.163 Q105.853 457.889 102.774 462.496 Q99.7187 467.079 93.9086 467.079 Q88.0984 467.079 85.0197 462.496 Q81.9642 457.889 81.9642 449.163 Q81.9642 440.413 85.0197 435.829 Q88.0984 431.223 93.9086 431.223 Z" fill="#000000" fill-rule="nonzero" fill-opacity="1" /><path clip-path="url(#clip050)" d="M124.07 434.926 Q120.459 434.926 118.631 438.491 Q116.825 442.033 116.825 449.163 Q116.825 456.269 118.631 459.834 Q120.459 463.375 124.07 463.375 Q127.705 463.375 129.51 459.834 Q131.339 456.269 131.339 449.163 Q131.339 442.033 129.51 438.491 Q127.705 434.926 124.07 434.926 M124.07 431.223 Q129.881 431.223 132.936 435.829 Q136.015 440.413 136.015 449.163 Q136.015 457.889 132.936 462.496 Q129.881 467.079 124.07 467.079 Q118.26 467.079 115.182 462.496 Q112.126 457.889 112.126 449.163 Q112.126 440.413 115.182 435.829 Q118.26 431.223 124.07 431.223 Z" fill="#000000" fill-rule="nonzero" fill-opacity="1" /><path clip-path="url(#clip050)" d="M66.5939 229.192 L54.7884 247.641 L66.5939 247.641 L66.5939 229.192 M65.367 225.118 L71.2466 225.118 L71.2466 247.641 L76.1772 247.641 L76.1772 251.529 L71.2466 251.529 L71.2466 259.678 L66.5939 259.678 L66.5939 251.529 L50.9921 251.529 L50.9921 247.016 L65.367 225.118 Z" fill="#000000" fill-rule="nonzero" fill-opacity="1" /><path clip-path="url(#clip050)" d="M93.9086 228.196 Q90.2975 228.196 88.4688 231.761 Q86.6632 235.303 86.6632 242.432 Q86.6632 249.539 88.4688 253.103 Q90.2975 256.645 93.9086 256.645 Q97.5428 256.645 99.3483 253.103 Q101.177 249.539 101.177 242.432 Q101.177 235.303 99.3483 231.761 Q97.5428 228.196 93.9086 228.196 M93.9086 224.493 Q99.7187 224.493 102.774 229.099 Q105.853 233.682 105.853 242.432 Q105.853 251.159 102.774 255.765 Q99.7187 260.349 93.9086 260.349 Q88.0984 260.349 85.0197 255.765 Q81.9642 251.159 81.9642 242.432 Q81.9642 233.682 85.0197 229.099 Q88.0984 224.493 93.9086 224.493 Z" fill="#000000" fill-rule="nonzero" fill-opacity="1" /><path clip-path="url(#clip050)" d="M124.07 228.196 Q120.459 228.196 118.631 231.761 Q116.825 235.303 116.825 242.432 Q116.825 249.539 118.631 253.103 Q120.459 256.645 124.07 256.645 Q127.705 256.645 129.51 253.103 Q131.339 249.539 131.339 242.432 Q131.339 235.303 129.51 231.761 Q127.705 228.196 124.07 228.196 M124.07 224.493 Q129.881 224.493 132.936 229.099 Q136.015 233.682 136.015 242.432 Q136.015 251.159 132.936 255.765 Q129.881 260.349 124.07 260.349 Q118.26 260.349 115.182 255.765 Q112.126 251.159 112.126 242.432 Q112.126 233.682 115.182 229.099 Q118.26 224.493 124.07 224.493 Z" fill="#000000" fill-rule="nonzero" fill-opacity="1" /><path clip-path="url(#clip052)" d="M233.734 1069.32 L391.988 1065.18 L550.242 1046.58 L708.496 1005.23 L866.75 932.877 L1025 879.127 L1183.26 887.396 L1341.51 926.675 L1499.77 972.155 L1658.02 1005.23 L1816.27 1030.04 L1974.53 1044.51 L2132.78 1054.85 L2291.04 1061.05 L2291.04 994.896 L2132.78 957.684 L1974.53 903.934 L1816.27 823.31 L1658.02 705.473 L1499.77 544.224 L1341.51 337.493 L1183.26 143.115 L1025 77.0133 L866.75 271.34 L708.496 657.925 L550.242 918.406 L391.988 1019.7 L233.734 1050.71  Z" fill="#009af9" fill-rule="evenodd" fill-opacity="0.5"/>
<polyline clip-path="url(#clip052)" style="stroke:#009af9; stroke-linecap:round; stroke-linejoin:round; stroke-width:4; stroke-opacity:1; fill:none" points="233.734,1063.12 391.988,1048.65 550.242,1003.17 708.496,887.396 866.75,699.271 1025,573.166 1183.26,597.974 1341.51,701.339 1499.77,808.839 1658.02,893.598 1816.27,953.55 1974.53,992.828 2132.78,1019.7 2291.04,1038.31 "/>
<circle clip-path="url(#clip052)" cx="233.734" cy="1063.12" r="14.4" fill="#000000" fill-rule="evenodd" fill-opacity="1" stroke="none"/>
<circle clip-path="url(#clip052)" cx="391.988" cy="1052.78" r="14.4" fill="#000000" fill-rule="evenodd" fill-opacity="1" stroke="none"/>
<circle clip-path="url(#clip052)" cx="550.242" cy="1015.57" r="14.4" fill="#000000" fill-rule="evenodd" fill-opacity="1" stroke="none"/>
<circle clip-path="url(#clip052)" cx="708.496" cy="912.204" r="14.4" fill="#000000" fill-rule="evenodd" fill-opacity="1" stroke="none"/>
<circle clip-path="url(#clip052)" cx="866.75" cy="604.176" r="14.4" fill="#000000" fill-rule="evenodd" fill-opacity="1" stroke="none"/>
<circle clip-path="url(#clip052)" cx="1025" cy="453.262" r="14.4" fill="#000000" fill-rule="evenodd" fill-opacity="1" stroke="none"/>
<circle clip-path="url(#clip052)" cx="1183.26" cy="535.955" r="14.4" fill="#000000" fill-rule="evenodd" fill-opacity="1" stroke="none"/>
<circle clip-path="url(#clip052)" cx="1341.51" cy="587.637" r="14.4" fill="#000000" fill-rule="evenodd" fill-opacity="1" stroke="none"/>
<circle clip-path="url(#clip052)" cx="1499.77" cy="678.598" r="14.4" fill="#000000" fill-rule="evenodd" fill-opacity="1" stroke="none"/>
<circle clip-path="url(#clip052)" cx="1658.02" cy="804.704" r="14.4" fill="#000000" fill-rule="evenodd" fill-opacity="1" stroke="none"/>
<circle clip-path="url(#clip052)" cx="1816.27" cy="928.742" r="14.4" fill="#000000" fill-rule="evenodd" fill-opacity="1" stroke="none"/>
<circle clip-path="url(#clip052)" cx="1974.53" cy="1009.37" r="14.4" fill="#000000" fill-rule="evenodd" fill-opacity="1" stroke="none"/>
<circle clip-path="url(#clip052)" cx="2132.78" cy="1040.38" r="14.4" fill="#000000" fill-rule="evenodd" fill-opacity="1" stroke="none"/>
<circle clip-path="url(#clip052)" cx="2291.04" cy="1061.05" r="14.4" fill="#000000" fill-rule="evenodd" fill-opacity="1" stroke="none"/>
</svg>
