<?xml version="1.0" encoding="utf-8"?>
<svg xmlns="http://www.w3.org/2000/svg" xmlns:xlink="http://www.w3.org/1999/xlink" width="600" height="400" viewBox="0 0 2400 1600">
<defs>
  <clipPath id="clip520">
    <rect x="0" y="0" width="2400" height="1600"/>
  </clipPath>
</defs>
<path clip-path="url(#clip520)" d="M0 1600 L2400 1600 L2400 0 L0 0  Z" fill="#ffffff" fill-rule="evenodd" fill-opacity="1"/>
<defs>
  <clipPath id="clip521">
    <rect x="480" y="0" width="1681" height="1600"/>
  </clipPath>
</defs>
<path clip-path="url(#clip520)" d="M234.125 1486.45 L2352.76 1486.45 L2352.76 47.2441 L234.125 47.2441  Z" fill="#ffffff" fill-rule="evenodd" fill-opacity="1"/>
<defs>
  <clipPath id="clip522">
    <rect x="234" y="47" width="2120" height="1440"/>
  </clipPath>
</defs>
<polyline clip-path="url(#clip522)" style="stroke:#000000; stroke-linecap:round; stroke-linejoin:round; stroke-width:2; stroke-opacity:0.1; fill:none" points="294.087,1486.45 294.087,47.2441 "/>
<polyline clip-path="url(#clip522)" style="stroke:#000000; stroke-linecap:round; stroke-linejoin:round; stroke-width:2; stroke-opacity:0.1; fill:none" points="755.327,1486.45 755.327,47.2441 "/>
<polyline clip-path="url(#clip522)" style="stroke:#000000; stroke-linecap:round; stroke-linejoin:round; stroke-width:2; stroke-opacity:0.1; fill:none" points="1216.57,1486.45 1216.57,47.2441 "/>
<polyline clip-path="url(#clip522)" style="stroke:#000000; stroke-linecap:round; stroke-linejoin:round; stroke-width:2; stroke-opacity:0.1; fill:none" points="1677.81,1486.45 1677.81,47.2441 "/>
<polyline clip-path="url(#clip522)" style="stroke:#000000; stroke-linecap:round; stroke-linejoin:round; stroke-width:2; stroke-opacity:0.1; fill:none" points="2139.05,1486.45 2139.05,47.2441 "/>
<polyline clip-path="url(#clip520)" style="stroke:#000000; stroke-linecap:round; stroke-linejoin:round; stroke-width:4; stroke-opacity:1; fill:none" points="234.125,1486.45 2352.76,1486.45 "/>
<polyline clip-path="url(#clip520)" style="stroke:#000000; stroke-linecap:round; stroke-linejoin:round; stroke-width:4; stroke-opacity:1; fill:none" points="294.087,1486.45 294.087,1467.55 "/>
<polyline clip-path="url(#clip520)" style="stroke:#000000; stroke-linecap:round; stroke-linejoin:round; stroke-width:4; stroke-opacity:1; fill:none" points="755.327,1486.45 755.327,1467.55 "/>
<polyline clip-path="url(#clip520)" style="stroke:#000000; stroke-linecap:round; stroke-linejoin:round; stroke-width:4; stroke-opacity:1; fill:none" points="1216.57,1486.45 1216.57,1467.55 "/>
<polyline clip-path="url(#clip520)" style="stroke:#000000; stroke-linecap:round; stroke-linejoin:round; stroke-width:4; stroke-opacity:1; fill:none" points="1677.81,1486.45 1677.81,1467.55 "/>
<polyline clip-path="url(#clip520)" style="stroke:#000000; stroke-linecap:round; stroke-linejoin:round; stroke-width:4; stroke-opacity:1; fill:none" points="2139.05,1486.45 2139.05,1467.55 "/>
<path clip-path="url(#clip520)" d="M161.981 1544.91 L169.62 1544.91 L169.62 1518.55 L161.31 1520.21 L161.31 1515.95 L169.573 1514.29 L174.249 1514.29 L174.249 1544.91 L181.888 1544.91 L181.888 1548.85 L161.981 1548.85 L161.981 1544.91 Z" fill="#000000" fill-rule="nonzero" fill-opacity="1" /><path clip-path="url(#clip520)" d="M191.471 1548.13 L191.471 1543.87 Q193.231 1544.7 195.036 1545.14 Q196.842 1545.58 198.578 1545.58 Q203.208 1545.58 205.638 1542.48 Q208.092 1539.36 208.439 1533.01 Q207.096 1535.01 205.036 1536.07 Q202.976 1537.13 200.476 1537.13 Q195.291 1537.13 192.259 1534.01 Q189.249 1530.86 189.249 1525.42 Q189.249 1520.1 192.397 1516.88 Q195.546 1513.66 200.777 1513.66 Q206.772 1513.66 209.92 1518.27 Q213.092 1522.85 213.092 1531.6 Q213.092 1539.77 209.203 1544.66 Q205.337 1549.52 198.786 1549.52 Q197.027 1549.52 195.221 1549.17 Q193.416 1548.82 191.471 1548.13 M200.777 1533.48 Q203.925 1533.48 205.754 1531.32 Q207.606 1529.17 207.606 1525.42 Q207.606 1521.7 205.754 1519.54 Q203.925 1517.37 200.777 1517.37 Q197.629 1517.37 195.777 1519.54 Q193.948 1521.7 193.948 1525.42 Q193.948 1529.17 195.777 1531.32 Q197.629 1533.48 200.777 1533.48 Z" fill="#000000" fill-rule="nonzero" fill-opacity="1" /><path clip-path="url(#clip520)" d="M220.314 1514.29 L242.536 1514.29 L242.536 1516.28 L229.99 1548.85 L225.106 1548.85 L236.911 1518.22 L220.314 1518.22 L220.314 1514.29 Z" fill="#000000" fill-rule="nonzero" fill-opacity="1" /><path clip-path="url(#clip520)" d="M261.656 1532.44 Q258.323 1532.44 256.402 1534.22 Q254.504 1536 254.504 1539.13 Q254.504 1542.25 256.402 1544.03 Q258.323 1545.82 261.656 1545.82 Q264.99 1545.82 266.911 1544.03 Q268.832 1542.23 268.832 1539.13 Q268.832 1536 266.911 1534.22 Q265.013 1532.44 261.656 1532.44 M256.98 1530.45 Q253.971 1529.7 252.281 1527.64 Q250.615 1525.58 250.615 1522.62 Q250.615 1518.48 253.554 1516.07 Q256.517 1513.66 261.656 1513.66 Q266.818 1513.66 269.758 1516.07 Q272.698 1518.48 272.698 1522.62 Q272.698 1525.58 271.008 1527.64 Q269.341 1529.7 266.355 1530.45 Q269.735 1531.23 271.61 1533.52 Q273.508 1535.82 273.508 1539.13 Q273.508 1544.15 270.429 1546.83 Q267.374 1549.52 261.656 1549.52 Q255.939 1549.52 252.86 1546.83 Q249.805 1544.15 249.805 1539.13 Q249.805 1535.82 251.703 1533.52 Q253.601 1531.23 256.98 1530.45 M255.267 1523.06 Q255.267 1525.75 256.934 1527.25 Q258.624 1528.76 261.656 1528.76 Q264.666 1528.76 266.355 1527.25 Q268.068 1525.75 268.068 1523.06 Q268.068 1520.38 266.355 1518.87 Q264.666 1517.37 261.656 1517.37 Q258.624 1517.37 256.934 1518.87 Q255.267 1520.38 255.267 1523.06 Z" fill="#000000" fill-rule="nonzero" fill-opacity="1" /><path clip-path="url(#clip520)" d="M279.064 1533.96 L291.54 1533.96 L291.54 1537.76 L279.064 1537.76 L279.064 1533.96 Z" fill="#000000" fill-rule="nonzero" fill-opacity="1" /><path clip-path="url(#clip520)" d="M308.925 1517.37 Q305.313 1517.37 303.485 1520.93 Q301.679 1524.47 301.679 1531.6 Q301.679 1538.71 303.485 1542.27 Q305.313 1545.82 308.925 1545.82 Q312.559 1545.82 314.364 1542.27 Q316.193 1538.71 316.193 1531.6 Q316.193 1524.47 314.364 1520.93 Q312.559 1517.37 308.925 1517.37 M308.925 1513.66 Q314.735 1513.66 317.79 1518.27 Q320.869 1522.85 320.869 1531.6 Q320.869 1540.33 317.79 1544.94 Q314.735 1549.52 308.925 1549.52 Q303.114 1549.52 300.036 1544.94 Q296.98 1540.33 296.98 1531.6 Q296.98 1522.85 300.036 1518.27 Q303.114 1513.66 308.925 1513.66 Z" fill="#000000" fill-rule="nonzero" fill-opacity="1" /><path clip-path="url(#clip520)" d="M329.897 1544.91 L337.536 1544.91 L337.536 1518.55 L329.225 1520.21 L329.225 1515.95 L337.489 1514.29 L342.165 1514.29 L342.165 1544.91 L349.804 1544.91 L349.804 1548.85 L329.897 1548.85 L329.897 1544.91 Z" fill="#000000" fill-rule="nonzero" fill-opacity="1" /><path clip-path="url(#clip520)" d="M356.494 1533.96 L368.971 1533.96 L368.971 1537.76 L356.494 1537.76 L356.494 1533.96 Z" fill="#000000" fill-rule="nonzero" fill-opacity="1" /><path clip-path="url(#clip520)" d="M380.383 1544.91 L396.702 1544.91 L396.702 1548.85 L374.758 1548.85 L374.758 1544.91 Q377.42 1542.16 382.003 1537.53 Q386.609 1532.88 387.79 1531.53 Q390.035 1529.01 390.915 1527.27 Q391.818 1525.51 391.818 1523.82 Q391.818 1521.07 389.873 1519.33 Q387.952 1517.6 384.85 1517.6 Q382.651 1517.6 380.197 1518.36 Q377.767 1519.13 374.989 1520.68 L374.989 1515.95 Q377.813 1514.82 380.267 1514.24 Q382.72 1513.66 384.757 1513.66 Q390.128 1513.66 393.322 1516.35 Q396.517 1519.03 396.517 1523.52 Q396.517 1525.65 395.707 1527.57 Q394.919 1529.47 392.813 1532.07 Q392.234 1532.74 389.132 1535.95 Q386.031 1539.15 380.383 1544.91 Z" fill="#000000" fill-rule="nonzero" fill-opacity="1" /><path clip-path="url(#clip520)" d="M410.544 1544.91 L426.864 1544.91 L426.864 1548.85 L404.919 1548.85 L404.919 1544.91 Q407.581 1542.16 412.165 1537.53 Q416.771 1532.88 417.952 1531.53 Q420.197 1529.01 421.077 1527.27 Q421.98 1525.51 421.98 1523.82 Q421.98 1521.07 420.035 1519.33 Q418.114 1517.6 415.012 1517.6 Q412.813 1517.6 410.359 1518.36 Q407.929 1519.13 405.151 1520.68 L405.151 1515.95 Q407.975 1514.82 410.429 1514.24 Q412.882 1513.66 414.919 1513.66 Q420.29 1513.66 423.484 1516.35 Q426.679 1519.03 426.679 1523.52 Q426.679 1525.65 425.868 1527.57 Q425.081 1529.47 422.975 1532.07 Q422.396 1532.74 419.294 1535.95 Q416.193 1539.15 410.544 1544.91 Z" fill="#000000" fill-rule="nonzero" fill-opacity="1" /><path clip-path="url(#clip520)" d="M622.92 1544.91 L630.559 1544.91 L630.559 1518.55 L622.249 1520.21 L622.249 1515.95 L630.513 1514.29 L635.189 1514.29 L635.189 1544.91 L642.828 1544.91 L642.828 1548.85 L622.92 1548.85 L622.92 1544.91 Z" fill="#000000" fill-rule="nonzero" fill-opacity="1" /><path clip-path="url(#clip520)" d="M652.411 1548.13 L652.411 1543.87 Q654.17 1544.7 655.976 1545.14 Q657.781 1545.58 659.517 1545.58 Q664.147 1545.58 666.577 1542.48 Q669.031 1539.36 669.378 1533.01 Q668.036 1535.01 665.976 1536.07 Q663.915 1537.13 661.415 1537.13 Q656.23 1537.13 653.198 1534.01 Q650.189 1530.86 650.189 1525.42 Q650.189 1520.1 653.337 1516.88 Q656.485 1513.66 661.716 1513.66 Q667.712 1513.66 670.86 1518.27 Q674.031 1522.85 674.031 1531.6 Q674.031 1539.77 670.142 1544.66 Q666.277 1549.52 659.726 1549.52 Q657.966 1549.52 656.161 1549.17 Q654.355 1548.82 652.411 1548.13 M661.716 1533.48 Q664.865 1533.48 666.693 1531.32 Q668.545 1529.17 668.545 1525.42 Q668.545 1521.7 666.693 1519.54 Q664.865 1517.37 661.716 1517.37 Q658.568 1517.37 656.716 1519.54 Q654.888 1521.7 654.888 1525.42 Q654.888 1529.17 656.716 1531.32 Q658.568 1533.48 661.716 1533.48 Z" fill="#000000" fill-rule="nonzero" fill-opacity="1" /><path clip-path="url(#clip520)" d="M681.253 1514.29 L703.475 1514.29 L703.475 1516.28 L690.929 1548.85 L686.045 1548.85 L697.85 1518.22 L681.253 1518.22 L681.253 1514.29 Z" fill="#000000" fill-rule="nonzero" fill-opacity="1" /><path clip-path="url(#clip520)" d="M722.596 1532.44 Q719.262 1532.44 717.341 1534.22 Q715.443 1536 715.443 1539.13 Q715.443 1542.25 717.341 1544.03 Q719.262 1545.82 722.596 1545.82 Q725.929 1545.82 727.85 1544.03 Q729.772 1542.23 729.772 1539.13 Q729.772 1536 727.85 1534.22 Q725.952 1532.44 722.596 1532.44 M717.92 1530.45 Q714.911 1529.7 713.221 1527.64 Q711.554 1525.58 711.554 1522.62 Q711.554 1518.48 714.494 1516.07 Q717.457 1513.66 722.596 1513.66 Q727.758 1513.66 730.697 1516.07 Q733.637 1518.48 733.637 1522.62 Q733.637 1525.58 731.947 1527.64 Q730.281 1529.7 727.295 1530.45 Q730.674 1531.23 732.549 1533.52 Q734.447 1535.82 734.447 1539.13 Q734.447 1544.15 731.369 1546.83 Q728.313 1549.52 722.596 1549.52 Q716.878 1549.52 713.799 1546.83 Q710.744 1544.15 710.744 1539.13 Q710.744 1535.82 712.642 1533.52 Q714.54 1531.23 717.92 1530.45 M716.207 1523.06 Q716.207 1525.75 717.873 1527.25 Q719.563 1528.76 722.596 1528.76 Q725.605 1528.76 727.295 1527.25 Q729.008 1525.75 729.008 1523.06 Q729.008 1520.38 727.295 1518.87 Q725.605 1517.37 722.596 1517.37 Q719.563 1517.37 717.873 1518.87 Q716.207 1520.38 716.207 1523.06 Z" fill="#000000" fill-rule="nonzero" fill-opacity="1" /><path clip-path="url(#clip520)" d="M740.003 1533.96 L752.48 1533.96 L752.48 1537.76 L740.003 1537.76 L740.003 1533.96 Z" fill="#000000" fill-rule="nonzero" fill-opacity="1" /><path clip-path="url(#clip520)" d="M769.864 1517.37 Q766.253 1517.37 764.424 1520.93 Q762.619 1524.47 762.619 1531.6 Q762.619 1538.71 764.424 1542.27 Q766.253 1545.82 769.864 1545.82 Q773.498 1545.82 775.304 1542.27 Q777.132 1538.71 777.132 1531.6 Q777.132 1524.47 775.304 1520.93 Q773.498 1517.37 769.864 1517.37 M769.864 1513.66 Q775.674 1513.66 778.73 1518.27 Q781.808 1522.85 781.808 1531.6 Q781.808 1540.33 778.73 1544.94 Q775.674 1549.52 769.864 1549.52 Q764.054 1549.52 760.975 1544.94 Q757.92 1540.33 757.92 1531.6 Q757.92 1522.85 760.975 1518.27 Q764.054 1513.66 769.864 1513.66 Z" fill="#000000" fill-rule="nonzero" fill-opacity="1" /><path clip-path="url(#clip520)" d="M790.836 1544.91 L798.475 1544.91 L798.475 1518.55 L790.165 1520.21 L790.165 1515.95 L798.429 1514.29 L803.105 1514.29 L803.105 1544.91 L810.743 1544.91 L810.743 1548.85 L790.836 1548.85 L790.836 1544.91 Z" fill="#000000" fill-rule="nonzero" fill-opacity="1" /><path clip-path="url(#clip520)" d="M817.433 1533.96 L829.91 1533.96 L829.91 1537.76 L817.433 1537.76 L817.433 1533.96 Z" fill="#000000" fill-rule="nonzero" fill-opacity="1" /><path clip-path="url(#clip520)" d="M841.322 1544.91 L857.641 1544.91 L857.641 1548.85 L835.697 1548.85 L835.697 1544.91 Q838.359 1542.16 842.942 1537.53 Q847.549 1532.88 848.729 1531.53 Q850.975 1529.01 851.854 1527.27 Q852.757 1525.51 852.757 1523.82 Q852.757 1521.07 850.813 1519.33 Q848.891 1517.6 845.789 1517.6 Q843.59 1517.6 841.137 1518.36 Q838.706 1519.13 835.928 1520.68 L835.928 1515.95 Q838.752 1514.82 841.206 1514.24 Q843.66 1513.66 845.697 1513.66 Q851.067 1513.66 854.262 1516.35 Q857.456 1519.03 857.456 1523.52 Q857.456 1525.65 856.646 1527.57 Q855.859 1529.47 853.752 1532.07 Q853.174 1532.74 850.072 1535.95 Q846.97 1539.15 841.322 1544.91 Z" fill="#000000" fill-rule="nonzero" fill-opacity="1" /><path clip-path="url(#clip520)" d="M867.502 1514.29 L885.859 1514.29 L885.859 1518.22 L871.785 1518.22 L871.785 1526.7 Q872.803 1526.35 873.822 1526.19 Q874.84 1526 875.859 1526 Q881.646 1526 885.025 1529.17 Q888.405 1532.34 888.405 1537.76 Q888.405 1543.34 884.933 1546.44 Q881.461 1549.52 875.141 1549.52 Q872.965 1549.52 870.697 1549.15 Q868.451 1548.78 866.044 1548.04 L866.044 1543.34 Q868.127 1544.47 870.35 1545.03 Q872.572 1545.58 875.049 1545.58 Q879.053 1545.58 881.391 1543.48 Q883.729 1541.37 883.729 1537.76 Q883.729 1534.15 881.391 1532.04 Q879.053 1529.94 875.049 1529.94 Q873.174 1529.94 871.299 1530.35 Q869.447 1530.77 867.502 1531.65 L867.502 1514.29 Z" fill="#000000" fill-rule="nonzero" fill-opacity="1" /><path clip-path="url(#clip520)" d="M1083.71 1544.91 L1091.35 1544.91 L1091.35 1518.55 L1083.04 1520.21 L1083.04 1515.95 L1091.3 1514.29 L1095.98 1514.29 L1095.98 1544.91 L1103.62 1544.91 L1103.62 1548.85 L1083.71 1548.85 L1083.71 1544.91 Z" fill="#000000" fill-rule="nonzero" fill-opacity="1" /><path clip-path="url(#clip520)" d="M1113.2 1548.13 L1113.2 1543.87 Q1114.96 1544.7 1116.76 1545.14 Q1118.57 1545.58 1120.31 1545.58 Q1124.94 1545.58 1127.37 1542.48 Q1129.82 1539.36 1130.17 1533.01 Q1128.82 1535.01 1126.76 1536.07 Q1124.7 1537.13 1122.2 1537.13 Q1117.02 1537.13 1113.99 1534.01 Q1110.98 1530.86 1110.98 1525.42 Q1110.98 1520.1 1114.13 1516.88 Q1117.27 1513.66 1122.51 1513.66 Q1128.5 1513.66 1131.65 1518.27 Q1134.82 1522.85 1134.82 1531.6 Q1134.82 1539.77 1130.93 1544.66 Q1127.07 1549.52 1120.51 1549.52 Q1118.76 1549.52 1116.95 1549.17 Q1115.14 1548.82 1113.2 1548.13 M1122.51 1533.48 Q1125.65 1533.48 1127.48 1531.32 Q1129.33 1529.17 1129.33 1525.42 Q1129.33 1521.7 1127.48 1519.54 Q1125.65 1517.37 1122.51 1517.37 Q1119.36 1517.37 1117.51 1519.54 Q1115.68 1521.7 1115.68 1525.42 Q1115.68 1529.17 1117.51 1531.32 Q1119.36 1533.48 1122.51 1533.48 Z" fill="#000000" fill-rule="nonzero" fill-opacity="1" /><path clip-path="url(#clip520)" d="M1142.04 1514.29 L1164.26 1514.29 L1164.26 1516.28 L1151.72 1548.85 L1146.83 1548.85 L1158.64 1518.22 L1142.04 1518.22 L1142.04 1514.29 Z" fill="#000000" fill-rule="nonzero" fill-opacity="1" /><path clip-path="url(#clip520)" d="M1183.38 1532.44 Q1180.05 1532.44 1178.13 1534.22 Q1176.23 1536 1176.23 1539.13 Q1176.23 1542.25 1178.13 1544.03 Q1180.05 1545.82 1183.38 1545.82 Q1186.72 1545.82 1188.64 1544.03 Q1190.56 1542.23 1190.56 1539.13 Q1190.56 1536 1188.64 1534.22 Q1186.74 1532.44 1183.38 1532.44 M1178.71 1530.45 Q1175.7 1529.7 1174.01 1527.64 Q1172.34 1525.58 1172.34 1522.62 Q1172.34 1518.48 1175.28 1516.07 Q1178.25 1513.66 1183.38 1513.66 Q1188.55 1513.66 1191.49 1516.07 Q1194.43 1518.48 1194.43 1522.62 Q1194.43 1525.58 1192.74 1527.64 Q1191.07 1529.7 1188.08 1530.45 Q1191.46 1531.23 1193.34 1533.52 Q1195.24 1535.82 1195.24 1539.13 Q1195.24 1544.15 1192.16 1546.83 Q1189.1 1549.52 1183.38 1549.52 Q1177.67 1549.52 1174.59 1546.83 Q1171.53 1544.15 1171.53 1539.13 Q1171.53 1535.82 1173.43 1533.52 Q1175.33 1531.23 1178.71 1530.45 M1177 1523.06 Q1177 1525.75 1178.66 1527.25 Q1180.35 1528.76 1183.38 1528.76 Q1186.39 1528.76 1188.08 1527.25 Q1189.8 1525.75 1189.8 1523.06 Q1189.8 1520.38 1188.08 1518.87 Q1186.39 1517.37 1183.38 1517.37 Q1180.35 1517.37 1178.66 1518.87 Q1177 1520.38 1177 1523.06 Z" fill="#000000" fill-rule="nonzero" fill-opacity="1" /><path clip-path="url(#clip520)" d="M1200.79 1533.96 L1213.27 1533.96 L1213.27 1537.76 L1200.79 1537.76 L1200.79 1533.96 Z" fill="#000000" fill-rule="nonzero" fill-opacity="1" /><path clip-path="url(#clip520)" d="M1230.65 1517.37 Q1227.04 1517.37 1225.21 1520.93 Q1223.41 1524.47 1223.41 1531.6 Q1223.41 1538.71 1225.21 1542.27 Q1227.04 1545.82 1230.65 1545.82 Q1234.29 1545.82 1236.09 1542.27 Q1237.92 1538.71 1237.92 1531.6 Q1237.92 1524.47 1236.09 1520.93 Q1234.29 1517.37 1230.65 1517.37 M1230.65 1513.66 Q1236.46 1513.66 1239.52 1518.27 Q1242.6 1522.85 1242.6 1531.6 Q1242.6 1540.33 1239.52 1544.94 Q1236.46 1549.52 1230.65 1549.52 Q1224.84 1549.52 1221.76 1544.94 Q1218.71 1540.33 1218.71 1531.6 Q1218.71 1522.85 1221.76 1518.27 Q1224.84 1513.66 1230.65 1513.66 Z" fill="#000000" fill-rule="nonzero" fill-opacity="1" /><path clip-path="url(#clip520)" d="M1251.62 1544.91 L1259.26 1544.91 L1259.26 1518.55 L1250.95 1520.21 L1250.95 1515.95 L1259.22 1514.29 L1263.89 1514.29 L1263.89 1544.91 L1271.53 1544.91 L1271.53 1548.85 L1251.62 1548.85 L1251.62 1544.91 Z" fill="#000000" fill-rule="nonzero" fill-opacity="1" /><path clip-path="url(#clip520)" d="M1278.22 1533.96 L1290.7 1533.96 L1290.7 1537.76 L1278.22 1537.76 L1278.22 1533.96 Z" fill="#000000" fill-rule="nonzero" fill-opacity="1" /><path clip-path="url(#clip520)" d="M1302.11 1544.91 L1318.43 1544.91 L1318.43 1548.85 L1296.49 1548.85 L1296.49 1544.91 Q1299.15 1542.16 1303.73 1537.53 Q1308.34 1532.88 1309.52 1531.53 Q1311.76 1529.01 1312.64 1527.27 Q1313.55 1525.51 1313.55 1523.82 Q1313.55 1521.07 1311.6 1519.33 Q1309.68 1517.6 1306.58 1517.6 Q1304.38 1517.6 1301.93 1518.36 Q1299.5 1519.13 1296.72 1520.68 L1296.72 1515.95 Q1299.54 1514.82 1302 1514.24 Q1304.45 1513.66 1306.49 1513.66 Q1311.86 1513.66 1315.05 1516.35 Q1318.24 1519.03 1318.24 1523.52 Q1318.24 1525.65 1317.43 1527.57 Q1316.65 1529.47 1314.54 1532.07 Q1313.96 1532.74 1310.86 1535.95 Q1307.76 1539.15 1302.11 1544.91 Z" fill="#000000" fill-rule="nonzero" fill-opacity="1" /><path clip-path="url(#clip520)" d="M1338.24 1532.44 Q1334.91 1532.44 1332.99 1534.22 Q1331.09 1536 1331.09 1539.13 Q1331.09 1542.25 1332.99 1544.03 Q1334.91 1545.82 1338.24 1545.82 Q1341.58 1545.82 1343.5 1544.03 Q1345.42 1542.23 1345.42 1539.13 Q1345.42 1536 1343.5 1534.22 Q1341.6 1532.44 1338.24 1532.44 M1333.57 1530.45 Q1330.56 1529.7 1328.87 1527.64 Q1327.2 1525.58 1327.2 1522.62 Q1327.2 1518.48 1330.14 1516.07 Q1333.11 1513.66 1338.24 1513.66 Q1343.41 1513.66 1346.35 1516.07 Q1349.29 1518.48 1349.29 1522.62 Q1349.29 1525.58 1347.6 1527.64 Q1345.93 1529.7 1342.94 1530.45 Q1346.32 1531.23 1348.2 1533.52 Q1350.1 1535.82 1350.1 1539.13 Q1350.1 1544.15 1347.02 1546.83 Q1343.96 1549.52 1338.24 1549.52 Q1332.53 1549.52 1329.45 1546.83 Q1326.39 1544.15 1326.39 1539.13 Q1326.39 1535.82 1328.29 1533.52 Q1330.19 1531.23 1333.57 1530.45 M1331.86 1523.06 Q1331.86 1525.75 1333.52 1527.25 Q1335.21 1528.76 1338.24 1528.76 Q1341.25 1528.76 1342.94 1527.25 Q1344.66 1525.75 1344.66 1523.06 Q1344.66 1520.38 1342.94 1518.87 Q1341.25 1517.37 1338.24 1517.37 Q1335.21 1517.37 1333.52 1518.87 Q1331.86 1520.38 1331.86 1523.06 Z" fill="#000000" fill-rule="nonzero" fill-opacity="1" /><path clip-path="url(#clip520)" d="M1545.52 1544.91 L1553.16 1544.91 L1553.16 1518.55 L1544.85 1520.21 L1544.85 1515.95 L1553.11 1514.29 L1557.79 1514.29 L1557.79 1544.91 L1565.42 1544.91 L1565.42 1548.85 L1545.52 1548.85 L1545.52 1544.91 Z" fill="#000000" fill-rule="nonzero" fill-opacity="1" /><path clip-path="url(#clip520)" d="M1575.01 1548.13 L1575.01 1543.87 Q1576.77 1544.7 1578.57 1545.14 Q1580.38 1545.58 1582.11 1545.58 Q1586.74 1545.58 1589.17 1542.48 Q1591.63 1539.36 1591.97 1533.01 Q1590.63 1535.01 1588.57 1536.07 Q1586.51 1537.13 1584.01 1537.13 Q1578.83 1537.13 1575.79 1534.01 Q1572.79 1530.86 1572.79 1525.42 Q1572.79 1520.1 1575.93 1516.88 Q1579.08 1513.66 1584.31 1513.66 Q1590.31 1513.66 1593.46 1518.27 Q1596.63 1522.85 1596.63 1531.6 Q1596.63 1539.77 1592.74 1544.66 Q1588.87 1549.52 1582.32 1549.52 Q1580.56 1549.52 1578.76 1549.17 Q1576.95 1548.82 1575.01 1548.13 M1584.31 1533.48 Q1587.46 1533.48 1589.29 1531.32 Q1591.14 1529.17 1591.14 1525.42 Q1591.14 1521.7 1589.29 1519.54 Q1587.46 1517.37 1584.31 1517.37 Q1581.16 1517.37 1579.31 1519.54 Q1577.48 1521.7 1577.48 1525.42 Q1577.48 1529.17 1579.31 1531.32 Q1581.16 1533.48 1584.31 1533.48 Z" fill="#000000" fill-rule="nonzero" fill-opacity="1" /><path clip-path="url(#clip520)" d="M1603.85 1514.29 L1626.07 1514.29 L1626.07 1516.28 L1613.53 1548.85 L1608.64 1548.85 L1620.45 1518.22 L1603.85 1518.22 L1603.85 1514.29 Z" fill="#000000" fill-rule="nonzero" fill-opacity="1" /><path clip-path="url(#clip520)" d="M1645.19 1532.44 Q1641.86 1532.44 1639.94 1534.22 Q1638.04 1536 1638.04 1539.13 Q1638.04 1542.25 1639.94 1544.03 Q1641.86 1545.82 1645.19 1545.82 Q1648.53 1545.82 1650.45 1544.03 Q1652.37 1542.23 1652.37 1539.13 Q1652.37 1536 1650.45 1534.22 Q1648.55 1532.44 1645.19 1532.44 M1640.52 1530.45 Q1637.51 1529.7 1635.82 1527.64 Q1634.15 1525.58 1634.15 1522.62 Q1634.15 1518.48 1637.09 1516.07 Q1640.05 1513.66 1645.19 1513.66 Q1650.35 1513.66 1653.29 1516.07 Q1656.23 1518.48 1656.23 1522.62 Q1656.23 1525.58 1654.54 1527.64 Q1652.88 1529.7 1649.89 1530.45 Q1653.27 1531.23 1655.15 1533.52 Q1657.04 1535.82 1657.04 1539.13 Q1657.04 1544.15 1653.97 1546.83 Q1650.91 1549.52 1645.19 1549.52 Q1639.47 1549.52 1636.4 1546.83 Q1633.34 1544.15 1633.34 1539.13 Q1633.34 1535.82 1635.24 1533.52 Q1637.14 1531.23 1640.52 1530.45 M1638.8 1523.06 Q1638.8 1525.75 1640.47 1527.25 Q1642.16 1528.76 1645.19 1528.76 Q1648.2 1528.76 1649.89 1527.25 Q1651.6 1525.75 1651.6 1523.06 Q1651.6 1520.38 1649.89 1518.87 Q1648.2 1517.37 1645.19 1517.37 Q1642.16 1517.37 1640.47 1518.87 Q1638.8 1520.38 1638.8 1523.06 Z" fill="#000000" fill-rule="nonzero" fill-opacity="1" /><path clip-path="url(#clip520)" d="M1662.6 1533.96 L1675.08 1533.96 L1675.08 1537.76 L1662.6 1537.76 L1662.6 1533.96 Z" fill="#000000" fill-rule="nonzero" fill-opacity="1" /><path clip-path="url(#clip520)" d="M1692.46 1517.37 Q1688.85 1517.37 1687.02 1520.93 Q1685.21 1524.47 1685.21 1531.6 Q1685.21 1538.71 1687.02 1542.27 Q1688.85 1545.82 1692.46 1545.82 Q1696.09 1545.82 1697.9 1542.27 Q1699.73 1538.71 1699.73 1531.6 Q1699.73 1524.47 1697.9 1520.93 Q1696.09 1517.37 1692.46 1517.37 M1692.46 1513.66 Q1698.27 1513.66 1701.33 1518.27 Q1704.4 1522.85 1704.4 1531.6 Q1704.4 1540.33 1701.33 1544.94 Q1698.27 1549.52 1692.46 1549.52 Q1686.65 1549.52 1683.57 1544.94 Q1680.52 1540.33 1680.52 1531.6 Q1680.52 1522.85 1683.57 1518.27 Q1686.65 1513.66 1692.46 1513.66 Z" fill="#000000" fill-rule="nonzero" fill-opacity="1" /><path clip-path="url(#clip520)" d="M1713.43 1544.91 L1721.07 1544.91 L1721.07 1518.55 L1712.76 1520.21 L1712.76 1515.95 L1721.02 1514.29 L1725.7 1514.29 L1725.7 1544.91 L1733.34 1544.91 L1733.34 1548.85 L1713.43 1548.85 L1713.43 1544.91 Z" fill="#000000" fill-rule="nonzero" fill-opacity="1" /><path clip-path="url(#clip520)" d="M1740.03 1533.96 L1752.51 1533.96 L1752.51 1537.76 L1740.03 1537.76 L1740.03 1533.96 Z" fill="#000000" fill-rule="nonzero" fill-opacity="1" /><path clip-path="url(#clip520)" d="M1774.06 1530.21 Q1777.41 1530.93 1779.29 1533.2 Q1781.19 1535.47 1781.19 1538.8 Q1781.19 1543.92 1777.67 1546.72 Q1774.15 1549.52 1767.67 1549.52 Q1765.49 1549.52 1763.18 1549.08 Q1760.89 1548.66 1758.43 1547.81 L1758.43 1543.29 Q1760.38 1544.43 1762.69 1545.01 Q1765.01 1545.58 1767.53 1545.58 Q1771.93 1545.58 1774.22 1543.85 Q1776.53 1542.11 1776.53 1538.8 Q1776.53 1535.75 1774.38 1534.03 Q1772.25 1532.3 1768.43 1532.3 L1764.4 1532.3 L1764.4 1528.45 L1768.62 1528.45 Q1772.07 1528.45 1773.9 1527.09 Q1775.72 1525.7 1775.72 1523.11 Q1775.72 1520.45 1773.83 1519.03 Q1771.95 1517.6 1768.43 1517.6 Q1766.51 1517.6 1764.31 1518.01 Q1762.11 1518.43 1759.47 1519.31 L1759.47 1515.14 Q1762.14 1514.4 1764.45 1514.03 Q1766.79 1513.66 1768.85 1513.66 Q1774.17 1513.66 1777.27 1516.09 Q1780.38 1518.5 1780.38 1522.62 Q1780.38 1525.49 1778.73 1527.48 Q1777.09 1529.45 1774.06 1530.21 Z" fill="#000000" fill-rule="nonzero" fill-opacity="1" /><path clip-path="url(#clip520)" d="M1790.86 1544.91 L1798.5 1544.91 L1798.5 1518.55 L1790.19 1520.21 L1790.19 1515.95 L1798.46 1514.29 L1803.13 1514.29 L1803.13 1544.91 L1810.77 1544.91 L1810.77 1548.85 L1790.86 1548.85 L1790.86 1544.91 Z" fill="#000000" fill-rule="nonzero" fill-opacity="1" /><path clip-path="url(#clip520)" d="M2006.47 1544.91 L2014.11 1544.91 L2014.11 1518.55 L2005.8 1520.21 L2005.8 1515.95 L2014.06 1514.29 L2018.74 1514.29 L2018.74 1544.91 L2026.37 1544.91 L2026.37 1548.85 L2006.47 1548.85 L2006.47 1544.91 Z" fill="#000000" fill-rule="nonzero" fill-opacity="1" /><path clip-path="url(#clip520)" d="M2035.96 1548.13 L2035.96 1543.87 Q2037.72 1544.7 2039.52 1545.14 Q2041.33 1545.58 2043.06 1545.58 Q2047.69 1545.58 2050.12 1542.48 Q2052.58 1539.36 2052.93 1533.01 Q2051.58 1535.01 2049.52 1536.07 Q2047.46 1537.13 2044.96 1537.13 Q2039.78 1537.13 2036.75 1534.01 Q2033.74 1530.86 2033.74 1525.42 Q2033.74 1520.1 2036.88 1516.88 Q2040.03 1513.66 2045.26 1513.66 Q2051.26 1513.66 2054.41 1518.27 Q2057.58 1522.85 2057.58 1531.6 Q2057.58 1539.77 2053.69 1544.66 Q2049.82 1549.52 2043.27 1549.52 Q2041.51 1549.52 2039.71 1549.17 Q2037.9 1548.82 2035.96 1548.13 M2045.26 1533.48 Q2048.41 1533.48 2050.24 1531.32 Q2052.09 1529.17 2052.09 1525.42 Q2052.09 1521.7 2050.24 1519.54 Q2048.41 1517.37 2045.26 1517.37 Q2042.12 1517.37 2040.26 1519.54 Q2038.44 1521.7 2038.44 1525.42 Q2038.44 1529.17 2040.26 1531.32 Q2042.12 1533.48 2045.26 1533.48 Z" fill="#000000" fill-rule="nonzero" fill-opacity="1" /><path clip-path="url(#clip520)" d="M2064.8 1514.29 L2087.02 1514.29 L2087.02 1516.28 L2074.48 1548.85 L2069.59 1548.85 L2081.4 1518.22 L2064.8 1518.22 L2064.8 1514.29 Z" fill="#000000" fill-rule="nonzero" fill-opacity="1" /><path clip-path="url(#clip520)" d="M2106.14 1532.44 Q2102.81 1532.44 2100.89 1534.22 Q2098.99 1536 2098.99 1539.13 Q2098.99 1542.25 2100.89 1544.03 Q2102.81 1545.82 2106.14 1545.82 Q2109.48 1545.82 2111.4 1544.03 Q2113.32 1542.23 2113.32 1539.13 Q2113.32 1536 2111.4 1534.22 Q2109.5 1532.44 2106.14 1532.44 M2101.47 1530.45 Q2098.46 1529.7 2096.77 1527.64 Q2095.1 1525.58 2095.1 1522.62 Q2095.1 1518.48 2098.04 1516.07 Q2101 1513.66 2106.14 1513.66 Q2111.3 1513.66 2114.24 1516.07 Q2117.18 1518.48 2117.18 1522.62 Q2117.18 1525.58 2115.49 1527.64 Q2113.83 1529.7 2110.84 1530.45 Q2114.22 1531.23 2116.1 1533.52 Q2117.99 1535.82 2117.99 1539.13 Q2117.99 1544.15 2114.92 1546.83 Q2111.86 1549.52 2106.14 1549.52 Q2100.43 1549.52 2097.35 1546.83 Q2094.29 1544.15 2094.29 1539.13 Q2094.29 1535.82 2096.19 1533.52 Q2098.09 1531.23 2101.47 1530.45 M2099.75 1523.06 Q2099.75 1525.75 2101.42 1527.25 Q2103.11 1528.76 2106.14 1528.76 Q2109.15 1528.76 2110.84 1527.25 Q2112.55 1525.75 2112.55 1523.06 Q2112.55 1520.38 2110.84 1518.87 Q2109.15 1517.37 2106.14 1517.37 Q2103.11 1517.37 2101.42 1518.87 Q2099.75 1520.38 2099.75 1523.06 Z" fill="#000000" fill-rule="nonzero" fill-opacity="1" /><path clip-path="url(#clip520)" d="M2123.55 1533.96 L2136.03 1533.96 L2136.03 1537.76 L2123.55 1537.76 L2123.55 1533.96 Z" fill="#000000" fill-rule="nonzero" fill-opacity="1" /><path clip-path="url(#clip520)" d="M2153.41 1517.37 Q2149.8 1517.37 2147.97 1520.93 Q2146.17 1524.47 2146.17 1531.6 Q2146.17 1538.71 2147.97 1542.27 Q2149.8 1545.82 2153.41 1545.82 Q2157.05 1545.82 2158.85 1542.27 Q2160.68 1538.71 2160.68 1531.6 Q2160.68 1524.47 2158.85 1520.93 Q2157.05 1517.37 2153.41 1517.37 M2153.41 1513.66 Q2159.22 1513.66 2162.28 1518.27 Q2165.36 1522.85 2165.36 1531.6 Q2165.36 1540.33 2162.28 1544.94 Q2159.22 1549.52 2153.41 1549.52 Q2147.6 1549.52 2144.52 1544.94 Q2141.47 1540.33 2141.47 1531.6 Q2141.47 1522.85 2144.52 1518.27 Q2147.6 1513.66 2153.41 1513.66 Z" fill="#000000" fill-rule="nonzero" fill-opacity="1" /><path clip-path="url(#clip520)" d="M2177.6 1544.91 L2193.92 1544.91 L2193.92 1548.85 L2171.98 1548.85 L2171.98 1544.91 Q2174.64 1542.16 2179.22 1537.53 Q2183.83 1532.88 2185.01 1531.53 Q2187.25 1529.01 2188.13 1527.27 Q2189.04 1525.51 2189.04 1523.82 Q2189.04 1521.07 2187.09 1519.33 Q2185.17 1517.6 2182.07 1517.6 Q2179.87 1517.6 2177.42 1518.36 Q2174.99 1519.13 2172.21 1520.68 L2172.21 1515.95 Q2175.03 1514.82 2177.49 1514.24 Q2179.94 1513.66 2181.98 1513.66 Q2187.35 1513.66 2190.54 1516.35 Q2193.74 1519.03 2193.74 1523.52 Q2193.74 1525.65 2192.92 1527.57 Q2192.14 1529.47 2190.03 1532.07 Q2189.45 1532.74 2186.35 1535.95 Q2183.25 1539.15 2177.6 1544.91 Z" fill="#000000" fill-rule="nonzero" fill-opacity="1" /><path clip-path="url(#clip520)" d="M2200.98 1533.96 L2213.46 1533.96 L2213.46 1537.76 L2200.98 1537.76 L2200.98 1533.96 Z" fill="#000000" fill-rule="nonzero" fill-opacity="1" /><path clip-path="url(#clip520)" d="M2230.84 1517.37 Q2227.23 1517.37 2225.4 1520.93 Q2223.6 1524.47 2223.6 1531.6 Q2223.6 1538.71 2225.4 1542.27 Q2227.23 1545.82 2230.84 1545.82 Q2234.48 1545.82 2236.28 1542.27 Q2238.11 1538.71 2238.11 1531.6 Q2238.11 1524.47 2236.28 1520.93 Q2234.48 1517.37 2230.84 1517.37 M2230.84 1513.66 Q2236.65 1513.66 2239.71 1518.27 Q2242.79 1522.85 2242.79 1531.6 Q2242.79 1540.33 2239.71 1544.94 Q2236.65 1549.52 2230.84 1549.52 Q2225.03 1549.52 2221.95 1544.94 Q2218.9 1540.33 2218.9 1531.6 Q2218.9 1522.85 2221.95 1518.27 Q2225.03 1513.66 2230.84 1513.66 Z" fill="#000000" fill-rule="nonzero" fill-opacity="1" /><path clip-path="url(#clip520)" d="M2265.17 1530.21 Q2268.53 1530.93 2270.4 1533.2 Q2272.3 1535.47 2272.3 1538.8 Q2272.3 1543.92 2268.78 1546.72 Q2265.26 1549.52 2258.78 1549.52 Q2256.61 1549.52 2254.29 1549.08 Q2252 1548.66 2249.54 1547.81 L2249.54 1543.29 Q2251.49 1544.43 2253.8 1545.01 Q2256.12 1545.58 2258.64 1545.58 Q2263.04 1545.58 2265.33 1543.85 Q2267.65 1542.11 2267.65 1538.8 Q2267.65 1535.75 2265.49 1534.03 Q2263.36 1532.3 2259.54 1532.3 L2255.52 1532.3 L2255.52 1528.45 L2259.73 1528.45 Q2263.18 1528.45 2265.01 1527.09 Q2266.84 1525.7 2266.84 1523.11 Q2266.84 1520.45 2264.94 1519.03 Q2263.06 1517.6 2259.54 1517.6 Q2257.62 1517.6 2255.42 1518.01 Q2253.23 1518.43 2250.59 1519.31 L2250.59 1515.14 Q2253.25 1514.4 2255.56 1514.03 Q2257.9 1513.66 2259.96 1513.66 Q2265.29 1513.66 2268.39 1516.09 Q2271.49 1518.5 2271.49 1522.62 Q2271.49 1525.49 2269.85 1527.48 Q2268.2 1529.45 2265.17 1530.21 Z" fill="#000000" fill-rule="nonzero" fill-opacity="1" /><polyline clip-path="url(#clip522)" style="stroke:#000000; stroke-linecap:round; stroke-linejoin:round; stroke-width:2; stroke-opacity:0.1; fill:none" points="234.125,1459.52 2352.76,1459.52 "/>
<polyline clip-path="url(#clip522)" style="stroke:#000000; stroke-linecap:round; stroke-linejoin:round; stroke-width:2; stroke-opacity:0.1; fill:none" points="234.125,999.273 2352.76,999.273 "/>
<polyline clip-path="url(#clip522)" style="stroke:#000000; stroke-linecap:round; stroke-linejoin:round; stroke-width:2; stroke-opacity:0.1; fill:none" points="234.125,539.022 2352.76,539.022 "/>
<polyline clip-path="url(#clip522)" style="stroke:#000000; stroke-linecap:round; stroke-linejoin:round; stroke-width:2; stroke-opacity:0.1; fill:none" points="234.125,78.7713 2352.76,78.7713 "/>
<polyline clip-path="url(#clip520)" style="stroke:#000000; stroke-linecap:round; stroke-linejoin:round; stroke-width:4; stroke-opacity:1; fill:none" points="234.125,1486.45 234.125,47.2441 "/>
<polyline clip-path="url(#clip520)" style="stroke:#000000; stroke-linecap:round; stroke-linejoin:round; stroke-width:4; stroke-opacity:1; fill:none" points="234.125,1459.52 253.023,1459.52 "/>
<polyline clip-path="url(#clip520)" style="stroke:#000000; stroke-linecap:round; stroke-linejoin:round; stroke-width:4; stroke-opacity:1; fill:none" points="234.125,999.273 253.023,999.273 "/>
<polyline clip-path="url(#clip520)" style="stroke:#000000; stroke-linecap:round; stroke-linejoin:round; stroke-width:4; stroke-opacity:1; fill:none" points="234.125,539.022 253.023,539.022 "/>
<polyline clip-path="url(#clip520)" style="stroke:#000000; stroke-linecap:round; stroke-linejoin:round; stroke-width:4; stroke-opacity:1; fill:none" points="234.125,78.7713 253.023,78.7713 "/>
<path clip-path="url(#clip520)" d="M186.181 1445.32 Q182.57 1445.32 180.741 1448.89 Q178.936 1452.43 178.936 1459.56 Q178.936 1466.66 180.741 1470.23 Q182.57 1473.77 186.181 1473.77 Q189.815 1473.77 191.621 1470.23 Q193.45 1466.66 193.45 1459.56 Q193.45 1452.43 191.621 1448.89 Q189.815 1445.32 186.181 1445.32 M186.181 1441.62 Q191.991 1441.62 195.047 1446.22 Q198.125 1450.81 198.125 1459.56 Q198.125 1468.28 195.047 1472.89 Q191.991 1477.47 186.181 1477.47 Q180.371 1477.47 177.292 1472.89 Q174.237 1468.28 174.237 1459.56 Q174.237 1450.81 177.292 1446.22 Q180.371 1441.62 186.181 1441.62 Z" fill="#000000" fill-rule="nonzero" fill-opacity="1" /><path clip-path="url(#clip520)" d="M116.668 1012.62 L124.306 1012.62 L124.306 986.252 L115.996 987.918 L115.996 983.659 L124.26 981.993 L128.936 981.993 L128.936 1012.62 L136.575 1012.62 L136.575 1016.55 L116.668 1016.55 L116.668 1012.62 Z" fill="#000000" fill-rule="nonzero" fill-opacity="1" /><path clip-path="url(#clip520)" d="M156.019 985.071 Q152.408 985.071 150.579 988.636 Q148.774 992.178 148.774 999.307 Q148.774 1006.41 150.579 1009.98 Q152.408 1013.52 156.019 1013.52 Q159.653 1013.52 161.459 1009.98 Q163.288 1006.41 163.288 999.307 Q163.288 992.178 161.459 988.636 Q159.653 985.071 156.019 985.071 M156.019 981.368 Q161.829 981.368 164.885 985.974 Q167.964 990.557 167.964 999.307 Q167.964 1008.03 164.885 1012.64 Q161.829 1017.22 156.019 1017.22 Q150.209 1017.22 147.13 1012.64 Q144.075 1008.03 144.075 999.307 Q144.075 990.557 147.13 985.974 Q150.209 981.368 156.019 981.368 Z" fill="#000000" fill-rule="nonzero" fill-opacity="1" /><path clip-path="url(#clip520)" d="M186.181 985.071 Q182.57 985.071 180.741 988.636 Q178.936 992.178 178.936 999.307 Q178.936 1006.41 180.741 1009.98 Q182.57 1013.52 186.181 1013.52 Q189.815 1013.52 191.621 1009.98 Q193.45 1006.41 193.45 999.307 Q193.45 992.178 191.621 988.636 Q189.815 985.071 186.181 985.071 M186.181 981.368 Q191.991 981.368 195.047 985.974 Q198.125 990.557 198.125 999.307 Q198.125 1008.03 195.047 1012.64 Q191.991 1017.22 186.181 1017.22 Q180.371 1017.22 177.292 1012.64 Q174.237 1008.03 174.237 999.307 Q174.237 990.557 177.292 985.974 Q180.371 981.368 186.181 981.368 Z" fill="#000000" fill-rule="nonzero" fill-opacity="1" /><path clip-path="url(#clip520)" d="M119.885 552.367 L136.204 552.367 L136.204 556.302 L114.26 556.302 L114.26 552.367 Q116.922 549.612 121.505 544.983 Q126.112 540.33 127.292 538.987 Q129.538 536.464 130.417 534.728 Q131.32 532.969 131.32 531.279 Q131.32 528.524 129.376 526.788 Q127.455 525.052 124.353 525.052 Q122.154 525.052 119.7 525.816 Q117.269 526.58 114.492 528.131 L114.492 523.409 Q117.316 522.274 119.769 521.696 Q122.223 521.117 124.26 521.117 Q129.63 521.117 132.825 523.802 Q136.019 526.487 136.019 530.978 Q136.019 533.108 135.209 535.029 Q134.422 536.927 132.316 539.52 Q131.737 540.191 128.635 543.408 Q125.533 546.603 119.885 552.367 Z" fill="#000000" fill-rule="nonzero" fill-opacity="1" /><path clip-path="url(#clip520)" d="M156.019 524.821 Q152.408 524.821 150.579 528.385 Q148.774 531.927 148.774 539.057 Q148.774 546.163 150.579 549.728 Q152.408 553.27 156.019 553.27 Q159.653 553.27 161.459 549.728 Q163.288 546.163 163.288 539.057 Q163.288 531.927 161.459 528.385 Q159.653 524.821 156.019 524.821 M156.019 521.117 Q161.829 521.117 164.885 525.723 Q167.964 530.307 167.964 539.057 Q167.964 547.783 164.885 552.39 Q161.829 556.973 156.019 556.973 Q150.209 556.973 147.13 552.39 Q144.075 547.783 144.075 539.057 Q144.075 530.307 147.13 525.723 Q150.209 521.117 156.019 521.117 Z" fill="#000000" fill-rule="nonzero" fill-opacity="1" /><path clip-path="url(#clip520)" d="M186.181 524.821 Q182.57 524.821 180.741 528.385 Q178.936 531.927 178.936 539.057 Q178.936 546.163 180.741 549.728 Q182.57 553.27 186.181 553.27 Q189.815 553.27 191.621 549.728 Q193.45 546.163 193.45 539.057 Q193.45 531.927 191.621 528.385 Q189.815 524.821 186.181 524.821 M186.181 521.117 Q191.991 521.117 195.047 525.723 Q198.125 530.307 198.125 539.057 Q198.125 547.783 195.047 552.39 Q191.991 556.973 186.181 556.973 Q180.371 556.973 177.292 552.39 Q174.237 547.783 174.237 539.057 Q174.237 530.307 177.292 525.723 Q180.371 521.117 186.181 521.117 Z" fill="#000000" fill-rule="nonzero" fill-opacity="1" /><path clip-path="url(#clip520)" d="M130.024 77.4171 Q133.38 78.1347 135.255 80.4032 Q137.154 82.6717 137.154 86.005 Q137.154 91.1207 133.635 93.9216 Q130.117 96.7226 123.635 96.7226 Q121.459 96.7226 119.144 96.2827 Q116.853 95.8661 114.399 95.0096 L114.399 90.4957 Q116.343 91.63 118.658 92.2087 Q120.973 92.7874 123.496 92.7874 Q127.894 92.7874 130.186 91.0513 Q132.501 89.3152 132.501 86.005 Q132.501 82.9495 130.348 81.2365 Q128.218 79.5004 124.399 79.5004 L120.371 79.5004 L120.371 75.6579 L124.584 75.6579 Q128.033 75.6579 129.862 74.2921 Q131.691 72.9032 131.691 70.3107 Q131.691 67.6486 129.792 66.2366 Q127.917 64.8014 124.399 64.8014 Q122.478 64.8014 120.279 65.2181 Q118.08 65.6348 115.441 66.5144 L115.441 62.3477 Q118.103 61.607 120.418 61.2366 Q122.755 60.8663 124.816 60.8663 Q130.14 60.8663 133.242 63.2968 Q136.343 65.7042 136.343 69.8246 Q136.343 72.6949 134.7 74.6856 Q133.056 76.6532 130.024 77.4171 Z" fill="#000000" fill-rule="nonzero" fill-opacity="1" /><path clip-path="url(#clip520)" d="M156.019 64.57 Q152.408 64.57 150.579 68.1347 Q148.774 71.6764 148.774 78.806 Q148.774 85.9124 150.579 89.4772 Q152.408 93.0189 156.019 93.0189 Q159.653 93.0189 161.459 89.4772 Q163.288 85.9124 163.288 78.806 Q163.288 71.6764 161.459 68.1347 Q159.653 64.57 156.019 64.57 M156.019 60.8663 Q161.829 60.8663 164.885 65.4727 Q167.964 70.056 167.964 78.806 Q167.964 87.5328 164.885 92.1392 Q161.829 96.7226 156.019 96.7226 Q150.209 96.7226 147.13 92.1392 Q144.075 87.5328 144.075 78.806 Q144.075 70.056 147.13 65.4727 Q150.209 60.8663 156.019 60.8663 Z" fill="#000000" fill-rule="nonzero" fill-opacity="1" /><path clip-path="url(#clip520)" d="M186.181 64.57 Q182.57 64.57 180.741 68.1347 Q178.936 71.6764 178.936 78.806 Q178.936 85.9124 180.741 89.4772 Q182.57 93.0189 186.181 93.0189 Q189.815 93.0189 191.621 89.4772 Q193.45 85.9124 193.45 78.806 Q193.45 71.6764 191.621 68.1347 Q189.815 64.57 186.181 64.57 M186.181 60.8663 Q191.991 60.8663 195.047 65.4727 Q198.125 70.056 198.125 78.806 Q198.125 87.5328 195.047 92.1392 Q191.991 96.7226 186.181 96.7226 Q180.371 96.7226 177.292 92.1392 Q174.237 87.5328 174.237 78.806 Q174.237 70.056 177.292 65.4727 Q180.371 60.8663 186.181 60.8663 Z" fill="#000000" fill-rule="nonzero" fill-opacity="1" /><path clip-path="url(#clip520)" d="M16.4842 1197.18 L16.4842 1188.53 L56.238 1167.46 L16.4842 1167.46 L16.4842 1161.22 L64.0042 1161.22 L64.0042 1169.87 L24.2503 1190.95 L64.0042 1190.95 L64.0042 1197.18 L16.4842 1197.18 Z" fill="#000000" fill-rule="nonzero" fill-opacity="1" /><path clip-path="url(#clip520)" d="M49.9359 1149.28 L28.3562 1149.28 L28.3562 1143.43 L49.7131 1143.43 Q54.7739 1143.43 57.3202 1141.45 Q59.8346 1139.48 59.8346 1135.53 Q59.8346 1130.79 56.8109 1128.05 Q53.7872 1125.28 48.5673 1125.28 L28.3562 1125.28 L28.3562 1119.43 L64.0042 1119.43 L64.0042 1125.28 L58.5296 1125.28 Q61.7762 1127.42 63.3676 1130.25 Q64.9272 1133.05 64.9272 1136.77 Q64.9272 1142.92 61.1078 1146.1 Q57.2883 1149.28 49.9359 1149.28 M27.4968 1134.55 L27.4968 1134.55 Z" fill="#000000" fill-rule="nonzero" fill-opacity="1" /><path clip-path="url(#clip520)" d="M35.1993 1079.61 Q31.2526 1077.41 29.3747 1074.36 Q27.4968 1071.3 27.4968 1067.16 Q27.4968 1061.59 31.4117 1058.57 Q35.2948 1055.55 42.4881 1055.55 L64.0042 1055.55 L64.0042 1061.43 L42.679 1061.43 Q37.5546 1061.43 35.072 1063.25 Q32.5894 1065.06 32.5894 1068.79 Q32.5894 1073.34 35.6131 1075.98 Q38.6368 1078.62 43.8567 1078.62 L64.0042 1078.62 L64.0042 1084.51 L42.679 1084.51 Q37.5228 1084.51 35.072 1086.32 Q32.5894 1088.14 32.5894 1091.93 Q32.5894 1096.41 35.6449 1099.06 Q38.6686 1101.7 43.8567 1101.7 L64.0042 1101.7 L64.0042 1107.59 L28.3562 1107.59 L28.3562 1101.7 L33.8944 1101.7 Q30.616 1099.69 29.0564 1096.89 Q27.4968 1094.09 27.4968 1090.24 Q27.4968 1086.36 29.4702 1083.65 Q31.4436 1080.91 35.1993 1079.61 Z" fill="#000000" fill-rule="nonzero" fill-opacity="1" /><path clip-path="url(#clip520)" d="M46.212 1018.28 Q39.7508 1018.28 36.0905 1020.95 Q32.3984 1023.59 32.3984 1028.24 Q32.3984 1032.88 36.0905 1035.56 Q39.7508 1038.2 46.212 1038.2 Q52.6732 1038.2 56.3653 1035.56 Q60.0256 1032.88 60.0256 1028.24 Q60.0256 1023.59 56.3653 1020.95 Q52.6732 1018.28 46.212 1018.28 M33.7671 1038.2 Q30.5842 1036.35 29.0564 1033.55 Q27.4968 1030.72 27.4968 1026.81 Q27.4968 1020.31 32.6531 1016.27 Q37.8093 1012.2 46.212 1012.2 Q54.6147 1012.2 59.771 1016.27 Q64.9272 1020.31 64.9272 1026.81 Q64.9272 1030.72 63.3994 1033.55 Q61.8398 1036.35 58.657 1038.2 L64.0042 1038.2 L64.0042 1044.09 L14.479 1044.09 L14.479 1038.2 L33.7671 1038.2 Z" fill="#000000" fill-rule="nonzero" fill-opacity="1" /><path clip-path="url(#clip520)" d="M44.7161 971.997 L47.5806 971.997 L47.5806 998.924 Q53.6281 998.542 56.8109 995.295 Q59.9619 992.017 59.9619 986.192 Q59.9619 982.818 59.1344 979.667 Q58.3069 976.485 56.6518 973.365 L62.1899 973.365 Q63.5267 976.516 64.227 979.827 Q64.9272 983.137 64.9272 986.542 Q64.9272 995.072 59.9619 1000.07 Q54.9967 1005.03 46.5303 1005.03 Q37.7774 1005.03 32.6531 1000.32 Q27.4968 995.582 27.4968 987.561 Q27.4968 980.368 32.1438 976.198 Q36.7589 971.997 44.7161 971.997 M42.9973 977.853 Q38.1912 977.917 35.3266 980.559 Q32.4621 983.169 32.4621 987.497 Q32.4621 992.399 35.2312 995.359 Q38.0002 998.287 43.0292 998.733 L42.9973 977.853 Z" fill="#000000" fill-rule="nonzero" fill-opacity="1" /><path clip-path="url(#clip520)" d="M33.8307 941.728 Q33.2578 942.715 33.0032 943.892 Q32.7167 945.038 32.7167 946.438 Q32.7167 951.404 35.9632 954.077 Q39.1779 956.719 45.2253 956.719 L64.0042 956.719 L64.0042 962.607 L28.3562 962.607 L28.3562 956.719 L33.8944 956.719 Q30.6479 954.873 29.0883 951.913 Q27.4968 948.953 27.4968 944.72 Q27.4968 944.115 27.5923 943.383 Q27.656 942.651 27.8151 941.76 L33.8307 941.728 Z" fill="#000000" fill-rule="nonzero" fill-opacity="1" /><path clip-path="url(#clip520)" d="M32.4621 901.051 Q32.4621 905.762 36.1542 908.499 Q39.8145 911.236 46.212 911.236 Q52.6095 911.236 56.3017 908.531 Q59.9619 905.793 59.9619 901.051 Q59.9619 896.372 56.2698 893.635 Q52.5777 890.898 46.212 890.898 Q39.8781 890.898 36.186 893.635 Q32.4621 896.372 32.4621 901.051 M27.4968 901.051 Q27.4968 893.412 32.4621 889.052 Q37.4273 884.691 46.212 884.691 Q54.9649 884.691 59.9619 889.052 Q64.9272 893.412 64.9272 901.051 Q64.9272 908.722 59.9619 913.082 Q54.9649 917.411 46.212 917.411 Q37.4273 917.411 32.4621 913.082 Q27.4968 908.722 27.4968 901.051 Z" fill="#000000" fill-rule="nonzero" fill-opacity="1" /><path clip-path="url(#clip520)" d="M14.479 856.937 L19.3487 856.937 L19.3487 862.538 Q19.3487 865.689 20.6219 866.931 Q21.895 868.14 25.2052 868.14 L28.3562 868.14 L28.3562 858.496 L32.9077 858.496 L32.9077 868.14 L64.0042 868.14 L64.0042 874.029 L32.9077 874.029 L32.9077 879.63 L28.3562 879.63 L28.3562 874.029 L25.8736 874.029 Q19.9216 874.029 17.2162 871.259 Q14.479 868.49 14.479 862.475 L14.479 856.937 Z" fill="#000000" fill-rule="nonzero" fill-opacity="1" /><path clip-path="url(#clip520)" d="M29.4065 808.589 L34.9447 808.589 Q33.6716 811.072 33.035 813.745 Q32.3984 816.419 32.3984 819.283 Q32.3984 823.644 33.7352 825.84 Q35.072 828.005 37.7456 828.005 Q39.7826 828.005 40.9603 826.445 Q42.1061 824.885 43.1565 820.175 L43.6021 818.169 Q44.9389 811.931 47.3897 809.321 Q49.8086 806.679 54.1691 806.679 Q59.1344 806.679 62.0308 810.626 Q64.9272 814.541 64.9272 821.416 Q64.9272 824.281 64.3543 827.4 Q63.8132 830.487 62.6992 833.925 L56.6518 833.925 Q58.3387 830.678 59.198 827.527 Q60.0256 824.376 60.0256 821.289 Q60.0256 817.151 58.6251 814.923 Q57.1929 812.695 54.6147 812.695 Q52.2276 812.695 50.9545 814.318 Q49.6813 815.91 48.5037 821.352 L48.0262 823.389 Q46.8804 828.832 44.5251 831.251 Q42.138 833.67 38.0002 833.67 Q32.9713 833.67 30.2341 830.105 Q27.4968 826.54 27.4968 819.984 Q27.4968 816.737 27.9743 813.873 Q28.4517 811.008 29.4065 808.589 Z" fill="#000000" fill-rule="nonzero" fill-opacity="1" /><path clip-path="url(#clip520)" d="M18.2347 791.561 L28.3562 791.561 L28.3562 779.498 L32.9077 779.498 L32.9077 791.561 L52.2594 791.561 Q56.6199 791.561 57.8613 790.383 Q59.1026 789.174 59.1026 785.513 L59.1026 779.498 L64.0042 779.498 L64.0042 785.513 Q64.0042 792.293 61.4897 794.871 Q58.9434 797.449 52.2594 797.449 L32.9077 797.449 L32.9077 801.746 L28.3562 801.746 L28.3562 797.449 L18.2347 797.449 L18.2347 791.561 Z" fill="#000000" fill-rule="nonzero" fill-opacity="1" /><path clip-path="url(#clip520)" d="M49.9359 772.4 L28.3562 772.4 L28.3562 766.544 L49.7131 766.544 Q54.7739 766.544 57.3202 764.57 Q59.8346 762.597 59.8346 758.65 Q59.8346 753.908 56.8109 751.17 Q53.7872 748.401 48.5673 748.401 L28.3562 748.401 L28.3562 742.545 L64.0042 742.545 L64.0042 748.401 L58.5296 748.401 Q61.7762 750.534 63.3676 753.367 Q64.9272 756.168 64.9272 759.891 Q64.9272 766.034 61.1078 769.217 Q57.2883 772.4 49.9359 772.4 M27.4968 757.663 L27.4968 757.663 Z" fill="#000000" fill-rule="nonzero" fill-opacity="1" /><path clip-path="url(#clip520)" d="M33.7671 707.024 L14.479 707.024 L14.479 701.168 L64.0042 701.168 L64.0042 707.024 L58.657 707.024 Q61.8398 708.87 63.3994 711.703 Q64.9272 714.504 64.9272 718.451 Q64.9272 724.912 59.771 728.986 Q54.6147 733.028 46.212 733.028 Q37.8093 733.028 32.6531 728.986 Q27.4968 724.912 27.4968 718.451 Q27.4968 714.504 29.0564 711.703 Q30.5842 708.87 33.7671 707.024 M46.212 726.981 Q52.6732 726.981 56.3653 724.339 Q60.0256 721.665 60.0256 717.018 Q60.0256 712.371 56.3653 709.698 Q52.6732 707.024 46.212 707.024 Q39.7508 707.024 36.0905 709.698 Q32.3984 712.371 32.3984 717.018 Q32.3984 721.665 36.0905 724.339 Q39.7508 726.981 46.212 726.981 Z" fill="#000000" fill-rule="nonzero" fill-opacity="1" /><path clip-path="url(#clip520)" d="M44.7161 658.613 L47.5806 658.613 L47.5806 685.54 Q53.6281 685.158 56.8109 681.912 Q59.9619 678.633 59.9619 672.809 Q59.9619 669.435 59.1344 666.284 Q58.3069 663.101 56.6518 659.982 L62.1899 659.982 Q63.5267 663.133 64.227 666.443 Q64.9272 669.753 64.9272 673.159 Q64.9272 681.689 59.9619 686.686 Q54.9967 691.651 46.5303 691.651 Q37.7774 691.651 32.6531 686.94 Q27.4968 682.198 27.4968 674.177 Q27.4968 666.984 32.1438 662.814 Q36.7589 658.613 44.7161 658.613 M42.9973 664.47 Q38.1912 664.533 35.3266 667.175 Q32.4621 669.785 32.4621 674.114 Q32.4621 679.015 35.2312 681.975 Q38.0002 684.903 43.0292 685.349 L42.9973 664.47 Z" fill="#000000" fill-rule="nonzero" fill-opacity="1" /><path clip-path="url(#clip520)" d="M42.4881 619.368 L64.0042 619.368 L64.0042 625.225 L42.679 625.225 Q37.6183 625.225 35.1038 627.198 Q32.5894 629.172 32.5894 633.118 Q32.5894 637.861 35.6131 640.598 Q38.6368 643.335 43.8567 643.335 L64.0042 643.335 L64.0042 649.224 L28.3562 649.224 L28.3562 643.335 L33.8944 643.335 Q30.6797 641.235 29.0883 638.402 Q27.4968 635.537 27.4968 631.813 Q27.4968 625.671 31.3163 622.52 Q35.1038 619.368 42.4881 619.368 Z" fill="#000000" fill-rule="nonzero" fill-opacity="1" /><path clip-path="url(#clip520)" d="M18.2347 601.895 L28.3562 601.895 L28.3562 589.832 L32.9077 589.832 L32.9077 601.895 L52.2594 601.895 Q56.6199 601.895 57.8613 600.717 Q59.1026 599.507 59.1026 595.847 L59.1026 589.832 L64.0042 589.832 L64.0042 595.847 Q64.0042 602.627 61.4897 605.205 Q58.9434 607.783 52.2594 607.783 L32.9077 607.783 L32.9077 612.08 L28.3562 612.08 L28.3562 607.783 L18.2347 607.783 L18.2347 601.895 Z" fill="#000000" fill-rule="nonzero" fill-opacity="1" /><path clip-path="url(#clip520)" d="M29.4065 559.404 L34.9447 559.404 Q33.6716 561.886 33.035 564.56 Q32.3984 567.233 32.3984 570.098 Q32.3984 574.458 33.7352 576.655 Q35.072 578.819 37.7456 578.819 Q39.7826 578.819 40.9603 577.259 Q42.1061 575.7 43.1565 570.989 L43.6021 568.984 Q44.9389 562.746 47.3897 560.136 Q49.8086 557.494 54.1691 557.494 Q59.1344 557.494 62.0308 561.441 Q64.9272 565.355 64.9272 572.23 Q64.9272 575.095 64.3543 578.214 Q63.8132 581.302 62.6992 584.739 L56.6518 584.739 Q58.3387 581.493 59.198 578.341 Q60.0256 575.19 60.0256 572.103 Q60.0256 567.965 58.6251 565.737 Q57.1929 563.509 54.6147 563.509 Q52.2276 563.509 50.9545 565.133 Q49.6813 566.724 48.5037 572.167 L48.0262 574.204 Q46.8804 579.646 44.5251 582.065 Q42.138 584.484 38.0002 584.484 Q32.9713 584.484 30.2341 580.92 Q27.4968 577.355 27.4968 570.798 Q27.4968 567.552 27.9743 564.687 Q28.4517 561.822 29.4065 559.404 Z" fill="#000000" fill-rule="nonzero" fill-opacity="1" /><path clip-path="url(#clip520)" d="M28.3562 527.448 L28.3562 521.591 L64.0042 521.591 L64.0042 527.448 L28.3562 527.448 M14.479 527.448 L14.479 521.591 L21.895 521.591 L21.895 527.448 L14.479 527.448 Z" fill="#000000" fill-rule="nonzero" fill-opacity="1" /><path clip-path="url(#clip520)" d="M42.4881 479.705 L64.0042 479.705 L64.0042 485.561 L42.679 485.561 Q37.6183 485.561 35.1038 487.535 Q32.5894 489.508 32.5894 493.455 Q32.5894 498.197 35.6131 500.935 Q38.6368 503.672 43.8567 503.672 L64.0042 503.672 L64.0042 509.56 L28.3562 509.56 L28.3562 503.672 L33.8944 503.672 Q30.6797 501.571 29.0883 498.738 Q27.4968 495.874 27.4968 492.15 Q27.4968 486.007 31.3163 482.856 Q35.1038 479.705 42.4881 479.705 Z" fill="#000000" fill-rule="nonzero" fill-opacity="1" /><path clip-path="url(#clip520)" d="M46.212 421.713 Q39.7508 421.713 36.0905 424.387 Q32.3984 427.029 32.3984 431.676 Q32.3984 436.323 36.0905 438.996 Q39.7508 441.638 46.212 441.638 Q52.6732 441.638 56.3653 438.996 Q60.0256 436.323 60.0256 431.676 Q60.0256 427.029 56.3653 424.387 Q52.6732 421.713 46.212 421.713 M33.7671 441.638 Q30.5842 439.792 29.0564 436.991 Q27.4968 434.158 27.4968 430.243 Q27.4968 423.75 32.6531 419.708 Q37.8093 415.634 46.212 415.634 Q54.6147 415.634 59.771 419.708 Q64.9272 423.75 64.9272 430.243 Q64.9272 434.158 63.3994 436.991 Q61.8398 439.792 58.657 441.638 L64.0042 441.638 L64.0042 447.526 L14.479 447.526 L14.479 441.638 L33.7671 441.638 Z" fill="#000000" fill-rule="nonzero" fill-opacity="1" /><path clip-path="url(#clip520)" d="M44.7161 375.435 L47.5806 375.435 L47.5806 402.362 Q53.6281 401.98 56.8109 398.733 Q59.9619 395.455 59.9619 389.63 Q59.9619 386.256 59.1344 383.105 Q58.3069 379.922 56.6518 376.803 L62.1899 376.803 Q63.5267 379.954 64.227 383.264 Q64.9272 386.575 64.9272 389.98 Q64.9272 398.51 59.9619 403.507 Q54.9967 408.473 46.5303 408.473 Q37.7774 408.473 32.6531 403.762 Q27.4968 399.02 27.4968 390.999 Q27.4968 383.806 32.1438 379.636 Q36.7589 375.435 44.7161 375.435 M42.9973 381.291 Q38.1912 381.355 35.3266 383.996 Q32.4621 386.606 32.4621 390.935 Q32.4621 395.837 35.2312 398.797 Q38.0002 401.725 43.0292 402.171 L42.9973 381.291 Z" fill="#000000" fill-rule="nonzero" fill-opacity="1" /><path clip-path="url(#clip520)" d="M33.7671 342.365 L14.479 342.365 L14.479 336.508 L64.0042 336.508 L64.0042 342.365 L58.657 342.365 Q61.8398 344.211 63.3994 347.044 Q64.9272 349.844 64.9272 353.791 Q64.9272 360.252 59.771 364.326 Q54.6147 368.369 46.212 368.369 Q37.8093 368.369 32.6531 364.326 Q27.4968 360.252 27.4968 353.791 Q27.4968 349.844 29.0564 347.044 Q30.5842 344.211 33.7671 342.365 M46.212 362.321 Q52.6732 362.321 56.3653 359.679 Q60.0256 357.006 60.0256 352.359 Q60.0256 347.712 56.3653 345.038 Q52.6732 342.365 46.212 342.365 Q39.7508 342.365 36.0905 345.038 Q32.3984 347.712 32.3984 352.359 Q32.3984 357.006 36.0905 359.679 Q39.7508 362.321 46.212 362.321 Z" fill="#000000" fill-rule="nonzero" fill-opacity="1" /><circle clip-path="url(#clip522)" cx="294.087" cy="1445.72" r="14.4" fill="#009af9" fill-rule="evenodd" fill-opacity="1" stroke="#000000" stroke-opacity="1" stroke-width="3.2"/>
<circle clip-path="url(#clip522)" cx="447.833" cy="1422.7" r="14.4" fill="#009af9" fill-rule="evenodd" fill-opacity="1" stroke="#000000" stroke-opacity="1" stroke-width="3.2"/>
<circle clip-path="url(#clip522)" cx="601.58" cy="1339.86" r="14.4" fill="#009af9" fill-rule="evenodd" fill-opacity="1" stroke="#000000" stroke-opacity="1" stroke-width="3.2"/>
<circle clip-path="url(#clip522)" cx="755.327" cy="1109.73" r="14.4" fill="#009af9" fill-rule="evenodd" fill-opacity="1" stroke="#000000" stroke-opacity="1" stroke-width="3.2"/>
<circle clip-path="url(#clip522)" cx="909.074" cy="423.959" r="14.4" fill="#009af9" fill-rule="evenodd" fill-opacity="1" stroke="#000000" stroke-opacity="1" stroke-width="3.2"/>
<circle clip-path="url(#clip522)" cx="1062.82" cy="87.9763" r="14.4" fill="#009af9" fill-rule="evenodd" fill-opacity="1" stroke="#000000" stroke-opacity="1" stroke-width="3.2"/>
<circle clip-path="url(#clip522)" cx="1216.57" cy="272.077" r="14.4" fill="#009af9" fill-rule="evenodd" fill-opacity="1" stroke="#000000" stroke-opacity="1" stroke-width="3.2"/>
<circle clip-path="url(#clip522)" cx="1370.31" cy="387.139" r="14.4" fill="#009af9" fill-rule="evenodd" fill-opacity="1" stroke="#000000" stroke-opacity="1" stroke-width="3.2"/>
<circle clip-path="url(#clip522)" cx="1524.06" cy="589.649" r="14.4" fill="#009af9" fill-rule="evenodd" fill-opacity="1" stroke="#000000" stroke-opacity="1" stroke-width="3.2"/>
<circle clip-path="url(#clip522)" cx="1677.81" cy="870.402" r="14.4" fill="#009af9" fill-rule="evenodd" fill-opacity="1" stroke="#000000" stroke-opacity="1" stroke-width="3.2"/>
<circle clip-path="url(#clip522)" cx="1831.55" cy="1146.55" r="14.4" fill="#009af9" fill-rule="evenodd" fill-opacity="1" stroke="#000000" stroke-opacity="1" stroke-width="3.2"/>
<circle clip-path="url(#clip522)" cx="1985.3" cy="1326.05" r="14.4" fill="#009af9" fill-rule="evenodd" fill-opacity="1" stroke="#000000" stroke-opacity="1" stroke-width="3.2"/>
<circle clip-path="url(#clip522)" cx="2139.05" cy="1395.09" r="14.4" fill="#009af9" fill-rule="evenodd" fill-opacity="1" stroke="#000000" stroke-opacity="1" stroke-width="3.2"/>
<circle clip-path="url(#clip522)" cx="2292.79" cy="1441.11" r="14.4" fill="#009af9" fill-rule="evenodd" fill-opacity="1" stroke="#000000" stroke-opacity="1" stroke-width="3.2"/>
</svg>
