<?xml version="1.0" encoding="utf-8"?>
<svg xmlns="http://www.w3.org/2000/svg" xmlns:xlink="http://www.w3.org/1999/xlink" width="600" height="300" viewBox="0 0 2400 1200">
<defs>
  <clipPath id="clip320">
    <rect x="0" y="0" width="2400" height="1200"/>
  </clipPath>
</defs>
<path clip-path="url(#clip320)" d="M0 1200 L2400 1200 L2400 0 L0 0  Z" fill="#ffffff" fill-rule="evenodd" fill-opacity="1"/>
<defs>
  <clipPath id="clip321">
    <rect x="480" y="0" width="1681" height="1200"/>
  </clipPath>
</defs>
<path clip-path="url(#clip320)" d="M172.015 1099.09 L2352.76 1099.09 L2352.76 47.2441 L172.015 47.2441  Z" fill="#ffffff" fill-rule="evenodd" fill-opacity="1"/>
<defs>
  <clipPath id="clip322">
    <rect x="172" y="47" width="2182" height="1053"/>
  </clipPath>
</defs>
<polyline clip-path="url(#clip322)" style="stroke:#000000; stroke-linecap:round; stroke-linejoin:round; stroke-width:2; stroke-opacity:0.1; fill:none" points="471.115,1099.09 471.115,47.2441 "/>
<polyline clip-path="url(#clip322)" style="stroke:#000000; stroke-linecap:round; stroke-linejoin:round; stroke-width:2; stroke-opacity:0.1; fill:none" points="866.75,1099.09 866.75,47.2441 "/>
<polyline clip-path="url(#clip322)" style="stroke:#000000; stroke-linecap:round; stroke-linejoin:round; stroke-width:2; stroke-opacity:0.1; fill:none" points="1262.39,1099.09 1262.39,47.2441 "/>
<polyline clip-path="url(#clip322)" style="stroke:#000000; stroke-linecap:round; stroke-linejoin:round; stroke-width:2; stroke-opacity:0.1; fill:none" points="1658.02,1099.09 1658.02,47.2441 "/>
<polyline clip-path="url(#clip322)" style="stroke:#000000; stroke-linecap:round; stroke-linejoin:round; stroke-width:2; stroke-opacity:0.1; fill:none" points="2053.66,1099.09 2053.66,47.2441 "/>
<polyline clip-path="url(#clip320)" style="stroke:#000000; stroke-linecap:round; stroke-linejoin:round; stroke-width:4; stroke-opacity:1; fill:none" points="172.015,1099.09 2352.76,1099.09 "/>
<polyline clip-path="url(#clip320)" style="stroke:#000000; stroke-linecap:round; stroke-linejoin:round; stroke-width:4; stroke-opacity:1; fill:none" points="471.115,1099.09 471.115,1080.19 "/>
<polyline clip-path="url(#clip320)" style="stroke:#000000; stroke-linecap:round; stroke-linejoin:round; stroke-width:4; stroke-opacity:1; fill:none" points="866.75,1099.09 866.75,1080.19 "/>
<polyline clip-path="url(#clip320)" style="stroke:#000000; stroke-linecap:round; stroke-linejoin:round; stroke-width:4; stroke-opacity:1; fill:none" points="1262.39,1099.09 1262.39,1080.19 "/>
<polyline clip-path="url(#clip320)" style="stroke:#000000; stroke-linecap:round; stroke-linejoin:round; stroke-width:4; stroke-opacity:1; fill:none" points="1658.02,1099.09 1658.02,1080.19 "/>
<polyline clip-path="url(#clip320)" style="stroke:#000000; stroke-linecap:round; stroke-linejoin:round; stroke-width:4; stroke-opacity:1; fill:none" points="2053.66,1099.09 2053.66,1080.19 "/>
<path clip-path="url(#clip320)" d="M442.851 1157.55 L459.171 1157.55 L459.171 1161.49 L437.226 1161.49 L437.226 1157.55 Q439.888 1154.8 444.472 1150.17 Q449.078 1145.52 450.259 1144.17 Q452.504 1141.65 453.384 1139.91 Q454.286 1138.15 454.286 1136.46 Q454.286 1133.71 452.342 1131.97 Q450.421 1130.24 447.319 1130.24 Q445.12 1130.24 442.666 1131 Q440.236 1131.77 437.458 1133.32 L437.458 1128.59 Q440.282 1127.46 442.736 1126.88 Q445.189 1126.3 447.226 1126.3 Q452.597 1126.3 455.791 1128.99 Q458.985 1131.67 458.985 1136.16 Q458.985 1138.29 458.175 1140.21 Q457.388 1142.11 455.282 1144.71 Q454.703 1145.38 451.601 1148.59 Q448.499 1151.79 442.851 1157.55 Z" fill="#000000" fill-rule="nonzero" fill-opacity="1" /><path clip-path="url(#clip320)" d="M468.985 1155.61 L473.87 1155.61 L473.87 1161.49 L468.985 1161.49 L468.985 1155.61 Z" fill="#000000" fill-rule="nonzero" fill-opacity="1" /><path clip-path="url(#clip320)" d="M484.101 1126.93 L502.457 1126.93 L502.457 1130.86 L488.383 1130.86 L488.383 1139.34 Q489.402 1138.99 490.42 1138.83 Q491.439 1138.64 492.457 1138.64 Q498.244 1138.64 501.624 1141.81 Q505.004 1144.98 505.004 1150.4 Q505.004 1155.98 501.532 1159.08 Q498.059 1162.16 491.74 1162.16 Q489.564 1162.16 487.295 1161.79 Q485.05 1161.42 482.643 1160.68 L482.643 1155.98 Q484.726 1157.11 486.948 1157.67 Q489.17 1158.22 491.647 1158.22 Q495.652 1158.22 497.99 1156.12 Q500.328 1154.01 500.328 1150.4 Q500.328 1146.79 497.99 1144.68 Q495.652 1142.58 491.647 1142.58 Q489.772 1142.58 487.897 1142.99 Q486.045 1143.41 484.101 1144.29 L484.101 1126.93 Z" fill="#000000" fill-rule="nonzero" fill-opacity="1" /><path clip-path="url(#clip320)" d="M833.915 1126.93 L852.271 1126.93 L852.271 1130.86 L838.197 1130.86 L838.197 1139.34 Q839.216 1138.99 840.234 1138.83 Q841.253 1138.64 842.271 1138.64 Q848.058 1138.64 851.438 1141.81 Q854.817 1144.98 854.817 1150.4 Q854.817 1155.98 851.345 1159.08 Q847.873 1162.16 841.554 1162.16 Q839.378 1162.16 837.109 1161.79 Q834.864 1161.42 832.456 1160.68 L832.456 1155.98 Q834.54 1157.11 836.762 1157.67 Q838.984 1158.22 841.461 1158.22 Q845.466 1158.22 847.804 1156.12 Q850.141 1154.01 850.141 1150.4 Q850.141 1146.79 847.804 1144.68 Q845.466 1142.58 841.461 1142.58 Q839.586 1142.58 837.711 1142.99 Q835.859 1143.41 833.915 1144.29 L833.915 1126.93 Z" fill="#000000" fill-rule="nonzero" fill-opacity="1" /><path clip-path="url(#clip320)" d="M864.03 1155.61 L868.915 1155.61 L868.915 1161.49 L864.03 1161.49 L864.03 1155.61 Z" fill="#000000" fill-rule="nonzero" fill-opacity="1" /><path clip-path="url(#clip320)" d="M889.1 1130.01 Q885.489 1130.01 883.66 1133.57 Q881.854 1137.11 881.854 1144.24 Q881.854 1151.35 883.66 1154.91 Q885.489 1158.46 889.1 1158.46 Q892.734 1158.46 894.539 1154.91 Q896.368 1151.35 896.368 1144.24 Q896.368 1137.11 894.539 1133.57 Q892.734 1130.01 889.1 1130.01 M889.1 1126.3 Q894.91 1126.3 897.965 1130.91 Q901.044 1135.49 901.044 1144.24 Q901.044 1152.97 897.965 1157.58 Q894.91 1162.16 889.1 1162.16 Q883.289 1162.16 880.211 1157.58 Q877.155 1152.97 877.155 1144.24 Q877.155 1135.49 880.211 1130.91 Q883.289 1126.3 889.1 1126.3 Z" fill="#000000" fill-rule="nonzero" fill-opacity="1" /><path clip-path="url(#clip320)" d="M1228.7 1126.93 L1250.93 1126.93 L1250.93 1128.92 L1238.38 1161.49 L1233.5 1161.49 L1245.3 1130.86 L1228.7 1130.86 L1228.7 1126.93 Z" fill="#000000" fill-rule="nonzero" fill-opacity="1" /><path clip-path="url(#clip320)" d="M1260.05 1155.61 L1264.93 1155.61 L1264.93 1161.49 L1260.05 1161.49 L1260.05 1155.61 Z" fill="#000000" fill-rule="nonzero" fill-opacity="1" /><path clip-path="url(#clip320)" d="M1275.16 1126.93 L1293.52 1126.93 L1293.52 1130.86 L1279.45 1130.86 L1279.45 1139.34 Q1280.46 1138.99 1281.48 1138.83 Q1282.5 1138.64 1283.52 1138.64 Q1289.31 1138.64 1292.69 1141.81 Q1296.07 1144.98 1296.07 1150.4 Q1296.07 1155.98 1292.59 1159.08 Q1289.12 1162.16 1282.8 1162.16 Q1280.63 1162.16 1278.36 1161.79 Q1276.11 1161.42 1273.7 1160.68 L1273.7 1155.98 Q1275.79 1157.11 1278.01 1157.67 Q1280.23 1158.22 1282.71 1158.22 Q1286.71 1158.22 1289.05 1156.12 Q1291.39 1154.01 1291.39 1150.4 Q1291.39 1146.79 1289.05 1144.68 Q1286.71 1142.58 1282.71 1142.58 Q1280.83 1142.58 1278.96 1142.99 Q1277.11 1143.41 1275.16 1144.29 L1275.16 1126.93 Z" fill="#000000" fill-rule="nonzero" fill-opacity="1" /><path clip-path="url(#clip320)" d="M1610.09 1157.55 L1617.73 1157.55 L1617.73 1131.19 L1609.42 1132.85 L1609.42 1128.59 L1617.69 1126.93 L1622.36 1126.93 L1622.36 1157.55 L1630 1157.55 L1630 1161.49 L1610.09 1161.49 L1610.09 1157.55 Z" fill="#000000" fill-rule="nonzero" fill-opacity="1" /><path clip-path="url(#clip320)" d="M1649.44 1130.01 Q1645.83 1130.01 1644 1133.57 Q1642.2 1137.11 1642.2 1144.24 Q1642.2 1151.35 1644 1154.91 Q1645.83 1158.46 1649.44 1158.46 Q1653.08 1158.46 1654.88 1154.91 Q1656.71 1151.35 1656.71 1144.24 Q1656.71 1137.11 1654.88 1133.57 Q1653.08 1130.01 1649.44 1130.01 M1649.44 1126.3 Q1655.25 1126.3 1658.31 1130.91 Q1661.39 1135.49 1661.39 1144.24 Q1661.39 1152.97 1658.31 1157.58 Q1655.25 1162.16 1649.44 1162.16 Q1643.63 1162.16 1640.56 1157.58 Q1637.5 1152.97 1637.5 1144.24 Q1637.5 1135.49 1640.56 1130.91 Q1643.63 1126.3 1649.44 1126.3 Z" fill="#000000" fill-rule="nonzero" fill-opacity="1" /><path clip-path="url(#clip320)" d="M1669.61 1155.61 L1674.49 1155.61 L1674.49 1161.49 L1669.61 1161.49 L1669.61 1155.61 Z" fill="#000000" fill-rule="nonzero" fill-opacity="1" /><path clip-path="url(#clip320)" d="M1694.68 1130.01 Q1691.06 1130.01 1689.24 1133.57 Q1687.43 1137.11 1687.43 1144.24 Q1687.43 1151.35 1689.24 1154.91 Q1691.06 1158.46 1694.68 1158.46 Q1698.31 1158.46 1700.12 1154.91 Q1701.94 1151.35 1701.94 1144.24 Q1701.94 1137.11 1700.12 1133.57 Q1698.31 1130.01 1694.68 1130.01 M1694.68 1126.3 Q1700.49 1126.3 1703.54 1130.91 Q1706.62 1135.49 1706.62 1144.24 Q1706.62 1152.97 1703.54 1157.58 Q1700.49 1162.16 1694.68 1162.16 Q1688.87 1162.16 1685.79 1157.58 Q1682.73 1152.97 1682.73 1144.24 Q1682.73 1135.49 1685.79 1130.91 Q1688.87 1126.3 1694.68 1126.3 Z" fill="#000000" fill-rule="nonzero" fill-opacity="1" /><path clip-path="url(#clip320)" d="M2006.23 1157.55 L2013.86 1157.55 L2013.86 1131.19 L2005.55 1132.85 L2005.55 1128.59 L2013.82 1126.93 L2018.49 1126.93 L2018.49 1157.55 L2026.13 1157.55 L2026.13 1161.49 L2006.23 1161.49 L2006.23 1157.55 Z" fill="#000000" fill-rule="nonzero" fill-opacity="1" /><path clip-path="url(#clip320)" d="M2039.6 1157.55 L2055.92 1157.55 L2055.92 1161.49 L2033.98 1161.49 L2033.98 1157.55 Q2036.64 1154.8 2041.23 1150.17 Q2045.83 1145.52 2047.01 1144.17 Q2049.26 1141.65 2050.14 1139.91 Q2051.04 1138.15 2051.04 1136.46 Q2051.04 1133.71 2049.1 1131.97 Q2047.17 1130.24 2044.07 1130.24 Q2041.87 1130.24 2039.42 1131 Q2036.99 1131.77 2034.21 1133.32 L2034.21 1128.59 Q2037.04 1127.46 2039.49 1126.88 Q2041.94 1126.3 2043.98 1126.3 Q2049.35 1126.3 2052.54 1128.99 Q2055.74 1131.67 2055.74 1136.16 Q2055.74 1138.29 2054.93 1140.21 Q2054.14 1142.11 2052.04 1144.71 Q2051.46 1145.38 2048.35 1148.59 Q2045.25 1151.79 2039.6 1157.55 Z" fill="#000000" fill-rule="nonzero" fill-opacity="1" /><path clip-path="url(#clip320)" d="M2065.74 1155.61 L2070.62 1155.61 L2070.62 1161.49 L2065.74 1161.49 L2065.74 1155.61 Z" fill="#000000" fill-rule="nonzero" fill-opacity="1" /><path clip-path="url(#clip320)" d="M2080.85 1126.93 L2099.21 1126.93 L2099.21 1130.86 L2085.14 1130.86 L2085.14 1139.34 Q2086.16 1138.99 2087.17 1138.83 Q2088.19 1138.64 2089.21 1138.64 Q2095 1138.64 2098.38 1141.81 Q2101.76 1144.98 2101.76 1150.4 Q2101.76 1155.98 2098.29 1159.08 Q2094.81 1162.16 2088.49 1162.16 Q2086.32 1162.16 2084.05 1161.79 Q2081.8 1161.42 2079.4 1160.68 L2079.4 1155.98 Q2081.48 1157.11 2083.7 1157.67 Q2085.92 1158.22 2088.4 1158.22 Q2092.41 1158.22 2094.74 1156.12 Q2097.08 1154.01 2097.08 1150.4 Q2097.08 1146.79 2094.74 1144.68 Q2092.41 1142.58 2088.4 1142.58 Q2086.53 1142.58 2084.65 1142.99 Q2082.8 1143.41 2080.85 1144.29 L2080.85 1126.93 Z" fill="#000000" fill-rule="nonzero" fill-opacity="1" /><polyline clip-path="url(#clip322)" style="stroke:#000000; stroke-linecap:round; stroke-linejoin:round; stroke-width:2; stroke-opacity:0.1; fill:none" points="172.015,1069.32 2352.76,1069.32 "/>
<polyline clip-path="url(#clip322)" style="stroke:#000000; stroke-linecap:round; stroke-linejoin:round; stroke-width:2; stroke-opacity:0.1; fill:none" points="172.015,861.288 2352.76,861.288 "/>
<polyline clip-path="url(#clip322)" style="stroke:#000000; stroke-linecap:round; stroke-linejoin:round; stroke-width:2; stroke-opacity:0.1; fill:none" points="172.015,653.258 2352.76,653.258 "/>
<polyline clip-path="url(#clip322)" style="stroke:#000000; stroke-linecap:round; stroke-linejoin:round; stroke-width:2; stroke-opacity:0.1; fill:none" points="172.015,445.227 2352.76,445.227 "/>
<polyline clip-path="url(#clip322)" style="stroke:#000000; stroke-linecap:round; stroke-linejoin:round; stroke-width:2; stroke-opacity:0.1; fill:none" points="172.015,237.197 2352.76,237.197 "/>
<polyline clip-path="url(#clip320)" style="stroke:#000000; stroke-linecap:round; stroke-linejoin:round; stroke-width:4; stroke-opacity:1; fill:none" points="172.015,1099.09 172.015,47.2441 "/>
<polyline clip-path="url(#clip320)" style="stroke:#000000; stroke-linecap:round; stroke-linejoin:round; stroke-width:4; stroke-opacity:1; fill:none" points="172.015,1069.32 190.912,1069.32 "/>
<polyline clip-path="url(#clip320)" style="stroke:#000000; stroke-linecap:round; stroke-linejoin:round; stroke-width:4; stroke-opacity:1; fill:none" points="172.015,861.288 190.912,861.288 "/>
<polyline clip-path="url(#clip320)" style="stroke:#000000; stroke-linecap:round; stroke-linejoin:round; stroke-width:4; stroke-opacity:1; fill:none" points="172.015,653.258 190.912,653.258 "/>
<polyline clip-path="url(#clip320)" style="stroke:#000000; stroke-linecap:round; stroke-linejoin:round; stroke-width:4; stroke-opacity:1; fill:none" points="172.015,445.227 190.912,445.227 "/>
<polyline clip-path="url(#clip320)" style="stroke:#000000; stroke-linecap:round; stroke-linejoin:round; stroke-width:4; stroke-opacity:1; fill:none" points="172.015,237.197 190.912,237.197 "/>
<path clip-path="url(#clip320)" d="M124.07 1055.12 Q120.459 1055.12 118.631 1058.68 Q116.825 1062.22 116.825 1069.35 Q116.825 1076.46 118.631 1080.02 Q120.459 1083.57 124.07 1083.57 Q127.705 1083.57 129.51 1080.02 Q131.339 1076.46 131.339 1069.35 Q131.339 1062.22 129.51 1058.68 Q127.705 1055.12 124.07 1055.12 M124.07 1051.41 Q129.881 1051.41 132.936 1056.02 Q136.015 1060.6 136.015 1069.35 Q136.015 1078.08 132.936 1082.69 Q129.881 1087.27 124.07 1087.27 Q118.26 1087.27 115.182 1082.69 Q112.126 1078.08 112.126 1069.35 Q112.126 1060.6 115.182 1056.02 Q118.26 1051.41 124.07 1051.41 Z" fill="#000000" fill-rule="nonzero" fill-opacity="1" /><path clip-path="url(#clip320)" d="M54.5569 874.633 L62.1958 874.633 L62.1958 848.267 L53.8856 849.934 L53.8856 845.675 L62.1495 844.008 L66.8254 844.008 L66.8254 874.633 L74.4642 874.633 L74.4642 878.568 L54.5569 878.568 L54.5569 874.633 Z" fill="#000000" fill-rule="nonzero" fill-opacity="1" /><path clip-path="url(#clip320)" d="M93.9086 847.087 Q90.2975 847.087 88.4688 850.652 Q86.6632 854.193 86.6632 861.323 Q86.6632 868.429 88.4688 871.994 Q90.2975 875.536 93.9086 875.536 Q97.5428 875.536 99.3483 871.994 Q101.177 868.429 101.177 861.323 Q101.177 854.193 99.3483 850.652 Q97.5428 847.087 93.9086 847.087 M93.9086 843.383 Q99.7187 843.383 102.774 847.99 Q105.853 852.573 105.853 861.323 Q105.853 870.05 102.774 874.656 Q99.7187 879.24 93.9086 879.24 Q88.0984 879.24 85.0197 874.656 Q81.9642 870.05 81.9642 861.323 Q81.9642 852.573 85.0197 847.99 Q88.0984 843.383 93.9086 843.383 Z" fill="#000000" fill-rule="nonzero" fill-opacity="1" /><path clip-path="url(#clip320)" d="M124.07 847.087 Q120.459 847.087 118.631 850.652 Q116.825 854.193 116.825 861.323 Q116.825 868.429 118.631 871.994 Q120.459 875.536 124.07 875.536 Q127.705 875.536 129.51 871.994 Q131.339 868.429 131.339 861.323 Q131.339 854.193 129.51 850.652 Q127.705 847.087 124.07 847.087 M124.07 843.383 Q129.881 843.383 132.936 847.99 Q136.015 852.573 136.015 861.323 Q136.015 870.05 132.936 874.656 Q129.881 879.24 124.07 879.24 Q118.26 879.24 115.182 874.656 Q112.126 870.05 112.126 861.323 Q112.126 852.573 115.182 847.99 Q118.26 843.383 124.07 843.383 Z" fill="#000000" fill-rule="nonzero" fill-opacity="1" /><path clip-path="url(#clip320)" d="M57.7745 666.603 L74.0939 666.603 L74.0939 670.538 L52.1495 670.538 L52.1495 666.603 Q54.8115 663.848 59.3949 659.218 Q64.0013 654.566 65.1819 653.223 Q67.4272 650.7 68.3068 648.964 Q69.2096 647.205 69.2096 645.515 Q69.2096 642.76 67.2652 641.024 Q65.3439 639.288 62.2421 639.288 Q60.043 639.288 57.5893 640.052 Q55.1588 640.816 52.381 642.367 L52.381 637.644 Q55.2051 636.51 57.6588 635.931 Q60.1124 635.353 62.1495 635.353 Q67.5198 635.353 70.7142 638.038 Q73.9087 640.723 73.9087 645.214 Q73.9087 647.343 73.0985 649.265 Q72.3115 651.163 70.205 653.755 Q69.6263 654.427 66.5245 657.644 Q63.4226 660.839 57.7745 666.603 Z" fill="#000000" fill-rule="nonzero" fill-opacity="1" /><path clip-path="url(#clip320)" d="M93.9086 639.056 Q90.2975 639.056 88.4688 642.621 Q86.6632 646.163 86.6632 653.292 Q86.6632 660.399 88.4688 663.964 Q90.2975 667.505 93.9086 667.505 Q97.5428 667.505 99.3483 663.964 Q101.177 660.399 101.177 653.292 Q101.177 646.163 99.3483 642.621 Q97.5428 639.056 93.9086 639.056 M93.9086 635.353 Q99.7187 635.353 102.774 639.959 Q105.853 644.542 105.853 653.292 Q105.853 662.019 102.774 666.626 Q99.7187 671.209 93.9086 671.209 Q88.0984 671.209 85.0197 666.626 Q81.9642 662.019 81.9642 653.292 Q81.9642 644.542 85.0197 639.959 Q88.0984 635.353 93.9086 635.353 Z" fill="#000000" fill-rule="nonzero" fill-opacity="1" /><path clip-path="url(#clip320)" d="M124.07 639.056 Q120.459 639.056 118.631 642.621 Q116.825 646.163 116.825 653.292 Q116.825 660.399 118.631 663.964 Q120.459 667.505 124.07 667.505 Q127.705 667.505 129.51 663.964 Q131.339 660.399 131.339 653.292 Q131.339 646.163 129.51 642.621 Q127.705 639.056 124.07 639.056 M124.07 635.353 Q129.881 635.353 132.936 639.959 Q136.015 644.542 136.015 653.292 Q136.015 662.019 132.936 666.626 Q129.881 671.209 124.07 671.209 Q118.26 671.209 115.182 666.626 Q112.126 662.019 112.126 653.292 Q112.126 644.542 115.182 639.959 Q118.26 635.353 124.07 635.353 Z" fill="#000000" fill-rule="nonzero" fill-opacity="1" /><path clip-path="url(#clip320)" d="M67.9133 443.873 Q71.2698 444.591 73.1448 446.859 Q75.0429 449.128 75.0429 452.461 Q75.0429 457.577 71.5244 460.378 Q68.0059 463.179 61.5245 463.179 Q59.3486 463.179 57.0338 462.739 Q54.7421 462.322 52.2884 461.466 L52.2884 456.952 Q54.2328 458.086 56.5477 458.665 Q58.8625 459.243 61.3856 459.243 Q65.7837 459.243 68.0754 457.507 Q70.3902 455.771 70.3902 452.461 Q70.3902 449.405 68.2374 447.692 Q66.1078 445.956 62.2884 445.956 L58.2606 445.956 L58.2606 442.114 L62.4735 442.114 Q65.9226 442.114 67.7513 440.748 Q69.58 439.359 69.58 436.767 Q69.58 434.105 67.6819 432.693 Q65.8069 431.257 62.2884 431.257 Q60.3671 431.257 58.168 431.674 Q55.969 432.091 53.3301 432.97 L53.3301 428.804 Q55.9921 428.063 58.3069 427.693 Q60.6449 427.322 62.705 427.322 Q68.0291 427.322 71.1309 429.753 Q74.2327 432.16 74.2327 436.281 Q74.2327 439.151 72.5892 441.142 Q70.9457 443.109 67.9133 443.873 Z" fill="#000000" fill-rule="nonzero" fill-opacity="1" /><path clip-path="url(#clip320)" d="M93.9086 431.026 Q90.2975 431.026 88.4688 434.591 Q86.6632 438.132 86.6632 445.262 Q86.6632 452.368 88.4688 455.933 Q90.2975 459.475 93.9086 459.475 Q97.5428 459.475 99.3483 455.933 Q101.177 452.368 101.177 445.262 Q101.177 438.132 99.3483 434.591 Q97.5428 431.026 93.9086 431.026 M93.9086 427.322 Q99.7187 427.322 102.774 431.929 Q105.853 436.512 105.853 445.262 Q105.853 453.989 102.774 458.595 Q99.7187 463.179 93.9086 463.179 Q88.0984 463.179 85.0197 458.595 Q81.9642 453.989 81.9642 445.262 Q81.9642 436.512 85.0197 431.929 Q88.0984 427.322 93.9086 427.322 Z" fill="#000000" fill-rule="nonzero" fill-opacity="1" /><path clip-path="url(#clip320)" d="M124.07 431.026 Q120.459 431.026 118.631 434.591 Q116.825 438.132 116.825 445.262 Q116.825 452.368 118.631 455.933 Q120.459 459.475 124.07 459.475 Q127.705 459.475 129.51 455.933 Q131.339 452.368 131.339 445.262 Q131.339 438.132 129.51 434.591 Q127.705 431.026 124.07 431.026 M124.07 427.322 Q129.881 427.322 132.936 431.929 Q136.015 436.512 136.015 445.262 Q136.015 453.989 132.936 458.595 Q129.881 463.179 124.07 463.179 Q118.26 463.179 115.182 458.595 Q112.126 453.989 112.126 445.262 Q112.126 436.512 115.182 431.929 Q118.26 427.322 124.07 427.322 Z" fill="#000000" fill-rule="nonzero" fill-opacity="1" /><path clip-path="url(#clip320)" d="M66.5939 223.991 L54.7884 242.44 L66.5939 242.44 L66.5939 223.991 M65.367 219.917 L71.2466 219.917 L71.2466 242.44 L76.1772 242.44 L76.1772 246.329 L71.2466 246.329 L71.2466 254.477 L66.5939 254.477 L66.5939 246.329 L50.9921 246.329 L50.9921 241.815 L65.367 219.917 Z" fill="#000000" fill-rule="nonzero" fill-opacity="1" /><path clip-path="url(#clip320)" d="M93.9086 222.995 Q90.2975 222.995 88.4688 226.56 Q86.6632 230.102 86.6632 237.231 Q86.6632 244.338 88.4688 247.903 Q90.2975 251.444 93.9086 251.444 Q97.5428 251.444 99.3483 247.903 Q101.177 244.338 101.177 237.231 Q101.177 230.102 99.3483 226.56 Q97.5428 222.995 93.9086 222.995 M93.9086 219.292 Q99.7187 219.292 102.774 223.898 Q105.853 228.482 105.853 237.231 Q105.853 245.958 102.774 250.565 Q99.7187 255.148 93.9086 255.148 Q88.0984 255.148 85.0197 250.565 Q81.9642 245.958 81.9642 237.231 Q81.9642 228.482 85.0197 223.898 Q88.0984 219.292 93.9086 219.292 Z" fill="#000000" fill-rule="nonzero" fill-opacity="1" /><path clip-path="url(#clip320)" d="M124.07 222.995 Q120.459 222.995 118.631 226.56 Q116.825 230.102 116.825 237.231 Q116.825 244.338 118.631 247.903 Q120.459 251.444 124.07 251.444 Q127.705 251.444 129.51 247.903 Q131.339 244.338 131.339 237.231 Q131.339 230.102 129.51 226.56 Q127.705 222.995 124.07 222.995 M124.07 219.292 Q129.881 219.292 132.936 223.898 Q136.015 228.482 136.015 237.231 Q136.015 245.958 132.936 250.565 Q129.881 255.148 124.07 255.148 Q118.26 255.148 115.182 250.565 Q112.126 245.958 112.126 237.231 Q112.126 228.482 115.182 223.898 Q118.26 219.292 124.07 219.292 Z" fill="#000000" fill-rule="nonzero" fill-opacity="1" /><path clip-path="url(#clip322)" d="M233.734 1069.32 L391.988 1063.08 L550.242 1048.52 L708.496 1004.88 L866.75 929.938 L1025 882.091 L1183.26 886.252 L1341.51 925.83 L1499.77 961.143 L1658.02 1004.83 L1816.27 1025.63 L1974.53 1042.27 L2132.78 1054.76 L2291.04 1061 L2291.04 996.508 L2132.78 961.143 L1974.53 900.814 L1816.27 821.71 L1658.02 705.265 L1499.77 538.841 L1341.51 359.883 L1183.26 151.904 L1025 77.0133 L866.75 291.285 L708.496 651.177 L550.242 917.456 L391.988 1019.39 L233.734 1050.6  Z" fill="#009af9" fill-rule="evenodd" fill-opacity="0.5"/>
<polyline clip-path="url(#clip322)" style="stroke:#009af9; stroke-linecap:round; stroke-linejoin:round; stroke-width:4; stroke-opacity:1; fill:none" points="233.734,1063.08 391.988,1048.52 550.242,1002.75 708.496,892.493 866.75,707.346 1025,580.447 1183.26,599.17 1341.51,705.265 1499.77,809.281 1658.02,894.573 1816.27,952.822 1974.53,992.347 2132.78,1021.47 2291.04,1038.11 "/>
<circle clip-path="url(#clip322)" cx="233.734" cy="1063.08" r="14.4" fill="#000000" fill-rule="evenodd" fill-opacity="1" stroke="none"/>
<circle clip-path="url(#clip322)" cx="391.988" cy="1052.68" r="14.4" fill="#000000" fill-rule="evenodd" fill-opacity="1" stroke="none"/>
<circle clip-path="url(#clip322)" cx="550.242" cy="1015.23" r="14.4" fill="#000000" fill-rule="evenodd" fill-opacity="1" stroke="none"/>
<circle clip-path="url(#clip322)" cx="708.496" cy="911.216" r="14.4" fill="#000000" fill-rule="evenodd" fill-opacity="1" stroke="none"/>
<circle clip-path="url(#clip322)" cx="866.75" cy="601.25" r="14.4" fill="#000000" fill-rule="evenodd" fill-opacity="1" stroke="none"/>
<circle clip-path="url(#clip322)" cx="1025" cy="449.388" r="14.4" fill="#000000" fill-rule="evenodd" fill-opacity="1" stroke="none"/>
<circle clip-path="url(#clip322)" cx="1183.26" cy="532.6" r="14.4" fill="#000000" fill-rule="evenodd" fill-opacity="1" stroke="none"/>
<circle clip-path="url(#clip322)" cx="1341.51" cy="584.608" r="14.4" fill="#000000" fill-rule="evenodd" fill-opacity="1" stroke="none"/>
<circle clip-path="url(#clip322)" cx="1499.77" cy="676.141" r="14.4" fill="#000000" fill-rule="evenodd" fill-opacity="1" stroke="none"/>
<circle clip-path="url(#clip322)" cx="1658.02" cy="803.04" r="14.4" fill="#000000" fill-rule="evenodd" fill-opacity="1" stroke="none"/>
<circle clip-path="url(#clip322)" cx="1816.27" cy="927.858" r="14.4" fill="#000000" fill-rule="evenodd" fill-opacity="1" stroke="none"/>
<circle clip-path="url(#clip322)" cx="1974.53" cy="1008.99" r="14.4" fill="#000000" fill-rule="evenodd" fill-opacity="1" stroke="none"/>
<circle clip-path="url(#clip322)" cx="2132.78" cy="1040.19" r="14.4" fill="#000000" fill-rule="evenodd" fill-opacity="1" stroke="none"/>
<circle clip-path="url(#clip322)" cx="2291.04" cy="1061" r="14.4" fill="#000000" fill-rule="evenodd" fill-opacity="1" stroke="none"/>
</svg>
