<?xml version="1.0" encoding="utf-8"?>
<svg xmlns="http://www.w3.org/2000/svg" xmlns:xlink="http://www.w3.org/1999/xlink" width="450" height="200" viewBox="0 0 1800 800">
<defs>
  <clipPath id="clip160">
    <rect x="0" y="0" width="1800" height="800"/>
  </clipPath>
</defs>
<path clip-path="url(#clip160)" d="M0 800 L1800 800 L1800 0 L0 0  Z" fill="#ffffff" fill-rule="evenodd" fill-opacity="1"/>
<defs>
  <clipPath id="clip161">
    <rect x="360" y="0" width="1261" height="800"/>
  </clipPath>
</defs>
<path clip-path="url(#clip160)" d="M150.598 705.968 L1752.76 705.968 L1752.76 47.2441 L150.598 47.2441  Z" fill="#ffffff" fill-rule="evenodd" fill-opacity="1"/>
<defs>
  <clipPath id="clip162">
    <rect x="150" y="47" width="1603" height="660"/>
  </clipPath>
</defs>
<polyline clip-path="url(#clip162)" style="stroke:#000000; stroke-linecap:round; stroke-linejoin:round; stroke-width:2; stroke-opacity:0.1; fill:none" points="363.883,705.968 363.883,47.2441 "/>
<polyline clip-path="url(#clip162)" style="stroke:#000000; stroke-linecap:round; stroke-linejoin:round; stroke-width:2; stroke-opacity:0.1; fill:none" points="699.765,705.968 699.765,47.2441 "/>
<polyline clip-path="url(#clip162)" style="stroke:#000000; stroke-linecap:round; stroke-linejoin:round; stroke-width:2; stroke-opacity:0.1; fill:none" points="1035.65,705.968 1035.65,47.2441 "/>
<polyline clip-path="url(#clip162)" style="stroke:#000000; stroke-linecap:round; stroke-linejoin:round; stroke-width:2; stroke-opacity:0.1; fill:none" points="1371.53,705.968 1371.53,47.2441 "/>
<polyline clip-path="url(#clip162)" style="stroke:#000000; stroke-linecap:round; stroke-linejoin:round; stroke-width:2; stroke-opacity:0.1; fill:none" points="1707.41,705.968 1707.41,47.2441 "/>
<polyline clip-path="url(#clip160)" style="stroke:#000000; stroke-linecap:round; stroke-linejoin:round; stroke-width:4; stroke-opacity:1; fill:none" points="150.598,705.968 1752.76,705.968 "/>
<polyline clip-path="url(#clip160)" style="stroke:#000000; stroke-linecap:round; stroke-linejoin:round; stroke-width:4; stroke-opacity:1; fill:none" points="363.883,705.968 363.883,687.07 "/>
<polyline clip-path="url(#clip160)" style="stroke:#000000; stroke-linecap:round; stroke-linejoin:round; stroke-width:4; stroke-opacity:1; fill:none" points="699.765,705.968 699.765,687.07 "/>
<polyline clip-path="url(#clip160)" style="stroke:#000000; stroke-linecap:round; stroke-linejoin:round; stroke-width:4; stroke-opacity:1; fill:none" points="1035.65,705.968 1035.65,687.07 "/>
<polyline clip-path="url(#clip160)" style="stroke:#000000; stroke-linecap:round; stroke-linejoin:round; stroke-width:4; stroke-opacity:1; fill:none" points="1371.53,705.968 1371.53,687.07 "/>
<polyline clip-path="url(#clip160)" style="stroke:#000000; stroke-linecap:round; stroke-linejoin:round; stroke-width:4; stroke-opacity:1; fill:none" points="1707.41,705.968 1707.41,687.07 "/>
<path clip-path="url(#clip160)" d="M358.536 759.633 L374.856 759.633 L374.856 763.568 L352.911 763.568 L352.911 759.633 Q355.573 756.878 360.157 752.248 Q364.763 747.596 365.944 746.253 Q368.189 743.73 369.069 741.994 Q369.971 740.235 369.971 738.545 Q369.971 735.79 368.027 734.054 Q366.106 732.318 363.004 732.318 Q360.805 732.318 358.351 733.082 Q355.92 733.846 353.143 735.397 L353.143 730.675 Q355.967 729.54 358.42 728.962 Q360.874 728.383 362.911 728.383 Q368.281 728.383 371.476 731.068 Q374.67 733.753 374.67 738.244 Q374.67 740.374 373.86 742.295 Q373.073 744.193 370.967 746.786 Q370.388 747.457 367.286 750.674 Q364.184 753.869 358.536 759.633 Z" fill="#000000" fill-rule="nonzero" fill-opacity="1" /><path clip-path="url(#clip160)" d="M702.775 733.082 L690.969 751.531 L702.775 751.531 L702.775 733.082 M701.548 729.008 L707.427 729.008 L707.427 751.531 L712.358 751.531 L712.358 755.42 L707.427 755.42 L707.427 763.568 L702.775 763.568 L702.775 755.42 L687.173 755.42 L687.173 750.906 L701.548 729.008 Z" fill="#000000" fill-rule="nonzero" fill-opacity="1" /><path clip-path="url(#clip160)" d="M1036.05 744.424 Q1032.9 744.424 1031.05 746.577 Q1029.22 748.73 1029.22 752.48 Q1029.22 756.207 1031.05 758.383 Q1032.9 760.535 1036.05 760.535 Q1039.2 760.535 1041.03 758.383 Q1042.88 756.207 1042.88 752.48 Q1042.88 748.73 1041.03 746.577 Q1039.2 744.424 1036.05 744.424 M1045.34 729.772 L1045.34 734.031 Q1043.58 733.198 1041.77 732.758 Q1039.99 732.318 1038.23 732.318 Q1033.6 732.318 1031.15 735.443 Q1028.71 738.568 1028.37 744.887 Q1029.73 742.874 1031.79 741.809 Q1033.85 740.721 1036.33 740.721 Q1041.54 740.721 1044.55 743.892 Q1047.58 747.04 1047.58 752.48 Q1047.58 757.804 1044.43 761.022 Q1041.28 764.239 1036.05 764.239 Q1030.06 764.239 1026.89 759.656 Q1023.71 755.049 1023.71 746.323 Q1023.71 738.128 1027.6 733.267 Q1031.49 728.383 1038.04 728.383 Q1039.8 728.383 1041.59 728.73 Q1043.39 729.077 1045.34 729.772 Z" fill="#000000" fill-rule="nonzero" fill-opacity="1" /><path clip-path="url(#clip160)" d="M1371.53 747.156 Q1368.2 747.156 1366.28 748.938 Q1364.38 750.721 1364.38 753.846 Q1364.38 756.971 1366.28 758.753 Q1368.2 760.535 1371.53 760.535 Q1374.86 760.535 1376.78 758.753 Q1378.71 756.948 1378.71 753.846 Q1378.71 750.721 1376.78 748.938 Q1374.89 747.156 1371.53 747.156 M1366.85 745.165 Q1363.84 744.424 1362.15 742.364 Q1360.49 740.304 1360.49 737.341 Q1360.49 733.198 1363.43 730.79 Q1366.39 728.383 1371.53 728.383 Q1376.69 728.383 1379.63 730.79 Q1382.57 733.198 1382.57 737.341 Q1382.57 740.304 1380.88 742.364 Q1379.21 744.424 1376.23 745.165 Q1379.61 745.952 1381.48 748.244 Q1383.38 750.536 1383.38 753.846 Q1383.38 758.869 1380.3 761.554 Q1377.25 764.239 1371.53 764.239 Q1365.81 764.239 1362.73 761.554 Q1359.68 758.869 1359.68 753.846 Q1359.68 750.536 1361.58 748.244 Q1363.47 745.952 1366.85 745.165 M1365.14 737.781 Q1365.14 740.466 1366.81 741.971 Q1368.5 743.475 1371.53 743.475 Q1374.54 743.475 1376.23 741.971 Q1377.94 740.466 1377.94 737.781 Q1377.94 735.096 1376.23 733.591 Q1374.54 732.087 1371.53 732.087 Q1368.5 732.087 1366.81 733.591 Q1365.14 735.096 1365.14 737.781 Z" fill="#000000" fill-rule="nonzero" fill-opacity="1" /><path clip-path="url(#clip160)" d="M1682.1 759.633 L1689.74 759.633 L1689.74 733.267 L1681.43 734.934 L1681.43 730.675 L1689.69 729.008 L1694.37 729.008 L1694.37 759.633 L1702.01 759.633 L1702.01 763.568 L1682.1 763.568 L1682.1 759.633 Z" fill="#000000" fill-rule="nonzero" fill-opacity="1" /><path clip-path="url(#clip160)" d="M1721.45 732.087 Q1717.84 732.087 1716.01 735.651 Q1714.21 739.193 1714.21 746.323 Q1714.21 753.429 1716.01 756.994 Q1717.84 760.535 1721.45 760.535 Q1725.09 760.535 1726.89 756.994 Q1728.72 753.429 1728.72 746.323 Q1728.72 739.193 1726.89 735.651 Q1725.09 732.087 1721.45 732.087 M1721.45 728.383 Q1727.26 728.383 1730.32 732.989 Q1733.4 737.573 1733.4 746.323 Q1733.4 755.049 1730.32 759.656 Q1727.26 764.239 1721.45 764.239 Q1715.64 764.239 1712.56 759.656 Q1709.51 755.049 1709.51 746.323 Q1709.51 737.573 1712.56 732.989 Q1715.64 728.383 1721.45 728.383 Z" fill="#000000" fill-rule="nonzero" fill-opacity="1" /><polyline clip-path="url(#clip162)" style="stroke:#000000; stroke-linecap:round; stroke-linejoin:round; stroke-width:2; stroke-opacity:0.1; fill:none" points="150.598,630.751 1752.76,630.751 "/>
<polyline clip-path="url(#clip162)" style="stroke:#000000; stroke-linecap:round; stroke-linejoin:round; stroke-width:2; stroke-opacity:0.1; fill:none" points="150.598,547.321 1752.76,547.321 "/>
<polyline clip-path="url(#clip162)" style="stroke:#000000; stroke-linecap:round; stroke-linejoin:round; stroke-width:2; stroke-opacity:0.1; fill:none" points="150.598,463.891 1752.76,463.891 "/>
<polyline clip-path="url(#clip162)" style="stroke:#000000; stroke-linecap:round; stroke-linejoin:round; stroke-width:2; stroke-opacity:0.1; fill:none" points="150.598,380.46 1752.76,380.46 "/>
<polyline clip-path="url(#clip162)" style="stroke:#000000; stroke-linecap:round; stroke-linejoin:round; stroke-width:2; stroke-opacity:0.1; fill:none" points="150.598,297.03 1752.76,297.03 "/>
<polyline clip-path="url(#clip162)" style="stroke:#000000; stroke-linecap:round; stroke-linejoin:round; stroke-width:2; stroke-opacity:0.1; fill:none" points="150.598,213.6 1752.76,213.6 "/>
<polyline clip-path="url(#clip162)" style="stroke:#000000; stroke-linecap:round; stroke-linejoin:round; stroke-width:2; stroke-opacity:0.1; fill:none" points="150.598,130.169 1752.76,130.169 "/>
<polyline clip-path="url(#clip160)" style="stroke:#000000; stroke-linecap:round; stroke-linejoin:round; stroke-width:4; stroke-opacity:1; fill:none" points="150.598,705.968 150.598,47.2441 "/>
<polyline clip-path="url(#clip160)" style="stroke:#000000; stroke-linecap:round; stroke-linejoin:round; stroke-width:4; stroke-opacity:1; fill:none" points="150.598,630.751 169.496,630.751 "/>
<polyline clip-path="url(#clip160)" style="stroke:#000000; stroke-linecap:round; stroke-linejoin:round; stroke-width:4; stroke-opacity:1; fill:none" points="150.598,547.321 169.496,547.321 "/>
<polyline clip-path="url(#clip160)" style="stroke:#000000; stroke-linecap:round; stroke-linejoin:round; stroke-width:4; stroke-opacity:1; fill:none" points="150.598,463.891 169.496,463.891 "/>
<polyline clip-path="url(#clip160)" style="stroke:#000000; stroke-linecap:round; stroke-linejoin:round; stroke-width:4; stroke-opacity:1; fill:none" points="150.598,380.46 169.496,380.46 "/>
<polyline clip-path="url(#clip160)" style="stroke:#000000; stroke-linecap:round; stroke-linejoin:round; stroke-width:4; stroke-opacity:1; fill:none" points="150.598,297.03 169.496,297.03 "/>
<polyline clip-path="url(#clip160)" style="stroke:#000000; stroke-linecap:round; stroke-linejoin:round; stroke-width:4; stroke-opacity:1; fill:none" points="150.598,213.6 169.496,213.6 "/>
<polyline clip-path="url(#clip160)" style="stroke:#000000; stroke-linecap:round; stroke-linejoin:round; stroke-width:4; stroke-opacity:1; fill:none" points="150.598,130.169 169.496,130.169 "/>
<path clip-path="url(#clip160)" d="M67.6495 616.55 Q64.0384 616.55 62.2097 620.115 Q60.4041 623.656 60.4041 630.786 Q60.4041 637.892 62.2097 641.457 Q64.0384 644.999 67.6495 644.999 Q71.2837 644.999 73.0892 641.457 Q74.9179 637.892 74.9179 630.786 Q74.9179 623.656 73.0892 620.115 Q71.2837 616.55 67.6495 616.55 M67.6495 612.846 Q73.4596 612.846 76.5152 617.453 Q79.5938 622.036 79.5938 630.786 Q79.5938 639.513 76.5152 644.119 Q73.4596 648.703 67.6495 648.703 Q61.8393 648.703 58.7606 644.119 Q55.7051 639.513 55.7051 630.786 Q55.7051 622.036 58.7606 617.453 Q61.8393 612.846 67.6495 612.846 Z" fill="#000000" fill-rule="nonzero" fill-opacity="1" /><path clip-path="url(#clip160)" d="M87.8114 642.152 L92.6956 642.152 L92.6956 648.031 L87.8114 648.031 L87.8114 642.152 Z" fill="#000000" fill-rule="nonzero" fill-opacity="1" /><path clip-path="url(#clip160)" d="M103.691 644.096 L111.33 644.096 L111.33 617.73 L103.02 619.397 L103.02 615.138 L111.283 613.471 L115.959 613.471 L115.959 644.096 L123.598 644.096 L123.598 648.031 L103.691 648.031 L103.691 644.096 Z" fill="#000000" fill-rule="nonzero" fill-opacity="1" /><path clip-path="url(#clip160)" d="M68.0198 533.12 Q64.4087 533.12 62.58 536.684 Q60.7745 540.226 60.7745 547.356 Q60.7745 554.462 62.58 558.027 Q64.4087 561.569 68.0198 561.569 Q71.6541 561.569 73.4596 558.027 Q75.2883 554.462 75.2883 547.356 Q75.2883 540.226 73.4596 536.684 Q71.6541 533.12 68.0198 533.12 M68.0198 529.416 Q73.83 529.416 76.8855 534.022 Q79.9642 538.606 79.9642 547.356 Q79.9642 556.082 76.8855 560.689 Q73.83 565.272 68.0198 565.272 Q62.2097 565.272 59.131 560.689 Q56.0754 556.082 56.0754 547.356 Q56.0754 538.606 59.131 534.022 Q62.2097 529.416 68.0198 529.416 Z" fill="#000000" fill-rule="nonzero" fill-opacity="1" /><path clip-path="url(#clip160)" d="M88.1818 558.721 L93.066 558.721 L93.066 564.601 L88.1818 564.601 L88.1818 558.721 Z" fill="#000000" fill-rule="nonzero" fill-opacity="1" /><path clip-path="url(#clip160)" d="M107.279 560.666 L123.598 560.666 L123.598 564.601 L101.654 564.601 L101.654 560.666 Q104.316 557.911 108.899 553.282 Q113.506 548.629 114.686 547.286 Q116.932 544.763 117.811 543.027 Q118.714 541.268 118.714 539.578 Q118.714 536.823 116.77 535.087 Q114.848 533.351 111.746 533.351 Q109.547 533.351 107.094 534.115 Q104.663 534.879 101.885 536.43 L101.885 531.708 Q104.709 530.573 107.163 529.995 Q109.617 529.416 111.654 529.416 Q117.024 529.416 120.219 532.101 Q123.413 534.786 123.413 539.277 Q123.413 541.407 122.603 543.328 Q121.816 545.226 119.709 547.819 Q119.131 548.49 116.029 551.707 Q112.927 554.902 107.279 560.666 Z" fill="#000000" fill-rule="nonzero" fill-opacity="1" /><path clip-path="url(#clip160)" d="M67.0708 449.689 Q63.4597 449.689 61.631 453.254 Q59.8254 456.796 59.8254 463.925 Q59.8254 471.032 61.631 474.597 Q63.4597 478.138 67.0708 478.138 Q70.705 478.138 72.5105 474.597 Q74.3392 471.032 74.3392 463.925 Q74.3392 456.796 72.5105 453.254 Q70.705 449.689 67.0708 449.689 M67.0708 445.986 Q72.8809 445.986 75.9365 450.592 Q79.0151 455.175 79.0151 463.925 Q79.0151 472.652 75.9365 477.259 Q72.8809 481.842 67.0708 481.842 Q61.2606 481.842 58.1819 477.259 Q55.1264 472.652 55.1264 463.925 Q55.1264 455.175 58.1819 450.592 Q61.2606 445.986 67.0708 445.986 Z" fill="#000000" fill-rule="nonzero" fill-opacity="1" /><path clip-path="url(#clip160)" d="M87.2327 475.291 L92.1169 475.291 L92.1169 481.171 L87.2327 481.171 L87.2327 475.291 Z" fill="#000000" fill-rule="nonzero" fill-opacity="1" /><path clip-path="url(#clip160)" d="M116.469 462.536 Q119.825 463.254 121.7 465.523 Q123.598 467.791 123.598 471.124 Q123.598 476.24 120.08 479.041 Q116.561 481.842 110.08 481.842 Q107.904 481.842 105.589 481.402 Q103.297 480.985 100.844 480.129 L100.844 475.615 Q102.788 476.749 105.103 477.328 Q107.418 477.907 109.941 477.907 Q114.339 477.907 116.631 476.171 Q118.945 474.435 118.945 471.124 Q118.945 468.069 116.793 466.356 Q114.663 464.62 110.844 464.62 L106.816 464.62 L106.816 460.777 L111.029 460.777 Q114.478 460.777 116.307 459.411 Q118.135 458.023 118.135 455.43 Q118.135 452.768 116.237 451.356 Q114.362 449.921 110.844 449.921 Q108.922 449.921 106.723 450.337 Q104.524 450.754 101.885 451.634 L101.885 447.467 Q104.547 446.726 106.862 446.356 Q109.2 445.986 111.26 445.986 Q116.584 445.986 119.686 448.416 Q122.788 450.824 122.788 454.944 Q122.788 457.814 121.145 459.805 Q119.501 461.773 116.469 462.536 Z" fill="#000000" fill-rule="nonzero" fill-opacity="1" /><path clip-path="url(#clip160)" d="M65.9365 366.259 Q62.3254 366.259 60.4967 369.824 Q58.6912 373.365 58.6912 380.495 Q58.6912 387.601 60.4967 391.166 Q62.3254 394.708 65.9365 394.708 Q69.5707 394.708 71.3763 391.166 Q73.205 387.601 73.205 380.495 Q73.205 373.365 71.3763 369.824 Q69.5707 366.259 65.9365 366.259 M65.9365 362.555 Q71.7467 362.555 74.8022 367.162 Q77.8809 371.745 77.8809 380.495 Q77.8809 389.222 74.8022 393.828 Q71.7467 398.412 65.9365 398.412 Q60.1264 398.412 57.0477 393.828 Q53.9921 389.222 53.9921 380.495 Q53.9921 371.745 57.0477 367.162 Q60.1264 362.555 65.9365 362.555 Z" fill="#000000" fill-rule="nonzero" fill-opacity="1" /><path clip-path="url(#clip160)" d="M86.0984 391.861 L90.9827 391.861 L90.9827 397.74 L86.0984 397.74 L86.0984 391.861 Z" fill="#000000" fill-rule="nonzero" fill-opacity="1" /><path clip-path="url(#clip160)" d="M114.015 367.254 L102.209 385.703 L114.015 385.703 L114.015 367.254 M112.788 363.18 L118.668 363.18 L118.668 385.703 L123.598 385.703 L123.598 389.592 L118.668 389.592 L118.668 397.74 L114.015 397.74 L114.015 389.592 L98.4132 389.592 L98.4132 385.078 L112.788 363.18 Z" fill="#000000" fill-rule="nonzero" fill-opacity="1" /><path clip-path="url(#clip160)" d="M67.418 282.829 Q63.8069 282.829 61.9782 286.394 Q60.1726 289.935 60.1726 297.065 Q60.1726 304.171 61.9782 307.736 Q63.8069 311.278 67.418 311.278 Q71.0522 311.278 72.8578 307.736 Q74.6865 304.171 74.6865 297.065 Q74.6865 289.935 72.8578 286.394 Q71.0522 282.829 67.418 282.829 M67.418 279.125 Q73.2281 279.125 76.2837 283.731 Q79.3624 288.315 79.3624 297.065 Q79.3624 305.792 76.2837 310.398 Q73.2281 314.981 67.418 314.981 Q61.6078 314.981 58.5291 310.398 Q55.4736 305.792 55.4736 297.065 Q55.4736 288.315 58.5291 283.731 Q61.6078 279.125 67.418 279.125 Z" fill="#000000" fill-rule="nonzero" fill-opacity="1" /><path clip-path="url(#clip160)" d="M87.5799 308.43 L92.4641 308.43 L92.4641 314.31 L87.5799 314.31 L87.5799 308.43 Z" fill="#000000" fill-rule="nonzero" fill-opacity="1" /><path clip-path="url(#clip160)" d="M102.696 279.75 L121.052 279.75 L121.052 283.685 L106.978 283.685 L106.978 292.157 Q107.996 291.81 109.015 291.648 Q110.033 291.463 111.052 291.463 Q116.839 291.463 120.219 294.634 Q123.598 297.805 123.598 303.222 Q123.598 308.801 120.126 311.903 Q116.654 314.981 110.334 314.981 Q108.159 314.981 105.89 314.611 Q103.645 314.241 101.237 313.5 L101.237 308.801 Q103.321 309.935 105.543 310.491 Q107.765 311.046 110.242 311.046 Q114.246 311.046 116.584 308.94 Q118.922 306.833 118.922 303.222 Q118.922 299.611 116.584 297.505 Q114.246 295.398 110.242 295.398 Q108.367 295.398 106.492 295.815 Q104.64 296.231 102.696 297.111 L102.696 279.75 Z" fill="#000000" fill-rule="nonzero" fill-opacity="1" /><path clip-path="url(#clip160)" d="M66.2606 199.398 Q62.6495 199.398 60.8208 202.963 Q59.0152 206.505 59.0152 213.634 Q59.0152 220.741 60.8208 224.306 Q62.6495 227.847 66.2606 227.847 Q69.8948 227.847 71.7004 224.306 Q73.5291 220.741 73.5291 213.634 Q73.5291 206.505 71.7004 202.963 Q69.8948 199.398 66.2606 199.398 M66.2606 195.695 Q72.0707 195.695 75.1263 200.301 Q78.205 204.884 78.205 213.634 Q78.205 222.361 75.1263 226.968 Q72.0707 231.551 66.2606 231.551 Q60.4504 231.551 57.3717 226.968 Q54.3162 222.361 54.3162 213.634 Q54.3162 204.884 57.3717 200.301 Q60.4504 195.695 66.2606 195.695 Z" fill="#000000" fill-rule="nonzero" fill-opacity="1" /><path clip-path="url(#clip160)" d="M86.4225 225 L91.3067 225 L91.3067 230.88 L86.4225 230.88 L86.4225 225 Z" fill="#000000" fill-rule="nonzero" fill-opacity="1" /><path clip-path="url(#clip160)" d="M112.071 211.736 Q108.922 211.736 107.071 213.889 Q105.242 216.042 105.242 219.792 Q105.242 223.519 107.071 225.695 Q108.922 227.847 112.071 227.847 Q115.219 227.847 117.047 225.695 Q118.899 223.519 118.899 219.792 Q118.899 216.042 117.047 213.889 Q115.219 211.736 112.071 211.736 M121.353 197.084 L121.353 201.343 Q119.594 200.51 117.788 200.07 Q116.006 199.63 114.246 199.63 Q109.617 199.63 107.163 202.755 Q104.733 205.88 104.385 212.199 Q105.751 210.185 107.811 209.121 Q109.871 208.033 112.348 208.033 Q117.557 208.033 120.566 211.204 Q123.598 214.352 123.598 219.792 Q123.598 225.116 120.45 228.333 Q117.302 231.551 112.071 231.551 Q106.075 231.551 102.904 226.968 Q99.7326 222.361 99.7326 213.634 Q99.7326 205.44 103.621 200.579 Q107.51 195.695 114.061 195.695 Q115.82 195.695 117.603 196.042 Q119.408 196.389 121.353 197.084 Z" fill="#000000" fill-rule="nonzero" fill-opacity="1" /><path clip-path="url(#clip160)" d="M67.3254 115.968 Q63.7143 115.968 61.8856 119.533 Q60.0801 123.075 60.0801 130.204 Q60.0801 137.311 61.8856 140.875 Q63.7143 144.417 67.3254 144.417 Q70.9596 144.417 72.7652 140.875 Q74.5939 137.311 74.5939 130.204 Q74.5939 123.075 72.7652 119.533 Q70.9596 115.968 67.3254 115.968 M67.3254 112.264 Q73.1355 112.264 76.1911 116.871 Q79.2698 121.454 79.2698 130.204 Q79.2698 138.931 76.1911 143.537 Q73.1355 148.121 67.3254 148.121 Q61.5152 148.121 58.4365 143.537 Q55.381 138.931 55.381 130.204 Q55.381 121.454 58.4365 116.871 Q61.5152 112.264 67.3254 112.264 Z" fill="#000000" fill-rule="nonzero" fill-opacity="1" /><path clip-path="url(#clip160)" d="M87.4873 141.57 L92.3715 141.57 L92.3715 147.449 L87.4873 147.449 L87.4873 141.57 Z" fill="#000000" fill-rule="nonzero" fill-opacity="1" /><path clip-path="url(#clip160)" d="M101.376 112.889 L123.598 112.889 L123.598 114.88 L111.052 147.449 L106.168 147.449 L117.973 116.825 L101.376 116.825 L101.376 112.889 Z" fill="#000000" fill-rule="nonzero" fill-opacity="1" /><polyline clip-path="url(#clip162)" style="stroke:#009af9; stroke-linecap:round; stroke-linejoin:round; stroke-width:4; stroke-opacity:1; fill:none" points="195.942,98.8793 363.883,391.846 531.824,307.041 699.765,122.143 867.707,65.8872 1035.65,464.574 1203.59,290.663 1371.53,687.325 1539.47,492.003 1707.41,432.961 "/>
<path clip-path="url(#clip160)" d="M1486.7 172.882 L1699.35 172.882 L1699.35 69.2016 L1486.7 69.2016  Z" fill="#ffffff" fill-rule="evenodd" fill-opacity="1"/>
<polyline clip-path="url(#clip160)" style="stroke:#000000; stroke-linecap:round; stroke-linejoin:round; stroke-width:4; stroke-opacity:1; fill:none" points="1486.7,172.882 1699.35,172.882 1699.35,69.2016 1486.7,69.2016 1486.7,172.882 "/>
<polyline clip-path="url(#clip160)" style="stroke:#009af9; stroke-linecap:round; stroke-linejoin:round; stroke-width:4; stroke-opacity:1; fill:none" points="1504.51,121.042 1611.32,121.042 "/>
<path clip-path="url(#clip160)" d="M1642.96 140.729 Q1641.16 145.359 1639.44 146.771 Q1637.73 148.183 1634.86 148.183 L1631.46 148.183 L1631.46 144.618 L1633.96 144.618 Q1635.72 144.618 1636.69 143.784 Q1637.66 142.951 1638.84 139.849 L1639.6 137.905 L1629.12 112.396 L1633.63 112.396 L1641.73 132.673 L1649.84 112.396 L1654.35 112.396 L1642.96 140.729 Z" fill="#000000" fill-rule="nonzero" fill-opacity="1" /><path clip-path="url(#clip160)" d="M1661.64 134.386 L1669.28 134.386 L1669.28 108.021 L1660.97 109.687 L1660.97 105.428 L1669.23 103.762 L1673.91 103.762 L1673.91 134.386 L1681.55 134.386 L1681.55 138.322 L1661.64 138.322 L1661.64 134.386 Z" fill="#000000" fill-rule="nonzero" fill-opacity="1" /></svg>
