<?xml version="1.0" encoding="utf-8"?>
<svg xmlns="http://www.w3.org/2000/svg" xmlns:xlink="http://www.w3.org/1999/xlink" width="500" height="200" viewBox="0 0 2000 800">
<defs>
  <clipPath id="clip690">
    <rect x="0" y="0" width="2000" height="800"/>
  </clipPath>
</defs>
<path clip-path="url(#clip690)" d="M0 800 L2000 800 L2000 0 L0 0  Z" fill="#ffffff" fill-rule="evenodd" fill-opacity="1"/>
<defs>
  <clipPath id="clip691">
    <rect x="400" y="0" width="1401" height="800"/>
  </clipPath>
</defs>
<path clip-path="url(#clip690)" d="M168.015 708.272 L1952.76 708.272 L1952.76 47.2441 L168.015 47.2441  Z" fill="#ffffff" fill-rule="evenodd" fill-opacity="1"/>
<defs>
  <clipPath id="clip692">
    <rect x="168" y="47" width="1786" height="662"/>
  </clipPath>
</defs>
<polyline clip-path="url(#clip692)" style="stroke:#000000; stroke-linecap:round; stroke-linejoin:round; stroke-width:2; stroke-opacity:0.1; fill:none" points="412.802,708.272 412.802,47.2441 "/>
<polyline clip-path="url(#clip692)" style="stroke:#000000; stroke-linecap:round; stroke-linejoin:round; stroke-width:2; stroke-opacity:0.1; fill:none" points="736.593,708.272 736.593,47.2441 "/>
<polyline clip-path="url(#clip692)" style="stroke:#000000; stroke-linecap:round; stroke-linejoin:round; stroke-width:2; stroke-opacity:0.1; fill:none" points="1060.39,708.272 1060.39,47.2441 "/>
<polyline clip-path="url(#clip692)" style="stroke:#000000; stroke-linecap:round; stroke-linejoin:round; stroke-width:2; stroke-opacity:0.1; fill:none" points="1384.18,708.272 1384.18,47.2441 "/>
<polyline clip-path="url(#clip692)" style="stroke:#000000; stroke-linecap:round; stroke-linejoin:round; stroke-width:2; stroke-opacity:0.1; fill:none" points="1707.97,708.272 1707.97,47.2441 "/>
<polyline clip-path="url(#clip690)" style="stroke:#000000; stroke-linecap:round; stroke-linejoin:round; stroke-width:4; stroke-opacity:1; fill:none" points="168.015,708.272 1952.76,708.272 "/>
<polyline clip-path="url(#clip690)" style="stroke:#000000; stroke-linecap:round; stroke-linejoin:round; stroke-width:4; stroke-opacity:1; fill:none" points="412.802,708.272 412.802,689.374 "/>
<polyline clip-path="url(#clip690)" style="stroke:#000000; stroke-linecap:round; stroke-linejoin:round; stroke-width:4; stroke-opacity:1; fill:none" points="736.593,708.272 736.593,689.374 "/>
<polyline clip-path="url(#clip690)" style="stroke:#000000; stroke-linecap:round; stroke-linejoin:round; stroke-width:4; stroke-opacity:1; fill:none" points="1060.39,708.272 1060.39,689.374 "/>
<polyline clip-path="url(#clip690)" style="stroke:#000000; stroke-linecap:round; stroke-linejoin:round; stroke-width:4; stroke-opacity:1; fill:none" points="1384.18,708.272 1384.18,689.374 "/>
<polyline clip-path="url(#clip690)" style="stroke:#000000; stroke-linecap:round; stroke-linejoin:round; stroke-width:4; stroke-opacity:1; fill:none" points="1707.97,708.272 1707.97,689.374 "/>
<path clip-path="url(#clip690)" d="M384.538 763.537 L400.857 763.537 L400.857 767.472 L378.913 767.472 L378.913 763.537 Q381.575 760.782 386.158 756.152 Q390.765 751.5 391.945 750.157 Q394.191 747.634 395.07 745.898 Q395.973 744.139 395.973 742.449 Q395.973 739.694 394.028 737.958 Q392.107 736.222 389.005 736.222 Q386.806 736.222 384.353 736.986 Q381.922 737.75 379.144 739.301 L379.144 734.579 Q381.968 733.444 384.422 732.866 Q386.876 732.287 388.913 732.287 Q394.283 732.287 397.478 734.972 Q400.672 737.657 400.672 742.148 Q400.672 744.278 399.862 746.199 Q399.075 748.097 396.968 750.69 Q396.39 751.361 393.288 754.578 Q390.186 757.773 384.538 763.537 Z" fill="#000000" fill-rule="nonzero" fill-opacity="1" /><path clip-path="url(#clip690)" d="M410.672 761.592 L415.556 761.592 L415.556 767.472 L410.672 767.472 L410.672 761.592 Z" fill="#000000" fill-rule="nonzero" fill-opacity="1" /><path clip-path="url(#clip690)" d="M425.788 732.912 L444.144 732.912 L444.144 736.847 L430.07 736.847 L430.07 745.319 Q431.088 744.972 432.107 744.81 Q433.125 744.625 434.144 744.625 Q439.931 744.625 443.311 747.796 Q446.69 750.967 446.69 756.384 Q446.69 761.963 443.218 765.064 Q439.746 768.143 433.426 768.143 Q431.25 768.143 428.982 767.773 Q426.737 767.402 424.329 766.662 L424.329 761.963 Q426.413 763.097 428.635 763.652 Q430.857 764.208 433.334 764.208 Q437.338 764.208 439.676 762.102 Q442.014 759.995 442.014 756.384 Q442.014 752.773 439.676 750.666 Q437.338 748.56 433.334 748.56 Q431.459 748.56 429.584 748.977 Q427.732 749.393 425.788 750.273 L425.788 732.912 Z" fill="#000000" fill-rule="nonzero" fill-opacity="1" /><path clip-path="url(#clip690)" d="M703.758 732.912 L722.114 732.912 L722.114 736.847 L708.04 736.847 L708.04 745.319 Q709.059 744.972 710.077 744.81 Q711.096 744.625 712.114 744.625 Q717.901 744.625 721.281 747.796 Q724.661 750.967 724.661 756.384 Q724.661 761.963 721.188 765.064 Q717.716 768.143 711.397 768.143 Q709.221 768.143 706.952 767.773 Q704.707 767.402 702.3 766.662 L702.3 761.963 Q704.383 763.097 706.605 763.652 Q708.827 764.208 711.304 764.208 Q715.309 764.208 717.647 762.102 Q719.985 759.995 719.985 756.384 Q719.985 752.773 717.647 750.666 Q715.309 748.56 711.304 748.56 Q709.429 748.56 707.554 748.977 Q705.702 749.393 703.758 750.273 L703.758 732.912 Z" fill="#000000" fill-rule="nonzero" fill-opacity="1" /><path clip-path="url(#clip690)" d="M733.874 761.592 L738.758 761.592 L738.758 767.472 L733.874 767.472 L733.874 761.592 Z" fill="#000000" fill-rule="nonzero" fill-opacity="1" /><path clip-path="url(#clip690)" d="M758.943 735.991 Q755.332 735.991 753.503 739.555 Q751.698 743.097 751.698 750.227 Q751.698 757.333 753.503 760.898 Q755.332 764.439 758.943 764.439 Q762.577 764.439 764.383 760.898 Q766.211 757.333 766.211 750.227 Q766.211 743.097 764.383 739.555 Q762.577 735.991 758.943 735.991 M758.943 732.287 Q764.753 732.287 767.809 736.893 Q770.887 741.477 770.887 750.227 Q770.887 758.953 767.809 763.56 Q764.753 768.143 758.943 768.143 Q753.133 768.143 750.054 763.56 Q746.998 758.953 746.998 750.227 Q746.998 741.477 750.054 736.893 Q753.133 732.287 758.943 732.287 Z" fill="#000000" fill-rule="nonzero" fill-opacity="1" /><path clip-path="url(#clip690)" d="M1026.7 732.912 L1048.93 732.912 L1048.93 734.903 L1036.38 767.472 L1031.5 767.472 L1043.3 736.847 L1026.7 736.847 L1026.7 732.912 Z" fill="#000000" fill-rule="nonzero" fill-opacity="1" /><path clip-path="url(#clip690)" d="M1058.05 761.592 L1062.93 761.592 L1062.93 767.472 L1058.05 767.472 L1058.05 761.592 Z" fill="#000000" fill-rule="nonzero" fill-opacity="1" /><path clip-path="url(#clip690)" d="M1073.16 732.912 L1091.52 732.912 L1091.52 736.847 L1077.45 736.847 L1077.45 745.319 Q1078.46 744.972 1079.48 744.81 Q1080.5 744.625 1081.52 744.625 Q1087.31 744.625 1090.69 747.796 Q1094.07 750.967 1094.07 756.384 Q1094.07 761.963 1090.59 765.064 Q1087.12 768.143 1080.8 768.143 Q1078.63 768.143 1076.36 767.773 Q1074.11 767.402 1071.7 766.662 L1071.7 761.963 Q1073.79 763.097 1076.01 763.652 Q1078.23 764.208 1080.71 764.208 Q1084.71 764.208 1087.05 762.102 Q1089.39 759.995 1089.39 756.384 Q1089.39 752.773 1087.05 750.666 Q1084.71 748.56 1080.71 748.56 Q1078.83 748.56 1076.96 748.977 Q1075.11 749.393 1073.16 750.273 L1073.16 732.912 Z" fill="#000000" fill-rule="nonzero" fill-opacity="1" /><path clip-path="url(#clip690)" d="M1336.25 763.537 L1343.89 763.537 L1343.89 737.171 L1335.58 738.838 L1335.58 734.579 L1343.84 732.912 L1348.52 732.912 L1348.52 763.537 L1356.16 763.537 L1356.16 767.472 L1336.25 767.472 L1336.25 763.537 Z" fill="#000000" fill-rule="nonzero" fill-opacity="1" /><path clip-path="url(#clip690)" d="M1375.6 735.991 Q1371.99 735.991 1370.16 739.555 Q1368.36 743.097 1368.36 750.227 Q1368.36 757.333 1370.16 760.898 Q1371.99 764.439 1375.6 764.439 Q1379.24 764.439 1381.04 760.898 Q1382.87 757.333 1382.87 750.227 Q1382.87 743.097 1381.04 739.555 Q1379.24 735.991 1375.6 735.991 M1375.6 732.287 Q1381.41 732.287 1384.47 736.893 Q1387.55 741.477 1387.55 750.227 Q1387.55 758.953 1384.47 763.56 Q1381.41 768.143 1375.6 768.143 Q1369.79 768.143 1366.71 763.56 Q1363.66 758.953 1363.66 750.227 Q1363.66 741.477 1366.71 736.893 Q1369.79 732.287 1375.6 732.287 Z" fill="#000000" fill-rule="nonzero" fill-opacity="1" /><path clip-path="url(#clip690)" d="M1395.76 761.592 L1400.65 761.592 L1400.65 767.472 L1395.76 767.472 L1395.76 761.592 Z" fill="#000000" fill-rule="nonzero" fill-opacity="1" /><path clip-path="url(#clip690)" d="M1420.83 735.991 Q1417.22 735.991 1415.39 739.555 Q1413.59 743.097 1413.59 750.227 Q1413.59 757.333 1415.39 760.898 Q1417.22 764.439 1420.83 764.439 Q1424.47 764.439 1426.27 760.898 Q1428.1 757.333 1428.1 750.227 Q1428.1 743.097 1426.27 739.555 Q1424.47 735.991 1420.83 735.991 M1420.83 732.287 Q1426.64 732.287 1429.7 736.893 Q1432.78 741.477 1432.78 750.227 Q1432.78 758.953 1429.7 763.56 Q1426.64 768.143 1420.83 768.143 Q1415.02 768.143 1411.94 763.56 Q1408.89 758.953 1408.89 750.227 Q1408.89 741.477 1411.94 736.893 Q1415.02 732.287 1420.83 732.287 Z" fill="#000000" fill-rule="nonzero" fill-opacity="1" /><path clip-path="url(#clip690)" d="M1660.54 763.537 L1668.18 763.537 L1668.18 737.171 L1659.87 738.838 L1659.87 734.579 L1668.13 732.912 L1672.81 732.912 L1672.81 763.537 L1680.45 763.537 L1680.45 767.472 L1660.54 767.472 L1660.54 763.537 Z" fill="#000000" fill-rule="nonzero" fill-opacity="1" /><path clip-path="url(#clip690)" d="M1693.92 763.537 L1710.24 763.537 L1710.24 767.472 L1688.29 767.472 L1688.29 763.537 Q1690.96 760.782 1695.54 756.152 Q1700.15 751.5 1701.33 750.157 Q1703.57 747.634 1704.45 745.898 Q1705.35 744.139 1705.35 742.449 Q1705.35 739.694 1703.41 737.958 Q1701.49 736.222 1698.39 736.222 Q1696.19 736.222 1693.73 736.986 Q1691.3 737.75 1688.52 739.301 L1688.52 734.579 Q1691.35 733.444 1693.8 732.866 Q1696.26 732.287 1698.29 732.287 Q1703.66 732.287 1706.86 734.972 Q1710.05 737.657 1710.05 742.148 Q1710.05 744.278 1709.24 746.199 Q1708.46 748.097 1706.35 750.69 Q1705.77 751.361 1702.67 754.578 Q1699.57 757.773 1693.92 763.537 Z" fill="#000000" fill-rule="nonzero" fill-opacity="1" /><path clip-path="url(#clip690)" d="M1720.05 761.592 L1724.94 761.592 L1724.94 767.472 L1720.05 767.472 L1720.05 761.592 Z" fill="#000000" fill-rule="nonzero" fill-opacity="1" /><path clip-path="url(#clip690)" d="M1735.17 732.912 L1753.52 732.912 L1753.52 736.847 L1739.45 736.847 L1739.45 745.319 Q1740.47 744.972 1741.49 744.81 Q1742.51 744.625 1743.52 744.625 Q1749.31 744.625 1752.69 747.796 Q1756.07 750.967 1756.07 756.384 Q1756.07 761.963 1752.6 765.064 Q1749.13 768.143 1742.81 768.143 Q1740.63 768.143 1738.36 767.773 Q1736.12 767.402 1733.71 766.662 L1733.71 761.963 Q1735.79 763.097 1738.02 763.652 Q1740.24 764.208 1742.71 764.208 Q1746.72 764.208 1749.06 762.102 Q1751.39 759.995 1751.39 756.384 Q1751.39 752.773 1749.06 750.666 Q1746.72 748.56 1742.71 748.56 Q1740.84 748.56 1738.96 748.977 Q1737.11 749.393 1735.17 750.273 L1735.17 732.912 Z" fill="#000000" fill-rule="nonzero" fill-opacity="1" /><polyline clip-path="url(#clip692)" style="stroke:#000000; stroke-linecap:round; stroke-linejoin:round; stroke-width:2; stroke-opacity:0.1; fill:none" points="168.015,689.564 1952.76,689.564 "/>
<polyline clip-path="url(#clip692)" style="stroke:#000000; stroke-linecap:round; stroke-linejoin:round; stroke-width:2; stroke-opacity:0.1; fill:none" points="168.015,526.101 1952.76,526.101 "/>
<polyline clip-path="url(#clip692)" style="stroke:#000000; stroke-linecap:round; stroke-linejoin:round; stroke-width:2; stroke-opacity:0.1; fill:none" points="168.015,362.638 1952.76,362.638 "/>
<polyline clip-path="url(#clip692)" style="stroke:#000000; stroke-linecap:round; stroke-linejoin:round; stroke-width:2; stroke-opacity:0.1; fill:none" points="168.015,199.175 1952.76,199.175 "/>
<polyline clip-path="url(#clip690)" style="stroke:#000000; stroke-linecap:round; stroke-linejoin:round; stroke-width:4; stroke-opacity:1; fill:none" points="168.015,708.272 168.015,47.2441 "/>
<polyline clip-path="url(#clip690)" style="stroke:#000000; stroke-linecap:round; stroke-linejoin:round; stroke-width:4; stroke-opacity:1; fill:none" points="168.015,689.564 186.912,689.564 "/>
<polyline clip-path="url(#clip690)" style="stroke:#000000; stroke-linecap:round; stroke-linejoin:round; stroke-width:4; stroke-opacity:1; fill:none" points="168.015,526.101 186.912,526.101 "/>
<polyline clip-path="url(#clip690)" style="stroke:#000000; stroke-linecap:round; stroke-linejoin:round; stroke-width:4; stroke-opacity:1; fill:none" points="168.015,362.638 186.912,362.638 "/>
<polyline clip-path="url(#clip690)" style="stroke:#000000; stroke-linecap:round; stroke-linejoin:round; stroke-width:4; stroke-opacity:1; fill:none" points="168.015,199.175 186.912,199.175 "/>
<path clip-path="url(#clip690)" d="M126.07 675.362 Q122.459 675.362 120.631 678.927 Q118.825 682.469 118.825 689.598 Q118.825 696.705 120.631 700.27 Q122.459 703.811 126.07 703.811 Q129.705 703.811 131.51 700.27 Q133.339 696.705 133.339 689.598 Q133.339 682.469 131.51 678.927 Q129.705 675.362 126.07 675.362 M126.07 671.659 Q131.881 671.659 134.936 676.265 Q138.015 680.848 138.015 689.598 Q138.015 698.325 134.936 702.932 Q131.881 707.515 126.07 707.515 Q120.26 707.515 117.182 702.932 Q114.126 698.325 114.126 689.598 Q114.126 680.848 117.182 676.265 Q120.26 671.659 126.07 671.659 Z" fill="#000000" fill-rule="nonzero" fill-opacity="1" /><path clip-path="url(#clip690)" d="M59.7745 539.445 L76.0939 539.445 L76.0939 543.381 L54.1495 543.381 L54.1495 539.445 Q56.8115 536.691 61.3949 532.061 Q66.0013 527.408 67.1819 526.066 Q69.4272 523.543 70.3068 521.807 Q71.2096 520.047 71.2096 518.358 Q71.2096 515.603 69.2652 513.867 Q67.3439 512.131 64.2421 512.131 Q62.043 512.131 59.5893 512.895 Q57.1588 513.659 54.381 515.209 L54.381 510.487 Q57.2051 509.353 59.6588 508.774 Q62.1124 508.196 64.1495 508.196 Q69.5198 508.196 72.7142 510.881 Q75.9087 513.566 75.9087 518.057 Q75.9087 520.186 75.0985 522.108 Q74.3115 524.006 72.205 526.598 Q71.6263 527.27 68.5245 530.487 Q65.4226 533.682 59.7745 539.445 Z" fill="#000000" fill-rule="nonzero" fill-opacity="1" /><path clip-path="url(#clip690)" d="M95.9086 511.899 Q92.2975 511.899 90.4688 515.464 Q88.6632 519.006 88.6632 526.135 Q88.6632 533.242 90.4688 536.807 Q92.2975 540.348 95.9086 540.348 Q99.5428 540.348 101.348 536.807 Q103.177 533.242 103.177 526.135 Q103.177 519.006 101.348 515.464 Q99.5428 511.899 95.9086 511.899 M95.9086 508.196 Q101.719 508.196 104.774 512.802 Q107.853 517.385 107.853 526.135 Q107.853 534.862 104.774 539.469 Q101.719 544.052 95.9086 544.052 Q90.0984 544.052 87.0197 539.469 Q83.9642 534.862 83.9642 526.135 Q83.9642 517.385 87.0197 512.802 Q90.0984 508.196 95.9086 508.196 Z" fill="#000000" fill-rule="nonzero" fill-opacity="1" /><path clip-path="url(#clip690)" d="M126.07 511.899 Q122.459 511.899 120.631 515.464 Q118.825 519.006 118.825 526.135 Q118.825 533.242 120.631 536.807 Q122.459 540.348 126.07 540.348 Q129.705 540.348 131.51 536.807 Q133.339 533.242 133.339 526.135 Q133.339 519.006 131.51 515.464 Q129.705 511.899 126.07 511.899 M126.07 508.196 Q131.881 508.196 134.936 512.802 Q138.015 517.385 138.015 526.135 Q138.015 534.862 134.936 539.469 Q131.881 544.052 126.07 544.052 Q120.26 544.052 117.182 539.469 Q114.126 534.862 114.126 526.135 Q114.126 517.385 117.182 512.802 Q120.26 508.196 126.07 508.196 Z" fill="#000000" fill-rule="nonzero" fill-opacity="1" /><path clip-path="url(#clip690)" d="M68.5939 349.432 L56.7884 367.881 L68.5939 367.881 L68.5939 349.432 M67.367 345.358 L73.2466 345.358 L73.2466 367.881 L78.1772 367.881 L78.1772 371.77 L73.2466 371.77 L73.2466 379.918 L68.5939 379.918 L68.5939 371.77 L52.9921 371.77 L52.9921 367.256 L67.367 345.358 Z" fill="#000000" fill-rule="nonzero" fill-opacity="1" /><path clip-path="url(#clip690)" d="M95.9086 348.436 Q92.2975 348.436 90.4688 352.001 Q88.6632 355.543 88.6632 362.672 Q88.6632 369.779 90.4688 373.344 Q92.2975 376.885 95.9086 376.885 Q99.5428 376.885 101.348 373.344 Q103.177 369.779 103.177 362.672 Q103.177 355.543 101.348 352.001 Q99.5428 348.436 95.9086 348.436 M95.9086 344.733 Q101.719 344.733 104.774 349.339 Q107.853 353.922 107.853 362.672 Q107.853 371.399 104.774 376.006 Q101.719 380.589 95.9086 380.589 Q90.0984 380.589 87.0197 376.006 Q83.9642 371.399 83.9642 362.672 Q83.9642 353.922 87.0197 349.339 Q90.0984 344.733 95.9086 344.733 Z" fill="#000000" fill-rule="nonzero" fill-opacity="1" /><path clip-path="url(#clip690)" d="M126.07 348.436 Q122.459 348.436 120.631 352.001 Q118.825 355.543 118.825 362.672 Q118.825 369.779 120.631 373.344 Q122.459 376.885 126.07 376.885 Q129.705 376.885 131.51 373.344 Q133.339 369.779 133.339 362.672 Q133.339 355.543 131.51 352.001 Q129.705 348.436 126.07 348.436 M126.07 344.733 Q131.881 344.733 134.936 349.339 Q138.015 353.922 138.015 362.672 Q138.015 371.399 134.936 376.006 Q131.881 380.589 126.07 380.589 Q120.26 380.589 117.182 376.006 Q114.126 371.399 114.126 362.672 Q114.126 353.922 117.182 349.339 Q120.26 344.733 126.07 344.733 Z" fill="#000000" fill-rule="nonzero" fill-opacity="1" /><path clip-path="url(#clip690)" d="M66.3254 197.311 Q63.1773 197.311 61.3254 199.464 Q59.4967 201.617 59.4967 205.367 Q59.4967 209.094 61.3254 211.27 Q63.1773 213.422 66.3254 213.422 Q69.4735 213.422 71.3022 211.27 Q73.1541 209.094 73.1541 205.367 Q73.1541 201.617 71.3022 199.464 Q69.4735 197.311 66.3254 197.311 M75.6077 182.659 L75.6077 186.918 Q73.8485 186.085 72.0429 185.645 Q70.2606 185.205 68.5013 185.205 Q63.8717 185.205 61.418 188.33 Q58.9875 191.455 58.6402 197.774 Q60.006 195.76 62.0662 194.696 Q64.1263 193.608 66.6032 193.608 Q71.8115 193.608 74.8207 196.779 Q77.8531 199.927 77.8531 205.367 Q77.8531 210.691 74.705 213.908 Q71.5568 217.126 66.3254 217.126 Q60.33 217.126 57.1588 212.543 Q53.9875 207.936 53.9875 199.209 Q53.9875 191.015 57.8764 186.154 Q61.7652 181.27 68.3161 181.27 Q70.0754 181.27 71.8578 181.617 Q73.6633 181.964 75.6077 182.659 Z" fill="#000000" fill-rule="nonzero" fill-opacity="1" /><path clip-path="url(#clip690)" d="M95.9086 184.973 Q92.2975 184.973 90.4688 188.538 Q88.6632 192.08 88.6632 199.209 Q88.6632 206.316 90.4688 209.881 Q92.2975 213.422 95.9086 213.422 Q99.5428 213.422 101.348 209.881 Q103.177 206.316 103.177 199.209 Q103.177 192.08 101.348 188.538 Q99.5428 184.973 95.9086 184.973 M95.9086 181.27 Q101.719 181.27 104.774 185.876 Q107.853 190.459 107.853 199.209 Q107.853 207.936 104.774 212.543 Q101.719 217.126 95.9086 217.126 Q90.0984 217.126 87.0197 212.543 Q83.9642 207.936 83.9642 199.209 Q83.9642 190.459 87.0197 185.876 Q90.0984 181.27 95.9086 181.27 Z" fill="#000000" fill-rule="nonzero" fill-opacity="1" /><path clip-path="url(#clip690)" d="M126.07 184.973 Q122.459 184.973 120.631 188.538 Q118.825 192.08 118.825 199.209 Q118.825 206.316 120.631 209.881 Q122.459 213.422 126.07 213.422 Q129.705 213.422 131.51 209.881 Q133.339 206.316 133.339 199.209 Q133.339 192.08 131.51 188.538 Q129.705 184.973 126.07 184.973 M126.07 181.27 Q131.881 181.27 134.936 185.876 Q138.015 190.459 138.015 199.209 Q138.015 207.936 134.936 212.543 Q131.881 217.126 126.07 217.126 Q120.26 217.126 117.182 212.543 Q114.126 207.936 114.126 199.209 Q114.126 190.459 117.182 185.876 Q120.26 181.27 126.07 181.27 Z" fill="#000000" fill-rule="nonzero" fill-opacity="1" /><polyline clip-path="url(#clip692)" style="stroke:#ff0000; stroke-linecap:round; stroke-linejoin:round; stroke-width:4; stroke-opacity:0.1; fill:none" points="218.526,689.275 348.043,689.461 477.56,689.527 607.077,689.551 736.593,689.559 866.11,689.562 995.627,689.563 1125.14,689.563 1254.66,689.563 1384.18,689.564 1513.69,689.564 1643.21,689.564 1772.73,689.564 1902.24,689.564 "/>
<polyline clip-path="url(#clip692)" style="stroke:#ff0000; stroke-linecap:round; stroke-linejoin:round; stroke-width:4; stroke-opacity:0.1; fill:none" points="218.526,686.552 348.043,678.626 477.56,651.82 607.077,578.388 736.593,460.211 866.11,389.161 995.627,401.522 1125.14,450.582 1254.66,502.956 1384.18,547.722 1513.69,583.16 1643.21,610.309 1772.73,630.775 1902.24,646.066 "/>
<polyline clip-path="url(#clip692)" style="stroke:#ff0000; stroke-linecap:round; stroke-linejoin:round; stroke-width:4; stroke-opacity:0.1; fill:none" points="218.526,682.897 348.043,640.559 477.56,484.528 607.077,406.56 736.593,478.556 866.11,556.752 995.627,609.964 1125.14,642.708 1254.66,662.2 1384.18,673.645 1513.69,680.321 1643.21,684.204 1772.73,686.458 1902.24,687.764 "/>
<polyline clip-path="url(#clip692)" style="stroke:#ff0000; stroke-linecap:round; stroke-linejoin:round; stroke-width:4; stroke-opacity:0.1; fill:none" points="218.526,662.703 348.043,329.061 477.56,163.38 607.077,215.163 736.593,272.021 866.11,322.557 995.627,367.011 1125.14,406.083 1254.66,440.423 1384.18,470.603 1513.69,497.127 1643.21,520.438 1772.73,540.925 1902.24,558.931 "/>
<polyline clip-path="url(#clip692)" style="stroke:#ff0000; stroke-linecap:round; stroke-linejoin:round; stroke-width:4; stroke-opacity:0.1; fill:none" points="218.526,688.641 348.043,688.522 477.56,688.389 607.077,688.241 736.593,688.075 866.11,687.89 995.627,687.685 1125.14,687.457 1254.66,687.205 1384.18,686.929 1513.69,686.625 1643.21,686.293 1772.73,685.933 1902.24,685.545 "/>
<polyline clip-path="url(#clip692)" style="stroke:#ff0000; stroke-linecap:round; stroke-linejoin:round; stroke-width:4; stroke-opacity:0.1; fill:none" points="218.526,687.675 348.043,685.215 477.56,679.639 607.077,667.352 736.593,641.905 866.11,595.523 995.627,528.714 1125.14,462.472 1254.66,425.222 1384.18,424.188 1513.69,447.177 1643.21,480.244 1772.73,514.598 1902.24,546.11 "/>
<polyline clip-path="url(#clip692)" style="stroke:#ff0000; stroke-linecap:round; stroke-linejoin:round; stroke-width:4; stroke-opacity:0.1; fill:none" points="218.526,687.565 348.043,684.697 477.56,677.828 607.077,661.917 736.593,627.761 866.11,565.313 995.627,480.173 1125.14,405.897 1254.66,372.917 1384.18,379.202 1513.69,407.185 1643.21,442.887 1772.73,478.79 1902.24,511.727 "/>
<polyline clip-path="url(#clip692)" style="stroke:#ff0000; stroke-linecap:round; stroke-linejoin:round; stroke-width:4; stroke-opacity:0.1; fill:none" points="218.526,687.323 348.043,683.463 477.56,673.243 607.077,647.85 736.593,593.801 866.11,510.619 995.627,437.025 1125.14,413.331 1254.66,433.25 1384.18,472.009 1513.69,513.274 1643.21,550.187 1772.73,580.912 1902.24,605.564 "/>
<polyline clip-path="url(#clip692)" style="stroke:#ff0000; stroke-linecap:round; stroke-linejoin:round; stroke-width:4; stroke-opacity:0.1; fill:none" points="218.526,685.383 348.043,669.133 477.56,607.862 607.077,505.783 736.593,491.696 866.11,549.175 995.627,604.85 1125.14,641.569 1254.66,663.106 1384.18,675.168 1513.69,681.781 1643.21,685.37 1772.73,687.308 1902.24,688.351 "/>
<polyline clip-path="url(#clip692)" style="stroke:#ff0000; stroke-linecap:round; stroke-linejoin:round; stroke-width:4; stroke-opacity:0.1; fill:none" points="218.526,688.056 348.043,686.796 477.56,684.524 607.077,680.523 736.593,673.767 866.11,663.166 995.627,648.453 1125.14,631.693 1254.66,617.809 1384.18,611.913 1513.69,615.453 1643.21,625.717 1772.73,638.594 1902.24,651.012 "/>
<polyline clip-path="url(#clip692)" style="stroke:#ff0000; stroke-linecap:round; stroke-linejoin:round; stroke-width:4; stroke-opacity:0.1; fill:none" points="218.526,681.079 348.043,614.893 477.56,419.462 607.077,407.772 736.593,500.802 866.11,574.94 995.627,621.863 1125.14,649.989 1254.66,666.536 1384.18,676.194 1513.69,681.811 1643.21,685.072 1772.73,686.962 1902.24,688.057 "/>
<polyline clip-path="url(#clip692)" style="stroke:#ff0000; stroke-linecap:round; stroke-linejoin:round; stroke-width:4; stroke-opacity:0.1; fill:none" points="218.526,689.229 348.043,689.427 477.56,689.508 607.077,689.541 736.593,689.554 866.11,689.56 995.627,689.562 1125.14,689.563 1254.66,689.563 1384.18,689.563 1513.69,689.563 1643.21,689.564 1772.73,689.564 1902.24,689.564 "/>
<polyline clip-path="url(#clip692)" style="stroke:#ff0000; stroke-linecap:round; stroke-linejoin:round; stroke-width:4; stroke-opacity:0.1; fill:none" points="218.526,688.456 348.043,688.067 477.56,687.549 607.077,686.865 736.593,685.974 866.11,684.83 995.627,683.394 1125.14,681.641 1254.66,679.581 1384.18,677.275 1513.69,674.856 1643.21,672.528 1772.73,670.54 1902.24,669.142 "/>
<polyline clip-path="url(#clip692)" style="stroke:#ff0000; stroke-linecap:round; stroke-linejoin:round; stroke-width:4; stroke-opacity:0.1; fill:none" points="218.526,677.87 348.043,558.547 477.56,272.645 607.077,265.688 736.593,342.957 866.11,413.923 995.627,471.395 1125.14,517.075 1254.66,553.237 1384.18,581.831 1513.69,604.432 1643.21,622.294 1772.73,636.408 1902.24,647.562 "/>
<polyline clip-path="url(#clip692)" style="stroke:#ff0000; stroke-linecap:round; stroke-linejoin:round; stroke-width:4; stroke-opacity:0.1; fill:none" points="218.526,688.33 348.043,687.707 477.56,686.784 607.077,685.432 736.593,683.487 866.11,680.765 995.627,677.102 1125.14,672.447 1254.66,666.99 1384.18,661.281 1513.69,656.229 1643.21,652.825 1772.73,651.771 1902.24,653.166 "/>
<polyline clip-path="url(#clip692)" style="stroke:#ff0000; stroke-linecap:round; stroke-linejoin:round; stroke-width:4; stroke-opacity:0.1; fill:none" points="218.526,681.688 348.043,625.184 477.56,466.021 607.077,468.582 736.593,557.759 866.11,620.402 995.627,654.677 1125.14,672.228 1254.66,681.005 1384.18,685.351 1513.69,687.493 1643.21,688.546 1772.73,689.064 1902.24,689.318 "/>
<polyline clip-path="url(#clip692)" style="stroke:#ff0000; stroke-linecap:round; stroke-linejoin:round; stroke-width:4; stroke-opacity:0.1; fill:none" points="218.526,688.37 348.043,687.825 477.56,687.039 607.077,685.915 736.593,684.325 866.11,682.113 995.627,679.107 1125.14,675.155 1254.66,670.194 1384.18,664.353 1513.69,658.043 1643.21,652.001 1772.73,647.135 1902.24,644.277 "/>
<polyline clip-path="url(#clip692)" style="stroke:#ff0000; stroke-linecap:round; stroke-linejoin:round; stroke-width:4; stroke-opacity:0.1; fill:none" points="218.526,685.437 348.043,669.894 477.56,616.07 607.077,545.704 736.593,557.84 866.11,610.036 995.627,648.861 1125.14,670.046 1254.66,680.454 1384.18,685.363 1513.69,687.636 1643.21,688.682 1772.73,689.16 1902.24,689.379 "/>
<polyline clip-path="url(#clip692)" style="stroke:#ff0000; stroke-linecap:round; stroke-linejoin:round; stroke-width:4; stroke-opacity:0.1; fill:none" points="218.526,678.917 348.043,579.967 477.56,351.059 607.077,378.183 736.593,475.396 866.11,549.774 995.627,599.537 1125.14,631.86 1254.66,652.653 1384.18,665.978 1513.69,674.502 1643.21,679.948 1772.73,683.426 1902.24,685.646 "/>
<polyline clip-path="url(#clip692)" style="stroke:#ff0000; stroke-linecap:round; stroke-linejoin:round; stroke-width:4; stroke-opacity:0.1; fill:none" points="218.526,679.828 348.043,590.848 477.56,292.585 607.077,196.587 736.593,240.159 866.11,295.845 995.627,346.531 1125.14,390.979 1254.66,429.722 1384.18,463.449 1513.69,492.801 1643.21,518.345 1772.73,540.572 1902.24,559.915 "/>
<polyline clip-path="url(#clip692)" style="stroke:#ff0000; stroke-linecap:round; stroke-linejoin:round; stroke-width:4; stroke-opacity:0.1; fill:none" points="218.526,682.991 348.043,643.14 477.56,519.648 607.077,497.89 736.593,574.534 866.11,632.453 995.627,662.868 1125.14,677.363 1254.66,684.039 1384.18,687.072 1513.69,688.442 1643.21,689.059 1772.73,689.337 1902.24,689.462 "/>
<polyline clip-path="url(#clip692)" style="stroke:#ff0000; stroke-linecap:round; stroke-linejoin:round; stroke-width:4; stroke-opacity:0.1; fill:none" points="218.526,688.3 348.043,687.615 477.56,686.574 607.077,685.012 736.593,682.71 866.11,679.416 995.627,674.9 1125.14,669.087 1254.66,662.252 1384.18,655.2 1513.69,649.192 1643.21,645.546 1772.73,645.034 1902.24,647.541 "/>
<polyline clip-path="url(#clip692)" style="stroke:#ff0000; stroke-linecap:round; stroke-linejoin:round; stroke-width:4; stroke-opacity:0.1; fill:none" points="218.526,686.609 348.043,679.169 477.56,656.174 607.077,606.469 736.593,561.312 866.11,569.363 995.627,607.093 1125.14,640.985 1254.66,662.926 1384.18,675.438 1513.69,682.197 1643.21,685.756 1772.73,687.602 1902.24,688.556 "/>
<polyline clip-path="url(#clip692)" style="stroke:#ff0000; stroke-linecap:round; stroke-linejoin:round; stroke-width:4; stroke-opacity:0.1; fill:none" points="218.526,686.601 348.043,679.013 477.56,654.206 607.077,590.774 736.593,502.279 866.11,467.876 995.627,499.112 1125.14,549.677 1254.66,593.906 1384.18,626.366 1513.69,648.55 1643.21,663.209 1772.73,672.729 1902.24,678.844 "/>
<polyline clip-path="url(#clip692)" style="stroke:#ff0000; stroke-linecap:round; stroke-linejoin:round; stroke-width:4; stroke-opacity:0.1; fill:none" points="218.526,688.839 348.043,688.921 477.56,688.994 607.077,689.058 736.593,689.115 866.11,689.166 995.627,689.211 1125.14,689.251 1254.66,689.287 1384.18,689.318 1513.69,689.346 1643.21,689.371 1772.73,689.393 1902.24,689.412 "/>
<polyline clip-path="url(#clip692)" style="stroke:#ff0000; stroke-linecap:round; stroke-linejoin:round; stroke-width:4; stroke-opacity:0.1; fill:none" points="218.526,684.904 348.043,665.572 477.56,609.436 607.077,583.848 736.593,625.012 866.11,661.12 995.627,678.389 1125.14,685.342 1254.66,687.993 1384.18,688.982 1513.69,689.349 1643.21,689.484 1772.73,689.534 1902.24,689.553 "/>
<polyline clip-path="url(#clip692)" style="stroke:#ff0000; stroke-linecap:round; stroke-linejoin:round; stroke-width:4; stroke-opacity:0.1; fill:none" points="218.526,664.501 348.043,366.978 477.56,246.165 607.077,339.543 736.593,423.83 866.11,488.61 995.627,537.697 1125.14,574.812 1254.66,602.861 1384.18,624.055 1513.69,640.069 1643.21,652.168 1772.73,661.31 1902.24,668.217 "/>
<polyline clip-path="url(#clip692)" style="stroke:#ff0000; stroke-linecap:round; stroke-linejoin:round; stroke-width:4; stroke-opacity:0.1; fill:none" points="218.526,688.383 348.043,687.866 477.56,687.139 607.077,686.135 736.593,684.78 866.11,683.012 995.627,680.812 1125.14,678.252 1254.66,675.534 1384.18,673.003 1513.69,671.079 1643.21,670.13 1772.73,670.319 1902.24,671.556 "/>
<polyline clip-path="url(#clip692)" style="stroke:#ff0000; stroke-linecap:round; stroke-linejoin:round; stroke-width:4; stroke-opacity:0.1; fill:none" points="218.526,685.998 348.043,674.29 477.56,628.762 607.077,500.363 736.593,332.12 866.11,265.669 995.627,284.634 1125.14,329.595 1254.66,376.933 1384.18,420.272 1513.69,458.358 1643.21,491.342 1772.73,519.738 1902.24,544.119 "/>
<polyline clip-path="url(#clip692)" style="stroke:#ff0000; stroke-linecap:round; stroke-linejoin:round; stroke-width:4; stroke-opacity:0.1; fill:none" points="218.526,688.406 348.043,687.926 477.56,687.25 607.077,686.3 736.593,684.972 866.11,683.126 995.627,680.58 1125.14,677.113 1254.66,672.464 1384.18,666.368 1513.69,658.611 1643.21,649.127 1772.73,638.122 1902.24,626.191 "/>
<polyline clip-path="url(#clip692)" style="stroke:#ff0000; stroke-linecap:round; stroke-linejoin:round; stroke-width:4; stroke-opacity:0.1; fill:none" points="218.526,669.71 348.043,441.521 477.56,309.338 607.077,417.947 736.593,510.733 866.11,573.267 995.627,614.168 1125.14,640.738 1254.66,657.96 1384.18,669.113 1513.69,676.331 1643.21,681.002 1772.73,684.025 1902.24,685.98 "/>
<polyline clip-path="url(#clip692)" style="stroke:#ff0000; stroke-linecap:round; stroke-linejoin:round; stroke-width:4; stroke-opacity:0.1; fill:none" points="218.526,685.358 348.043,668.527 477.56,597.267 607.077,426.032 736.593,300.408 866.11,305.477 995.627,358.431 1125.14,415.263 1254.66,465.308 1384.18,507.137 1513.69,541.489 1643.21,569.5 1772.73,592.269 1902.24,610.747 "/>
<polyline clip-path="url(#clip692)" style="stroke:#ff0000; stroke-linecap:round; stroke-linejoin:round; stroke-width:4; stroke-opacity:0.1; fill:none" points="218.526,688.286 348.043,687.573 477.56,686.482 607.077,684.839 736.593,682.421 866.11,678.994 995.627,674.397 1125.14,668.711 1254.66,662.462 1384.18,656.7 1513.69,652.708 1643.21,651.452 1772.73,653.093 1902.24,656.967 "/>
<polyline clip-path="url(#clip692)" style="stroke:#ff0000; stroke-linecap:round; stroke-linejoin:round; stroke-width:4; stroke-opacity:0.1; fill:none" points="218.526,682.664 348.043,635.859 477.56,429.875 607.077,239.795 736.593,247.065 866.11,303.845 995.627,360.706 1125.14,410.526 1254.66,453.099 1384.18,489.258 1513.69,519.912 1643.21,545.884 1772.73,567.883 1902.24,586.516 "/>
<polyline clip-path="url(#clip692)" style="stroke:#ff0000; stroke-linecap:round; stroke-linejoin:round; stroke-width:4; stroke-opacity:0.1; fill:none" points="218.526,686.484 348.043,678.12 477.56,649.132 607.077,567.77 736.593,434.007 866.11,349.183 995.627,353.711 1125.14,399.082 1254.66,451.001 1384.18,497.82 1513.69,536.975 1643.21,568.749 1772.73,594.174 1902.24,614.377 "/>
<polyline clip-path="url(#clip692)" style="stroke:#ff0000; stroke-linecap:round; stroke-linejoin:round; stroke-width:4; stroke-opacity:0.1; fill:none" points="218.526,686.043 348.043,675.14 477.56,640.56 607.077,588.406 736.593,585.063 866.11,622.632 995.627,655.159 1125.14,673.435 1254.66,682.275 1384.18,686.327 1513.69,688.135 1643.21,688.936 1772.73,689.288 1902.24,689.443 "/>
<polyline clip-path="url(#clip692)" style="stroke:#ff0000; stroke-linecap:round; stroke-linejoin:round; stroke-width:4; stroke-opacity:0.1; fill:none" points="218.526,689.29 348.043,689.472 477.56,689.533 607.077,689.553 736.593,689.56 866.11,689.562 995.627,689.563 1125.14,689.563 1254.66,689.563 1384.18,689.564 1513.69,689.564 1643.21,689.564 1772.73,689.564 1902.24,689.564 "/>
<polyline clip-path="url(#clip692)" style="stroke:#ff0000; stroke-linecap:round; stroke-linejoin:round; stroke-width:4; stroke-opacity:0.1; fill:none" points="218.526,686.154 348.043,675.584 477.56,635.99 607.077,525.209 736.593,372.953 866.11,309.607 995.627,332.546 1125.14,382.975 1254.66,434.564 1384.18,480.107 1513.69,518.458 1643.21,550.162 1772.73,576.155 1902.24,597.378 "/>
<polyline clip-path="url(#clip692)" style="stroke:#ff0000; stroke-linecap:round; stroke-linejoin:round; stroke-width:4; stroke-opacity:0.1; fill:none" points="218.526,679.622 348.043,594.317 477.56,411.722 607.077,459.418 736.593,555.142 866.11,616.826 995.627,651.1 1125.14,669.405 1254.66,679.04 1384.18,684.081 1513.69,686.71 1643.21,688.079 1772.73,688.791 1902.24,689.162 "/>
<polyline clip-path="url(#clip692)" style="stroke:#ff0000; stroke-linecap:round; stroke-linejoin:round; stroke-width:4; stroke-opacity:0.1; fill:none" points="218.526,683.031 348.043,640.839 477.56,446.983 607.077,224.953 736.593,200.969 866.11,241.451 995.627,288.266 1125.14,331.833 1254.66,370.999 1384.18,405.953 1513.69,437.093 1643.21,464.819 1772.73,489.502 1902.24,511.476 "/>
<polyline clip-path="url(#clip692)" style="stroke:#ff0000; stroke-linecap:round; stroke-linejoin:round; stroke-width:4; stroke-opacity:0.1; fill:none" points="218.526,684.728 348.043,662.236 477.56,566.52 607.077,404.145 736.593,371.651 866.11,433.175 995.627,502.152 1125.14,556.931 1254.66,596.893 1384.18,625.199 1513.69,644.998 1643.21,658.762 1772.73,668.297 1902.24,674.89 "/>
<polyline clip-path="url(#clip692)" style="stroke:#ff0000; stroke-linecap:round; stroke-linejoin:round; stroke-width:4; stroke-opacity:0.1; fill:none" points="218.526,686.925 348.043,681.117 477.56,663.228 607.077,613.593 736.593,508.636 866.11,379.374 995.627,307.996 1125.14,306.519 1254.66,339.076 1384.18,381.046 1513.69,422.491 1643.21,460.149 1772.73,493.258 1902.24,521.938 "/>
<polyline clip-path="url(#clip692)" style="stroke:#ff0000; stroke-linecap:round; stroke-linejoin:round; stroke-width:4; stroke-opacity:0.1; fill:none" points="218.526,668.634 348.043,393.487 477.56,108.835 607.077,101.781 736.593,117.585 866.11,133.926 995.627,149.845 1125.14,165.31 1254.66,180.331 1384.18,194.923 1513.69,209.096 1643.21,222.863 1772.73,236.236 1902.24,249.225 "/>
<polyline clip-path="url(#clip692)" style="stroke:#ff0000; stroke-linecap:round; stroke-linejoin:round; stroke-width:4; stroke-opacity:0.1; fill:none" points="218.526,688.083 348.043,686.888 477.56,684.753 607.077,680.993 736.593,674.534 866.11,663.911 995.627,647.683 1125.14,625.67 1254.66,600.808 1384.18,579.497 1513.69,568.286 1643.21,569.539 1772.73,580.628 1902.24,596.905 "/>
<polyline clip-path="url(#clip692)" style="stroke:#ff0000; stroke-linecap:round; stroke-linejoin:round; stroke-width:4; stroke-opacity:0.1; fill:none" points="218.526,688.31 348.043,687.648 477.56,686.646 607.077,685.151 736.593,682.953 866.11,679.801 995.627,675.442 1125.14,669.727 1254.66,662.787 1384.18,655.222 1513.69,648.162 1643.21,642.985 1772.73,640.789 1902.24,641.88 "/>
<polyline clip-path="url(#clip692)" style="stroke:#ff0000; stroke-linecap:round; stroke-linejoin:round; stroke-width:4; stroke-opacity:0.1; fill:none" points="218.526,686.016 348.043,674.71 477.56,635.513 607.077,558.759 736.593,523.38 866.11,560.175 995.627,609.63 1125.14,644.781 1254.66,665.53 1384.18,676.924 1513.69,682.983 1643.21,686.153 1772.73,687.801 1902.24,688.653 "/>
<polyline clip-path="url(#clip692)" style="stroke:#ff0000; stroke-linecap:round; stroke-linejoin:round; stroke-width:4; stroke-opacity:0.1; fill:none" points="218.526,671.456 348.043,464.541 477.56,308.808 607.077,412.05 736.593,506.341 866.11,570.417 995.627,612.381 1125.14,639.632 1254.66,657.281 1384.18,668.698 1513.69,676.079 1643.21,680.851 1772.73,683.933 1902.24,685.926 "/>
<polyline clip-path="url(#clip692)" style="stroke:#ff0000; stroke-linecap:round; stroke-linejoin:round; stroke-width:4; stroke-opacity:0.1; fill:none" points="218.526,688.976 348.043,689.141 477.56,689.26 607.077,689.345 736.593,689.407 866.11,689.451 995.627,689.483 1125.14,689.505 1254.66,689.522 1384.18,689.534 1513.69,689.542 1643.21,689.548 1772.73,689.552 1902.24,689.556 "/>
<polyline clip-path="url(#clip692)" style="stroke:#ff0000; stroke-linecap:round; stroke-linejoin:round; stroke-width:4; stroke-opacity:0.1; fill:none" points="218.526,685.366 348.043,668.639 477.56,598.601 607.077,435.656 736.593,326.328 866.11,343.494 995.627,402.908 1125.14,462.26 1254.66,512.083 1384.18,551.865 1513.69,583.05 1643.21,607.303 1772.73,626.091 1902.24,640.616 "/>
<polyline clip-path="url(#clip692)" style="stroke:#ff0000; stroke-linecap:round; stroke-linejoin:round; stroke-width:4; stroke-opacity:0.1; fill:none" points="218.526,682.367 348.043,633.652 477.56,468.531 607.077,421.288 736.593,504.25 866.11,578.95 995.627,626.303 1125.14,653.962 1254.66,669.67 1384.18,678.486 1513.69,683.406 1643.21,686.144 1772.73,687.665 1902.24,688.51 "/>
<polyline clip-path="url(#clip692)" style="stroke:#ff0000; stroke-linecap:round; stroke-linejoin:round; stroke-width:4; stroke-opacity:0.1; fill:none" points="218.526,688.729 348.043,688.714 477.56,688.7 607.077,688.688 736.593,688.678 866.11,688.67 995.627,688.665 1125.14,688.661 1254.66,688.66 1384.18,688.661 1513.69,688.664 1643.21,688.669 1772.73,688.677 1902.24,688.686 "/>
<polyline clip-path="url(#clip692)" style="stroke:#ff0000; stroke-linecap:round; stroke-linejoin:round; stroke-width:4; stroke-opacity:0.1; fill:none" points="218.526,687.829 348.043,685.901 477.56,681.916 607.077,673.955 736.593,659.108 866.11,634.846 995.627,603.488 1125.14,576.127 1254.66,565.576 1384.18,574.038 1513.69,593.676 1643.21,615.856 1772.73,635.646 1902.24,651.345 "/>
<polyline clip-path="url(#clip692)" style="stroke:#ff0000; stroke-linecap:round; stroke-linejoin:round; stroke-width:4; stroke-opacity:0.1; fill:none" points="218.526,688.86 348.043,688.959 477.56,689.044 607.077,689.117 736.593,689.181 866.11,689.236 995.627,689.283 1125.14,689.323 1254.66,689.358 1384.18,689.387 1513.69,689.413 1643.21,689.435 1772.73,689.453 1902.24,689.469 "/>
<polyline clip-path="url(#clip692)" style="stroke:#ff0000; stroke-linecap:round; stroke-linejoin:round; stroke-width:4; stroke-opacity:0.1; fill:none" points="218.526,685.858 348.043,673.084 477.56,622.071 607.077,480.165 736.593,309.657 866.11,253.037 995.627,276.201 1125.14,321.132 1254.66,367.304 1384.18,409.499 1513.69,446.769 1643.21,479.3 1772.73,507.563 1902.24,532.065 "/>
<polyline clip-path="url(#clip692)" style="stroke:#ff0000; stroke-linecap:round; stroke-linejoin:round; stroke-width:4; stroke-opacity:0.1; fill:none" points="218.526,665.365 348.043,390.31 477.56,304.745 607.077,417.76 736.593,507.36 866.11,568.317 995.627,609.022 1125.14,636.094 1254.66,654.075 1384.18,666.012 1513.69,673.935 1643.21,679.193 1772.73,682.682 1902.24,684.998 "/>
<polyline clip-path="url(#clip692)" style="stroke:#ff0000; stroke-linecap:round; stroke-linejoin:round; stroke-width:4; stroke-opacity:0.1; fill:none" points="218.526,687.646 348.043,685.122 477.56,679.589 607.077,668.59 736.593,650.816 866.11,631.622 995.627,623.15 1125.14,630.262 1254.66,645.536 1384.18,660.493 1513.69,671.657 1643.21,678.968 1772.73,683.428 1902.24,686.056 "/>
<polyline clip-path="url(#clip692)" style="stroke:#ff0000; stroke-linecap:round; stroke-linejoin:round; stroke-width:4; stroke-opacity:0.1; fill:none" points="218.526,671.797 348.043,444.016 477.56,117.957 607.077,92.4804 736.593,103.242 866.11,115.612 995.627,127.811 1125.14,139.757 1254.66,151.449 1384.18,162.892 1513.69,174.092 1643.21,185.053 1772.73,195.782 1902.24,206.282 "/>
<polyline clip-path="url(#clip692)" style="stroke:#ff0000; stroke-linecap:round; stroke-linejoin:round; stroke-width:4; stroke-opacity:0.1; fill:none" points="218.526,685.879 348.043,673.297 477.56,623.682 607.077,489.463 736.593,337.765 866.11,300.191 995.627,336.882 1125.14,390.71 1254.66,442.007 1384.18,486.273 1513.69,523.253 1643.21,553.756 1772.73,578.773 1902.24,599.233 "/>
<polyline clip-path="url(#clip692)" style="stroke:#ff0000; stroke-linecap:round; stroke-linejoin:round; stroke-width:4; stroke-opacity:0.1; fill:none" points="218.526,684.625 348.043,661.136 477.56,561.191 607.077,400.398 736.593,377.232 866.11,442.202 995.627,511.092 1125.14,564.707 1254.66,603.285 1384.18,630.288 1513.69,648.962 1643.21,661.803 1772.73,670.601 1902.24,676.62 "/>
<polyline clip-path="url(#clip692)" style="stroke:#ff0000; stroke-linecap:round; stroke-linejoin:round; stroke-width:4; stroke-opacity:0.1; fill:none" points="218.526,684.77 348.043,663.862 477.56,597.122 607.077,554.911 736.593,598.995 866.11,645.628 995.627,670.59 1125.14,681.698 1254.66,686.359 1384.18,688.266 1513.69,689.04 1643.21,689.352 1772.73,689.478 1902.24,689.529 "/>
<polyline clip-path="url(#clip692)" style="stroke:#ff0000; stroke-linecap:round; stroke-linejoin:round; stroke-width:4; stroke-opacity:0.1; fill:none" points="218.526,686.002 348.043,674.39 477.56,630.584 607.077,518.861 736.593,404.963 866.11,395.982 995.627,447.976 1125.14,507.107 1254.66,556.393 1384.18,593.853 1513.69,621.31 1643.21,641.102 1772.73,655.245 1902.24,665.297 "/>
<polyline clip-path="url(#clip692)" style="stroke:#ff0000; stroke-linecap:round; stroke-linejoin:round; stroke-width:4; stroke-opacity:0.1; fill:none" points="218.526,681.649 348.043,622.81 477.56,426.838 607.077,380.556 736.593,466.536 866.11,545.337 995.627,599.02 1125.14,633.321 1254.66,654.79 1384.18,668.113 1513.69,676.349 1643.21,681.428 1772.73,684.557 1902.24,686.483 "/>
<polyline clip-path="url(#clip692)" style="stroke:#ff0000; stroke-linecap:round; stroke-linejoin:round; stroke-width:4; stroke-opacity:0.1; fill:none" points="218.526,678.933 348.043,574.538 477.56,248.207 607.077,153.633 736.593,182.057 866.11,221.405 995.627,258.936 1125.14,293.604 1254.66,325.5 1384.18,354.83 1513.69,381.798 1643.21,406.594 1772.73,429.391 1902.24,450.352 "/>
<polyline clip-path="url(#clip692)" style="stroke:#ff0000; stroke-linecap:round; stroke-linejoin:round; stroke-width:4; stroke-opacity:0.1; fill:none" points="218.526,677.746 348.043,563.634 477.56,367.592 607.077,436.481 736.593,534.635 866.11,599.207 995.627,637.595 1125.14,659.834 1254.66,672.597 1384.18,679.893 1513.69,684.054 1643.21,686.426 1772.73,687.778 1902.24,688.547 "/>
<polyline clip-path="url(#clip692)" style="stroke:#ff0000; stroke-linecap:round; stroke-linejoin:round; stroke-width:4; stroke-opacity:0.1; fill:none" points="218.526,685.983 348.043,674.241 477.56,629.852 607.077,517.417 736.593,405.624 866.11,399.579 995.627,452.719 1125.14,511.833 1254.66,560.632 1384.18,597.457 1513.69,624.274 1643.21,643.484 1772.73,657.128 1902.24,666.766 "/>
<polyline clip-path="url(#clip692)" style="stroke:#ff0000; stroke-linecap:round; stroke-linejoin:round; stroke-width:4; stroke-opacity:0.1; fill:none" points="218.526,685.669 348.043,671.711 477.56,619.967 607.077,521.583 736.593,487.196 866.11,534.755 995.627,591.68 1125.14,632.183 1254.66,657.018 1384.18,671.392 1513.69,679.498 1643.21,684.012 1772.73,686.509 1902.24,687.884 "/>
<polyline clip-path="url(#clip692)" style="stroke:#ff0000; stroke-linecap:round; stroke-linejoin:round; stroke-width:4; stroke-opacity:0.1; fill:none" points="218.526,681.645 348.043,622.157 477.56,412.769 607.077,343.198 736.593,421.751 866.11,502.592 995.627,562.281 1125.14,603.633 1254.66,631.752 1384.18,650.734 1513.69,663.508 1643.21,672.09 1772.73,677.847 1902.24,681.71 "/>
<polyline clip-path="url(#clip692)" style="stroke:#ff0000; stroke-linecap:round; stroke-linejoin:round; stroke-width:4; stroke-opacity:0.1; fill:none" points="218.526,683.195 348.043,643.067 477.56,456.861 607.077,227.47 736.593,193.744 866.11,230.238 995.627,274.911 1125.14,317.078 1254.66,355.321 1384.18,389.72 1513.69,420.6 1643.21,448.306 1772.73,473.16 1902.24,495.455 "/>
<polyline clip-path="url(#clip692)" style="stroke:#ff0000; stroke-linecap:round; stroke-linejoin:round; stroke-width:4; stroke-opacity:0.1; fill:none" points="218.526,678.051 348.043,569.55 477.56,383.866 607.077,454.81 736.593,551.592 866.11,612.768 995.627,647.506 1125.14,666.674 1254.66,677.141 1384.18,682.831 1513.69,685.917 1643.21,687.59 1772.73,688.495 1902.24,688.985 "/>
<polyline clip-path="url(#clip692)" style="stroke:#ff0000; stroke-linecap:round; stroke-linejoin:round; stroke-width:4; stroke-opacity:0.1; fill:none" points="218.526,678.043 348.043,567.413 477.56,359.631 607.077,417.945 736.593,516.796 866.11,584.882 995.627,626.986 1125.14,652.345 1254.66,667.478 1384.18,676.473 1513.69,681.809 1643.21,684.972 1772.73,686.845 1902.24,687.954 "/>
<polyline clip-path="url(#clip692)" style="stroke:#ff0000; stroke-linecap:round; stroke-linejoin:round; stroke-width:4; stroke-opacity:0.1; fill:none" points="218.526,688.492 348.043,688.165 477.56,687.746 607.077,687.218 736.593,686.562 866.11,685.763 995.627,684.815 1125.14,683.729 1254.66,682.536 1384.18,681.3 1513.69,680.108 1643.21,679.072 1772.73,678.304 1902.24,677.891 "/>
<polyline clip-path="url(#clip692)" style="stroke:#ff0000; stroke-linecap:round; stroke-linejoin:round; stroke-width:4; stroke-opacity:0.1; fill:none" points="218.526,684.808 348.043,663.339 477.56,577.878 607.077,456.346 736.593,460.51 866.11,529.564 995.627,589.989 1125.14,630.194 1254.66,654.816 1384.18,669.407 1513.69,677.927 1643.21,682.863 1772.73,685.709 1902.24,687.349 "/>
<polyline clip-path="url(#clip692)" style="stroke:#ff0000; stroke-linecap:round; stroke-linejoin:round; stroke-width:4; stroke-opacity:0.1; fill:none" points="218.526,688.002 348.043,686.592 477.56,683.958 607.077,679.149 736.593,670.75 866.11,657.198 995.627,638.108 1125.14,616.542 1254.66,599.528 1384.18,593.597 1513.69,599.637 1643.21,613.298 1772.73,629.359 1902.24,644.318 "/>
<polyline clip-path="url(#clip692)" style="stroke:#ff0000; stroke-linecap:round; stroke-linejoin:round; stroke-width:4; stroke-opacity:0.1; fill:none" points="218.526,683.051 348.043,641.199 477.56,450.845 607.077,238.619 736.593,223.954 866.11,271.981 995.627,324.598 1125.14,372.287 1254.66,414.11 1384.18,450.512 1513.69,482.131 1643.21,509.577 1772.73,533.394 1902.24,554.062 "/>
<polyline clip-path="url(#clip692)" style="stroke:#ff0000; stroke-linecap:round; stroke-linejoin:round; stroke-width:4; stroke-opacity:0.1; fill:none" points="218.526,687.238 348.043,683.025 477.56,671.776 607.077,645.113 736.593,597.51 866.11,549.69 995.627,538.042 1125.14,561.866 1254.66,596.644 1384.18,627.139 1513.69,649.403 1643.21,664.35 1772.73,673.938 1902.24,679.962 "/>
<polyline clip-path="url(#clip692)" style="stroke:#ff0000; stroke-linecap:round; stroke-linejoin:round; stroke-width:4; stroke-opacity:0.1; fill:none" points="218.526,683.96 348.043,654.506 477.56,550.436 607.077,486.693 736.593,546.071 866.11,610.983 995.627,649.995 1125.14,670.262 1254.66,680.274 1384.18,685.12 1513.69,687.444 1643.21,688.554 1772.73,689.083 1902.24,689.335 "/>
<polyline clip-path="url(#clip692)" style="stroke:#ff0000; stroke-linecap:round; stroke-linejoin:round; stroke-width:4; stroke-opacity:0.1; fill:none" points="218.526,687.798 348.043,685.761 477.56,681.425 607.077,672.37 736.593,654.213 866.11,620.623 995.627,567.1 1125.14,500.498 1254.66,442.614 1384.18,413.407 1513.69,414.541 1643.21,435.501 1772.73,465.444 1902.24,497.291 "/>
<polyline clip-path="url(#clip692)" style="stroke:#ff0000; stroke-linecap:round; stroke-linejoin:round; stroke-width:4; stroke-opacity:0.1; fill:none" points="218.526,686.043 348.043,675.14 477.56,640.56 607.077,588.406 736.593,585.063 866.11,622.632 995.627,655.159 1125.14,673.435 1254.66,682.275 1384.18,686.327 1513.69,688.135 1643.21,688.936 1772.73,689.288 1902.24,689.443 "/>
<polyline clip-path="url(#clip692)" style="stroke:#ff0000; stroke-linecap:round; stroke-linejoin:round; stroke-width:4; stroke-opacity:0.1; fill:none" points="218.526,683.507 348.043,647.992 477.56,501.521 607.077,367.074 736.593,406.584 866.11,486.186 995.627,551.067 1125.14,596.944 1254.66,628.088 1384.18,648.908 1513.69,662.729 1643.21,671.873 1772.73,677.907 1902.24,681.887 "/>
<polyline clip-path="url(#clip692)" style="stroke:#ff0000; stroke-linecap:round; stroke-linejoin:round; stroke-width:4; stroke-opacity:0.1; fill:none" points="218.526,685.788 348.043,672.772 477.56,625.64 607.077,535.49 736.593,501.653 866.11,545.994 995.627,600.126 1125.14,638.279 1254.66,661.202 1384.18,674.145 1513.69,681.254 1643.21,685.105 1772.73,687.177 1902.24,688.287 "/>
<polyline clip-path="url(#clip692)" style="stroke:#ff0000; stroke-linecap:round; stroke-linejoin:round; stroke-width:4; stroke-opacity:0.1; fill:none" points="218.526,688.353 348.043,687.773 477.56,686.918 607.077,685.662 736.593,683.824 866.11,681.152 995.627,677.305 1125.14,671.84 1254.66,664.229 1384.18,653.919 1513.69,640.488 1643.21,623.883 1772.73,604.75 1902.24,584.609 "/>
<polyline clip-path="url(#clip692)" style="stroke:#ff0000; stroke-linecap:round; stroke-linejoin:round; stroke-width:4; stroke-opacity:0.1; fill:none" points="218.526,688.047 348.043,686.766 477.56,684.457 607.077,680.42 736.593,673.732 866.11,663.649 995.627,650.655 1125.14,637.681 1254.66,629.468 1384.18,629.171 1513.69,635.938 1643.21,646.313 1772.73,657.017 1902.24,666.211 "/>
<polyline clip-path="url(#clip692)" style="stroke:#ff0000; stroke-linecap:round; stroke-linejoin:round; stroke-width:4; stroke-opacity:0.1; fill:none" points="218.526,688.066 348.043,686.835 477.56,684.633 607.077,680.795 736.593,674.392 866.11,664.497 995.627,651.034 1125.14,636.103 1254.66,624.242 1384.18,619.857 1513.69,623.881 1643.21,633.642 1772.73,645.412 1902.24,656.522 "/>
<polyline clip-path="url(#clip692)" style="stroke:#ff0000; stroke-linecap:round; stroke-linejoin:round; stroke-width:4; stroke-opacity:0.1; fill:none" points="218.526,681.781 348.043,626.207 477.56,463.472 607.077,457.321 736.593,546.617 866.11,612.259 995.627,649.375 1125.14,668.982 1254.66,679.092 1384.18,684.252 1513.69,686.874 1643.21,688.202 1772.73,688.875 1902.24,689.215 "/>
<polyline clip-path="url(#clip692)" style="stroke:#ff0000; stroke-linecap:round; stroke-linejoin:round; stroke-width:4; stroke-opacity:0.1; fill:none" points="218.526,689.066 348.043,689.261 477.56,689.38 607.077,689.452 736.593,689.496 866.11,689.522 995.627,689.538 1125.14,689.548 1254.66,689.554 1384.18,689.558 1513.69,689.56 1643.21,689.561 1772.73,689.562 1902.24,689.563 "/>
<polyline clip-path="url(#clip692)" style="stroke:#ff0000; stroke-linecap:round; stroke-linejoin:round; stroke-width:4; stroke-opacity:0.1; fill:none" points="218.526,686.151 348.043,675.51 477.56,634.745 607.077,511.772 736.593,308.385 866.11,170.002 995.627,129.632 1125.14,130.144 1254.66,142.135 1384.18,156.819 1513.69,171.891 1643.21,186.75 1772.73,201.243 1902.24,215.335 "/>
<polyline clip-path="url(#clip692)" style="stroke:#ff0000; stroke-linecap:round; stroke-linejoin:round; stroke-width:4; stroke-opacity:0.1; fill:none" points="218.526,686.185 348.043,675.879 477.56,638.298 607.077,539.898 736.593,423.659 866.11,399.029 995.627,443.545 1125.14,501.526 1254.66,551.672 1384.18,590.326 1513.69,618.822 1643.21,639.401 1772.73,654.104 1902.24,664.546 "/>
<polyline clip-path="url(#clip692)" style="stroke:#ff0000; stroke-linecap:round; stroke-linejoin:round; stroke-width:4; stroke-opacity:0.1; fill:none" points="218.526,686.636 348.043,679.342 477.56,656.813 607.077,607.133 736.593,558.645 866.11,562.819 995.627,600.202 1125.14,635.713 1254.66,659.427 1384.18,673.287 1513.69,680.921 1643.21,685.019 1772.73,687.183 1902.24,688.32 "/>
<polyline clip-path="url(#clip692)" style="stroke:#ff0000; stroke-linecap:round; stroke-linejoin:round; stroke-width:4; stroke-opacity:0.1; fill:none" points="218.526,679.794 348.043,602.009 477.56,479.207 607.077,551.356 736.593,627.228 866.11,663.93 995.627,679.319 1125.14,685.512 1254.66,687.967 1384.18,688.935 1513.69,689.316 1643.21,689.466 1772.73,689.525 1902.24,689.549 "/>
<polyline clip-path="url(#clip692)" style="stroke:#ff0000; stroke-linecap:round; stroke-linejoin:round; stroke-width:4; stroke-opacity:0.1; fill:none" points="218.526,687.208 348.043,682.826 477.56,670.714 607.077,639.834 736.593,575.444 866.11,486.78 995.627,426.235 1125.14,422.887 1254.66,455.686 1384.18,499.094 1513.69,540.134 1643.21,574.663 1772.73,602.221 1902.24,623.629 "/>
<polyline clip-path="url(#clip692)" style="stroke:#ff0000; stroke-linecap:round; stroke-linejoin:round; stroke-width:4; stroke-opacity:0.1; fill:none" points="218.526,688.086 348.043,686.902 477.56,684.808 607.077,681.178 736.593,675.117 866.11,665.622 995.627,652.245 1125.14,636.339 1254.66,621.847 1384.18,613.712 1513.69,614.407 1643.21,622.477 1772.73,634.298 1902.24,646.623 "/>
<polyline clip-path="url(#clip692)" style="stroke:#ff0000; stroke-linecap:round; stroke-linejoin:round; stroke-width:4; stroke-opacity:0.1; fill:none" points="218.526,683.988 348.043,654.23 477.56,536.526 607.077,425.084 736.593,466.888 866.11,543.67 995.627,601.03 1125.14,637.332 1254.66,659.127 1384.18,671.933 1513.69,679.383 1643.21,683.694 1772.73,686.183 1902.24,687.618 "/>
<polyline clip-path="url(#clip692)" style="stroke:#ff0000; stroke-linecap:round; stroke-linejoin:round; stroke-width:4; stroke-opacity:0.1; fill:none" points="218.526,687.16 348.043,682.587 477.56,670.072 607.077,640.295 736.593,589.604 866.11,545.979 995.627,544.139 1125.14,573.723 1254.66,608.885 1384.18,637.234 1513.69,656.897 1643.21,669.588 1772.73,677.493 1902.24,682.319 "/>
<polyline clip-path="url(#clip692)" style="stroke:#ff0000; stroke-linecap:round; stroke-linejoin:round; stroke-width:4; stroke-opacity:0.1; fill:none" points="218.526,672.576 348.043,475.914 477.56,278.884 607.077,364.428 736.593,457.728 866.11,526.572 995.627,575.324 1125.14,609.569 1254.66,633.57 1384.18,650.377 1513.69,662.142 1643.21,670.376 1772.73,676.138 1902.24,680.169 "/>
<polyline clip-path="url(#clip692)" style="stroke:#ff0000; stroke-linecap:round; stroke-linejoin:round; stroke-width:4; stroke-opacity:0.1; fill:none" points="218.526,687.56 348.043,684.69 477.56,677.917 607.077,662.861 736.593,633.573 866.11,590.068 995.627,550.301 1125.14,537.893 1254.66,553.849 1384.18,582.594 1513.69,611.411 1643.21,634.955 1772.73,652.405 1902.24,664.686 "/>
<polyline clip-path="url(#clip692)" style="stroke:#ff0000; stroke-linecap:round; stroke-linejoin:round; stroke-width:4; stroke-opacity:0.1; fill:none" points="218.526,677.009 348.043,557.481 477.56,412.889 607.077,508.164 736.593,596.091 866.11,643.866 995.627,667.588 1125.14,679.063 1254.66,684.56 1384.18,687.182 1513.69,688.431 1643.21,689.025 1772.73,689.307 1902.24,689.442 "/>
<polyline clip-path="url(#clip692)" style="stroke:#ff0000; stroke-linecap:round; stroke-linejoin:round; stroke-width:4; stroke-opacity:0.1; fill:none" points="218.526,679.411 348.043,590.595 477.56,401.131 607.077,448.592 736.593,545.471 866.11,609.314 995.627,645.803 1125.14,665.895 1254.66,676.808 1384.18,682.702 1513.69,685.876 1643.21,687.583 1772.73,688.5 1902.24,688.992 "/>
<polyline clip-path="url(#clip692)" style="stroke:#ff0000; stroke-linecap:round; stroke-linejoin:round; stroke-width:4; stroke-opacity:0.1; fill:none" points="218.526,685.779 348.043,672.451 477.56,619.596 607.077,484.074 736.593,354.714 866.11,344.369 995.627,395.219 1125.14,454.258 1254.66,505.823 1384.18,547.488 1513.69,580.218 1643.21,605.613 1772.73,625.202 1902.24,640.263 "/>
<polyline clip-path="url(#clip692)" style="stroke:#ff0000; stroke-linecap:round; stroke-linejoin:round; stroke-width:4; stroke-opacity:0.1; fill:none" points="218.526,687.757 348.043,685.585 477.56,680.866 607.077,670.846 736.593,650.596 866.11,613.535 995.627,557.054 1125.14,493.18 1254.66,446.649 1384.18,432.416 1513.69,445.564 1643.21,473.329 1772.73,505.817 1902.24,537.28 "/>
<polyline clip-path="url(#clip692)" style="stroke:#ff0000; stroke-linecap:round; stroke-linejoin:round; stroke-width:4; stroke-opacity:0.1; fill:none" points="218.526,688.954 348.043,689.11 477.56,689.225 607.077,689.311 736.593,689.376 866.11,689.423 995.627,689.459 1125.14,689.486 1254.66,689.506 1384.18,689.52 1513.69,689.531 1643.21,689.54 1772.73,689.546 1902.24,689.55 "/>
<polyline clip-path="url(#clip692)" style="stroke:#0000ff; stroke-linecap:round; stroke-linejoin:round; stroke-width:4; stroke-opacity:0.1; fill:none" points="218.526,688.088 348.043,686.903 477.56,684.778 607.077,680.987 736.593,674.304 866.11,662.747 995.627,643.421 1125.14,612.88 1254.66,568.742 1384.18,512.877 1513.69,453.743 1643.21,403.672 1772.73,371.78 1902.24,359.794 "/>
<polyline clip-path="url(#clip692)" style="stroke:#0000ff; stroke-linecap:round; stroke-linejoin:round; stroke-width:4; stroke-opacity:0.1; fill:none" points="218.526,688.192 348.043,687.27 477.56,685.744 607.077,683.252 736.593,679.265 866.11,673.093 995.627,664.036 1125.14,651.799 1254.66,637.198 1384.18,622.685 1513.69,611.84 1643.21,607.506 1772.73,610.239 1902.24,618.359 "/>
<polyline clip-path="url(#clip692)" style="stroke:#0000ff; stroke-linecap:round; stroke-linejoin:round; stroke-width:4; stroke-opacity:0.1; fill:none" points="218.526,673.987 348.043,483.152 477.56,140.966 607.077,105.117 736.593,120.922 866.11,139.332 995.627,157.331 1125.14,174.753 1254.66,191.605 1384.18,207.906 1513.69,223.674 1643.21,238.925 1772.73,253.677 1902.24,267.946 "/>
<polyline clip-path="url(#clip692)" style="stroke:#0000ff; stroke-linecap:round; stroke-linejoin:round; stroke-width:4; stroke-opacity:0.1; fill:none" points="218.526,687.948 348.043,686.381 477.56,683.335 607.077,677.528 736.593,666.862 866.11,648.581 995.627,620.857 1125.14,586.483 1254.66,555.287 1384.18,538.762 1513.69,540.836 1643.21,556.62 1772.73,578.629 1902.24,601.177 "/>
<polyline clip-path="url(#clip692)" style="stroke:#0000ff; stroke-linecap:round; stroke-linejoin:round; stroke-width:4; stroke-opacity:0.1; fill:none" points="218.526,688.597 348.043,688.422 477.56,688.215 607.077,687.971 736.593,687.684 866.11,687.348 995.627,686.953 1125.14,686.491 1254.66,685.951 1384.18,685.322 1513.69,684.591 1643.21,683.744 1772.73,682.768 1902.24,681.648 "/>
<polyline clip-path="url(#clip692)" style="stroke:#0000ff; stroke-linecap:round; stroke-linejoin:round; stroke-width:4; stroke-opacity:0.1; fill:none" points="218.526,688.99 348.043,689.162 477.56,689.282 607.077,689.366 736.593,689.425 866.11,689.467 995.627,689.496 1125.14,689.516 1254.66,689.53 1384.18,689.54 1513.69,689.547 1643.21,689.552 1772.73,689.555 1902.24,689.558 "/>
<polyline clip-path="url(#clip692)" style="stroke:#0000ff; stroke-linecap:round; stroke-linejoin:round; stroke-width:4; stroke-opacity:0.1; fill:none" points="218.526,657.108 348.043,270.727 477.56,134.606 607.077,172.933 736.593,214.683 866.11,253.278 995.627,288.745 1125.14,321.331 1254.66,351.267 1384.18,378.769 1513.69,404.036 1643.21,427.248 1772.73,448.574 1902.24,468.165 "/>
<polyline clip-path="url(#clip692)" style="stroke:#0000ff; stroke-linecap:round; stroke-linejoin:round; stroke-width:4; stroke-opacity:0.1; fill:none" points="218.526,687.95 348.043,686.387 477.56,683.336 607.077,677.464 736.593,666.448 866.11,646.764 995.627,614.534 1125.14,568.962 1254.66,517.501 1384.18,475.221 1513.69,454.451 1643.21,456.307 1772.73,473.971 1902.24,499.437 "/>
<polyline clip-path="url(#clip692)" style="stroke:#0000ff; stroke-linecap:round; stroke-linejoin:round; stroke-width:4; stroke-opacity:0.1; fill:none" points="218.526,687.498 348.043,684.368 477.56,676.641 607.077,658.283 736.593,618.437 866.11,547.02 995.627,456.366 1125.14,387.496 1254.66,365.756 1384.18,380.96 1513.69,413.724 1643.21,451.203 1772.73,487.317 1902.24,519.731 "/>
<polyline clip-path="url(#clip692)" style="stroke:#0000ff; stroke-linecap:round; stroke-linejoin:round; stroke-width:4; stroke-opacity:0.1; fill:none" points="218.526,686.099 348.043,675.14 477.56,633.717 607.077,519.24 736.593,370.412 866.11,317.403 995.627,346.848 1125.14,399.881 1254.66,452.106 1384.18,497.275 1513.69,534.701 1643.21,565.183 1772.73,589.814 1902.24,609.638 "/>
<polyline clip-path="url(#clip692)" style="stroke:#0000ff; stroke-linecap:round; stroke-linejoin:round; stroke-width:4; stroke-opacity:0.1; fill:none" points="218.526,688.425 348.043,687.979 477.56,687.359 607.077,686.501 736.593,685.316 866.11,683.687 995.627,681.458 1125.14,678.434 1254.66,674.373 1384.18,668.997 1513.69,662.016 1643.21,653.181 1772.73,642.368 1902.24,629.7 "/>
<polyline clip-path="url(#clip692)" style="stroke:#0000ff; stroke-linecap:round; stroke-linejoin:round; stroke-width:4; stroke-opacity:0.1; fill:none" points="218.526,686.732 348.043,679.849 477.56,657.273 607.077,592.266 736.593,459.39 866.11,316.824 995.627,253.125 1125.14,256.712 1254.66,287.466 1384.18,325.035 1513.69,362.22 1643.21,396.776 1772.73,428.152 1902.24,456.368 "/>
<polyline clip-path="url(#clip692)" style="stroke:#0000ff; stroke-linecap:round; stroke-linejoin:round; stroke-width:4; stroke-opacity:0.1; fill:none" points="218.526,687.063 348.043,681.962 477.56,666.875 607.077,625.305 736.593,530.146 866.11,382.572 995.627,254.635 1125.14,196.548 1254.66,188.844 1384.18,203.122 1513.69,224.975 1643.21,248.767 1772.73,272.447 1902.24,295.292 "/>
<polyline clip-path="url(#clip692)" style="stroke:#0000ff; stroke-linecap:round; stroke-linejoin:round; stroke-width:4; stroke-opacity:0.1; fill:none" points="218.526,685.52 348.043,670.051 477.56,605.326 607.077,438.956 736.593,289.345 866.11,270.774 995.627,312.344 1125.14,364.313 1254.66,412.91 1384.18,455.374 1513.69,491.703 1643.21,522.542 1772.73,548.635 1902.24,570.68 "/>
<polyline clip-path="url(#clip692)" style="stroke:#0000ff; stroke-linecap:round; stroke-linejoin:round; stroke-width:4; stroke-opacity:0.1; fill:none" points="218.526,687.701 348.043,685.336 477.56,680.044 607.077,668.506 736.593,644.721 866.11,601.03 995.627,536.165 1125.14,467.68 1254.66,423.92 1384.18,416.113 1513.69,434.706 1643.21,465.755 1772.73,499.796 1902.24,531.94 "/>
<polyline clip-path="url(#clip692)" style="stroke:#0000ff; stroke-linecap:round; stroke-linejoin:round; stroke-width:4; stroke-opacity:0.1; fill:none" points="218.526,688.494 348.043,688.166 477.56,687.738 607.077,687.181 736.593,686.458 866.11,685.524 995.627,684.319 1125.14,682.775 1254.66,680.808 1384.18,678.325 1513.69,675.223 1643.21,671.402 1772.73,666.779 1902.24,661.307 "/>
<polyline clip-path="url(#clip692)" style="stroke:#0000ff; stroke-linecap:round; stroke-linejoin:round; stroke-width:4; stroke-opacity:0.1; fill:none" points="218.526,688.593 348.043,688.413 477.56,688.199 607.077,687.946 736.593,687.649 866.11,687.299 995.627,686.889 1125.14,686.408 1254.66,685.847 1384.18,685.195 1513.69,684.439 1643.21,683.568 1772.73,682.571 1902.24,681.437 "/>
<polyline clip-path="url(#clip692)" style="stroke:#0000ff; stroke-linecap:round; stroke-linejoin:round; stroke-width:4; stroke-opacity:0.1; fill:none" points="218.526,688.494 348.043,688.166 477.56,687.738 607.077,687.181 736.593,686.458 866.11,685.524 995.627,684.319 1125.14,682.775 1254.66,680.808 1384.18,678.325 1513.69,675.223 1643.21,671.402 1772.73,666.779 1902.24,661.307 "/>
<polyline clip-path="url(#clip692)" style="stroke:#0000ff; stroke-linecap:round; stroke-linejoin:round; stroke-width:4; stroke-opacity:0.1; fill:none" points="218.526,687.53 348.043,684.527 477.56,677.236 607.077,660.218 736.593,623.959 866.11,560.189 995.627,480.821 1125.14,422.744 1254.66,408.447 1384.18,427.956 1513.69,462.655 1643.21,500.247 1772.73,535.006 1902.24,564.992 "/>
<polyline clip-path="url(#clip692)" style="stroke:#0000ff; stroke-linecap:round; stroke-linejoin:round; stroke-width:4; stroke-opacity:0.1; fill:none" points="218.526,686.675 348.043,679.502 477.56,656.215 607.077,594.341 736.593,494.931 866.11,434.515 995.627,449.162 1125.14,497.57 1254.66,547.304 1384.18,587.777 1513.69,618.027 1643.21,639.782 1772.73,655.124 1902.24,665.821 "/>
<polyline clip-path="url(#clip692)" style="stroke:#0000ff; stroke-linecap:round; stroke-linejoin:round; stroke-width:4; stroke-opacity:0.1; fill:none" points="218.526,688.45 348.043,688.046 477.56,687.498 607.077,686.755 736.593,685.751 866.11,684.398 995.627,682.584 1125.14,680.167 1254.66,676.974 1384.18,672.803 1513.69,667.438 1643.21,660.671 1772.73,652.357 1902.24,642.475 "/>
<polyline clip-path="url(#clip692)" style="stroke:#0000ff; stroke-linecap:round; stroke-linejoin:round; stroke-width:4; stroke-opacity:0.1; fill:none" points="218.526,685.219 348.043,667.285 477.56,592.89 607.077,439.882 736.593,371.224 866.11,414.79 995.627,482.003 1125.14,539.649 1254.66,583.175 1384.18,614.67 1513.69,637.062 1643.21,652.844 1772.73,663.92 1902.24,671.669 "/>
<polyline clip-path="url(#clip692)" style="stroke:#0000ff; stroke-linecap:round; stroke-linejoin:round; stroke-width:4; stroke-opacity:0.1; fill:none" points="218.526,688.686 348.043,688.622 477.56,688.552 607.077,688.478 736.593,688.399 866.11,688.313 995.627,688.222 1125.14,688.124 1254.66,688.018 1384.18,687.906 1513.69,687.785 1643.21,687.655 1772.73,687.516 1902.24,687.368 "/>
<polyline clip-path="url(#clip692)" style="stroke:#0000ff; stroke-linecap:round; stroke-linejoin:round; stroke-width:4; stroke-opacity:0.1; fill:none" points="218.526,686.529 348.043,678.459 477.56,650.913 607.077,574.606 736.593,449.956 866.11,372.141 995.627,380.486 1125.14,427.957 1254.66,480.455 1384.18,526.507 1513.69,563.914 1643.21,593.34 1772.73,616.139 1902.24,633.658 "/>
<polyline clip-path="url(#clip692)" style="stroke:#0000ff; stroke-linecap:round; stroke-linejoin:round; stroke-width:4; stroke-opacity:0.1; fill:none" points="218.526,688.385 348.043,687.865 477.56,687.116 607.077,686.04 736.593,684.498 866.11,682.292 995.627,679.152 1125.14,674.704 1254.66,668.459 1384.18,659.79 1513.69,647.949 1643.21,632.129 1772.73,611.619 1902.24,586.052 "/>
<polyline clip-path="url(#clip692)" style="stroke:#0000ff; stroke-linecap:round; stroke-linejoin:round; stroke-width:4; stroke-opacity:0.1; fill:none" points="218.526,681.187 348.043,612.68 477.56,327.874 607.077,136.822 736.593,125.82 866.11,145.62 995.627,168.074 1125.14,189.993 1254.66,211.04 1384.18,231.207 1513.69,250.526 1643.21,269.03 1772.73,286.754 1902.24,303.731 "/>
<polyline clip-path="url(#clip692)" style="stroke:#0000ff; stroke-linecap:round; stroke-linejoin:round; stroke-width:4; stroke-opacity:0.1; fill:none" points="218.526,689.023 348.043,689.206 477.56,689.327 607.077,689.407 736.593,689.46 866.11,689.495 995.627,689.518 1125.14,689.534 1254.66,689.544 1384.18,689.551 1513.69,689.555 1643.21,689.558 1772.73,689.56 1902.24,689.561 "/>
<polyline clip-path="url(#clip692)" style="stroke:#0000ff; stroke-linecap:round; stroke-linejoin:round; stroke-width:4; stroke-opacity:0.1; fill:none" points="218.526,684.062 348.043,654.341 477.56,517.842 607.077,300.171 736.593,248.369 866.11,291.939 995.627,349.194 1125.14,401.796 1254.66,447.127 1384.18,485.562 1513.69,517.983 1643.21,545.282 1772.73,568.249 1902.24,587.566 "/>
<polyline clip-path="url(#clip692)" style="stroke:#0000ff; stroke-linecap:round; stroke-linejoin:round; stroke-width:4; stroke-opacity:0.1; fill:none" points="218.526,688.344 348.043,687.746 477.56,686.856 607.077,685.536 736.593,683.583 866.11,680.706 995.627,676.498 1125.14,670.403 1254.66,661.701 1384.18,649.526 1513.69,632.988 1643.21,611.398 1772.73,584.703 1902.24,553.916 "/>
<polyline clip-path="url(#clip692)" style="stroke:#0000ff; stroke-linecap:round; stroke-linejoin:round; stroke-width:4; stroke-opacity:0.1; fill:none" points="218.526,688.332 348.043,687.71 477.56,686.777 607.077,685.382 736.593,683.309 866.11,680.248 995.627,675.78 1125.14,669.363 1254.66,660.361 1384.18,648.151 1513.69,632.356 1643.21,613.2 1772.73,591.87 1902.24,570.611 "/>
<polyline clip-path="url(#clip692)" style="stroke:#0000ff; stroke-linecap:round; stroke-linejoin:round; stroke-width:4; stroke-opacity:0.1; fill:none" points="218.526,686.837 348.043,680.562 477.56,660.858 607.077,606.943 736.593,503.362 866.11,402.708 995.627,374.661 1125.14,403.717 1254.66,451.584 1384.18,498.89 1513.69,539.573 1643.21,572.697 1772.73,598.994 1902.24,619.601 "/>
<polyline clip-path="url(#clip692)" style="stroke:#0000ff; stroke-linecap:round; stroke-linejoin:round; stroke-width:4; stroke-opacity:0.1; fill:none" points="218.526,687.561 348.043,684.676 477.56,677.755 607.077,661.705 736.593,627.267 866.11,564.543 995.627,479.831 1125.14,407.236 1254.66,376.428 1384.18,384.386 1513.69,413.321 1643.21,449.413 1772.73,485.34 1902.24,518.072 "/>
<polyline clip-path="url(#clip692)" style="stroke:#0000ff; stroke-linecap:round; stroke-linejoin:round; stroke-width:4; stroke-opacity:0.1; fill:none" points="218.526,688.867 348.043,688.97 477.56,689.058 607.077,689.133 736.593,689.197 866.11,689.251 995.627,689.297 1125.14,689.337 1254.66,689.37 1384.18,689.399 1513.69,689.423 1643.21,689.444 1772.73,689.462 1902.24,689.477 "/>
<polyline clip-path="url(#clip692)" style="stroke:#0000ff; stroke-linecap:round; stroke-linejoin:round; stroke-width:4; stroke-opacity:0.1; fill:none" points="218.526,688.131 348.043,687.057 477.56,685.192 607.077,681.983 736.593,676.546 866.11,667.572 995.627,653.395 1125.14,632.539 1254.66,605.043 1384.18,574.192 1513.69,546.592 1643.21,529.196 1772.73,525.228 1902.24,533.109 "/>
<polyline clip-path="url(#clip692)" style="stroke:#0000ff; stroke-linecap:round; stroke-linejoin:round; stroke-width:4; stroke-opacity:0.1; fill:none" points="218.526,686.518 348.043,678.334 477.56,649.682 607.077,564.14 736.593,396.289 866.11,237.42 995.627,171.611 1125.14,166.164 1254.66,182.065 1384.18,203.82 1513.69,226.566 1643.21,248.856 1772.73,270.275 1902.24,290.725 "/>
<polyline clip-path="url(#clip692)" style="stroke:#0000ff; stroke-linecap:round; stroke-linejoin:round; stroke-width:4; stroke-opacity:0.1; fill:none" points="218.526,686.489 348.043,678.148 477.56,649.14 607.077,566.475 736.593,424.868 866.11,325.599 995.627,318.587 1125.14,357.551 1254.66,406.758 1384.18,453.353 1513.69,493.953 1643.21,528.243 1772.73,556.811 1902.24,580.456 "/>
<polyline clip-path="url(#clip692)" style="stroke:#0000ff; stroke-linecap:round; stroke-linejoin:round; stroke-width:4; stroke-opacity:0.1; fill:none" points="218.526,687.185 348.043,682.69 477.56,670.099 607.077,637.378 736.593,566.975 866.11,464.715 995.627,386.586 1125.14,369.86 1254.66,395.842 1384.18,437.488 1513.69,480.21 1643.21,518.582 1772.73,551.187 1902.24,578.171 "/>
<polyline clip-path="url(#clip692)" style="stroke:#0000ff; stroke-linecap:round; stroke-linejoin:round; stroke-width:4; stroke-opacity:0.1; fill:none" points="218.526,683.038 348.043,640.832 477.56,443.868 607.077,206.558 736.593,166.807 866.11,194.455 995.627,230.713 1125.14,265.895 1254.66,298.661 1384.18,328.95 1513.69,356.904 1643.21,382.694 1772.73,406.486 1902.24,428.433 "/>
<polyline clip-path="url(#clip692)" style="stroke:#0000ff; stroke-linecap:round; stroke-linejoin:round; stroke-width:4; stroke-opacity:0.1; fill:none" points="218.526,687.386 348.043,683.788 477.56,674.409 607.077,650.888 736.593,597.244 866.11,497.722 995.627,369.538 1125.14,268.135 1254.66,221.915 1384.18,216.492 1513.69,231.163 1643.21,253.767 1772.73,278.778 1902.24,303.872 "/>
<polyline clip-path="url(#clip692)" style="stroke:#0000ff; stroke-linecap:round; stroke-linejoin:round; stroke-width:4; stroke-opacity:0.1; fill:none" points="218.526,685.594 348.043,670.871 477.56,612.661 607.077,482.753 736.593,402.66 866.11,433.819 995.627,498.099 1125.14,554.969 1254.66,597.351 1384.18,627.144 1513.69,647.577 1643.21,661.422 1772.73,670.74 1902.24,676.99 "/>
<polyline clip-path="url(#clip692)" style="stroke:#0000ff; stroke-linecap:round; stroke-linejoin:round; stroke-width:4; stroke-opacity:0.1; fill:none" points="218.526,679.599 348.043,585.431 477.56,250.139 607.077,101.037 736.593,93.235 866.11,102.084 995.627,112.243 1125.14,122.356 1254.66,132.304 1384.18,142.078 1513.69,151.681 1643.21,161.116 1772.73,170.385 1902.24,179.491 "/>
<polyline clip-path="url(#clip692)" style="stroke:#0000ff; stroke-linecap:round; stroke-linejoin:round; stroke-width:4; stroke-opacity:0.1; fill:none" points="218.526,687.724 348.043,685.441 477.56,680.404 607.077,669.609 736.593,647.839 866.11,609.028 995.627,553.808 1125.14,499.197 1254.66,469.124 1384.18,470.729 1513.69,493.687 1643.21,525.096 1772.73,556.775 1902.24,584.87 "/>
<polyline clip-path="url(#clip692)" style="stroke:#0000ff; stroke-linecap:round; stroke-linejoin:round; stroke-width:4; stroke-opacity:0.1; fill:none" points="218.526,688.865 348.043,688.966 477.56,689.053 607.077,689.128 736.593,689.191 866.11,689.246 995.627,689.292 1125.14,689.332 1254.66,689.366 1384.18,689.395 1513.69,689.42 1643.21,689.441 1772.73,689.459 1902.24,689.474 "/>
<polyline clip-path="url(#clip692)" style="stroke:#0000ff; stroke-linecap:round; stroke-linejoin:round; stroke-width:4; stroke-opacity:0.1; fill:none" points="218.526,686.957 348.043,681.344 477.56,664.522 607.077,620.436 736.593,537.986 866.11,458.809 995.627,441.167 1125.14,473.362 1254.66,520.35 1384.18,563.729 1513.69,598.405 1643.21,624.465 1772.73,643.465 1902.24,657.087 "/>
<polyline clip-path="url(#clip692)" style="stroke:#0000ff; stroke-linecap:round; stroke-linejoin:round; stroke-width:4; stroke-opacity:0.1; fill:none" points="218.526,686.598 348.043,678.96 477.56,653.549 607.077,585.021 736.593,476.025 866.11,412.29 995.627,427.882 1125.14,477.648 1254.66,528.985 1384.18,571.525 1513.69,604.108 1643.21,628.213 1772.73,645.737 1902.24,658.348 "/>
<polyline clip-path="url(#clip692)" style="stroke:#0000ff; stroke-linecap:round; stroke-linejoin:round; stroke-width:4; stroke-opacity:0.1; fill:none" points="218.526,687.801 348.043,685.771 477.56,681.441 607.077,672.344 736.593,653.822 866.11,618.414 995.627,558.319 1125.14,474.844 1254.66,387.87 1384.18,324.474 1513.69,295.708 1643.21,294.966 1772.73,310.885 1902.24,334.86 "/>
<polyline clip-path="url(#clip692)" style="stroke:#0000ff; stroke-linecap:round; stroke-linejoin:round; stroke-width:4; stroke-opacity:0.1; fill:none" points="218.526,686.937 348.043,681.194 477.56,663.556 607.077,614.543 736.593,509.626 866.11,376.357 995.627,297.641 1125.14,290.049 1254.66,318.707 1384.18,358.384 1513.69,398.625 1643.21,435.861 1772.73,469.127 1902.24,498.391 "/>
<polyline clip-path="url(#clip692)" style="stroke:#0000ff; stroke-linecap:round; stroke-linejoin:round; stroke-width:4; stroke-opacity:0.1; fill:none" points="218.526,687.415 348.043,683.95 477.56,675.128 607.077,653.892 736.593,609.125 866.11,537.657 995.627,467.413 1125.14,437.581 1254.66,450.83 1384.18,485.729 1513.69,525.218 1643.21,561.101 1772.73,590.931 1902.24,614.647 "/>
<polyline clip-path="url(#clip692)" style="stroke:#0000ff; stroke-linecap:round; stroke-linejoin:round; stroke-width:4; stroke-opacity:0.1; fill:none" points="218.526,681.776 348.043,623.201 477.56,394.42 607.077,270.94 736.593,322.623 866.11,396.28 995.627,459.426 1125.14,509.835 1254.66,549.422 1384.18,580.358 1513.69,604.489 1643.21,623.299 1772.73,637.954 1902.24,649.37 "/>
<polyline clip-path="url(#clip692)" style="stroke:#0000ff; stroke-linecap:round; stroke-linejoin:round; stroke-width:4; stroke-opacity:0.1; fill:none" points="218.526,688.652 348.043,688.547 477.56,688.429 607.077,688.299 736.593,688.154 866.11,687.992 995.627,687.812 1125.14,687.612 1254.66,687.39 1384.18,687.144 1513.69,686.87 1643.21,686.566 1772.73,686.23 1902.24,685.858 "/>
<polyline clip-path="url(#clip692)" style="stroke:#0000ff; stroke-linecap:round; stroke-linejoin:round; stroke-width:4; stroke-opacity:0.1; fill:none" points="218.526,688.127 348.043,687.044 477.56,685.159 607.077,681.912 736.593,676.414 866.11,667.369 995.627,653.188 1125.14,632.629 1254.66,606.196 1384.18,577.717 1513.69,553.874 1643.21,540.861 1772.73,540.705 1902.24,550.997 "/>
<polyline clip-path="url(#clip692)" style="stroke:#0000ff; stroke-linecap:round; stroke-linejoin:round; stroke-width:4; stroke-opacity:0.1; fill:none" points="218.526,682.456 348.043,633.318 477.56,431.435 607.077,289.374 736.593,332.538 866.11,407.57 995.627,472.596 1125.14,523.825 1254.66,563.276 1384.18,593.438 1513.69,616.433 1643.21,633.943 1772.73,647.267 1902.24,657.402 "/>
<polyline clip-path="url(#clip692)" style="stroke:#0000ff; stroke-linecap:round; stroke-linejoin:round; stroke-width:4; stroke-opacity:0.1; fill:none" points="218.526,686.719 348.043,679.765 477.56,656.985 607.077,592.39 736.593,466.612 866.11,345.198 995.627,305.967 1125.14,327.718 1254.66,370.702 1384.18,416.15 1513.69,457.862 1643.21,494.293 1772.73,525.462 1902.24,551.871 "/>
<polyline clip-path="url(#clip692)" style="stroke:#0000ff; stroke-linecap:round; stroke-linejoin:round; stroke-width:4; stroke-opacity:0.1; fill:none" points="218.526,687.098 348.043,682.179 477.56,667.894 607.077,629.553 736.593,545.463 866.11,424.104 995.627,332.87 1125.14,309.469 1254.66,330.573 1384.18,368.485 1513.69,409.273 1643.21,447.656 1772.73,481.98 1902.24,511.985 "/>
<polyline clip-path="url(#clip692)" style="stroke:#0000ff; stroke-linecap:round; stroke-linejoin:round; stroke-width:4; stroke-opacity:0.1; fill:none" points="218.526,685.813 348.043,672.69 477.56,619.765 607.077,472.372 736.593,297.427 866.11,239.068 995.627,259.764 1125.14,301.996 1254.66,345.958 1384.18,386.629 1513.69,423.033 1643.21,455.258 1772.73,483.663 1902.24,508.657 "/>
<polyline clip-path="url(#clip692)" style="stroke:#0000ff; stroke-linecap:round; stroke-linejoin:round; stroke-width:4; stroke-opacity:0.1; fill:none" points="218.526,688.329 348.043,687.701 477.56,686.758 607.077,685.351 736.593,683.261 866.11,680.192 995.627,675.751 1125.14,669.464 1254.66,660.84 1384.18,649.539 1513.69,635.624 1643.21,619.894 1772.73,604.029 1902.24,590.305 "/>
<polyline clip-path="url(#clip692)" style="stroke:#0000ff; stroke-linecap:round; stroke-linejoin:round; stroke-width:4; stroke-opacity:0.1; fill:none" points="218.526,687.213 348.043,682.846 477.56,670.703 607.077,639.097 736.593,569.43 866.11,461.254 995.627,366.383 1125.14,331.597 1254.66,345.72 1384.18,381.433 1513.69,422.244 1643.21,461.29 1772.73,496.223 1902.24,526.551 "/>
<polyline clip-path="url(#clip692)" style="stroke:#0000ff; stroke-linecap:round; stroke-linejoin:round; stroke-width:4; stroke-opacity:0.1; fill:none" points="218.526,687.505 348.043,684.4 477.56,676.731 607.077,658.395 736.593,617.771 866.11,541.368 995.627,434.843 1125.14,338.816 1254.66,288.979 1384.18,282.654 1513.69,301.003 1643.21,329.716 1772.73,361.33 1902.24,392.493 "/>
<polyline clip-path="url(#clip692)" style="stroke:#0000ff; stroke-linecap:round; stroke-linejoin:round; stroke-width:4; stroke-opacity:0.1; fill:none" points="218.526,688.511 348.043,688.208 477.56,687.82 607.077,687.322 736.593,686.685 866.11,685.873 995.627,684.841 1125.14,683.534 1254.66,681.889 1384.18,679.832 1513.69,677.282 1643.21,674.157 1772.73,670.38 1902.24,665.893 "/>
<polyline clip-path="url(#clip692)" style="stroke:#0000ff; stroke-linecap:round; stroke-linejoin:round; stroke-width:4; stroke-opacity:0.1; fill:none" points="218.526,688.133 348.043,687.068 477.56,685.231 607.077,682.114 736.593,676.951 866.11,668.757 995.627,656.622 1125.14,640.529 1254.66,622.486 1384.18,606.83 1513.69,598.207 1643.21,598.691 1772.73,606.821 1902.24,619.228 "/>
<polyline clip-path="url(#clip692)" style="stroke:#0000ff; stroke-linecap:round; stroke-linejoin:round; stroke-width:4; stroke-opacity:0.1; fill:none" points="218.526,687.774 348.043,685.659 477.56,681.099 607.077,671.47 736.593,652.005 866.11,615.956 995.627,559.215 1125.14,490.855 1254.66,434.88 1384.18,410.117 1513.69,415.482 1643.21,439.154 1772.73,470.441 1902.24,502.671 "/>
<polyline clip-path="url(#clip692)" style="stroke:#0000ff; stroke-linecap:round; stroke-linejoin:round; stroke-width:4; stroke-opacity:0.1; fill:none" points="218.526,685.853 348.043,673.086 477.56,622.809 607.077,489.948 736.593,349.623 866.11,325.207 995.627,369.399 1125.14,426.569 1254.66,478.635 1384.18,522.017 1513.69,557.065 1643.21,585.018 1772.73,607.179 1902.24,624.692 "/>
<polyline clip-path="url(#clip692)" style="stroke:#0000ff; stroke-linecap:round; stroke-linejoin:round; stroke-width:4; stroke-opacity:0.1; fill:none" points="218.526,688.012 348.043,686.622 477.56,684 607.077,679.085 736.593,669.986 866.11,653.522 995.627,624.929 1125.14,578.66 1254.66,511.788 1384.18,429.705 1513.69,347.682 1643.21,282.405 1772.73,241.556 1902.24,222.91 "/>
<polyline clip-path="url(#clip692)" style="stroke:#0000ff; stroke-linecap:round; stroke-linejoin:round; stroke-width:4; stroke-opacity:0.1; fill:none" points="218.526,660.7 348.043,354.536 477.56,326.609 607.077,445.511 736.593,531.625 866.11,587.93 995.627,624.256 1125.14,647.62 1254.66,662.632 1384.18,672.273 1513.69,678.463 1643.21,682.437 1772.73,684.989 1902.24,686.627 "/>
<polyline clip-path="url(#clip692)" style="stroke:#0000ff; stroke-linecap:round; stroke-linejoin:round; stroke-width:4; stroke-opacity:0.1; fill:none" points="218.526,688.673 348.043,688.595 477.56,688.51 607.077,688.42 736.593,688.323 866.11,688.22 995.627,688.11 1125.14,687.993 1254.66,687.87 1384.18,687.74 1513.69,687.605 1643.21,687.463 1772.73,687.316 1902.24,687.164 "/>
<polyline clip-path="url(#clip692)" style="stroke:#0000ff; stroke-linecap:round; stroke-linejoin:round; stroke-width:4; stroke-opacity:0.1; fill:none" points="218.526,687.181 348.043,682.68 477.56,670.163 607.077,638.431 736.593,574.401 866.11,493.383 995.627,448.248 1125.14,457.588 1254.66,495.643 1384.18,538.82 1513.69,576.669 1643.21,606.735 1772.73,629.509 1902.24,646.339 "/>
<polyline clip-path="url(#clip692)" style="stroke:#0000ff; stroke-linecap:round; stroke-linejoin:round; stroke-width:4; stroke-opacity:0.1; fill:none" points="218.526,688.678 348.043,688.604 477.56,688.524 607.077,688.438 736.593,688.345 866.11,688.244 995.627,688.135 1125.14,688.018 1254.66,687.891 1384.18,687.754 1513.69,687.607 1643.21,687.448 1772.73,687.277 1902.24,687.093 "/>
<polyline clip-path="url(#clip692)" style="stroke:#0000ff; stroke-linecap:round; stroke-linejoin:round; stroke-width:4; stroke-opacity:0.1; fill:none" points="218.526,687.641 348.043,685.061 477.56,679.128 607.077,665.945 736.593,638.789 866.11,590.912 995.627,527.345 1125.14,473.585 1254.66,453.651 1384.18,466.289 1513.69,496.193 1643.21,530.744 1772.73,563.083 1902.24,590.706 "/>
<polyline clip-path="url(#clip692)" style="stroke:#0000ff; stroke-linecap:round; stroke-linejoin:round; stroke-width:4; stroke-opacity:0.1; fill:none" points="218.526,680.233 348.043,600.373 477.56,366.184 607.077,345.304 736.593,435.219 866.11,513.877 995.627,570.162 1125.14,608.849 1254.66,635.123 1384.18,652.884 1513.69,664.866 1643.21,672.94 1772.73,678.375 1902.24,682.035 "/>
<polyline clip-path="url(#clip692)" style="stroke:#0000ff; stroke-linecap:round; stroke-linejoin:round; stroke-width:4; stroke-opacity:0.1; fill:none" points="218.526,687.455 348.043,684.152 477.56,675.851 607.077,655.895 736.593,612.696 866.11,537.842 995.627,450.408 1125.14,394.006 1254.66,385.984 1384.18,410.227 1513.69,447.304 1643.21,485.913 1772.73,521.281 1902.24,551.884 "/>
<polyline clip-path="url(#clip692)" style="stroke:#0000ff; stroke-linecap:round; stroke-linejoin:round; stroke-width:4; stroke-opacity:0.1; fill:none" points="218.526,687.665 348.043,685.168 477.56,679.476 607.077,666.845 736.593,640.469 866.11,591.877 995.627,520.876 1125.14,448.945 1254.66,406.339 1384.18,401.596 1513.69,422.636 1643.21,455.129 1772.73,489.912 1902.24,522.566 "/>
<polyline clip-path="url(#clip692)" style="stroke:#0000ff; stroke-linecap:round; stroke-linejoin:round; stroke-width:4; stroke-opacity:0.1; fill:none" points="218.526,686.618 348.043,679.089 477.56,653.974 607.077,584.503 736.593,465.285 866.11,380.476 995.627,380.287 1125.14,424.139 1254.66,476.002 1384.18,522.493 1513.69,560.609 1643.21,590.734 1772.73,614.129 1902.24,632.127 "/>
<polyline clip-path="url(#clip692)" style="stroke:#0000ff; stroke-linecap:round; stroke-linejoin:round; stroke-width:4; stroke-opacity:0.1; fill:none" points="218.526,685.452 348.043,669.469 477.56,603.289 607.077,446.421 736.593,334.153 866.11,347.772 995.627,406.558 1125.14,466.134 1254.66,516.154 1384.18,555.931 1513.69,586.932 1643.21,610.883 1772.73,629.308 1902.24,643.447 "/>
<polyline clip-path="url(#clip692)" style="stroke:#0000ff; stroke-linecap:round; stroke-linejoin:round; stroke-width:4; stroke-opacity:0.1; fill:none" points="218.526,687.608 348.043,684.907 477.56,678.589 607.077,664.318 736.593,634.51 866.11,581.566 995.627,511.578 1125.14,453.382 1254.66,432.261 1384.18,445.415 1513.69,476.35 1643.21,512.169 1772.73,545.981 1902.24,575.257 "/>
<polyline clip-path="url(#clip692)" style="stroke:#0000ff; stroke-linecap:round; stroke-linejoin:round; stroke-width:4; stroke-opacity:0.1; fill:none" points="218.526,686.21 348.043,676.009 477.56,637.884 607.077,527.27 736.593,356.42 866.11,259.557 995.627,257.6 1125.14,293.108 1254.66,336.301 1384.18,378.001 1513.69,415.85 1643.21,449.495 1772.73,479.161 1902.24,505.231 "/>
<polyline clip-path="url(#clip692)" style="stroke:#0000ff; stroke-linecap:round; stroke-linejoin:round; stroke-width:4; stroke-opacity:0.1; fill:none" points="218.526,684.774 348.043,662.517 477.56,562.858 607.077,358.384 736.593,262.459 866.11,288.623 995.627,343.983 1125.14,398.284 1254.66,445.7 1384.18,485.882 1513.69,519.608 1643.21,547.811 1772.73,571.361 1902.24,591.01 "/>
<polyline clip-path="url(#clip692)" style="stroke:#0000ff; stroke-linecap:round; stroke-linejoin:round; stroke-width:4; stroke-opacity:0.1; fill:none" points="218.526,687.453 348.043,684.137 477.56,675.752 607.077,655.286 736.593,609.412 866.11,523.86 995.627,409.329 1125.14,313.221 1254.66,268.072 1384.18,265.256 1513.69,284.674 1643.21,312.911 1772.73,343.444 1902.24,373.439 "/>
<polyline clip-path="url(#clip692)" style="stroke:#0000ff; stroke-linecap:round; stroke-linejoin:round; stroke-width:4; stroke-opacity:0.1; fill:none" points="218.526,688.265 348.043,687.501 477.56,686.292 607.077,684.385 736.593,681.392 866.11,676.729 995.627,669.555 1125.14,658.725 1254.66,642.833 1384.18,620.495 1513.69,590.943 1643.21,554.987 1772.73,515.786 1902.24,478.451 "/>
<polyline clip-path="url(#clip692)" style="stroke:#0000ff; stroke-linecap:round; stroke-linejoin:round; stroke-width:4; stroke-opacity:0.1; fill:none" points="218.526,682.459 348.043,633.337 477.56,430.798 607.077,286.369 736.593,327.986 866.11,402.349 995.627,467.242 1125.14,518.679 1254.66,558.531 1384.18,589.191 1513.69,612.713 1643.21,630.738 1772.73,644.542 1902.24,655.11 "/>
<polyline clip-path="url(#clip692)" style="stroke:#0000ff; stroke-linecap:round; stroke-linejoin:round; stroke-width:4; stroke-opacity:0.1; fill:none" points="218.526,682.408 348.043,632.294 477.56,418.819 607.077,249.587 736.593,273.322 866.11,337.345 995.627,397.722 1125.14,448.92 1254.66,491.414 1384.18,526.482 1513.69,555.371 1643.21,579.152 1772.73,598.723 1902.24,614.827 "/>
<polyline clip-path="url(#clip692)" style="stroke:#0000ff; stroke-linecap:round; stroke-linejoin:round; stroke-width:4; stroke-opacity:0.1; fill:none" points="218.526,687.735 348.043,685.495 477.56,680.619 607.077,670.404 736.593,650.666 866.11,618.148 995.627,577.927 1125.14,547.194 1254.66,540.692 1384.18,556.063 1513.69,581.549 1643.21,607.659 1772.73,629.903 1902.24,647.186 "/>
<polyline clip-path="url(#clip692)" style="stroke:#0000ff; stroke-linecap:round; stroke-linejoin:round; stroke-width:4; stroke-opacity:0.1; fill:none" points="218.526,687.905 348.043,686.202 477.56,682.78 607.077,675.978 736.593,662.764 866.11,638.2 995.627,596.115 1125.14,533.384 1254.66,457.781 1384.18,389.06 1513.69,345.263 1643.21,330.176 1772.73,336.815 1902.24,356.166 "/>
<polyline clip-path="url(#clip692)" style="stroke:#0000ff; stroke-linecap:round; stroke-linejoin:round; stroke-width:4; stroke-opacity:0.1; fill:none" points="218.526,687.058 348.043,681.942 477.56,666.926 607.077,626.7 736.593,541.39 866.11,429.033 995.627,359.428 1125.14,356.269 1254.66,389.865 1384.18,434.036 1513.69,477.026 1643.21,514.956 1772.73,547.07 1902.24,573.721 "/>
<polyline clip-path="url(#clip692)" style="stroke:#0000ff; stroke-linecap:round; stroke-linejoin:round; stroke-width:4; stroke-opacity:0.1; fill:none" points="218.526,688.18 348.043,687.224 477.56,685.617 607.077,682.932 736.593,678.488 866.11,671.256 995.627,659.804 1125.14,642.44 1254.66,617.834 1384.18,586.282 1513.69,551.13 1643.21,518.641 1772.73,495.553 1902.24,485.559 "/>
<polyline clip-path="url(#clip692)" style="stroke:#0000ff; stroke-linecap:round; stroke-linejoin:round; stroke-width:4; stroke-opacity:0.1; fill:none" points="218.526,688.394 348.043,687.891 477.56,687.174 607.077,686.155 736.593,684.715 866.11,682.688 995.627,679.858 1125.14,675.954 1254.66,670.652 1384.18,663.606 1513.69,654.518 1643.21,643.258 1772.73,630.024 1902.24,615.503 "/>
<polyline clip-path="url(#clip692)" style="stroke:#0000ff; stroke-linecap:round; stroke-linejoin:round; stroke-width:4; stroke-opacity:0.1; fill:none" points="218.526,688.81 348.043,688.869 477.56,688.923 607.077,688.973 736.593,689.019 866.11,689.062 995.627,689.101 1125.14,689.137 1254.66,689.17 1384.18,689.201 1513.69,689.229 1643.21,689.256 1772.73,689.28 1902.24,689.302 "/>
<polyline clip-path="url(#clip692)" style="stroke:#0000ff; stroke-linecap:round; stroke-linejoin:round; stroke-width:4; stroke-opacity:0.1; fill:none" points="218.526,688.766 348.043,688.786 477.56,688.805 607.077,688.824 736.593,688.842 866.11,688.859 995.627,688.877 1125.14,688.894 1254.66,688.91 1384.18,688.926 1513.69,688.942 1643.21,688.957 1772.73,688.972 1902.24,688.987 "/>
<polyline clip-path="url(#clip692)" style="stroke:#0000ff; stroke-linecap:round; stroke-linejoin:round; stroke-width:4; stroke-opacity:0.1; fill:none" points="218.526,688.468 348.043,688.096 477.56,687.599 607.077,686.936 736.593,686.051 866.11,684.875 995.627,683.316 1125.14,681.257 1254.66,678.553 1384.18,675.026 1513.69,670.467 1643.21,664.647 1772.73,657.329 1902.24,648.313 "/>
<polyline clip-path="url(#clip692)" style="stroke:#0000ff; stroke-linecap:round; stroke-linejoin:round; stroke-width:4; stroke-opacity:0.1; fill:none" points="218.526,686.518 348.043,678.36 477.56,650.187 607.077,569.837 736.593,429.568 866.11,326.667 995.627,315.689 1125.14,352.736 1254.66,401.301 1384.18,447.837 1513.69,488.646 1643.21,523.274 1772.73,552.241 1902.24,576.305 "/>
<polyline clip-path="url(#clip692)" style="stroke:#0000ff; stroke-linecap:round; stroke-linejoin:round; stroke-width:4; stroke-opacity:0.1; fill:none" points="218.526,688.75 348.043,688.755 477.56,688.759 607.077,688.764 736.593,688.768 866.11,688.773 995.627,688.777 1125.14,688.782 1254.66,688.787 1384.18,688.792 1513.69,688.796 1643.21,688.801 1772.73,688.806 1902.24,688.811 "/>
<polyline clip-path="url(#clip692)" style="stroke:#0000ff; stroke-linecap:round; stroke-linejoin:round; stroke-width:4; stroke-opacity:0.1; fill:none" points="218.526,688.346 348.043,687.752 477.56,686.871 607.077,685.568 736.593,683.647 866.11,680.833 995.627,676.744 1125.14,670.877 1254.66,662.607 1384.18,651.242 1513.69,636.176 1643.21,617.15 1772.73,594.648 1902.24,570.176 "/>
<polyline clip-path="url(#clip692)" style="stroke:#0000ff; stroke-linecap:round; stroke-linejoin:round; stroke-width:4; stroke-opacity:0.1; fill:none" points="218.526,686.61 348.043,679.054 477.56,654.133 607.077,588.152 736.593,487.199 866.11,434.185 995.627,455.845 1125.14,506.612 1254.66,555.97 1384.18,595.137 1513.69,623.922 1643.21,644.353 1772.73,658.597 1902.24,668.421 "/>
<polyline clip-path="url(#clip692)" style="stroke:#0000ff; stroke-linecap:round; stroke-linejoin:round; stroke-width:4; stroke-opacity:0.1; fill:none" points="218.526,688.644 348.043,688.528 477.56,688.399 607.077,688.254 736.593,688.092 866.11,687.91 995.627,687.706 1125.14,687.478 1254.66,687.224 1384.18,686.94 1513.69,686.624 1643.21,686.273 1772.73,685.883 1902.24,685.452 "/>
<polyline clip-path="url(#clip692)" style="stroke:#0000ff; stroke-linecap:round; stroke-linejoin:round; stroke-width:4; stroke-opacity:0.1; fill:none" points="218.526,688.729 348.043,688.712 477.56,688.695 607.077,688.677 736.593,688.659 866.11,688.64 995.627,688.621 1125.14,688.602 1254.66,688.582 1384.18,688.563 1513.69,688.542 1643.21,688.522 1772.73,688.501 1902.24,688.48 "/>
<polyline clip-path="url(#clip692)" style="stroke:#0000ff; stroke-linecap:round; stroke-linejoin:round; stroke-width:4; stroke-opacity:0.1; fill:none" points="218.526,686.038 348.043,674.632 477.56,630.871 607.077,509.412 736.593,353.931 866.11,299.059 995.627,326.75 1125.14,377.93 1254.66,429.051 1384.18,474.031 1513.69,512.041 1643.21,543.662 1772.73,569.787 1902.24,591.298 "/>
<polyline clip-path="url(#clip692)" style="stroke:#0000ff; stroke-linecap:round; stroke-linejoin:round; stroke-width:4; stroke-opacity:0.1; fill:none" points="218.526,687.078 348.043,682.067 477.56,667.512 607.077,629.048 736.593,549.112 866.11,447.212 995.627,388.979 1125.14,393.743 1254.66,431.527 1384.18,477.072 1513.69,519.381 1643.21,555.232 1772.73,584.388 1902.24,607.612 "/>
<polyline clip-path="url(#clip692)" style="stroke:#0000ff; stroke-linecap:round; stroke-linejoin:round; stroke-width:4; stroke-opacity:0.1; fill:none" points="218.526,687.499 348.043,684.366 477.56,676.586 607.077,657.806 736.593,615.423 866.11,532.813 995.627,410.052 1125.14,286.77 1254.66,206.211 1384.18,171.929 1513.69,166.161 1643.21,173.979 1772.73,187.519 1902.24,203.198 "/>
<polyline clip-path="url(#clip692)" style="stroke:#0000ff; stroke-linecap:round; stroke-linejoin:round; stroke-width:4; stroke-opacity:0.1; fill:none" points="218.526,686.165 348.043,675.668 477.56,636.431 607.077,526.522 736.593,374.294 866.11,309.739 995.627,331.9 1125.14,382.072 1254.66,433.626 1384.18,479.217 1513.69,517.644 1643.21,549.432 1772.73,575.509 1902.24,596.811 "/>
<polyline clip-path="url(#clip692)" style="stroke:#0000ff; stroke-linecap:round; stroke-linejoin:round; stroke-width:4; stroke-opacity:0.1; fill:none" points="218.526,688.518 348.043,688.228 477.56,687.856 607.077,687.383 736.593,686.78 866.11,686.012 995.627,685.037 1125.14,683.801 1254.66,682.239 1384.18,680.27 1513.69,677.801 1643.21,674.719 1772.73,670.9 1902.24,666.206 "/>
<polyline clip-path="url(#clip692)" style="stroke:#0000ff; stroke-linecap:round; stroke-linejoin:round; stroke-width:4; stroke-opacity:0.1; fill:none" points="218.526,669.032 348.043,412.027 477.56,193.106 607.077,248.607 736.593,318.204 866.11,378.126 995.627,428.504 1125.14,470.75 1254.66,506.163 1384.18,535.845 1513.69,560.723 1643.21,581.575 1772.73,599.052 1902.24,613.701 "/>
<polyline clip-path="url(#clip692)" style="stroke:#ff0000; stroke-linecap:round; stroke-linejoin:round; stroke-width:4; stroke-opacity:1; fill:none" stroke-dasharray="16, 10" points="-1616.73,65.9524 3737.5,65.9524 "/>
</svg>
