<?xml version="1.0" encoding="utf-8"?>
<svg xmlns="http://www.w3.org/2000/svg" xmlns:xlink="http://www.w3.org/1999/xlink" width="600" height="300" viewBox="0 0 2400 1200">
<defs>
  <clipPath id="clip420">
    <rect x="0" y="0" width="2400" height="1200"/>
  </clipPath>
</defs>
<path clip-path="url(#clip420)" d="M0 1200 L2400 1200 L2400 0 L0 0  Z" fill="#ffffff" fill-rule="evenodd" fill-opacity="1"/>
<defs>
  <clipPath id="clip421">
    <rect x="480" y="0" width="1681" height="1200"/>
  </clipPath>
</defs>
<path clip-path="url(#clip420)" d="M172.015 1099.09 L2352.76 1099.09 L2352.76 47.2441 L172.015 47.2441  Z" fill="#ffffff" fill-rule="evenodd" fill-opacity="1"/>
<defs>
  <clipPath id="clip422">
    <rect x="172" y="47" width="2182" height="1053"/>
  </clipPath>
</defs>
<polyline clip-path="url(#clip422)" style="stroke:#000000; stroke-linecap:round; stroke-linejoin:round; stroke-width:2; stroke-opacity:0.1; fill:none" points="471.115,1099.09 471.115,47.2441 "/>
<polyline clip-path="url(#clip422)" style="stroke:#000000; stroke-linecap:round; stroke-linejoin:round; stroke-width:2; stroke-opacity:0.1; fill:none" points="866.75,1099.09 866.75,47.2441 "/>
<polyline clip-path="url(#clip422)" style="stroke:#000000; stroke-linecap:round; stroke-linejoin:round; stroke-width:2; stroke-opacity:0.1; fill:none" points="1262.39,1099.09 1262.39,47.2441 "/>
<polyline clip-path="url(#clip422)" style="stroke:#000000; stroke-linecap:round; stroke-linejoin:round; stroke-width:2; stroke-opacity:0.1; fill:none" points="1658.02,1099.09 1658.02,47.2441 "/>
<polyline clip-path="url(#clip422)" style="stroke:#000000; stroke-linecap:round; stroke-linejoin:round; stroke-width:2; stroke-opacity:0.1; fill:none" points="2053.66,1099.09 2053.66,47.2441 "/>
<polyline clip-path="url(#clip420)" style="stroke:#000000; stroke-linecap:round; stroke-linejoin:round; stroke-width:4; stroke-opacity:1; fill:none" points="172.015,1099.09 2352.76,1099.09 "/>
<polyline clip-path="url(#clip420)" style="stroke:#000000; stroke-linecap:round; stroke-linejoin:round; stroke-width:4; stroke-opacity:1; fill:none" points="471.115,1099.09 471.115,1080.19 "/>
<polyline clip-path="url(#clip420)" style="stroke:#000000; stroke-linecap:round; stroke-linejoin:round; stroke-width:4; stroke-opacity:1; fill:none" points="866.75,1099.09 866.75,1080.19 "/>
<polyline clip-path="url(#clip420)" style="stroke:#000000; stroke-linecap:round; stroke-linejoin:round; stroke-width:4; stroke-opacity:1; fill:none" points="1262.39,1099.09 1262.39,1080.19 "/>
<polyline clip-path="url(#clip420)" style="stroke:#000000; stroke-linecap:round; stroke-linejoin:round; stroke-width:4; stroke-opacity:1; fill:none" points="1658.02,1099.09 1658.02,1080.19 "/>
<polyline clip-path="url(#clip420)" style="stroke:#000000; stroke-linecap:round; stroke-linejoin:round; stroke-width:4; stroke-opacity:1; fill:none" points="2053.66,1099.09 2053.66,1080.19 "/>
<path clip-path="url(#clip420)" d="M442.851 1157.55 L459.171 1157.55 L459.171 1161.49 L437.226 1161.49 L437.226 1157.55 Q439.888 1154.8 444.472 1150.17 Q449.078 1145.52 450.259 1144.17 Q452.504 1141.65 453.384 1139.91 Q454.286 1138.15 454.286 1136.46 Q454.286 1133.71 452.342 1131.97 Q450.421 1130.24 447.319 1130.24 Q445.12 1130.24 442.666 1131 Q440.236 1131.77 437.458 1133.32 L437.458 1128.59 Q440.282 1127.46 442.736 1126.88 Q445.189 1126.3 447.226 1126.3 Q452.597 1126.3 455.791 1128.99 Q458.985 1131.67 458.985 1136.16 Q458.985 1138.29 458.175 1140.21 Q457.388 1142.11 455.282 1144.71 Q454.703 1145.38 451.601 1148.59 Q448.499 1151.79 442.851 1157.55 Z" fill="#000000" fill-rule="nonzero" fill-opacity="1" /><path clip-path="url(#clip420)" d="M468.985 1155.61 L473.87 1155.61 L473.87 1161.49 L468.985 1161.49 L468.985 1155.61 Z" fill="#000000" fill-rule="nonzero" fill-opacity="1" /><path clip-path="url(#clip420)" d="M484.101 1126.93 L502.457 1126.93 L502.457 1130.86 L488.383 1130.86 L488.383 1139.34 Q489.402 1138.99 490.42 1138.83 Q491.439 1138.64 492.457 1138.64 Q498.244 1138.64 501.624 1141.81 Q505.004 1144.98 505.004 1150.4 Q505.004 1155.98 501.532 1159.08 Q498.059 1162.16 491.74 1162.16 Q489.564 1162.16 487.295 1161.79 Q485.05 1161.42 482.643 1160.68 L482.643 1155.98 Q484.726 1157.11 486.948 1157.67 Q489.17 1158.22 491.647 1158.22 Q495.652 1158.22 497.99 1156.12 Q500.328 1154.01 500.328 1150.4 Q500.328 1146.79 497.99 1144.68 Q495.652 1142.58 491.647 1142.58 Q489.772 1142.58 487.897 1142.99 Q486.045 1143.41 484.101 1144.29 L484.101 1126.93 Z" fill="#000000" fill-rule="nonzero" fill-opacity="1" /><path clip-path="url(#clip420)" d="M833.915 1126.93 L852.271 1126.93 L852.271 1130.86 L838.197 1130.86 L838.197 1139.34 Q839.216 1138.99 840.234 1138.83 Q841.253 1138.64 842.271 1138.64 Q848.058 1138.64 851.438 1141.81 Q854.817 1144.98 854.817 1150.4 Q854.817 1155.98 851.345 1159.08 Q847.873 1162.16 841.554 1162.16 Q839.378 1162.16 837.109 1161.79 Q834.864 1161.42 832.456 1160.68 L832.456 1155.98 Q834.54 1157.11 836.762 1157.67 Q838.984 1158.22 841.461 1158.22 Q845.466 1158.22 847.804 1156.12 Q850.141 1154.01 850.141 1150.4 Q850.141 1146.79 847.804 1144.68 Q845.466 1142.58 841.461 1142.58 Q839.586 1142.58 837.711 1142.99 Q835.859 1143.41 833.915 1144.29 L833.915 1126.93 Z" fill="#000000" fill-rule="nonzero" fill-opacity="1" /><path clip-path="url(#clip420)" d="M864.03 1155.61 L868.915 1155.61 L868.915 1161.49 L864.03 1161.49 L864.03 1155.61 Z" fill="#000000" fill-rule="nonzero" fill-opacity="1" /><path clip-path="url(#clip420)" d="M889.1 1130.01 Q885.489 1130.01 883.66 1133.57 Q881.854 1137.11 881.854 1144.24 Q881.854 1151.35 883.66 1154.91 Q885.489 1158.46 889.1 1158.46 Q892.734 1158.46 894.539 1154.91 Q896.368 1151.35 896.368 1144.24 Q896.368 1137.11 894.539 1133.57 Q892.734 1130.01 889.1 1130.01 M889.1 1126.3 Q894.91 1126.3 897.965 1130.91 Q901.044 1135.49 901.044 1144.24 Q901.044 1152.97 897.965 1157.58 Q894.91 1162.16 889.1 1162.16 Q883.289 1162.16 880.211 1157.58 Q877.155 1152.97 877.155 1144.24 Q877.155 1135.49 880.211 1130.91 Q883.289 1126.3 889.1 1126.3 Z" fill="#000000" fill-rule="nonzero" fill-opacity="1" /><path clip-path="url(#clip420)" d="M1228.7 1126.93 L1250.93 1126.93 L1250.93 1128.92 L1238.38 1161.49 L1233.5 1161.49 L1245.3 1130.86 L1228.7 1130.86 L1228.7 1126.93 Z" fill="#000000" fill-rule="nonzero" fill-opacity="1" /><path clip-path="url(#clip420)" d="M1260.05 1155.61 L1264.93 1155.61 L1264.93 1161.49 L1260.05 1161.49 L1260.05 1155.61 Z" fill="#000000" fill-rule="nonzero" fill-opacity="1" /><path clip-path="url(#clip420)" d="M1275.16 1126.93 L1293.52 1126.93 L1293.52 1130.86 L1279.45 1130.86 L1279.45 1139.34 Q1280.46 1138.99 1281.48 1138.83 Q1282.5 1138.64 1283.52 1138.64 Q1289.31 1138.64 1292.69 1141.81 Q1296.07 1144.98 1296.07 1150.4 Q1296.07 1155.98 1292.59 1159.08 Q1289.12 1162.16 1282.8 1162.16 Q1280.63 1162.16 1278.36 1161.79 Q1276.11 1161.42 1273.7 1160.68 L1273.7 1155.98 Q1275.79 1157.11 1278.01 1157.67 Q1280.23 1158.22 1282.71 1158.22 Q1286.71 1158.22 1289.05 1156.12 Q1291.39 1154.01 1291.39 1150.4 Q1291.39 1146.79 1289.05 1144.68 Q1286.71 1142.58 1282.71 1142.58 Q1280.83 1142.58 1278.96 1142.99 Q1277.11 1143.41 1275.16 1144.29 L1275.16 1126.93 Z" fill="#000000" fill-rule="nonzero" fill-opacity="1" /><path clip-path="url(#clip420)" d="M1610.09 1157.55 L1617.73 1157.55 L1617.73 1131.19 L1609.42 1132.85 L1609.42 1128.59 L1617.69 1126.93 L1622.36 1126.93 L1622.36 1157.55 L1630 1157.55 L1630 1161.49 L1610.09 1161.49 L1610.09 1157.55 Z" fill="#000000" fill-rule="nonzero" fill-opacity="1" /><path clip-path="url(#clip420)" d="M1649.44 1130.01 Q1645.83 1130.01 1644 1133.57 Q1642.2 1137.11 1642.2 1144.24 Q1642.2 1151.35 1644 1154.91 Q1645.83 1158.46 1649.44 1158.46 Q1653.08 1158.46 1654.88 1154.91 Q1656.71 1151.35 1656.71 1144.24 Q1656.71 1137.11 1654.88 1133.57 Q1653.08 1130.01 1649.44 1130.01 M1649.44 1126.3 Q1655.25 1126.3 1658.31 1130.91 Q1661.39 1135.49 1661.39 1144.24 Q1661.39 1152.97 1658.31 1157.58 Q1655.25 1162.16 1649.44 1162.16 Q1643.63 1162.16 1640.56 1157.58 Q1637.5 1152.97 1637.5 1144.24 Q1637.5 1135.49 1640.56 1130.91 Q1643.63 1126.3 1649.44 1126.3 Z" fill="#000000" fill-rule="nonzero" fill-opacity="1" /><path clip-path="url(#clip420)" d="M1669.61 1155.61 L1674.49 1155.61 L1674.49 1161.49 L1669.61 1161.49 L1669.61 1155.61 Z" fill="#000000" fill-rule="nonzero" fill-opacity="1" /><path clip-path="url(#clip420)" d="M1694.68 1130.01 Q1691.06 1130.01 1689.24 1133.57 Q1687.43 1137.11 1687.43 1144.24 Q1687.43 1151.35 1689.24 1154.91 Q1691.06 1158.46 1694.68 1158.46 Q1698.31 1158.46 1700.12 1154.91 Q1701.94 1151.35 1701.94 1144.24 Q1701.94 1137.11 1700.12 1133.57 Q1698.31 1130.01 1694.68 1130.01 M1694.68 1126.3 Q1700.49 1126.3 1703.54 1130.91 Q1706.62 1135.49 1706.62 1144.24 Q1706.62 1152.97 1703.54 1157.58 Q1700.49 1162.16 1694.68 1162.16 Q1688.87 1162.16 1685.79 1157.58 Q1682.73 1152.97 1682.73 1144.24 Q1682.73 1135.49 1685.79 1130.91 Q1688.87 1126.3 1694.68 1126.3 Z" fill="#000000" fill-rule="nonzero" fill-opacity="1" /><path clip-path="url(#clip420)" d="M2006.23 1157.55 L2013.86 1157.55 L2013.86 1131.19 L2005.55 1132.85 L2005.55 1128.59 L2013.82 1126.93 L2018.49 1126.93 L2018.49 1157.55 L2026.13 1157.55 L2026.13 1161.49 L2006.23 1161.49 L2006.23 1157.55 Z" fill="#000000" fill-rule="nonzero" fill-opacity="1" /><path clip-path="url(#clip420)" d="M2039.6 1157.55 L2055.92 1157.55 L2055.92 1161.49 L2033.98 1161.49 L2033.98 1157.55 Q2036.64 1154.8 2041.23 1150.17 Q2045.83 1145.52 2047.01 1144.17 Q2049.26 1141.65 2050.14 1139.91 Q2051.04 1138.15 2051.04 1136.46 Q2051.04 1133.71 2049.1 1131.97 Q2047.17 1130.24 2044.07 1130.24 Q2041.87 1130.24 2039.42 1131 Q2036.99 1131.77 2034.21 1133.32 L2034.21 1128.59 Q2037.04 1127.46 2039.49 1126.88 Q2041.94 1126.3 2043.98 1126.3 Q2049.35 1126.3 2052.54 1128.99 Q2055.74 1131.67 2055.74 1136.16 Q2055.74 1138.29 2054.93 1140.21 Q2054.14 1142.11 2052.04 1144.71 Q2051.46 1145.38 2048.35 1148.59 Q2045.25 1151.79 2039.6 1157.55 Z" fill="#000000" fill-rule="nonzero" fill-opacity="1" /><path clip-path="url(#clip420)" d="M2065.74 1155.61 L2070.62 1155.61 L2070.62 1161.49 L2065.74 1161.49 L2065.74 1155.61 Z" fill="#000000" fill-rule="nonzero" fill-opacity="1" /><path clip-path="url(#clip420)" d="M2080.85 1126.93 L2099.21 1126.93 L2099.21 1130.86 L2085.14 1130.86 L2085.14 1139.34 Q2086.16 1138.99 2087.17 1138.83 Q2088.19 1138.64 2089.21 1138.64 Q2095 1138.64 2098.38 1141.81 Q2101.76 1144.98 2101.76 1150.4 Q2101.76 1155.98 2098.29 1159.08 Q2094.81 1162.16 2088.49 1162.16 Q2086.32 1162.16 2084.05 1161.79 Q2081.8 1161.42 2079.4 1160.68 L2079.4 1155.98 Q2081.48 1157.11 2083.7 1157.67 Q2085.92 1158.22 2088.4 1158.22 Q2092.41 1158.22 2094.74 1156.12 Q2097.08 1154.01 2097.08 1150.4 Q2097.08 1146.79 2094.74 1144.68 Q2092.41 1142.58 2088.4 1142.58 Q2086.53 1142.58 2084.65 1142.99 Q2082.8 1143.41 2080.85 1144.29 L2080.85 1126.93 Z" fill="#000000" fill-rule="nonzero" fill-opacity="1" /><polyline clip-path="url(#clip422)" style="stroke:#000000; stroke-linecap:round; stroke-linejoin:round; stroke-width:2; stroke-opacity:0.1; fill:none" points="172.015,1069.32 2352.76,1069.32 "/>
<polyline clip-path="url(#clip422)" style="stroke:#000000; stroke-linecap:round; stroke-linejoin:round; stroke-width:2; stroke-opacity:0.1; fill:none" points="172.015,809.215 2352.76,809.215 "/>
<polyline clip-path="url(#clip422)" style="stroke:#000000; stroke-linecap:round; stroke-linejoin:round; stroke-width:2; stroke-opacity:0.1; fill:none" points="172.015,549.108 2352.76,549.108 "/>
<polyline clip-path="url(#clip422)" style="stroke:#000000; stroke-linecap:round; stroke-linejoin:round; stroke-width:2; stroke-opacity:0.1; fill:none" points="172.015,289.001 2352.76,289.001 "/>
<polyline clip-path="url(#clip420)" style="stroke:#000000; stroke-linecap:round; stroke-linejoin:round; stroke-width:4; stroke-opacity:1; fill:none" points="172.015,1099.09 172.015,47.2441 "/>
<polyline clip-path="url(#clip420)" style="stroke:#000000; stroke-linecap:round; stroke-linejoin:round; stroke-width:4; stroke-opacity:1; fill:none" points="172.015,1069.32 190.912,1069.32 "/>
<polyline clip-path="url(#clip420)" style="stroke:#000000; stroke-linecap:round; stroke-linejoin:round; stroke-width:4; stroke-opacity:1; fill:none" points="172.015,809.215 190.912,809.215 "/>
<polyline clip-path="url(#clip420)" style="stroke:#000000; stroke-linecap:round; stroke-linejoin:round; stroke-width:4; stroke-opacity:1; fill:none" points="172.015,549.108 190.912,549.108 "/>
<polyline clip-path="url(#clip420)" style="stroke:#000000; stroke-linecap:round; stroke-linejoin:round; stroke-width:4; stroke-opacity:1; fill:none" points="172.015,289.001 190.912,289.001 "/>
<path clip-path="url(#clip420)" d="M124.07 1055.12 Q120.459 1055.12 118.631 1058.69 Q116.825 1062.23 116.825 1069.36 Q116.825 1076.46 118.631 1080.03 Q120.459 1083.57 124.07 1083.57 Q127.705 1083.57 129.51 1080.03 Q131.339 1076.46 131.339 1069.36 Q131.339 1062.23 129.51 1058.69 Q127.705 1055.12 124.07 1055.12 M124.07 1051.42 Q129.881 1051.42 132.936 1056.02 Q136.015 1060.61 136.015 1069.36 Q136.015 1078.08 132.936 1082.69 Q129.881 1087.27 124.07 1087.27 Q118.26 1087.27 115.182 1082.69 Q112.126 1078.08 112.126 1069.36 Q112.126 1060.61 115.182 1056.02 Q118.26 1051.42 124.07 1051.42 Z" fill="#000000" fill-rule="nonzero" fill-opacity="1" /><path clip-path="url(#clip420)" d="M57.7745 822.56 L74.0939 822.56 L74.0939 826.495 L52.1495 826.495 L52.1495 822.56 Q54.8115 819.806 59.3949 815.176 Q64.0013 810.523 65.1819 809.181 Q67.4272 806.657 68.3068 804.921 Q69.2096 803.162 69.2096 801.472 Q69.2096 798.718 67.2652 796.982 Q65.3439 795.245 62.2421 795.245 Q60.043 795.245 57.5893 796.009 Q55.1588 796.773 52.381 798.324 L52.381 793.602 Q55.2051 792.468 57.6588 791.889 Q60.1124 791.31 62.1495 791.31 Q67.5198 791.31 70.7142 793.995 Q73.9087 796.681 73.9087 801.171 Q73.9087 803.301 73.0985 805.222 Q72.3115 807.12 70.205 809.713 Q69.6263 810.384 66.5245 813.602 Q63.4226 816.796 57.7745 822.56 Z" fill="#000000" fill-rule="nonzero" fill-opacity="1" /><path clip-path="url(#clip420)" d="M93.9086 795.014 Q90.2975 795.014 88.4688 798.579 Q86.6632 802.12 86.6632 809.25 Q86.6632 816.356 88.4688 819.921 Q90.2975 823.463 93.9086 823.463 Q97.5428 823.463 99.3483 819.921 Q101.177 816.356 101.177 809.25 Q101.177 802.12 99.3483 798.579 Q97.5428 795.014 93.9086 795.014 M93.9086 791.31 Q99.7187 791.31 102.774 795.917 Q105.853 800.5 105.853 809.25 Q105.853 817.977 102.774 822.583 Q99.7187 827.167 93.9086 827.167 Q88.0984 827.167 85.0197 822.583 Q81.9642 817.977 81.9642 809.25 Q81.9642 800.5 85.0197 795.917 Q88.0984 791.31 93.9086 791.31 Z" fill="#000000" fill-rule="nonzero" fill-opacity="1" /><path clip-path="url(#clip420)" d="M124.07 795.014 Q120.459 795.014 118.631 798.579 Q116.825 802.12 116.825 809.25 Q116.825 816.356 118.631 819.921 Q120.459 823.463 124.07 823.463 Q127.705 823.463 129.51 819.921 Q131.339 816.356 131.339 809.25 Q131.339 802.12 129.51 798.579 Q127.705 795.014 124.07 795.014 M124.07 791.31 Q129.881 791.31 132.936 795.917 Q136.015 800.5 136.015 809.25 Q136.015 817.977 132.936 822.583 Q129.881 827.167 124.07 827.167 Q118.26 827.167 115.182 822.583 Q112.126 817.977 112.126 809.25 Q112.126 800.5 115.182 795.917 Q118.26 791.31 124.07 791.31 Z" fill="#000000" fill-rule="nonzero" fill-opacity="1" /><path clip-path="url(#clip420)" d="M66.5939 535.902 L54.7884 554.351 L66.5939 554.351 L66.5939 535.902 M65.367 531.828 L71.2466 531.828 L71.2466 554.351 L76.1772 554.351 L76.1772 558.24 L71.2466 558.24 L71.2466 566.388 L66.5939 566.388 L66.5939 558.24 L50.9921 558.24 L50.9921 553.726 L65.367 531.828 Z" fill="#000000" fill-rule="nonzero" fill-opacity="1" /><path clip-path="url(#clip420)" d="M93.9086 534.907 Q90.2975 534.907 88.4688 538.471 Q86.6632 542.013 86.6632 549.143 Q86.6632 556.249 88.4688 559.814 Q90.2975 563.356 93.9086 563.356 Q97.5428 563.356 99.3483 559.814 Q101.177 556.249 101.177 549.143 Q101.177 542.013 99.3483 538.471 Q97.5428 534.907 93.9086 534.907 M93.9086 531.203 Q99.7187 531.203 102.774 535.809 Q105.853 540.393 105.853 549.143 Q105.853 557.87 102.774 562.476 Q99.7187 567.059 93.9086 567.059 Q88.0984 567.059 85.0197 562.476 Q81.9642 557.87 81.9642 549.143 Q81.9642 540.393 85.0197 535.809 Q88.0984 531.203 93.9086 531.203 Z" fill="#000000" fill-rule="nonzero" fill-opacity="1" /><path clip-path="url(#clip420)" d="M124.07 534.907 Q120.459 534.907 118.631 538.471 Q116.825 542.013 116.825 549.143 Q116.825 556.249 118.631 559.814 Q120.459 563.356 124.07 563.356 Q127.705 563.356 129.51 559.814 Q131.339 556.249 131.339 549.143 Q131.339 542.013 129.51 538.471 Q127.705 534.907 124.07 534.907 M124.07 531.203 Q129.881 531.203 132.936 535.809 Q136.015 540.393 136.015 549.143 Q136.015 557.87 132.936 562.476 Q129.881 567.059 124.07 567.059 Q118.26 567.059 115.182 562.476 Q112.126 557.87 112.126 549.143 Q112.126 540.393 115.182 535.809 Q118.26 531.203 124.07 531.203 Z" fill="#000000" fill-rule="nonzero" fill-opacity="1" /><path clip-path="url(#clip420)" d="M64.3254 287.137 Q61.1773 287.137 59.3254 289.29 Q57.4967 291.443 57.4967 295.193 Q57.4967 298.92 59.3254 301.096 Q61.1773 303.248 64.3254 303.248 Q67.4735 303.248 69.3022 301.096 Q71.1541 298.92 71.1541 295.193 Q71.1541 291.443 69.3022 289.29 Q67.4735 287.137 64.3254 287.137 M73.6077 272.485 L73.6077 276.744 Q71.8485 275.91 70.0429 275.471 Q68.2606 275.031 66.5013 275.031 Q61.8717 275.031 59.418 278.156 Q56.9875 281.281 56.6402 287.6 Q58.006 285.586 60.0662 284.522 Q62.1263 283.434 64.6032 283.434 Q69.8115 283.434 72.8207 286.605 Q75.8531 289.753 75.8531 295.193 Q75.8531 300.517 72.705 303.734 Q69.5568 306.952 64.3254 306.952 Q58.33 306.952 55.1588 302.369 Q51.9875 297.762 51.9875 289.035 Q51.9875 280.841 55.8764 275.98 Q59.7652 271.096 66.3161 271.096 Q68.0754 271.096 69.8578 271.443 Q71.6633 271.79 73.6077 272.485 Z" fill="#000000" fill-rule="nonzero" fill-opacity="1" /><path clip-path="url(#clip420)" d="M93.9086 274.799 Q90.2975 274.799 88.4688 278.364 Q86.6632 281.906 86.6632 289.035 Q86.6632 296.142 88.4688 299.707 Q90.2975 303.248 93.9086 303.248 Q97.5428 303.248 99.3483 299.707 Q101.177 296.142 101.177 289.035 Q101.177 281.906 99.3483 278.364 Q97.5428 274.799 93.9086 274.799 M93.9086 271.096 Q99.7187 271.096 102.774 275.702 Q105.853 280.285 105.853 289.035 Q105.853 297.762 102.774 302.369 Q99.7187 306.952 93.9086 306.952 Q88.0984 306.952 85.0197 302.369 Q81.9642 297.762 81.9642 289.035 Q81.9642 280.285 85.0197 275.702 Q88.0984 271.096 93.9086 271.096 Z" fill="#000000" fill-rule="nonzero" fill-opacity="1" /><path clip-path="url(#clip420)" d="M124.07 274.799 Q120.459 274.799 118.631 278.364 Q116.825 281.906 116.825 289.035 Q116.825 296.142 118.631 299.707 Q120.459 303.248 124.07 303.248 Q127.705 303.248 129.51 299.707 Q131.339 296.142 131.339 289.035 Q131.339 281.906 129.51 278.364 Q127.705 274.799 124.07 274.799 M124.07 271.096 Q129.881 271.096 132.936 275.702 Q136.015 280.285 136.015 289.035 Q136.015 297.762 132.936 302.369 Q129.881 306.952 124.07 306.952 Q118.26 306.952 115.182 302.369 Q112.126 297.762 112.126 289.035 Q112.126 280.285 115.182 275.702 Q118.26 271.096 124.07 271.096 Z" fill="#000000" fill-rule="nonzero" fill-opacity="1" /><path clip-path="url(#clip422)" d="M233.734 1068.44 L391.988 1068.72 L550.242 1068.91 L708.496 1069.04 L866.75 1069.13 L1025 1069.19 L1183.26 1069.23 L1341.51 1069.26 L1499.77 1069.28 L1658.02 1069.3 L1816.27 1069.3 L1974.53 1069.31 L2132.78 1069.32 L2291.04 1069.32 L2291.04 372.931 L2132.78 353.339 L1974.53 333.299 L1816.27 309.358 L1658.02 285.926 L1499.77 263.959 L1341.51 245.778 L1183.26 234.985 L1025 219.239 L866.75 211.292 L708.496 222.485 L550.242 274.056 L391.988 553.181 L233.734 1027.57  Z" fill="#009af9" fill-rule="evenodd" fill-opacity="0.5"/>
<polyline clip-path="url(#clip422)" style="stroke:#009af9; stroke-linecap:round; stroke-linejoin:round; stroke-width:4; stroke-opacity:1; fill:none" points="233.734,1063.82 391.988,1046.7 550.242,985.754 708.496,867.184 866.75,851.203 1025,876.728 1183.26,917.386 1341.51,953.477 1499.77,983.787 1658.02,1006.46 1816.27,1024.11 1974.53,1036.84 2132.78,1045.92 2291.04,1052.67 "/>
<polyline clip-path="url(#clip422)" style="stroke:#ff0000; stroke-linecap:round; stroke-linejoin:round; stroke-width:4; stroke-opacity:1; fill:none" points="-2008.73,77.0133 4533.5,77.0133 "/>
</svg>
