<?xml version="1.0" encoding="utf-8"?>
<svg xmlns="http://www.w3.org/2000/svg" xmlns:xlink="http://www.w3.org/1999/xlink" width="500" height="300" viewBox="0 0 2000 1200">
<defs>
  <clipPath id="clip610">
    <rect x="0" y="0" width="2000" height="1200"/>
  </clipPath>
</defs>
<path clip-path="url(#clip610)" d="M0 1200 L2000 1200 L2000 0 L0 0  Z" fill="#ffffff" fill-rule="evenodd" fill-opacity="1"/>
<defs>
  <clipPath id="clip611">
    <rect x="400" y="0" width="1401" height="1200"/>
  </clipPath>
</defs>
<path clip-path="url(#clip610)" d="M168.015 1035.39 L1952.76 1035.39 L1952.76 47.2441 L168.015 47.2441  Z" fill="#ffffff" fill-rule="evenodd" fill-opacity="1"/>
<defs>
  <clipPath id="clip612">
    <rect x="168" y="47" width="1786" height="989"/>
  </clipPath>
</defs>
<polyline clip-path="url(#clip612)" style="stroke:#000000; stroke-linecap:round; stroke-linejoin:round; stroke-width:2; stroke-opacity:0.1; fill:none" points="168.015,1035.39 168.015,47.2441 "/>
<polyline clip-path="url(#clip612)" style="stroke:#000000; stroke-linecap:round; stroke-linejoin:round; stroke-width:2; stroke-opacity:0.1; fill:none" points="422.978,1035.39 422.978,47.2441 "/>
<polyline clip-path="url(#clip612)" style="stroke:#000000; stroke-linecap:round; stroke-linejoin:round; stroke-width:2; stroke-opacity:0.1; fill:none" points="677.941,1035.39 677.941,47.2441 "/>
<polyline clip-path="url(#clip612)" style="stroke:#000000; stroke-linecap:round; stroke-linejoin:round; stroke-width:2; stroke-opacity:0.1; fill:none" points="932.904,1035.39 932.904,47.2441 "/>
<polyline clip-path="url(#clip612)" style="stroke:#000000; stroke-linecap:round; stroke-linejoin:round; stroke-width:2; stroke-opacity:0.1; fill:none" points="1187.87,1035.39 1187.87,47.2441 "/>
<polyline clip-path="url(#clip612)" style="stroke:#000000; stroke-linecap:round; stroke-linejoin:round; stroke-width:2; stroke-opacity:0.1; fill:none" points="1442.83,1035.39 1442.83,47.2441 "/>
<polyline clip-path="url(#clip612)" style="stroke:#000000; stroke-linecap:round; stroke-linejoin:round; stroke-width:2; stroke-opacity:0.1; fill:none" points="1697.79,1035.39 1697.79,47.2441 "/>
<polyline clip-path="url(#clip612)" style="stroke:#000000; stroke-linecap:round; stroke-linejoin:round; stroke-width:2; stroke-opacity:0.1; fill:none" points="1952.76,1035.39 1952.76,47.2441 "/>
<polyline clip-path="url(#clip610)" style="stroke:#000000; stroke-linecap:round; stroke-linejoin:round; stroke-width:4; stroke-opacity:1; fill:none" points="168.015,1035.39 1952.76,1035.39 "/>
<polyline clip-path="url(#clip610)" style="stroke:#000000; stroke-linecap:round; stroke-linejoin:round; stroke-width:4; stroke-opacity:1; fill:none" points="168.015,1035.39 168.015,1016.49 "/>
<polyline clip-path="url(#clip610)" style="stroke:#000000; stroke-linecap:round; stroke-linejoin:round; stroke-width:4; stroke-opacity:1; fill:none" points="422.978,1035.39 422.978,1016.49 "/>
<polyline clip-path="url(#clip610)" style="stroke:#000000; stroke-linecap:round; stroke-linejoin:round; stroke-width:4; stroke-opacity:1; fill:none" points="677.941,1035.39 677.941,1016.49 "/>
<polyline clip-path="url(#clip610)" style="stroke:#000000; stroke-linecap:round; stroke-linejoin:round; stroke-width:4; stroke-opacity:1; fill:none" points="932.904,1035.39 932.904,1016.49 "/>
<polyline clip-path="url(#clip610)" style="stroke:#000000; stroke-linecap:round; stroke-linejoin:round; stroke-width:4; stroke-opacity:1; fill:none" points="1187.87,1035.39 1187.87,1016.49 "/>
<polyline clip-path="url(#clip610)" style="stroke:#000000; stroke-linecap:round; stroke-linejoin:round; stroke-width:4; stroke-opacity:1; fill:none" points="1442.83,1035.39 1442.83,1016.49 "/>
<polyline clip-path="url(#clip610)" style="stroke:#000000; stroke-linecap:round; stroke-linejoin:round; stroke-width:4; stroke-opacity:1; fill:none" points="1697.79,1035.39 1697.79,1016.49 "/>
<polyline clip-path="url(#clip610)" style="stroke:#000000; stroke-linecap:round; stroke-linejoin:round; stroke-width:4; stroke-opacity:1; fill:none" points="1952.76,1035.39 1952.76,1016.49 "/>
<path clip-path="url(#clip610)" d="M168.015 1063.11 Q164.404 1063.11 162.575 1066.67 Q160.769 1070.21 160.769 1077.34 Q160.769 1084.45 162.575 1088.01 Q164.404 1091.56 168.015 1091.56 Q171.649 1091.56 173.455 1088.01 Q175.283 1084.45 175.283 1077.34 Q175.283 1070.21 173.455 1066.67 Q171.649 1063.11 168.015 1063.11 M168.015 1059.4 Q173.825 1059.4 176.881 1064.01 Q179.959 1068.59 179.959 1077.34 Q179.959 1086.07 176.881 1090.68 Q173.825 1095.26 168.015 1095.26 Q162.205 1095.26 159.126 1090.68 Q156.07 1086.07 156.07 1077.34 Q156.07 1068.59 159.126 1064.01 Q162.205 1059.4 168.015 1059.4 Z" fill="#000000" fill-rule="nonzero" fill-opacity="1" /><path clip-path="url(#clip610)" d="M417.631 1090.65 L433.95 1090.65 L433.95 1094.59 L412.006 1094.59 L412.006 1090.65 Q414.668 1087.9 419.251 1083.27 Q423.857 1078.62 425.038 1077.27 Q427.283 1074.75 428.163 1073.01 Q429.066 1071.25 429.066 1069.56 Q429.066 1066.81 427.121 1065.07 Q425.2 1063.34 422.098 1063.34 Q419.899 1063.34 417.445 1064.1 Q415.015 1064.87 412.237 1066.42 L412.237 1061.69 Q415.061 1060.56 417.515 1059.98 Q419.969 1059.4 422.006 1059.4 Q427.376 1059.4 430.57 1062.09 Q433.765 1064.77 433.765 1069.26 Q433.765 1071.39 432.955 1073.31 Q432.168 1075.21 430.061 1077.81 Q429.482 1078.48 426.381 1081.69 Q423.279 1084.89 417.631 1090.65 Z" fill="#000000" fill-rule="nonzero" fill-opacity="1" /><path clip-path="url(#clip610)" d="M680.95 1064.1 L669.145 1082.55 L680.95 1082.55 L680.95 1064.1 M679.723 1060.03 L685.603 1060.03 L685.603 1082.55 L690.533 1082.55 L690.533 1086.44 L685.603 1086.44 L685.603 1094.59 L680.95 1094.59 L680.95 1086.44 L665.348 1086.44 L665.348 1081.93 L679.723 1060.03 Z" fill="#000000" fill-rule="nonzero" fill-opacity="1" /><path clip-path="url(#clip610)" d="M933.309 1075.44 Q930.161 1075.44 928.309 1077.6 Q926.48 1079.75 926.48 1083.5 Q926.48 1087.23 928.309 1089.4 Q930.161 1091.56 933.309 1091.56 Q936.457 1091.56 938.286 1089.4 Q940.138 1087.23 940.138 1083.5 Q940.138 1079.75 938.286 1077.6 Q936.457 1075.44 933.309 1075.44 M942.591 1060.79 L942.591 1065.05 Q940.832 1064.22 939.027 1063.78 Q937.244 1063.34 935.485 1063.34 Q930.855 1063.34 928.402 1066.46 Q925.971 1069.59 925.624 1075.91 Q926.99 1073.89 929.05 1072.83 Q931.11 1071.74 933.587 1071.74 Q938.795 1071.74 941.804 1074.91 Q944.837 1078.06 944.837 1083.5 Q944.837 1088.82 941.689 1092.04 Q938.54 1095.26 933.309 1095.26 Q927.314 1095.26 924.142 1090.68 Q920.971 1086.07 920.971 1077.34 Q920.971 1069.15 924.86 1064.29 Q928.749 1059.4 935.3 1059.4 Q937.059 1059.4 938.841 1059.75 Q940.647 1060.1 942.591 1060.79 Z" fill="#000000" fill-rule="nonzero" fill-opacity="1" /><path clip-path="url(#clip610)" d="M1187.87 1078.18 Q1184.53 1078.18 1182.61 1079.96 Q1180.71 1081.74 1180.71 1084.87 Q1180.71 1087.99 1182.61 1089.77 Q1184.53 1091.56 1187.87 1091.56 Q1191.2 1091.56 1193.12 1089.77 Q1195.04 1087.97 1195.04 1084.87 Q1195.04 1081.74 1193.12 1079.96 Q1191.22 1078.18 1187.87 1078.18 M1183.19 1076.19 Q1180.18 1075.44 1178.49 1073.38 Q1176.83 1071.32 1176.83 1068.36 Q1176.83 1064.22 1179.77 1061.81 Q1182.73 1059.4 1187.87 1059.4 Q1193.03 1059.4 1195.97 1061.81 Q1198.91 1064.22 1198.91 1068.36 Q1198.91 1071.32 1197.22 1073.38 Q1195.55 1075.44 1192.57 1076.19 Q1195.95 1076.97 1197.82 1079.26 Q1199.72 1081.56 1199.72 1084.87 Q1199.72 1089.89 1196.64 1092.57 Q1193.58 1095.26 1187.87 1095.26 Q1182.15 1095.26 1179.07 1092.57 Q1176.02 1089.89 1176.02 1084.87 Q1176.02 1081.56 1177.91 1079.26 Q1179.81 1076.97 1183.19 1076.19 M1181.48 1068.8 Q1181.48 1071.49 1183.14 1072.99 Q1184.83 1074.5 1187.87 1074.5 Q1190.88 1074.5 1192.57 1072.99 Q1194.28 1071.49 1194.28 1068.8 Q1194.28 1066.12 1192.57 1064.61 Q1190.88 1063.11 1187.87 1063.11 Q1184.83 1063.11 1183.14 1064.61 Q1181.48 1066.12 1181.48 1068.8 Z" fill="#000000" fill-rule="nonzero" fill-opacity="1" /><path clip-path="url(#clip610)" d="M1417.52 1090.65 L1425.16 1090.65 L1425.16 1064.29 L1416.85 1065.95 L1416.85 1061.69 L1425.11 1060.03 L1429.79 1060.03 L1429.79 1090.65 L1437.42 1090.65 L1437.42 1094.59 L1417.52 1094.59 L1417.52 1090.65 Z" fill="#000000" fill-rule="nonzero" fill-opacity="1" /><path clip-path="url(#clip610)" d="M1456.87 1063.11 Q1453.26 1063.11 1451.43 1066.67 Q1449.62 1070.21 1449.62 1077.34 Q1449.62 1084.45 1451.43 1088.01 Q1453.26 1091.56 1456.87 1091.56 Q1460.5 1091.56 1462.31 1088.01 Q1464.14 1084.45 1464.14 1077.34 Q1464.14 1070.21 1462.31 1066.67 Q1460.5 1063.11 1456.87 1063.11 M1456.87 1059.4 Q1462.68 1059.4 1465.73 1064.01 Q1468.81 1068.59 1468.81 1077.34 Q1468.81 1086.07 1465.73 1090.68 Q1462.68 1095.26 1456.87 1095.26 Q1451.06 1095.26 1447.98 1090.68 Q1444.92 1086.07 1444.92 1077.34 Q1444.92 1068.59 1447.98 1064.01 Q1451.06 1059.4 1456.87 1059.4 Z" fill="#000000" fill-rule="nonzero" fill-opacity="1" /><path clip-path="url(#clip610)" d="M1673.28 1090.65 L1680.92 1090.65 L1680.92 1064.29 L1672.61 1065.95 L1672.61 1061.69 L1680.87 1060.03 L1685.55 1060.03 L1685.55 1090.65 L1693.19 1090.65 L1693.19 1094.59 L1673.28 1094.59 L1673.28 1090.65 Z" fill="#000000" fill-rule="nonzero" fill-opacity="1" /><path clip-path="url(#clip610)" d="M1706.66 1090.65 L1722.98 1090.65 L1722.98 1094.59 L1701.03 1094.59 L1701.03 1090.65 Q1703.7 1087.9 1708.28 1083.27 Q1712.89 1078.62 1714.07 1077.27 Q1716.31 1074.75 1717.19 1073.01 Q1718.09 1071.25 1718.09 1069.56 Q1718.09 1066.81 1716.15 1065.07 Q1714.23 1063.34 1711.13 1063.34 Q1708.93 1063.34 1706.47 1064.1 Q1704.04 1064.87 1701.27 1066.42 L1701.27 1061.69 Q1704.09 1060.56 1706.54 1059.98 Q1709 1059.4 1711.03 1059.4 Q1716.4 1059.4 1719.6 1062.09 Q1722.79 1064.77 1722.79 1069.26 Q1722.79 1071.39 1721.98 1073.31 Q1721.2 1075.21 1719.09 1077.81 Q1718.51 1078.48 1715.41 1081.69 Q1712.31 1084.89 1706.66 1090.65 Z" fill="#000000" fill-rule="nonzero" fill-opacity="1" /><path clip-path="url(#clip610)" d="M1927.2 1090.65 L1934.84 1090.65 L1934.84 1064.29 L1926.53 1065.95 L1926.53 1061.69 L1934.79 1060.03 L1939.47 1060.03 L1939.47 1090.65 L1947.11 1090.65 L1947.11 1094.59 L1927.2 1094.59 L1927.2 1090.65 Z" fill="#000000" fill-rule="nonzero" fill-opacity="1" /><path clip-path="url(#clip610)" d="M1969.4 1064.1 L1957.59 1082.55 L1969.4 1082.55 L1969.4 1064.1 M1968.17 1060.03 L1974.05 1060.03 L1974.05 1082.55 L1978.98 1082.55 L1978.98 1086.44 L1974.05 1086.44 L1974.05 1094.59 L1969.4 1094.59 L1969.4 1086.44 L1953.8 1086.44 L1953.8 1081.93 L1968.17 1060.03 Z" fill="#000000" fill-rule="nonzero" fill-opacity="1" /><path clip-path="url(#clip610)" d="M854.757 1126.73 L894.957 1126.73 L894.957 1132.14 L878.087 1132.14 L878.087 1174.25 L871.626 1174.25 L871.626 1132.14 L854.757 1132.14 L854.757 1126.73 Z" fill="#000000" fill-rule="nonzero" fill-opacity="1" /><path clip-path="url(#clip610)" d="M898.903 1138.6 L904.76 1138.6 L904.76 1174.25 L898.903 1174.25 L898.903 1138.6 M898.903 1124.73 L904.76 1124.73 L904.76 1132.14 L898.903 1132.14 L898.903 1124.73 Z" fill="#000000" fill-rule="nonzero" fill-opacity="1" /><path clip-path="url(#clip610)" d="M944.768 1145.45 Q946.964 1141.5 950.02 1139.62 Q953.075 1137.74 957.213 1137.74 Q962.783 1137.74 965.807 1141.66 Q968.831 1145.54 968.831 1152.74 L968.831 1174.25 L962.942 1174.25 L962.942 1152.93 Q962.942 1147.8 961.128 1145.32 Q959.314 1142.84 955.59 1142.84 Q951.038 1142.84 948.397 1145.86 Q945.755 1148.88 945.755 1154.1 L945.755 1174.25 L939.867 1174.25 L939.867 1152.93 Q939.867 1147.77 938.052 1145.32 Q936.238 1142.84 932.451 1142.84 Q927.963 1142.84 925.321 1145.89 Q922.679 1148.92 922.679 1154.1 L922.679 1174.25 L916.791 1174.25 L916.791 1138.6 L922.679 1138.6 L922.679 1144.14 Q924.684 1140.86 927.485 1139.3 Q930.286 1137.74 934.137 1137.74 Q938.021 1137.74 940.726 1139.72 Q943.463 1141.69 944.768 1145.45 Z" fill="#000000" fill-rule="nonzero" fill-opacity="1" /><path clip-path="url(#clip610)" d="M1011 1154.96 L1011 1157.83 L984.076 1157.83 Q984.458 1163.88 987.705 1167.06 Q990.983 1170.21 996.808 1170.21 Q1000.18 1170.21 1003.33 1169.38 Q1006.52 1168.55 1009.63 1166.9 L1009.63 1172.44 Q1006.48 1173.77 1003.17 1174.47 Q999.863 1175.17 996.458 1175.17 Q987.928 1175.17 982.931 1170.21 Q977.965 1165.24 977.965 1156.78 Q977.965 1148.03 982.676 1142.9 Q987.418 1137.74 995.439 1137.74 Q1002.63 1137.74 1006.8 1142.39 Q1011 1147.01 1011 1154.96 M1005.15 1153.25 Q1005.08 1148.44 1002.44 1145.57 Q999.832 1142.71 995.503 1142.71 Q990.601 1142.71 987.641 1145.48 Q984.713 1148.25 984.267 1153.28 L1005.15 1153.25 Z" fill="#000000" fill-rule="nonzero" fill-opacity="1" /><path clip-path="url(#clip610)" d="M1041.34 1138.6 L1047.19 1138.6 L1047.19 1174.25 L1041.34 1174.25 L1041.34 1138.6 M1041.34 1124.73 L1047.19 1124.73 L1047.19 1132.14 L1041.34 1132.14 L1041.34 1124.73 Z" fill="#000000" fill-rule="nonzero" fill-opacity="1" /><path clip-path="url(#clip610)" d="M1089.08 1152.74 L1089.08 1174.25 L1083.22 1174.25 L1083.22 1152.93 Q1083.22 1147.87 1081.25 1145.35 Q1079.28 1142.84 1075.33 1142.84 Q1070.59 1142.84 1067.85 1145.86 Q1065.11 1148.88 1065.11 1154.1 L1065.11 1174.25 L1059.22 1174.25 L1059.22 1138.6 L1065.11 1138.6 L1065.11 1144.14 Q1067.21 1140.93 1070.05 1139.34 Q1072.91 1137.74 1076.63 1137.74 Q1082.78 1137.74 1085.93 1141.56 Q1089.08 1145.35 1089.08 1152.74 Z" fill="#000000" fill-rule="nonzero" fill-opacity="1" /><path clip-path="url(#clip610)" d="M1144.94 1144.01 L1144.94 1124.73 L1150.79 1124.73 L1150.79 1174.25 L1144.94 1174.25 L1144.94 1168.9 Q1143.09 1172.09 1140.26 1173.65 Q1137.46 1175.17 1133.51 1175.17 Q1127.05 1175.17 1122.98 1170.02 Q1118.93 1164.86 1118.93 1156.46 Q1118.93 1148.06 1122.98 1142.9 Q1127.05 1137.74 1133.51 1137.74 Q1137.46 1137.74 1140.26 1139.3 Q1143.09 1140.83 1144.94 1144.01 M1124.98 1156.46 Q1124.98 1162.92 1127.62 1166.61 Q1130.3 1170.27 1134.94 1170.27 Q1139.59 1170.27 1142.26 1166.61 Q1144.94 1162.92 1144.94 1156.46 Q1144.94 1150 1142.26 1146.34 Q1139.59 1142.65 1134.94 1142.65 Q1130.3 1142.65 1127.62 1146.34 Q1124.98 1150 1124.98 1156.46 Z" fill="#000000" fill-rule="nonzero" fill-opacity="1" /><path clip-path="url(#clip610)" d="M1179.06 1156.33 Q1171.96 1156.33 1169.22 1157.96 Q1166.49 1159.58 1166.49 1163.49 Q1166.49 1166.61 1168.52 1168.46 Q1170.59 1170.27 1174.12 1170.27 Q1178.99 1170.27 1181.92 1166.84 Q1184.88 1163.37 1184.88 1157.64 L1184.88 1156.33 L1179.06 1156.33 M1190.74 1153.91 L1190.74 1174.25 L1184.88 1174.25 L1184.88 1168.84 Q1182.88 1172.09 1179.89 1173.65 Q1176.89 1175.17 1172.57 1175.17 Q1167.09 1175.17 1163.84 1172.12 Q1160.63 1169.03 1160.63 1163.88 Q1160.63 1157.86 1164.64 1154.8 Q1168.68 1151.75 1176.67 1151.75 L1184.88 1151.75 L1184.88 1151.18 Q1184.88 1147.13 1182.21 1144.94 Q1179.57 1142.71 1174.76 1142.71 Q1171.71 1142.71 1168.81 1143.44 Q1165.91 1144.17 1163.24 1145.64 L1163.24 1140.23 Q1166.45 1138.99 1169.48 1138.38 Q1172.5 1137.74 1175.37 1137.74 Q1183.1 1137.74 1186.92 1141.75 Q1190.74 1145.77 1190.74 1153.91 Z" fill="#000000" fill-rule="nonzero" fill-opacity="1" /><path clip-path="url(#clip610)" d="M1217.63 1177.56 Q1215.15 1183.93 1212.8 1185.87 Q1210.44 1187.81 1206.49 1187.81 L1201.82 1187.81 L1201.82 1182.91 L1205.25 1182.91 Q1207.67 1182.91 1209.01 1181.76 Q1210.35 1180.62 1211.97 1176.35 L1213.02 1173.68 L1198.6 1138.6 L1204.81 1138.6 L1215.95 1166.49 L1227.09 1138.6 L1233.29 1138.6 L1217.63 1177.56 Z" fill="#000000" fill-rule="nonzero" fill-opacity="1" /><path clip-path="url(#clip610)" d="M1264.1 1139.65 L1264.1 1145.19 Q1261.62 1143.92 1258.95 1143.28 Q1256.27 1142.65 1253.41 1142.65 Q1249.05 1142.65 1246.85 1143.98 Q1244.69 1145.32 1244.69 1147.99 Q1244.69 1150.03 1246.25 1151.21 Q1247.81 1152.35 1252.52 1153.4 L1254.52 1153.85 Q1260.76 1155.19 1263.37 1157.64 Q1266.01 1160.06 1266.01 1164.42 Q1266.01 1169.38 1262.07 1172.28 Q1258.15 1175.17 1251.28 1175.17 Q1248.41 1175.17 1245.29 1174.6 Q1242.21 1174.06 1238.77 1172.95 L1238.77 1166.9 Q1242.01 1168.59 1245.17 1169.45 Q1248.32 1170.27 1251.4 1170.27 Q1255.54 1170.27 1257.77 1168.87 Q1260 1167.44 1260 1164.86 Q1260 1162.48 1258.37 1161.2 Q1256.78 1159.93 1251.34 1158.75 L1249.3 1158.27 Q1243.86 1157.13 1241.44 1154.77 Q1239.02 1152.39 1239.02 1148.25 Q1239.02 1143.22 1242.59 1140.48 Q1246.15 1137.74 1252.71 1137.74 Q1255.96 1137.74 1258.82 1138.22 Q1261.68 1138.7 1264.1 1139.65 Z" fill="#000000" fill-rule="nonzero" fill-opacity="1" /><polyline clip-path="url(#clip612)" style="stroke:#000000; stroke-linecap:round; stroke-linejoin:round; stroke-width:2; stroke-opacity:0.1; fill:none" points="168.015,1007.42 1952.76,1007.42 "/>
<polyline clip-path="url(#clip612)" style="stroke:#000000; stroke-linecap:round; stroke-linejoin:round; stroke-width:2; stroke-opacity:0.1; fill:none" points="168.015,762.747 1952.76,762.747 "/>
<polyline clip-path="url(#clip612)" style="stroke:#000000; stroke-linecap:round; stroke-linejoin:round; stroke-width:2; stroke-opacity:0.1; fill:none" points="168.015,518.072 1952.76,518.072 "/>
<polyline clip-path="url(#clip612)" style="stroke:#000000; stroke-linecap:round; stroke-linejoin:round; stroke-width:2; stroke-opacity:0.1; fill:none" points="168.015,273.397 1952.76,273.397 "/>
<polyline clip-path="url(#clip610)" style="stroke:#000000; stroke-linecap:round; stroke-linejoin:round; stroke-width:4; stroke-opacity:1; fill:none" points="168.015,1035.39 168.015,47.2441 "/>
<polyline clip-path="url(#clip610)" style="stroke:#000000; stroke-linecap:round; stroke-linejoin:round; stroke-width:4; stroke-opacity:1; fill:none" points="168.015,1007.42 186.912,1007.42 "/>
<polyline clip-path="url(#clip610)" style="stroke:#000000; stroke-linecap:round; stroke-linejoin:round; stroke-width:4; stroke-opacity:1; fill:none" points="168.015,762.747 186.912,762.747 "/>
<polyline clip-path="url(#clip610)" style="stroke:#000000; stroke-linecap:round; stroke-linejoin:round; stroke-width:4; stroke-opacity:1; fill:none" points="168.015,518.072 186.912,518.072 "/>
<polyline clip-path="url(#clip610)" style="stroke:#000000; stroke-linecap:round; stroke-linejoin:round; stroke-width:4; stroke-opacity:1; fill:none" points="168.015,273.397 186.912,273.397 "/>
<path clip-path="url(#clip610)" d="M126.07 993.22 Q122.459 993.22 120.631 996.785 Q118.825 1000.33 118.825 1007.46 Q118.825 1014.56 120.631 1018.13 Q122.459 1021.67 126.07 1021.67 Q129.705 1021.67 131.51 1018.13 Q133.339 1014.56 133.339 1007.46 Q133.339 1000.33 131.51 996.785 Q129.705 993.22 126.07 993.22 M126.07 989.517 Q131.881 989.517 134.936 994.123 Q138.015 998.706 138.015 1007.46 Q138.015 1016.18 134.936 1020.79 Q131.881 1025.37 126.07 1025.37 Q120.26 1025.37 117.182 1020.79 Q114.126 1016.18 114.126 1007.46 Q114.126 998.706 117.182 994.123 Q120.26 989.517 126.07 989.517 Z" fill="#000000" fill-rule="nonzero" fill-opacity="1" /><path clip-path="url(#clip610)" d="M59.7745 776.092 L76.0939 776.092 L76.0939 780.027 L54.1495 780.027 L54.1495 776.092 Q56.8115 773.337 61.3949 768.707 Q66.0013 764.055 67.1819 762.712 Q69.4272 760.189 70.3068 758.453 Q71.2096 756.693 71.2096 755.004 Q71.2096 752.249 69.2652 750.513 Q67.3439 748.777 64.2421 748.777 Q62.043 748.777 59.5893 749.541 Q57.1588 750.305 54.381 751.856 L54.381 747.133 Q57.2051 745.999 59.6588 745.42 Q62.1124 744.842 64.1495 744.842 Q69.5198 744.842 72.7142 747.527 Q75.9087 750.212 75.9087 754.703 Q75.9087 756.832 75.0985 758.754 Q74.3115 760.652 72.205 763.244 Q71.6263 763.916 68.5245 767.133 Q65.4226 770.328 59.7745 776.092 Z" fill="#000000" fill-rule="nonzero" fill-opacity="1" /><path clip-path="url(#clip610)" d="M95.9086 748.545 Q92.2975 748.545 90.4688 752.11 Q88.6632 755.652 88.6632 762.781 Q88.6632 769.888 90.4688 773.453 Q92.2975 776.994 95.9086 776.994 Q99.5428 776.994 101.348 773.453 Q103.177 769.888 103.177 762.781 Q103.177 755.652 101.348 752.11 Q99.5428 748.545 95.9086 748.545 M95.9086 744.842 Q101.719 744.842 104.774 749.448 Q107.853 754.031 107.853 762.781 Q107.853 771.508 104.774 776.115 Q101.719 780.698 95.9086 780.698 Q90.0984 780.698 87.0197 776.115 Q83.9642 771.508 83.9642 762.781 Q83.9642 754.031 87.0197 749.448 Q90.0984 744.842 95.9086 744.842 Z" fill="#000000" fill-rule="nonzero" fill-opacity="1" /><path clip-path="url(#clip610)" d="M126.07 748.545 Q122.459 748.545 120.631 752.11 Q118.825 755.652 118.825 762.781 Q118.825 769.888 120.631 773.453 Q122.459 776.994 126.07 776.994 Q129.705 776.994 131.51 773.453 Q133.339 769.888 133.339 762.781 Q133.339 755.652 131.51 752.11 Q129.705 748.545 126.07 748.545 M126.07 744.842 Q131.881 744.842 134.936 749.448 Q138.015 754.031 138.015 762.781 Q138.015 771.508 134.936 776.115 Q131.881 780.698 126.07 780.698 Q120.26 780.698 117.182 776.115 Q114.126 771.508 114.126 762.781 Q114.126 754.031 117.182 749.448 Q120.26 744.842 126.07 744.842 Z" fill="#000000" fill-rule="nonzero" fill-opacity="1" /><path clip-path="url(#clip610)" d="M68.5939 504.866 L56.7884 523.315 L68.5939 523.315 L68.5939 504.866 M67.367 500.792 L73.2466 500.792 L73.2466 523.315 L78.1772 523.315 L78.1772 527.204 L73.2466 527.204 L73.2466 535.352 L68.5939 535.352 L68.5939 527.204 L52.9921 527.204 L52.9921 522.69 L67.367 500.792 Z" fill="#000000" fill-rule="nonzero" fill-opacity="1" /><path clip-path="url(#clip610)" d="M95.9086 503.871 Q92.2975 503.871 90.4688 507.435 Q88.6632 510.977 88.6632 518.107 Q88.6632 525.213 90.4688 528.778 Q92.2975 532.319 95.9086 532.319 Q99.5428 532.319 101.348 528.778 Q103.177 525.213 103.177 518.107 Q103.177 510.977 101.348 507.435 Q99.5428 503.871 95.9086 503.871 M95.9086 500.167 Q101.719 500.167 104.774 504.773 Q107.853 509.357 107.853 518.107 Q107.853 526.833 104.774 531.44 Q101.719 536.023 95.9086 536.023 Q90.0984 536.023 87.0197 531.44 Q83.9642 526.833 83.9642 518.107 Q83.9642 509.357 87.0197 504.773 Q90.0984 500.167 95.9086 500.167 Z" fill="#000000" fill-rule="nonzero" fill-opacity="1" /><path clip-path="url(#clip610)" d="M126.07 503.871 Q122.459 503.871 120.631 507.435 Q118.825 510.977 118.825 518.107 Q118.825 525.213 120.631 528.778 Q122.459 532.319 126.07 532.319 Q129.705 532.319 131.51 528.778 Q133.339 525.213 133.339 518.107 Q133.339 510.977 131.51 507.435 Q129.705 503.871 126.07 503.871 M126.07 500.167 Q131.881 500.167 134.936 504.773 Q138.015 509.357 138.015 518.107 Q138.015 526.833 134.936 531.44 Q131.881 536.023 126.07 536.023 Q120.26 536.023 117.182 531.44 Q114.126 526.833 114.126 518.107 Q114.126 509.357 117.182 504.773 Q120.26 500.167 126.07 500.167 Z" fill="#000000" fill-rule="nonzero" fill-opacity="1" /><path clip-path="url(#clip610)" d="M66.3254 271.534 Q63.1773 271.534 61.3254 273.686 Q59.4967 275.839 59.4967 279.589 Q59.4967 283.316 61.3254 285.492 Q63.1773 287.645 66.3254 287.645 Q69.4735 287.645 71.3022 285.492 Q73.1541 283.316 73.1541 279.589 Q73.1541 275.839 71.3022 273.686 Q69.4735 271.534 66.3254 271.534 M75.6077 256.881 L75.6077 261.14 Q73.8485 260.307 72.0429 259.867 Q70.2606 259.427 68.5013 259.427 Q63.8717 259.427 61.418 262.552 Q58.9875 265.677 58.6402 271.997 Q60.006 269.983 62.0662 268.918 Q64.1263 267.83 66.6032 267.83 Q71.8115 267.83 74.8207 271.001 Q77.8531 274.149 77.8531 279.589 Q77.8531 284.913 74.705 288.131 Q71.5568 291.348 66.3254 291.348 Q60.33 291.348 57.1588 286.765 Q53.9875 282.159 53.9875 273.432 Q53.9875 265.237 57.8764 260.376 Q61.7652 255.492 68.3161 255.492 Q70.0754 255.492 71.8578 255.839 Q73.6633 256.186 75.6077 256.881 Z" fill="#000000" fill-rule="nonzero" fill-opacity="1" /><path clip-path="url(#clip610)" d="M95.9086 259.196 Q92.2975 259.196 90.4688 262.761 Q88.6632 266.302 88.6632 273.432 Q88.6632 280.538 90.4688 284.103 Q92.2975 287.645 95.9086 287.645 Q99.5428 287.645 101.348 284.103 Q103.177 280.538 103.177 273.432 Q103.177 266.302 101.348 262.761 Q99.5428 259.196 95.9086 259.196 M95.9086 255.492 Q101.719 255.492 104.774 260.098 Q107.853 264.682 107.853 273.432 Q107.853 282.159 104.774 286.765 Q101.719 291.348 95.9086 291.348 Q90.0984 291.348 87.0197 286.765 Q83.9642 282.159 83.9642 273.432 Q83.9642 264.682 87.0197 260.098 Q90.0984 255.492 95.9086 255.492 Z" fill="#000000" fill-rule="nonzero" fill-opacity="1" /><path clip-path="url(#clip610)" d="M126.07 259.196 Q122.459 259.196 120.631 262.761 Q118.825 266.302 118.825 273.432 Q118.825 280.538 120.631 284.103 Q122.459 287.645 126.07 287.645 Q129.705 287.645 131.51 284.103 Q133.339 280.538 133.339 273.432 Q133.339 266.302 131.51 262.761 Q129.705 259.196 126.07 259.196 M126.07 255.492 Q131.881 255.492 134.936 260.098 Q138.015 264.682 138.015 273.432 Q138.015 282.159 134.936 286.765 Q131.881 291.348 126.07 291.348 Q120.26 291.348 117.182 286.765 Q114.126 282.159 114.126 273.432 Q114.126 264.682 117.182 260.098 Q120.26 255.492 126.07 255.492 Z" fill="#000000" fill-rule="nonzero" fill-opacity="1" /><polyline clip-path="url(#clip612)" style="stroke:#009af9; stroke-linecap:round; stroke-linejoin:round; stroke-width:8; stroke-opacity:0.5; fill:none" points="168.015,75.2104 169.801,75.245 171.588,75.2803 173.374,75.3162 175.161,75.3529 176.947,75.3903 178.734,75.4284 180.521,75.4673 182.307,75.507 184.094,75.5474 185.88,75.5886 187.667,75.6307 189.453,75.6735 191.24,75.7172 193.026,75.7618 194.813,75.8073 196.599,75.8536 198.386,75.9009 200.172,75.9491 201.959,75.9982 203.745,76.0483 205.532,76.0994 207.318,76.1516 209.105,76.2047 210.891,76.2589 212.678,76.3141 214.465,76.3704 216.251,76.4279 218.038,76.4865 219.824,76.5462 221.611,76.6071 223.397,76.6692 225.184,76.7325 226.97,76.797 228.757,76.8629 230.543,76.93 232.33,76.9984 234.116,77.0682 235.903,77.1394 237.689,77.2119 239.476,77.2859 241.262,77.3614 243.049,77.4383 244.836,77.5167 246.622,77.5967 248.409,77.6782 250.195,77.7613 251.982,77.8461 253.768,77.9325 255.555,78.0206 257.341,78.1104 259.128,78.202 260.914,78.2954 262.701,78.3907 264.487,78.4877 266.274,78.5867 268.06,78.6877 269.847,78.7905 271.633,78.8955 273.42,79.0024 275.206,79.1115 276.993,79.2226 278.78,79.336 280.566,79.4515 282.353,79.5694 284.139,79.6895 285.926,79.8119 287.712,79.9368 289.499,80.064 291.285,80.1938 293.072,80.3261 294.858,80.461 296.645,80.5985 298.431,80.7386 300.218,80.8815 302.004,81.0272 303.791,81.1757 305.577,81.3271 307.364,81.4814 309.151,81.6387 310.937,81.7991 312.724,81.9626 314.51,82.1292 316.297,82.2991 318.083,82.4723 319.87,82.6488 321.656,82.8288 323.443,83.0122 325.229,83.1991 327.016,83.3897 328.802,83.584 330.589,83.782 332.375,83.9838 334.162,84.1895 335.948,84.3992 337.735,84.6129 339.521,84.8308 341.308,85.0528 343.095,85.2791 344.881,85.5098 346.668,85.7449 348.454,85.9845 350.241,86.2287 352.027,86.4775 353.814,86.7312 355.6,86.9897 357.387,87.2531 359.173,87.5216 360.96,87.7952 362.746,88.074 364.533,88.3581 366.319,88.6476 368.106,88.9427 369.892,89.2433 371.679,89.5497 373.465,89.8619 375.252,90.18 377.039,90.5042 378.825,90.8345 380.612,91.171 382.398,91.5139 384.185,91.8633 385.971,92.2193 387.758,92.582 389.544,92.9515 391.331,93.328 393.117,93.7116 394.904,94.1024 396.69,94.5005 398.477,94.9061 400.263,95.3192 402.05,95.7401 403.836,96.1689 405.623,96.6056 407.41,97.0505 409.196,97.5037 410.983,97.9652 412.769,98.4353 414.556,98.9142 416.342,99.4018 418.129,99.8985 419.915,100.404 421.702,100.92 423.488,101.444 425.275,101.978 427.061,102.523 428.848,103.077 430.634,103.641 432.421,104.215 434.207,104.8 435.994,105.396 437.78,106.002 439.567,106.62 441.354,107.249 443.14,107.889 444.927,108.54 446.713,109.204 448.5,109.879 450.286,110.566 452.073,111.266 453.859,111.978 455.646,112.703 457.432,113.441 459.219,114.192 461.005,114.956 462.792,115.734 464.578,116.525 466.365,117.331 468.151,118.15 469.938,118.984 471.725,119.833 473.511,120.696 475.298,121.574 477.084,122.467 478.871,123.376 480.657,124.301 482.444,125.241 484.23,126.197 486.017,127.17 487.803,128.159 489.59,129.165 491.376,130.189 493.163,131.229 494.949,132.287 496.736,133.363 498.522,134.457 500.309,135.57 502.095,136.7 503.882,137.85 505.669,139.018 507.455,140.206 509.242,141.414 511.028,142.641 512.815,143.887 514.601,145.155 516.388,146.442 518.174,147.75 519.961,149.08 521.747,150.43 523.534,151.802 525.32,153.195 527.107,154.61 528.893,156.048 530.68,157.507 532.466,158.99 534.253,160.495 536.04,162.023 537.826,163.575 539.613,165.15 541.399,166.749 543.186,168.372 544.972,170.019 546.759,171.691 548.545,173.387 550.332,175.108 552.118,176.854 553.905,178.626 555.691,180.423 557.478,182.245 559.264,184.094 561.051,185.969 562.837,187.87 564.624,189.798 566.41,191.753 568.197,193.735 569.984,195.744 571.77,197.78 573.557,199.844 575.343,201.935 577.13,204.054 578.916,206.201 580.703,208.377 582.489,210.58 584.276,212.812 586.062,215.072 587.849,217.36 589.635,219.677 591.422,222.023 593.208,224.397 594.995,226.8 596.781,229.232 598.568,231.693 600.355,234.183 602.141,236.701 603.928,239.249 605.714,241.825 607.501,244.431 609.287,247.065 611.074,249.728 612.86,252.42 614.647,255.141 616.433,257.89 618.22,260.669 620.006,263.476 621.793,266.311 623.579,269.176 625.366,272.068 627.152,274.989 628.939,277.939 630.725,280.916 632.512,283.922 634.299,286.955 636.085,290.016 637.872,293.104 639.658,296.219 641.445,299.361 643.231,302.529 645.018,305.724 646.804,308.944 648.591,312.19 650.377,315.462 652.164,318.758 653.95,322.079 655.737,325.424 657.523,328.793 659.31,332.185 661.096,335.6 662.883,339.039 664.669,342.499 666.456,345.981 668.243,349.485 670.029,353.01 671.816,356.555 673.602,360.121 675.389,363.706 677.175,367.31 678.962,370.933 680.748,374.574 682.535,378.232 684.321,381.908 686.108,385.6 687.894,389.308 689.681,393.032 691.467,396.77 693.254,400.523 695.04,404.29 696.827,408.07 698.614,411.862 700.4,415.666 702.187,419.482 703.973,423.308 705.76,427.143 707.546,430.989 709.333,434.843 711.119,438.704 712.906,442.574 714.692,446.449 716.479,450.331 718.265,454.217 720.052,458.108 721.838,462.003 723.625,465.903 725.411,469.805 727.198,473.71 728.984,477.616 730.771,481.523 732.558,485.43 734.344,489.336 736.131,493.241 737.917,497.143 739.704,501.043 741.49,504.939 743.277,508.831 745.063,512.718 746.85,516.599 748.636,520.474 750.423,524.342 752.209,528.202 753.996,532.054 755.782,535.898 757.569,539.732 759.355,543.556 761.142,547.369 762.929,551.172 764.715,554.962 766.502,558.741 768.288,562.506 770.075,566.259 771.861,569.997 773.648,573.721 775.434,577.431 777.221,581.125 779.007,584.803 780.794,588.465 782.58,592.111 784.367,595.739 786.153,599.35 787.94,602.943 789.726,606.518 791.513,610.074 793.299,613.61 795.086,617.128 796.873,620.625 798.659,624.103 800.446,627.559 802.232,630.995 804.019,634.41 805.805,637.803 807.592,641.175 809.378,644.524 811.165,647.851 812.951,651.156 814.738,654.437 816.524,657.696 818.311,660.931 820.097,664.143 821.884,667.331 823.67,670.495 825.457,673.635 827.244,676.751 829.03,679.842 830.817,682.909 832.603,685.951 834.39,688.968 836.176,691.961 837.963,694.927 839.749,697.869 841.536,700.785 843.322,703.676 845.109,706.541 846.895,709.381 848.682,712.196 850.468,714.985 852.255,717.749 854.041,720.488 855.828,723.202 857.614,725.89 859.401,728.553 861.188,731.191 862.974,733.804 864.761,736.392 866.547,738.954 868.334,741.492 870.12,744.005 871.907,746.493 873.693,748.956 875.48,751.395 877.266,753.809 879.053,756.198 880.839,758.564 882.626,760.904 884.412,763.221 886.199,765.513 887.985,767.781 889.772,770.026 891.559,772.246 893.345,774.443 895.132,776.617 896.918,778.766 898.705,780.893 900.491,782.996 902.278,785.076 904.064,787.134 905.851,789.168 907.637,791.18 909.424,793.17 911.21,795.137 912.997,797.082 914.783,799.005 916.57,800.907 918.356,802.787 920.143,804.645 921.929,806.482 923.716,808.298 925.503,810.093 927.289,811.868 929.076,813.622 930.862,815.355 932.649,817.069 934.435,818.763 936.222,820.438 938.008,822.093 939.795,823.728 941.581,825.345 943.368,826.943 945.154,828.523 946.941,830.084 948.727,831.626 950.514,833.15 952.3,834.657 954.087,836.145 955.873,837.616 957.66,839.07 959.447,840.506 961.233,841.926 963.02,843.328 964.806,844.714 966.593,846.084 968.379,847.437 970.166,848.774 971.952,850.095 973.739,851.401 975.525,852.691 977.312,853.966 979.098,855.225 980.885,856.469 982.671,857.699 984.458,858.914 986.244,860.115 988.031,861.301 989.818,862.473 991.604,863.631 993.391,864.775 995.177,865.905 996.964,867.022 998.75,868.126 1000.54,869.217 1002.32,870.294 1004.11,871.359 1005.9,872.41 1007.68,873.45 1009.47,874.477 1011.26,875.491 1013.04,876.494 1014.83,877.484 1016.62,878.463 1018.4,879.43 1020.19,880.385 1021.98,881.329 1023.76,882.262 1025.55,883.184 1027.33,884.094 1029.12,884.994 1030.91,885.883 1032.69,886.762 1034.48,887.63 1036.27,888.488 1038.05,889.335 1039.84,890.173 1041.63,891 1043.41,891.818 1045.2,892.626 1046.99,893.424 1048.77,894.213 1050.56,894.993 1052.35,895.763 1054.13,896.524 1055.92,897.277 1057.71,898.02 1059.49,898.755 1061.28,899.481 1063.07,900.198 1064.85,900.907 1066.64,901.607 1068.42,902.3 1070.21,902.984 1072,903.66 1073.78,904.328 1075.57,904.988 1077.36,905.641 1079.14,906.286 1080.93,906.923 1082.72,907.553 1084.5,908.175 1086.29,908.791 1088.08,909.398 1089.86,909.999 1091.65,910.593 1093.44,911.18 1095.22,911.76 1097.01,912.333 1098.8,912.899 1100.58,913.459 1102.37,914.012 1104.16,914.559 1105.94,915.1 1107.73,915.634 1109.51,916.163 1111.3,916.685 1113.09,917.202 1114.87,917.712 1116.66,918.217 1118.45,918.716 1120.23,919.21 1122.02,919.698 1123.81,920.18 1125.59,920.657 1127.38,921.129 1129.17,921.596 1130.95,922.057 1132.74,922.513 1134.53,922.964 1136.31,923.41 1138.1,923.851 1139.89,924.287 1141.67,924.718 1143.46,925.145 1145.25,925.566 1147.03,925.983 1148.82,926.396 1150.61,926.804 1152.39,927.207 1154.18,927.607 1155.96,928.001 1157.75,928.392 1159.54,928.778 1161.32,929.16 1163.11,929.538 1164.9,929.911 1166.68,930.281 1168.47,930.647 1170.26,931.009 1172.04,931.366 1173.83,931.72 1175.62,932.071 1177.4,932.417 1179.19,932.76 1180.98,933.099 1182.76,933.435 1184.55,933.767 1186.34,934.095 1188.12,934.42 1189.91,934.742 1191.7,935.06 1193.48,935.375 1195.27,935.686 1197.05,935.995 1198.84,936.3 1200.63,936.601 1202.41,936.9 1204.2,937.196 1205.99,937.488 1207.77,937.778 1209.56,938.064 1211.35,938.347 1213.13,938.628 1214.92,938.905 1216.71,939.18 1218.49,939.452 1220.28,939.721 1222.07,939.987 1223.85,940.251 1225.64,940.512 1227.43,940.77 1229.21,941.026 1231,941.279 1232.79,941.53 1234.57,941.778 1236.36,942.023 1238.14,942.266 1239.93,942.507 1241.72,942.745 1243.5,942.981 1245.29,943.214 1247.08,943.445 1248.86,943.674 1250.65,943.9 1252.44,944.124 1254.22,944.346 1256.01,944.566 1257.8,944.783 1259.58,944.998 1261.37,945.211 1263.16,945.422 1264.94,945.631 1266.73,945.838 1268.52,946.043 1270.3,946.246 1272.09,946.446 1273.88,946.645 1275.66,946.842 1277.45,947.037 1279.23,947.23 1281.02,947.421 1282.81,947.61 1284.59,947.797 1286.38,947.983 1288.17,948.166 1289.95,948.348 1291.74,948.528 1293.53,948.707 1295.31,948.883 1297.1,949.058 1298.89,949.231 1300.67,949.403 1302.46,949.573 1304.25,949.741 1306.03,949.908 1307.82,950.073 1309.61,950.236 1311.39,950.398 1313.18,950.559 1314.97,950.717 1316.75,950.875 1318.54,951.031 1320.33,951.185 1322.11,951.338 1323.9,951.49 1325.68,951.64 1327.47,951.788 1329.26,951.936 1331.04,952.082 1332.83,952.226 1334.62,952.37 1336.4,952.511 1338.19,952.652 1339.98,952.791 1341.76,952.929 1343.55,953.066 1345.34,953.202 1347.12,953.336 1348.91,953.469 1350.7,953.601 1352.48,953.731 1354.27,953.861 1356.06,953.989 1357.84,954.116 1359.63,954.242 1361.42,954.367 1363.2,954.49 1364.99,954.613 1366.77,954.735 1368.56,954.855 1370.35,954.974 1372.13,955.092 1373.92,955.21 1375.71,955.326 1377.49,955.441 1379.28,955.555 1381.07,955.668 1382.85,955.78 1384.64,955.891 1386.43,956.001 1388.21,956.11 1390,956.218 1391.79,956.325 1393.57,956.431 1395.36,956.536 1397.15,956.64 1398.93,956.744 1400.72,956.846 1402.51,956.947 1404.29,957.048 1406.08,957.148 1407.86,957.246 1409.65,957.344 1411.44,957.441 1413.22,957.538 1415.01,957.633 1416.8,957.728 1418.58,957.821 1420.37,957.914 1422.16,958.006 1423.94,958.098 1425.73,958.188 1427.52,958.278 1429.3,958.367 1431.09,958.455 1432.88,958.542 1434.66,958.629 1436.45,958.715 1438.24,958.8 1440.02,958.884 1441.81,958.968 1443.6,959.051 1445.38,959.133 1447.17,959.214 1448.96,959.295 1450.74,959.375 1452.53,959.455 1454.31,959.533 1456.1,959.611 1457.89,959.689 1459.67,959.766 1461.46,959.842 1463.25,959.917 1465.03,959.992 1466.82,960.066 1468.61,960.139 1470.39,960.212 1472.18,960.284 1473.97,960.356 1475.75,960.427 1477.54,960.497 1479.33,960.567 1481.11,960.636 1482.9,960.705 1484.69,960.773 1486.47,960.84 1488.26,960.907 1490.05,960.973 1491.83,961.039 1493.62,961.104 1495.4,961.169 1497.19,961.233 1498.98,961.297 1500.76,961.36 1502.55,961.422 1504.34,961.484 1506.12,961.546 1507.91,961.607 1509.7,961.667 1511.48,961.727 1513.27,961.787 1515.06,961.845 1516.84,961.904 1518.63,961.962 1520.42,962.019 1522.2,962.076 1523.99,962.133 1525.78,962.189 1527.56,962.245 1529.35,962.3 1531.14,962.355 1532.92,962.409 1534.71,962.463 1536.49,962.516 1538.28,962.569 1540.07,962.622 1541.85,962.674 1543.64,962.725 1545.43,962.777 1547.21,962.828 1549,962.878 1550.79,962.928 1552.57,962.978 1554.36,963.027 1556.15,963.076 1557.93,963.124 1559.72,963.172 1561.51,963.22 1563.29,963.267 1565.08,963.314 1566.87,963.36 1568.65,963.406 1570.44,963.452 1572.23,963.497 1574.01,963.542 1575.8,963.587 1577.59,963.631 1579.37,963.675 1581.16,963.719 1582.94,963.762 1584.73,963.805 1586.52,963.848 1588.3,963.89 1590.09,963.932 1591.88,963.973 1593.66,964.014 1595.45,964.055 1597.24,964.096 1599.02,964.136 1600.81,964.176 1602.6,964.215 1604.38,964.255 1606.17,964.294 1607.96,964.332 1609.74,964.371 1611.53,964.409 1613.32,964.446 1615.1,964.484 1616.89,964.521 1618.68,964.558 1620.46,964.594 1622.25,964.63 1624.03,964.666 1625.82,964.702 1627.61,964.737 1629.39,964.772 1631.18,964.807 1632.97,964.842 1634.75,964.876 1636.54,964.91 1638.33,964.944 1640.11,964.977 1641.9,965.01 1643.69,965.043 1645.47,965.076 1647.26,965.108 1649.05,965.14 1650.83,965.172 1652.62,965.204 1654.41,965.235 1656.19,965.267 1657.98,965.297 1659.77,965.328 1661.55,965.359 1663.34,965.389 1665.12,965.419 1666.91,965.448 1668.7,965.478 1670.48,965.507 1672.27,965.536 1674.06,965.565 1675.84,965.593 1677.63,965.622 1679.42,965.65 1681.2,965.678 1682.99,965.705 1684.78,965.733 1686.56,965.76 1688.35,965.787 1690.14,965.814 1691.92,965.84 1693.71,965.867 1695.5,965.893 1697.28,965.919 1699.07,965.945 1700.86,965.97 1702.64,965.996 1704.43,966.021 1706.22,966.046 1708,966.071 1709.79,966.095 1711.57,966.12 1713.36,966.144 1715.15,966.168 1716.93,966.192 1718.72,966.216 1720.51,966.239 1722.29,966.262 1724.08,966.286 1725.87,966.309 1727.65,966.331 1729.44,966.354 1731.23,966.376 1733.01,966.399 1734.8,966.421 1736.59,966.443 1738.37,966.464 1740.16,966.486 1741.95,966.507 1743.73,966.529 1745.52,966.55 1747.31,966.571 1749.09,966.591 1750.88,966.612 1752.66,966.633 1754.45,966.653 1756.24,966.673 1758.02,966.693 1759.81,966.713 1761.6,966.733 1763.38,966.752 1765.17,966.772 1766.96,966.791 1768.74,966.81 1770.53,966.829 1772.32,966.848 1774.1,966.866 1775.89,966.885 1777.68,966.903 1779.46,966.922 1781.25,966.94 1783.04,966.958 1784.82,966.976 1786.61,966.993 1788.4,967.011 1790.18,967.028 1791.97,967.046 1793.75,967.063 1795.54,967.08 1797.33,967.097 1799.11,967.114 1800.9,967.13 1802.69,967.147 1804.47,967.163 1806.26,967.179 1808.05,967.196 1809.83,967.212 1811.62,967.228 1813.41,967.243 1815.19,967.259 1816.98,967.275 1818.77,967.29 1820.55,967.305 1822.34,967.321 1824.13,967.336 1825.91,967.351 1827.7,967.365 1829.49,967.38 1831.27,967.395 1833.06,967.409 1834.85,967.424 1836.63,967.438 1838.42,967.452 1840.2,967.466 1841.99,967.48 1843.78,967.494 1845.56,967.508 1847.35,967.522 1849.14,967.535 1850.92,967.549 1852.71,967.562 1854.5,967.575 1856.28,967.589 1858.07,967.602 1859.86,967.615 1861.64,967.627 1863.43,967.64 1865.22,967.653 1867,967.665 1868.79,967.678 1870.58,967.69 1872.36,967.703 1874.15,967.715 1875.94,967.727 1877.72,967.739 1879.51,967.751 1881.29,967.763 1883.08,967.774 1884.87,967.786 1886.65,967.798 1888.44,967.809 1890.23,967.821 1892.01,967.832 1893.8,967.843 1895.59,967.854 1897.37,967.865 1899.16,967.876 1900.95,967.887 1902.73,967.898 1904.52,967.909 1906.31,967.919 1908.09,967.93 1909.88,967.941 1911.67,967.951 1913.45,967.961 1915.24,967.972 1917.03,967.982 1918.81,967.992 1920.6,968.002 1922.38,968.012 1924.17,968.022 1925.96,968.032 1927.74,968.041 1929.53,968.051 1931.32,968.061 1933.1,968.07 1934.89,968.08 1936.68,968.089 1938.46,968.098 1940.25,968.108 1942.04,968.117 1943.82,968.126 1945.61,968.135 1947.4,968.144 1949.18,968.153 1950.97,968.162 1952.76,968.17 "/>
<polyline clip-path="url(#clip612)" style="stroke:#e26f46; stroke-linecap:round; stroke-linejoin:round; stroke-width:8; stroke-opacity:0.5; fill:none" points="168.015,1006.2 169.801,1006.17 171.588,1006.15 173.374,1006.12 175.161,1006.1 176.947,1006.07 178.734,1006.05 180.521,1006.02 182.307,1005.99 184.094,1005.96 185.88,1005.93 187.667,1005.9 189.453,1005.87 191.24,1005.84 193.026,1005.81 194.813,1005.78 196.599,1005.75 198.386,1005.72 200.172,1005.68 201.959,1005.65 203.745,1005.61 205.532,1005.58 207.318,1005.54 209.105,1005.5 210.891,1005.46 212.678,1005.43 214.465,1005.39 216.251,1005.35 218.038,1005.31 219.824,1005.26 221.611,1005.22 223.397,1005.18 225.184,1005.13 226.97,1005.09 228.757,1005.04 230.543,1005 232.33,1004.95 234.116,1004.9 235.903,1004.85 237.689,1004.8 239.476,1004.75 241.262,1004.69 243.049,1004.64 244.836,1004.59 246.622,1004.53 248.409,1004.47 250.195,1004.41 251.982,1004.36 253.768,1004.29 255.555,1004.23 257.341,1004.17 259.128,1004.11 260.914,1004.04 262.701,1003.97 264.487,1003.91 266.274,1003.84 268.06,1003.77 269.847,1003.7 271.633,1003.62 273.42,1003.55 275.206,1003.47 276.993,1003.39 278.78,1003.31 280.566,1003.23 282.353,1003.15 284.139,1003.07 285.926,1002.98 287.712,1002.9 289.499,1002.81 291.285,1002.72 293.072,1002.62 294.858,1002.53 296.645,1002.43 298.431,1002.34 300.218,1002.24 302.004,1002.13 303.791,1002.03 305.577,1001.92 307.364,1001.82 309.151,1001.71 310.937,1001.6 312.724,1001.48 314.51,1001.37 316.297,1001.25 318.083,1001.13 319.87,1001 321.656,1000.88 323.443,1000.75 325.229,1000.62 327.016,1000.49 328.802,1000.35 330.589,1000.21 332.375,1000.07 334.162,999.929 335.948,999.783 337.735,999.634 339.521,999.483 341.308,999.328 343.095,999.17 344.881,999.01 346.668,998.846 348.454,998.679 350.241,998.509 352.027,998.336 353.814,998.16 355.6,997.98 357.387,997.797 359.173,997.61 360.96,997.42 362.746,997.226 364.533,997.028 366.319,996.827 368.106,996.622 369.892,996.413 371.679,996.2 373.465,995.983 375.252,995.762 377.039,995.537 378.825,995.307 380.612,995.074 382.398,994.835 384.185,994.593 385.971,994.346 387.758,994.094 389.544,993.838 391.331,993.577 393.117,993.31 394.904,993.039 396.69,992.763 398.477,992.482 400.263,992.196 402.05,991.904 403.836,991.607 405.623,991.305 407.41,990.997 409.196,990.683 410.983,990.364 412.769,990.038 414.556,989.707 416.342,989.37 418.129,989.026 419.915,988.676 421.702,988.32 423.488,987.958 425.275,987.589 427.061,987.213 428.848,986.83 430.634,986.441 432.421,986.045 434.207,985.641 435.994,985.23 437.78,984.812 439.567,984.386 441.354,983.953 443.14,983.512 444.927,983.064 446.713,982.607 448.5,982.142 450.286,981.67 452.073,981.188 453.859,980.699 455.646,980.201 457.432,979.694 459.219,979.178 461.005,978.654 462.792,978.12 464.578,977.577 466.365,977.025 468.151,976.464 469.938,975.892 471.725,975.312 473.511,974.721 475.298,974.12 477.084,973.509 478.871,972.888 480.657,972.257 482.444,971.615 484.23,970.962 486.017,970.299 487.803,969.624 489.59,968.939 491.376,968.242 493.163,967.534 494.949,966.814 496.736,966.083 498.522,965.339 500.309,964.584 502.095,963.817 503.882,963.037 505.669,962.245 507.455,961.441 509.242,960.623 511.028,959.793 512.815,958.95 514.601,958.095 516.388,957.225 518.174,956.343 519.961,955.447 521.747,954.538 523.534,953.614 525.32,952.677 527.107,951.726 528.893,950.761 530.68,949.782 532.466,948.789 534.253,947.781 536.04,946.758 537.826,945.721 539.613,944.669 541.399,943.603 543.186,942.521 544.972,941.424 546.759,940.312 548.545,939.184 550.332,938.042 552.118,936.884 553.905,935.71 555.691,934.521 557.478,933.316 559.264,932.096 561.051,930.859 562.837,929.607 564.624,928.338 566.41,927.054 568.197,925.753 569.984,924.436 571.77,923.103 573.557,921.754 575.343,920.389 577.13,919.007 578.916,917.609 580.703,916.195 582.489,914.765 584.276,913.319 586.062,911.856 587.849,910.378 589.635,908.883 591.422,907.373 593.208,905.846 594.995,904.304 596.781,902.745 598.568,901.172 600.355,899.582 602.141,897.977 603.928,896.357 605.714,894.721 607.501,893.07 609.287,891.405 611.074,889.724 612.86,888.029 614.647,886.319 616.433,884.595 618.22,882.857 620.006,881.104 621.793,879.338 623.579,877.558 625.366,875.765 627.152,873.959 628.939,872.139 630.725,870.307 632.512,868.462 634.299,866.605 636.085,864.736 637.872,862.855 639.658,860.963 641.445,859.061 643.231,857.148 645.018,855.225 646.804,853.292 648.591,851.35 650.377,849.399 652.164,847.44 653.95,845.473 655.737,843.498 657.523,841.515 659.31,839.527 661.096,837.531 662.883,835.53 664.669,833.524 666.456,831.512 668.243,829.496 670.029,827.476 671.816,825.453 673.602,823.426 675.389,821.397 677.175,819.366 678.962,817.333 680.748,815.299 682.535,813.265 684.321,811.23 686.108,809.196 687.894,807.163 689.681,805.132 691.467,803.103 693.254,801.077 695.04,799.054 696.827,797.034 698.614,795.019 700.4,793.01 702.187,791.005 703.973,789.007 705.76,787.016 707.546,785.032 709.333,783.057 711.119,781.089 712.906,779.131 714.692,777.183 716.479,775.246 718.265,773.32 720.052,771.405 721.838,769.503 723.625,767.612 725.411,765.735 727.198,763.871 728.984,762.022 730.771,760.187 732.558,758.368 734.344,756.565 736.131,754.778 737.917,753.008 739.704,751.257 741.49,749.523 743.277,747.808 745.063,746.112 746.85,744.436 748.636,742.78 750.423,741.145 752.209,739.531 753.996,737.938 755.782,736.367 757.569,734.819 759.355,733.294 761.142,731.791 762.929,730.312 764.715,728.858 766.502,727.427 768.288,726.021 770.075,724.64 771.861,723.284 773.648,721.954 775.434,720.649 777.221,719.371 779.007,718.119 780.794,716.893 782.58,715.695 784.367,714.523 786.153,713.379 787.94,712.262 789.726,711.173 791.513,710.111 793.299,709.078 795.086,708.073 796.873,707.096 798.659,706.147 800.446,705.227 802.232,704.335 804.019,703.472 805.805,702.637 807.592,701.832 809.378,701.055 811.165,700.307 812.951,699.588 814.738,698.898 816.524,698.236 818.311,697.604 820.097,697 821.884,696.425 823.67,695.878 825.457,695.36 827.244,694.871 829.03,694.41 830.817,693.977 832.603,693.573 834.39,693.196 836.176,692.848 837.963,692.527 839.749,692.235 841.536,691.97 843.322,691.733 845.109,691.523 846.895,691.34 848.682,691.184 850.468,691.054 852.255,690.95 854.041,690.873 855.828,690.821 857.614,690.795 859.401,690.795 861.188,690.819 862.974,690.868 864.761,690.942 866.547,691.04 868.334,691.162 870.12,691.307 871.907,691.476 873.693,691.669 875.48,691.884 877.266,692.122 879.053,692.383 880.839,692.665 882.626,692.97 884.412,693.296 886.199,693.643 887.985,694.012 889.772,694.401 891.559,694.81 893.345,695.24 895.132,695.69 896.918,696.159 898.705,696.648 900.491,697.155 902.278,697.682 904.064,698.227 905.851,698.789 907.637,699.37 909.424,699.968 911.21,700.584 912.997,701.216 914.783,701.865 916.57,702.53 918.356,703.211 920.143,703.908 921.929,704.62 923.716,705.347 925.503,706.089 927.289,706.845 929.076,707.615 930.862,708.399 932.649,709.197 934.435,710.007 936.222,710.83 938.008,711.666 939.795,712.513 941.581,713.372 943.368,714.243 945.154,715.125 946.941,716.017 948.727,716.92 950.514,717.833 952.3,718.756 954.087,719.688 955.873,720.631 957.66,721.582 959.447,722.543 961.233,723.512 963.02,724.489 964.806,725.475 966.593,726.469 968.379,727.471 970.166,728.481 971.952,729.498 973.739,730.522 975.525,731.552 977.312,732.59 979.098,733.634 980.885,734.684 982.671,735.741 984.458,736.803 986.244,737.871 988.031,738.944 989.818,740.023 991.604,741.106 993.391,742.195 995.177,743.288 996.964,744.385 998.75,745.487 1000.54,746.593 1002.32,747.703 1004.11,748.816 1005.9,749.933 1007.68,751.053 1009.47,752.177 1011.26,753.303 1013.04,754.433 1014.83,755.564 1016.62,756.699 1018.4,757.835 1020.19,758.974 1021.98,760.115 1023.76,761.258 1025.55,762.402 1027.33,763.548 1029.12,764.695 1030.91,765.843 1032.69,766.992 1034.48,768.143 1036.27,769.294 1038.05,770.445 1039.84,771.598 1041.63,772.75 1043.41,773.903 1045.2,775.056 1046.99,776.209 1048.77,777.361 1050.56,778.514 1052.35,779.666 1054.13,780.817 1055.92,781.968 1057.71,783.118 1059.49,784.267 1061.28,785.416 1063.07,786.563 1064.85,787.709 1066.64,788.853 1068.42,789.996 1070.21,791.138 1072,792.278 1073.78,793.416 1075.57,794.553 1077.36,795.688 1079.14,796.82 1080.93,797.951 1082.72,799.08 1084.5,800.206 1086.29,801.33 1088.08,802.452 1089.86,803.571 1091.65,804.688 1093.44,805.802 1095.22,806.913 1097.01,808.022 1098.8,809.128 1100.58,810.231 1102.37,811.332 1104.16,812.429 1105.94,813.523 1107.73,814.615 1109.51,815.703 1111.3,816.788 1113.09,817.869 1114.87,818.948 1116.66,820.023 1118.45,821.095 1120.23,822.164 1122.02,823.229 1123.81,824.291 1125.59,825.349 1127.38,826.404 1129.17,827.455 1130.95,828.502 1132.74,829.546 1134.53,830.586 1136.31,831.623 1138.1,832.656 1139.89,833.685 1141.67,834.71 1143.46,835.732 1145.25,836.749 1147.03,837.763 1148.82,838.773 1150.61,839.779 1152.39,840.781 1154.18,841.779 1155.96,842.773 1157.75,843.762 1159.54,844.748 1161.32,845.73 1163.11,846.708 1164.9,847.681 1166.68,848.651 1168.47,849.616 1170.26,850.577 1172.04,851.534 1173.83,852.487 1175.62,853.436 1177.4,854.38 1179.19,855.32 1180.98,856.256 1182.76,857.188 1184.55,858.115 1186.34,859.038 1188.12,859.957 1189.91,860.872 1191.7,861.782 1193.48,862.688 1195.27,863.589 1197.05,864.487 1198.84,865.38 1200.63,866.269 1202.41,867.153 1204.2,868.033 1205.99,868.909 1207.77,869.781 1209.56,870.648 1211.35,871.511 1213.13,872.37 1214.92,873.224 1216.71,874.074 1218.49,874.92 1220.28,875.761 1222.07,876.599 1223.85,877.432 1225.64,878.26 1227.43,879.084 1229.21,879.904 1231,880.72 1232.79,881.532 1234.57,882.339 1236.36,883.142 1238.14,883.941 1239.93,884.735 1241.72,885.525 1243.5,886.311 1245.29,887.093 1247.08,887.871 1248.86,888.644 1250.65,889.413 1252.44,890.178 1254.22,890.939 1256.01,891.696 1257.8,892.449 1259.58,893.197 1261.37,893.941 1263.16,894.682 1264.94,895.418 1266.73,896.15 1268.52,896.878 1270.3,897.602 1272.09,898.321 1273.88,899.037 1275.66,899.749 1277.45,900.456 1279.23,901.16 1281.02,901.86 1282.81,902.555 1284.59,903.247 1286.38,903.935 1288.17,904.619 1289.95,905.298 1291.74,905.974 1293.53,906.646 1295.31,907.314 1297.1,907.978 1298.89,908.639 1300.67,909.295 1302.46,909.948 1304.25,910.596 1306.03,911.241 1307.82,911.882 1309.61,912.519 1311.39,913.153 1313.18,913.782 1314.97,914.408 1316.75,915.03 1318.54,915.649 1320.33,916.263 1322.11,916.874 1323.9,917.482 1325.68,918.085 1327.47,918.685 1329.26,919.281 1331.04,919.874 1332.83,920.463 1334.62,921.049 1336.4,921.63 1338.19,922.209 1339.98,922.783 1341.76,923.354 1343.55,923.922 1345.34,924.486 1347.12,925.047 1348.91,925.604 1350.7,926.157 1352.48,926.708 1354.27,927.254 1356.06,927.798 1357.84,928.338 1359.63,928.874 1361.42,929.408 1363.2,929.938 1364.99,930.464 1366.77,930.987 1368.56,931.507 1370.35,932.024 1372.13,932.537 1373.92,933.048 1375.71,933.554 1377.49,934.058 1379.28,934.559 1381.07,935.056 1382.85,935.55 1384.64,936.041 1386.43,936.529 1388.21,937.014 1390,937.496 1391.79,937.975 1393.57,938.451 1395.36,938.923 1397.15,939.393 1398.93,939.86 1400.72,940.324 1402.51,940.785 1404.29,941.242 1406.08,941.697 1407.86,942.149 1409.65,942.598 1411.44,943.045 1413.22,943.488 1415.01,943.928 1416.8,944.366 1418.58,944.801 1420.37,945.233 1422.16,945.662 1423.94,946.088 1425.73,946.512 1427.52,946.933 1429.3,947.351 1431.09,947.766 1432.88,948.179 1434.66,948.589 1436.45,948.996 1438.24,949.401 1440.02,949.803 1441.81,950.202 1443.6,950.599 1445.38,950.993 1447.17,951.384 1448.96,951.773 1450.74,952.159 1452.53,952.543 1454.31,952.924 1456.1,953.303 1457.89,953.679 1459.67,954.053 1461.46,954.424 1463.25,954.793 1465.03,955.159 1466.82,955.523 1468.61,955.885 1470.39,956.244 1472.18,956.601 1473.97,956.955 1475.75,957.307 1477.54,957.656 1479.33,958.004 1481.11,958.348 1482.9,958.691 1484.69,959.031 1486.47,959.369 1488.26,959.705 1490.05,960.039 1491.83,960.37 1493.62,960.699 1495.4,961.026 1497.19,961.35 1498.98,961.673 1500.76,961.993 1502.55,962.311 1504.34,962.627 1506.12,962.941 1507.91,963.252 1509.7,963.562 1511.48,963.869 1513.27,964.174 1515.06,964.478 1516.84,964.779 1518.63,965.078 1520.42,965.375 1522.2,965.67 1523.99,965.964 1525.78,966.255 1527.56,966.544 1529.35,966.831 1531.14,967.116 1532.92,967.4 1534.71,967.681 1536.49,967.96 1538.28,968.238 1540.07,968.514 1541.85,968.787 1543.64,969.059 1545.43,969.329 1547.21,969.597 1549,969.864 1550.79,970.128 1552.57,970.391 1554.36,970.652 1556.15,970.911 1557.93,971.169 1559.72,971.424 1561.51,971.678 1563.29,971.93 1565.08,972.181 1566.87,972.429 1568.65,972.677 1570.44,972.922 1572.23,973.166 1574.01,973.408 1575.8,973.648 1577.59,973.887 1579.37,974.124 1581.16,974.359 1582.94,974.593 1584.73,974.825 1586.52,975.056 1588.3,975.285 1590.09,975.513 1591.88,975.739 1593.66,975.963 1595.45,976.186 1597.24,976.407 1599.02,976.627 1600.81,976.845 1602.6,977.062 1604.38,977.277 1606.17,977.491 1607.96,977.703 1609.74,977.914 1611.53,978.123 1613.32,978.331 1615.1,978.538 1616.89,978.743 1618.68,978.946 1620.46,979.149 1622.25,979.349 1624.03,979.549 1625.82,979.747 1627.61,979.943 1629.39,980.139 1631.18,980.333 1632.97,980.525 1634.75,980.716 1636.54,980.906 1638.33,981.095 1640.11,981.282 1641.9,981.468 1643.69,981.652 1645.47,981.836 1647.26,982.018 1649.05,982.198 1650.83,982.378 1652.62,982.556 1654.41,982.733 1656.19,982.909 1657.98,983.083 1659.77,983.257 1661.55,983.429 1663.34,983.6 1665.12,983.769 1666.91,983.938 1668.7,984.105 1670.48,984.271 1672.27,984.436 1674.06,984.6 1675.84,984.762 1677.63,984.924 1679.42,985.084 1681.2,985.243 1682.99,985.402 1684.78,985.558 1686.56,985.714 1688.35,985.869 1690.14,986.023 1691.92,986.175 1693.71,986.327 1695.5,986.477 1697.28,986.627 1699.07,986.775 1700.86,986.922 1702.64,987.069 1704.43,987.214 1706.22,987.358 1708,987.501 1709.79,987.643 1711.57,987.784 1713.36,987.925 1715.15,988.064 1716.93,988.202 1718.72,988.339 1720.51,988.475 1722.29,988.611 1724.08,988.745 1725.87,988.878 1727.65,989.011 1729.44,989.142 1731.23,989.273 1733.01,989.403 1734.8,989.531 1736.59,989.659 1738.37,989.786 1740.16,989.912 1741.95,990.038 1743.73,990.162 1745.52,990.285 1747.31,990.408 1749.09,990.53 1750.88,990.65 1752.66,990.77 1754.45,990.889 1756.24,991.008 1758.02,991.125 1759.81,991.242 1761.6,991.358 1763.38,991.473 1765.17,991.587 1766.96,991.7 1768.74,991.813 1770.53,991.925 1772.32,992.036 1774.1,992.146 1775.89,992.256 1777.68,992.364 1779.46,992.472 1781.25,992.58 1783.04,992.686 1784.82,992.792 1786.61,992.897 1788.4,993.001 1790.18,993.104 1791.97,993.207 1793.75,993.309 1795.54,993.41 1797.33,993.511 1799.11,993.611 1800.9,993.71 1802.69,993.808 1804.47,993.906 1806.26,994.003 1808.05,994.099 1809.83,994.195 1811.62,994.29 1813.41,994.384 1815.19,994.478 1816.98,994.571 1818.77,994.663 1820.55,994.755 1822.34,994.846 1824.13,994.936 1825.91,995.026 1827.7,995.115 1829.49,995.203 1831.27,995.291 1833.06,995.378 1834.85,995.464 1836.63,995.55 1838.42,995.636 1840.2,995.72 1841.99,995.804 1843.78,995.888 1845.56,995.971 1847.35,996.053 1849.14,996.135 1850.92,996.216 1852.71,996.296 1854.5,996.376 1856.28,996.456 1858.07,996.534 1859.86,996.613 1861.64,996.69 1863.43,996.767 1865.22,996.844 1867,996.92 1868.79,996.995 1870.58,997.07 1872.36,997.145 1874.15,997.219 1875.94,997.292 1877.72,997.365 1879.51,997.437 1881.29,997.509 1883.08,997.58 1884.87,997.651 1886.65,997.721 1888.44,997.791 1890.23,997.86 1892.01,997.929 1893.8,997.997 1895.59,998.065 1897.37,998.132 1899.16,998.199 1900.95,998.265 1902.73,998.331 1904.52,998.396 1906.31,998.461 1908.09,998.526 1909.88,998.59 1911.67,998.653 1913.45,998.716 1915.24,998.779 1917.03,998.841 1918.81,998.903 1920.6,998.964 1922.38,999.025 1924.17,999.085 1925.96,999.145 1927.74,999.205 1929.53,999.264 1931.32,999.322 1933.1,999.381 1934.89,999.439 1936.68,999.496 1938.46,999.553 1940.25,999.61 1942.04,999.666 1943.82,999.722 1945.61,999.777 1947.4,999.832 1949.18,999.887 1950.97,999.941 1952.76,999.995 "/>
<polyline clip-path="url(#clip612)" style="stroke:#3da44d; stroke-linecap:round; stroke-linejoin:round; stroke-width:8; stroke-opacity:0.5; fill:none" points="168.015,1007.42 169.801,1007.41 171.588,1007.4 173.374,1007.39 175.161,1007.38 176.947,1007.37 178.734,1007.36 180.521,1007.34 182.307,1007.33 184.094,1007.32 185.88,1007.31 187.667,1007.3 189.453,1007.28 191.24,1007.27 193.026,1007.26 194.813,1007.24 196.599,1007.23 198.386,1007.21 200.172,1007.2 201.959,1007.18 203.745,1007.17 205.532,1007.15 207.318,1007.14 209.105,1007.12 210.891,1007.11 212.678,1007.09 214.465,1007.07 216.251,1007.06 218.038,1007.04 219.824,1007.02 221.611,1007 223.397,1006.98 225.184,1006.96 226.97,1006.94 228.757,1006.92 230.543,1006.9 232.33,1006.88 234.116,1006.86 235.903,1006.84 237.689,1006.82 239.476,1006.8 241.262,1006.77 243.049,1006.75 244.836,1006.73 246.622,1006.7 248.409,1006.68 250.195,1006.65 251.982,1006.63 253.768,1006.6 255.555,1006.58 257.341,1006.55 259.128,1006.52 260.914,1006.49 262.701,1006.46 264.487,1006.44 266.274,1006.41 268.06,1006.38 269.847,1006.34 271.633,1006.31 273.42,1006.28 275.206,1006.25 276.993,1006.21 278.78,1006.18 280.566,1006.14 282.353,1006.11 284.139,1006.07 285.926,1006.04 287.712,1006 289.499,1005.96 291.285,1005.92 293.072,1005.88 294.858,1005.84 296.645,1005.8 298.431,1005.76 300.218,1005.71 302.004,1005.67 303.791,1005.62 305.577,1005.58 307.364,1005.53 309.151,1005.48 310.937,1005.44 312.724,1005.39 314.51,1005.34 316.297,1005.28 318.083,1005.23 319.87,1005.18 321.656,1005.12 323.443,1005.07 325.229,1005.01 327.016,1004.95 328.802,1004.89 330.589,1004.83 332.375,1004.77 334.162,1004.71 335.948,1004.65 337.735,1004.58 339.521,1004.52 341.308,1004.45 343.095,1004.38 344.881,1004.31 346.668,1004.24 348.454,1004.17 350.241,1004.09 352.027,1004.02 353.814,1003.94 355.6,1003.86 357.387,1003.78 359.173,1003.7 360.96,1003.62 362.746,1003.53 364.533,1003.44 366.319,1003.36 368.106,1003.27 369.892,1003.17 371.679,1003.08 373.465,1002.99 375.252,1002.89 377.039,1002.79 378.825,1002.69 380.612,1002.59 382.398,1002.48 384.185,1002.37 385.971,1002.26 387.758,1002.15 389.544,1002.04 391.331,1001.93 393.117,1001.81 394.904,1001.69 396.69,1001.57 398.477,1001.44 400.263,1001.31 402.05,1001.19 403.836,1001.05 405.623,1000.92 407.41,1000.78 409.196,1000.64 410.983,1000.5 412.769,1000.36 414.556,1000.21 416.342,1000.06 418.129,999.905 419.915,999.749 421.702,999.59 423.488,999.428 425.275,999.263 427.061,999.094 428.848,998.923 430.634,998.748 432.421,998.57 434.207,998.389 435.994,998.204 437.78,998.016 439.567,997.824 441.354,997.628 443.14,997.429 444.927,997.226 446.713,997.019 448.5,996.809 450.286,996.594 452.073,996.376 453.859,996.153 455.646,995.926 457.432,995.695 459.219,995.46 461.005,995.22 462.792,994.976 464.578,994.727 466.365,994.474 468.151,994.216 469.938,993.953 471.725,993.686 473.511,993.413 475.298,993.136 477.084,992.853 478.871,992.566 480.657,992.273 482.444,991.974 484.23,991.671 486.017,991.361 487.803,991.046 489.59,990.726 491.376,990.399 493.163,990.067 494.949,989.728 496.736,989.384 498.522,989.033 500.309,988.676 502.095,988.313 503.882,987.943 505.669,987.566 507.455,987.183 509.242,986.793 511.028,986.396 512.815,985.992 514.601,985.581 516.388,985.163 518.174,984.737 519.961,984.303 521.747,983.863 523.534,983.414 525.32,982.958 527.107,982.493 528.893,982.021 530.68,981.54 532.466,981.052 534.253,980.554 536.04,980.048 537.826,979.534 539.613,979.011 541.399,978.479 543.186,977.938 544.972,977.387 546.759,976.828 548.545,976.259 550.332,975.68 552.118,975.092 553.905,974.494 555.691,973.886 557.478,973.269 559.264,972.64 561.051,972.002 562.837,971.353 564.624,970.694 566.41,970.023 568.197,969.342 569.984,968.65 571.77,967.947 573.557,967.232 575.343,966.506 577.13,965.768 578.916,965.019 580.703,964.258 582.489,963.485 584.276,962.699 586.062,961.902 587.849,961.092 589.635,960.27 591.422,959.435 593.208,958.587 594.995,957.726 596.781,956.852 598.568,955.965 600.355,955.065 602.141,954.152 603.928,953.224 605.714,952.284 607.501,951.329 609.287,950.361 611.074,949.378 612.86,948.381 614.647,947.37 616.433,946.345 618.22,945.305 620.006,944.25 621.793,943.181 623.579,942.096 625.366,940.997 627.152,939.882 628.939,938.752 630.725,937.607 632.512,936.447 634.299,935.27 636.085,934.079 637.872,932.871 639.658,931.648 641.445,930.408 643.231,929.153 645.018,927.882 646.804,926.594 648.591,925.29 650.377,923.969 652.164,922.632 653.95,921.279 655.737,919.909 657.523,918.522 659.31,917.119 661.096,915.698 662.883,914.261 664.669,912.807 666.456,911.337 668.243,909.849 670.029,908.344 671.816,906.822 673.602,905.283 675.389,903.728 677.175,902.155 678.962,900.565 680.748,898.958 682.535,897.333 684.321,895.692 686.108,894.034 687.894,892.359 689.681,890.666 691.467,888.957 693.254,887.23 695.04,885.487 696.827,883.726 698.614,881.949 700.4,880.154 702.187,878.343 703.973,876.515 705.76,874.67 707.546,872.809 709.333,870.931 711.119,869.036 712.906,867.125 714.692,865.197 716.479,863.253 718.265,861.293 720.052,859.317 721.838,857.324 723.625,855.315 725.411,853.29 727.198,851.249 728.984,849.192 730.771,847.12 732.558,845.032 734.344,842.929 736.131,840.811 737.917,838.678 739.704,836.531 741.49,834.368 743.277,832.191 745.063,830 746.85,827.795 748.636,825.576 750.423,823.344 752.209,821.097 753.996,818.838 755.782,816.565 757.569,814.279 759.355,811.981 761.142,809.67 762.929,807.346 764.715,805.01 766.502,802.662 768.288,800.303 770.075,797.931 771.861,795.549 773.648,793.155 775.434,790.75 777.221,788.334 779.007,785.908 780.794,783.471 782.58,781.024 784.367,778.567 786.153,776.101 787.94,773.625 789.726,771.139 791.513,768.645 793.299,766.142 795.086,763.63 796.873,761.109 798.659,758.581 800.446,756.044 802.232,753.5 804.019,750.948 805.805,748.39 807.592,745.824 809.378,743.251 811.165,740.672 812.951,738.087 814.738,735.495 816.524,732.898 818.311,730.295 820.097,727.687 821.884,725.074 823.67,722.457 825.457,719.835 827.244,717.208 829.03,714.578 830.817,711.944 832.603,709.306 834.39,706.665 836.176,704.022 837.963,701.375 839.749,698.726 841.536,696.075 843.322,693.421 845.109,690.766 846.895,688.109 848.682,685.451 850.468,682.791 852.255,680.13 854.041,677.469 855.828,674.807 857.614,672.145 859.401,669.482 861.188,666.82 862.974,664.158 864.761,661.497 866.547,658.836 868.334,656.177 870.12,653.518 871.907,650.861 873.693,648.205 875.48,645.551 877.266,642.899 879.053,640.249 880.839,637.601 882.626,634.956 884.412,632.313 886.199,629.674 887.985,627.037 889.772,624.403 891.559,621.773 893.345,619.147 895.132,616.524 896.918,613.904 898.705,611.289 900.491,608.678 902.278,606.072 904.064,603.47 905.851,600.872 907.637,598.28 909.424,595.692 911.21,593.109 912.997,590.532 914.783,587.96 916.57,585.393 918.356,582.832 920.143,580.277 921.929,577.728 923.716,575.185 925.503,572.648 927.289,570.117 929.076,567.593 930.862,565.075 932.649,562.564 934.435,560.06 936.222,557.562 938.008,555.072 939.795,552.589 941.581,550.112 943.368,547.644 945.154,545.183 946.941,542.73 948.727,540.284 950.514,537.847 952.3,535.418 954.087,532.996 955.873,530.583 957.66,528.178 959.447,525.781 961.233,523.393 963.02,521.012 964.806,518.641 966.593,516.277 968.379,513.922 970.166,511.575 971.952,509.237 973.739,506.908 975.525,504.587 977.312,502.275 979.098,499.971 980.885,497.676 982.671,495.39 984.458,493.113 986.244,490.845 988.031,488.585 989.818,486.335 991.604,484.093 993.391,481.86 995.177,479.637 996.964,477.422 998.75,475.217 1000.54,473.02 1002.32,470.833 1004.11,468.655 1005.9,466.486 1007.68,464.327 1009.47,462.177 1011.26,460.036 1013.04,457.904 1014.83,455.782 1016.62,453.669 1018.4,451.565 1020.19,449.471 1021.98,447.386 1023.76,445.31 1025.55,443.245 1027.33,441.188 1029.12,439.141 1030.91,437.104 1032.69,435.076 1034.48,433.057 1036.27,431.049 1038.05,429.049 1039.84,427.06 1041.63,425.08 1043.41,423.109 1045.2,421.148 1046.99,419.197 1048.77,417.255 1050.56,415.323 1052.35,413.401 1054.13,411.488 1055.92,409.585 1057.71,407.692 1059.49,405.808 1061.28,403.934 1063.07,402.07 1064.85,400.215 1066.64,398.37 1068.42,396.534 1070.21,394.708 1072,392.892 1073.78,391.086 1075.57,389.289 1077.36,387.501 1079.14,385.724 1080.93,383.956 1082.72,382.197 1084.5,380.449 1086.29,378.709 1088.08,376.98 1089.86,375.26 1091.65,373.549 1093.44,371.848 1095.22,370.157 1097.01,368.475 1098.8,366.803 1100.58,365.14 1102.37,363.486 1104.16,361.842 1105.94,360.207 1107.73,358.581 1109.51,356.965 1111.3,355.357 1113.09,353.759 1114.87,352.17 1116.66,350.59 1118.45,349.019 1120.23,347.457 1122.02,345.903 1123.81,344.359 1125.59,342.824 1127.38,341.297 1129.17,339.78 1130.95,338.271 1132.74,336.771 1134.53,335.28 1136.31,333.797 1138.1,332.323 1139.89,330.858 1141.67,329.402 1143.46,327.954 1145.25,326.515 1147.03,325.084 1148.82,323.661 1150.61,322.247 1152.39,320.842 1154.18,319.445 1155.96,318.056 1157.75,316.676 1159.54,315.304 1161.32,313.94 1163.11,312.585 1164.9,311.237 1166.68,309.898 1168.47,308.567 1170.26,307.244 1172.04,305.929 1173.83,304.623 1175.62,303.324 1177.4,302.033 1179.19,300.75 1180.98,299.475 1182.76,298.208 1184.55,296.948 1186.34,295.697 1188.12,294.453 1189.91,293.217 1191.7,291.988 1193.48,290.767 1195.27,289.554 1197.05,288.349 1198.84,287.151 1200.63,285.96 1202.41,284.777 1204.2,283.601 1205.99,282.433 1207.77,281.272 1209.56,280.118 1211.35,278.972 1213.13,277.833 1214.92,276.701 1216.71,275.576 1218.49,274.458 1220.28,273.348 1222.07,272.244 1223.85,271.147 1225.64,270.058 1227.43,268.975 1229.21,267.9 1231,266.831 1232.79,265.769 1234.57,264.714 1236.36,263.665 1238.14,262.623 1239.93,261.588 1241.72,260.56 1243.5,259.538 1245.29,258.523 1247.08,257.515 1248.86,256.512 1250.65,255.517 1252.44,254.528 1254.22,253.545 1256.01,252.569 1257.8,251.598 1259.58,250.635 1261.37,249.677 1263.16,248.726 1264.94,247.781 1266.73,246.842 1268.52,245.91 1270.3,244.983 1272.09,244.062 1273.88,243.148 1275.66,242.239 1277.45,241.337 1279.23,240.44 1281.02,239.55 1282.81,238.665 1284.59,237.786 1286.38,236.913 1288.17,236.045 1289.95,235.184 1291.74,234.328 1293.53,233.477 1295.31,232.633 1297.1,231.794 1298.89,230.96 1300.67,230.132 1302.46,229.31 1304.25,228.493 1306.03,227.681 1307.82,226.875 1309.61,226.074 1311.39,225.279 1313.18,224.489 1314.97,223.704 1316.75,222.925 1318.54,222.151 1320.33,221.381 1322.11,220.618 1323.9,219.859 1325.68,219.105 1327.47,218.356 1329.26,217.613 1331.04,216.874 1332.83,216.141 1334.62,215.412 1336.4,214.688 1338.19,213.969 1339.98,213.255 1341.76,212.546 1343.55,211.842 1345.34,211.142 1347.12,210.448 1348.91,209.757 1350.7,209.072 1352.48,208.391 1354.27,207.715 1356.06,207.043 1357.84,206.376 1359.63,205.714 1361.42,205.056 1363.2,204.402 1364.99,203.753 1366.77,203.108 1368.56,202.468 1370.35,201.832 1372.13,201.2 1373.92,200.573 1375.71,199.95 1377.49,199.331 1379.28,198.717 1381.07,198.106 1382.85,197.5 1384.64,196.898 1386.43,196.3 1388.21,195.706 1390,195.116 1391.79,194.53 1393.57,193.948 1395.36,193.371 1397.15,192.797 1398.93,192.227 1400.72,191.66 1402.51,191.098 1404.29,190.54 1406.08,189.985 1407.86,189.434 1409.65,188.887 1411.44,188.344 1413.22,187.804 1415.01,187.269 1416.8,186.736 1418.58,186.208 1420.37,185.683 1422.16,185.162 1423.94,184.644 1425.73,184.13 1427.52,183.62 1429.3,183.113 1431.09,182.609 1432.88,182.109 1434.66,181.612 1436.45,181.119 1438.24,180.63 1440.02,180.143 1441.81,179.66 1443.6,179.181 1445.38,178.704 1447.17,178.231 1448.96,177.762 1450.74,177.295 1452.53,176.832 1454.31,176.372 1456.1,175.915 1457.89,175.462 1459.67,175.011 1461.46,174.564 1463.25,174.12 1465.03,173.679 1466.82,173.241 1468.61,172.806 1470.39,172.374 1472.18,171.945 1473.97,171.519 1475.75,171.096 1477.54,170.677 1479.33,170.26 1481.11,169.845 1482.9,169.434 1484.69,169.026 1486.47,168.621 1488.26,168.218 1490.05,167.818 1491.83,167.421 1493.62,167.027 1495.4,166.635 1497.19,166.247 1498.98,165.861 1500.76,165.478 1502.55,165.097 1504.34,164.719 1506.12,164.344 1507.91,163.971 1509.7,163.601 1511.48,163.234 1513.27,162.869 1515.06,162.507 1516.84,162.147 1518.63,161.79 1520.42,161.435 1522.2,161.083 1523.99,160.733 1525.78,160.386 1527.56,160.041 1529.35,159.699 1531.14,159.359 1532.92,159.022 1534.71,158.686 1536.49,158.354 1538.28,158.023 1540.07,157.695 1541.85,157.369 1543.64,157.045 1545.43,156.724 1547.21,156.405 1549,156.088 1550.79,155.774 1552.57,155.461 1554.36,155.151 1556.15,154.843 1557.93,154.537 1559.72,154.234 1561.51,153.932 1563.29,153.633 1565.08,153.336 1566.87,153.04 1568.65,152.747 1570.44,152.456 1572.23,152.167 1574.01,151.88 1575.8,151.595 1577.59,151.312 1579.37,151.031 1581.16,150.752 1582.94,150.475 1584.73,150.2 1586.52,149.927 1588.3,149.655 1590.09,149.386 1591.88,149.118 1593.66,148.853 1595.45,148.589 1597.24,148.327 1599.02,148.067 1600.81,147.809 1602.6,147.553 1604.38,147.298 1606.17,147.046 1607.96,146.795 1609.74,146.546 1611.53,146.298 1613.32,146.053 1615.1,145.809 1616.89,145.567 1618.68,145.326 1620.46,145.087 1622.25,144.85 1624.03,144.615 1625.82,144.381 1627.61,144.149 1629.39,143.919 1631.18,143.69 1632.97,143.463 1634.75,143.238 1636.54,143.014 1638.33,142.792 1640.11,142.571 1641.9,142.352 1643.69,142.134 1645.47,141.918 1647.26,141.704 1649.05,141.491 1650.83,141.28 1652.62,141.07 1654.41,140.861 1656.19,140.655 1657.98,140.449 1659.77,140.245 1661.55,140.043 1663.34,139.842 1665.12,139.642 1666.91,139.444 1668.7,139.247 1670.48,139.052 1672.27,138.858 1674.06,138.665 1675.84,138.474 1677.63,138.285 1679.42,138.096 1681.2,137.909 1682.99,137.723 1684.78,137.539 1686.56,137.356 1688.35,137.174 1690.14,136.993 1691.92,136.814 1693.71,136.636 1695.5,136.46 1697.28,136.284 1699.07,136.11 1700.86,135.937 1702.64,135.766 1704.43,135.595 1706.22,135.426 1708,135.258 1709.79,135.091 1711.57,134.926 1713.36,134.761 1715.15,134.598 1716.93,134.436 1718.72,134.275 1720.51,134.115 1722.29,133.957 1724.08,133.799 1725.87,133.643 1727.65,133.488 1729.44,133.334 1731.23,133.181 1733.01,133.029 1734.8,132.878 1736.59,132.728 1738.37,132.579 1740.16,132.432 1741.95,132.285 1743.73,132.14 1745.52,131.995 1747.31,131.852 1749.09,131.709 1750.88,131.568 1752.66,131.427 1754.45,131.288 1756.24,131.149 1758.02,131.012 1759.81,130.875 1761.6,130.74 1763.38,130.605 1765.17,130.471 1766.96,130.339 1768.74,130.207 1770.53,130.076 1772.32,129.946 1774.1,129.817 1775.89,129.689 1777.68,129.562 1779.46,129.436 1781.25,129.311 1783.04,129.186 1784.82,129.063 1786.61,128.94 1788.4,128.818 1790.18,128.698 1791.97,128.578 1793.75,128.458 1795.54,128.34 1797.33,128.223 1799.11,128.106 1800.9,127.99 1802.69,127.875 1804.47,127.761 1806.26,127.648 1808.05,127.535 1809.83,127.424 1811.62,127.313 1813.41,127.203 1815.19,127.093 1816.98,126.985 1818.77,126.877 1820.55,126.77 1822.34,126.664 1824.13,126.559 1825.91,126.454 1827.7,126.35 1829.49,126.247 1831.27,126.144 1833.06,126.043 1834.85,125.942 1836.63,125.842 1838.42,125.742 1840.2,125.643 1841.99,125.545 1843.78,125.448 1845.56,125.351 1847.35,125.255 1849.14,125.16 1850.92,125.066 1852.71,124.972 1854.5,124.878 1856.28,124.786 1858.07,124.694 1859.86,124.603 1861.64,124.512 1863.43,124.422 1865.22,124.333 1867,124.245 1868.79,124.157 1870.58,124.069 1872.36,123.983 1874.15,123.897 1875.94,123.811 1877.72,123.726 1879.51,123.642 1881.29,123.559 1883.08,123.476 1884.87,123.393 1886.65,123.311 1888.44,123.23 1890.23,123.149 1892.01,123.069 1893.8,122.99 1895.59,122.911 1897.37,122.833 1899.16,122.755 1900.95,122.678 1902.73,122.601 1904.52,122.525 1906.31,122.449 1908.09,122.374 1909.88,122.3 1911.67,122.226 1913.45,122.153 1915.24,122.08 1917.03,122.007 1918.81,121.936 1920.6,121.864 1922.38,121.794 1924.17,121.723 1925.96,121.653 1927.74,121.584 1929.53,121.515 1931.32,121.447 1933.1,121.379 1934.89,121.312 1936.68,121.245 1938.46,121.179 1940.25,121.113 1942.04,121.047 1943.82,120.982 1945.61,120.918 1947.4,120.854 1949.18,120.79 1950.97,120.727 1952.76,120.665 "/>
<circle clip-path="url(#clip612)" cx="295.496" cy="1003.75" r="14.4" fill="#000000" fill-rule="evenodd" fill-opacity="1" stroke="none"/>
<circle clip-path="url(#clip612)" cx="422.978" cy="997.635" r="14.4" fill="#000000" fill-rule="evenodd" fill-opacity="1" stroke="none"/>
<circle clip-path="url(#clip612)" cx="550.459" cy="975.614" r="14.4" fill="#000000" fill-rule="evenodd" fill-opacity="1" stroke="none"/>
<circle clip-path="url(#clip612)" cx="677.941" cy="914.445" r="14.4" fill="#000000" fill-rule="evenodd" fill-opacity="1" stroke="none"/>
<circle clip-path="url(#clip612)" cx="805.422" cy="732.162" r="14.4" fill="#000000" fill-rule="evenodd" fill-opacity="1" stroke="none"/>
<circle clip-path="url(#clip612)" cx="932.904" cy="642.856" r="14.4" fill="#000000" fill-rule="evenodd" fill-opacity="1" stroke="none"/>
<circle clip-path="url(#clip612)" cx="1060.39" cy="691.791" r="14.4" fill="#000000" fill-rule="evenodd" fill-opacity="1" stroke="none"/>
<circle clip-path="url(#clip612)" cx="1187.87" cy="722.375" r="14.4" fill="#000000" fill-rule="evenodd" fill-opacity="1" stroke="none"/>
<circle clip-path="url(#clip612)" cx="1315.35" cy="776.204" r="14.4" fill="#000000" fill-rule="evenodd" fill-opacity="1" stroke="none"/>
<circle clip-path="url(#clip612)" cx="1442.83" cy="850.83" r="14.4" fill="#000000" fill-rule="evenodd" fill-opacity="1" stroke="none"/>
<circle clip-path="url(#clip612)" cx="1570.31" cy="924.232" r="14.4" fill="#000000" fill-rule="evenodd" fill-opacity="1" stroke="none"/>
<circle clip-path="url(#clip612)" cx="1697.79" cy="971.944" r="14.4" fill="#000000" fill-rule="evenodd" fill-opacity="1" stroke="none"/>
<circle clip-path="url(#clip612)" cx="1825.27" cy="990.294" r="14.4" fill="#000000" fill-rule="evenodd" fill-opacity="1" stroke="none"/>
<circle clip-path="url(#clip612)" cx="1952.76" cy="1002.53" r="14.4" fill="#000000" fill-rule="evenodd" fill-opacity="1" stroke="none"/>
<path clip-path="url(#clip610)" d="M1446.09 339.382 L1893.26 339.382 L1893.26 80.1822 L1446.09 80.1822  Z" fill="#ffffff" fill-rule="evenodd" fill-opacity="1"/>
<polyline clip-path="url(#clip610)" style="stroke:#000000; stroke-linecap:round; stroke-linejoin:round; stroke-width:4; stroke-opacity:1; fill:none" points="1446.09,339.382 1893.26,339.382 1893.26,80.1822 1446.09,80.1822 1446.09,339.382 "/>
<polyline clip-path="url(#clip610)" style="stroke:#009af9; stroke-linecap:round; stroke-linejoin:round; stroke-width:8; stroke-opacity:0.5; fill:none" points="1465.92,132.022 1584.9,132.022 "/>
<path clip-path="url(#clip610)" d="M1626.98 115.876 L1626.98 120.437 Q1624.32 119.163 1621.95 118.538 Q1619.59 117.913 1617.39 117.913 Q1613.57 117.913 1611.49 119.395 Q1609.43 120.876 1609.43 123.608 Q1609.43 125.9 1610.8 127.08 Q1612.19 128.238 1616.03 128.955 L1618.85 129.534 Q1624.08 130.529 1626.56 133.052 Q1629.06 135.552 1629.06 139.765 Q1629.06 144.788 1625.68 147.381 Q1622.32 149.974 1615.82 149.974 Q1613.37 149.974 1610.59 149.418 Q1607.83 148.862 1604.87 147.774 L1604.87 142.96 Q1607.72 144.557 1610.45 145.367 Q1613.18 146.177 1615.82 146.177 Q1619.82 146.177 1622 144.603 Q1624.18 143.029 1624.18 140.112 Q1624.18 137.566 1622.6 136.131 Q1621.05 134.696 1617.49 133.978 L1614.64 133.423 Q1609.41 132.381 1607.07 130.159 Q1604.73 127.937 1604.73 123.978 Q1604.73 119.395 1607.95 116.756 Q1611.19 114.117 1616.86 114.117 Q1619.29 114.117 1621.82 114.557 Q1624.34 114.997 1626.98 115.876 Z" fill="#000000" fill-rule="nonzero" fill-opacity="1" /><path clip-path="url(#clip610)" d="M1635.73 139.071 L1635.73 123.376 L1639.99 123.376 L1639.99 138.909 Q1639.99 142.589 1641.42 144.441 Q1642.86 146.27 1645.73 146.27 Q1649.18 146.27 1651.17 144.071 Q1653.18 141.872 1653.18 138.075 L1653.18 123.376 L1657.44 123.376 L1657.44 149.302 L1653.18 149.302 L1653.18 145.321 Q1651.63 147.682 1649.57 148.839 Q1647.53 149.974 1644.82 149.974 Q1640.36 149.974 1638.04 147.196 Q1635.73 144.418 1635.73 139.071 M1646.44 122.751 L1646.44 122.751 Z" fill="#000000" fill-rule="nonzero" fill-opacity="1" /><path clip-path="url(#clip610)" d="M1682.74 124.14 L1682.74 128.168 Q1680.94 127.242 1678.99 126.779 Q1677.05 126.316 1674.96 126.316 Q1671.79 126.316 1670.19 127.288 Q1668.62 128.261 1668.62 130.205 Q1668.62 131.687 1669.75 132.543 Q1670.89 133.376 1674.31 134.14 L1675.77 134.464 Q1680.31 135.437 1682.21 137.219 Q1684.13 138.978 1684.13 142.149 Q1684.13 145.761 1681.26 147.867 Q1678.41 149.974 1673.41 149.974 Q1671.33 149.974 1669.06 149.557 Q1666.81 149.163 1664.31 148.353 L1664.31 143.955 Q1666.68 145.182 1668.97 145.807 Q1671.26 146.409 1673.5 146.409 Q1676.51 146.409 1678.13 145.39 Q1679.75 144.349 1679.75 142.474 Q1679.75 140.737 1678.57 139.812 Q1677.42 138.886 1673.46 138.029 L1671.98 137.682 Q1668.02 136.849 1666.26 135.136 Q1664.5 133.4 1664.5 130.39 Q1664.5 126.733 1667.09 124.742 Q1669.69 122.751 1674.45 122.751 Q1676.81 122.751 1678.9 123.099 Q1680.98 123.446 1682.74 124.14 Z" fill="#000000" fill-rule="nonzero" fill-opacity="1" /><path clip-path="url(#clip610)" d="M1695.03 145.413 L1695.03 159.163 L1690.75 159.163 L1690.75 123.376 L1695.03 123.376 L1695.03 127.312 Q1696.37 124.997 1698.41 123.886 Q1700.47 122.751 1703.32 122.751 Q1708.04 122.751 1710.98 126.501 Q1713.94 130.251 1713.94 136.362 Q1713.94 142.474 1710.98 146.224 Q1708.04 149.974 1703.32 149.974 Q1700.47 149.974 1698.41 148.862 Q1696.37 147.728 1695.03 145.413 M1709.52 136.362 Q1709.52 131.663 1707.58 129.001 Q1705.66 126.316 1702.28 126.316 Q1698.9 126.316 1696.95 129.001 Q1695.03 131.663 1695.03 136.362 Q1695.03 141.062 1696.95 143.747 Q1698.9 146.409 1702.28 146.409 Q1705.66 146.409 1707.58 143.747 Q1709.52 141.062 1709.52 136.362 Z" fill="#000000" fill-rule="nonzero" fill-opacity="1" /><path clip-path="url(#clip610)" d="M1743.18 135.275 L1743.18 137.358 L1723.6 137.358 Q1723.87 141.756 1726.24 144.071 Q1728.62 146.362 1732.86 146.362 Q1735.31 146.362 1737.6 145.761 Q1739.92 145.159 1742.18 143.955 L1742.18 147.983 Q1739.89 148.955 1737.49 149.464 Q1735.08 149.974 1732.6 149.974 Q1726.4 149.974 1722.76 146.362 Q1719.15 142.751 1719.15 136.594 Q1719.15 130.228 1722.58 126.501 Q1726.03 122.751 1731.86 122.751 Q1737.09 122.751 1740.12 126.131 Q1743.18 129.488 1743.18 135.275 M1738.92 134.025 Q1738.87 130.529 1736.95 128.446 Q1735.06 126.363 1731.91 126.363 Q1728.34 126.363 1726.19 128.376 Q1724.06 130.39 1723.74 134.048 L1738.92 134.025 Z" fill="#000000" fill-rule="nonzero" fill-opacity="1" /><path clip-path="url(#clip610)" d="M1768.83 124.372 L1768.83 128.353 Q1767.02 127.358 1765.19 126.872 Q1763.39 126.363 1761.54 126.363 Q1757.39 126.363 1755.1 129.001 Q1752.81 131.617 1752.81 136.362 Q1752.81 141.108 1755.1 143.747 Q1757.39 146.362 1761.54 146.362 Q1763.39 146.362 1765.19 145.876 Q1767.02 145.367 1768.83 144.372 L1768.83 148.307 Q1767.05 149.14 1765.12 149.557 Q1763.23 149.974 1761.07 149.974 Q1755.22 149.974 1751.77 146.293 Q1748.32 142.612 1748.32 136.362 Q1748.32 130.02 1751.79 126.386 Q1755.29 122.751 1761.35 122.751 Q1763.32 122.751 1765.19 123.168 Q1767.07 123.562 1768.83 124.372 Z" fill="#000000" fill-rule="nonzero" fill-opacity="1" /><path clip-path="url(#clip610)" d="M1780.45 116.015 L1780.45 123.376 L1789.22 123.376 L1789.22 126.687 L1780.45 126.687 L1780.45 140.761 Q1780.45 143.932 1781.3 144.835 Q1782.18 145.737 1784.85 145.737 L1789.22 145.737 L1789.22 149.302 L1784.85 149.302 Q1779.92 149.302 1778.04 147.474 Q1776.17 145.622 1776.17 140.761 L1776.17 126.687 L1773.04 126.687 L1773.04 123.376 L1776.17 123.376 L1776.17 116.015 L1780.45 116.015 Z" fill="#000000" fill-rule="nonzero" fill-opacity="1" /><path clip-path="url(#clip610)" d="M1794.82 123.376 L1799.08 123.376 L1799.08 149.302 L1794.82 149.302 L1794.82 123.376 M1794.82 113.284 L1799.08 113.284 L1799.08 118.677 L1794.82 118.677 L1794.82 113.284 Z" fill="#000000" fill-rule="nonzero" fill-opacity="1" /><path clip-path="url(#clip610)" d="M1826.61 136.362 Q1826.61 131.663 1824.66 129.001 Q1822.74 126.316 1819.36 126.316 Q1815.98 126.316 1814.04 129.001 Q1812.11 131.663 1812.11 136.362 Q1812.11 141.062 1814.04 143.747 Q1815.98 146.409 1819.36 146.409 Q1822.74 146.409 1824.66 143.747 Q1826.61 141.062 1826.61 136.362 M1812.11 127.312 Q1813.46 124.997 1815.49 123.886 Q1817.55 122.751 1820.4 122.751 Q1825.12 122.751 1828.06 126.501 Q1831.03 130.251 1831.03 136.362 Q1831.03 142.474 1828.06 146.224 Q1825.12 149.974 1820.4 149.974 Q1817.55 149.974 1815.49 148.862 Q1813.46 147.728 1812.11 145.413 L1812.11 149.302 L1807.83 149.302 L1807.83 113.284 L1812.11 113.284 L1812.11 127.312 Z" fill="#000000" fill-rule="nonzero" fill-opacity="1" /><path clip-path="url(#clip610)" d="M1838.09 113.284 L1842.35 113.284 L1842.35 149.302 L1838.09 149.302 L1838.09 113.284 Z" fill="#000000" fill-rule="nonzero" fill-opacity="1" /><path clip-path="url(#clip610)" d="M1873.43 135.275 L1873.43 137.358 L1853.85 137.358 Q1854.13 141.756 1856.49 144.071 Q1858.87 146.362 1863.11 146.362 Q1865.56 146.362 1867.86 145.761 Q1870.17 145.159 1872.44 143.955 L1872.44 147.983 Q1870.15 148.955 1867.74 149.464 Q1865.33 149.974 1862.86 149.974 Q1856.65 149.974 1853.02 146.362 Q1849.41 142.751 1849.41 136.594 Q1849.41 130.228 1852.83 126.501 Q1856.28 122.751 1862.11 122.751 Q1867.35 122.751 1870.38 126.131 Q1873.43 129.488 1873.43 135.275 M1869.17 134.025 Q1869.13 130.529 1867.21 128.446 Q1865.31 126.363 1862.16 126.363 Q1858.6 126.363 1856.44 128.376 Q1854.31 130.39 1853.99 134.048 L1869.17 134.025 Z" fill="#000000" fill-rule="nonzero" fill-opacity="1" /><polyline clip-path="url(#clip610)" style="stroke:#e26f46; stroke-linecap:round; stroke-linejoin:round; stroke-width:8; stroke-opacity:0.5; fill:none" points="1465.92,183.862 1584.9,183.862 "/>
<path clip-path="url(#clip610)" d="M1604.73 166.582 L1609.41 166.582 L1609.41 201.142 L1604.73 201.142 L1604.73 166.582 Z" fill="#000000" fill-rule="nonzero" fill-opacity="1" /><path clip-path="url(#clip610)" d="M1640.08 185.494 L1640.08 201.142 L1635.82 201.142 L1635.82 185.633 Q1635.82 181.953 1634.38 180.124 Q1632.95 178.295 1630.08 178.295 Q1626.63 178.295 1624.64 180.494 Q1622.65 182.693 1622.65 186.49 L1622.65 201.142 L1618.37 201.142 L1618.37 175.216 L1622.65 175.216 L1622.65 179.244 Q1624.18 176.906 1626.24 175.749 Q1628.32 174.591 1631.03 174.591 Q1635.5 174.591 1637.79 177.369 Q1640.08 180.124 1640.08 185.494 Z" fill="#000000" fill-rule="nonzero" fill-opacity="1" /><path clip-path="url(#clip610)" d="M1661.7 165.124 L1661.7 168.666 L1657.63 168.666 Q1655.33 168.666 1654.43 169.591 Q1653.55 170.517 1653.55 172.925 L1653.55 175.216 L1660.56 175.216 L1660.56 178.527 L1653.55 178.527 L1653.55 201.142 L1649.27 201.142 L1649.27 178.527 L1645.19 178.527 L1645.19 175.216 L1649.27 175.216 L1649.27 173.411 Q1649.27 169.082 1651.28 167.115 Q1653.3 165.124 1657.67 165.124 L1661.7 165.124 Z" fill="#000000" fill-rule="nonzero" fill-opacity="1" /><path clip-path="url(#clip610)" d="M1687.44 187.115 L1687.44 189.198 L1667.86 189.198 Q1668.13 193.596 1670.5 195.911 Q1672.88 198.202 1677.12 198.202 Q1679.57 198.202 1681.86 197.601 Q1684.18 196.999 1686.44 195.795 L1686.44 199.823 Q1684.15 200.795 1681.75 201.304 Q1679.34 201.814 1676.86 201.814 Q1670.66 201.814 1667.02 198.202 Q1663.41 194.591 1663.41 188.434 Q1663.41 182.068 1666.84 178.341 Q1670.29 174.591 1676.12 174.591 Q1681.35 174.591 1684.38 177.971 Q1687.44 181.328 1687.44 187.115 M1683.18 185.865 Q1683.13 182.369 1681.21 180.286 Q1679.31 178.203 1676.17 178.203 Q1672.6 178.203 1670.45 180.216 Q1668.32 182.23 1668 185.888 L1683.18 185.865 Z" fill="#000000" fill-rule="nonzero" fill-opacity="1" /><path clip-path="url(#clip610)" d="M1713.09 176.212 L1713.09 180.193 Q1711.28 179.198 1709.45 178.712 Q1707.65 178.203 1705.8 178.203 Q1701.65 178.203 1699.36 180.841 Q1697.07 183.457 1697.07 188.202 Q1697.07 192.948 1699.36 195.587 Q1701.65 198.202 1705.8 198.202 Q1707.65 198.202 1709.45 197.716 Q1711.28 197.207 1713.09 196.212 L1713.09 200.147 Q1711.31 200.98 1709.38 201.397 Q1707.49 201.814 1705.33 201.814 Q1699.48 201.814 1696.03 198.133 Q1692.58 194.452 1692.58 188.202 Q1692.58 181.86 1696.05 178.226 Q1699.55 174.591 1705.61 174.591 Q1707.58 174.591 1709.45 175.008 Q1711.33 175.402 1713.09 176.212 Z" fill="#000000" fill-rule="nonzero" fill-opacity="1" /><path clip-path="url(#clip610)" d="M1724.71 167.855 L1724.71 175.216 L1733.48 175.216 L1733.48 178.527 L1724.71 178.527 L1724.71 192.601 Q1724.71 195.772 1725.56 196.675 Q1726.44 197.577 1729.11 197.577 L1733.48 197.577 L1733.48 201.142 L1729.11 201.142 Q1724.18 201.142 1722.3 199.314 Q1720.43 197.462 1720.43 192.601 L1720.43 178.527 L1717.3 178.527 L1717.3 175.216 L1720.43 175.216 L1720.43 167.855 L1724.71 167.855 Z" fill="#000000" fill-rule="nonzero" fill-opacity="1" /><path clip-path="url(#clip610)" d="M1761.26 187.115 L1761.26 189.198 L1741.68 189.198 Q1741.95 193.596 1744.31 195.911 Q1746.7 198.202 1750.93 198.202 Q1753.39 198.202 1755.68 197.601 Q1757.99 196.999 1760.26 195.795 L1760.26 199.823 Q1757.97 200.795 1755.56 201.304 Q1753.16 201.814 1750.68 201.814 Q1744.48 201.814 1740.84 198.202 Q1737.23 194.591 1737.23 188.434 Q1737.23 182.068 1740.66 178.341 Q1744.11 174.591 1749.94 174.591 Q1755.17 174.591 1758.2 177.971 Q1761.26 181.328 1761.26 187.115 M1757 185.865 Q1756.95 182.369 1755.03 180.286 Q1753.13 178.203 1749.99 178.203 Q1746.42 178.203 1744.27 180.216 Q1742.14 182.23 1741.81 185.888 L1757 185.865 Z" fill="#000000" fill-rule="nonzero" fill-opacity="1" /><path clip-path="url(#clip610)" d="M1785.31 179.152 L1785.31 165.124 L1789.57 165.124 L1789.57 201.142 L1785.31 201.142 L1785.31 197.253 Q1783.97 199.568 1781.91 200.702 Q1779.87 201.814 1777 201.814 Q1772.3 201.814 1769.34 198.064 Q1766.4 194.314 1766.4 188.202 Q1766.4 182.091 1769.34 178.341 Q1772.3 174.591 1777 174.591 Q1779.87 174.591 1781.91 175.726 Q1783.97 176.837 1785.31 179.152 M1770.8 188.202 Q1770.8 192.902 1772.72 195.587 Q1774.66 198.249 1778.04 198.249 Q1781.42 198.249 1783.37 195.587 Q1785.31 192.902 1785.31 188.202 Q1785.31 183.503 1783.37 180.841 Q1781.42 178.156 1778.04 178.156 Q1774.66 178.156 1772.72 180.841 Q1770.8 183.503 1770.8 188.202 Z" fill="#000000" fill-rule="nonzero" fill-opacity="1" /><polyline clip-path="url(#clip610)" style="stroke:#3da44d; stroke-linecap:round; stroke-linejoin:round; stroke-width:8; stroke-opacity:0.5; fill:none" points="1465.92,235.702 1584.9,235.702 "/>
<path clip-path="url(#clip610)" d="M1621.12 236.779 Q1622.63 237.288 1624.04 238.955 Q1625.47 240.621 1626.91 243.538 L1631.65 252.982 L1626.63 252.982 L1622.21 244.117 Q1620.5 240.644 1618.88 239.51 Q1617.28 238.376 1614.5 238.376 L1609.41 238.376 L1609.41 252.982 L1604.73 252.982 L1604.73 218.422 L1615.29 218.422 Q1621.21 218.422 1624.13 220.899 Q1627.05 223.376 1627.05 228.376 Q1627.05 231.64 1625.52 233.793 Q1624.01 235.945 1621.12 236.779 M1609.41 222.265 L1609.41 234.533 L1615.29 234.533 Q1618.67 234.533 1620.38 232.982 Q1622.12 231.408 1622.12 228.376 Q1622.12 225.343 1620.38 223.816 Q1618.67 222.265 1615.29 222.265 L1609.41 222.265 Z" fill="#000000" fill-rule="nonzero" fill-opacity="1" /><path clip-path="url(#clip610)" d="M1657.53 238.955 L1657.53 241.038 L1637.95 241.038 Q1638.23 245.436 1640.59 247.751 Q1642.97 250.042 1647.21 250.042 Q1649.66 250.042 1651.95 249.441 Q1654.27 248.839 1656.54 247.635 L1656.54 251.663 Q1654.25 252.635 1651.84 253.144 Q1649.43 253.654 1646.95 253.654 Q1640.75 253.654 1637.12 250.042 Q1633.5 246.431 1633.5 240.274 Q1633.5 233.908 1636.93 230.181 Q1640.38 226.431 1646.21 226.431 Q1651.44 226.431 1654.48 229.811 Q1657.53 233.168 1657.53 238.955 M1653.27 237.705 Q1653.23 234.209 1651.31 232.126 Q1649.41 230.043 1646.26 230.043 Q1642.69 230.043 1640.54 232.056 Q1638.41 234.07 1638.09 237.728 L1653.27 237.705 Z" fill="#000000" fill-rule="nonzero" fill-opacity="1" /><path clip-path="url(#clip610)" d="M1683.18 228.052 L1683.18 232.033 Q1681.37 231.038 1679.55 230.552 Q1677.74 230.043 1675.89 230.043 Q1671.75 230.043 1669.45 232.681 Q1667.16 235.297 1667.16 240.042 Q1667.16 244.788 1669.45 247.427 Q1671.75 250.042 1675.89 250.042 Q1677.74 250.042 1679.55 249.556 Q1681.37 249.047 1683.18 248.052 L1683.18 251.987 Q1681.4 252.82 1679.48 253.237 Q1677.58 253.654 1675.43 253.654 Q1669.57 253.654 1666.12 249.973 Q1662.67 246.292 1662.67 240.042 Q1662.67 233.7 1666.14 230.066 Q1669.64 226.431 1675.7 226.431 Q1677.67 226.431 1679.55 226.848 Q1681.42 227.242 1683.18 228.052 Z" fill="#000000" fill-rule="nonzero" fill-opacity="1" /><path clip-path="url(#clip610)" d="M1700.63 230.043 Q1697.21 230.043 1695.22 232.728 Q1693.23 235.39 1693.23 240.042 Q1693.23 244.695 1695.19 247.38 Q1697.19 250.042 1700.63 250.042 Q1704.04 250.042 1706.03 247.357 Q1708.02 244.672 1708.02 240.042 Q1708.02 235.436 1706.03 232.751 Q1704.04 230.043 1700.63 230.043 M1700.63 226.431 Q1706.19 226.431 1709.36 230.043 Q1712.53 233.654 1712.53 240.042 Q1712.53 246.408 1709.36 250.042 Q1706.19 253.654 1700.63 253.654 Q1695.06 253.654 1691.88 250.042 Q1688.74 246.408 1688.74 240.042 Q1688.74 233.654 1691.88 230.043 Q1695.06 226.431 1700.63 226.431 Z" fill="#000000" fill-rule="nonzero" fill-opacity="1" /><path clip-path="url(#clip610)" d="M1716.54 227.056 L1721.05 227.056 L1729.15 248.816 L1737.25 227.056 L1741.77 227.056 L1732.05 252.982 L1726.26 252.982 L1716.54 227.056 Z" fill="#000000" fill-rule="nonzero" fill-opacity="1" /><path clip-path="url(#clip610)" d="M1769.82 238.955 L1769.82 241.038 L1750.24 241.038 Q1750.52 245.436 1752.88 247.751 Q1755.26 250.042 1759.5 250.042 Q1761.95 250.042 1764.24 249.441 Q1766.56 248.839 1768.83 247.635 L1768.83 251.663 Q1766.54 252.635 1764.13 253.144 Q1761.72 253.654 1759.24 253.654 Q1753.04 253.654 1749.41 250.042 Q1745.8 246.431 1745.8 240.274 Q1745.8 233.908 1749.22 230.181 Q1752.67 226.431 1758.5 226.431 Q1763.74 226.431 1766.77 229.811 Q1769.82 233.168 1769.82 238.955 M1765.56 237.705 Q1765.52 234.209 1763.6 232.126 Q1761.7 230.043 1758.55 230.043 Q1754.99 230.043 1752.83 232.056 Q1750.7 234.07 1750.38 237.728 L1765.56 237.705 Z" fill="#000000" fill-rule="nonzero" fill-opacity="1" /><path clip-path="url(#clip610)" d="M1791.84 231.038 Q1791.12 230.621 1790.26 230.436 Q1789.43 230.228 1788.41 230.228 Q1784.8 230.228 1782.86 232.589 Q1780.93 234.927 1780.93 239.325 L1780.93 252.982 L1776.65 252.982 L1776.65 227.056 L1780.93 227.056 L1780.93 231.084 Q1782.28 228.723 1784.43 227.589 Q1786.58 226.431 1789.66 226.431 Q1790.1 226.431 1790.63 226.501 Q1791.17 226.547 1791.81 226.663 L1791.84 231.038 Z" fill="#000000" fill-rule="nonzero" fill-opacity="1" /><path clip-path="url(#clip610)" d="M1817.44 238.955 L1817.44 241.038 L1797.86 241.038 Q1798.13 245.436 1800.49 247.751 Q1802.88 250.042 1807.11 250.042 Q1809.57 250.042 1811.86 249.441 Q1814.18 248.839 1816.44 247.635 L1816.44 251.663 Q1814.15 252.635 1811.74 253.144 Q1809.34 253.654 1806.86 253.654 Q1800.66 253.654 1797.02 250.042 Q1793.41 246.431 1793.41 240.274 Q1793.41 233.908 1796.84 230.181 Q1800.29 226.431 1806.12 226.431 Q1811.35 226.431 1814.38 229.811 Q1817.44 233.168 1817.44 238.955 M1813.18 237.705 Q1813.13 234.209 1811.21 232.126 Q1809.31 230.043 1806.17 230.043 Q1802.6 230.043 1800.45 232.056 Q1798.32 234.07 1797.99 237.728 L1813.18 237.705 Z" fill="#000000" fill-rule="nonzero" fill-opacity="1" /><path clip-path="url(#clip610)" d="M1841.49 230.992 L1841.49 216.964 L1845.75 216.964 L1845.75 252.982 L1841.49 252.982 L1841.49 249.093 Q1840.15 251.408 1838.09 252.542 Q1836.05 253.654 1833.18 253.654 Q1828.48 253.654 1825.52 249.904 Q1822.58 246.154 1822.58 240.042 Q1822.58 233.931 1825.52 230.181 Q1828.48 226.431 1833.18 226.431 Q1836.05 226.431 1838.09 227.566 Q1840.15 228.677 1841.49 230.992 M1826.98 240.042 Q1826.98 244.742 1828.9 247.427 Q1830.84 250.089 1834.22 250.089 Q1837.6 250.089 1839.55 247.427 Q1841.49 244.742 1841.49 240.042 Q1841.49 235.343 1839.55 232.681 Q1837.6 229.996 1834.22 229.996 Q1830.84 229.996 1828.9 232.681 Q1826.98 235.343 1826.98 240.042 Z" fill="#000000" fill-rule="nonzero" fill-opacity="1" /><circle clip-path="url(#clip610)" cx="1525.41" cy="287.542" r="20.48" fill="#000000" fill-rule="evenodd" fill-opacity="1" stroke="none"/>
<path clip-path="url(#clip610)" d="M1609.41 274.105 L1609.41 300.98 L1615.06 300.98 Q1622.21 300.98 1625.52 297.739 Q1628.85 294.498 1628.85 287.507 Q1628.85 280.563 1625.52 277.346 Q1622.21 274.105 1615.06 274.105 L1609.41 274.105 M1604.73 270.262 L1614.34 270.262 Q1624.38 270.262 1629.08 274.452 Q1633.78 278.619 1633.78 287.507 Q1633.78 296.443 1629.06 300.632 Q1624.34 304.822 1614.34 304.822 L1604.73 304.822 L1604.73 270.262 Z" fill="#000000" fill-rule="nonzero" fill-opacity="1" /><path clip-path="url(#clip610)" d="M1652.83 291.79 Q1647.67 291.79 1645.68 292.97 Q1643.69 294.151 1643.69 296.998 Q1643.69 299.267 1645.17 300.609 Q1646.68 301.929 1649.25 301.929 Q1652.79 301.929 1654.92 299.429 Q1657.07 296.906 1657.07 292.739 L1657.07 291.79 L1652.83 291.79 M1661.33 290.031 L1661.33 304.822 L1657.07 304.822 L1657.07 300.887 Q1655.61 303.248 1653.44 304.382 Q1651.26 305.494 1648.11 305.494 Q1644.13 305.494 1641.77 303.271 Q1639.43 301.026 1639.43 297.276 Q1639.43 292.901 1642.35 290.679 Q1645.29 288.457 1651.1 288.457 L1657.07 288.457 L1657.07 288.04 Q1657.07 285.1 1655.13 283.503 Q1653.2 281.883 1649.71 281.883 Q1647.49 281.883 1645.38 282.415 Q1643.27 282.947 1641.33 284.012 L1641.33 280.077 Q1643.67 279.174 1645.87 278.734 Q1648.06 278.271 1650.15 278.271 Q1655.77 278.271 1658.55 281.188 Q1661.33 284.105 1661.33 290.031 Z" fill="#000000" fill-rule="nonzero" fill-opacity="1" /><path clip-path="url(#clip610)" d="M1674.31 271.535 L1674.31 278.896 L1683.09 278.896 L1683.09 282.207 L1674.31 282.207 L1674.31 296.281 Q1674.31 299.452 1675.17 300.355 Q1676.05 301.257 1678.71 301.257 L1683.09 301.257 L1683.09 304.822 L1678.71 304.822 Q1673.78 304.822 1671.91 302.994 Q1670.03 301.142 1670.03 296.281 L1670.03 282.207 L1666.91 282.207 L1666.91 278.896 L1670.03 278.896 L1670.03 271.535 L1674.31 271.535 Z" fill="#000000" fill-rule="nonzero" fill-opacity="1" /><path clip-path="url(#clip610)" d="M1700.47 291.79 Q1695.31 291.79 1693.32 292.97 Q1691.33 294.151 1691.33 296.998 Q1691.33 299.267 1692.81 300.609 Q1694.31 301.929 1696.88 301.929 Q1700.43 301.929 1702.56 299.429 Q1704.71 296.906 1704.71 292.739 L1704.71 291.79 L1700.47 291.79 M1708.97 290.031 L1708.97 304.822 L1704.71 304.822 L1704.71 300.887 Q1703.25 303.248 1701.07 304.382 Q1698.9 305.494 1695.75 305.494 Q1691.77 305.494 1689.41 303.271 Q1687.07 301.026 1687.07 297.276 Q1687.07 292.901 1689.99 290.679 Q1692.93 288.457 1698.74 288.457 L1704.71 288.457 L1704.71 288.04 Q1704.71 285.1 1702.76 283.503 Q1700.84 281.883 1697.35 281.883 Q1695.12 281.883 1693.02 282.415 Q1690.91 282.947 1688.97 284.012 L1688.97 280.077 Q1691.31 279.174 1693.5 278.734 Q1695.7 278.271 1697.79 278.271 Q1703.41 278.271 1706.19 281.188 Q1708.97 284.105 1708.97 290.031 Z" fill="#000000" fill-rule="nonzero" fill-opacity="1" /></svg>
