<?xml version="1.0" encoding="utf-8"?>
<svg xmlns="http://www.w3.org/2000/svg" xmlns:xlink="http://www.w3.org/1999/xlink" width="450" height="200" viewBox="0 0 1800 800">
<defs>
  <clipPath id="clip250">
    <rect x="0" y="0" width="1800" height="800"/>
  </clipPath>
</defs>
<path clip-path="url(#clip250)" d="M0 800 L1800 800 L1800 0 L0 0  Z" fill="#ffffff" fill-rule="evenodd" fill-opacity="1"/>
<defs>
  <clipPath id="clip251">
    <rect x="360" y="0" width="1261" height="800"/>
  </clipPath>
</defs>
<path clip-path="url(#clip250)" d="M150.598 705.968 L1752.76 705.968 L1752.76 47.2441 L150.598 47.2441  Z" fill="#ffffff" fill-rule="evenodd" fill-opacity="1"/>
<defs>
  <clipPath id="clip252">
    <rect x="150" y="47" width="1603" height="660"/>
  </clipPath>
</defs>
<polyline clip-path="url(#clip252)" style="stroke:#000000; stroke-linecap:round; stroke-linejoin:round; stroke-width:2; stroke-opacity:0.1; fill:none" points="363.883,705.968 363.883,47.2441 "/>
<polyline clip-path="url(#clip252)" style="stroke:#000000; stroke-linecap:round; stroke-linejoin:round; stroke-width:2; stroke-opacity:0.1; fill:none" points="699.765,705.968 699.765,47.2441 "/>
<polyline clip-path="url(#clip252)" style="stroke:#000000; stroke-linecap:round; stroke-linejoin:round; stroke-width:2; stroke-opacity:0.1; fill:none" points="1035.65,705.968 1035.65,47.2441 "/>
<polyline clip-path="url(#clip252)" style="stroke:#000000; stroke-linecap:round; stroke-linejoin:round; stroke-width:2; stroke-opacity:0.1; fill:none" points="1371.53,705.968 1371.53,47.2441 "/>
<polyline clip-path="url(#clip252)" style="stroke:#000000; stroke-linecap:round; stroke-linejoin:round; stroke-width:2; stroke-opacity:0.1; fill:none" points="1707.41,705.968 1707.41,47.2441 "/>
<polyline clip-path="url(#clip250)" style="stroke:#000000; stroke-linecap:round; stroke-linejoin:round; stroke-width:4; stroke-opacity:1; fill:none" points="150.598,705.968 1752.76,705.968 "/>
<polyline clip-path="url(#clip250)" style="stroke:#000000; stroke-linecap:round; stroke-linejoin:round; stroke-width:4; stroke-opacity:1; fill:none" points="363.883,705.968 363.883,687.07 "/>
<polyline clip-path="url(#clip250)" style="stroke:#000000; stroke-linecap:round; stroke-linejoin:round; stroke-width:4; stroke-opacity:1; fill:none" points="699.765,705.968 699.765,687.07 "/>
<polyline clip-path="url(#clip250)" style="stroke:#000000; stroke-linecap:round; stroke-linejoin:round; stroke-width:4; stroke-opacity:1; fill:none" points="1035.65,705.968 1035.65,687.07 "/>
<polyline clip-path="url(#clip250)" style="stroke:#000000; stroke-linecap:round; stroke-linejoin:round; stroke-width:4; stroke-opacity:1; fill:none" points="1371.53,705.968 1371.53,687.07 "/>
<polyline clip-path="url(#clip250)" style="stroke:#000000; stroke-linecap:round; stroke-linejoin:round; stroke-width:4; stroke-opacity:1; fill:none" points="1707.41,705.968 1707.41,687.07 "/>
<path clip-path="url(#clip250)" d="M358.536 759.633 L374.856 759.633 L374.856 763.568 L352.911 763.568 L352.911 759.633 Q355.573 756.878 360.157 752.248 Q364.763 747.596 365.944 746.253 Q368.189 743.73 369.069 741.994 Q369.971 740.235 369.971 738.545 Q369.971 735.79 368.027 734.054 Q366.106 732.318 363.004 732.318 Q360.805 732.318 358.351 733.082 Q355.92 733.846 353.143 735.397 L353.143 730.675 Q355.967 729.54 358.42 728.962 Q360.874 728.383 362.911 728.383 Q368.281 728.383 371.476 731.068 Q374.67 733.753 374.67 738.244 Q374.67 740.374 373.86 742.295 Q373.073 744.193 370.967 746.786 Q370.388 747.457 367.286 750.674 Q364.184 753.869 358.536 759.633 Z" fill="#000000" fill-rule="nonzero" fill-opacity="1" /><path clip-path="url(#clip250)" d="M702.775 733.082 L690.969 751.531 L702.775 751.531 L702.775 733.082 M701.548 729.008 L707.427 729.008 L707.427 751.531 L712.358 751.531 L712.358 755.42 L707.427 755.42 L707.427 763.568 L702.775 763.568 L702.775 755.42 L687.173 755.42 L687.173 750.906 L701.548 729.008 Z" fill="#000000" fill-rule="nonzero" fill-opacity="1" /><path clip-path="url(#clip250)" d="M1036.05 744.424 Q1032.9 744.424 1031.05 746.577 Q1029.22 748.73 1029.22 752.48 Q1029.22 756.207 1031.05 758.383 Q1032.9 760.535 1036.05 760.535 Q1039.2 760.535 1041.03 758.383 Q1042.88 756.207 1042.88 752.48 Q1042.88 748.73 1041.03 746.577 Q1039.2 744.424 1036.05 744.424 M1045.34 729.772 L1045.34 734.031 Q1043.58 733.198 1041.77 732.758 Q1039.99 732.318 1038.23 732.318 Q1033.6 732.318 1031.15 735.443 Q1028.71 738.568 1028.37 744.887 Q1029.73 742.874 1031.79 741.809 Q1033.85 740.721 1036.33 740.721 Q1041.54 740.721 1044.55 743.892 Q1047.58 747.04 1047.58 752.48 Q1047.58 757.804 1044.43 761.022 Q1041.28 764.239 1036.05 764.239 Q1030.06 764.239 1026.89 759.656 Q1023.71 755.049 1023.71 746.323 Q1023.71 738.128 1027.6 733.267 Q1031.49 728.383 1038.04 728.383 Q1039.8 728.383 1041.59 728.73 Q1043.39 729.077 1045.34 729.772 Z" fill="#000000" fill-rule="nonzero" fill-opacity="1" /><path clip-path="url(#clip250)" d="M1371.53 747.156 Q1368.2 747.156 1366.28 748.938 Q1364.38 750.721 1364.38 753.846 Q1364.38 756.971 1366.28 758.753 Q1368.2 760.535 1371.53 760.535 Q1374.86 760.535 1376.78 758.753 Q1378.71 756.948 1378.71 753.846 Q1378.71 750.721 1376.78 748.938 Q1374.89 747.156 1371.53 747.156 M1366.85 745.165 Q1363.84 744.424 1362.15 742.364 Q1360.49 740.304 1360.49 737.341 Q1360.49 733.198 1363.43 730.79 Q1366.39 728.383 1371.53 728.383 Q1376.69 728.383 1379.63 730.79 Q1382.57 733.198 1382.57 737.341 Q1382.57 740.304 1380.88 742.364 Q1379.21 744.424 1376.23 745.165 Q1379.61 745.952 1381.48 748.244 Q1383.38 750.536 1383.38 753.846 Q1383.38 758.869 1380.3 761.554 Q1377.25 764.239 1371.53 764.239 Q1365.81 764.239 1362.73 761.554 Q1359.68 758.869 1359.68 753.846 Q1359.68 750.536 1361.58 748.244 Q1363.47 745.952 1366.85 745.165 M1365.14 737.781 Q1365.14 740.466 1366.81 741.971 Q1368.5 743.475 1371.53 743.475 Q1374.54 743.475 1376.23 741.971 Q1377.94 740.466 1377.94 737.781 Q1377.94 735.096 1376.23 733.591 Q1374.54 732.087 1371.53 732.087 Q1368.5 732.087 1366.81 733.591 Q1365.14 735.096 1365.14 737.781 Z" fill="#000000" fill-rule="nonzero" fill-opacity="1" /><path clip-path="url(#clip250)" d="M1682.1 759.633 L1689.74 759.633 L1689.74 733.267 L1681.43 734.934 L1681.43 730.675 L1689.69 729.008 L1694.37 729.008 L1694.37 759.633 L1702.01 759.633 L1702.01 763.568 L1682.1 763.568 L1682.1 759.633 Z" fill="#000000" fill-rule="nonzero" fill-opacity="1" /><path clip-path="url(#clip250)" d="M1721.45 732.087 Q1717.84 732.087 1716.01 735.651 Q1714.21 739.193 1714.21 746.323 Q1714.21 753.429 1716.01 756.994 Q1717.84 760.535 1721.45 760.535 Q1725.09 760.535 1726.89 756.994 Q1728.72 753.429 1728.72 746.323 Q1728.72 739.193 1726.89 735.651 Q1725.09 732.087 1721.45 732.087 M1721.45 728.383 Q1727.26 728.383 1730.32 732.989 Q1733.4 737.573 1733.4 746.323 Q1733.4 755.049 1730.32 759.656 Q1727.26 764.239 1721.45 764.239 Q1715.64 764.239 1712.56 759.656 Q1709.51 755.049 1709.51 746.323 Q1709.51 737.573 1712.56 732.989 Q1715.64 728.383 1721.45 728.383 Z" fill="#000000" fill-rule="nonzero" fill-opacity="1" /><polyline clip-path="url(#clip252)" style="stroke:#000000; stroke-linecap:round; stroke-linejoin:round; stroke-width:2; stroke-opacity:0.1; fill:none" points="150.598,629.392 1752.76,629.392 "/>
<polyline clip-path="url(#clip252)" style="stroke:#000000; stroke-linecap:round; stroke-linejoin:round; stroke-width:2; stroke-opacity:0.1; fill:none" points="150.598,472.314 1752.76,472.314 "/>
<polyline clip-path="url(#clip252)" style="stroke:#000000; stroke-linecap:round; stroke-linejoin:round; stroke-width:2; stroke-opacity:0.1; fill:none" points="150.598,315.235 1752.76,315.235 "/>
<polyline clip-path="url(#clip252)" style="stroke:#000000; stroke-linecap:round; stroke-linejoin:round; stroke-width:2; stroke-opacity:0.1; fill:none" points="150.598,158.156 1752.76,158.156 "/>
<polyline clip-path="url(#clip250)" style="stroke:#000000; stroke-linecap:round; stroke-linejoin:round; stroke-width:4; stroke-opacity:1; fill:none" points="150.598,705.968 150.598,47.2441 "/>
<polyline clip-path="url(#clip250)" style="stroke:#000000; stroke-linecap:round; stroke-linejoin:round; stroke-width:4; stroke-opacity:1; fill:none" points="150.598,629.392 169.496,629.392 "/>
<polyline clip-path="url(#clip250)" style="stroke:#000000; stroke-linecap:round; stroke-linejoin:round; stroke-width:4; stroke-opacity:1; fill:none" points="150.598,472.314 169.496,472.314 "/>
<polyline clip-path="url(#clip250)" style="stroke:#000000; stroke-linecap:round; stroke-linejoin:round; stroke-width:4; stroke-opacity:1; fill:none" points="150.598,315.235 169.496,315.235 "/>
<polyline clip-path="url(#clip250)" style="stroke:#000000; stroke-linecap:round; stroke-linejoin:round; stroke-width:4; stroke-opacity:1; fill:none" points="150.598,158.156 169.496,158.156 "/>
<path clip-path="url(#clip250)" d="M68.0198 615.191 Q64.4087 615.191 62.58 618.756 Q60.7745 622.298 60.7745 629.427 Q60.7745 636.534 62.58 640.098 Q64.4087 643.64 68.0198 643.64 Q71.6541 643.64 73.4596 640.098 Q75.2883 636.534 75.2883 629.427 Q75.2883 622.298 73.4596 618.756 Q71.6541 615.191 68.0198 615.191 M68.0198 611.487 Q73.83 611.487 76.8855 616.094 Q79.9642 620.677 79.9642 629.427 Q79.9642 638.154 76.8855 642.76 Q73.83 647.344 68.0198 647.344 Q62.2097 647.344 59.131 642.76 Q56.0754 638.154 56.0754 629.427 Q56.0754 620.677 59.131 616.094 Q62.2097 611.487 68.0198 611.487 Z" fill="#000000" fill-rule="nonzero" fill-opacity="1" /><path clip-path="url(#clip250)" d="M88.1818 640.793 L93.066 640.793 L93.066 646.672 L88.1818 646.672 L88.1818 640.793 Z" fill="#000000" fill-rule="nonzero" fill-opacity="1" /><path clip-path="url(#clip250)" d="M107.279 642.737 L123.598 642.737 L123.598 646.672 L101.654 646.672 L101.654 642.737 Q104.316 639.983 108.899 635.353 Q113.506 630.7 114.686 629.358 Q116.932 626.835 117.811 625.099 Q118.714 623.339 118.714 621.649 Q118.714 618.895 116.77 617.159 Q114.848 615.423 111.746 615.423 Q109.547 615.423 107.094 616.187 Q104.663 616.95 101.885 618.501 L101.885 613.779 Q104.709 612.645 107.163 612.066 Q109.617 611.487 111.654 611.487 Q117.024 611.487 120.219 614.173 Q123.413 616.858 123.413 621.349 Q123.413 623.478 122.603 625.399 Q121.816 627.298 119.709 629.89 Q119.131 630.561 116.029 633.779 Q112.927 636.973 107.279 642.737 Z" fill="#000000" fill-rule="nonzero" fill-opacity="1" /><path clip-path="url(#clip250)" d="M65.9365 458.112 Q62.3254 458.112 60.4967 461.677 Q58.6912 465.219 58.6912 472.348 Q58.6912 479.455 60.4967 483.02 Q62.3254 486.561 65.9365 486.561 Q69.5707 486.561 71.3763 483.02 Q73.205 479.455 73.205 472.348 Q73.205 465.219 71.3763 461.677 Q69.5707 458.112 65.9365 458.112 M65.9365 454.409 Q71.7467 454.409 74.8022 459.015 Q77.8809 463.599 77.8809 472.348 Q77.8809 481.075 74.8022 485.682 Q71.7467 490.265 65.9365 490.265 Q60.1264 490.265 57.0477 485.682 Q53.9921 481.075 53.9921 472.348 Q53.9921 463.599 57.0477 459.015 Q60.1264 454.409 65.9365 454.409 Z" fill="#000000" fill-rule="nonzero" fill-opacity="1" /><path clip-path="url(#clip250)" d="M86.0984 483.714 L90.9827 483.714 L90.9827 489.594 L86.0984 489.594 L86.0984 483.714 Z" fill="#000000" fill-rule="nonzero" fill-opacity="1" /><path clip-path="url(#clip250)" d="M114.015 459.108 L102.209 477.557 L114.015 477.557 L114.015 459.108 M112.788 455.034 L118.668 455.034 L118.668 477.557 L123.598 477.557 L123.598 481.446 L118.668 481.446 L118.668 489.594 L114.015 489.594 L114.015 481.446 L98.4132 481.446 L98.4132 476.932 L112.788 455.034 Z" fill="#000000" fill-rule="nonzero" fill-opacity="1" /><path clip-path="url(#clip250)" d="M66.2606 301.034 Q62.6495 301.034 60.8208 304.599 Q59.0152 308.14 59.0152 315.27 Q59.0152 322.376 60.8208 325.941 Q62.6495 329.483 66.2606 329.483 Q69.8948 329.483 71.7004 325.941 Q73.5291 322.376 73.5291 315.27 Q73.5291 308.14 71.7004 304.599 Q69.8948 301.034 66.2606 301.034 M66.2606 297.33 Q72.0707 297.33 75.1263 301.936 Q78.205 306.52 78.205 315.27 Q78.205 323.997 75.1263 328.603 Q72.0707 333.186 66.2606 333.186 Q60.4504 333.186 57.3717 328.603 Q54.3162 323.997 54.3162 315.27 Q54.3162 306.52 57.3717 301.936 Q60.4504 297.33 66.2606 297.33 Z" fill="#000000" fill-rule="nonzero" fill-opacity="1" /><path clip-path="url(#clip250)" d="M86.4225 326.635 L91.3067 326.635 L91.3067 332.515 L86.4225 332.515 L86.4225 326.635 Z" fill="#000000" fill-rule="nonzero" fill-opacity="1" /><path clip-path="url(#clip250)" d="M112.071 313.372 Q108.922 313.372 107.071 315.524 Q105.242 317.677 105.242 321.427 Q105.242 325.154 107.071 327.33 Q108.922 329.483 112.071 329.483 Q115.219 329.483 117.047 327.33 Q118.899 325.154 118.899 321.427 Q118.899 317.677 117.047 315.524 Q115.219 313.372 112.071 313.372 M121.353 298.719 L121.353 302.978 Q119.594 302.145 117.788 301.705 Q116.006 301.265 114.246 301.265 Q109.617 301.265 107.163 304.39 Q104.733 307.515 104.385 313.835 Q105.751 311.821 107.811 310.756 Q109.871 309.668 112.348 309.668 Q117.557 309.668 120.566 312.839 Q123.598 315.987 123.598 321.427 Q123.598 326.751 120.45 329.969 Q117.302 333.186 112.071 333.186 Q106.075 333.186 102.904 328.603 Q99.7326 323.997 99.7326 315.27 Q99.7326 307.075 103.621 302.214 Q107.51 297.33 114.061 297.33 Q115.82 297.33 117.603 297.677 Q119.408 298.024 121.353 298.719 Z" fill="#000000" fill-rule="nonzero" fill-opacity="1" /><path clip-path="url(#clip250)" d="M66.5152 143.955 Q62.9041 143.955 61.0754 147.52 Q59.2699 151.061 59.2699 158.191 Q59.2699 165.297 61.0754 168.862 Q62.9041 172.404 66.5152 172.404 Q70.1494 172.404 71.955 168.862 Q73.7837 165.297 73.7837 158.191 Q73.7837 151.061 71.955 147.52 Q70.1494 143.955 66.5152 143.955 M66.5152 140.251 Q72.3254 140.251 75.3809 144.858 Q78.4596 149.441 78.4596 158.191 Q78.4596 166.918 75.3809 171.524 Q72.3254 176.108 66.5152 176.108 Q60.7051 176.108 57.6264 171.524 Q54.5708 166.918 54.5708 158.191 Q54.5708 149.441 57.6264 144.858 Q60.7051 140.251 66.5152 140.251 Z" fill="#000000" fill-rule="nonzero" fill-opacity="1" /><path clip-path="url(#clip250)" d="M86.6771 169.557 L91.5614 169.557 L91.5614 175.436 L86.6771 175.436 L86.6771 169.557 Z" fill="#000000" fill-rule="nonzero" fill-opacity="1" /><path clip-path="url(#clip250)" d="M111.746 159.024 Q108.413 159.024 106.492 160.807 Q104.594 162.589 104.594 165.714 Q104.594 168.839 106.492 170.622 Q108.413 172.404 111.746 172.404 Q115.08 172.404 117.001 170.622 Q118.922 168.816 118.922 165.714 Q118.922 162.589 117.001 160.807 Q115.103 159.024 111.746 159.024 M107.071 157.034 Q104.061 156.293 102.371 154.233 Q100.705 152.173 100.705 149.21 Q100.705 145.066 103.645 142.659 Q106.608 140.251 111.746 140.251 Q116.908 140.251 119.848 142.659 Q122.788 145.066 122.788 149.21 Q122.788 152.173 121.098 154.233 Q119.432 156.293 116.445 157.034 Q119.825 157.821 121.7 160.112 Q123.598 162.404 123.598 165.714 Q123.598 170.737 120.52 173.422 Q117.464 176.108 111.746 176.108 Q106.029 176.108 102.95 173.422 Q99.8947 170.737 99.8947 165.714 Q99.8947 162.404 101.793 160.112 Q103.691 157.821 107.071 157.034 M105.358 149.649 Q105.358 152.335 107.024 153.839 Q108.714 155.344 111.746 155.344 Q114.756 155.344 116.445 153.839 Q118.158 152.335 118.158 149.649 Q118.158 146.964 116.445 145.46 Q114.756 143.955 111.746 143.955 Q108.714 143.955 107.024 145.46 Q105.358 146.964 105.358 149.649 Z" fill="#000000" fill-rule="nonzero" fill-opacity="1" /><circle clip-path="url(#clip252)" cx="195.942" cy="131.245" r="14.4" fill="#009af9" fill-rule="evenodd" fill-opacity="1" stroke="#000000" stroke-opacity="1" stroke-width="1.6"/>
<circle clip-path="url(#clip252)" cx="363.883" cy="598.23" r="14.4" fill="#009af9" fill-rule="evenodd" fill-opacity="1" stroke="#000000" stroke-opacity="1" stroke-width="1.6"/>
<circle clip-path="url(#clip252)" cx="531.824" cy="65.8872" r="14.4" fill="#009af9" fill-rule="evenodd" fill-opacity="1" stroke="#000000" stroke-opacity="1" stroke-width="1.6"/>
<circle clip-path="url(#clip252)" cx="699.765" cy="113.386" r="14.4" fill="#009af9" fill-rule="evenodd" fill-opacity="1" stroke="#000000" stroke-opacity="1" stroke-width="1.6"/>
<circle clip-path="url(#clip252)" cx="867.707" cy="554.24" r="14.4" fill="#009af9" fill-rule="evenodd" fill-opacity="1" stroke="#000000" stroke-opacity="1" stroke-width="1.6"/>
<circle clip-path="url(#clip252)" cx="1035.65" cy="199.662" r="14.4" fill="#009af9" fill-rule="evenodd" fill-opacity="1" stroke="#000000" stroke-opacity="1" stroke-width="1.6"/>
<circle clip-path="url(#clip252)" cx="1203.59" cy="389.857" r="14.4" fill="#009af9" fill-rule="evenodd" fill-opacity="1" stroke="#000000" stroke-opacity="1" stroke-width="1.6"/>
<circle clip-path="url(#clip252)" cx="1371.53" cy="266.518" r="14.4" fill="#009af9" fill-rule="evenodd" fill-opacity="1" stroke="#000000" stroke-opacity="1" stroke-width="1.6"/>
<circle clip-path="url(#clip252)" cx="1539.47" cy="567.204" r="14.4" fill="#009af9" fill-rule="evenodd" fill-opacity="1" stroke="#000000" stroke-opacity="1" stroke-width="1.6"/>
<circle clip-path="url(#clip252)" cx="1707.41" cy="687.325" r="14.4" fill="#009af9" fill-rule="evenodd" fill-opacity="1" stroke="#000000" stroke-opacity="1" stroke-width="1.6"/>
<path clip-path="url(#clip250)" d="M1486.7 172.882 L1699.35 172.882 L1699.35 69.2016 L1486.7 69.2016  Z" fill="#ffffff" fill-rule="evenodd" fill-opacity="1"/>
<polyline clip-path="url(#clip250)" style="stroke:#000000; stroke-linecap:round; stroke-linejoin:round; stroke-width:4; stroke-opacity:1; fill:none" points="1486.7,172.882 1699.35,172.882 1699.35,69.2016 1486.7,69.2016 1486.7,172.882 "/>
<circle clip-path="url(#clip250)" cx="1557.91" cy="121.042" r="20.48" fill="#009af9" fill-rule="evenodd" fill-opacity="1" stroke="#000000" stroke-opacity="1" stroke-width="2.27556"/>
<path clip-path="url(#clip250)" d="M1642.96 140.729 Q1641.16 145.359 1639.44 146.771 Q1637.73 148.183 1634.86 148.183 L1631.46 148.183 L1631.46 144.618 L1633.96 144.618 Q1635.72 144.618 1636.69 143.784 Q1637.66 142.951 1638.84 139.849 L1639.6 137.905 L1629.12 112.396 L1633.63 112.396 L1641.73 132.673 L1649.84 112.396 L1654.35 112.396 L1642.96 140.729 Z" fill="#000000" fill-rule="nonzero" fill-opacity="1" /><path clip-path="url(#clip250)" d="M1661.64 134.386 L1669.28 134.386 L1669.28 108.021 L1660.97 109.687 L1660.97 105.428 L1669.23 103.762 L1673.91 103.762 L1673.91 134.386 L1681.55 134.386 L1681.55 138.322 L1661.64 138.322 L1661.64 134.386 Z" fill="#000000" fill-rule="nonzero" fill-opacity="1" /></svg>
