<?xml version="1.0" encoding="utf-8"?>
<svg xmlns="http://www.w3.org/2000/svg" xmlns:xlink="http://www.w3.org/1999/xlink" width="600" height="400" viewBox="0 0 2400 1600">
<defs>
  <clipPath id="clip510">
    <rect x="0" y="0" width="2400" height="1600"/>
  </clipPath>
</defs>
<path clip-path="url(#clip510)" d="M0 1600 L2400 1600 L2400 0 L0 0  Z" fill="#ffffff" fill-rule="evenodd" fill-opacity="1"/>
<defs>
  <clipPath id="clip511">
    <rect x="480" y="0" width="1681" height="1600"/>
  </clipPath>
</defs>
<path clip-path="url(#clip510)" d="M186.274 419.781 L2352.76 419.781 L2352.76 123.472 L186.274 123.472  Z" fill="#ffffff" fill-rule="evenodd" fill-opacity="1"/>
<defs>
  <clipPath id="clip512">
    <rect x="186" y="123" width="2167" height="297"/>
  </clipPath>
</defs>
<polyline clip-path="url(#clip512)" style="stroke:#000000; stroke-linecap:round; stroke-linejoin:round; stroke-width:2; stroke-opacity:0.1; fill:none" points="247.59,419.781 247.59,123.472 "/>
<polyline clip-path="url(#clip512)" style="stroke:#000000; stroke-linecap:round; stroke-linejoin:round; stroke-width:2; stroke-opacity:0.1; fill:none" points="604.605,419.781 604.605,123.472 "/>
<polyline clip-path="url(#clip512)" style="stroke:#000000; stroke-linecap:round; stroke-linejoin:round; stroke-width:2; stroke-opacity:0.1; fill:none" points="961.62,419.781 961.62,123.472 "/>
<polyline clip-path="url(#clip512)" style="stroke:#000000; stroke-linecap:round; stroke-linejoin:round; stroke-width:2; stroke-opacity:0.1; fill:none" points="1318.64,419.781 1318.64,123.472 "/>
<polyline clip-path="url(#clip512)" style="stroke:#000000; stroke-linecap:round; stroke-linejoin:round; stroke-width:2; stroke-opacity:0.1; fill:none" points="1675.65,419.781 1675.65,123.472 "/>
<polyline clip-path="url(#clip512)" style="stroke:#000000; stroke-linecap:round; stroke-linejoin:round; stroke-width:2; stroke-opacity:0.1; fill:none" points="2032.67,419.781 2032.67,123.472 "/>
<polyline clip-path="url(#clip510)" style="stroke:#000000; stroke-linecap:round; stroke-linejoin:round; stroke-width:4; stroke-opacity:1; fill:none" points="186.274,419.781 2352.76,419.781 "/>
<polyline clip-path="url(#clip510)" style="stroke:#000000; stroke-linecap:round; stroke-linejoin:round; stroke-width:4; stroke-opacity:1; fill:none" points="247.59,419.781 247.59,400.884 "/>
<polyline clip-path="url(#clip510)" style="stroke:#000000; stroke-linecap:round; stroke-linejoin:round; stroke-width:4; stroke-opacity:1; fill:none" points="604.605,419.781 604.605,400.884 "/>
<polyline clip-path="url(#clip510)" style="stroke:#000000; stroke-linecap:round; stroke-linejoin:round; stroke-width:4; stroke-opacity:1; fill:none" points="961.62,419.781 961.62,400.884 "/>
<polyline clip-path="url(#clip510)" style="stroke:#000000; stroke-linecap:round; stroke-linejoin:round; stroke-width:4; stroke-opacity:1; fill:none" points="1318.64,419.781 1318.64,400.884 "/>
<polyline clip-path="url(#clip510)" style="stroke:#000000; stroke-linecap:round; stroke-linejoin:round; stroke-width:4; stroke-opacity:1; fill:none" points="1675.65,419.781 1675.65,400.884 "/>
<polyline clip-path="url(#clip510)" style="stroke:#000000; stroke-linecap:round; stroke-linejoin:round; stroke-width:4; stroke-opacity:1; fill:none" points="2032.67,419.781 2032.67,400.884 "/>
<path clip-path="url(#clip510)" d="M247.59 450.7 Q243.978 450.7 242.15 454.265 Q240.344 457.806 240.344 464.936 Q240.344 472.042 242.15 475.607 Q243.978 479.149 247.59 479.149 Q251.224 479.149 253.029 475.607 Q254.858 472.042 254.858 464.936 Q254.858 457.806 253.029 454.265 Q251.224 450.7 247.59 450.7 M247.59 446.996 Q253.4 446.996 256.455 451.603 Q259.534 456.186 259.534 464.936 Q259.534 473.663 256.455 478.269 Q253.4 482.853 247.59 482.853 Q241.779 482.853 238.701 478.269 Q235.645 473.663 235.645 464.936 Q235.645 456.186 238.701 451.603 Q241.779 446.996 247.59 446.996 Z" fill="#000000" fill-rule="nonzero" fill-opacity="1" /><path clip-path="url(#clip510)" d="M594.987 478.246 L602.626 478.246 L602.626 451.88 L594.316 453.547 L594.316 449.288 L602.579 447.621 L607.255 447.621 L607.255 478.246 L614.894 478.246 L614.894 482.181 L594.987 482.181 L594.987 478.246 Z" fill="#000000" fill-rule="nonzero" fill-opacity="1" /><path clip-path="url(#clip510)" d="M956.273 478.246 L972.592 478.246 L972.592 482.181 L950.648 482.181 L950.648 478.246 Q953.31 475.491 957.893 470.862 Q962.5 466.209 963.68 464.866 Q965.926 462.343 966.805 460.607 Q967.708 458.848 967.708 457.158 Q967.708 454.404 965.764 452.667 Q963.842 450.931 960.741 450.931 Q958.542 450.931 956.088 451.695 Q953.657 452.459 950.88 454.01 L950.88 449.288 Q953.704 448.154 956.157 447.575 Q958.611 446.996 960.648 446.996 Q966.018 446.996 969.213 449.681 Q972.407 452.367 972.407 456.857 Q972.407 458.987 971.597 460.908 Q970.81 462.806 968.704 465.399 Q968.125 466.07 965.023 469.288 Q961.921 472.482 956.273 478.246 Z" fill="#000000" fill-rule="nonzero" fill-opacity="1" /><path clip-path="url(#clip510)" d="M1322.88 463.547 Q1326.24 464.265 1328.11 466.533 Q1330.01 468.802 1330.01 472.135 Q1330.01 477.251 1326.49 480.052 Q1322.98 482.853 1316.49 482.853 Q1314.32 482.853 1312 482.413 Q1309.71 481.996 1307.26 481.14 L1307.26 476.626 Q1309.2 477.76 1311.52 478.339 Q1313.83 478.917 1316.36 478.917 Q1320.75 478.917 1323.05 477.181 Q1325.36 475.445 1325.36 472.135 Q1325.36 469.079 1323.21 467.366 Q1321.08 465.63 1317.26 465.63 L1313.23 465.63 L1313.23 461.788 L1317.44 461.788 Q1320.89 461.788 1322.72 460.422 Q1324.55 459.033 1324.55 456.441 Q1324.55 453.779 1322.65 452.367 Q1320.78 450.931 1317.26 450.931 Q1315.34 450.931 1313.14 451.348 Q1310.94 451.765 1308.3 452.644 L1308.3 448.478 Q1310.96 447.737 1313.28 447.367 Q1315.61 446.996 1317.67 446.996 Q1323 446.996 1326.1 449.427 Q1329.2 451.834 1329.2 455.954 Q1329.2 458.825 1327.56 460.816 Q1325.92 462.783 1322.88 463.547 Z" fill="#000000" fill-rule="nonzero" fill-opacity="1" /><path clip-path="url(#clip510)" d="M1678.66 451.695 L1666.85 470.144 L1678.66 470.144 L1678.66 451.695 M1677.43 447.621 L1683.31 447.621 L1683.31 470.144 L1688.24 470.144 L1688.24 474.033 L1683.31 474.033 L1683.31 482.181 L1678.66 482.181 L1678.66 474.033 L1663.06 474.033 L1663.06 469.519 L1677.43 447.621 Z" fill="#000000" fill-rule="nonzero" fill-opacity="1" /><path clip-path="url(#clip510)" d="M2022.94 447.621 L2041.3 447.621 L2041.3 451.556 L2027.23 451.556 L2027.23 460.029 Q2028.25 459.681 2029.26 459.519 Q2030.28 459.334 2031.3 459.334 Q2037.09 459.334 2040.47 462.505 Q2043.85 465.677 2043.85 471.093 Q2043.85 476.672 2040.37 479.774 Q2036.9 482.853 2030.58 482.853 Q2028.41 482.853 2026.14 482.482 Q2023.89 482.112 2021.49 481.371 L2021.49 476.672 Q2023.57 477.806 2025.79 478.362 Q2028.01 478.917 2030.49 478.917 Q2034.5 478.917 2036.83 476.811 Q2039.17 474.704 2039.17 471.093 Q2039.17 467.482 2036.83 465.376 Q2034.5 463.269 2030.49 463.269 Q2028.62 463.269 2026.74 463.686 Q2024.89 464.103 2022.94 464.982 L2022.94 447.621 Z" fill="#000000" fill-rule="nonzero" fill-opacity="1" /><polyline clip-path="url(#clip512)" style="stroke:#000000; stroke-linecap:round; stroke-linejoin:round; stroke-width:2; stroke-opacity:0.1; fill:none" points="186.274,411.667 2352.76,411.667 "/>
<polyline clip-path="url(#clip512)" style="stroke:#000000; stroke-linecap:round; stroke-linejoin:round; stroke-width:2; stroke-opacity:0.1; fill:none" points="186.274,343.122 2352.76,343.122 "/>
<polyline clip-path="url(#clip512)" style="stroke:#000000; stroke-linecap:round; stroke-linejoin:round; stroke-width:2; stroke-opacity:0.1; fill:none" points="186.274,274.578 2352.76,274.578 "/>
<polyline clip-path="url(#clip512)" style="stroke:#000000; stroke-linecap:round; stroke-linejoin:round; stroke-width:2; stroke-opacity:0.1; fill:none" points="186.274,206.033 2352.76,206.033 "/>
<polyline clip-path="url(#clip512)" style="stroke:#000000; stroke-linecap:round; stroke-linejoin:round; stroke-width:2; stroke-opacity:0.1; fill:none" points="186.274,137.489 2352.76,137.489 "/>
<polyline clip-path="url(#clip510)" style="stroke:#000000; stroke-linecap:round; stroke-linejoin:round; stroke-width:4; stroke-opacity:1; fill:none" points="186.274,419.781 186.274,123.472 "/>
<polyline clip-path="url(#clip510)" style="stroke:#000000; stroke-linecap:round; stroke-linejoin:round; stroke-width:4; stroke-opacity:1; fill:none" points="186.274,411.667 205.172,411.667 "/>
<polyline clip-path="url(#clip510)" style="stroke:#000000; stroke-linecap:round; stroke-linejoin:round; stroke-width:4; stroke-opacity:1; fill:none" points="186.274,343.122 205.172,343.122 "/>
<polyline clip-path="url(#clip510)" style="stroke:#000000; stroke-linecap:round; stroke-linejoin:round; stroke-width:4; stroke-opacity:1; fill:none" points="186.274,274.578 205.172,274.578 "/>
<polyline clip-path="url(#clip510)" style="stroke:#000000; stroke-linecap:round; stroke-linejoin:round; stroke-width:4; stroke-opacity:1; fill:none" points="186.274,206.033 205.172,206.033 "/>
<polyline clip-path="url(#clip510)" style="stroke:#000000; stroke-linecap:round; stroke-linejoin:round; stroke-width:4; stroke-opacity:1; fill:none" points="186.274,137.489 205.172,137.489 "/>
<path clip-path="url(#clip510)" d="M93.0984 397.465 Q89.4873 397.465 87.6586 401.03 Q85.8531 404.572 85.8531 411.702 Q85.8531 418.808 87.6586 422.373 Q89.4873 425.914 93.0984 425.914 Q96.7326 425.914 98.5382 422.373 Q100.367 418.808 100.367 411.702 Q100.367 404.572 98.5382 401.03 Q96.7326 397.465 93.0984 397.465 M93.0984 393.762 Q98.9085 393.762 101.964 398.368 Q105.043 402.952 105.043 411.702 Q105.043 420.428 101.964 425.035 Q98.9085 429.618 93.0984 429.618 Q87.2882 429.618 84.2095 425.035 Q81.154 420.428 81.154 411.702 Q81.154 402.952 84.2095 398.368 Q87.2882 393.762 93.0984 393.762 Z" fill="#000000" fill-rule="nonzero" fill-opacity="1" /><path clip-path="url(#clip510)" d="M113.26 423.067 L118.145 423.067 L118.145 428.947 L113.26 428.947 L113.26 423.067 Z" fill="#000000" fill-rule="nonzero" fill-opacity="1" /><path clip-path="url(#clip510)" d="M138.33 397.465 Q134.719 397.465 132.89 401.03 Q131.084 404.572 131.084 411.702 Q131.084 418.808 132.89 422.373 Q134.719 425.914 138.33 425.914 Q141.964 425.914 143.769 422.373 Q145.598 418.808 145.598 411.702 Q145.598 404.572 143.769 401.03 Q141.964 397.465 138.33 397.465 M138.33 393.762 Q144.14 393.762 147.195 398.368 Q150.274 402.952 150.274 411.702 Q150.274 420.428 147.195 425.035 Q144.14 429.618 138.33 429.618 Q132.519 429.618 129.441 425.035 Q126.385 420.428 126.385 411.702 Q126.385 402.952 129.441 398.368 Q132.519 393.762 138.33 393.762 Z" fill="#000000" fill-rule="nonzero" fill-opacity="1" /><path clip-path="url(#clip510)" d="M94.3252 328.921 Q90.7141 328.921 88.8854 332.486 Q87.0799 336.027 87.0799 343.157 Q87.0799 350.263 88.8854 353.828 Q90.7141 357.37 94.3252 357.37 Q97.9595 357.37 99.765 353.828 Q101.594 350.263 101.594 343.157 Q101.594 336.027 99.765 332.486 Q97.9595 328.921 94.3252 328.921 M94.3252 325.217 Q100.135 325.217 103.191 329.824 Q106.27 334.407 106.27 343.157 Q106.27 351.884 103.191 356.49 Q100.135 361.074 94.3252 361.074 Q88.5151 361.074 85.4364 356.49 Q82.3808 351.884 82.3808 343.157 Q82.3808 334.407 85.4364 329.824 Q88.5151 325.217 94.3252 325.217 Z" fill="#000000" fill-rule="nonzero" fill-opacity="1" /><path clip-path="url(#clip510)" d="M114.487 354.523 L119.371 354.523 L119.371 360.402 L114.487 360.402 L114.487 354.523 Z" fill="#000000" fill-rule="nonzero" fill-opacity="1" /><path clip-path="url(#clip510)" d="M130.367 356.467 L138.006 356.467 L138.006 330.102 L129.695 331.768 L129.695 327.509 L137.959 325.842 L142.635 325.842 L142.635 356.467 L150.274 356.467 L150.274 360.402 L130.367 360.402 L130.367 356.467 Z" fill="#000000" fill-rule="nonzero" fill-opacity="1" /><path clip-path="url(#clip510)" d="M94.6956 260.376 Q91.0845 260.376 89.2558 263.941 Q87.4503 267.483 87.4503 274.613 Q87.4503 281.719 89.2558 285.284 Q91.0845 288.825 94.6956 288.825 Q98.3298 288.825 100.135 285.284 Q101.964 281.719 101.964 274.613 Q101.964 267.483 100.135 263.941 Q98.3298 260.376 94.6956 260.376 M94.6956 256.673 Q100.506 256.673 103.561 261.279 Q106.64 265.863 106.64 274.613 Q106.64 283.339 103.561 287.946 Q100.506 292.529 94.6956 292.529 Q88.8854 292.529 85.8068 287.946 Q82.7512 283.339 82.7512 274.613 Q82.7512 265.863 85.8068 261.279 Q88.8854 256.673 94.6956 256.673 Z" fill="#000000" fill-rule="nonzero" fill-opacity="1" /><path clip-path="url(#clip510)" d="M114.858 285.978 L119.742 285.978 L119.742 291.858 L114.858 291.858 L114.858 285.978 Z" fill="#000000" fill-rule="nonzero" fill-opacity="1" /><path clip-path="url(#clip510)" d="M133.955 287.923 L150.274 287.923 L150.274 291.858 L128.33 291.858 L128.33 287.923 Q130.992 285.168 135.575 280.538 Q140.181 275.886 141.362 274.543 Q143.607 272.02 144.487 270.284 Q145.39 268.525 145.39 266.835 Q145.39 264.08 143.445 262.344 Q141.524 260.608 138.422 260.608 Q136.223 260.608 133.769 261.372 Q131.339 262.136 128.561 263.687 L128.561 258.964 Q131.385 257.83 133.839 257.251 Q136.293 256.673 138.33 256.673 Q143.7 256.673 146.894 259.358 Q150.089 262.043 150.089 266.534 Q150.089 268.663 149.279 270.585 Q148.492 272.483 146.385 275.075 Q145.806 275.747 142.705 278.964 Q139.603 282.159 133.955 287.923 Z" fill="#000000" fill-rule="nonzero" fill-opacity="1" /><path clip-path="url(#clip510)" d="M93.7465 191.832 Q90.1354 191.832 88.3067 195.397 Q86.5012 198.938 86.5012 206.068 Q86.5012 213.174 88.3067 216.739 Q90.1354 220.281 93.7465 220.281 Q97.3808 220.281 99.1863 216.739 Q101.015 213.174 101.015 206.068 Q101.015 198.938 99.1863 195.397 Q97.3808 191.832 93.7465 191.832 M93.7465 188.128 Q99.5567 188.128 102.612 192.735 Q105.691 197.318 105.691 206.068 Q105.691 214.795 102.612 219.401 Q99.5567 223.985 93.7465 223.985 Q87.9364 223.985 84.8577 219.401 Q81.8021 214.795 81.8021 206.068 Q81.8021 197.318 84.8577 192.735 Q87.9364 188.128 93.7465 188.128 Z" fill="#000000" fill-rule="nonzero" fill-opacity="1" /><path clip-path="url(#clip510)" d="M113.908 217.434 L118.793 217.434 L118.793 223.313 L113.908 223.313 L113.908 217.434 Z" fill="#000000" fill-rule="nonzero" fill-opacity="1" /><path clip-path="url(#clip510)" d="M143.144 204.679 Q146.501 205.397 148.376 207.665 Q150.274 209.934 150.274 213.267 Q150.274 218.383 146.756 221.184 Q143.237 223.985 136.756 223.985 Q134.58 223.985 132.265 223.545 Q129.973 223.128 127.519 222.272 L127.519 217.758 Q129.464 218.892 131.779 219.471 Q134.094 220.049 136.617 220.049 Q141.015 220.049 143.306 218.313 Q145.621 216.577 145.621 213.267 Q145.621 210.212 143.468 208.499 Q141.339 206.762 137.519 206.762 L133.492 206.762 L133.492 202.92 L137.705 202.92 Q141.154 202.92 142.982 201.554 Q144.811 200.165 144.811 197.573 Q144.811 194.911 142.913 193.499 Q141.038 192.063 137.519 192.063 Q135.598 192.063 133.399 192.48 Q131.2 192.897 128.561 193.776 L128.561 189.61 Q131.223 188.869 133.538 188.499 Q135.876 188.128 137.936 188.128 Q143.26 188.128 146.362 190.559 Q149.464 192.966 149.464 197.087 Q149.464 199.957 147.82 201.948 Q146.177 203.915 143.144 204.679 Z" fill="#000000" fill-rule="nonzero" fill-opacity="1" /><path clip-path="url(#clip510)" d="M92.6123 123.287 Q89.0012 123.287 87.1725 126.852 Q85.3669 130.394 85.3669 137.524 Q85.3669 144.63 87.1725 148.195 Q89.0012 151.736 92.6123 151.736 Q96.2465 151.736 98.0521 148.195 Q99.8808 144.63 99.8808 137.524 Q99.8808 130.394 98.0521 126.852 Q96.2465 123.287 92.6123 123.287 M92.6123 119.584 Q98.4224 119.584 101.478 124.19 Q104.557 128.774 104.557 137.524 Q104.557 146.25 101.478 150.857 Q98.4224 155.44 92.6123 155.44 Q86.8021 155.44 83.7234 150.857 Q80.6679 146.25 80.6679 137.524 Q80.6679 128.774 83.7234 124.19 Q86.8021 119.584 92.6123 119.584 Z" fill="#000000" fill-rule="nonzero" fill-opacity="1" /><path clip-path="url(#clip510)" d="M112.774 148.889 L117.658 148.889 L117.658 154.769 L112.774 154.769 L112.774 148.889 Z" fill="#000000" fill-rule="nonzero" fill-opacity="1" /><path clip-path="url(#clip510)" d="M140.691 124.283 L128.885 142.732 L140.691 142.732 L140.691 124.283 M139.464 120.209 L145.343 120.209 L145.343 142.732 L150.274 142.732 L150.274 146.621 L145.343 146.621 L145.343 154.769 L140.691 154.769 L140.691 146.621 L125.089 146.621 L125.089 142.107 L139.464 120.209 Z" fill="#000000" fill-rule="nonzero" fill-opacity="1" /><path clip-path="url(#clip510)" d="M1257.4 69.7809 L1257.4 89.8329 L1249.91 89.8329 L1249.91 27.4894 Q1249.91 9.01731 1267.17 9.01731 Q1284.75 9.01731 1284.75 24.6133 Q1284.75 35.7128 1277.78 39.7637 Q1289.12 43.4095 1289.12 54.2254 Q1289.12 73.4267 1269.6 73.4267 Q1261.01 73.4267 1257.4 69.7809 M1257.4 60.0587 Q1261.9 67.0668 1269.88 67.0668 Q1281.55 67.0668 1281.55 54.3469 Q1281.55 42.9234 1262.75 43.8146 L1262.75 36.928 Q1277.45 36.928 1277.45 23.9651 Q1277.45 15.0937 1267.98 15.0937 Q1257.4 15.0937 1257.4 27.7325 L1257.4 60.0587 Z" fill="#000000" fill-rule="nonzero" fill-opacity="1" /><polyline clip-path="url(#clip512)" style="stroke:#009af9; stroke-linecap:round; stroke-linejoin:round; stroke-width:4; stroke-opacity:1; fill:none" points="247.59,373.797 250.916,373.087 254.243,372.366 257.569,371.636 260.896,370.895 276.276,367.339 291.656,363.562 307.036,359.56 322.415,355.33 337.795,350.869 353.175,346.177 368.555,341.253 383.935,336.1 402.42,329.606 420.905,322.793 439.391,315.671 457.876,308.257 473.505,301.774 489.134,295.107 504.763,288.273 520.392,281.288 588.302,249.693 650.909,220.063 667.69,212.283 684.47,204.645 701.25,197.189 718.031,189.955 737.472,181.903 756.914,174.264 776.356,167.097 795.798,160.46 813.075,155.05 830.353,150.137 847.63,145.753 864.908,141.929 880.058,139.056 895.209,136.647 910.36,134.717 925.511,133.275 942.029,132.269 958.548,131.858 975.066,132.046 991.585,132.832 1008.2,134.219 1024.82,136.198 1041.43,138.754 1058.05,141.871 1076.42,145.947 1094.79,150.654 1113.17,155.955 1131.54,161.811 1149.02,167.859 1166.5,174.33 1183.98,181.182 1201.46,188.372 1219.63,196.159 1237.81,204.213 1255.99,212.483 1274.16,220.918 1304.76,235.356 1335.36,249.893 1372.72,267.47 1410.08,284.537 1427.19,292.102 1444.3,299.476 1461.41,306.636 1478.52,313.565 1494.33,319.745 1510.13,325.704 1525.94,331.435 1541.74,336.93 1557.75,342.252 1573.76,347.324 1589.77,352.145 1605.77,356.716 1623.72,361.543 1641.66,366.061 1659.6,370.276 1677.54,374.197 1693.8,377.502 1710.06,380.581 1726.31,383.44 1742.57,386.09 1761.18,388.878 1779.8,391.417 1798.41,393.722 1817.03,395.808 1834.26,397.556 1851.5,399.141 1868.73,400.574 1885.97,401.866 1919.95,404.042 1953.93,405.788 1986.93,407.139 2019.92,408.209 2087.57,409.73 2161.69,410.682 2215.52,411.08 2269.35,411.325 2280.4,411.362 2291.44,411.395 "/>
<path clip-path="url(#clip510)" d="M186.274 953.115 L2352.76 953.115 L2352.76 656.805 L186.274 656.805  Z" fill="#ffffff" fill-rule="evenodd" fill-opacity="1"/>
<defs>
  <clipPath id="clip513">
    <rect x="186" y="656" width="2167" height="297"/>
  </clipPath>
</defs>
<polyline clip-path="url(#clip513)" style="stroke:#000000; stroke-linecap:round; stroke-linejoin:round; stroke-width:2; stroke-opacity:0.1; fill:none" points="247.59,953.115 247.59,656.805 "/>
<polyline clip-path="url(#clip513)" style="stroke:#000000; stroke-linecap:round; stroke-linejoin:round; stroke-width:2; stroke-opacity:0.1; fill:none" points="693.969,953.115 693.969,656.805 "/>
<polyline clip-path="url(#clip513)" style="stroke:#000000; stroke-linecap:round; stroke-linejoin:round; stroke-width:2; stroke-opacity:0.1; fill:none" points="1140.35,953.115 1140.35,656.805 "/>
<polyline clip-path="url(#clip513)" style="stroke:#000000; stroke-linecap:round; stroke-linejoin:round; stroke-width:2; stroke-opacity:0.1; fill:none" points="1586.73,953.115 1586.73,656.805 "/>
<polyline clip-path="url(#clip513)" style="stroke:#000000; stroke-linecap:round; stroke-linejoin:round; stroke-width:2; stroke-opacity:0.1; fill:none" points="2033.11,953.115 2033.11,656.805 "/>
<polyline clip-path="url(#clip510)" style="stroke:#000000; stroke-linecap:round; stroke-linejoin:round; stroke-width:4; stroke-opacity:1; fill:none" points="186.274,953.115 2352.76,953.115 "/>
<polyline clip-path="url(#clip510)" style="stroke:#000000; stroke-linecap:round; stroke-linejoin:round; stroke-width:4; stroke-opacity:1; fill:none" points="247.59,953.115 247.59,934.217 "/>
<polyline clip-path="url(#clip510)" style="stroke:#000000; stroke-linecap:round; stroke-linejoin:round; stroke-width:4; stroke-opacity:1; fill:none" points="693.969,953.115 693.969,934.217 "/>
<polyline clip-path="url(#clip510)" style="stroke:#000000; stroke-linecap:round; stroke-linejoin:round; stroke-width:4; stroke-opacity:1; fill:none" points="1140.35,953.115 1140.35,934.217 "/>
<polyline clip-path="url(#clip510)" style="stroke:#000000; stroke-linecap:round; stroke-linejoin:round; stroke-width:4; stroke-opacity:1; fill:none" points="1586.73,953.115 1586.73,934.217 "/>
<polyline clip-path="url(#clip510)" style="stroke:#000000; stroke-linecap:round; stroke-linejoin:round; stroke-width:4; stroke-opacity:1; fill:none" points="2033.11,953.115 2033.11,934.217 "/>
<path clip-path="url(#clip510)" d="M224.974 984.033 Q221.363 984.033 219.534 987.598 Q217.729 991.14 217.729 998.269 Q217.729 1005.38 219.534 1008.94 Q221.363 1012.48 224.974 1012.48 Q228.608 1012.48 230.414 1008.94 Q232.242 1005.38 232.242 998.269 Q232.242 991.14 230.414 987.598 Q228.608 984.033 224.974 984.033 M224.974 980.33 Q230.784 980.33 233.84 984.936 Q236.918 989.519 236.918 998.269 Q236.918 1007 233.84 1011.6 Q230.784 1016.19 224.974 1016.19 Q219.164 1016.19 216.085 1011.6 Q213.03 1007 213.03 998.269 Q213.03 989.519 216.085 984.936 Q219.164 980.33 224.974 980.33 Z" fill="#000000" fill-rule="nonzero" fill-opacity="1" /><path clip-path="url(#clip510)" d="M245.136 1009.63 L250.02 1009.63 L250.02 1015.51 L245.136 1015.51 L245.136 1009.63 Z" fill="#000000" fill-rule="nonzero" fill-opacity="1" /><path clip-path="url(#clip510)" d="M270.205 984.033 Q266.594 984.033 264.765 987.598 Q262.96 991.14 262.96 998.269 Q262.96 1005.38 264.765 1008.94 Q266.594 1012.48 270.205 1012.48 Q273.839 1012.48 275.645 1008.94 Q277.474 1005.38 277.474 998.269 Q277.474 991.14 275.645 987.598 Q273.839 984.033 270.205 984.033 M270.205 980.33 Q276.015 980.33 279.071 984.936 Q282.15 989.519 282.15 998.269 Q282.15 1007 279.071 1011.6 Q276.015 1016.19 270.205 1016.19 Q264.395 1016.19 261.316 1011.6 Q258.261 1007 258.261 998.269 Q258.261 989.519 261.316 984.936 Q264.395 980.33 270.205 980.33 Z" fill="#000000" fill-rule="nonzero" fill-opacity="1" /><path clip-path="url(#clip510)" d="M671.851 984.033 Q668.24 984.033 666.411 987.598 Q664.605 991.14 664.605 998.269 Q664.605 1005.38 666.411 1008.94 Q668.24 1012.48 671.851 1012.48 Q675.485 1012.48 677.291 1008.94 Q679.119 1005.38 679.119 998.269 Q679.119 991.14 677.291 987.598 Q675.485 984.033 671.851 984.033 M671.851 980.33 Q677.661 980.33 680.717 984.936 Q683.795 989.519 683.795 998.269 Q683.795 1007 680.717 1011.6 Q677.661 1016.19 671.851 1016.19 Q666.041 1016.19 662.962 1011.6 Q659.906 1007 659.906 998.269 Q659.906 989.519 662.962 984.936 Q666.041 980.33 671.851 980.33 Z" fill="#000000" fill-rule="nonzero" fill-opacity="1" /><path clip-path="url(#clip510)" d="M692.013 1009.63 L696.897 1009.63 L696.897 1015.51 L692.013 1015.51 L692.013 1009.63 Z" fill="#000000" fill-rule="nonzero" fill-opacity="1" /><path clip-path="url(#clip510)" d="M707.128 980.955 L725.485 980.955 L725.485 984.89 L711.411 984.89 L711.411 993.362 Q712.429 993.015 713.448 992.853 Q714.466 992.667 715.485 992.667 Q721.272 992.667 724.651 995.839 Q728.031 999.01 728.031 1004.43 Q728.031 1010.01 724.559 1013.11 Q721.087 1016.19 714.767 1016.19 Q712.591 1016.19 710.323 1015.82 Q708.077 1015.45 705.67 1014.7 L705.67 1010.01 Q707.753 1011.14 709.976 1011.7 Q712.198 1012.25 714.675 1012.25 Q718.679 1012.25 721.017 1010.14 Q723.355 1008.04 723.355 1004.43 Q723.355 1000.82 721.017 998.709 Q718.679 996.603 714.675 996.603 Q712.8 996.603 710.925 997.019 Q709.073 997.436 707.128 998.316 L707.128 980.955 Z" fill="#000000" fill-rule="nonzero" fill-opacity="1" /><path clip-path="url(#clip510)" d="M1107.5 1011.58 L1115.14 1011.58 L1115.14 985.214 L1106.83 986.88 L1106.83 982.621 L1115.09 980.955 L1119.77 980.955 L1119.77 1011.58 L1127.41 1011.58 L1127.41 1015.51 L1107.5 1015.51 L1107.5 1011.58 Z" fill="#000000" fill-rule="nonzero" fill-opacity="1" /><path clip-path="url(#clip510)" d="M1136.85 1009.63 L1141.74 1009.63 L1141.74 1015.51 L1136.85 1015.51 L1136.85 1009.63 Z" fill="#000000" fill-rule="nonzero" fill-opacity="1" /><path clip-path="url(#clip510)" d="M1161.92 984.033 Q1158.31 984.033 1156.48 987.598 Q1154.68 991.14 1154.68 998.269 Q1154.68 1005.38 1156.48 1008.94 Q1158.31 1012.48 1161.92 1012.48 Q1165.56 1012.48 1167.36 1008.94 Q1169.19 1005.38 1169.19 998.269 Q1169.19 991.14 1167.36 987.598 Q1165.56 984.033 1161.92 984.033 M1161.92 980.33 Q1167.73 980.33 1170.79 984.936 Q1173.87 989.519 1173.87 998.269 Q1173.87 1007 1170.79 1011.6 Q1167.73 1016.19 1161.92 1016.19 Q1156.11 1016.19 1153.03 1011.6 Q1149.98 1007 1149.98 998.269 Q1149.98 989.519 1153.03 984.936 Q1156.11 980.33 1161.92 980.33 Z" fill="#000000" fill-rule="nonzero" fill-opacity="1" /><path clip-path="url(#clip510)" d="M1554.38 1011.58 L1562.02 1011.58 L1562.02 985.214 L1553.71 986.88 L1553.71 982.621 L1561.97 980.955 L1566.65 980.955 L1566.65 1011.58 L1574.29 1011.58 L1574.29 1015.51 L1554.38 1015.51 L1554.38 1011.58 Z" fill="#000000" fill-rule="nonzero" fill-opacity="1" /><path clip-path="url(#clip510)" d="M1583.73 1009.63 L1588.61 1009.63 L1588.61 1015.51 L1583.73 1015.51 L1583.73 1009.63 Z" fill="#000000" fill-rule="nonzero" fill-opacity="1" /><path clip-path="url(#clip510)" d="M1598.85 980.955 L1617.2 980.955 L1617.2 984.89 L1603.13 984.89 L1603.13 993.362 Q1604.15 993.015 1605.16 992.853 Q1606.18 992.667 1607.2 992.667 Q1612.99 992.667 1616.37 995.839 Q1619.75 999.01 1619.75 1004.43 Q1619.75 1010.01 1616.28 1013.11 Q1612.8 1016.19 1606.48 1016.19 Q1604.31 1016.19 1602.04 1015.82 Q1599.79 1015.45 1597.39 1014.7 L1597.39 1010.01 Q1599.47 1011.14 1601.69 1011.7 Q1603.91 1012.25 1606.39 1012.25 Q1610.4 1012.25 1612.73 1010.14 Q1615.07 1008.04 1615.07 1004.43 Q1615.07 1000.82 1612.73 998.709 Q1610.4 996.603 1606.39 996.603 Q1604.52 996.603 1602.64 997.019 Q1600.79 997.436 1598.85 998.316 L1598.85 980.955 Z" fill="#000000" fill-rule="nonzero" fill-opacity="1" /><path clip-path="url(#clip510)" d="M2004.34 1011.58 L2020.66 1011.58 L2020.66 1015.51 L1998.72 1015.51 L1998.72 1011.58 Q2001.38 1008.82 2005.97 1004.2 Q2010.57 999.542 2011.75 998.2 Q2014 995.677 2014.88 993.941 Q2015.78 992.181 2015.78 990.492 Q2015.78 987.737 2013.84 986.001 Q2011.91 984.265 2008.81 984.265 Q2006.61 984.265 2004.16 985.029 Q2001.73 985.792 1998.95 987.343 L1998.95 982.621 Q2001.78 981.487 2004.23 980.908 Q2006.68 980.33 2008.72 980.33 Q2014.09 980.33 2017.28 983.015 Q2020.48 985.7 2020.48 990.191 Q2020.48 992.32 2019.67 994.242 Q2018.88 996.14 2016.78 998.732 Q2016.2 999.404 2013.09 1002.62 Q2009.99 1005.82 2004.34 1011.58 Z" fill="#000000" fill-rule="nonzero" fill-opacity="1" /><path clip-path="url(#clip510)" d="M2030.48 1009.63 L2035.36 1009.63 L2035.36 1015.51 L2030.48 1015.51 L2030.48 1009.63 Z" fill="#000000" fill-rule="nonzero" fill-opacity="1" /><path clip-path="url(#clip510)" d="M2055.55 984.033 Q2051.94 984.033 2050.11 987.598 Q2048.3 991.14 2048.3 998.269 Q2048.3 1005.38 2050.11 1008.94 Q2051.94 1012.48 2055.55 1012.48 Q2059.18 1012.48 2060.99 1008.94 Q2062.82 1005.38 2062.82 998.269 Q2062.82 991.14 2060.99 987.598 Q2059.18 984.033 2055.55 984.033 M2055.55 980.33 Q2061.36 980.33 2064.41 984.936 Q2067.49 989.519 2067.49 998.269 Q2067.49 1007 2064.41 1011.6 Q2061.36 1016.19 2055.55 1016.19 Q2049.74 1016.19 2046.66 1011.6 Q2043.6 1007 2043.6 998.269 Q2043.6 989.519 2046.66 984.936 Q2049.74 980.33 2055.55 980.33 Z" fill="#000000" fill-rule="nonzero" fill-opacity="1" /><polyline clip-path="url(#clip513)" style="stroke:#000000; stroke-linecap:round; stroke-linejoin:round; stroke-width:2; stroke-opacity:0.1; fill:none" points="186.274,944.95 2352.76,944.95 "/>
<polyline clip-path="url(#clip513)" style="stroke:#000000; stroke-linecap:round; stroke-linejoin:round; stroke-width:2; stroke-opacity:0.1; fill:none" points="186.274,875.864 2352.76,875.864 "/>
<polyline clip-path="url(#clip513)" style="stroke:#000000; stroke-linecap:round; stroke-linejoin:round; stroke-width:2; stroke-opacity:0.1; fill:none" points="186.274,806.778 2352.76,806.778 "/>
<polyline clip-path="url(#clip513)" style="stroke:#000000; stroke-linecap:round; stroke-linejoin:round; stroke-width:2; stroke-opacity:0.1; fill:none" points="186.274,737.692 2352.76,737.692 "/>
<polyline clip-path="url(#clip513)" style="stroke:#000000; stroke-linecap:round; stroke-linejoin:round; stroke-width:2; stroke-opacity:0.1; fill:none" points="186.274,668.606 2352.76,668.606 "/>
<polyline clip-path="url(#clip510)" style="stroke:#000000; stroke-linecap:round; stroke-linejoin:round; stroke-width:4; stroke-opacity:1; fill:none" points="186.274,953.115 186.274,656.805 "/>
<polyline clip-path="url(#clip510)" style="stroke:#000000; stroke-linecap:round; stroke-linejoin:round; stroke-width:4; stroke-opacity:1; fill:none" points="186.274,944.95 205.172,944.95 "/>
<polyline clip-path="url(#clip510)" style="stroke:#000000; stroke-linecap:round; stroke-linejoin:round; stroke-width:4; stroke-opacity:1; fill:none" points="186.274,875.864 205.172,875.864 "/>
<polyline clip-path="url(#clip510)" style="stroke:#000000; stroke-linecap:round; stroke-linejoin:round; stroke-width:4; stroke-opacity:1; fill:none" points="186.274,806.778 205.172,806.778 "/>
<polyline clip-path="url(#clip510)" style="stroke:#000000; stroke-linecap:round; stroke-linejoin:round; stroke-width:4; stroke-opacity:1; fill:none" points="186.274,737.692 205.172,737.692 "/>
<polyline clip-path="url(#clip510)" style="stroke:#000000; stroke-linecap:round; stroke-linejoin:round; stroke-width:4; stroke-opacity:1; fill:none" points="186.274,668.606 205.172,668.606 "/>
<path clip-path="url(#clip510)" d="M62.9365 930.749 Q59.3254 930.749 57.4967 934.314 Q55.6912 937.855 55.6912 944.985 Q55.6912 952.092 57.4967 955.656 Q59.3254 959.198 62.9365 959.198 Q66.5707 959.198 68.3763 955.656 Q70.205 952.092 70.205 944.985 Q70.205 937.855 68.3763 934.314 Q66.5707 930.749 62.9365 930.749 M62.9365 927.045 Q68.7467 927.045 71.8022 931.652 Q74.8809 936.235 74.8809 944.985 Q74.8809 953.712 71.8022 958.318 Q68.7467 962.902 62.9365 962.902 Q57.1264 962.902 54.0477 958.318 Q50.9921 953.712 50.9921 944.985 Q50.9921 936.235 54.0477 931.652 Q57.1264 927.045 62.9365 927.045 Z" fill="#000000" fill-rule="nonzero" fill-opacity="1" /><path clip-path="url(#clip510)" d="M83.0984 956.351 L87.9827 956.351 L87.9827 962.23 L83.0984 962.23 L83.0984 956.351 Z" fill="#000000" fill-rule="nonzero" fill-opacity="1" /><path clip-path="url(#clip510)" d="M108.168 930.749 Q104.557 930.749 102.728 934.314 Q100.922 937.855 100.922 944.985 Q100.922 952.092 102.728 955.656 Q104.557 959.198 108.168 959.198 Q111.802 959.198 113.608 955.656 Q115.436 952.092 115.436 944.985 Q115.436 937.855 113.608 934.314 Q111.802 930.749 108.168 930.749 M108.168 927.045 Q113.978 927.045 117.033 931.652 Q120.112 936.235 120.112 944.985 Q120.112 953.712 117.033 958.318 Q113.978 962.902 108.168 962.902 Q102.358 962.902 99.2789 958.318 Q96.2234 953.712 96.2234 944.985 Q96.2234 936.235 99.2789 931.652 Q102.358 927.045 108.168 927.045 Z" fill="#000000" fill-rule="nonzero" fill-opacity="1" /><path clip-path="url(#clip510)" d="M138.33 930.749 Q134.719 930.749 132.89 934.314 Q131.084 937.855 131.084 944.985 Q131.084 952.092 132.89 955.656 Q134.719 959.198 138.33 959.198 Q141.964 959.198 143.769 955.656 Q145.598 952.092 145.598 944.985 Q145.598 937.855 143.769 934.314 Q141.964 930.749 138.33 930.749 M138.33 927.045 Q144.14 927.045 147.195 931.652 Q150.274 936.235 150.274 944.985 Q150.274 953.712 147.195 958.318 Q144.14 962.902 138.33 962.902 Q132.519 962.902 129.441 958.318 Q126.385 953.712 126.385 944.985 Q126.385 936.235 129.441 931.652 Q132.519 927.045 138.33 927.045 Z" fill="#000000" fill-rule="nonzero" fill-opacity="1" /><path clip-path="url(#clip510)" d="M63.9319 861.663 Q60.3208 861.663 58.4921 865.228 Q56.6865 868.769 56.6865 875.899 Q56.6865 883.005 58.4921 886.57 Q60.3208 890.112 63.9319 890.112 Q67.5661 890.112 69.3717 886.57 Q71.2004 883.005 71.2004 875.899 Q71.2004 868.769 69.3717 865.228 Q67.5661 861.663 63.9319 861.663 M63.9319 857.959 Q69.742 857.959 72.7976 862.566 Q75.8763 867.149 75.8763 875.899 Q75.8763 884.626 72.7976 889.232 Q69.742 893.816 63.9319 893.816 Q58.1217 893.816 55.043 889.232 Q51.9875 884.626 51.9875 875.899 Q51.9875 867.149 55.043 862.566 Q58.1217 857.959 63.9319 857.959 Z" fill="#000000" fill-rule="nonzero" fill-opacity="1" /><path clip-path="url(#clip510)" d="M84.0938 887.265 L88.978 887.265 L88.978 893.144 L84.0938 893.144 L84.0938 887.265 Z" fill="#000000" fill-rule="nonzero" fill-opacity="1" /><path clip-path="url(#clip510)" d="M103.191 889.209 L119.51 889.209 L119.51 893.144 L97.566 893.144 L97.566 889.209 Q100.228 886.455 104.811 881.825 Q109.418 877.172 110.598 875.83 Q112.844 873.306 113.723 871.57 Q114.626 869.811 114.626 868.121 Q114.626 865.367 112.682 863.631 Q110.76 861.894 107.658 861.894 Q105.459 861.894 103.006 862.658 Q100.575 863.422 97.7974 864.973 L97.7974 860.251 Q100.621 859.117 103.075 858.538 Q105.529 857.959 107.566 857.959 Q112.936 857.959 116.131 860.644 Q119.325 863.33 119.325 867.82 Q119.325 869.95 118.515 871.871 Q117.728 873.769 115.621 876.362 Q115.043 877.033 111.941 880.251 Q108.839 883.445 103.191 889.209 Z" fill="#000000" fill-rule="nonzero" fill-opacity="1" /><path clip-path="url(#clip510)" d="M129.371 858.584 L147.728 858.584 L147.728 862.519 L133.654 862.519 L133.654 870.992 Q134.672 870.644 135.691 870.482 Q136.709 870.297 137.728 870.297 Q143.515 870.297 146.894 873.469 Q150.274 876.64 150.274 882.056 Q150.274 887.635 146.802 890.737 Q143.33 893.816 137.01 893.816 Q134.834 893.816 132.566 893.445 Q130.32 893.075 127.913 892.334 L127.913 887.635 Q129.996 888.769 132.219 889.325 Q134.441 889.88 136.918 889.88 Q140.922 889.88 143.26 887.774 Q145.598 885.668 145.598 882.056 Q145.598 878.445 143.26 876.339 Q140.922 874.232 136.918 874.232 Q135.043 874.232 133.168 874.649 Q131.316 875.066 129.371 875.945 L129.371 858.584 Z" fill="#000000" fill-rule="nonzero" fill-opacity="1" /><path clip-path="url(#clip510)" d="M62.9365 792.577 Q59.3254 792.577 57.4967 796.142 Q55.6912 799.683 55.6912 806.813 Q55.6912 813.919 57.4967 817.484 Q59.3254 821.026 62.9365 821.026 Q66.5707 821.026 68.3763 817.484 Q70.205 813.919 70.205 806.813 Q70.205 799.683 68.3763 796.142 Q66.5707 792.577 62.9365 792.577 M62.9365 788.873 Q68.7467 788.873 71.8022 793.48 Q74.8809 798.063 74.8809 806.813 Q74.8809 815.54 71.8022 820.146 Q68.7467 824.73 62.9365 824.73 Q57.1264 824.73 54.0477 820.146 Q50.9921 815.54 50.9921 806.813 Q50.9921 798.063 54.0477 793.48 Q57.1264 788.873 62.9365 788.873 Z" fill="#000000" fill-rule="nonzero" fill-opacity="1" /><path clip-path="url(#clip510)" d="M83.0984 818.179 L87.9827 818.179 L87.9827 824.058 L83.0984 824.058 L83.0984 818.179 Z" fill="#000000" fill-rule="nonzero" fill-opacity="1" /><path clip-path="url(#clip510)" d="M98.2141 789.498 L116.57 789.498 L116.57 793.433 L102.496 793.433 L102.496 801.906 Q103.515 801.558 104.534 801.396 Q105.552 801.211 106.571 801.211 Q112.358 801.211 115.737 804.382 Q119.117 807.554 119.117 812.97 Q119.117 818.549 115.645 821.651 Q112.172 824.73 105.853 824.73 Q103.677 824.73 101.409 824.359 Q99.1632 823.989 96.7558 823.248 L96.7558 818.549 Q98.8391 819.683 101.061 820.239 Q103.284 820.794 105.76 820.794 Q109.765 820.794 112.103 818.688 Q114.441 816.581 114.441 812.97 Q114.441 809.359 112.103 807.253 Q109.765 805.146 105.76 805.146 Q103.885 805.146 102.01 805.563 Q100.159 805.98 98.2141 806.859 L98.2141 789.498 Z" fill="#000000" fill-rule="nonzero" fill-opacity="1" /><path clip-path="url(#clip510)" d="M138.33 792.577 Q134.719 792.577 132.89 796.142 Q131.084 799.683 131.084 806.813 Q131.084 813.919 132.89 817.484 Q134.719 821.026 138.33 821.026 Q141.964 821.026 143.769 817.484 Q145.598 813.919 145.598 806.813 Q145.598 799.683 143.769 796.142 Q141.964 792.577 138.33 792.577 M138.33 788.873 Q144.14 788.873 147.195 793.48 Q150.274 798.063 150.274 806.813 Q150.274 815.54 147.195 820.146 Q144.14 824.73 138.33 824.73 Q132.519 824.73 129.441 820.146 Q126.385 815.54 126.385 806.813 Q126.385 798.063 129.441 793.48 Q132.519 788.873 138.33 788.873 Z" fill="#000000" fill-rule="nonzero" fill-opacity="1" /><path clip-path="url(#clip510)" d="M63.9319 723.491 Q60.3208 723.491 58.4921 727.056 Q56.6865 730.597 56.6865 737.727 Q56.6865 744.833 58.4921 748.398 Q60.3208 751.94 63.9319 751.94 Q67.5661 751.94 69.3717 748.398 Q71.2004 744.833 71.2004 737.727 Q71.2004 730.597 69.3717 727.056 Q67.5661 723.491 63.9319 723.491 M63.9319 719.787 Q69.742 719.787 72.7976 724.394 Q75.8763 728.977 75.8763 737.727 Q75.8763 746.454 72.7976 751.06 Q69.742 755.644 63.9319 755.644 Q58.1217 755.644 55.043 751.06 Q51.9875 746.454 51.9875 737.727 Q51.9875 728.977 55.043 724.394 Q58.1217 719.787 63.9319 719.787 Z" fill="#000000" fill-rule="nonzero" fill-opacity="1" /><path clip-path="url(#clip510)" d="M84.0938 749.093 L88.978 749.093 L88.978 754.972 L84.0938 754.972 L84.0938 749.093 Z" fill="#000000" fill-rule="nonzero" fill-opacity="1" /><path clip-path="url(#clip510)" d="M97.9826 720.412 L120.205 720.412 L120.205 722.403 L107.658 754.972 L102.774 754.972 L114.58 724.347 L97.9826 724.347 L97.9826 720.412 Z" fill="#000000" fill-rule="nonzero" fill-opacity="1" /><path clip-path="url(#clip510)" d="M129.371 720.412 L147.728 720.412 L147.728 724.347 L133.654 724.347 L133.654 732.82 Q134.672 732.472 135.691 732.31 Q136.709 732.125 137.728 732.125 Q143.515 732.125 146.894 735.296 Q150.274 738.468 150.274 743.884 Q150.274 749.463 146.802 752.565 Q143.33 755.644 137.01 755.644 Q134.834 755.644 132.566 755.273 Q130.32 754.903 127.913 754.162 L127.913 749.463 Q129.996 750.597 132.219 751.153 Q134.441 751.708 136.918 751.708 Q140.922 751.708 143.26 749.602 Q145.598 747.495 145.598 743.884 Q145.598 740.273 143.26 738.167 Q140.922 736.06 136.918 736.06 Q135.043 736.06 133.168 736.477 Q131.316 736.894 129.371 737.773 L129.371 720.412 Z" fill="#000000" fill-rule="nonzero" fill-opacity="1" /><path clip-path="url(#clip510)" d="M53.7467 681.951 L61.3856 681.951 L61.3856 655.586 L53.0754 657.252 L53.0754 652.993 L61.3393 651.326 L66.0152 651.326 L66.0152 681.951 L73.654 681.951 L73.654 685.886 L53.7467 685.886 L53.7467 681.951 Z" fill="#000000" fill-rule="nonzero" fill-opacity="1" /><path clip-path="url(#clip510)" d="M83.0984 680.007 L87.9827 680.007 L87.9827 685.886 L83.0984 685.886 L83.0984 680.007 Z" fill="#000000" fill-rule="nonzero" fill-opacity="1" /><path clip-path="url(#clip510)" d="M108.168 654.405 Q104.557 654.405 102.728 657.97 Q100.922 661.511 100.922 668.641 Q100.922 675.747 102.728 679.312 Q104.557 682.854 108.168 682.854 Q111.802 682.854 113.608 679.312 Q115.436 675.747 115.436 668.641 Q115.436 661.511 113.608 657.97 Q111.802 654.405 108.168 654.405 M108.168 650.701 Q113.978 650.701 117.033 655.308 Q120.112 659.891 120.112 668.641 Q120.112 677.368 117.033 681.974 Q113.978 686.558 108.168 686.558 Q102.358 686.558 99.2789 681.974 Q96.2234 677.368 96.2234 668.641 Q96.2234 659.891 99.2789 655.308 Q102.358 650.701 108.168 650.701 Z" fill="#000000" fill-rule="nonzero" fill-opacity="1" /><path clip-path="url(#clip510)" d="M138.33 654.405 Q134.719 654.405 132.89 657.97 Q131.084 661.511 131.084 668.641 Q131.084 675.747 132.89 679.312 Q134.719 682.854 138.33 682.854 Q141.964 682.854 143.769 679.312 Q145.598 675.747 145.598 668.641 Q145.598 661.511 143.769 657.97 Q141.964 654.405 138.33 654.405 M138.33 650.701 Q144.14 650.701 147.195 655.308 Q150.274 659.891 150.274 668.641 Q150.274 677.368 147.195 681.974 Q144.14 686.558 138.33 686.558 Q132.519 686.558 129.441 681.974 Q126.385 677.368 126.385 668.641 Q126.385 659.891 129.441 655.308 Q132.519 650.701 138.33 650.701 Z" fill="#000000" fill-rule="nonzero" fill-opacity="1" /><path clip-path="url(#clip510)" d="M1260.18 567.669 L1270.1 595.701 L1284.28 560.539 L1292.18 560.539 L1273.83 605.909 L1273.83 623.166 L1266.38 623.166 L1266.38 605.909 L1254.47 572.044 Q1252.68 566.94 1248.84 566.94 L1246.85 566.94 L1246.85 560.539 L1249.69 560.539 Q1257.67 560.539 1260.18 567.669 Z" fill="#000000" fill-rule="nonzero" fill-opacity="1" /><polyline clip-path="url(#clip513)" style="stroke:#009af9; stroke-linecap:round; stroke-linejoin:round; stroke-width:4; stroke-opacity:1; fill:none" points="247.59,741.803 250.916,740.594 254.243,739.39 257.569,738.189 260.896,736.993 291.656,726.178 322.415,715.891 353.175,706.256 383.935,697.394 402.42,692.488 420.905,687.927 439.391,683.731 457.876,679.921 473.505,677.016 489.134,674.41 504.763,672.114 520.392,670.136 537.37,668.355 554.347,666.965 571.325,665.972 588.302,665.38 603.954,665.192 619.606,665.347 635.258,665.846 650.909,666.687 667.69,667.963 684.47,669.624 701.25,671.66 718.031,674.065 737.472,677.298 756.914,680.994 776.356,685.132 795.798,689.69 813.075,694.073 830.353,698.75 847.63,703.701 864.908,708.907 880.058,713.664 895.209,718.587 910.36,723.66 925.511,728.869 958.548,740.623 991.585,752.793 1024.82,765.299 1058.05,777.921 1094.79,791.836 1131.54,805.541 1166.5,818.239 1201.46,830.485 1219.63,836.639 1237.81,842.632 1255.99,848.454 1274.16,854.095 1304.76,863.164 1335.36,871.673 1354.04,876.585 1372.72,881.278 1391.4,885.753 1410.08,890.01 1427.19,893.719 1444.3,897.248 1461.41,900.599 1478.52,903.775 1510.13,909.195 1541.74,914.056 1573.76,918.443 1605.77,922.323 1641.66,926.117 1677.54,929.375 1710.06,931.911 1742.57,934.092 1779.8,936.202 1817.03,937.951 1851.5,939.292 1885.97,940.404 1953.93,942.047 2019.92,943.114 2087.57,943.827 2161.69,944.312 2269.35,944.683 2291.44,944.728 "/>
<path clip-path="url(#clip510)" d="M186.274 1486.45 L2352.76 1486.45 L2352.76 1190.14 L186.274 1190.14  Z" fill="#ffffff" fill-rule="evenodd" fill-opacity="1"/>
<defs>
  <clipPath id="clip514">
    <rect x="186" y="1190" width="2167" height="297"/>
  </clipPath>
</defs>
<polyline clip-path="url(#clip514)" style="stroke:#000000; stroke-linecap:round; stroke-linejoin:round; stroke-width:2; stroke-opacity:0.1; fill:none" points="247.59,1486.45 247.59,1190.14 "/>
<polyline clip-path="url(#clip514)" style="stroke:#000000; stroke-linecap:round; stroke-linejoin:round; stroke-width:2; stroke-opacity:0.1; fill:none" points="802.36,1486.45 802.36,1190.14 "/>
<polyline clip-path="url(#clip514)" style="stroke:#000000; stroke-linecap:round; stroke-linejoin:round; stroke-width:2; stroke-opacity:0.1; fill:none" points="1357.13,1486.45 1357.13,1190.14 "/>
<polyline clip-path="url(#clip514)" style="stroke:#000000; stroke-linecap:round; stroke-linejoin:round; stroke-width:2; stroke-opacity:0.1; fill:none" points="1911.9,1486.45 1911.9,1190.14 "/>
<polyline clip-path="url(#clip510)" style="stroke:#000000; stroke-linecap:round; stroke-linejoin:round; stroke-width:4; stroke-opacity:1; fill:none" points="186.274,1486.45 2352.76,1486.45 "/>
<polyline clip-path="url(#clip510)" style="stroke:#000000; stroke-linecap:round; stroke-linejoin:round; stroke-width:4; stroke-opacity:1; fill:none" points="247.59,1486.45 247.59,1467.55 "/>
<polyline clip-path="url(#clip510)" style="stroke:#000000; stroke-linecap:round; stroke-linejoin:round; stroke-width:4; stroke-opacity:1; fill:none" points="802.36,1486.45 802.36,1467.55 "/>
<polyline clip-path="url(#clip510)" style="stroke:#000000; stroke-linecap:round; stroke-linejoin:round; stroke-width:4; stroke-opacity:1; fill:none" points="1357.13,1486.45 1357.13,1467.55 "/>
<polyline clip-path="url(#clip510)" style="stroke:#000000; stroke-linecap:round; stroke-linejoin:round; stroke-width:4; stroke-opacity:1; fill:none" points="1911.9,1486.45 1911.9,1467.55 "/>
<path clip-path="url(#clip510)" d="M224.974 1517.37 Q221.363 1517.37 219.534 1520.93 Q217.729 1524.47 217.729 1531.6 Q217.729 1538.71 219.534 1542.27 Q221.363 1545.82 224.974 1545.82 Q228.608 1545.82 230.414 1542.27 Q232.242 1538.71 232.242 1531.6 Q232.242 1524.47 230.414 1520.93 Q228.608 1517.37 224.974 1517.37 M224.974 1513.66 Q230.784 1513.66 233.84 1518.27 Q236.918 1522.85 236.918 1531.6 Q236.918 1540.33 233.84 1544.94 Q230.784 1549.52 224.974 1549.52 Q219.164 1549.52 216.085 1544.94 Q213.03 1540.33 213.03 1531.6 Q213.03 1522.85 216.085 1518.27 Q219.164 1513.66 224.974 1513.66 Z" fill="#000000" fill-rule="nonzero" fill-opacity="1" /><path clip-path="url(#clip510)" d="M245.136 1542.97 L250.02 1542.97 L250.02 1548.85 L245.136 1548.85 L245.136 1542.97 Z" fill="#000000" fill-rule="nonzero" fill-opacity="1" /><path clip-path="url(#clip510)" d="M270.205 1517.37 Q266.594 1517.37 264.765 1520.93 Q262.96 1524.47 262.96 1531.6 Q262.96 1538.71 264.765 1542.27 Q266.594 1545.82 270.205 1545.82 Q273.839 1545.82 275.645 1542.27 Q277.474 1538.71 277.474 1531.6 Q277.474 1524.47 275.645 1520.93 Q273.839 1517.37 270.205 1517.37 M270.205 1513.66 Q276.015 1513.66 279.071 1518.27 Q282.15 1522.85 282.15 1531.6 Q282.15 1540.33 279.071 1544.94 Q276.015 1549.52 270.205 1549.52 Q264.395 1549.52 261.316 1544.94 Q258.261 1540.33 258.261 1531.6 Q258.261 1522.85 261.316 1518.27 Q264.395 1513.66 270.205 1513.66 Z" fill="#000000" fill-rule="nonzero" fill-opacity="1" /><path clip-path="url(#clip510)" d="M780.242 1517.37 Q776.631 1517.37 774.803 1520.93 Q772.997 1524.47 772.997 1531.6 Q772.997 1538.71 774.803 1542.27 Q776.631 1545.82 780.242 1545.82 Q783.877 1545.82 785.682 1542.27 Q787.511 1538.71 787.511 1531.6 Q787.511 1524.47 785.682 1520.93 Q783.877 1517.37 780.242 1517.37 M780.242 1513.66 Q786.052 1513.66 789.108 1518.27 Q792.187 1522.85 792.187 1531.6 Q792.187 1540.33 789.108 1544.94 Q786.052 1549.52 780.242 1549.52 Q774.432 1549.52 771.353 1544.94 Q768.298 1540.33 768.298 1531.6 Q768.298 1522.85 771.353 1518.27 Q774.432 1513.66 780.242 1513.66 Z" fill="#000000" fill-rule="nonzero" fill-opacity="1" /><path clip-path="url(#clip510)" d="M800.404 1542.97 L805.288 1542.97 L805.288 1548.85 L800.404 1548.85 L800.404 1542.97 Z" fill="#000000" fill-rule="nonzero" fill-opacity="1" /><path clip-path="url(#clip510)" d="M815.52 1514.29 L833.876 1514.29 L833.876 1518.22 L819.802 1518.22 L819.802 1526.7 Q820.821 1526.35 821.839 1526.19 Q822.858 1526 823.876 1526 Q829.663 1526 833.043 1529.17 Q836.423 1532.34 836.423 1537.76 Q836.423 1543.34 832.95 1546.44 Q829.478 1549.52 823.159 1549.52 Q820.983 1549.52 818.714 1549.15 Q816.469 1548.78 814.062 1548.04 L814.062 1543.34 Q816.145 1544.47 818.367 1545.03 Q820.589 1545.58 823.066 1545.58 Q827.071 1545.58 829.409 1543.48 Q831.747 1541.37 831.747 1537.76 Q831.747 1534.15 829.409 1532.04 Q827.071 1529.94 823.066 1529.94 Q821.191 1529.94 819.316 1530.35 Q817.464 1530.77 815.52 1531.65 L815.52 1514.29 Z" fill="#000000" fill-rule="nonzero" fill-opacity="1" /><path clip-path="url(#clip510)" d="M1324.28 1544.91 L1331.92 1544.91 L1331.92 1518.55 L1323.61 1520.21 L1323.61 1515.95 L1331.88 1514.29 L1336.55 1514.29 L1336.55 1544.91 L1344.19 1544.91 L1344.19 1548.85 L1324.28 1548.85 L1324.28 1544.91 Z" fill="#000000" fill-rule="nonzero" fill-opacity="1" /><path clip-path="url(#clip510)" d="M1353.64 1542.97 L1358.52 1542.97 L1358.52 1548.85 L1353.64 1548.85 L1353.64 1542.97 Z" fill="#000000" fill-rule="nonzero" fill-opacity="1" /><path clip-path="url(#clip510)" d="M1378.7 1517.37 Q1375.09 1517.37 1373.27 1520.93 Q1371.46 1524.47 1371.46 1531.6 Q1371.46 1538.71 1373.27 1542.27 Q1375.09 1545.82 1378.7 1545.82 Q1382.34 1545.82 1384.14 1542.27 Q1385.97 1538.71 1385.97 1531.6 Q1385.97 1524.47 1384.14 1520.93 Q1382.34 1517.37 1378.7 1517.37 M1378.7 1513.66 Q1384.52 1513.66 1387.57 1518.27 Q1390.65 1522.85 1390.65 1531.6 Q1390.65 1540.33 1387.57 1544.94 Q1384.52 1549.52 1378.7 1549.52 Q1372.89 1549.52 1369.82 1544.94 Q1366.76 1540.33 1366.76 1531.6 Q1366.76 1522.85 1369.82 1518.27 Q1372.89 1513.66 1378.7 1513.66 Z" fill="#000000" fill-rule="nonzero" fill-opacity="1" /><path clip-path="url(#clip510)" d="M1879.55 1544.91 L1887.19 1544.91 L1887.19 1518.55 L1878.88 1520.21 L1878.88 1515.95 L1887.14 1514.29 L1891.82 1514.29 L1891.82 1544.91 L1899.46 1544.91 L1899.46 1548.85 L1879.55 1548.85 L1879.55 1544.91 Z" fill="#000000" fill-rule="nonzero" fill-opacity="1" /><path clip-path="url(#clip510)" d="M1908.9 1542.97 L1913.79 1542.97 L1913.79 1548.85 L1908.9 1548.85 L1908.9 1542.97 Z" fill="#000000" fill-rule="nonzero" fill-opacity="1" /><path clip-path="url(#clip510)" d="M1924.02 1514.29 L1942.38 1514.29 L1942.38 1518.22 L1928.3 1518.22 L1928.3 1526.7 Q1929.32 1526.35 1930.34 1526.19 Q1931.36 1526 1932.38 1526 Q1938.16 1526 1941.54 1529.17 Q1944.92 1532.34 1944.92 1537.76 Q1944.92 1543.34 1941.45 1546.44 Q1937.98 1549.52 1931.66 1549.52 Q1929.48 1549.52 1927.21 1549.15 Q1924.97 1548.78 1922.56 1548.04 L1922.56 1543.34 Q1924.64 1544.47 1926.87 1545.03 Q1929.09 1545.58 1931.57 1545.58 Q1935.57 1545.58 1937.91 1543.48 Q1940.25 1541.37 1940.25 1537.76 Q1940.25 1534.15 1937.91 1532.04 Q1935.57 1529.94 1931.57 1529.94 Q1929.69 1529.94 1927.82 1530.35 Q1925.96 1530.77 1924.02 1531.65 L1924.02 1514.29 Z" fill="#000000" fill-rule="nonzero" fill-opacity="1" /><polyline clip-path="url(#clip514)" style="stroke:#000000; stroke-linecap:round; stroke-linejoin:round; stroke-width:2; stroke-opacity:0.1; fill:none" points="186.274,1478.09 2352.76,1478.09 "/>
<polyline clip-path="url(#clip514)" style="stroke:#000000; stroke-linecap:round; stroke-linejoin:round; stroke-width:2; stroke-opacity:0.1; fill:none" points="186.274,1422.18 2352.76,1422.18 "/>
<polyline clip-path="url(#clip514)" style="stroke:#000000; stroke-linecap:round; stroke-linejoin:round; stroke-width:2; stroke-opacity:0.1; fill:none" points="186.274,1366.26 2352.76,1366.26 "/>
<polyline clip-path="url(#clip514)" style="stroke:#000000; stroke-linecap:round; stroke-linejoin:round; stroke-width:2; stroke-opacity:0.1; fill:none" points="186.274,1310.35 2352.76,1310.35 "/>
<polyline clip-path="url(#clip514)" style="stroke:#000000; stroke-linecap:round; stroke-linejoin:round; stroke-width:2; stroke-opacity:0.1; fill:none" points="186.274,1254.44 2352.76,1254.44 "/>
<polyline clip-path="url(#clip514)" style="stroke:#000000; stroke-linecap:round; stroke-linejoin:round; stroke-width:2; stroke-opacity:0.1; fill:none" points="186.274,1198.52 2352.76,1198.52 "/>
<polyline clip-path="url(#clip510)" style="stroke:#000000; stroke-linecap:round; stroke-linejoin:round; stroke-width:4; stroke-opacity:1; fill:none" points="186.274,1486.45 186.274,1190.14 "/>
<polyline clip-path="url(#clip510)" style="stroke:#000000; stroke-linecap:round; stroke-linejoin:round; stroke-width:4; stroke-opacity:1; fill:none" points="186.274,1478.09 205.172,1478.09 "/>
<polyline clip-path="url(#clip510)" style="stroke:#000000; stroke-linecap:round; stroke-linejoin:round; stroke-width:4; stroke-opacity:1; fill:none" points="186.274,1422.18 205.172,1422.18 "/>
<polyline clip-path="url(#clip510)" style="stroke:#000000; stroke-linecap:round; stroke-linejoin:round; stroke-width:4; stroke-opacity:1; fill:none" points="186.274,1366.26 205.172,1366.26 "/>
<polyline clip-path="url(#clip510)" style="stroke:#000000; stroke-linecap:round; stroke-linejoin:round; stroke-width:4; stroke-opacity:1; fill:none" points="186.274,1310.35 205.172,1310.35 "/>
<polyline clip-path="url(#clip510)" style="stroke:#000000; stroke-linecap:round; stroke-linejoin:round; stroke-width:4; stroke-opacity:1; fill:none" points="186.274,1254.44 205.172,1254.44 "/>
<polyline clip-path="url(#clip510)" style="stroke:#000000; stroke-linecap:round; stroke-linejoin:round; stroke-width:4; stroke-opacity:1; fill:none" points="186.274,1198.52 205.172,1198.52 "/>
<path clip-path="url(#clip510)" d="M138.33 1463.89 Q134.719 1463.89 132.89 1467.45 Q131.084 1470.99 131.084 1478.12 Q131.084 1485.23 132.89 1488.8 Q134.719 1492.34 138.33 1492.34 Q141.964 1492.34 143.769 1488.8 Q145.598 1485.23 145.598 1478.12 Q145.598 1470.99 143.769 1467.45 Q141.964 1463.89 138.33 1463.89 M138.33 1460.18 Q144.14 1460.18 147.195 1464.79 Q150.274 1469.37 150.274 1478.12 Q150.274 1486.85 147.195 1491.46 Q144.14 1496.04 138.33 1496.04 Q132.519 1496.04 129.441 1491.46 Q126.385 1486.85 126.385 1478.12 Q126.385 1469.37 129.441 1464.79 Q132.519 1460.18 138.33 1460.18 Z" fill="#000000" fill-rule="nonzero" fill-opacity="1" /><path clip-path="url(#clip510)" d="M130.367 1435.52 L138.006 1435.52 L138.006 1409.16 L129.695 1410.82 L129.695 1406.56 L137.959 1404.9 L142.635 1404.9 L142.635 1435.52 L150.274 1435.52 L150.274 1439.46 L130.367 1439.46 L130.367 1435.52 Z" fill="#000000" fill-rule="nonzero" fill-opacity="1" /><path clip-path="url(#clip510)" d="M133.955 1379.61 L150.274 1379.61 L150.274 1383.54 L128.33 1383.54 L128.33 1379.61 Q130.992 1376.85 135.575 1372.22 Q140.181 1367.57 141.362 1366.23 Q143.607 1363.71 144.487 1361.97 Q145.39 1360.21 145.39 1358.52 Q145.39 1355.77 143.445 1354.03 Q141.524 1352.29 138.422 1352.29 Q136.223 1352.29 133.769 1353.06 Q131.339 1353.82 128.561 1355.37 L128.561 1350.65 Q131.385 1349.52 133.839 1348.94 Q136.293 1348.36 138.33 1348.36 Q143.7 1348.36 146.894 1351.04 Q150.089 1353.73 150.089 1358.22 Q150.089 1360.35 149.279 1362.27 Q148.492 1364.17 146.385 1366.76 Q145.806 1367.43 142.705 1370.65 Q139.603 1373.84 133.955 1379.61 Z" fill="#000000" fill-rule="nonzero" fill-opacity="1" /><path clip-path="url(#clip510)" d="M143.144 1309 Q146.501 1309.71 148.376 1311.98 Q150.274 1314.25 150.274 1317.58 Q150.274 1322.7 146.756 1325.5 Q143.237 1328.3 136.756 1328.3 Q134.58 1328.3 132.265 1327.86 Q129.973 1327.45 127.519 1326.59 L127.519 1322.08 Q129.464 1323.21 131.779 1323.79 Q134.094 1324.37 136.617 1324.37 Q141.015 1324.37 143.306 1322.63 Q145.621 1320.89 145.621 1317.58 Q145.621 1314.53 143.468 1312.82 Q141.339 1311.08 137.519 1311.08 L133.492 1311.08 L133.492 1307.24 L137.705 1307.24 Q141.154 1307.24 142.982 1305.87 Q144.811 1304.48 144.811 1301.89 Q144.811 1299.23 142.913 1297.82 Q141.038 1296.38 137.519 1296.38 Q135.598 1296.38 133.399 1296.8 Q131.2 1297.21 128.561 1298.09 L128.561 1293.93 Q131.223 1293.19 133.538 1292.82 Q135.876 1292.45 137.936 1292.45 Q143.26 1292.45 146.362 1294.88 Q149.464 1297.28 149.464 1301.4 Q149.464 1304.27 147.82 1306.27 Q146.177 1308.23 143.144 1309 Z" fill="#000000" fill-rule="nonzero" fill-opacity="1" /><path clip-path="url(#clip510)" d="M140.691 1241.23 L128.885 1259.68 L140.691 1259.68 L140.691 1241.23 M139.464 1237.16 L145.343 1237.16 L145.343 1259.68 L150.274 1259.68 L150.274 1263.57 L145.343 1263.57 L145.343 1271.72 L140.691 1271.72 L140.691 1263.57 L125.089 1263.57 L125.089 1259.06 L139.464 1237.16 Z" fill="#000000" fill-rule="nonzero" fill-opacity="1" /><path clip-path="url(#clip510)" d="M129.371 1181.24 L147.728 1181.24 L147.728 1185.18 L133.654 1185.18 L133.654 1193.65 Q134.672 1193.31 135.691 1193.14 Q136.709 1192.96 137.728 1192.96 Q143.515 1192.96 146.894 1196.13 Q150.274 1199.3 150.274 1204.72 Q150.274 1210.3 146.802 1213.4 Q143.33 1216.48 137.01 1216.48 Q134.834 1216.48 132.566 1216.11 Q130.32 1215.74 127.913 1214.99 L127.913 1210.3 Q129.996 1211.43 132.219 1211.99 Q134.441 1212.54 136.918 1212.54 Q140.922 1212.54 143.26 1210.43 Q145.598 1208.33 145.598 1204.72 Q145.598 1201.11 143.26 1199 Q140.922 1196.89 136.918 1196.89 Q135.043 1196.89 133.168 1197.31 Q131.316 1197.73 129.371 1198.61 L129.371 1181.24 Z" fill="#000000" fill-rule="nonzero" fill-opacity="1" /><path clip-path="url(#clip510)" d="M1234.58 1076.21 L1234.58 1092.94 Q1242.64 1092.94 1248.02 1099.14 Q1253.57 1105.46 1253.57 1116.6 Q1253.57 1127.74 1248.02 1134.06 Q1242.64 1140.26 1234.58 1140.26 L1234.58 1156.5 L1227.16 1156.5 L1227.16 1140.26 Q1219.1 1140.26 1213.67 1134.06 Q1208.16 1127.74 1208.16 1116.6 Q1208.16 1105.46 1213.67 1099.14 Q1219.1 1092.94 1227.16 1092.94 L1227.16 1076.21 L1234.58 1076.21 M1234.58 1133.61 Q1239.15 1133.61 1242.27 1129.44 Q1245.68 1124.78 1245.72 1116.6 Q1245.76 1108.5 1242.27 1103.76 Q1239.15 1099.58 1234.58 1099.58 L1234.58 1133.61 M1227.16 1133.61 L1227.16 1099.58 Q1222.59 1099.58 1219.51 1103.76 Q1215.98 1108.5 1216.02 1116.6 Q1216.06 1124.78 1219.51 1129.44 Q1222.59 1133.61 1227.16 1133.61 Z" fill="#000000" fill-rule="nonzero" fill-opacity="1" /><path clip-path="url(#clip510)" d="M1263.9 1095.7 L1296.6 1095.7 L1296.6 1099.54 L1263.9 1099.54 L1263.9 1095.7 Z" fill="#000000" fill-rule="nonzero" fill-opacity="1" /><path clip-path="url(#clip510)" d="M1308.46 1107.73 L1316.73 1107.73 L1316.73 1082.98 L1307.69 1084.64 L1307.69 1079.94 L1317.01 1078.36 L1322.56 1078.36 L1322.56 1107.73 L1330.87 1107.73 L1330.87 1112.18 L1308.46 1112.18 L1308.46 1107.73 Z" fill="#000000" fill-rule="nonzero" fill-opacity="1" /><polyline clip-path="url(#clip514)" style="stroke:#009af9; stroke-linecap:round; stroke-linejoin:round; stroke-width:4; stroke-opacity:1; fill:none" points="247.59,1198.52 250.916,1202.68 254.243,1206.78 257.569,1210.82 260.896,1214.8 268.586,1223.76 276.276,1232.43 283.966,1240.79 291.656,1248.88 299.346,1256.68 307.036,1264.22 314.725,1271.51 322.415,1278.54 330.105,1285.34 337.795,1291.91 345.485,1298.25 353.175,1304.37 360.865,1310.29 368.555,1316 376.245,1321.53 383.935,1326.86 393.177,1333.03 402.42,1338.95 411.663,1344.62 420.905,1350.07 430.148,1355.29 439.391,1360.3 448.633,1365.1 457.876,1369.71 473.505,1377.08 489.134,1383.95 504.763,1390.36 520.392,1396.32 537.37,1402.34 554.347,1407.92 571.325,1413.09 588.302,1417.88 603.954,1421.98 619.606,1425.8 635.258,1429.36 650.909,1432.68 667.69,1435.99 684.47,1439.05 701.25,1441.9 718.031,1444.53 737.472,1447.35 756.914,1449.93 776.356,1452.29 795.798,1454.45 830.353,1457.86 864.908,1460.78 895.209,1462.99 925.511,1464.92 958.548,1466.74 991.585,1468.31 1024.82,1469.67 1058.05,1470.84 1131.54,1472.88 1201.46,1474.29 1274.16,1475.35 1335.36,1476.01 1410.08,1476.61 1478.52,1477 1541.74,1477.27 1605.77,1477.48 1677.54,1477.65 1742.57,1477.76 1817.03,1477.85 1885.97,1477.92 1953.93,1477.96 2019.92,1477.99 2087.57,1478.02 2161.69,1478.04 2269.35,1478.06 2291.44,1478.06 "/>
</svg>
