<?xml version="1.0" encoding="utf-8"?>
<svg xmlns="http://www.w3.org/2000/svg" xmlns:xlink="http://www.w3.org/1999/xlink" width="800" height="200" viewBox="0 0 3200 800">
<defs>
  <clipPath id="clip340">
    <rect x="0" y="0" width="3200" height="800"/>
  </clipPath>
</defs>
<path clip-path="url(#clip340)" d="M0 800 L3200 800 L3200 0 L0 0  Z" fill="#ffffff" fill-rule="evenodd" fill-opacity="1"/>
<defs>
  <clipPath id="clip341">
    <rect x="640" y="0" width="2241" height="800"/>
  </clipPath>
</defs>
<path clip-path="url(#clip340)" d="M164.598 716.048 L1552.76 716.048 L1552.76 47.2441 L164.598 47.2441  Z" fill="#ffffff" fill-rule="evenodd" fill-opacity="1"/>
<defs>
  <clipPath id="clip342">
    <rect x="164" y="47" width="1389" height="670"/>
  </clipPath>
</defs>
<polyline clip-path="url(#clip342)" style="stroke:#000000; stroke-linecap:round; stroke-linejoin:round; stroke-width:2; stroke-opacity:0.1; fill:none" points="349.395,716.048 349.395,47.2441 "/>
<polyline clip-path="url(#clip342)" style="stroke:#000000; stroke-linecap:round; stroke-linejoin:round; stroke-width:2; stroke-opacity:0.1; fill:none" points="640.413,716.048 640.413,47.2441 "/>
<polyline clip-path="url(#clip342)" style="stroke:#000000; stroke-linecap:round; stroke-linejoin:round; stroke-width:2; stroke-opacity:0.1; fill:none" points="931.432,716.048 931.432,47.2441 "/>
<polyline clip-path="url(#clip342)" style="stroke:#000000; stroke-linecap:round; stroke-linejoin:round; stroke-width:2; stroke-opacity:0.1; fill:none" points="1222.45,716.048 1222.45,47.2441 "/>
<polyline clip-path="url(#clip342)" style="stroke:#000000; stroke-linecap:round; stroke-linejoin:round; stroke-width:2; stroke-opacity:0.1; fill:none" points="1513.47,716.048 1513.47,47.2441 "/>
<polyline clip-path="url(#clip340)" style="stroke:#000000; stroke-linecap:round; stroke-linejoin:round; stroke-width:4; stroke-opacity:1; fill:none" points="164.598,716.048 1552.76,716.048 "/>
<polyline clip-path="url(#clip340)" style="stroke:#000000; stroke-linecap:round; stroke-linejoin:round; stroke-width:4; stroke-opacity:1; fill:none" points="349.395,716.048 349.395,697.15 "/>
<polyline clip-path="url(#clip340)" style="stroke:#000000; stroke-linecap:round; stroke-linejoin:round; stroke-width:4; stroke-opacity:1; fill:none" points="640.413,716.048 640.413,697.15 "/>
<polyline clip-path="url(#clip340)" style="stroke:#000000; stroke-linecap:round; stroke-linejoin:round; stroke-width:4; stroke-opacity:1; fill:none" points="931.432,716.048 931.432,697.15 "/>
<polyline clip-path="url(#clip340)" style="stroke:#000000; stroke-linecap:round; stroke-linejoin:round; stroke-width:4; stroke-opacity:1; fill:none" points="1222.45,716.048 1222.45,697.15 "/>
<polyline clip-path="url(#clip340)" style="stroke:#000000; stroke-linecap:round; stroke-linejoin:round; stroke-width:4; stroke-opacity:1; fill:none" points="1513.47,716.048 1513.47,697.15 "/>
<path clip-path="url(#clip340)" d="M344.048 780.913 L360.367 780.913 L360.367 784.848 L338.423 784.848 L338.423 780.913 Q341.085 778.158 345.668 773.528 Q350.275 768.876 351.455 767.533 Q353.7 765.01 354.58 763.274 Q355.483 761.515 355.483 759.825 Q355.483 757.07 353.538 755.334 Q351.617 753.598 348.515 753.598 Q346.316 753.598 343.863 754.362 Q341.432 755.126 338.654 756.677 L338.654 751.955 Q341.478 750.82 343.932 750.242 Q346.386 749.663 348.423 749.663 Q353.793 749.663 356.987 752.348 Q360.182 755.033 360.182 759.524 Q360.182 761.654 359.372 763.575 Q358.585 765.473 356.478 768.066 Q355.9 768.737 352.798 771.954 Q349.696 775.149 344.048 780.913 Z" fill="#000000" fill-rule="nonzero" fill-opacity="1" /><path clip-path="url(#clip340)" d="M643.423 754.362 L631.617 772.811 L643.423 772.811 L643.423 754.362 M642.196 750.288 L648.075 750.288 L648.075 772.811 L653.006 772.811 L653.006 776.7 L648.075 776.7 L648.075 784.848 L643.423 784.848 L643.423 776.7 L627.821 776.7 L627.821 772.186 L642.196 750.288 Z" fill="#000000" fill-rule="nonzero" fill-opacity="1" /><path clip-path="url(#clip340)" d="M931.837 765.704 Q928.689 765.704 926.837 767.857 Q925.008 770.01 925.008 773.76 Q925.008 777.487 926.837 779.663 Q928.689 781.815 931.837 781.815 Q934.985 781.815 936.814 779.663 Q938.665 777.487 938.665 773.76 Q938.665 770.01 936.814 767.857 Q934.985 765.704 931.837 765.704 M941.119 751.052 L941.119 755.311 Q939.36 754.478 937.554 754.038 Q935.772 753.598 934.013 753.598 Q929.383 753.598 926.929 756.723 Q924.499 759.848 924.152 766.167 Q925.517 764.154 927.578 763.089 Q929.638 762.001 932.115 762.001 Q937.323 762.001 940.332 765.172 Q943.364 768.32 943.364 773.76 Q943.364 779.084 940.216 782.302 Q937.068 785.519 931.837 785.519 Q925.841 785.519 922.67 780.936 Q919.499 776.329 919.499 767.603 Q919.499 759.408 923.388 754.547 Q927.277 749.663 933.827 749.663 Q935.587 749.663 937.369 750.01 Q939.175 750.357 941.119 751.052 Z" fill="#000000" fill-rule="nonzero" fill-opacity="1" /><path clip-path="url(#clip340)" d="M1222.45 768.436 Q1219.12 768.436 1217.2 770.218 Q1215.3 772.001 1215.3 775.126 Q1215.3 778.251 1217.2 780.033 Q1219.12 781.815 1222.45 781.815 Q1225.78 781.815 1227.7 780.033 Q1229.63 778.228 1229.63 775.126 Q1229.63 772.001 1227.7 770.218 Q1225.81 768.436 1222.45 768.436 M1217.77 766.445 Q1214.76 765.704 1213.08 763.644 Q1211.41 761.584 1211.41 758.621 Q1211.41 754.478 1214.35 752.07 Q1217.31 749.663 1222.45 749.663 Q1227.61 749.663 1230.55 752.07 Q1233.49 754.478 1233.49 758.621 Q1233.49 761.584 1231.8 763.644 Q1230.14 765.704 1227.15 766.445 Q1230.53 767.232 1232.4 769.524 Q1234.3 771.816 1234.3 775.126 Q1234.3 780.149 1231.22 782.834 Q1228.17 785.519 1222.45 785.519 Q1216.73 785.519 1213.65 782.834 Q1210.6 780.149 1210.6 775.126 Q1210.6 771.816 1212.5 769.524 Q1214.39 767.232 1217.77 766.445 M1216.06 759.061 Q1216.06 761.746 1217.73 763.251 Q1219.42 764.755 1222.45 764.755 Q1225.46 764.755 1227.15 763.251 Q1228.86 761.746 1228.86 759.061 Q1228.86 756.376 1227.15 754.871 Q1225.46 753.367 1222.45 753.367 Q1219.42 753.367 1217.73 754.871 Q1216.06 756.376 1216.06 759.061 Z" fill="#000000" fill-rule="nonzero" fill-opacity="1" /><path clip-path="url(#clip340)" d="M1488.16 780.913 L1495.79 780.913 L1495.79 754.547 L1487.48 756.214 L1487.48 751.955 L1495.75 750.288 L1500.42 750.288 L1500.42 780.913 L1508.06 780.913 L1508.06 784.848 L1488.16 784.848 L1488.16 780.913 Z" fill="#000000" fill-rule="nonzero" fill-opacity="1" /><path clip-path="url(#clip340)" d="M1527.51 753.367 Q1523.9 753.367 1522.07 756.931 Q1520.26 760.473 1520.26 767.603 Q1520.26 774.709 1522.07 778.274 Q1523.9 781.815 1527.51 781.815 Q1531.14 781.815 1532.95 778.274 Q1534.78 774.709 1534.78 767.603 Q1534.78 760.473 1532.95 756.931 Q1531.14 753.367 1527.51 753.367 M1527.51 749.663 Q1533.32 749.663 1536.37 754.269 Q1539.45 758.853 1539.45 767.603 Q1539.45 776.329 1536.37 780.936 Q1533.32 785.519 1527.51 785.519 Q1521.7 785.519 1518.62 780.936 Q1515.56 776.329 1515.56 767.603 Q1515.56 758.853 1518.62 754.269 Q1521.7 749.663 1527.51 749.663 Z" fill="#000000" fill-rule="nonzero" fill-opacity="1" /><polyline clip-path="url(#clip342)" style="stroke:#000000; stroke-linecap:round; stroke-linejoin:round; stroke-width:2; stroke-opacity:0.1; fill:none" points="164.598,639.68 1552.76,639.68 "/>
<polyline clip-path="url(#clip342)" style="stroke:#000000; stroke-linecap:round; stroke-linejoin:round; stroke-width:2; stroke-opacity:0.1; fill:none" points="164.598,554.973 1552.76,554.973 "/>
<polyline clip-path="url(#clip342)" style="stroke:#000000; stroke-linecap:round; stroke-linejoin:round; stroke-width:2; stroke-opacity:0.1; fill:none" points="164.598,470.266 1552.76,470.266 "/>
<polyline clip-path="url(#clip342)" style="stroke:#000000; stroke-linecap:round; stroke-linejoin:round; stroke-width:2; stroke-opacity:0.1; fill:none" points="164.598,385.559 1552.76,385.559 "/>
<polyline clip-path="url(#clip342)" style="stroke:#000000; stroke-linecap:round; stroke-linejoin:round; stroke-width:2; stroke-opacity:0.1; fill:none" points="164.598,300.852 1552.76,300.852 "/>
<polyline clip-path="url(#clip342)" style="stroke:#000000; stroke-linecap:round; stroke-linejoin:round; stroke-width:2; stroke-opacity:0.1; fill:none" points="164.598,216.145 1552.76,216.145 "/>
<polyline clip-path="url(#clip342)" style="stroke:#000000; stroke-linecap:round; stroke-linejoin:round; stroke-width:2; stroke-opacity:0.1; fill:none" points="164.598,131.438 1552.76,131.438 "/>
<polyline clip-path="url(#clip340)" style="stroke:#000000; stroke-linecap:round; stroke-linejoin:round; stroke-width:4; stroke-opacity:1; fill:none" points="164.598,716.048 164.598,47.2441 "/>
<polyline clip-path="url(#clip340)" style="stroke:#000000; stroke-linecap:round; stroke-linejoin:round; stroke-width:4; stroke-opacity:1; fill:none" points="164.598,639.68 183.496,639.68 "/>
<polyline clip-path="url(#clip340)" style="stroke:#000000; stroke-linecap:round; stroke-linejoin:round; stroke-width:4; stroke-opacity:1; fill:none" points="164.598,554.973 183.496,554.973 "/>
<polyline clip-path="url(#clip340)" style="stroke:#000000; stroke-linecap:round; stroke-linejoin:round; stroke-width:4; stroke-opacity:1; fill:none" points="164.598,470.266 183.496,470.266 "/>
<polyline clip-path="url(#clip340)" style="stroke:#000000; stroke-linecap:round; stroke-linejoin:round; stroke-width:4; stroke-opacity:1; fill:none" points="164.598,385.559 183.496,385.559 "/>
<polyline clip-path="url(#clip340)" style="stroke:#000000; stroke-linecap:round; stroke-linejoin:round; stroke-width:4; stroke-opacity:1; fill:none" points="164.598,300.852 183.496,300.852 "/>
<polyline clip-path="url(#clip340)" style="stroke:#000000; stroke-linecap:round; stroke-linejoin:round; stroke-width:4; stroke-opacity:1; fill:none" points="164.598,216.145 183.496,216.145 "/>
<polyline clip-path="url(#clip340)" style="stroke:#000000; stroke-linecap:round; stroke-linejoin:round; stroke-width:4; stroke-opacity:1; fill:none" points="164.598,131.438 183.496,131.438 "/>
<path clip-path="url(#clip340)" d="M60.6495 625.479 Q57.0384 625.479 55.2097 629.044 Q53.4041 632.585 53.4041 639.715 Q53.4041 646.821 55.2097 650.386 Q57.0384 653.928 60.6495 653.928 Q64.2837 653.928 66.0892 650.386 Q67.9179 646.821 67.9179 639.715 Q67.9179 632.585 66.0892 629.044 Q64.2837 625.479 60.6495 625.479 M60.6495 621.775 Q66.4596 621.775 69.5152 626.382 Q72.5938 630.965 72.5938 639.715 Q72.5938 648.442 69.5152 653.048 Q66.4596 657.632 60.6495 657.632 Q54.8393 657.632 51.7606 653.048 Q48.7051 648.442 48.7051 639.715 Q48.7051 630.965 51.7606 626.382 Q54.8393 621.775 60.6495 621.775 Z" fill="#000000" fill-rule="nonzero" fill-opacity="1" /><path clip-path="url(#clip340)" d="M80.8114 651.081 L85.6956 651.081 L85.6956 656.96 L80.8114 656.96 L80.8114 651.081 Z" fill="#000000" fill-rule="nonzero" fill-opacity="1" /><path clip-path="url(#clip340)" d="M96.6909 653.025 L104.33 653.025 L104.33 626.659 L96.0196 628.326 L96.0196 624.067 L104.283 622.4 L108.959 622.4 L108.959 653.025 L116.598 653.025 L116.598 656.96 L96.6909 656.96 L96.6909 653.025 Z" fill="#000000" fill-rule="nonzero" fill-opacity="1" /><path clip-path="url(#clip340)" d="M61.0198 540.772 Q57.4087 540.772 55.58 544.337 Q53.7745 547.878 53.7745 555.008 Q53.7745 562.114 55.58 565.679 Q57.4087 569.221 61.0198 569.221 Q64.6541 569.221 66.4596 565.679 Q68.2883 562.114 68.2883 555.008 Q68.2883 547.878 66.4596 544.337 Q64.6541 540.772 61.0198 540.772 M61.0198 537.068 Q66.83 537.068 69.8855 541.675 Q72.9642 546.258 72.9642 555.008 Q72.9642 563.735 69.8855 568.341 Q66.83 572.925 61.0198 572.925 Q55.2097 572.925 52.131 568.341 Q49.0754 563.735 49.0754 555.008 Q49.0754 546.258 52.131 541.675 Q55.2097 537.068 61.0198 537.068 Z" fill="#000000" fill-rule="nonzero" fill-opacity="1" /><path clip-path="url(#clip340)" d="M81.1818 566.374 L86.066 566.374 L86.066 572.253 L81.1818 572.253 L81.1818 566.374 Z" fill="#000000" fill-rule="nonzero" fill-opacity="1" /><path clip-path="url(#clip340)" d="M100.279 568.318 L116.598 568.318 L116.598 572.253 L94.6539 572.253 L94.6539 568.318 Q97.3159 565.563 101.899 560.934 Q106.506 556.281 107.686 554.939 Q109.932 552.415 110.811 550.679 Q111.714 548.92 111.714 547.23 Q111.714 544.476 109.77 542.74 Q107.848 541.003 104.746 541.003 Q102.547 541.003 100.094 541.767 Q97.6632 542.531 94.8854 544.082 L94.8854 539.36 Q97.7094 538.226 100.163 537.647 Q102.617 537.068 104.654 537.068 Q110.024 537.068 113.219 539.753 Q116.413 542.439 116.413 546.929 Q116.413 549.059 115.603 550.98 Q114.816 552.878 112.709 555.471 Q112.131 556.142 109.029 559.36 Q105.927 562.554 100.279 568.318 Z" fill="#000000" fill-rule="nonzero" fill-opacity="1" /><path clip-path="url(#clip340)" d="M60.0708 456.065 Q56.4597 456.065 54.631 459.63 Q52.8254 463.171 52.8254 470.301 Q52.8254 477.407 54.631 480.972 Q56.4597 484.514 60.0708 484.514 Q63.705 484.514 65.5105 480.972 Q67.3392 477.407 67.3392 470.301 Q67.3392 463.171 65.5105 459.63 Q63.705 456.065 60.0708 456.065 M60.0708 452.361 Q65.8809 452.361 68.9365 456.968 Q72.0151 461.551 72.0151 470.301 Q72.0151 479.028 68.9365 483.634 Q65.8809 488.218 60.0708 488.218 Q54.2606 488.218 51.1819 483.634 Q48.1264 479.028 48.1264 470.301 Q48.1264 461.551 51.1819 456.968 Q54.2606 452.361 60.0708 452.361 Z" fill="#000000" fill-rule="nonzero" fill-opacity="1" /><path clip-path="url(#clip340)" d="M80.2327 481.667 L85.1169 481.667 L85.1169 487.546 L80.2327 487.546 L80.2327 481.667 Z" fill="#000000" fill-rule="nonzero" fill-opacity="1" /><path clip-path="url(#clip340)" d="M109.469 468.912 Q112.825 469.63 114.7 471.898 Q116.598 474.167 116.598 477.5 Q116.598 482.616 113.08 485.417 Q109.561 488.218 103.08 488.218 Q100.904 488.218 98.5891 487.778 Q96.2974 487.361 93.8437 486.505 L93.8437 481.991 Q95.7882 483.125 98.103 483.704 Q100.418 484.282 102.941 484.282 Q107.339 484.282 109.631 482.546 Q111.945 480.81 111.945 477.5 Q111.945 474.445 109.793 472.732 Q107.663 470.995 103.844 470.995 L99.8159 470.995 L99.8159 467.153 L104.029 467.153 Q107.478 467.153 109.307 465.787 Q111.135 464.398 111.135 461.806 Q111.135 459.144 109.237 457.732 Q107.362 456.296 103.844 456.296 Q101.922 456.296 99.7233 456.713 Q97.5243 457.13 94.8854 458.009 L94.8854 453.843 Q97.5474 453.102 99.8622 452.732 Q102.2 452.361 104.26 452.361 Q109.584 452.361 112.686 454.792 Q115.788 457.199 115.788 461.32 Q115.788 464.19 114.145 466.181 Q112.501 468.148 109.469 468.912 Z" fill="#000000" fill-rule="nonzero" fill-opacity="1" /><path clip-path="url(#clip340)" d="M58.9365 371.358 Q55.3254 371.358 53.4967 374.923 Q51.6912 378.464 51.6912 385.594 Q51.6912 392.7 53.4967 396.265 Q55.3254 399.807 58.9365 399.807 Q62.5707 399.807 64.3763 396.265 Q66.205 392.7 66.205 385.594 Q66.205 378.464 64.3763 374.923 Q62.5707 371.358 58.9365 371.358 M58.9365 367.654 Q64.7467 367.654 67.8022 372.261 Q70.8809 376.844 70.8809 385.594 Q70.8809 394.321 67.8022 398.927 Q64.7467 403.511 58.9365 403.511 Q53.1264 403.511 50.0477 398.927 Q46.9921 394.321 46.9921 385.594 Q46.9921 376.844 50.0477 372.261 Q53.1264 367.654 58.9365 367.654 Z" fill="#000000" fill-rule="nonzero" fill-opacity="1" /><path clip-path="url(#clip340)" d="M79.0984 396.96 L83.9827 396.96 L83.9827 402.839 L79.0984 402.839 L79.0984 396.96 Z" fill="#000000" fill-rule="nonzero" fill-opacity="1" /><path clip-path="url(#clip340)" d="M107.015 372.353 L95.2095 390.802 L107.015 390.802 L107.015 372.353 M105.788 368.279 L111.668 368.279 L111.668 390.802 L116.598 390.802 L116.598 394.691 L111.668 394.691 L111.668 402.839 L107.015 402.839 L107.015 394.691 L91.4132 394.691 L91.4132 390.177 L105.788 368.279 Z" fill="#000000" fill-rule="nonzero" fill-opacity="1" /><path clip-path="url(#clip340)" d="M60.418 286.651 Q56.8069 286.651 54.9782 290.216 Q53.1726 293.757 53.1726 300.887 Q53.1726 307.993 54.9782 311.558 Q56.8069 315.1 60.418 315.1 Q64.0522 315.1 65.8578 311.558 Q67.6865 307.993 67.6865 300.887 Q67.6865 293.757 65.8578 290.216 Q64.0522 286.651 60.418 286.651 M60.418 282.947 Q66.2281 282.947 69.2837 287.554 Q72.3624 292.137 72.3624 300.887 Q72.3624 309.614 69.2837 314.22 Q66.2281 318.804 60.418 318.804 Q54.6078 318.804 51.5291 314.22 Q48.4736 309.614 48.4736 300.887 Q48.4736 292.137 51.5291 287.554 Q54.6078 282.947 60.418 282.947 Z" fill="#000000" fill-rule="nonzero" fill-opacity="1" /><path clip-path="url(#clip340)" d="M80.5799 312.253 L85.4641 312.253 L85.4641 318.132 L80.5799 318.132 L80.5799 312.253 Z" fill="#000000" fill-rule="nonzero" fill-opacity="1" /><path clip-path="url(#clip340)" d="M95.6956 283.572 L114.052 283.572 L114.052 287.507 L99.978 287.507 L99.978 295.98 Q100.996 295.632 102.015 295.47 Q103.033 295.285 104.052 295.285 Q109.839 295.285 113.219 298.457 Q116.598 301.628 116.598 307.044 Q116.598 312.623 113.126 315.725 Q109.654 318.804 103.334 318.804 Q101.159 318.804 98.89 318.433 Q96.6446 318.063 94.2372 317.322 L94.2372 312.623 Q96.3206 313.757 98.5428 314.313 Q100.765 314.868 103.242 314.868 Q107.246 314.868 109.584 312.762 Q111.922 310.656 111.922 307.044 Q111.922 303.433 109.584 301.327 Q107.246 299.22 103.242 299.22 Q101.367 299.22 99.4918 299.637 Q97.64 300.054 95.6956 300.933 L95.6956 283.572 Z" fill="#000000" fill-rule="nonzero" fill-opacity="1" /><path clip-path="url(#clip340)" d="M59.2606 201.944 Q55.6495 201.944 53.8208 205.509 Q52.0152 209.05 52.0152 216.18 Q52.0152 223.287 53.8208 226.851 Q55.6495 230.393 59.2606 230.393 Q62.8948 230.393 64.7004 226.851 Q66.5291 223.287 66.5291 216.18 Q66.5291 209.05 64.7004 205.509 Q62.8948 201.944 59.2606 201.944 M59.2606 198.24 Q65.0707 198.24 68.1263 202.847 Q71.205 207.43 71.205 216.18 Q71.205 224.907 68.1263 229.513 Q65.0707 234.097 59.2606 234.097 Q53.4504 234.097 50.3717 229.513 Q47.3162 224.907 47.3162 216.18 Q47.3162 207.43 50.3717 202.847 Q53.4504 198.24 59.2606 198.24 Z" fill="#000000" fill-rule="nonzero" fill-opacity="1" /><path clip-path="url(#clip340)" d="M79.4225 227.546 L84.3067 227.546 L84.3067 233.425 L79.4225 233.425 L79.4225 227.546 Z" fill="#000000" fill-rule="nonzero" fill-opacity="1" /><path clip-path="url(#clip340)" d="M105.071 214.282 Q101.922 214.282 100.071 216.435 Q98.2419 218.587 98.2419 222.337 Q98.2419 226.064 100.071 228.24 Q101.922 230.393 105.071 230.393 Q108.219 230.393 110.047 228.24 Q111.899 226.064 111.899 222.337 Q111.899 218.587 110.047 216.435 Q108.219 214.282 105.071 214.282 M114.353 199.629 L114.353 203.888 Q112.594 203.055 110.788 202.615 Q109.006 202.176 107.246 202.176 Q102.617 202.176 100.163 205.3 Q97.7326 208.425 97.3854 214.745 Q98.7511 212.731 100.811 211.666 Q102.871 210.578 105.348 210.578 Q110.557 210.578 113.566 213.75 Q116.598 216.898 116.598 222.337 Q116.598 227.661 113.45 230.879 Q110.302 234.097 105.071 234.097 Q99.0752 234.097 95.9039 229.513 Q92.7326 224.907 92.7326 216.18 Q92.7326 207.986 96.6215 203.125 Q100.51 198.24 107.061 198.24 Q108.82 198.24 110.603 198.588 Q112.408 198.935 114.353 199.629 Z" fill="#000000" fill-rule="nonzero" fill-opacity="1" /><path clip-path="url(#clip340)" d="M60.3254 117.237 Q56.7143 117.237 54.8856 120.802 Q53.0801 124.343 53.0801 131.473 Q53.0801 138.58 54.8856 142.144 Q56.7143 145.686 60.3254 145.686 Q63.9596 145.686 65.7652 142.144 Q67.5939 138.58 67.5939 131.473 Q67.5939 124.343 65.7652 120.802 Q63.9596 117.237 60.3254 117.237 M60.3254 113.533 Q66.1355 113.533 69.1911 118.14 Q72.2698 122.723 72.2698 131.473 Q72.2698 140.2 69.1911 144.806 Q66.1355 149.39 60.3254 149.39 Q54.5152 149.39 51.4365 144.806 Q48.381 140.2 48.381 131.473 Q48.381 122.723 51.4365 118.14 Q54.5152 113.533 60.3254 113.533 Z" fill="#000000" fill-rule="nonzero" fill-opacity="1" /><path clip-path="url(#clip340)" d="M80.4873 142.839 L85.3715 142.839 L85.3715 148.718 L80.4873 148.718 L80.4873 142.839 Z" fill="#000000" fill-rule="nonzero" fill-opacity="1" /><path clip-path="url(#clip340)" d="M94.3761 114.158 L116.598 114.158 L116.598 116.149 L104.052 148.718 L99.1678 148.718 L110.973 118.094 L94.3761 118.094 L94.3761 114.158 Z" fill="#000000" fill-rule="nonzero" fill-opacity="1" /><polyline clip-path="url(#clip342)" style="stroke:#009af9; stroke-linecap:round; stroke-linejoin:round; stroke-width:4; stroke-opacity:1; fill:none" points="203.886,99.6694 349.395,397.119 494.904,311.016 640.413,123.289 785.922,66.1725 931.432,470.96 1076.94,294.388 1222.45,697.119 1367.96,498.809 1513.47,438.863 "/>
<path clip-path="url(#clip340)" d="M1315.24 173.218 L1506.48 173.218 L1506.48 69.5376 L1315.24 69.5376  Z" fill="#ffffff" fill-rule="evenodd" fill-opacity="1"/>
<polyline clip-path="url(#clip340)" style="stroke:#000000; stroke-linecap:round; stroke-linejoin:round; stroke-width:4; stroke-opacity:1; fill:none" points="1315.24,173.218 1506.48,173.218 1506.48,69.5376 1315.24,69.5376 1315.24,173.218 "/>
<polyline clip-path="url(#clip340)" style="stroke:#009af9; stroke-linecap:round; stroke-linejoin:round; stroke-width:4; stroke-opacity:1; fill:none" points="1330.66,121.378 1423.21,121.378 "/>
<path clip-path="url(#clip340)" d="M1452.47 141.065 Q1450.67 145.695 1448.95 147.107 Q1447.24 148.519 1444.37 148.519 L1440.97 148.519 L1440.97 144.954 L1443.47 144.954 Q1445.23 144.954 1446.2 144.12 Q1447.17 143.287 1448.35 140.185 L1449.12 138.241 L1438.63 112.732 L1443.14 112.732 L1451.25 133.009 L1459.35 112.732 L1463.86 112.732 L1452.47 141.065 Z" fill="#000000" fill-rule="nonzero" fill-opacity="1" /><path clip-path="url(#clip340)" d="M1471.15 134.722 L1478.79 134.722 L1478.79 108.357 L1470.48 110.023 L1470.48 105.764 L1478.75 104.098 L1483.42 104.098 L1483.42 134.722 L1491.06 134.722 L1491.06 138.658 L1471.15 138.658 L1471.15 134.722 Z" fill="#000000" fill-rule="nonzero" fill-opacity="1" /><path clip-path="url(#clip340)" d="M1764.6 716.048 L3152.76 716.048 L3152.76 47.2441 L1764.6 47.2441  Z" fill="#ffffff" fill-rule="evenodd" fill-opacity="1"/>
<defs>
  <clipPath id="clip343">
    <rect x="1764" y="47" width="1389" height="670"/>
  </clipPath>
</defs>
<polyline clip-path="url(#clip343)" style="stroke:#000000; stroke-linecap:round; stroke-linejoin:round; stroke-width:2; stroke-opacity:0.1; fill:none" points="1949.39,716.048 1949.39,47.2441 "/>
<polyline clip-path="url(#clip343)" style="stroke:#000000; stroke-linecap:round; stroke-linejoin:round; stroke-width:2; stroke-opacity:0.1; fill:none" points="2240.41,716.048 2240.41,47.2441 "/>
<polyline clip-path="url(#clip343)" style="stroke:#000000; stroke-linecap:round; stroke-linejoin:round; stroke-width:2; stroke-opacity:0.1; fill:none" points="2531.43,716.048 2531.43,47.2441 "/>
<polyline clip-path="url(#clip343)" style="stroke:#000000; stroke-linecap:round; stroke-linejoin:round; stroke-width:2; stroke-opacity:0.1; fill:none" points="2822.45,716.048 2822.45,47.2441 "/>
<polyline clip-path="url(#clip343)" style="stroke:#000000; stroke-linecap:round; stroke-linejoin:round; stroke-width:2; stroke-opacity:0.1; fill:none" points="3113.47,716.048 3113.47,47.2441 "/>
<polyline clip-path="url(#clip340)" style="stroke:#000000; stroke-linecap:round; stroke-linejoin:round; stroke-width:4; stroke-opacity:1; fill:none" points="1764.6,716.048 3152.76,716.048 "/>
<polyline clip-path="url(#clip340)" style="stroke:#000000; stroke-linecap:round; stroke-linejoin:round; stroke-width:4; stroke-opacity:1; fill:none" points="1949.39,716.048 1949.39,697.15 "/>
<polyline clip-path="url(#clip340)" style="stroke:#000000; stroke-linecap:round; stroke-linejoin:round; stroke-width:4; stroke-opacity:1; fill:none" points="2240.41,716.048 2240.41,697.15 "/>
<polyline clip-path="url(#clip340)" style="stroke:#000000; stroke-linecap:round; stroke-linejoin:round; stroke-width:4; stroke-opacity:1; fill:none" points="2531.43,716.048 2531.43,697.15 "/>
<polyline clip-path="url(#clip340)" style="stroke:#000000; stroke-linecap:round; stroke-linejoin:round; stroke-width:4; stroke-opacity:1; fill:none" points="2822.45,716.048 2822.45,697.15 "/>
<polyline clip-path="url(#clip340)" style="stroke:#000000; stroke-linecap:round; stroke-linejoin:round; stroke-width:4; stroke-opacity:1; fill:none" points="3113.47,716.048 3113.47,697.15 "/>
<path clip-path="url(#clip340)" d="M1944.05 780.913 L1960.37 780.913 L1960.37 784.848 L1938.42 784.848 L1938.42 780.913 Q1941.08 778.158 1945.67 773.528 Q1950.27 768.876 1951.46 767.533 Q1953.7 765.01 1954.58 763.274 Q1955.48 761.515 1955.48 759.825 Q1955.48 757.07 1953.54 755.334 Q1951.62 753.598 1948.52 753.598 Q1946.32 753.598 1943.86 754.362 Q1941.43 755.126 1938.65 756.677 L1938.65 751.955 Q1941.48 750.82 1943.93 750.242 Q1946.39 749.663 1948.42 749.663 Q1953.79 749.663 1956.99 752.348 Q1960.18 755.033 1960.18 759.524 Q1960.18 761.654 1959.37 763.575 Q1958.58 765.473 1956.48 768.066 Q1955.9 768.737 1952.8 771.954 Q1949.7 775.149 1944.05 780.913 Z" fill="#000000" fill-rule="nonzero" fill-opacity="1" /><path clip-path="url(#clip340)" d="M2243.42 754.362 L2231.62 772.811 L2243.42 772.811 L2243.42 754.362 M2242.2 750.288 L2248.08 750.288 L2248.08 772.811 L2253.01 772.811 L2253.01 776.7 L2248.08 776.7 L2248.08 784.848 L2243.42 784.848 L2243.42 776.7 L2227.82 776.7 L2227.82 772.186 L2242.2 750.288 Z" fill="#000000" fill-rule="nonzero" fill-opacity="1" /><path clip-path="url(#clip340)" d="M2531.84 765.704 Q2528.69 765.704 2526.84 767.857 Q2525.01 770.01 2525.01 773.76 Q2525.01 777.487 2526.84 779.663 Q2528.69 781.815 2531.84 781.815 Q2534.98 781.815 2536.81 779.663 Q2538.67 777.487 2538.67 773.76 Q2538.67 770.01 2536.81 767.857 Q2534.98 765.704 2531.84 765.704 M2541.12 751.052 L2541.12 755.311 Q2539.36 754.478 2537.55 754.038 Q2535.77 753.598 2534.01 753.598 Q2529.38 753.598 2526.93 756.723 Q2524.5 759.848 2524.15 766.167 Q2525.52 764.154 2527.58 763.089 Q2529.64 762.001 2532.11 762.001 Q2537.32 762.001 2540.33 765.172 Q2543.36 768.32 2543.36 773.76 Q2543.36 779.084 2540.22 782.302 Q2537.07 785.519 2531.84 785.519 Q2525.84 785.519 2522.67 780.936 Q2519.5 776.329 2519.5 767.603 Q2519.5 759.408 2523.39 754.547 Q2527.28 749.663 2533.83 749.663 Q2535.59 749.663 2537.37 750.01 Q2539.17 750.357 2541.12 751.052 Z" fill="#000000" fill-rule="nonzero" fill-opacity="1" /><path clip-path="url(#clip340)" d="M2822.45 768.436 Q2819.12 768.436 2817.2 770.218 Q2815.3 772.001 2815.3 775.126 Q2815.3 778.251 2817.2 780.033 Q2819.12 781.815 2822.45 781.815 Q2825.78 781.815 2827.7 780.033 Q2829.63 778.228 2829.63 775.126 Q2829.63 772.001 2827.7 770.218 Q2825.81 768.436 2822.45 768.436 M2817.77 766.445 Q2814.76 765.704 2813.08 763.644 Q2811.41 761.584 2811.41 758.621 Q2811.41 754.478 2814.35 752.07 Q2817.31 749.663 2822.45 749.663 Q2827.61 749.663 2830.55 752.07 Q2833.49 754.478 2833.49 758.621 Q2833.49 761.584 2831.8 763.644 Q2830.14 765.704 2827.15 766.445 Q2830.53 767.232 2832.4 769.524 Q2834.3 771.816 2834.3 775.126 Q2834.3 780.149 2831.22 782.834 Q2828.17 785.519 2822.45 785.519 Q2816.73 785.519 2813.65 782.834 Q2810.6 780.149 2810.6 775.126 Q2810.6 771.816 2812.5 769.524 Q2814.39 767.232 2817.77 766.445 M2816.06 759.061 Q2816.06 761.746 2817.73 763.251 Q2819.42 764.755 2822.45 764.755 Q2825.46 764.755 2827.15 763.251 Q2828.86 761.746 2828.86 759.061 Q2828.86 756.376 2827.15 754.871 Q2825.46 753.367 2822.45 753.367 Q2819.42 753.367 2817.73 754.871 Q2816.06 756.376 2816.06 759.061 Z" fill="#000000" fill-rule="nonzero" fill-opacity="1" /><path clip-path="url(#clip340)" d="M3088.16 780.913 L3095.79 780.913 L3095.79 754.547 L3087.48 756.214 L3087.48 751.955 L3095.75 750.288 L3100.42 750.288 L3100.42 780.913 L3108.06 780.913 L3108.06 784.848 L3088.16 784.848 L3088.16 780.913 Z" fill="#000000" fill-rule="nonzero" fill-opacity="1" /><path clip-path="url(#clip340)" d="M3127.51 753.367 Q3123.9 753.367 3122.07 756.931 Q3120.26 760.473 3120.26 767.603 Q3120.26 774.709 3122.07 778.274 Q3123.9 781.815 3127.51 781.815 Q3131.14 781.815 3132.95 778.274 Q3134.78 774.709 3134.78 767.603 Q3134.78 760.473 3132.95 756.931 Q3131.14 753.367 3127.51 753.367 M3127.51 749.663 Q3133.32 749.663 3136.37 754.269 Q3139.45 758.853 3139.45 767.603 Q3139.45 776.329 3136.37 780.936 Q3133.32 785.519 3127.51 785.519 Q3121.7 785.519 3118.62 780.936 Q3115.56 776.329 3115.56 767.603 Q3115.56 758.853 3118.62 754.269 Q3121.7 749.663 3127.51 749.663 Z" fill="#000000" fill-rule="nonzero" fill-opacity="1" /><polyline clip-path="url(#clip343)" style="stroke:#000000; stroke-linecap:round; stroke-linejoin:round; stroke-width:2; stroke-opacity:0.1; fill:none" points="1764.6,638.301 3152.76,638.301 "/>
<polyline clip-path="url(#clip343)" style="stroke:#000000; stroke-linecap:round; stroke-linejoin:round; stroke-width:2; stroke-opacity:0.1; fill:none" points="1764.6,478.818 3152.76,478.818 "/>
<polyline clip-path="url(#clip343)" style="stroke:#000000; stroke-linecap:round; stroke-linejoin:round; stroke-width:2; stroke-opacity:0.1; fill:none" points="1764.6,319.336 3152.76,319.336 "/>
<polyline clip-path="url(#clip343)" style="stroke:#000000; stroke-linecap:round; stroke-linejoin:round; stroke-width:2; stroke-opacity:0.1; fill:none" points="1764.6,159.854 3152.76,159.854 "/>
<polyline clip-path="url(#clip340)" style="stroke:#000000; stroke-linecap:round; stroke-linejoin:round; stroke-width:4; stroke-opacity:1; fill:none" points="1764.6,716.048 1764.6,47.2441 "/>
<polyline clip-path="url(#clip340)" style="stroke:#000000; stroke-linecap:round; stroke-linejoin:round; stroke-width:4; stroke-opacity:1; fill:none" points="1764.6,638.301 1783.5,638.301 "/>
<polyline clip-path="url(#clip340)" style="stroke:#000000; stroke-linecap:round; stroke-linejoin:round; stroke-width:4; stroke-opacity:1; fill:none" points="1764.6,478.818 1783.5,478.818 "/>
<polyline clip-path="url(#clip340)" style="stroke:#000000; stroke-linecap:round; stroke-linejoin:round; stroke-width:4; stroke-opacity:1; fill:none" points="1764.6,319.336 1783.5,319.336 "/>
<polyline clip-path="url(#clip340)" style="stroke:#000000; stroke-linecap:round; stroke-linejoin:round; stroke-width:4; stroke-opacity:1; fill:none" points="1764.6,159.854 1783.5,159.854 "/>
<path clip-path="url(#clip340)" d="M1661.02 624.099 Q1657.41 624.099 1655.58 627.664 Q1653.77 631.206 1653.77 638.335 Q1653.77 645.442 1655.58 649.007 Q1657.41 652.548 1661.02 652.548 Q1664.65 652.548 1666.46 649.007 Q1668.29 645.442 1668.29 638.335 Q1668.29 631.206 1666.46 627.664 Q1664.65 624.099 1661.02 624.099 M1661.02 620.396 Q1666.83 620.396 1669.89 625.002 Q1672.96 629.585 1672.96 638.335 Q1672.96 647.062 1669.89 651.669 Q1666.83 656.252 1661.02 656.252 Q1655.21 656.252 1652.13 651.669 Q1649.08 647.062 1649.08 638.335 Q1649.08 629.585 1652.13 625.002 Q1655.21 620.396 1661.02 620.396 Z" fill="#000000" fill-rule="nonzero" fill-opacity="1" /><path clip-path="url(#clip340)" d="M1681.18 649.701 L1686.07 649.701 L1686.07 655.581 L1681.18 655.581 L1681.18 649.701 Z" fill="#000000" fill-rule="nonzero" fill-opacity="1" /><path clip-path="url(#clip340)" d="M1700.28 651.646 L1716.6 651.646 L1716.6 655.581 L1694.65 655.581 L1694.65 651.646 Q1697.32 648.891 1701.9 644.261 Q1706.51 639.609 1707.69 638.266 Q1709.93 635.743 1710.81 634.007 Q1711.71 632.247 1711.71 630.558 Q1711.71 627.803 1709.77 626.067 Q1707.85 624.331 1704.75 624.331 Q1702.55 624.331 1700.09 625.095 Q1697.66 625.859 1694.89 627.41 L1694.89 622.687 Q1697.71 621.553 1700.16 620.974 Q1702.62 620.396 1704.65 620.396 Q1710.02 620.396 1713.22 623.081 Q1716.41 625.766 1716.41 630.257 Q1716.41 632.386 1715.6 634.308 Q1714.82 636.206 1712.71 638.798 Q1712.13 639.47 1709.03 642.687 Q1705.93 645.882 1700.28 651.646 Z" fill="#000000" fill-rule="nonzero" fill-opacity="1" /><path clip-path="url(#clip340)" d="M1658.94 464.617 Q1655.33 464.617 1653.5 468.182 Q1651.69 471.723 1651.69 478.853 Q1651.69 485.959 1653.5 489.524 Q1655.33 493.066 1658.94 493.066 Q1662.57 493.066 1664.38 489.524 Q1666.2 485.959 1666.2 478.853 Q1666.2 471.723 1664.38 468.182 Q1662.57 464.617 1658.94 464.617 M1658.94 460.913 Q1664.75 460.913 1667.8 465.52 Q1670.88 470.103 1670.88 478.853 Q1670.88 487.58 1667.8 492.186 Q1664.75 496.77 1658.94 496.77 Q1653.13 496.77 1650.05 492.186 Q1646.99 487.58 1646.99 478.853 Q1646.99 470.103 1650.05 465.52 Q1653.13 460.913 1658.94 460.913 Z" fill="#000000" fill-rule="nonzero" fill-opacity="1" /><path clip-path="url(#clip340)" d="M1679.1 490.219 L1683.98 490.219 L1683.98 496.098 L1679.1 496.098 L1679.1 490.219 Z" fill="#000000" fill-rule="nonzero" fill-opacity="1" /><path clip-path="url(#clip340)" d="M1707.01 465.612 L1695.21 484.061 L1707.01 484.061 L1707.01 465.612 M1705.79 461.538 L1711.67 461.538 L1711.67 484.061 L1716.6 484.061 L1716.6 487.95 L1711.67 487.95 L1711.67 496.098 L1707.01 496.098 L1707.01 487.95 L1691.41 487.95 L1691.41 483.436 L1705.79 461.538 Z" fill="#000000" fill-rule="nonzero" fill-opacity="1" /><path clip-path="url(#clip340)" d="M1659.26 305.135 Q1655.65 305.135 1653.82 308.699 Q1652.02 312.241 1652.02 319.371 Q1652.02 326.477 1653.82 330.042 Q1655.65 333.584 1659.26 333.584 Q1662.89 333.584 1664.7 330.042 Q1666.53 326.477 1666.53 319.371 Q1666.53 312.241 1664.7 308.699 Q1662.89 305.135 1659.26 305.135 M1659.26 301.431 Q1665.07 301.431 1668.13 306.037 Q1671.2 310.621 1671.2 319.371 Q1671.2 328.097 1668.13 332.704 Q1665.07 337.287 1659.26 337.287 Q1653.45 337.287 1650.37 332.704 Q1647.32 328.097 1647.32 319.371 Q1647.32 310.621 1650.37 306.037 Q1653.45 301.431 1659.26 301.431 Z" fill="#000000" fill-rule="nonzero" fill-opacity="1" /><path clip-path="url(#clip340)" d="M1679.42 330.736 L1684.31 330.736 L1684.31 336.616 L1679.42 336.616 L1679.42 330.736 Z" fill="#000000" fill-rule="nonzero" fill-opacity="1" /><path clip-path="url(#clip340)" d="M1705.07 317.473 Q1701.92 317.473 1700.07 319.625 Q1698.24 321.778 1698.24 325.528 Q1698.24 329.255 1700.07 331.431 Q1701.92 333.584 1705.07 333.584 Q1708.22 333.584 1710.05 331.431 Q1711.9 329.255 1711.9 325.528 Q1711.9 321.778 1710.05 319.625 Q1708.22 317.473 1705.07 317.473 M1714.35 302.82 L1714.35 307.079 Q1712.59 306.246 1710.79 305.806 Q1709.01 305.366 1707.25 305.366 Q1702.62 305.366 1700.16 308.491 Q1697.73 311.616 1697.39 317.935 Q1698.75 315.922 1700.81 314.857 Q1702.87 313.769 1705.35 313.769 Q1710.56 313.769 1713.57 316.94 Q1716.6 320.088 1716.6 325.528 Q1716.6 330.852 1713.45 334.07 Q1710.3 337.287 1705.07 337.287 Q1699.08 337.287 1695.9 332.704 Q1692.73 328.097 1692.73 319.371 Q1692.73 311.176 1696.62 306.315 Q1700.51 301.431 1707.06 301.431 Q1708.82 301.431 1710.6 301.778 Q1712.41 302.125 1714.35 302.82 Z" fill="#000000" fill-rule="nonzero" fill-opacity="1" /><path clip-path="url(#clip340)" d="M1659.52 145.652 Q1655.9 145.652 1654.08 149.217 Q1652.27 152.759 1652.27 159.888 Q1652.27 166.995 1654.08 170.559 Q1655.9 174.101 1659.52 174.101 Q1663.15 174.101 1664.95 170.559 Q1666.78 166.995 1666.78 159.888 Q1666.78 152.759 1664.95 149.217 Q1663.15 145.652 1659.52 145.652 M1659.52 141.949 Q1665.33 141.949 1668.38 146.555 Q1671.46 151.138 1671.46 159.888 Q1671.46 168.615 1668.38 173.222 Q1665.33 177.805 1659.52 177.805 Q1653.71 177.805 1650.63 173.222 Q1647.57 168.615 1647.57 159.888 Q1647.57 151.138 1650.63 146.555 Q1653.71 141.949 1659.52 141.949 Z" fill="#000000" fill-rule="nonzero" fill-opacity="1" /><path clip-path="url(#clip340)" d="M1679.68 171.254 L1684.56 171.254 L1684.56 177.134 L1679.68 177.134 L1679.68 171.254 Z" fill="#000000" fill-rule="nonzero" fill-opacity="1" /><path clip-path="url(#clip340)" d="M1704.75 160.722 Q1701.41 160.722 1699.49 162.504 Q1697.59 164.286 1697.59 167.411 Q1697.59 170.536 1699.49 172.319 Q1701.41 174.101 1704.75 174.101 Q1708.08 174.101 1710 172.319 Q1711.92 170.513 1711.92 167.411 Q1711.92 164.286 1710 162.504 Q1708.1 160.722 1704.75 160.722 M1700.07 158.731 Q1697.06 157.99 1695.37 155.93 Q1693.7 153.87 1693.7 150.907 Q1693.7 146.763 1696.64 144.356 Q1699.61 141.949 1704.75 141.949 Q1709.91 141.949 1712.85 144.356 Q1715.79 146.763 1715.79 150.907 Q1715.79 153.87 1714.1 155.93 Q1712.43 157.99 1709.45 158.731 Q1712.83 159.518 1714.7 161.81 Q1716.6 164.101 1716.6 167.411 Q1716.6 172.434 1713.52 175.12 Q1710.46 177.805 1704.75 177.805 Q1699.03 177.805 1695.95 175.12 Q1692.89 172.434 1692.89 167.411 Q1692.89 164.101 1694.79 161.81 Q1696.69 159.518 1700.07 158.731 M1698.36 151.347 Q1698.36 154.032 1700.02 155.536 Q1701.71 157.041 1704.75 157.041 Q1707.76 157.041 1709.45 155.536 Q1711.16 154.032 1711.16 151.347 Q1711.16 148.661 1709.45 147.157 Q1707.76 145.652 1704.75 145.652 Q1701.71 145.652 1700.02 147.157 Q1698.36 148.661 1698.36 151.347 Z" fill="#000000" fill-rule="nonzero" fill-opacity="1" /><circle clip-path="url(#clip343)" cx="1803.89" cy="132.53" r="14.4" fill="#009af9" fill-rule="evenodd" fill-opacity="1" stroke="#000000" stroke-opacity="1" stroke-width="1.6"/>
<circle clip-path="url(#clip343)" cx="1949.39" cy="606.662" r="14.4" fill="#009af9" fill-rule="evenodd" fill-opacity="1" stroke="#000000" stroke-opacity="1" stroke-width="1.6"/>
<circle clip-path="url(#clip343)" cx="2094.9" cy="66.1725" r="14.4" fill="#009af9" fill-rule="evenodd" fill-opacity="1" stroke="#000000" stroke-opacity="1" stroke-width="1.6"/>
<circle clip-path="url(#clip343)" cx="2240.41" cy="114.399" r="14.4" fill="#009af9" fill-rule="evenodd" fill-opacity="1" stroke="#000000" stroke-opacity="1" stroke-width="1.6"/>
<circle clip-path="url(#clip343)" cx="2385.92" cy="561.999" r="14.4" fill="#009af9" fill-rule="evenodd" fill-opacity="1" stroke="#000000" stroke-opacity="1" stroke-width="1.6"/>
<circle clip-path="url(#clip343)" cx="2531.43" cy="201.994" r="14.4" fill="#009af9" fill-rule="evenodd" fill-opacity="1" stroke="#000000" stroke-opacity="1" stroke-width="1.6"/>
<circle clip-path="url(#clip343)" cx="2676.94" cy="395.1" r="14.4" fill="#009af9" fill-rule="evenodd" fill-opacity="1" stroke="#000000" stroke-opacity="1" stroke-width="1.6"/>
<circle clip-path="url(#clip343)" cx="2822.45" cy="269.873" r="14.4" fill="#009af9" fill-rule="evenodd" fill-opacity="1" stroke="#000000" stroke-opacity="1" stroke-width="1.6"/>
<circle clip-path="url(#clip343)" cx="2967.96" cy="575.161" r="14.4" fill="#009af9" fill-rule="evenodd" fill-opacity="1" stroke="#000000" stroke-opacity="1" stroke-width="1.6"/>
<circle clip-path="url(#clip343)" cx="3113.47" cy="697.119" r="14.4" fill="#009af9" fill-rule="evenodd" fill-opacity="1" stroke="#000000" stroke-opacity="1" stroke-width="1.6"/>
<path clip-path="url(#clip340)" d="M2915.24 173.218 L3106.48 173.218 L3106.48 69.5376 L2915.24 69.5376  Z" fill="#ffffff" fill-rule="evenodd" fill-opacity="1"/>
<polyline clip-path="url(#clip340)" style="stroke:#000000; stroke-linecap:round; stroke-linejoin:round; stroke-width:4; stroke-opacity:1; fill:none" points="2915.24,173.218 3106.48,173.218 3106.48,69.5376 2915.24,69.5376 2915.24,173.218 "/>
<circle clip-path="url(#clip340)" cx="2976.93" cy="121.378" r="20.48" fill="#009af9" fill-rule="evenodd" fill-opacity="1" stroke="#000000" stroke-opacity="1" stroke-width="2.27556"/>
<path clip-path="url(#clip340)" d="M3052.47 141.065 Q3050.67 145.695 3048.95 147.107 Q3047.24 148.519 3044.37 148.519 L3040.97 148.519 L3040.97 144.954 L3043.47 144.954 Q3045.23 144.954 3046.2 144.12 Q3047.17 143.287 3048.35 140.185 L3049.12 138.241 L3038.63 112.732 L3043.14 112.732 L3051.25 133.009 L3059.35 112.732 L3063.86 112.732 L3052.47 141.065 Z" fill="#000000" fill-rule="nonzero" fill-opacity="1" /><path clip-path="url(#clip340)" d="M3071.15 134.722 L3078.79 134.722 L3078.79 108.357 L3070.48 110.023 L3070.48 105.764 L3078.75 104.098 L3083.42 104.098 L3083.42 134.722 L3091.06 134.722 L3091.06 138.658 L3071.15 138.658 L3071.15 134.722 Z" fill="#000000" fill-rule="nonzero" fill-opacity="1" /></svg>
