<?xml version="1.0" encoding="utf-8"?>
<svg xmlns="http://www.w3.org/2000/svg" xmlns:xlink="http://www.w3.org/1999/xlink" width="600" height="400" viewBox="0 0 2400 1600">
<defs>
  <clipPath id="clip410">
    <rect x="0" y="0" width="2400" height="1600"/>
  </clipPath>
</defs>
<path clip-path="url(#clip410)" d="M0 1600 L2400 1600 L2400 0 L0 0  Z" fill="#ffffff" fill-rule="evenodd" fill-opacity="1"/>
<defs>
  <clipPath id="clip411">
    <rect x="480" y="0" width="1681" height="1600"/>
  </clipPath>
</defs>
<path clip-path="url(#clip410)" d="M247.459 356.513 L2352.76 356.513 L2352.76 123.472 L247.459 123.472  Z" fill="#ffffff" fill-rule="evenodd" fill-opacity="1"/>
<defs>
  <clipPath id="clip412">
    <rect x="247" y="123" width="2106" height="234"/>
  </clipPath>
</defs>
<polyline clip-path="url(#clip412)" style="stroke:#000000; stroke-linecap:round; stroke-linejoin:round; stroke-width:2; stroke-opacity:0.1; fill:none" points="349.022,356.513 349.022,123.472 "/>
<polyline clip-path="url(#clip412)" style="stroke:#000000; stroke-linecap:round; stroke-linejoin:round; stroke-width:2; stroke-opacity:0.1; fill:none" points="751.643,356.513 751.643,123.472 "/>
<polyline clip-path="url(#clip412)" style="stroke:#000000; stroke-linecap:round; stroke-linejoin:round; stroke-width:2; stroke-opacity:0.1; fill:none" points="1154.26,356.513 1154.26,123.472 "/>
<polyline clip-path="url(#clip412)" style="stroke:#000000; stroke-linecap:round; stroke-linejoin:round; stroke-width:2; stroke-opacity:0.1; fill:none" points="1556.89,356.513 1556.89,123.472 "/>
<polyline clip-path="url(#clip412)" style="stroke:#000000; stroke-linecap:round; stroke-linejoin:round; stroke-width:2; stroke-opacity:0.1; fill:none" points="1959.51,356.513 1959.51,123.472 "/>
<polyline clip-path="url(#clip410)" style="stroke:#000000; stroke-linecap:round; stroke-linejoin:round; stroke-width:4; stroke-opacity:1; fill:none" points="247.459,356.513 2352.76,356.513 "/>
<polyline clip-path="url(#clip410)" style="stroke:#000000; stroke-linecap:round; stroke-linejoin:round; stroke-width:4; stroke-opacity:1; fill:none" points="349.022,356.513 349.022,337.616 "/>
<polyline clip-path="url(#clip410)" style="stroke:#000000; stroke-linecap:round; stroke-linejoin:round; stroke-width:4; stroke-opacity:1; fill:none" points="751.643,356.513 751.643,337.616 "/>
<polyline clip-path="url(#clip410)" style="stroke:#000000; stroke-linecap:round; stroke-linejoin:round; stroke-width:4; stroke-opacity:1; fill:none" points="1154.26,356.513 1154.26,337.616 "/>
<polyline clip-path="url(#clip410)" style="stroke:#000000; stroke-linecap:round; stroke-linejoin:round; stroke-width:4; stroke-opacity:1; fill:none" points="1556.89,356.513 1556.89,337.616 "/>
<polyline clip-path="url(#clip410)" style="stroke:#000000; stroke-linecap:round; stroke-linejoin:round; stroke-width:4; stroke-opacity:1; fill:none" points="1959.51,356.513 1959.51,337.616 "/>
<path clip-path="url(#clip410)" d="M316.175 414.978 L323.814 414.978 L323.814 388.612 L315.504 390.279 L315.504 386.02 L323.767 384.353 L328.443 384.353 L328.443 414.978 L336.082 414.978 L336.082 418.913 L316.175 418.913 L316.175 414.978 Z" fill="#000000" fill-rule="nonzero" fill-opacity="1" /><path clip-path="url(#clip410)" d="M345.527 413.034 L350.411 413.034 L350.411 418.913 L345.527 418.913 L345.527 413.034 Z" fill="#000000" fill-rule="nonzero" fill-opacity="1" /><path clip-path="url(#clip410)" d="M370.596 387.432 Q366.985 387.432 365.156 390.997 Q363.351 394.538 363.351 401.668 Q363.351 408.774 365.156 412.339 Q366.985 415.881 370.596 415.881 Q374.23 415.881 376.036 412.339 Q377.864 408.774 377.864 401.668 Q377.864 394.538 376.036 390.997 Q374.23 387.432 370.596 387.432 M370.596 383.728 Q376.406 383.728 379.462 388.335 Q382.54 392.918 382.54 401.668 Q382.54 410.395 379.462 415.001 Q376.406 419.584 370.596 419.584 Q364.786 419.584 361.707 415.001 Q358.652 410.395 358.652 401.668 Q358.652 392.918 361.707 388.335 Q364.786 383.728 370.596 383.728 Z" fill="#000000" fill-rule="nonzero" fill-opacity="1" /><path clip-path="url(#clip410)" d="M719.409 414.978 L727.048 414.978 L727.048 388.612 L718.738 390.279 L718.738 386.02 L727.002 384.353 L731.678 384.353 L731.678 414.978 L739.317 414.978 L739.317 418.913 L719.409 418.913 L719.409 414.978 Z" fill="#000000" fill-rule="nonzero" fill-opacity="1" /><path clip-path="url(#clip410)" d="M748.761 413.034 L753.645 413.034 L753.645 418.913 L748.761 418.913 L748.761 413.034 Z" fill="#000000" fill-rule="nonzero" fill-opacity="1" /><path clip-path="url(#clip410)" d="M764.641 414.978 L772.28 414.978 L772.28 388.612 L763.969 390.279 L763.969 386.02 L772.233 384.353 L776.909 384.353 L776.909 414.978 L784.548 414.978 L784.548 418.913 L764.641 418.913 L764.641 414.978 Z" fill="#000000" fill-rule="nonzero" fill-opacity="1" /><path clip-path="url(#clip410)" d="M1122.22 414.978 L1129.85 414.978 L1129.85 388.612 L1121.54 390.279 L1121.54 386.02 L1129.81 384.353 L1134.48 384.353 L1134.48 414.978 L1142.12 414.978 L1142.12 418.913 L1122.22 418.913 L1122.22 414.978 Z" fill="#000000" fill-rule="nonzero" fill-opacity="1" /><path clip-path="url(#clip410)" d="M1151.57 413.034 L1156.45 413.034 L1156.45 418.913 L1151.57 418.913 L1151.57 413.034 Z" fill="#000000" fill-rule="nonzero" fill-opacity="1" /><path clip-path="url(#clip410)" d="M1170.66 414.978 L1186.98 414.978 L1186.98 418.913 L1165.04 418.913 L1165.04 414.978 Q1167.7 412.223 1172.28 407.594 Q1176.89 402.941 1178.07 401.598 Q1180.32 399.075 1181.2 397.339 Q1182.1 395.58 1182.1 393.89 Q1182.1 391.136 1180.16 389.399 Q1178.23 387.663 1175.13 387.663 Q1172.93 387.663 1170.48 388.427 Q1168.05 389.191 1165.27 390.742 L1165.27 386.02 Q1168.1 384.886 1170.55 384.307 Q1173 383.728 1175.04 383.728 Q1180.41 383.728 1183.6 386.413 Q1186.8 389.099 1186.8 393.589 Q1186.8 395.719 1185.99 397.64 Q1185.2 399.538 1183.1 402.131 Q1182.52 402.802 1179.41 406.02 Q1176.31 409.214 1170.66 414.978 Z" fill="#000000" fill-rule="nonzero" fill-opacity="1" /><path clip-path="url(#clip410)" d="M1524.36 414.978 L1532 414.978 L1532 388.612 L1523.69 390.279 L1523.69 386.02 L1531.95 384.353 L1536.63 384.353 L1536.63 414.978 L1544.27 414.978 L1544.27 418.913 L1524.36 418.913 L1524.36 414.978 Z" fill="#000000" fill-rule="nonzero" fill-opacity="1" /><path clip-path="url(#clip410)" d="M1553.71 413.034 L1558.6 413.034 L1558.6 418.913 L1553.71 418.913 L1553.71 413.034 Z" fill="#000000" fill-rule="nonzero" fill-opacity="1" /><path clip-path="url(#clip410)" d="M1582.95 400.279 Q1586.31 400.997 1588.18 403.265 Q1590.08 405.534 1590.08 408.867 Q1590.08 413.983 1586.56 416.784 Q1583.04 419.584 1576.56 419.584 Q1574.39 419.584 1572.07 419.145 Q1569.78 418.728 1567.32 417.872 L1567.32 413.358 Q1569.27 414.492 1571.58 415.071 Q1573.9 415.649 1576.42 415.649 Q1580.82 415.649 1583.11 413.913 Q1585.43 412.177 1585.43 408.867 Q1585.43 405.811 1583.27 404.098 Q1581.14 402.362 1577.32 402.362 L1573.3 402.362 L1573.3 398.52 L1577.51 398.52 Q1580.96 398.52 1582.79 397.154 Q1584.62 395.765 1584.62 393.173 Q1584.62 390.511 1582.72 389.099 Q1580.84 387.663 1577.32 387.663 Q1575.4 387.663 1573.2 388.08 Q1571.01 388.497 1568.37 389.376 L1568.37 385.21 Q1571.03 384.469 1573.34 384.099 Q1575.68 383.728 1577.74 383.728 Q1583.07 383.728 1586.17 386.159 Q1589.27 388.566 1589.27 392.686 Q1589.27 395.557 1587.63 397.548 Q1585.98 399.515 1582.95 400.279 Z" fill="#000000" fill-rule="nonzero" fill-opacity="1" /><path clip-path="url(#clip410)" d="M1926.42 414.978 L1934.06 414.978 L1934.06 388.612 L1925.74 390.279 L1925.74 386.02 L1934.01 384.353 L1938.68 384.353 L1938.68 414.978 L1946.32 414.978 L1946.32 418.913 L1926.42 418.913 L1926.42 414.978 Z" fill="#000000" fill-rule="nonzero" fill-opacity="1" /><path clip-path="url(#clip410)" d="M1955.77 413.034 L1960.65 413.034 L1960.65 418.913 L1955.77 418.913 L1955.77 413.034 Z" fill="#000000" fill-rule="nonzero" fill-opacity="1" /><path clip-path="url(#clip410)" d="M1983.68 388.427 L1971.88 406.876 L1983.68 406.876 L1983.68 388.427 M1982.46 384.353 L1988.34 384.353 L1988.34 406.876 L1993.27 406.876 L1993.27 410.765 L1988.34 410.765 L1988.34 418.913 L1983.68 418.913 L1983.68 410.765 L1968.08 410.765 L1968.08 406.251 L1982.46 384.353 Z" fill="#000000" fill-rule="nonzero" fill-opacity="1" /><path clip-path="url(#clip410)" d="M1112.99 455.417 L1112.99 461.687 Q1109.33 459.936 1106.08 459.077 Q1102.83 458.218 1099.81 458.218 Q1094.56 458.218 1091.69 460.255 Q1088.86 462.292 1088.86 466.048 Q1088.86 469.199 1090.74 470.822 Q1092.65 472.413 1097.93 473.4 L1101.82 474.196 Q1109.01 475.564 1112.41 479.034 Q1115.85 482.471 1115.85 488.264 Q1115.85 495.171 1111.2 498.735 Q1106.59 502.3 1097.65 502.3 Q1094.27 502.3 1090.45 501.536 Q1086.67 500.772 1082.59 499.276 L1082.59 492.656 Q1086.51 494.852 1090.26 495.966 Q1094.02 497.08 1097.65 497.08 Q1103.15 497.08 1106.14 494.916 Q1109.14 492.752 1109.14 488.741 Q1109.14 485.24 1106.97 483.267 Q1104.84 481.293 1099.94 480.307 L1096.02 479.543 Q1088.83 478.111 1085.61 475.055 Q1082.4 471.999 1082.4 466.557 Q1082.4 460.255 1086.82 456.626 Q1091.28 452.998 1099.08 452.998 Q1102.42 452.998 1105.89 453.603 Q1109.36 454.207 1112.99 455.417 Z" fill="#000000" fill-rule="nonzero" fill-opacity="1" /><path clip-path="url(#clip410)" d="M1141.82 483.458 Q1134.73 483.458 1131.99 485.081 Q1129.25 486.704 1129.25 490.619 Q1129.25 493.738 1131.29 495.584 Q1133.36 497.399 1136.89 497.399 Q1141.76 497.399 1144.69 493.961 Q1147.65 490.492 1147.65 484.763 L1147.65 483.458 L1141.82 483.458 M1153.51 481.039 L1153.51 501.377 L1147.65 501.377 L1147.65 495.966 Q1145.64 499.213 1142.65 500.772 Q1139.66 502.3 1135.33 502.3 Q1129.86 502.3 1126.61 499.245 Q1123.4 496.157 1123.4 491.001 Q1123.4 484.985 1127.41 481.93 Q1131.45 478.874 1139.44 478.874 L1147.65 478.874 L1147.65 478.301 Q1147.65 474.259 1144.98 472.063 Q1142.33 469.835 1137.53 469.835 Q1134.47 469.835 1131.58 470.567 Q1128.68 471.299 1126.01 472.763 L1126.01 467.352 Q1129.22 466.111 1132.24 465.506 Q1135.27 464.87 1138.13 464.87 Q1145.87 464.87 1149.69 468.88 Q1153.51 472.891 1153.51 481.039 Z" fill="#000000" fill-rule="nonzero" fill-opacity="1" /><path clip-path="url(#clip410)" d="M1193.32 472.572 Q1195.52 468.626 1198.57 466.748 Q1201.63 464.87 1205.77 464.87 Q1211.34 464.87 1214.36 468.785 Q1217.38 472.668 1217.38 479.861 L1217.38 501.377 L1211.5 501.377 L1211.5 480.052 Q1211.5 474.928 1209.68 472.445 Q1207.87 469.962 1204.14 469.962 Q1199.59 469.962 1196.95 472.986 Q1194.31 476.01 1194.31 481.23 L1194.31 501.377 L1188.42 501.377 L1188.42 480.052 Q1188.42 474.896 1186.61 472.445 Q1184.79 469.962 1181 469.962 Q1176.52 469.962 1173.88 473.018 Q1171.23 476.042 1171.23 481.23 L1171.23 501.377 L1165.35 501.377 L1165.35 465.729 L1171.23 465.729 L1171.23 471.267 Q1173.24 467.989 1176.04 466.429 Q1178.84 464.87 1182.69 464.87 Q1186.57 464.87 1189.28 466.843 Q1192.02 468.817 1193.32 472.572 Z" fill="#000000" fill-rule="nonzero" fill-opacity="1" /><path clip-path="url(#clip410)" d="M1234.73 496.03 L1234.73 514.936 L1228.84 514.936 L1228.84 465.729 L1234.73 465.729 L1234.73 471.14 Q1236.58 467.957 1239.38 466.429 Q1242.21 464.87 1246.13 464.87 Q1252.62 464.87 1256.66 470.026 Q1260.74 475.182 1260.74 483.585 Q1260.74 491.988 1256.66 497.144 Q1252.62 502.3 1246.13 502.3 Q1242.21 502.3 1239.38 500.772 Q1236.58 499.213 1234.73 496.03 M1254.66 483.585 Q1254.66 477.124 1251.98 473.464 Q1249.34 469.771 1244.69 469.771 Q1240.05 469.771 1237.37 473.464 Q1234.73 477.124 1234.73 483.585 Q1234.73 490.046 1237.37 493.738 Q1240.05 497.399 1244.69 497.399 Q1249.34 497.399 1251.98 493.738 Q1254.66 490.046 1254.66 483.585 Z" fill="#000000" fill-rule="nonzero" fill-opacity="1" /><path clip-path="url(#clip410)" d="M1270.44 451.852 L1276.3 451.852 L1276.3 501.377 L1270.44 501.377 L1270.44 451.852 Z" fill="#000000" fill-rule="nonzero" fill-opacity="1" /><path clip-path="url(#clip410)" d="M1319.05 482.089 L1319.05 484.954 L1292.12 484.954 Q1292.5 491.001 1295.75 494.184 Q1299.03 497.335 1304.85 497.335 Q1308.22 497.335 1311.37 496.507 Q1314.56 495.68 1317.68 494.025 L1317.68 499.563 Q1314.53 500.9 1311.22 501.6 Q1307.91 502.3 1304.5 502.3 Q1295.97 502.3 1290.97 497.335 Q1286.01 492.37 1286.01 483.903 Q1286.01 475.15 1290.72 470.026 Q1295.46 464.87 1303.48 464.87 Q1310.67 464.87 1314.84 469.517 Q1319.05 474.132 1319.05 482.089 M1313.19 480.37 Q1313.13 475.564 1310.48 472.7 Q1307.87 469.835 1303.54 469.835 Q1298.64 469.835 1295.68 472.604 Q1292.75 475.373 1292.31 480.402 L1313.19 480.37 Z" fill="#000000" fill-rule="nonzero" fill-opacity="1" /><path clip-path="url(#clip410)" d="M1345.18 465.729 L1351.38 465.729 L1362.52 495.648 L1373.66 465.729 L1379.87 465.729 L1366.5 501.377 L1358.54 501.377 L1345.18 465.729 Z" fill="#000000" fill-rule="nonzero" fill-opacity="1" /><path clip-path="url(#clip410)" d="M1404.15 483.458 Q1397.06 483.458 1394.32 485.081 Q1391.58 486.704 1391.58 490.619 Q1391.58 493.738 1393.62 495.584 Q1395.69 497.399 1399.22 497.399 Q1404.09 497.399 1407.02 493.961 Q1409.98 490.492 1409.98 484.763 L1409.98 483.458 L1404.15 483.458 M1415.84 481.039 L1415.84 501.377 L1409.98 501.377 L1409.98 495.966 Q1407.97 499.213 1404.98 500.772 Q1401.99 502.3 1397.66 502.3 Q1392.19 502.3 1388.94 499.245 Q1385.73 496.157 1385.73 491.001 Q1385.73 484.985 1389.74 481.93 Q1393.78 478.874 1401.77 478.874 L1409.98 478.874 L1409.98 478.301 Q1409.98 474.259 1407.31 472.063 Q1404.66 469.835 1399.86 469.835 Q1396.8 469.835 1393.91 470.567 Q1391.01 471.299 1388.34 472.763 L1388.34 467.352 Q1391.55 466.111 1394.57 465.506 Q1397.6 464.87 1400.46 464.87 Q1408.2 464.87 1412.02 468.88 Q1415.84 472.891 1415.84 481.039 Z" fill="#000000" fill-rule="nonzero" fill-opacity="1" /><path clip-path="url(#clip410)" d="M1427.9 451.852 L1433.76 451.852 L1433.76 501.377 L1427.9 501.377 L1427.9 451.852 Z" fill="#000000" fill-rule="nonzero" fill-opacity="1" /><path clip-path="url(#clip410)" d="M1445.4 487.309 L1445.4 465.729 L1451.26 465.729 L1451.26 487.086 Q1451.26 492.147 1453.23 494.693 Q1455.21 497.208 1459.15 497.208 Q1463.9 497.208 1466.63 494.184 Q1469.4 491.16 1469.4 485.94 L1469.4 465.729 L1475.26 465.729 L1475.26 501.377 L1469.4 501.377 L1469.4 495.903 Q1467.27 499.149 1464.44 500.741 Q1461.64 502.3 1457.91 502.3 Q1451.77 502.3 1448.59 498.481 Q1445.4 494.661 1445.4 487.309 M1460.14 464.87 L1460.14 464.87 Z" fill="#000000" fill-rule="nonzero" fill-opacity="1" /><path clip-path="url(#clip410)" d="M1517.81 482.089 L1517.81 484.954 L1490.89 484.954 Q1491.27 491.001 1494.52 494.184 Q1497.79 497.335 1503.62 497.335 Q1506.99 497.335 1510.14 496.507 Q1513.33 495.68 1516.45 494.025 L1516.45 499.563 Q1513.29 500.9 1509.98 501.6 Q1506.67 502.3 1503.27 502.3 Q1494.74 502.3 1489.74 497.335 Q1484.78 492.37 1484.78 483.903 Q1484.78 475.15 1489.49 470.026 Q1494.23 464.87 1502.25 464.87 Q1509.44 464.87 1513.61 469.517 Q1517.81 474.132 1517.81 482.089 M1511.96 480.37 Q1511.89 475.564 1509.25 472.7 Q1506.64 469.835 1502.31 469.835 Q1497.41 469.835 1494.45 472.604 Q1491.52 475.373 1491.08 480.402 L1511.96 480.37 Z" fill="#000000" fill-rule="nonzero" fill-opacity="1" /><polyline clip-path="url(#clip412)" style="stroke:#000000; stroke-linecap:round; stroke-linejoin:round; stroke-width:2; stroke-opacity:0.1; fill:none" points="247.459,351.168 2352.76,351.168 "/>
<polyline clip-path="url(#clip412)" style="stroke:#000000; stroke-linecap:round; stroke-linejoin:round; stroke-width:2; stroke-opacity:0.1; fill:none" points="247.459,287.314 2352.76,287.314 "/>
<polyline clip-path="url(#clip412)" style="stroke:#000000; stroke-linecap:round; stroke-linejoin:round; stroke-width:2; stroke-opacity:0.1; fill:none" points="247.459,223.46 2352.76,223.46 "/>
<polyline clip-path="url(#clip412)" style="stroke:#000000; stroke-linecap:round; stroke-linejoin:round; stroke-width:2; stroke-opacity:0.1; fill:none" points="247.459,159.605 2352.76,159.605 "/>
<polyline clip-path="url(#clip410)" style="stroke:#000000; stroke-linecap:round; stroke-linejoin:round; stroke-width:4; stroke-opacity:1; fill:none" points="247.459,356.513 247.459,123.472 "/>
<polyline clip-path="url(#clip410)" style="stroke:#000000; stroke-linecap:round; stroke-linejoin:round; stroke-width:4; stroke-opacity:1; fill:none" points="247.459,351.168 266.356,351.168 "/>
<polyline clip-path="url(#clip410)" style="stroke:#000000; stroke-linecap:round; stroke-linejoin:round; stroke-width:4; stroke-opacity:1; fill:none" points="247.459,287.314 266.356,287.314 "/>
<polyline clip-path="url(#clip410)" style="stroke:#000000; stroke-linecap:round; stroke-linejoin:round; stroke-width:4; stroke-opacity:1; fill:none" points="247.459,223.46 266.356,223.46 "/>
<polyline clip-path="url(#clip410)" style="stroke:#000000; stroke-linecap:round; stroke-linejoin:round; stroke-width:4; stroke-opacity:1; fill:none" points="247.459,159.605 266.356,159.605 "/>
<path clip-path="url(#clip410)" d="M199.514 336.967 Q195.903 336.967 194.075 340.532 Q192.269 344.074 192.269 351.203 Q192.269 358.31 194.075 361.874 Q195.903 365.416 199.514 365.416 Q203.149 365.416 204.954 361.874 Q206.783 358.31 206.783 351.203 Q206.783 344.074 204.954 340.532 Q203.149 336.967 199.514 336.967 M199.514 333.263 Q205.324 333.263 208.38 337.87 Q211.459 342.453 211.459 351.203 Q211.459 359.93 208.38 364.536 Q205.324 369.12 199.514 369.12 Q193.704 369.12 190.625 364.536 Q187.57 359.93 187.57 351.203 Q187.57 342.453 190.625 337.87 Q193.704 333.263 199.514 333.263 Z" fill="#000000" fill-rule="nonzero" fill-opacity="1" /><path clip-path="url(#clip410)" d="M195.139 300.659 L211.459 300.659 L211.459 304.594 L189.514 304.594 L189.514 300.659 Q192.176 297.904 196.76 293.275 Q201.366 288.622 202.547 287.279 Q204.792 284.756 205.672 283.02 Q206.574 281.261 206.574 279.571 Q206.574 276.816 204.63 275.08 Q202.709 273.344 199.607 273.344 Q197.408 273.344 194.954 274.108 Q192.524 274.872 189.746 276.423 L189.746 271.701 Q192.57 270.566 195.024 269.988 Q197.477 269.409 199.514 269.409 Q204.885 269.409 208.079 272.094 Q211.274 274.779 211.274 279.27 Q211.274 281.4 210.463 283.321 Q209.676 285.219 207.57 287.812 Q206.991 288.483 203.889 291.701 Q200.787 294.895 195.139 300.659 Z" fill="#000000" fill-rule="nonzero" fill-opacity="1" /><path clip-path="url(#clip410)" d="M201.875 210.254 L190.07 228.703 L201.875 228.703 L201.875 210.254 M200.649 206.18 L206.528 206.18 L206.528 228.703 L211.459 228.703 L211.459 232.592 L206.528 232.592 L206.528 240.74 L201.875 240.74 L201.875 232.592 L186.274 232.592 L186.274 228.078 L200.649 206.18 Z" fill="#000000" fill-rule="nonzero" fill-opacity="1" /><path clip-path="url(#clip410)" d="M199.931 157.742 Q196.783 157.742 194.931 159.895 Q193.102 162.047 193.102 165.797 Q193.102 169.524 194.931 171.7 Q196.783 173.853 199.931 173.853 Q203.079 173.853 204.908 171.7 Q206.76 169.524 206.76 165.797 Q206.76 162.047 204.908 159.895 Q203.079 157.742 199.931 157.742 M209.213 143.089 L209.213 147.348 Q207.454 146.515 205.649 146.075 Q203.866 145.635 202.107 145.635 Q197.477 145.635 195.024 148.76 Q192.593 151.885 192.246 158.205 Q193.612 156.191 195.672 155.126 Q197.732 154.038 200.209 154.038 Q205.417 154.038 208.426 157.209 Q211.459 160.357 211.459 165.797 Q211.459 171.121 208.311 174.339 Q205.162 177.556 199.931 177.556 Q193.936 177.556 190.764 172.973 Q187.593 168.367 187.593 159.64 Q187.593 151.446 191.482 146.584 Q195.371 141.7 201.922 141.7 Q203.681 141.7 205.463 142.047 Q207.269 142.395 209.213 143.089 Z" fill="#000000" fill-rule="nonzero" fill-opacity="1" /><path clip-path="url(#clip410)" d="M93.7812 353.302 L130.734 353.302 L130.734 345.536 Q130.734 335.701 126.278 331.15 Q121.822 326.566 112.21 326.566 Q102.661 326.566 98.2372 331.15 Q93.7812 335.701 93.7812 345.536 L93.7812 353.302 M88.4977 359.732 L88.4977 346.523 Q88.4977 332.709 94.2586 326.248 Q99.9878 319.787 112.21 319.787 Q124.496 319.787 130.257 326.28 Q136.018 332.773 136.018 346.523 L136.018 359.732 L88.4977 359.732 Z" fill="#000000" fill-rule="nonzero" fill-opacity="1" /><path clip-path="url(#clip410)" d="M116.73 279.301 L119.594 279.301 L119.594 306.228 Q125.642 305.846 128.824 302.599 Q131.975 299.321 131.975 293.496 Q131.975 290.123 131.148 286.972 Q130.32 283.789 128.665 280.67 L134.203 280.67 Q135.54 283.821 136.24 287.131 Q136.941 290.441 136.941 293.847 Q136.941 302.377 131.975 307.374 Q127.01 312.339 118.544 312.339 Q109.791 312.339 104.667 307.628 Q99.5103 302.886 99.5103 294.865 Q99.5103 287.672 104.157 283.502 Q108.772 279.301 116.73 279.301 M115.011 285.157 Q110.205 285.221 107.34 287.863 Q104.476 290.473 104.476 294.801 Q104.476 299.703 107.245 302.663 Q110.014 305.591 115.043 306.037 L115.011 285.157 Z" fill="#000000" fill-rule="nonzero" fill-opacity="1" /><path clip-path="url(#clip410)" d="M114.502 240.056 L136.018 240.056 L136.018 245.913 L114.693 245.913 Q109.632 245.913 107.117 247.886 Q104.603 249.859 104.603 253.806 Q104.603 258.549 107.627 261.286 Q110.65 264.023 115.87 264.023 L136.018 264.023 L136.018 269.911 L100.37 269.911 L100.37 264.023 L105.908 264.023 Q102.693 261.923 101.102 259.09 Q99.5103 256.225 99.5103 252.501 Q99.5103 246.358 103.33 243.207 Q107.117 240.056 114.502 240.056 Z" fill="#000000" fill-rule="nonzero" fill-opacity="1" /><path clip-path="url(#clip410)" d="M101.42 205.65 L106.958 205.65 Q105.685 208.132 105.048 210.806 Q104.412 213.479 104.412 216.344 Q104.412 220.705 105.749 222.901 Q107.086 225.065 109.759 225.065 Q111.796 225.065 112.974 223.505 Q114.12 221.946 115.17 217.235 L115.616 215.23 Q116.952 208.992 119.403 206.382 Q121.822 203.74 126.183 203.74 Q131.148 203.74 134.044 207.687 Q136.941 211.602 136.941 218.477 Q136.941 221.341 136.368 224.46 Q135.827 227.548 134.713 230.985 L128.665 230.985 Q130.352 227.739 131.212 224.588 Q132.039 221.437 132.039 218.349 Q132.039 214.212 130.639 211.984 Q129.206 209.756 126.628 209.756 Q124.241 209.756 122.968 211.379 Q121.695 212.97 120.517 218.413 L120.04 220.45 Q118.894 225.893 116.539 228.312 Q114.151 230.731 110.014 230.731 Q104.985 230.731 102.248 227.166 Q99.5103 223.601 99.5103 217.044 Q99.5103 213.798 99.9878 210.933 Q100.465 208.069 101.42 205.65 Z" fill="#000000" fill-rule="nonzero" fill-opacity="1" /><path clip-path="url(#clip410)" d="M100.37 194.414 L100.37 188.558 L136.018 188.558 L136.018 194.414 L100.37 194.414 M86.4925 194.414 L86.4925 188.558 L93.9085 188.558 L93.9085 194.414 L86.4925 194.414 Z" fill="#000000" fill-rule="nonzero" fill-opacity="1" /><path clip-path="url(#clip410)" d="M90.2482 170.511 L100.37 170.511 L100.37 158.448 L104.921 158.448 L104.921 170.511 L124.273 170.511 Q128.633 170.511 129.875 169.333 Q131.116 168.124 131.116 164.464 L131.116 158.448 L136.018 158.448 L136.018 164.464 Q136.018 171.243 133.503 173.821 Q130.957 176.399 124.273 176.399 L104.921 176.399 L104.921 180.696 L100.37 180.696 L100.37 176.399 L90.2482 176.399 L90.2482 170.511 Z" fill="#000000" fill-rule="nonzero" fill-opacity="1" /><path clip-path="url(#clip410)" d="M139.328 135.913 Q145.694 138.396 147.635 140.751 Q149.577 143.107 149.577 147.053 L149.577 151.732 L144.675 151.732 L144.675 148.295 Q144.675 145.876 143.529 144.539 Q142.383 143.202 138.118 141.579 L135.445 140.528 L100.37 154.947 L100.37 148.74 L128.251 137.6 L100.37 126.46 L100.37 120.254 L139.328 135.913 Z" fill="#000000" fill-rule="nonzero" fill-opacity="1" /><path clip-path="url(#clip410)" d="M1288 69.7809 L1288 89.8329 L1280.5 89.8329 L1280.5 27.4894 Q1280.5 9.01731 1297.76 9.01731 Q1315.34 9.01731 1315.34 24.6133 Q1315.34 35.7128 1308.37 39.7637 Q1319.71 43.4095 1319.71 54.2254 Q1319.71 73.4267 1300.19 73.4267 Q1291.6 73.4267 1288 69.7809 M1288 60.0587 Q1292.49 67.0668 1300.47 67.0668 Q1312.14 67.0668 1312.14 54.3469 Q1312.14 42.9234 1293.34 43.8146 L1293.34 36.928 Q1308.05 36.928 1308.05 23.9651 Q1308.05 15.0937 1298.57 15.0937 Q1288 15.0937 1288 27.7325 L1288 60.0587 Z" fill="#000000" fill-rule="nonzero" fill-opacity="1" /><polyline clip-path="url(#clip412)" style="stroke:#009af9; stroke-linecap:round; stroke-linejoin:round; stroke-width:4; stroke-opacity:1; fill:none" points="307.043,348.987 319.227,348.838 331.412,348.765 343.597,348.77 355.782,348.848 367.967,348.983 380.152,349.156 392.336,349.346 404.521,349.529 416.706,349.689 428.891,349.81 441.076,349.885 453.261,349.914 465.446,349.901 477.63,349.851 489.815,349.767 502,349.651 514.185,349.496 526.37,349.295 538.555,349.039 550.739,348.722 562.924,348.343 575.109,347.908 587.294,347.425 599.479,346.901 611.664,346.341 623.849,345.739 636.033,345.084 648.218,344.355 660.403,343.528 672.588,342.58 684.773,341.489 696.958,340.245 709.142,338.851 721.327,337.324 733.512,335.701 745.697,334.03 757.882,332.368 770.067,330.766 782.251,329.263 794.436,327.87 806.621,326.572 818.806,325.327 830.991,324.071 843.176,322.729 855.361,321.224 867.545,319.479 879.73,317.425 891.915,315.005 904.1,312.176 916.285,308.916 928.47,305.229 940.654,301.145 952.839,296.723 965.024,292.038 977.209,287.177 989.394,282.224 1001.58,277.254 1013.76,272.324 1025.95,267.474 1038.13,262.724 1050.32,258.079 1062.5,253.528 1074.69,249.047 1086.87,244.6 1099.06,240.135 1111.24,235.588 1123.43,230.882 1135.61,225.927 1147.8,220.631 1159.98,214.903 1172.17,208.663 1184.35,201.858 1196.54,194.477 1208.72,186.569 1220.91,178.263 1233.09,169.769 1245.28,161.377 1257.46,153.428 1269.65,146.271 1281.83,140.219 1294.01,135.5 1306.2,132.241 1318.38,130.456 1330.57,130.068 1342.75,130.933 1354.94,132.874 1367.12,135.7 1379.31,139.219 1391.49,143.253 1403.68,147.64 1415.86,152.244 1428.05,156.967 1440.23,161.757 1452.42,166.599 1464.6,171.515 1476.79,176.536 1488.97,181.698 1501.16,187.019 1513.34,192.509 1525.53,198.162 1537.71,203.969 1549.9,209.918 1562.08,215.987 1574.27,222.143 1586.45,228.332 1598.64,234.478 1610.82,240.49 1623.01,246.28 1635.19,251.773 1647.38,256.922 1659.56,261.72 1671.75,266.192 1683.93,270.396 1696.11,274.407 1708.3,278.303 1720.48,282.153 1732.67,286.004 1744.85,289.871 1757.04,293.739 1769.22,297.57 1781.41,301.315 1793.59,304.932 1805.78,308.397 1817.96,311.71 1830.15,314.891 1842.33,317.963 1854.52,320.94 1866.7,323.816 1878.89,326.565 1891.07,329.146 1903.26,331.518 1915.44,333.652 1927.63,335.536 1939.81,337.181 1952,338.611 1964.18,339.859 1976.37,340.957 1988.55,341.93 2000.74,342.795 2012.92,343.562 2025.11,344.232 2037.29,344.809 2049.48,345.3 2061.66,345.72 2073.84,346.088 2086.03,346.433 2098.21,346.776 2110.4,347.134 2122.58,347.511 2134.77,347.897 2146.95,348.276 2159.14,348.624 2171.32,348.925 2183.51,349.166 2195.69,349.348 2207.88,349.477 2220.06,349.564 2232.25,349.624 2244.43,349.669 2256.62,349.711 2268.8,349.762 2280.99,349.829 2293.17,349.918 "/>
<polyline clip-path="url(#clip412)" style="stroke:#e26f46; stroke-linecap:round; stroke-linejoin:round; stroke-width:4; stroke-opacity:1; fill:none" points="1256.76,589.554 1256.76,-109.569 "/>
<path clip-path="url(#clip410)" d="M247.459 889.847 L2352.76 889.847 L2352.76 656.805 L247.459 656.805  Z" fill="#ffffff" fill-rule="evenodd" fill-opacity="1"/>
<defs>
  <clipPath id="clip413">
    <rect x="247" y="656" width="2106" height="234"/>
  </clipPath>
</defs>
<polyline clip-path="url(#clip413)" style="stroke:#000000; stroke-linecap:round; stroke-linejoin:round; stroke-width:2; stroke-opacity:0.1; fill:none" points="305.153,889.847 305.153,656.805 "/>
<polyline clip-path="url(#clip413)" style="stroke:#000000; stroke-linecap:round; stroke-linejoin:round; stroke-width:2; stroke-opacity:0.1; fill:none" points="884.914,889.847 884.914,656.805 "/>
<polyline clip-path="url(#clip413)" style="stroke:#000000; stroke-linecap:round; stroke-linejoin:round; stroke-width:2; stroke-opacity:0.1; fill:none" points="1464.67,889.847 1464.67,656.805 "/>
<polyline clip-path="url(#clip413)" style="stroke:#000000; stroke-linecap:round; stroke-linejoin:round; stroke-width:2; stroke-opacity:0.1; fill:none" points="2044.44,889.847 2044.44,656.805 "/>
<polyline clip-path="url(#clip410)" style="stroke:#000000; stroke-linecap:round; stroke-linejoin:round; stroke-width:4; stroke-opacity:1; fill:none" points="247.459,889.847 2352.76,889.847 "/>
<polyline clip-path="url(#clip410)" style="stroke:#000000; stroke-linecap:round; stroke-linejoin:round; stroke-width:4; stroke-opacity:1; fill:none" points="305.153,889.847 305.153,870.949 "/>
<polyline clip-path="url(#clip410)" style="stroke:#000000; stroke-linecap:round; stroke-linejoin:round; stroke-width:4; stroke-opacity:1; fill:none" points="884.914,889.847 884.914,870.949 "/>
<polyline clip-path="url(#clip410)" style="stroke:#000000; stroke-linecap:round; stroke-linejoin:round; stroke-width:4; stroke-opacity:1; fill:none" points="1464.67,889.847 1464.67,870.949 "/>
<polyline clip-path="url(#clip410)" style="stroke:#000000; stroke-linecap:round; stroke-linejoin:round; stroke-width:4; stroke-opacity:1; fill:none" points="2044.44,889.847 2044.44,870.949 "/>
<path clip-path="url(#clip410)" d="M283.151 920.765 Q279.54 920.765 277.711 924.33 Q275.906 927.872 275.906 935.001 Q275.906 942.108 277.711 945.672 Q279.54 949.214 283.151 949.214 Q286.785 949.214 288.591 945.672 Q290.42 942.108 290.42 935.001 Q290.42 927.872 288.591 924.33 Q286.785 920.765 283.151 920.765 M283.151 917.062 Q288.961 917.062 292.017 921.668 Q295.096 926.251 295.096 935.001 Q295.096 943.728 292.017 948.334 Q288.961 952.918 283.151 952.918 Q277.341 952.918 274.262 948.334 Q271.207 943.728 271.207 935.001 Q271.207 926.251 274.262 921.668 Q277.341 917.062 283.151 917.062 Z" fill="#000000" fill-rule="nonzero" fill-opacity="1" /><path clip-path="url(#clip410)" d="M303.313 946.367 L308.197 946.367 L308.197 952.247 L303.313 952.247 L303.313 946.367 Z" fill="#000000" fill-rule="nonzero" fill-opacity="1" /><path clip-path="url(#clip410)" d="M319.193 948.311 L326.832 948.311 L326.832 921.946 L318.521 923.612 L318.521 919.353 L326.785 917.687 L331.461 917.687 L331.461 948.311 L339.1 948.311 L339.1 952.247 L319.193 952.247 L319.193 948.311 Z" fill="#000000" fill-rule="nonzero" fill-opacity="1" /><path clip-path="url(#clip410)" d="M863.097 920.765 Q859.486 920.765 857.657 924.33 Q855.852 927.872 855.852 935.001 Q855.852 942.108 857.657 945.672 Q859.486 949.214 863.097 949.214 Q866.731 949.214 868.537 945.672 Q870.366 942.108 870.366 935.001 Q870.366 927.872 868.537 924.33 Q866.731 920.765 863.097 920.765 M863.097 917.062 Q868.907 917.062 871.963 921.668 Q875.042 926.251 875.042 935.001 Q875.042 943.728 871.963 948.334 Q868.907 952.918 863.097 952.918 Q857.287 952.918 854.208 948.334 Q851.153 943.728 851.153 935.001 Q851.153 926.251 854.208 921.668 Q857.287 917.062 863.097 917.062 Z" fill="#000000" fill-rule="nonzero" fill-opacity="1" /><path clip-path="url(#clip410)" d="M883.259 946.367 L888.143 946.367 L888.143 952.247 L883.259 952.247 L883.259 946.367 Z" fill="#000000" fill-rule="nonzero" fill-opacity="1" /><path clip-path="url(#clip410)" d="M902.356 948.311 L918.676 948.311 L918.676 952.247 L896.731 952.247 L896.731 948.311 Q899.393 945.557 903.977 940.927 Q908.583 936.274 909.764 934.932 Q912.009 932.409 912.889 930.673 Q913.791 928.913 913.791 927.223 Q913.791 924.469 911.847 922.733 Q909.926 920.997 906.824 920.997 Q904.625 920.997 902.171 921.761 Q899.74 922.524 896.963 924.075 L896.963 919.353 Q899.787 918.219 902.24 917.64 Q904.694 917.062 906.731 917.062 Q912.102 917.062 915.296 919.747 Q918.49 922.432 918.49 926.923 Q918.49 929.052 917.68 930.973 Q916.893 932.872 914.787 935.464 Q914.208 936.135 911.106 939.353 Q908.004 942.547 902.356 948.311 Z" fill="#000000" fill-rule="nonzero" fill-opacity="1" /><path clip-path="url(#clip410)" d="M1442.38 920.765 Q1438.77 920.765 1436.94 924.33 Q1435.14 927.872 1435.14 935.001 Q1435.14 942.108 1436.94 945.672 Q1438.77 949.214 1442.38 949.214 Q1446.02 949.214 1447.82 945.672 Q1449.65 942.108 1449.65 935.001 Q1449.65 927.872 1447.82 924.33 Q1446.02 920.765 1442.38 920.765 M1442.38 917.062 Q1448.19 917.062 1451.25 921.668 Q1454.33 926.251 1454.33 935.001 Q1454.33 943.728 1451.25 948.334 Q1448.19 952.918 1442.38 952.918 Q1436.57 952.918 1433.49 948.334 Q1430.44 943.728 1430.44 935.001 Q1430.44 926.251 1433.49 921.668 Q1436.57 917.062 1442.38 917.062 Z" fill="#000000" fill-rule="nonzero" fill-opacity="1" /><path clip-path="url(#clip410)" d="M1462.55 946.367 L1467.43 946.367 L1467.43 952.247 L1462.55 952.247 L1462.55 946.367 Z" fill="#000000" fill-rule="nonzero" fill-opacity="1" /><path clip-path="url(#clip410)" d="M1491.78 933.612 Q1495.14 934.33 1497.01 936.598 Q1498.91 938.867 1498.91 942.2 Q1498.91 947.316 1495.39 950.117 Q1491.87 952.918 1485.39 952.918 Q1483.22 952.918 1480.9 952.478 Q1478.61 952.061 1476.16 951.205 L1476.16 946.691 Q1478.1 947.825 1480.42 948.404 Q1482.73 948.983 1485.25 948.983 Q1489.65 948.983 1491.94 947.247 Q1494.26 945.51 1494.26 942.2 Q1494.26 939.145 1492.11 937.432 Q1489.98 935.696 1486.16 935.696 L1482.13 935.696 L1482.13 931.853 L1486.34 931.853 Q1489.79 931.853 1491.62 930.487 Q1493.45 929.098 1493.45 926.506 Q1493.45 923.844 1491.55 922.432 Q1489.67 920.997 1486.16 920.997 Q1484.24 920.997 1482.04 921.413 Q1479.84 921.83 1477.2 922.71 L1477.2 918.543 Q1479.86 917.802 1482.17 917.432 Q1484.51 917.062 1486.57 917.062 Q1491.9 917.062 1495 919.492 Q1498.1 921.899 1498.1 926.02 Q1498.1 928.89 1496.46 930.881 Q1494.81 932.848 1491.78 933.612 Z" fill="#000000" fill-rule="nonzero" fill-opacity="1" /><path clip-path="url(#clip410)" d="M2021.58 920.765 Q2017.97 920.765 2016.14 924.33 Q2014.33 927.872 2014.33 935.001 Q2014.33 942.108 2016.14 945.672 Q2017.97 949.214 2021.58 949.214 Q2025.21 949.214 2027.02 945.672 Q2028.85 942.108 2028.85 935.001 Q2028.85 927.872 2027.02 924.33 Q2025.21 920.765 2021.58 920.765 M2021.58 917.062 Q2027.39 917.062 2030.44 921.668 Q2033.52 926.251 2033.52 935.001 Q2033.52 943.728 2030.44 948.334 Q2027.39 952.918 2021.58 952.918 Q2015.77 952.918 2012.69 948.334 Q2009.63 943.728 2009.63 935.001 Q2009.63 926.251 2012.69 921.668 Q2015.77 917.062 2021.58 917.062 Z" fill="#000000" fill-rule="nonzero" fill-opacity="1" /><path clip-path="url(#clip410)" d="M2041.74 946.367 L2046.62 946.367 L2046.62 952.247 L2041.74 952.247 L2041.74 946.367 Z" fill="#000000" fill-rule="nonzero" fill-opacity="1" /><path clip-path="url(#clip410)" d="M2069.66 921.761 L2057.85 940.21 L2069.66 940.21 L2069.66 921.761 M2068.43 917.687 L2074.31 917.687 L2074.31 940.21 L2079.24 940.21 L2079.24 944.098 L2074.31 944.098 L2074.31 952.247 L2069.66 952.247 L2069.66 944.098 L2054.05 944.098 L2054.05 939.585 L2068.43 917.687 Z" fill="#000000" fill-rule="nonzero" fill-opacity="1" /><path clip-path="url(#clip410)" d="M1112.99 988.75 L1112.99 995.02 Q1109.33 993.27 1106.08 992.41 Q1102.83 991.551 1099.81 991.551 Q1094.56 991.551 1091.69 993.588 Q1088.86 995.625 1088.86 999.381 Q1088.86 1002.53 1090.74 1004.16 Q1092.65 1005.75 1097.93 1006.73 L1101.82 1007.53 Q1109.01 1008.9 1112.41 1012.37 Q1115.85 1015.8 1115.85 1021.6 Q1115.85 1028.5 1111.2 1032.07 Q1106.59 1035.63 1097.65 1035.63 Q1094.27 1035.63 1090.45 1034.87 Q1086.67 1034.11 1082.59 1032.61 L1082.59 1025.99 Q1086.51 1028.19 1090.26 1029.3 Q1094.02 1030.41 1097.65 1030.41 Q1103.15 1030.41 1106.14 1028.25 Q1109.14 1026.08 1109.14 1022.07 Q1109.14 1018.57 1106.97 1016.6 Q1104.84 1014.63 1099.94 1013.64 L1096.02 1012.88 Q1088.83 1011.44 1085.61 1008.39 Q1082.4 1005.33 1082.4 999.89 Q1082.4 993.588 1086.82 989.96 Q1091.28 986.331 1099.08 986.331 Q1102.42 986.331 1105.89 986.936 Q1109.36 987.541 1112.99 988.75 Z" fill="#000000" fill-rule="nonzero" fill-opacity="1" /><path clip-path="url(#clip410)" d="M1141.82 1016.79 Q1134.73 1016.79 1131.99 1018.41 Q1129.25 1020.04 1129.25 1023.95 Q1129.25 1027.07 1131.29 1028.92 Q1133.36 1030.73 1136.89 1030.73 Q1141.76 1030.73 1144.69 1027.29 Q1147.65 1023.83 1147.65 1018.1 L1147.65 1016.79 L1141.82 1016.79 M1153.51 1014.37 L1153.51 1034.71 L1147.65 1034.71 L1147.65 1029.3 Q1145.64 1032.55 1142.65 1034.11 Q1139.66 1035.63 1135.33 1035.63 Q1129.86 1035.63 1126.61 1032.58 Q1123.4 1029.49 1123.4 1024.33 Q1123.4 1018.32 1127.41 1015.26 Q1131.45 1012.21 1139.44 1012.21 L1147.65 1012.21 L1147.65 1011.63 Q1147.65 1007.59 1144.98 1005.4 Q1142.33 1003.17 1137.53 1003.17 Q1134.47 1003.17 1131.58 1003.9 Q1128.68 1004.63 1126.01 1006.1 L1126.01 1000.69 Q1129.22 999.444 1132.24 998.84 Q1135.27 998.203 1138.13 998.203 Q1145.87 998.203 1149.69 1002.21 Q1153.51 1006.22 1153.51 1014.37 Z" fill="#000000" fill-rule="nonzero" fill-opacity="1" /><path clip-path="url(#clip410)" d="M1193.32 1005.91 Q1195.52 1001.96 1198.57 1000.08 Q1201.63 998.203 1205.77 998.203 Q1211.34 998.203 1214.36 1002.12 Q1217.38 1006 1217.38 1013.19 L1217.38 1034.71 L1211.5 1034.71 L1211.5 1013.39 Q1211.5 1008.26 1209.68 1005.78 Q1207.87 1003.3 1204.14 1003.3 Q1199.59 1003.3 1196.95 1006.32 Q1194.31 1009.34 1194.31 1014.56 L1194.31 1034.71 L1188.42 1034.71 L1188.42 1013.39 Q1188.42 1008.23 1186.61 1005.78 Q1184.79 1003.3 1181 1003.3 Q1176.52 1003.3 1173.88 1006.35 Q1171.23 1009.37 1171.23 1014.56 L1171.23 1034.71 L1165.35 1034.71 L1165.35 999.063 L1171.23 999.063 L1171.23 1004.6 Q1173.24 1001.32 1176.04 999.763 Q1178.84 998.203 1182.69 998.203 Q1186.57 998.203 1189.28 1000.18 Q1192.02 1002.15 1193.32 1005.91 Z" fill="#000000" fill-rule="nonzero" fill-opacity="1" /><path clip-path="url(#clip410)" d="M1234.73 1029.36 L1234.73 1048.27 L1228.84 1048.27 L1228.84 999.063 L1234.73 999.063 L1234.73 1004.47 Q1236.58 1001.29 1239.38 999.763 Q1242.21 998.203 1246.13 998.203 Q1252.62 998.203 1256.66 1003.36 Q1260.74 1008.52 1260.74 1016.92 Q1260.74 1025.32 1256.66 1030.48 Q1252.62 1035.63 1246.13 1035.63 Q1242.21 1035.63 1239.38 1034.11 Q1236.58 1032.55 1234.73 1029.36 M1254.66 1016.92 Q1254.66 1010.46 1251.98 1006.8 Q1249.34 1003.1 1244.69 1003.1 Q1240.05 1003.1 1237.37 1006.8 Q1234.73 1010.46 1234.73 1016.92 Q1234.73 1023.38 1237.37 1027.07 Q1240.05 1030.73 1244.69 1030.73 Q1249.34 1030.73 1251.98 1027.07 Q1254.66 1023.38 1254.66 1016.92 Z" fill="#000000" fill-rule="nonzero" fill-opacity="1" /><path clip-path="url(#clip410)" d="M1270.44 985.185 L1276.3 985.185 L1276.3 1034.71 L1270.44 1034.71 L1270.44 985.185 Z" fill="#000000" fill-rule="nonzero" fill-opacity="1" /><path clip-path="url(#clip410)" d="M1319.05 1015.42 L1319.05 1018.29 L1292.12 1018.29 Q1292.5 1024.33 1295.75 1027.52 Q1299.03 1030.67 1304.85 1030.67 Q1308.22 1030.67 1311.37 1029.84 Q1314.56 1029.01 1317.68 1027.36 L1317.68 1032.9 Q1314.53 1034.23 1311.22 1034.93 Q1307.91 1035.63 1304.5 1035.63 Q1295.97 1035.63 1290.97 1030.67 Q1286.01 1025.7 1286.01 1017.24 Q1286.01 1008.48 1290.72 1003.36 Q1295.46 998.203 1303.48 998.203 Q1310.67 998.203 1314.84 1002.85 Q1319.05 1007.47 1319.05 1015.42 M1313.19 1013.7 Q1313.13 1008.9 1310.48 1006.03 Q1307.87 1003.17 1303.54 1003.17 Q1298.64 1003.17 1295.68 1005.94 Q1292.75 1008.71 1292.31 1013.74 L1313.19 1013.7 Z" fill="#000000" fill-rule="nonzero" fill-opacity="1" /><path clip-path="url(#clip410)" d="M1345.18 999.063 L1351.38 999.063 L1362.52 1028.98 L1373.66 999.063 L1379.87 999.063 L1366.5 1034.71 L1358.54 1034.71 L1345.18 999.063 Z" fill="#000000" fill-rule="nonzero" fill-opacity="1" /><path clip-path="url(#clip410)" d="M1404.15 1016.79 Q1397.06 1016.79 1394.32 1018.41 Q1391.58 1020.04 1391.58 1023.95 Q1391.58 1027.07 1393.62 1028.92 Q1395.69 1030.73 1399.22 1030.73 Q1404.09 1030.73 1407.02 1027.29 Q1409.98 1023.83 1409.98 1018.1 L1409.98 1016.79 L1404.15 1016.79 M1415.84 1014.37 L1415.84 1034.71 L1409.98 1034.71 L1409.98 1029.3 Q1407.97 1032.55 1404.98 1034.11 Q1401.99 1035.63 1397.66 1035.63 Q1392.19 1035.63 1388.94 1032.58 Q1385.73 1029.49 1385.73 1024.33 Q1385.73 1018.32 1389.74 1015.26 Q1393.78 1012.21 1401.77 1012.21 L1409.98 1012.21 L1409.98 1011.63 Q1409.98 1007.59 1407.31 1005.4 Q1404.66 1003.17 1399.86 1003.17 Q1396.8 1003.17 1393.91 1003.9 Q1391.01 1004.63 1388.34 1006.1 L1388.34 1000.69 Q1391.55 999.444 1394.57 998.84 Q1397.6 998.203 1400.46 998.203 Q1408.2 998.203 1412.02 1002.21 Q1415.84 1006.22 1415.84 1014.37 Z" fill="#000000" fill-rule="nonzero" fill-opacity="1" /><path clip-path="url(#clip410)" d="M1427.9 985.185 L1433.76 985.185 L1433.76 1034.71 L1427.9 1034.71 L1427.9 985.185 Z" fill="#000000" fill-rule="nonzero" fill-opacity="1" /><path clip-path="url(#clip410)" d="M1445.4 1020.64 L1445.4 999.063 L1451.26 999.063 L1451.26 1020.42 Q1451.26 1025.48 1453.23 1028.03 Q1455.21 1030.54 1459.15 1030.54 Q1463.9 1030.54 1466.63 1027.52 Q1469.4 1024.49 1469.4 1019.27 L1469.4 999.063 L1475.26 999.063 L1475.26 1034.71 L1469.4 1034.71 L1469.4 1029.24 Q1467.27 1032.48 1464.44 1034.07 Q1461.64 1035.63 1457.91 1035.63 Q1451.77 1035.63 1448.59 1031.81 Q1445.4 1027.99 1445.4 1020.64 M1460.14 998.203 L1460.14 998.203 Z" fill="#000000" fill-rule="nonzero" fill-opacity="1" /><path clip-path="url(#clip410)" d="M1517.81 1015.42 L1517.81 1018.29 L1490.89 1018.29 Q1491.27 1024.33 1494.52 1027.52 Q1497.79 1030.67 1503.62 1030.67 Q1506.99 1030.67 1510.14 1029.84 Q1513.33 1029.01 1516.45 1027.36 L1516.45 1032.9 Q1513.29 1034.23 1509.98 1034.93 Q1506.67 1035.63 1503.27 1035.63 Q1494.74 1035.63 1489.74 1030.67 Q1484.78 1025.7 1484.78 1017.24 Q1484.78 1008.48 1489.49 1003.36 Q1494.23 998.203 1502.25 998.203 Q1509.44 998.203 1513.61 1002.85 Q1517.81 1007.47 1517.81 1015.42 M1511.96 1013.7 Q1511.89 1008.9 1509.25 1006.03 Q1506.64 1003.17 1502.31 1003.17 Q1497.41 1003.17 1494.45 1005.94 Q1491.52 1008.71 1491.08 1013.74 L1511.96 1013.7 Z" fill="#000000" fill-rule="nonzero" fill-opacity="1" /><polyline clip-path="url(#clip413)" style="stroke:#000000; stroke-linecap:round; stroke-linejoin:round; stroke-width:2; stroke-opacity:0.1; fill:none" points="247.459,883.855 2352.76,883.855 "/>
<polyline clip-path="url(#clip413)" style="stroke:#000000; stroke-linecap:round; stroke-linejoin:round; stroke-width:2; stroke-opacity:0.1; fill:none" points="247.459,827.89 2352.76,827.89 "/>
<polyline clip-path="url(#clip413)" style="stroke:#000000; stroke-linecap:round; stroke-linejoin:round; stroke-width:2; stroke-opacity:0.1; fill:none" points="247.459,771.924 2352.76,771.924 "/>
<polyline clip-path="url(#clip413)" style="stroke:#000000; stroke-linecap:round; stroke-linejoin:round; stroke-width:2; stroke-opacity:0.1; fill:none" points="247.459,715.959 2352.76,715.959 "/>
<polyline clip-path="url(#clip413)" style="stroke:#000000; stroke-linecap:round; stroke-linejoin:round; stroke-width:2; stroke-opacity:0.1; fill:none" points="247.459,659.993 2352.76,659.993 "/>
<polyline clip-path="url(#clip410)" style="stroke:#000000; stroke-linecap:round; stroke-linejoin:round; stroke-width:4; stroke-opacity:1; fill:none" points="247.459,889.847 247.459,656.805 "/>
<polyline clip-path="url(#clip410)" style="stroke:#000000; stroke-linecap:round; stroke-linejoin:round; stroke-width:4; stroke-opacity:1; fill:none" points="247.459,883.855 266.356,883.855 "/>
<polyline clip-path="url(#clip410)" style="stroke:#000000; stroke-linecap:round; stroke-linejoin:round; stroke-width:4; stroke-opacity:1; fill:none" points="247.459,827.89 266.356,827.89 "/>
<polyline clip-path="url(#clip410)" style="stroke:#000000; stroke-linecap:round; stroke-linejoin:round; stroke-width:4; stroke-opacity:1; fill:none" points="247.459,771.924 266.356,771.924 "/>
<polyline clip-path="url(#clip410)" style="stroke:#000000; stroke-linecap:round; stroke-linejoin:round; stroke-width:4; stroke-opacity:1; fill:none" points="247.459,715.959 266.356,715.959 "/>
<polyline clip-path="url(#clip410)" style="stroke:#000000; stroke-linecap:round; stroke-linejoin:round; stroke-width:4; stroke-opacity:1; fill:none" points="247.459,659.993 266.356,659.993 "/>
<path clip-path="url(#clip410)" d="M154.283 869.654 Q150.672 869.654 148.843 873.219 Q147.038 876.76 147.038 883.89 Q147.038 890.996 148.843 894.561 Q150.672 898.103 154.283 898.103 Q157.917 898.103 159.723 894.561 Q161.552 890.996 161.552 883.89 Q161.552 876.76 159.723 873.219 Q157.917 869.654 154.283 869.654 M154.283 865.95 Q160.093 865.95 163.149 870.557 Q166.227 875.14 166.227 883.89 Q166.227 892.617 163.149 897.223 Q160.093 901.806 154.283 901.806 Q148.473 901.806 145.394 897.223 Q142.339 892.617 142.339 883.89 Q142.339 875.14 145.394 870.557 Q148.473 865.95 154.283 865.95 Z" fill="#000000" fill-rule="nonzero" fill-opacity="1" /><path clip-path="url(#clip410)" d="M174.445 895.256 L179.329 895.256 L179.329 901.135 L174.445 901.135 L174.445 895.256 Z" fill="#000000" fill-rule="nonzero" fill-opacity="1" /><path clip-path="url(#clip410)" d="M199.514 869.654 Q195.903 869.654 194.075 873.219 Q192.269 876.76 192.269 883.89 Q192.269 890.996 194.075 894.561 Q195.903 898.103 199.514 898.103 Q203.149 898.103 204.954 894.561 Q206.783 890.996 206.783 883.89 Q206.783 876.76 204.954 873.219 Q203.149 869.654 199.514 869.654 M199.514 865.95 Q205.324 865.95 208.38 870.557 Q211.459 875.14 211.459 883.89 Q211.459 892.617 208.38 897.223 Q205.324 901.806 199.514 901.806 Q193.704 901.806 190.625 897.223 Q187.57 892.617 187.57 883.89 Q187.57 875.14 190.625 870.557 Q193.704 865.95 199.514 865.95 Z" fill="#000000" fill-rule="nonzero" fill-opacity="1" /><path clip-path="url(#clip410)" d="M149.306 841.234 L165.626 841.234 L165.626 845.17 L143.681 845.17 L143.681 841.234 Q146.343 838.48 150.927 833.85 Q155.533 829.197 156.714 827.855 Q158.959 825.332 159.839 823.596 Q160.741 821.836 160.741 820.147 Q160.741 817.392 158.797 815.656 Q156.876 813.92 153.774 813.92 Q151.575 813.92 149.121 814.684 Q146.691 815.448 143.913 816.998 L143.913 812.276 Q146.737 811.142 149.191 810.563 Q151.644 809.985 153.681 809.985 Q159.052 809.985 162.246 812.67 Q165.44 815.355 165.44 819.846 Q165.44 821.975 164.63 823.897 Q163.843 825.795 161.737 828.387 Q161.158 829.059 158.056 832.276 Q154.954 835.471 149.306 841.234 Z" fill="#000000" fill-rule="nonzero" fill-opacity="1" /><path clip-path="url(#clip410)" d="M175.44 839.29 L180.325 839.29 L180.325 845.17 L175.44 845.17 L175.44 839.29 Z" fill="#000000" fill-rule="nonzero" fill-opacity="1" /><path clip-path="url(#clip410)" d="M190.556 810.61 L208.912 810.61 L208.912 814.545 L194.838 814.545 L194.838 823.017 Q195.857 822.67 196.875 822.508 Q197.894 822.323 198.912 822.323 Q204.699 822.323 208.079 825.494 Q211.459 828.665 211.459 834.082 Q211.459 839.66 207.987 842.762 Q204.514 845.841 198.195 845.841 Q196.019 845.841 193.75 845.471 Q191.505 845.1 189.098 844.359 L189.098 839.66 Q191.181 840.795 193.403 841.35 Q195.625 841.906 198.102 841.906 Q202.107 841.906 204.445 839.799 Q206.783 837.693 206.783 834.082 Q206.783 830.471 204.445 828.364 Q202.107 826.258 198.102 826.258 Q196.227 826.258 194.352 826.674 Q192.5 827.091 190.556 827.971 L190.556 810.61 Z" fill="#000000" fill-rule="nonzero" fill-opacity="1" /><path clip-path="url(#clip410)" d="M144.329 754.644 L162.686 754.644 L162.686 758.579 L148.612 758.579 L148.612 767.051 Q149.63 766.704 150.649 766.542 Q151.667 766.357 152.686 766.357 Q158.473 766.357 161.852 769.528 Q165.232 772.7 165.232 778.116 Q165.232 783.695 161.76 786.797 Q158.288 789.875 151.968 789.875 Q149.792 789.875 147.524 789.505 Q145.279 789.135 142.871 788.394 L142.871 783.695 Q144.954 784.829 147.177 785.385 Q149.399 785.94 151.876 785.94 Q155.88 785.94 158.218 783.834 Q160.556 781.727 160.556 778.116 Q160.556 774.505 158.218 772.399 Q155.88 770.292 151.876 770.292 Q150.001 770.292 148.126 770.709 Q146.274 771.125 144.329 772.005 L144.329 754.644 Z" fill="#000000" fill-rule="nonzero" fill-opacity="1" /><path clip-path="url(#clip410)" d="M174.445 783.324 L179.329 783.324 L179.329 789.204 L174.445 789.204 L174.445 783.324 Z" fill="#000000" fill-rule="nonzero" fill-opacity="1" /><path clip-path="url(#clip410)" d="M199.514 757.723 Q195.903 757.723 194.075 761.288 Q192.269 764.829 192.269 771.959 Q192.269 779.065 194.075 782.63 Q195.903 786.172 199.514 786.172 Q203.149 786.172 204.954 782.63 Q206.783 779.065 206.783 771.959 Q206.783 764.829 204.954 761.288 Q203.149 757.723 199.514 757.723 M199.514 754.019 Q205.324 754.019 208.38 758.626 Q211.459 763.209 211.459 771.959 Q211.459 780.686 208.38 785.292 Q205.324 789.875 199.514 789.875 Q193.704 789.875 190.625 785.292 Q187.57 780.686 187.57 771.959 Q187.57 763.209 190.625 758.626 Q193.704 754.019 199.514 754.019 Z" fill="#000000" fill-rule="nonzero" fill-opacity="1" /><path clip-path="url(#clip410)" d="M144.098 698.679 L166.32 698.679 L166.32 700.669 L153.774 733.239 L148.89 733.239 L160.695 702.614 L144.098 702.614 L144.098 698.679 Z" fill="#000000" fill-rule="nonzero" fill-opacity="1" /><path clip-path="url(#clip410)" d="M175.44 727.359 L180.325 727.359 L180.325 733.239 L175.44 733.239 L175.44 727.359 Z" fill="#000000" fill-rule="nonzero" fill-opacity="1" /><path clip-path="url(#clip410)" d="M190.556 698.679 L208.912 698.679 L208.912 702.614 L194.838 702.614 L194.838 711.086 Q195.857 710.739 196.875 710.577 Q197.894 710.391 198.912 710.391 Q204.699 710.391 208.079 713.563 Q211.459 716.734 211.459 722.151 Q211.459 727.729 207.987 730.831 Q204.514 733.91 198.195 733.91 Q196.019 733.91 193.75 733.539 Q191.505 733.169 189.098 732.428 L189.098 727.729 Q191.181 728.864 193.403 729.419 Q195.625 729.975 198.102 729.975 Q202.107 729.975 204.445 727.868 Q206.783 725.762 206.783 722.151 Q206.783 718.54 204.445 716.433 Q202.107 714.327 198.102 714.327 Q196.227 714.327 194.352 714.743 Q192.5 715.16 190.556 716.04 L190.556 698.679 Z" fill="#000000" fill-rule="nonzero" fill-opacity="1" /><path clip-path="url(#clip410)" d="M114.931 673.338 L122.57 673.338 L122.57 646.972 L114.26 648.639 L114.26 644.38 L122.524 642.713 L127.2 642.713 L127.2 673.338 L134.839 673.338 L134.839 677.273 L114.931 677.273 L114.931 673.338 Z" fill="#000000" fill-rule="nonzero" fill-opacity="1" /><path clip-path="url(#clip410)" d="M154.283 645.792 Q150.672 645.792 148.843 649.356 Q147.038 652.898 147.038 660.028 Q147.038 667.134 148.843 670.699 Q150.672 674.241 154.283 674.241 Q157.917 674.241 159.723 670.699 Q161.552 667.134 161.552 660.028 Q161.552 652.898 159.723 649.356 Q157.917 645.792 154.283 645.792 M154.283 642.088 Q160.093 642.088 163.149 646.694 Q166.227 651.278 166.227 660.028 Q166.227 668.754 163.149 673.361 Q160.093 677.944 154.283 677.944 Q148.473 677.944 145.394 673.361 Q142.339 668.754 142.339 660.028 Q142.339 651.278 145.394 646.694 Q148.473 642.088 154.283 642.088 Z" fill="#000000" fill-rule="nonzero" fill-opacity="1" /><path clip-path="url(#clip410)" d="M174.445 671.393 L179.329 671.393 L179.329 677.273 L174.445 677.273 L174.445 671.393 Z" fill="#000000" fill-rule="nonzero" fill-opacity="1" /><path clip-path="url(#clip410)" d="M199.514 645.792 Q195.903 645.792 194.075 649.356 Q192.269 652.898 192.269 660.028 Q192.269 667.134 194.075 670.699 Q195.903 674.241 199.514 674.241 Q203.149 674.241 204.954 670.699 Q206.783 667.134 206.783 660.028 Q206.783 652.898 204.954 649.356 Q203.149 645.792 199.514 645.792 M199.514 642.088 Q205.324 642.088 208.38 646.694 Q211.459 651.278 211.459 660.028 Q211.459 668.754 208.38 673.361 Q205.324 677.944 199.514 677.944 Q193.704 677.944 190.625 673.361 Q187.57 668.754 187.57 660.028 Q187.57 651.278 190.625 646.694 Q193.704 642.088 199.514 642.088 Z" fill="#000000" fill-rule="nonzero" fill-opacity="1" /><path clip-path="url(#clip410)" d="M21.7677 886.636 L58.7206 886.636 L58.7206 878.869 Q58.7206 869.034 54.2646 864.483 Q49.8086 859.9 40.1964 859.9 Q30.6479 859.9 26.2237 864.483 Q21.7677 869.034 21.7677 878.869 L21.7677 886.636 M16.4842 893.065 L16.4842 879.856 Q16.4842 866.043 22.2451 859.581 Q27.9743 853.12 40.1964 853.12 Q52.4822 853.12 58.2432 859.613 Q64.0042 866.106 64.0042 879.856 L64.0042 893.065 L16.4842 893.065 Z" fill="#000000" fill-rule="nonzero" fill-opacity="1" /><path clip-path="url(#clip410)" d="M44.7161 812.634 L47.5806 812.634 L47.5806 839.561 Q53.6281 839.179 56.8109 835.933 Q59.9619 832.654 59.9619 826.83 Q59.9619 823.456 59.1344 820.305 Q58.3069 817.122 56.6518 814.003 L62.1899 814.003 Q63.5267 817.154 64.227 820.464 Q64.9272 823.774 64.9272 827.18 Q64.9272 835.71 59.9619 840.707 Q54.9967 845.672 46.5303 845.672 Q37.7774 845.672 32.6531 840.962 Q27.4968 836.219 27.4968 828.198 Q27.4968 821.005 32.1438 816.836 Q36.7589 812.634 44.7161 812.634 M42.9973 818.491 Q38.1912 818.554 35.3266 821.196 Q32.4621 823.806 32.4621 828.135 Q32.4621 833.036 35.2312 835.996 Q38.0002 838.925 43.0292 839.37 L42.9973 818.491 Z" fill="#000000" fill-rule="nonzero" fill-opacity="1" /><path clip-path="url(#clip410)" d="M42.4881 773.39 L64.0042 773.39 L64.0042 779.246 L42.679 779.246 Q37.6183 779.246 35.1038 781.219 Q32.5894 783.193 32.5894 787.14 Q32.5894 791.882 35.6131 794.619 Q38.6368 797.357 43.8567 797.357 L64.0042 797.357 L64.0042 803.245 L28.3562 803.245 L28.3562 797.357 L33.8944 797.357 Q30.6797 795.256 29.0883 792.423 Q27.4968 789.559 27.4968 785.835 Q27.4968 779.692 31.3163 776.541 Q35.1038 773.39 42.4881 773.39 Z" fill="#000000" fill-rule="nonzero" fill-opacity="1" /><path clip-path="url(#clip410)" d="M29.4065 738.983 L34.9447 738.983 Q33.6716 741.466 33.035 744.139 Q32.3984 746.813 32.3984 749.677 Q32.3984 754.038 33.7352 756.234 Q35.072 758.398 37.7456 758.398 Q39.7826 758.398 40.9603 756.839 Q42.1061 755.279 43.1565 750.569 L43.6021 748.563 Q44.9389 742.325 47.3897 739.715 Q49.8086 737.073 54.1691 737.073 Q59.1344 737.073 62.0308 741.02 Q64.9272 744.935 64.9272 751.81 Q64.9272 754.674 64.3543 757.794 Q63.8132 760.881 62.6992 764.319 L56.6518 764.319 Q58.3387 761.072 59.198 757.921 Q60.0256 754.77 60.0256 751.683 Q60.0256 747.545 58.6251 745.317 Q57.1929 743.089 54.6147 743.089 Q52.2276 743.089 50.9545 744.712 Q49.6813 746.304 48.5037 751.746 L48.0262 753.783 Q46.8804 759.226 44.5251 761.645 Q42.138 764.064 38.0002 764.064 Q32.9713 764.064 30.2341 760.499 Q27.4968 756.934 27.4968 750.378 Q27.4968 747.131 27.9743 744.267 Q28.4517 741.402 29.4065 738.983 Z" fill="#000000" fill-rule="nonzero" fill-opacity="1" /><path clip-path="url(#clip410)" d="M28.3562 727.748 L28.3562 721.891 L64.0042 721.891 L64.0042 727.748 L28.3562 727.748 M14.479 727.748 L14.479 721.891 L21.895 721.891 L21.895 727.748 L14.479 727.748 Z" fill="#000000" fill-rule="nonzero" fill-opacity="1" /><path clip-path="url(#clip410)" d="M18.2347 703.844 L28.3562 703.844 L28.3562 691.781 L32.9077 691.781 L32.9077 703.844 L52.2594 703.844 Q56.6199 703.844 57.8613 702.667 Q59.1026 701.457 59.1026 697.797 L59.1026 691.781 L64.0042 691.781 L64.0042 697.797 Q64.0042 704.576 61.4897 707.154 Q58.9434 709.733 52.2594 709.733 L32.9077 709.733 L32.9077 714.029 L28.3562 714.029 L28.3562 709.733 L18.2347 709.733 L18.2347 703.844 Z" fill="#000000" fill-rule="nonzero" fill-opacity="1" /><path clip-path="url(#clip410)" d="M67.3143 669.247 Q73.68 671.729 75.6216 674.085 Q77.5631 676.44 77.5631 680.387 L77.5631 685.065 L72.6615 685.065 L72.6615 681.628 Q72.6615 679.209 71.5157 677.872 Q70.3699 676.535 66.1048 674.912 L63.4312 673.862 L28.3562 688.28 L28.3562 682.074 L56.238 670.934 L28.3562 659.794 L28.3562 653.587 L67.3143 669.247 Z" fill="#000000" fill-rule="nonzero" fill-opacity="1" /><path clip-path="url(#clip410)" d="M1290.77 567.669 L1300.69 595.701 L1314.87 560.539 L1322.77 560.539 L1304.42 605.909 L1304.42 623.166 L1296.97 623.166 L1296.97 605.909 L1285.06 572.044 Q1283.28 566.94 1279.43 566.94 L1277.44 566.94 L1277.44 560.539 L1280.28 560.539 Q1288.26 560.539 1290.77 567.669 Z" fill="#000000" fill-rule="nonzero" fill-opacity="1" /><polyline clip-path="url(#clip413)" style="stroke:#009af9; stroke-linecap:round; stroke-linejoin:round; stroke-width:4; stroke-opacity:1; fill:none" points="307.043,882.416 319.227,882.343 331.412,882.312 343.597,882.321 355.782,882.371 367.967,882.455 380.152,882.567 392.336,882.694 404.521,882.819 416.706,882.921 428.891,882.98 441.076,882.979 453.261,882.91 465.446,882.774 477.63,882.585 489.815,882.367 502,882.152 514.185,881.967 526.37,881.833 538.555,881.756 550.739,881.722 562.924,881.696 575.109,881.632 587.294,881.478 599.479,881.187 611.664,880.733 623.849,880.109 636.033,879.337 648.218,878.462 660.403,877.544 672.588,876.649 684.773,875.834 696.958,875.135 709.142,874.562 721.327,874.086 733.512,873.65 745.697,873.165 757.882,872.528 770.067,871.628 782.251,870.365 794.436,868.663 806.621,866.476 818.806,863.799 830.991,860.665 843.176,857.139 855.361,853.308 867.545,849.259 879.73,845.066 891.915,840.766 904.1,836.353 916.285,831.774 928.47,826.931 940.654,821.704 952.839,815.976 965.024,809.659 977.209,802.724 989.394,795.215 1001.58,787.249 1013.76,779.002 1025.95,770.671 1038.13,762.441 1050.32,754.455 1062.5,746.805 1074.69,739.537 1086.87,732.678 1099.06,726.262 1111.24,720.337 1123.43,714.959 1135.61,710.163 1147.8,705.927 1159.98,702.148 1172.17,698.643 1184.35,695.181 1196.54,691.538 1208.72,687.568 1220.91,683.254 1233.09,678.729 1245.28,674.259 1257.46,670.188 1269.65,666.86 1281.83,664.548 1294.01,663.401 1306.2,663.428 1318.38,664.512 1330.57,666.447 1342.75,668.985 1354.94,671.877 1367.12,674.909 1379.31,677.933 1391.49,680.888 1403.68,683.81 1415.86,686.821 1428.05,690.102 1440.23,693.844 1452.42,698.192 1464.6,703.212 1476.79,708.878 1488.97,715.097 1501.16,721.754 1513.34,728.749 1525.53,736.033 1537.71,743.597 1549.9,751.451 1562.08,759.583 1574.27,767.921 1586.45,776.322 1598.64,784.583 1610.82,792.479 1623.01,799.805 1635.19,806.423 1647.38,812.282 1659.56,817.422 1671.75,821.957 1683.93,826.044 1696.11,829.851 1708.3,833.531 1720.48,837.197 1732.67,840.918 1744.85,844.711 1757.04,848.551 1769.22,852.377 1781.41,856.107 1793.59,859.648 1805.78,862.908 1817.96,865.804 1830.15,868.271 1842.33,870.275 1854.52,871.815 1866.7,872.936 1878.89,873.722 1891.07,874.289 1903.26,874.762 1915.44,875.257 1927.63,875.857 1939.81,876.602 1952,877.484 1964.18,878.459 1976.37,879.46 1988.55,880.417 2000.74,881.269 2012.92,881.976 2025.11,882.519 2037.29,882.898 2049.48,883.129 2061.66,883.236 2073.84,883.246 2086.03,883.19 2098.21,883.099 2110.4,883 2122.58,882.917 2134.77,882.87 2146.95,882.867 2159.14,882.908 2171.32,882.982 2183.51,883.073 2195.69,883.16 2207.88,883.224 2220.06,883.251 2232.25,883.235 2244.43,883.18 2256.62,883.097 2268.8,883.005 2280.99,882.924 2293.17,882.873 "/>
<polyline clip-path="url(#clip413)" style="stroke:#e26f46; stroke-linecap:round; stroke-linejoin:round; stroke-width:4; stroke-opacity:1; fill:none" points="1325.2,1122.89 1325.2,423.764 "/>
<path clip-path="url(#clip410)" d="M247.459 1423.18 L2352.76 1423.18 L2352.76 1190.14 L247.459 1190.14  Z" fill="#ffffff" fill-rule="evenodd" fill-opacity="1"/>
<defs>
  <clipPath id="clip414">
    <rect x="247" y="1190" width="2106" height="234"/>
  </clipPath>
</defs>
<polyline clip-path="url(#clip414)" style="stroke:#000000; stroke-linecap:round; stroke-linejoin:round; stroke-width:2; stroke-opacity:0.1; fill:none" points="409.372,1423.18 409.372,1190.14 "/>
<polyline clip-path="url(#clip414)" style="stroke:#000000; stroke-linecap:round; stroke-linejoin:round; stroke-width:2; stroke-opacity:0.1; fill:none" points="714.771,1423.18 714.771,1190.14 "/>
<polyline clip-path="url(#clip414)" style="stroke:#000000; stroke-linecap:round; stroke-linejoin:round; stroke-width:2; stroke-opacity:0.1; fill:none" points="1020.17,1423.18 1020.17,1190.14 "/>
<polyline clip-path="url(#clip414)" style="stroke:#000000; stroke-linecap:round; stroke-linejoin:round; stroke-width:2; stroke-opacity:0.1; fill:none" points="1325.57,1423.18 1325.57,1190.14 "/>
<polyline clip-path="url(#clip414)" style="stroke:#000000; stroke-linecap:round; stroke-linejoin:round; stroke-width:2; stroke-opacity:0.1; fill:none" points="1630.97,1423.18 1630.97,1190.14 "/>
<polyline clip-path="url(#clip414)" style="stroke:#000000; stroke-linecap:round; stroke-linejoin:round; stroke-width:2; stroke-opacity:0.1; fill:none" points="1936.37,1423.18 1936.37,1190.14 "/>
<polyline clip-path="url(#clip414)" style="stroke:#000000; stroke-linecap:round; stroke-linejoin:round; stroke-width:2; stroke-opacity:0.1; fill:none" points="2241.77,1423.18 2241.77,1190.14 "/>
<polyline clip-path="url(#clip410)" style="stroke:#000000; stroke-linecap:round; stroke-linejoin:round; stroke-width:4; stroke-opacity:1; fill:none" points="247.459,1423.18 2352.76,1423.18 "/>
<polyline clip-path="url(#clip410)" style="stroke:#000000; stroke-linecap:round; stroke-linejoin:round; stroke-width:4; stroke-opacity:1; fill:none" points="409.372,1423.18 409.372,1404.28 "/>
<polyline clip-path="url(#clip410)" style="stroke:#000000; stroke-linecap:round; stroke-linejoin:round; stroke-width:4; stroke-opacity:1; fill:none" points="714.771,1423.18 714.771,1404.28 "/>
<polyline clip-path="url(#clip410)" style="stroke:#000000; stroke-linecap:round; stroke-linejoin:round; stroke-width:4; stroke-opacity:1; fill:none" points="1020.17,1423.18 1020.17,1404.28 "/>
<polyline clip-path="url(#clip410)" style="stroke:#000000; stroke-linecap:round; stroke-linejoin:round; stroke-width:4; stroke-opacity:1; fill:none" points="1325.57,1423.18 1325.57,1404.28 "/>
<polyline clip-path="url(#clip410)" style="stroke:#000000; stroke-linecap:round; stroke-linejoin:round; stroke-width:4; stroke-opacity:1; fill:none" points="1630.97,1423.18 1630.97,1404.28 "/>
<polyline clip-path="url(#clip410)" style="stroke:#000000; stroke-linecap:round; stroke-linejoin:round; stroke-width:4; stroke-opacity:1; fill:none" points="1936.37,1423.18 1936.37,1404.28 "/>
<polyline clip-path="url(#clip410)" style="stroke:#000000; stroke-linecap:round; stroke-linejoin:round; stroke-width:4; stroke-opacity:1; fill:none" points="2241.77,1423.18 2241.77,1404.28 "/>
<path clip-path="url(#clip410)" d="M387.37 1454.1 Q383.759 1454.1 381.93 1457.66 Q380.124 1461.2 380.124 1468.33 Q380.124 1475.44 381.93 1479.01 Q383.759 1482.55 387.37 1482.55 Q391.004 1482.55 392.809 1479.01 Q394.638 1475.44 394.638 1468.33 Q394.638 1461.2 392.809 1457.66 Q391.004 1454.1 387.37 1454.1 M387.37 1450.39 Q393.18 1450.39 396.235 1455 Q399.314 1459.58 399.314 1468.33 Q399.314 1477.06 396.235 1481.67 Q393.18 1486.25 387.37 1486.25 Q381.559 1486.25 378.481 1481.67 Q375.425 1477.06 375.425 1468.33 Q375.425 1459.58 378.481 1455 Q381.559 1450.39 387.37 1450.39 Z" fill="#000000" fill-rule="nonzero" fill-opacity="1" /><path clip-path="url(#clip410)" d="M407.532 1479.7 L412.416 1479.7 L412.416 1485.58 L407.532 1485.58 L407.532 1479.7 Z" fill="#000000" fill-rule="nonzero" fill-opacity="1" /><path clip-path="url(#clip410)" d="M423.411 1481.64 L431.05 1481.64 L431.05 1455.28 L422.74 1456.95 L422.74 1452.69 L431.004 1451.02 L435.68 1451.02 L435.68 1481.64 L443.318 1481.64 L443.318 1485.58 L423.411 1485.58 L423.411 1481.64 Z" fill="#000000" fill-rule="nonzero" fill-opacity="1" /><path clip-path="url(#clip410)" d="M692.954 1454.1 Q689.343 1454.1 687.514 1457.66 Q685.709 1461.2 685.709 1468.33 Q685.709 1475.44 687.514 1479.01 Q689.343 1482.55 692.954 1482.55 Q696.588 1482.55 698.394 1479.01 Q700.222 1475.44 700.222 1468.33 Q700.222 1461.2 698.394 1457.66 Q696.588 1454.1 692.954 1454.1 M692.954 1450.39 Q698.764 1450.39 701.82 1455 Q704.898 1459.58 704.898 1468.33 Q704.898 1477.06 701.82 1481.67 Q698.764 1486.25 692.954 1486.25 Q687.144 1486.25 684.065 1481.67 Q681.01 1477.06 681.01 1468.33 Q681.01 1459.58 684.065 1455 Q687.144 1450.39 692.954 1450.39 Z" fill="#000000" fill-rule="nonzero" fill-opacity="1" /><path clip-path="url(#clip410)" d="M713.116 1479.7 L718 1479.7 L718 1485.58 L713.116 1485.58 L713.116 1479.7 Z" fill="#000000" fill-rule="nonzero" fill-opacity="1" /><path clip-path="url(#clip410)" d="M732.213 1481.64 L748.532 1481.64 L748.532 1485.58 L726.588 1485.58 L726.588 1481.64 Q729.25 1478.89 733.833 1474.26 Q738.44 1469.61 739.62 1468.27 Q741.866 1465.74 742.745 1464.01 Q743.648 1462.25 743.648 1460.56 Q743.648 1457.8 741.704 1456.07 Q739.782 1454.33 736.681 1454.33 Q734.481 1454.33 732.028 1455.09 Q729.597 1455.86 726.819 1457.41 L726.819 1452.69 Q729.644 1451.55 732.097 1450.97 Q734.551 1450.39 736.588 1450.39 Q741.958 1450.39 745.153 1453.08 Q748.347 1455.77 748.347 1460.26 Q748.347 1462.39 747.537 1464.31 Q746.75 1466.2 744.643 1468.8 Q744.065 1469.47 740.963 1472.69 Q737.861 1475.88 732.213 1481.64 Z" fill="#000000" fill-rule="nonzero" fill-opacity="1" /><path clip-path="url(#clip410)" d="M997.878 1454.1 Q994.267 1454.1 992.439 1457.66 Q990.633 1461.2 990.633 1468.33 Q990.633 1475.44 992.439 1479.01 Q994.267 1482.55 997.878 1482.55 Q1001.51 1482.55 1003.32 1479.01 Q1005.15 1475.44 1005.15 1468.33 Q1005.15 1461.2 1003.32 1457.66 Q1001.51 1454.1 997.878 1454.1 M997.878 1450.39 Q1003.69 1450.39 1006.74 1455 Q1009.82 1459.58 1009.82 1468.33 Q1009.82 1477.06 1006.74 1481.67 Q1003.69 1486.25 997.878 1486.25 Q992.068 1486.25 988.99 1481.67 Q985.934 1477.06 985.934 1468.33 Q985.934 1459.58 988.99 1455 Q992.068 1450.39 997.878 1450.39 Z" fill="#000000" fill-rule="nonzero" fill-opacity="1" /><path clip-path="url(#clip410)" d="M1018.04 1479.7 L1022.92 1479.7 L1022.92 1485.58 L1018.04 1485.58 L1018.04 1479.7 Z" fill="#000000" fill-rule="nonzero" fill-opacity="1" /><path clip-path="url(#clip410)" d="M1047.28 1466.95 Q1050.63 1467.66 1052.51 1469.93 Q1054.41 1472.2 1054.41 1475.53 Q1054.41 1480.65 1050.89 1483.45 Q1047.37 1486.25 1040.89 1486.25 Q1038.71 1486.25 1036.4 1485.81 Q1034.11 1485.39 1031.65 1484.54 L1031.65 1480.02 Q1033.6 1481.16 1035.91 1481.74 Q1038.23 1482.32 1040.75 1482.32 Q1045.15 1482.32 1047.44 1480.58 Q1049.75 1478.84 1049.75 1475.53 Q1049.75 1472.48 1047.6 1470.77 Q1045.47 1469.03 1041.65 1469.03 L1037.62 1469.03 L1037.62 1465.19 L1041.84 1465.19 Q1045.29 1465.19 1047.11 1463.82 Q1048.94 1462.43 1048.94 1459.84 Q1048.94 1457.18 1047.04 1455.77 Q1045.17 1454.33 1041.65 1454.33 Q1039.73 1454.33 1037.53 1454.75 Q1035.33 1455.16 1032.69 1456.04 L1032.69 1451.88 Q1035.36 1451.14 1037.67 1450.77 Q1040.01 1450.39 1042.07 1450.39 Q1047.39 1450.39 1050.49 1452.83 Q1053.6 1455.23 1053.6 1459.35 Q1053.6 1462.22 1051.95 1464.21 Q1050.31 1466.18 1047.28 1466.95 Z" fill="#000000" fill-rule="nonzero" fill-opacity="1" /><path clip-path="url(#clip410)" d="M1302.71 1454.1 Q1299.1 1454.1 1297.27 1457.66 Q1295.47 1461.2 1295.47 1468.33 Q1295.47 1475.44 1297.27 1479.01 Q1299.1 1482.55 1302.71 1482.55 Q1306.34 1482.55 1308.15 1479.01 Q1309.98 1475.44 1309.98 1468.33 Q1309.98 1461.2 1308.15 1457.66 Q1306.34 1454.1 1302.71 1454.1 M1302.71 1450.39 Q1308.52 1450.39 1311.58 1455 Q1314.65 1459.58 1314.65 1468.33 Q1314.65 1477.06 1311.58 1481.67 Q1308.52 1486.25 1302.71 1486.25 Q1296.9 1486.25 1293.82 1481.67 Q1290.77 1477.06 1290.77 1468.33 Q1290.77 1459.58 1293.82 1455 Q1296.9 1450.39 1302.71 1450.39 Z" fill="#000000" fill-rule="nonzero" fill-opacity="1" /><path clip-path="url(#clip410)" d="M1322.87 1479.7 L1327.76 1479.7 L1327.76 1485.58 L1322.87 1485.58 L1322.87 1479.7 Z" fill="#000000" fill-rule="nonzero" fill-opacity="1" /><path clip-path="url(#clip410)" d="M1350.79 1455.09 L1338.98 1473.54 L1350.79 1473.54 L1350.79 1455.09 M1349.56 1451.02 L1355.44 1451.02 L1355.44 1473.54 L1360.37 1473.54 L1360.37 1477.43 L1355.44 1477.43 L1355.44 1485.58 L1350.79 1485.58 L1350.79 1477.43 L1335.19 1477.43 L1335.19 1472.92 L1349.56 1451.02 Z" fill="#000000" fill-rule="nonzero" fill-opacity="1" /><path clip-path="url(#clip410)" d="M1608.85 1454.1 Q1605.24 1454.1 1603.41 1457.66 Q1601.6 1461.2 1601.6 1468.33 Q1601.6 1475.44 1603.41 1479.01 Q1605.24 1482.55 1608.85 1482.55 Q1612.48 1482.55 1614.29 1479.01 Q1616.12 1475.44 1616.12 1468.33 Q1616.12 1461.2 1614.29 1457.66 Q1612.48 1454.1 1608.85 1454.1 M1608.85 1450.39 Q1614.66 1450.39 1617.72 1455 Q1620.79 1459.58 1620.79 1468.33 Q1620.79 1477.06 1617.72 1481.67 Q1614.66 1486.25 1608.85 1486.25 Q1603.04 1486.25 1599.96 1481.67 Q1596.91 1477.06 1596.91 1468.33 Q1596.91 1459.58 1599.96 1455 Q1603.04 1450.39 1608.85 1450.39 Z" fill="#000000" fill-rule="nonzero" fill-opacity="1" /><path clip-path="url(#clip410)" d="M1629.01 1479.7 L1633.9 1479.7 L1633.9 1485.58 L1629.01 1485.58 L1629.01 1479.7 Z" fill="#000000" fill-rule="nonzero" fill-opacity="1" /><path clip-path="url(#clip410)" d="M1644.13 1451.02 L1662.48 1451.02 L1662.48 1454.96 L1648.41 1454.96 L1648.41 1463.43 Q1649.43 1463.08 1650.45 1462.92 Q1651.47 1462.73 1652.48 1462.73 Q1658.27 1462.73 1661.65 1465.9 Q1665.03 1469.08 1665.03 1474.49 Q1665.03 1480.07 1661.56 1483.17 Q1658.09 1486.25 1651.77 1486.25 Q1649.59 1486.25 1647.32 1485.88 Q1645.08 1485.51 1642.67 1484.77 L1642.67 1480.07 Q1644.75 1481.2 1646.98 1481.76 Q1649.2 1482.32 1651.67 1482.32 Q1655.68 1482.32 1658.02 1480.21 Q1660.35 1478.1 1660.35 1474.49 Q1660.35 1470.88 1658.02 1468.77 Q1655.68 1466.67 1651.67 1466.67 Q1649.8 1466.67 1647.92 1467.08 Q1646.07 1467.5 1644.13 1468.38 L1644.13 1451.02 Z" fill="#000000" fill-rule="nonzero" fill-opacity="1" /><path clip-path="url(#clip410)" d="M1913.67 1454.1 Q1910.06 1454.1 1908.23 1457.66 Q1906.43 1461.2 1906.43 1468.33 Q1906.43 1475.44 1908.23 1479.01 Q1910.06 1482.55 1913.67 1482.55 Q1917.3 1482.55 1919.11 1479.01 Q1920.94 1475.44 1920.94 1468.33 Q1920.94 1461.2 1919.11 1457.66 Q1917.3 1454.1 1913.67 1454.1 M1913.67 1450.39 Q1919.48 1450.39 1922.54 1455 Q1925.62 1459.58 1925.62 1468.33 Q1925.62 1477.06 1922.54 1481.67 Q1919.48 1486.25 1913.67 1486.25 Q1907.86 1486.25 1904.78 1481.67 Q1901.73 1477.06 1901.73 1468.33 Q1901.73 1459.58 1904.78 1455 Q1907.86 1450.39 1913.67 1450.39 Z" fill="#000000" fill-rule="nonzero" fill-opacity="1" /><path clip-path="url(#clip410)" d="M1933.83 1479.7 L1938.72 1479.7 L1938.72 1485.58 L1933.83 1485.58 L1933.83 1479.7 Z" fill="#000000" fill-rule="nonzero" fill-opacity="1" /><path clip-path="url(#clip410)" d="M1959.48 1466.44 Q1956.33 1466.44 1954.48 1468.59 Q1952.65 1470.74 1952.65 1474.49 Q1952.65 1478.22 1954.48 1480.39 Q1956.33 1482.55 1959.48 1482.55 Q1962.63 1482.55 1964.46 1480.39 Q1966.31 1478.22 1966.31 1474.49 Q1966.31 1470.74 1964.46 1468.59 Q1962.63 1466.44 1959.48 1466.44 M1968.76 1451.78 L1968.76 1456.04 Q1967 1455.21 1965.2 1454.77 Q1963.42 1454.33 1961.66 1454.33 Q1957.03 1454.33 1954.57 1457.45 Q1952.14 1460.58 1951.8 1466.9 Q1953.16 1464.89 1955.22 1463.82 Q1957.28 1462.73 1959.76 1462.73 Q1964.97 1462.73 1967.98 1465.9 Q1971.01 1469.05 1971.01 1474.49 Q1971.01 1479.82 1967.86 1483.03 Q1964.71 1486.25 1959.48 1486.25 Q1953.49 1486.25 1950.31 1481.67 Q1947.14 1477.06 1947.14 1468.33 Q1947.14 1460.14 1951.03 1455.28 Q1954.92 1450.39 1961.47 1450.39 Q1963.23 1450.39 1965.01 1450.74 Q1966.82 1451.09 1968.76 1451.78 Z" fill="#000000" fill-rule="nonzero" fill-opacity="1" /><path clip-path="url(#clip410)" d="M2219.6 1454.1 Q2215.99 1454.1 2214.16 1457.66 Q2212.36 1461.2 2212.36 1468.33 Q2212.36 1475.44 2214.16 1479.01 Q2215.99 1482.55 2219.6 1482.55 Q2223.24 1482.55 2225.04 1479.01 Q2226.87 1475.44 2226.87 1468.33 Q2226.87 1461.2 2225.04 1457.66 Q2223.24 1454.1 2219.6 1454.1 M2219.6 1450.39 Q2225.41 1450.39 2228.47 1455 Q2231.55 1459.58 2231.55 1468.33 Q2231.55 1477.06 2228.47 1481.67 Q2225.41 1486.25 2219.6 1486.25 Q2213.79 1486.25 2210.71 1481.67 Q2207.66 1477.06 2207.66 1468.33 Q2207.66 1459.58 2210.71 1455 Q2213.79 1450.39 2219.6 1450.39 Z" fill="#000000" fill-rule="nonzero" fill-opacity="1" /><path clip-path="url(#clip410)" d="M2239.76 1479.7 L2244.65 1479.7 L2244.65 1485.58 L2239.76 1485.58 L2239.76 1479.7 Z" fill="#000000" fill-rule="nonzero" fill-opacity="1" /><path clip-path="url(#clip410)" d="M2253.65 1451.02 L2275.88 1451.02 L2275.88 1453.01 L2263.33 1485.58 L2258.44 1485.58 L2270.25 1454.96 L2253.65 1454.96 L2253.65 1451.02 Z" fill="#000000" fill-rule="nonzero" fill-opacity="1" /><path clip-path="url(#clip410)" d="M1112.99 1522.08 L1112.99 1528.35 Q1109.33 1526.6 1106.08 1525.74 Q1102.83 1524.88 1099.81 1524.88 Q1094.56 1524.88 1091.69 1526.92 Q1088.86 1528.96 1088.86 1532.71 Q1088.86 1535.87 1090.74 1537.49 Q1092.65 1539.08 1097.93 1540.07 L1101.82 1540.86 Q1109.01 1542.23 1112.41 1545.7 Q1115.85 1549.14 1115.85 1554.93 Q1115.85 1561.84 1111.2 1565.4 Q1106.59 1568.97 1097.65 1568.97 Q1094.27 1568.97 1090.45 1568.2 Q1086.67 1567.44 1082.59 1565.94 L1082.59 1559.32 Q1086.51 1561.52 1090.26 1562.63 Q1094.02 1563.75 1097.65 1563.75 Q1103.15 1563.75 1106.14 1561.58 Q1109.14 1559.42 1109.14 1555.41 Q1109.14 1551.91 1106.97 1549.93 Q1104.84 1547.96 1099.94 1546.97 L1096.02 1546.21 Q1088.83 1544.78 1085.61 1541.72 Q1082.4 1538.67 1082.4 1533.22 Q1082.4 1526.92 1086.82 1523.29 Q1091.28 1519.66 1099.08 1519.66 Q1102.42 1519.66 1105.89 1520.27 Q1109.36 1520.87 1112.99 1522.08 Z" fill="#000000" fill-rule="nonzero" fill-opacity="1" /><path clip-path="url(#clip410)" d="M1141.82 1550.12 Q1134.73 1550.12 1131.99 1551.75 Q1129.25 1553.37 1129.25 1557.29 Q1129.25 1560.4 1131.29 1562.25 Q1133.36 1564.07 1136.89 1564.07 Q1141.76 1564.07 1144.69 1560.63 Q1147.65 1557.16 1147.65 1551.43 L1147.65 1550.12 L1141.82 1550.12 M1153.51 1547.71 L1153.51 1568.04 L1147.65 1568.04 L1147.65 1562.63 Q1145.64 1565.88 1142.65 1567.44 Q1139.66 1568.97 1135.33 1568.97 Q1129.86 1568.97 1126.61 1565.91 Q1123.4 1562.82 1123.4 1557.67 Q1123.4 1551.65 1127.41 1548.6 Q1131.45 1545.54 1139.44 1545.54 L1147.65 1545.54 L1147.65 1544.97 Q1147.65 1540.93 1144.98 1538.73 Q1142.33 1536.5 1137.53 1536.5 Q1134.47 1536.5 1131.58 1537.23 Q1128.68 1537.97 1126.01 1539.43 L1126.01 1534.02 Q1129.22 1532.78 1132.24 1532.17 Q1135.27 1531.54 1138.13 1531.54 Q1145.87 1531.54 1149.69 1535.55 Q1153.51 1539.56 1153.51 1547.71 Z" fill="#000000" fill-rule="nonzero" fill-opacity="1" /><path clip-path="url(#clip410)" d="M1193.32 1539.24 Q1195.52 1535.29 1198.57 1533.41 Q1201.63 1531.54 1205.77 1531.54 Q1211.34 1531.54 1214.36 1535.45 Q1217.38 1539.33 1217.38 1546.53 L1217.38 1568.04 L1211.5 1568.04 L1211.5 1546.72 Q1211.5 1541.59 1209.68 1539.11 Q1207.87 1536.63 1204.14 1536.63 Q1199.59 1536.63 1196.95 1539.65 Q1194.31 1542.68 1194.31 1547.9 L1194.31 1568.04 L1188.42 1568.04 L1188.42 1546.72 Q1188.42 1541.56 1186.61 1539.11 Q1184.79 1536.63 1181 1536.63 Q1176.52 1536.63 1173.88 1539.68 Q1171.23 1542.71 1171.23 1547.9 L1171.23 1568.04 L1165.35 1568.04 L1165.35 1532.4 L1171.23 1532.4 L1171.23 1537.93 Q1173.24 1534.66 1176.04 1533.1 Q1178.84 1531.54 1182.69 1531.54 Q1186.57 1531.54 1189.28 1533.51 Q1192.02 1535.48 1193.32 1539.24 Z" fill="#000000" fill-rule="nonzero" fill-opacity="1" /><path clip-path="url(#clip410)" d="M1234.73 1562.7 L1234.73 1581.6 L1228.84 1581.6 L1228.84 1532.4 L1234.73 1532.4 L1234.73 1537.81 Q1236.58 1534.62 1239.38 1533.1 Q1242.21 1531.54 1246.13 1531.54 Q1252.62 1531.54 1256.66 1536.69 Q1260.74 1541.85 1260.74 1550.25 Q1260.74 1558.65 1256.66 1563.81 Q1252.62 1568.97 1246.13 1568.97 Q1242.21 1568.97 1239.38 1567.44 Q1236.58 1565.88 1234.73 1562.7 M1254.66 1550.25 Q1254.66 1543.79 1251.98 1540.13 Q1249.34 1536.44 1244.69 1536.44 Q1240.05 1536.44 1237.37 1540.13 Q1234.73 1543.79 1234.73 1550.25 Q1234.73 1556.71 1237.37 1560.4 Q1240.05 1564.07 1244.69 1564.07 Q1249.34 1564.07 1251.98 1560.4 Q1254.66 1556.71 1254.66 1550.25 Z" fill="#000000" fill-rule="nonzero" fill-opacity="1" /><path clip-path="url(#clip410)" d="M1270.44 1518.52 L1276.3 1518.52 L1276.3 1568.04 L1270.44 1568.04 L1270.44 1518.52 Z" fill="#000000" fill-rule="nonzero" fill-opacity="1" /><path clip-path="url(#clip410)" d="M1319.05 1548.76 L1319.05 1551.62 L1292.12 1551.62 Q1292.5 1557.67 1295.75 1560.85 Q1299.03 1564 1304.85 1564 Q1308.22 1564 1311.37 1563.17 Q1314.56 1562.35 1317.68 1560.69 L1317.68 1566.23 Q1314.53 1567.57 1311.22 1568.27 Q1307.91 1568.97 1304.5 1568.97 Q1295.97 1568.97 1290.97 1564 Q1286.01 1559.04 1286.01 1550.57 Q1286.01 1541.82 1290.72 1536.69 Q1295.46 1531.54 1303.48 1531.54 Q1310.67 1531.54 1314.84 1536.18 Q1319.05 1540.8 1319.05 1548.76 M1313.19 1547.04 Q1313.13 1542.23 1310.48 1539.37 Q1307.87 1536.5 1303.54 1536.5 Q1298.64 1536.5 1295.68 1539.27 Q1292.75 1542.04 1292.31 1547.07 L1313.19 1547.04 Z" fill="#000000" fill-rule="nonzero" fill-opacity="1" /><path clip-path="url(#clip410)" d="M1345.18 1532.4 L1351.38 1532.4 L1362.52 1562.31 L1373.66 1532.4 L1379.87 1532.4 L1366.5 1568.04 L1358.54 1568.04 L1345.18 1532.4 Z" fill="#000000" fill-rule="nonzero" fill-opacity="1" /><path clip-path="url(#clip410)" d="M1404.15 1550.12 Q1397.06 1550.12 1394.32 1551.75 Q1391.58 1553.37 1391.58 1557.29 Q1391.58 1560.4 1393.62 1562.25 Q1395.69 1564.07 1399.22 1564.07 Q1404.09 1564.07 1407.02 1560.63 Q1409.98 1557.16 1409.98 1551.43 L1409.98 1550.12 L1404.15 1550.12 M1415.84 1547.71 L1415.84 1568.04 L1409.98 1568.04 L1409.98 1562.63 Q1407.97 1565.88 1404.98 1567.44 Q1401.99 1568.97 1397.66 1568.97 Q1392.19 1568.97 1388.94 1565.91 Q1385.73 1562.82 1385.73 1557.67 Q1385.73 1551.65 1389.74 1548.6 Q1393.78 1545.54 1401.77 1545.54 L1409.98 1545.54 L1409.98 1544.97 Q1409.98 1540.93 1407.31 1538.73 Q1404.66 1536.5 1399.86 1536.5 Q1396.8 1536.5 1393.91 1537.23 Q1391.01 1537.97 1388.34 1539.43 L1388.34 1534.02 Q1391.55 1532.78 1394.57 1532.17 Q1397.6 1531.54 1400.46 1531.54 Q1408.2 1531.54 1412.02 1535.55 Q1415.84 1539.56 1415.84 1547.71 Z" fill="#000000" fill-rule="nonzero" fill-opacity="1" /><path clip-path="url(#clip410)" d="M1427.9 1518.52 L1433.76 1518.52 L1433.76 1568.04 L1427.9 1568.04 L1427.9 1518.52 Z" fill="#000000" fill-rule="nonzero" fill-opacity="1" /><path clip-path="url(#clip410)" d="M1445.4 1553.98 L1445.4 1532.4 L1451.26 1532.4 L1451.26 1553.75 Q1451.26 1558.81 1453.23 1561.36 Q1455.21 1563.87 1459.15 1563.87 Q1463.9 1563.87 1466.63 1560.85 Q1469.4 1557.83 1469.4 1552.61 L1469.4 1532.4 L1475.26 1532.4 L1475.26 1568.04 L1469.4 1568.04 L1469.4 1562.57 Q1467.27 1565.82 1464.44 1567.41 Q1461.64 1568.97 1457.91 1568.97 Q1451.77 1568.97 1448.59 1565.15 Q1445.4 1561.33 1445.4 1553.98 M1460.14 1531.54 L1460.14 1531.54 Z" fill="#000000" fill-rule="nonzero" fill-opacity="1" /><path clip-path="url(#clip410)" d="M1517.81 1548.76 L1517.81 1551.62 L1490.89 1551.62 Q1491.27 1557.67 1494.52 1560.85 Q1497.79 1564 1503.62 1564 Q1506.99 1564 1510.14 1563.17 Q1513.33 1562.35 1516.45 1560.69 L1516.45 1566.23 Q1513.29 1567.57 1509.98 1568.27 Q1506.67 1568.97 1503.27 1568.97 Q1494.74 1568.97 1489.74 1564 Q1484.78 1559.04 1484.78 1550.57 Q1484.78 1541.82 1489.49 1536.69 Q1494.23 1531.54 1502.25 1531.54 Q1509.44 1531.54 1513.61 1536.18 Q1517.81 1540.8 1517.81 1548.76 M1511.96 1547.04 Q1511.89 1542.23 1509.25 1539.37 Q1506.64 1536.5 1502.31 1536.5 Q1497.41 1536.5 1494.45 1539.27 Q1491.52 1542.04 1491.08 1547.07 L1511.96 1547.04 Z" fill="#000000" fill-rule="nonzero" fill-opacity="1" /><polyline clip-path="url(#clip414)" style="stroke:#000000; stroke-linecap:round; stroke-linejoin:round; stroke-width:2; stroke-opacity:0.1; fill:none" points="247.459,1416.74 2352.76,1416.74 "/>
<polyline clip-path="url(#clip414)" style="stroke:#000000; stroke-linecap:round; stroke-linejoin:round; stroke-width:2; stroke-opacity:0.1; fill:none" points="247.459,1380.83 2352.76,1380.83 "/>
<polyline clip-path="url(#clip414)" style="stroke:#000000; stroke-linecap:round; stroke-linejoin:round; stroke-width:2; stroke-opacity:0.1; fill:none" points="247.459,1344.91 2352.76,1344.91 "/>
<polyline clip-path="url(#clip414)" style="stroke:#000000; stroke-linecap:round; stroke-linejoin:round; stroke-width:2; stroke-opacity:0.1; fill:none" points="247.459,1309 2352.76,1309 "/>
<polyline clip-path="url(#clip414)" style="stroke:#000000; stroke-linecap:round; stroke-linejoin:round; stroke-width:2; stroke-opacity:0.1; fill:none" points="247.459,1273.09 2352.76,1273.09 "/>
<polyline clip-path="url(#clip414)" style="stroke:#000000; stroke-linecap:round; stroke-linejoin:round; stroke-width:2; stroke-opacity:0.1; fill:none" points="247.459,1237.18 2352.76,1237.18 "/>
<polyline clip-path="url(#clip414)" style="stroke:#000000; stroke-linecap:round; stroke-linejoin:round; stroke-width:2; stroke-opacity:0.1; fill:none" points="247.459,1201.27 2352.76,1201.27 "/>
<polyline clip-path="url(#clip410)" style="stroke:#000000; stroke-linecap:round; stroke-linejoin:round; stroke-width:4; stroke-opacity:1; fill:none" points="247.459,1423.18 247.459,1190.14 "/>
<polyline clip-path="url(#clip410)" style="stroke:#000000; stroke-linecap:round; stroke-linejoin:round; stroke-width:4; stroke-opacity:1; fill:none" points="247.459,1416.74 266.356,1416.74 "/>
<polyline clip-path="url(#clip410)" style="stroke:#000000; stroke-linecap:round; stroke-linejoin:round; stroke-width:4; stroke-opacity:1; fill:none" points="247.459,1380.83 266.356,1380.83 "/>
<polyline clip-path="url(#clip410)" style="stroke:#000000; stroke-linecap:round; stroke-linejoin:round; stroke-width:4; stroke-opacity:1; fill:none" points="247.459,1344.91 266.356,1344.91 "/>
<polyline clip-path="url(#clip410)" style="stroke:#000000; stroke-linecap:round; stroke-linejoin:round; stroke-width:4; stroke-opacity:1; fill:none" points="247.459,1309 266.356,1309 "/>
<polyline clip-path="url(#clip410)" style="stroke:#000000; stroke-linecap:round; stroke-linejoin:round; stroke-width:4; stroke-opacity:1; fill:none" points="247.459,1273.09 266.356,1273.09 "/>
<polyline clip-path="url(#clip410)" style="stroke:#000000; stroke-linecap:round; stroke-linejoin:round; stroke-width:4; stroke-opacity:1; fill:none" points="247.459,1237.18 266.356,1237.18 "/>
<polyline clip-path="url(#clip410)" style="stroke:#000000; stroke-linecap:round; stroke-linejoin:round; stroke-width:4; stroke-opacity:1; fill:none" points="247.459,1201.27 266.356,1201.27 "/>
<path clip-path="url(#clip410)" d="M199.514 1402.54 Q195.903 1402.54 194.075 1406.1 Q192.269 1409.64 192.269 1416.77 Q192.269 1423.88 194.075 1427.44 Q195.903 1430.99 199.514 1430.99 Q203.149 1430.99 204.954 1427.44 Q206.783 1423.88 206.783 1416.77 Q206.783 1409.64 204.954 1406.1 Q203.149 1402.54 199.514 1402.54 M199.514 1398.83 Q205.324 1398.83 208.38 1403.44 Q211.459 1408.02 211.459 1416.77 Q211.459 1425.5 208.38 1430.11 Q205.324 1434.69 199.514 1434.69 Q193.704 1434.69 190.625 1430.11 Q187.57 1425.5 187.57 1416.77 Q187.57 1408.02 190.625 1403.44 Q193.704 1398.83 199.514 1398.83 Z" fill="#000000" fill-rule="nonzero" fill-opacity="1" /><path clip-path="url(#clip410)" d="M191.551 1394.17 L199.19 1394.17 L199.19 1367.81 L190.88 1369.47 L190.88 1365.21 L199.144 1363.55 L203.82 1363.55 L203.82 1394.17 L211.459 1394.17 L211.459 1398.11 L191.551 1398.11 L191.551 1394.17 Z" fill="#000000" fill-rule="nonzero" fill-opacity="1" /><path clip-path="url(#clip410)" d="M195.139 1358.26 L211.459 1358.26 L211.459 1362.19 L189.514 1362.19 L189.514 1358.26 Q192.176 1355.5 196.76 1350.88 Q201.366 1346.22 202.547 1344.88 Q204.792 1342.36 205.672 1340.62 Q206.574 1338.86 206.574 1337.17 Q206.574 1334.42 204.63 1332.68 Q202.709 1330.94 199.607 1330.94 Q197.408 1330.94 194.954 1331.71 Q192.524 1332.47 189.746 1334.02 L189.746 1329.3 Q192.57 1328.17 195.024 1327.59 Q197.477 1327.01 199.514 1327.01 Q204.885 1327.01 208.079 1329.69 Q211.274 1332.38 211.274 1336.87 Q211.274 1339 210.463 1340.92 Q209.676 1342.82 207.57 1345.41 Q206.991 1346.08 203.889 1349.3 Q200.787 1352.5 195.139 1358.26 Z" fill="#000000" fill-rule="nonzero" fill-opacity="1" /><path clip-path="url(#clip410)" d="M204.329 1307.65 Q207.686 1308.37 209.561 1310.63 Q211.459 1312.9 211.459 1316.24 Q211.459 1321.35 207.94 1324.15 Q204.422 1326.95 197.94 1326.95 Q195.764 1326.95 193.45 1326.51 Q191.158 1326.1 188.704 1325.24 L188.704 1320.73 Q190.649 1321.86 192.963 1322.44 Q195.278 1323.02 197.801 1323.02 Q202.2 1323.02 204.491 1321.28 Q206.806 1319.55 206.806 1316.24 Q206.806 1313.18 204.653 1311.47 Q202.524 1309.73 198.704 1309.73 L194.676 1309.73 L194.676 1305.89 L198.889 1305.89 Q202.338 1305.89 204.167 1304.52 Q205.996 1303.13 205.996 1300.54 Q205.996 1297.88 204.098 1296.47 Q202.223 1295.03 198.704 1295.03 Q196.783 1295.03 194.584 1295.45 Q192.385 1295.87 189.746 1296.75 L189.746 1292.58 Q192.408 1291.84 194.723 1291.47 Q197.061 1291.1 199.121 1291.1 Q204.445 1291.1 207.547 1293.53 Q210.649 1295.94 210.649 1300.06 Q210.649 1302.93 209.005 1304.92 Q207.362 1306.88 204.329 1307.65 Z" fill="#000000" fill-rule="nonzero" fill-opacity="1" /><path clip-path="url(#clip410)" d="M201.875 1259.88 L190.07 1278.33 L201.875 1278.33 L201.875 1259.88 M200.649 1255.81 L206.528 1255.81 L206.528 1278.33 L211.459 1278.33 L211.459 1282.22 L206.528 1282.22 L206.528 1290.37 L201.875 1290.37 L201.875 1282.22 L186.274 1282.22 L186.274 1277.71 L200.649 1255.81 Z" fill="#000000" fill-rule="nonzero" fill-opacity="1" /><path clip-path="url(#clip410)" d="M190.556 1219.9 L208.912 1219.9 L208.912 1223.83 L194.838 1223.83 L194.838 1232.31 Q195.857 1231.96 196.875 1231.8 Q197.894 1231.61 198.912 1231.61 Q204.699 1231.61 208.079 1234.78 Q211.459 1237.95 211.459 1243.37 Q211.459 1248.95 207.987 1252.05 Q204.514 1255.13 198.195 1255.13 Q196.019 1255.13 193.75 1254.76 Q191.505 1254.39 189.098 1253.65 L189.098 1248.95 Q191.181 1250.08 193.403 1250.64 Q195.625 1251.19 198.102 1251.19 Q202.107 1251.19 204.445 1249.09 Q206.783 1246.98 206.783 1243.37 Q206.783 1239.76 204.445 1237.65 Q202.107 1235.55 198.102 1235.55 Q196.227 1235.55 194.352 1235.96 Q192.5 1236.38 190.556 1237.26 L190.556 1219.9 Z" fill="#000000" fill-rule="nonzero" fill-opacity="1" /><path clip-path="url(#clip410)" d="M199.931 1199.4 Q196.783 1199.4 194.931 1201.56 Q193.102 1203.71 193.102 1207.46 Q193.102 1211.18 194.931 1213.36 Q196.783 1215.51 199.931 1215.51 Q203.079 1215.51 204.908 1213.36 Q206.76 1211.18 206.76 1207.46 Q206.76 1203.71 204.908 1201.56 Q203.079 1199.4 199.931 1199.4 M209.213 1184.75 L209.213 1189.01 Q207.454 1188.18 205.649 1187.74 Q203.866 1187.3 202.107 1187.3 Q197.477 1187.3 195.024 1190.42 Q192.593 1193.55 192.246 1199.87 Q193.612 1197.85 195.672 1196.79 Q197.732 1195.7 200.209 1195.7 Q205.417 1195.7 208.426 1198.87 Q211.459 1202.02 211.459 1207.46 Q211.459 1212.78 208.311 1216 Q205.162 1219.22 199.931 1219.22 Q193.936 1219.22 190.764 1214.63 Q187.593 1210.03 187.593 1201.3 Q187.593 1193.11 191.482 1188.25 Q195.371 1183.36 201.922 1183.36 Q203.681 1183.36 205.463 1183.71 Q207.269 1184.06 209.213 1184.75 Z" fill="#000000" fill-rule="nonzero" fill-opacity="1" /><path clip-path="url(#clip410)" d="M93.7812 1419.97 L130.734 1419.97 L130.734 1412.2 Q130.734 1402.37 126.278 1397.82 Q121.822 1393.23 112.21 1393.23 Q102.661 1393.23 98.2372 1397.82 Q93.7812 1402.37 93.7812 1412.2 L93.7812 1419.97 M88.4977 1426.4 L88.4977 1413.19 Q88.4977 1399.38 94.2586 1392.91 Q99.9878 1386.45 112.21 1386.45 Q124.496 1386.45 130.257 1392.95 Q136.018 1399.44 136.018 1413.19 L136.018 1426.4 L88.4977 1426.4 Z" fill="#000000" fill-rule="nonzero" fill-opacity="1" /><path clip-path="url(#clip410)" d="M116.73 1345.97 L119.594 1345.97 L119.594 1372.89 Q125.642 1372.51 128.824 1369.27 Q131.975 1365.99 131.975 1360.16 Q131.975 1356.79 131.148 1353.64 Q130.32 1350.46 128.665 1347.34 L134.203 1347.34 Q135.54 1350.49 136.24 1353.8 Q136.941 1357.11 136.941 1360.51 Q136.941 1369.04 131.975 1374.04 Q127.01 1379.01 118.544 1379.01 Q109.791 1379.01 104.667 1374.29 Q99.5103 1369.55 99.5103 1361.53 Q99.5103 1354.34 104.157 1350.17 Q108.772 1345.97 116.73 1345.97 M115.011 1351.82 Q110.205 1351.89 107.34 1354.53 Q104.476 1357.14 104.476 1361.47 Q104.476 1366.37 107.245 1369.33 Q110.014 1372.26 115.043 1372.7 L115.011 1351.82 Z" fill="#000000" fill-rule="nonzero" fill-opacity="1" /><path clip-path="url(#clip410)" d="M114.502 1306.72 L136.018 1306.72 L136.018 1312.58 L114.693 1312.58 Q109.632 1312.58 107.117 1314.55 Q104.603 1316.53 104.603 1320.47 Q104.603 1325.22 107.627 1327.95 Q110.65 1330.69 115.87 1330.69 L136.018 1330.69 L136.018 1336.58 L100.37 1336.58 L100.37 1330.69 L105.908 1330.69 Q102.693 1328.59 101.102 1325.76 Q99.5103 1322.89 99.5103 1319.17 Q99.5103 1313.03 103.33 1309.87 Q107.117 1306.72 114.502 1306.72 Z" fill="#000000" fill-rule="nonzero" fill-opacity="1" /><path clip-path="url(#clip410)" d="M101.42 1272.32 L106.958 1272.32 Q105.685 1274.8 105.048 1277.47 Q104.412 1280.15 104.412 1283.01 Q104.412 1287.37 105.749 1289.57 Q107.086 1291.73 109.759 1291.73 Q111.796 1291.73 112.974 1290.17 Q114.12 1288.61 115.17 1283.9 L115.616 1281.9 Q116.952 1275.66 119.403 1273.05 Q121.822 1270.41 126.183 1270.41 Q131.148 1270.41 134.044 1274.35 Q136.941 1278.27 136.941 1285.14 Q136.941 1288.01 136.368 1291.13 Q135.827 1294.21 134.713 1297.65 L128.665 1297.65 Q130.352 1294.41 131.212 1291.25 Q132.039 1288.1 132.039 1285.02 Q132.039 1280.88 130.639 1278.65 Q129.206 1276.42 126.628 1276.42 Q124.241 1276.42 122.968 1278.05 Q121.695 1279.64 120.517 1285.08 L120.04 1287.12 Q118.894 1292.56 116.539 1294.98 Q114.151 1297.4 110.014 1297.4 Q104.985 1297.4 102.248 1293.83 Q99.5103 1290.27 99.5103 1283.71 Q99.5103 1280.46 99.9878 1277.6 Q100.465 1274.74 101.42 1272.32 Z" fill="#000000" fill-rule="nonzero" fill-opacity="1" /><path clip-path="url(#clip410)" d="M100.37 1261.08 L100.37 1255.22 L136.018 1255.22 L136.018 1261.08 L100.37 1261.08 M86.4925 1261.08 L86.4925 1255.22 L93.9085 1255.22 L93.9085 1261.08 L86.4925 1261.08 Z" fill="#000000" fill-rule="nonzero" fill-opacity="1" /><path clip-path="url(#clip410)" d="M90.2482 1237.18 L100.37 1237.18 L100.37 1225.11 L104.921 1225.11 L104.921 1237.18 L124.273 1237.18 Q128.633 1237.18 129.875 1236 Q131.116 1234.79 131.116 1231.13 L131.116 1225.11 L136.018 1225.11 L136.018 1231.13 Q136.018 1237.91 133.503 1240.49 Q130.957 1243.07 124.273 1243.07 L104.921 1243.07 L104.921 1247.36 L100.37 1247.36 L100.37 1243.07 L90.2482 1243.07 L90.2482 1237.18 Z" fill="#000000" fill-rule="nonzero" fill-opacity="1" /><path clip-path="url(#clip410)" d="M139.328 1202.58 Q145.694 1205.06 147.635 1207.42 Q149.577 1209.77 149.577 1213.72 L149.577 1218.4 L144.675 1218.4 L144.675 1214.96 Q144.675 1212.54 143.529 1211.21 Q142.383 1209.87 138.118 1208.25 L135.445 1207.2 L100.37 1221.61 L100.37 1215.41 L128.251 1204.27 L100.37 1193.13 L100.37 1186.92 L139.328 1202.58 Z" fill="#000000" fill-rule="nonzero" fill-opacity="1" /><path clip-path="url(#clip410)" d="M1265.17 1076.21 L1265.17 1092.94 Q1273.23 1092.94 1278.62 1099.14 Q1284.17 1105.46 1284.17 1116.6 Q1284.17 1127.74 1278.62 1134.06 Q1273.23 1140.26 1265.17 1140.26 L1265.17 1156.5 L1257.76 1156.5 L1257.76 1140.26 Q1249.69 1140.26 1244.27 1134.06 Q1238.76 1127.74 1238.76 1116.6 Q1238.76 1105.46 1244.27 1099.14 Q1249.69 1092.94 1257.76 1092.94 L1257.76 1076.21 L1265.17 1076.21 M1265.17 1133.61 Q1269.75 1133.61 1272.86 1129.44 Q1276.27 1124.78 1276.31 1116.6 Q1276.35 1108.5 1272.86 1103.76 Q1269.75 1099.58 1265.17 1099.58 L1265.17 1133.61 M1257.76 1133.61 L1257.76 1099.58 Q1253.18 1099.58 1250.1 1103.76 Q1246.57 1108.5 1246.62 1116.6 Q1246.66 1124.78 1250.1 1129.44 Q1253.18 1133.61 1257.76 1133.61 Z" fill="#000000" fill-rule="nonzero" fill-opacity="1" /><path clip-path="url(#clip410)" d="M1294.5 1095.7 L1327.19 1095.7 L1327.19 1099.54 L1294.5 1099.54 L1294.5 1095.7 Z" fill="#000000" fill-rule="nonzero" fill-opacity="1" /><path clip-path="url(#clip410)" d="M1339.06 1107.73 L1347.32 1107.73 L1347.32 1082.98 L1338.29 1084.64 L1338.29 1079.94 L1347.6 1078.36 L1353.15 1078.36 L1353.15 1107.73 L1361.46 1107.73 L1361.46 1112.18 L1339.06 1112.18 L1339.06 1107.73 Z" fill="#000000" fill-rule="nonzero" fill-opacity="1" /><polyline clip-path="url(#clip414)" style="stroke:#009af9; stroke-linecap:round; stroke-linejoin:round; stroke-width:4; stroke-opacity:1; fill:none" points="307.043,1386.5 319.08,1378.16 331.117,1368.44 343.154,1357.37 355.191,1345.06 367.228,1331.73 379.265,1317.65 391.303,1303.18 403.34,1288.7 415.377,1274.6 427.414,1261.22 439.451,1248.89 451.488,1237.86 463.526,1228.31 475.563,1220.3 487.6,1213.79 499.637,1208.63 511.674,1204.63 523.711,1201.57 535.748,1199.28 547.786,1197.69 559.823,1196.8 571.86,1196.73 583.897,1197.64 595.934,1199.69 607.971,1202.98 620.008,1207.55 632.046,1213.3 644.083,1219.97 656.12,1227.22 668.157,1234.6 680.194,1241.66 692.231,1248.01 704.268,1253.41 716.306,1257.78 728.343,1261.23 740.38,1264.05 752.417,1266.62 764.454,1269.34 776.491,1272.57 788.529,1276.55 800.566,1281.39 812.603,1287.04 824.64,1293.34 836.677,1300.06 848.714,1306.96 860.751,1313.78 872.789,1320.34 884.826,1326.51 896.863,1332.21 908.9,1337.41 920.937,1342.13 932.974,1346.41 945.011,1350.27 957.049,1353.77 969.086,1356.96 981.123,1359.9 993.16,1362.7 1005.2,1365.44 1017.23,1368.23 1029.27,1371.13 1041.31,1374.12 1053.35,1377.16 1065.38,1380.12 1077.42,1382.87 1089.46,1385.29 1101.49,1387.3 1113.53,1388.9 1125.57,1390.14 1137.61,1391.11 1149.64,1391.91 1161.68,1392.62 1173.72,1393.33 1185.75,1394.06 1197.79,1394.84 1209.83,1395.67 1221.87,1396.57 1233.9,1397.56 1245.94,1398.64 1257.98,1399.85 1270.01,1401.15 1282.05,1402.53 1294.09,1403.9 1306.13,1405.2 1318.16,1406.35 1330.2,1407.28 1342.24,1407.97 1354.27,1408.43 1366.31,1408.67 1378.35,1408.76 1390.39,1408.76 1402.42,1408.74 1414.46,1408.76 1426.5,1408.91 1438.53,1409.22 1450.57,1409.74 1462.61,1410.45 1474.65,1411.31 1486.68,1412.26 1498.72,1413.22 1510.76,1414.11 1522.79,1414.87 1534.83,1415.48 1546.87,1415.93 1558.91,1416.24 1570.94,1416.44 1582.98,1416.55 1595.02,1416.58 1607.05,1416.57 1619.09,1416.51 1631.13,1416.42 1643.17,1416.3 1655.2,1416.16 1667.24,1416.01 1679.28,1415.86 1691.31,1415.71 1703.35,1415.58 1715.39,1415.46 1727.43,1415.33 1739.46,1415.18 1751.5,1415.01 1763.54,1414.8 1775.57,1414.59 1787.61,1414.39 1799.65,1414.23 1811.69,1414.14 1823.72,1414.14 1835.76,1414.23 1847.8,1414.38 1859.83,1414.56 1871.87,1414.75 1883.91,1414.89 1895.95,1414.99 1907.98,1415.03 1920.02,1415.03 1932.06,1415.03 1944.09,1415.04 1956.13,1415.08 1968.17,1415.17 1980.21,1415.31 1992.24,1415.48 2004.28,1415.66 2016.32,1415.83 2028.35,1415.97 2040.39,1416.05 2052.43,1416.08 2064.47,1416.05 2076.5,1415.99 2088.54,1415.89 2100.58,1415.79 2112.61,1415.69 2124.65,1415.62 2136.69,1415.56 2148.73,1415.53 2160.76,1415.51 2172.8,1415.5 2184.84,1415.5 2196.87,1415.51 2208.91,1415.53 2220.95,1415.55 2232.99,1415.58 2245.02,1415.6 2257.06,1415.61 2269.1,1415.63 2281.13,1415.65 2293.17,1415.68 "/>
<polyline clip-path="url(#clip414)" style="stroke:#e26f46; stroke-linecap:round; stroke-linejoin:round; stroke-width:4; stroke-opacity:1; fill:none" points="531.048,1656.22 531.048,957.098 "/>
</svg>
