<?xml version="1.0" encoding="utf-8"?>
<svg xmlns="http://www.w3.org/2000/svg" xmlns:xlink="http://www.w3.org/1999/xlink" width="600" height="400" viewBox="0 0 2400 1600">
<defs>
  <clipPath id="clip700">
    <rect x="0" y="0" width="2400" height="1600"/>
  </clipPath>
</defs>
<path clip-path="url(#clip700)" d="M0 1600 L2400 1600 L2400 0 L0 0  Z" fill="#ffffff" fill-rule="evenodd" fill-opacity="1"/>
<defs>
  <clipPath id="clip701">
    <rect x="480" y="0" width="1681" height="1600"/>
  </clipPath>
</defs>
<path clip-path="url(#clip700)" d="M172.015 1423.18 L2352.76 1423.18 L2352.76 47.2441 L172.015 47.2441  Z" fill="#ffffff" fill-rule="evenodd" fill-opacity="1"/>
<defs>
  <clipPath id="clip702">
    <rect x="172" y="47" width="2182" height="1377"/>
  </clipPath>
</defs>
<polyline clip-path="url(#clip702)" style="stroke:#000000; stroke-linecap:round; stroke-linejoin:round; stroke-width:2; stroke-opacity:0.1; fill:none" points="172.015,1423.18 172.015,47.2441 "/>
<polyline clip-path="url(#clip702)" style="stroke:#000000; stroke-linecap:round; stroke-linejoin:round; stroke-width:2; stroke-opacity:0.1; fill:none" points="483.549,1423.18 483.549,47.2441 "/>
<polyline clip-path="url(#clip702)" style="stroke:#000000; stroke-linecap:round; stroke-linejoin:round; stroke-width:2; stroke-opacity:0.1; fill:none" points="795.084,1423.18 795.084,47.2441 "/>
<polyline clip-path="url(#clip702)" style="stroke:#000000; stroke-linecap:round; stroke-linejoin:round; stroke-width:2; stroke-opacity:0.1; fill:none" points="1106.62,1423.18 1106.62,47.2441 "/>
<polyline clip-path="url(#clip702)" style="stroke:#000000; stroke-linecap:round; stroke-linejoin:round; stroke-width:2; stroke-opacity:0.1; fill:none" points="1418.15,1423.18 1418.15,47.2441 "/>
<polyline clip-path="url(#clip702)" style="stroke:#000000; stroke-linecap:round; stroke-linejoin:round; stroke-width:2; stroke-opacity:0.1; fill:none" points="1729.69,1423.18 1729.69,47.2441 "/>
<polyline clip-path="url(#clip702)" style="stroke:#000000; stroke-linecap:round; stroke-linejoin:round; stroke-width:2; stroke-opacity:0.1; fill:none" points="2041.22,1423.18 2041.22,47.2441 "/>
<polyline clip-path="url(#clip702)" style="stroke:#000000; stroke-linecap:round; stroke-linejoin:round; stroke-width:2; stroke-opacity:0.1; fill:none" points="2352.76,1423.18 2352.76,47.2441 "/>
<polyline clip-path="url(#clip700)" style="stroke:#000000; stroke-linecap:round; stroke-linejoin:round; stroke-width:4; stroke-opacity:1; fill:none" points="172.015,1423.18 2352.76,1423.18 "/>
<polyline clip-path="url(#clip700)" style="stroke:#000000; stroke-linecap:round; stroke-linejoin:round; stroke-width:4; stroke-opacity:1; fill:none" points="172.015,1423.18 172.015,1404.28 "/>
<polyline clip-path="url(#clip700)" style="stroke:#000000; stroke-linecap:round; stroke-linejoin:round; stroke-width:4; stroke-opacity:1; fill:none" points="483.549,1423.18 483.549,1404.28 "/>
<polyline clip-path="url(#clip700)" style="stroke:#000000; stroke-linecap:round; stroke-linejoin:round; stroke-width:4; stroke-opacity:1; fill:none" points="795.084,1423.18 795.084,1404.28 "/>
<polyline clip-path="url(#clip700)" style="stroke:#000000; stroke-linecap:round; stroke-linejoin:round; stroke-width:4; stroke-opacity:1; fill:none" points="1106.62,1423.18 1106.62,1404.28 "/>
<polyline clip-path="url(#clip700)" style="stroke:#000000; stroke-linecap:round; stroke-linejoin:round; stroke-width:4; stroke-opacity:1; fill:none" points="1418.15,1423.18 1418.15,1404.28 "/>
<polyline clip-path="url(#clip700)" style="stroke:#000000; stroke-linecap:round; stroke-linejoin:round; stroke-width:4; stroke-opacity:1; fill:none" points="1729.69,1423.18 1729.69,1404.28 "/>
<polyline clip-path="url(#clip700)" style="stroke:#000000; stroke-linecap:round; stroke-linejoin:round; stroke-width:4; stroke-opacity:1; fill:none" points="2041.22,1423.18 2041.22,1404.28 "/>
<polyline clip-path="url(#clip700)" style="stroke:#000000; stroke-linecap:round; stroke-linejoin:round; stroke-width:4; stroke-opacity:1; fill:none" points="2352.76,1423.18 2352.76,1404.28 "/>
<path clip-path="url(#clip700)" d="M172.015 1454.1 Q168.404 1454.1 166.575 1457.66 Q164.769 1461.2 164.769 1468.33 Q164.769 1475.44 166.575 1479.01 Q168.404 1482.55 172.015 1482.55 Q175.649 1482.55 177.455 1479.01 Q179.283 1475.44 179.283 1468.33 Q179.283 1461.2 177.455 1457.66 Q175.649 1454.1 172.015 1454.1 M172.015 1450.39 Q177.825 1450.39 180.881 1455 Q183.959 1459.58 183.959 1468.33 Q183.959 1477.06 180.881 1481.67 Q177.825 1486.25 172.015 1486.25 Q166.205 1486.25 163.126 1481.67 Q160.07 1477.06 160.07 1468.33 Q160.07 1459.58 163.126 1455 Q166.205 1450.39 172.015 1450.39 Z" fill="#000000" fill-rule="nonzero" fill-opacity="1" /><path clip-path="url(#clip700)" d="M478.202 1481.64 L494.521 1481.64 L494.521 1485.58 L472.577 1485.58 L472.577 1481.64 Q475.239 1478.89 479.822 1474.26 Q484.429 1469.61 485.609 1468.27 Q487.855 1465.74 488.734 1464.01 Q489.637 1462.25 489.637 1460.56 Q489.637 1457.8 487.693 1456.07 Q485.771 1454.33 482.67 1454.33 Q480.471 1454.33 478.017 1455.09 Q475.586 1455.86 472.809 1457.41 L472.809 1452.69 Q475.633 1451.55 478.086 1450.97 Q480.54 1450.39 482.577 1450.39 Q487.947 1450.39 491.142 1453.08 Q494.336 1455.77 494.336 1460.26 Q494.336 1462.39 493.526 1464.31 Q492.739 1466.2 490.633 1468.8 Q490.054 1469.47 486.952 1472.69 Q483.85 1475.88 478.202 1481.64 Z" fill="#000000" fill-rule="nonzero" fill-opacity="1" /><path clip-path="url(#clip700)" d="M798.093 1455.09 L786.287 1473.54 L798.093 1473.54 L798.093 1455.09 M796.866 1451.02 L802.746 1451.02 L802.746 1473.54 L807.676 1473.54 L807.676 1477.43 L802.746 1477.43 L802.746 1485.58 L798.093 1485.58 L798.093 1477.43 L782.491 1477.43 L782.491 1472.92 L796.866 1451.02 Z" fill="#000000" fill-rule="nonzero" fill-opacity="1" /><path clip-path="url(#clip700)" d="M1107.02 1466.44 Q1103.88 1466.44 1102.02 1468.59 Q1100.19 1470.74 1100.19 1474.49 Q1100.19 1478.22 1102.02 1480.39 Q1103.88 1482.55 1107.02 1482.55 Q1110.17 1482.55 1112 1480.39 Q1113.85 1478.22 1113.85 1474.49 Q1113.85 1470.74 1112 1468.59 Q1110.17 1466.44 1107.02 1466.44 M1116.31 1451.78 L1116.31 1456.04 Q1114.55 1455.21 1112.74 1454.77 Q1110.96 1454.33 1109.2 1454.33 Q1104.57 1454.33 1102.12 1457.45 Q1099.69 1460.58 1099.34 1466.9 Q1100.7 1464.89 1102.76 1463.82 Q1104.82 1462.73 1107.3 1462.73 Q1112.51 1462.73 1115.52 1465.9 Q1118.55 1469.05 1118.55 1474.49 Q1118.55 1479.82 1115.4 1483.03 Q1112.25 1486.25 1107.02 1486.25 Q1101.03 1486.25 1097.86 1481.67 Q1094.69 1477.06 1094.69 1468.33 Q1094.69 1460.14 1098.57 1455.28 Q1102.46 1450.39 1109.01 1450.39 Q1110.77 1450.39 1112.56 1450.74 Q1114.36 1451.09 1116.31 1451.78 Z" fill="#000000" fill-rule="nonzero" fill-opacity="1" /><path clip-path="url(#clip700)" d="M1418.15 1469.17 Q1414.82 1469.17 1412.9 1470.95 Q1411 1472.73 1411 1475.86 Q1411 1478.98 1412.9 1480.77 Q1414.82 1482.55 1418.15 1482.55 Q1421.49 1482.55 1423.41 1480.77 Q1425.33 1478.96 1425.33 1475.86 Q1425.33 1472.73 1423.41 1470.95 Q1421.51 1469.17 1418.15 1469.17 M1413.48 1467.18 Q1410.47 1466.44 1408.78 1464.38 Q1407.11 1462.32 1407.11 1459.35 Q1407.11 1455.21 1410.05 1452.8 Q1413.01 1450.39 1418.15 1450.39 Q1423.31 1450.39 1426.25 1452.8 Q1429.19 1455.21 1429.19 1459.35 Q1429.19 1462.32 1427.5 1464.38 Q1425.84 1466.44 1422.85 1467.18 Q1426.23 1467.96 1428.11 1470.26 Q1430 1472.55 1430 1475.86 Q1430 1480.88 1426.93 1483.57 Q1423.87 1486.25 1418.15 1486.25 Q1412.44 1486.25 1409.36 1483.57 Q1406.3 1480.88 1406.3 1475.86 Q1406.3 1472.55 1408.2 1470.26 Q1410.1 1467.96 1413.48 1467.18 M1411.76 1459.79 Q1411.76 1462.48 1413.43 1463.98 Q1415.12 1465.49 1418.15 1465.49 Q1421.16 1465.49 1422.85 1463.98 Q1424.56 1462.48 1424.56 1459.79 Q1424.56 1457.11 1422.85 1455.6 Q1421.16 1454.1 1418.15 1454.1 Q1415.12 1454.1 1413.43 1455.6 Q1411.76 1457.11 1411.76 1459.79 Z" fill="#000000" fill-rule="nonzero" fill-opacity="1" /><path clip-path="url(#clip700)" d="M1704.37 1481.64 L1712.01 1481.64 L1712.01 1455.28 L1703.7 1456.95 L1703.7 1452.69 L1711.97 1451.02 L1716.64 1451.02 L1716.64 1481.64 L1724.28 1481.64 L1724.28 1485.58 L1704.37 1485.58 L1704.37 1481.64 Z" fill="#000000" fill-rule="nonzero" fill-opacity="1" /><path clip-path="url(#clip700)" d="M1743.73 1454.1 Q1740.12 1454.1 1738.29 1457.66 Q1736.48 1461.2 1736.48 1468.33 Q1736.48 1475.44 1738.29 1479.01 Q1740.12 1482.55 1743.73 1482.55 Q1747.36 1482.55 1749.17 1479.01 Q1750.99 1475.44 1750.99 1468.33 Q1750.99 1461.2 1749.17 1457.66 Q1747.36 1454.1 1743.73 1454.1 M1743.73 1450.39 Q1749.54 1450.39 1752.59 1455 Q1755.67 1459.58 1755.67 1468.33 Q1755.67 1477.06 1752.59 1481.67 Q1749.54 1486.25 1743.73 1486.25 Q1737.92 1486.25 1734.84 1481.67 Q1731.78 1477.06 1731.78 1468.33 Q1731.78 1459.58 1734.84 1455 Q1737.92 1450.39 1743.73 1450.39 Z" fill="#000000" fill-rule="nonzero" fill-opacity="1" /><path clip-path="url(#clip700)" d="M2016.71 1481.64 L2024.35 1481.64 L2024.35 1455.28 L2016.04 1456.95 L2016.04 1452.69 L2024.3 1451.02 L2028.98 1451.02 L2028.98 1481.64 L2036.62 1481.64 L2036.62 1485.58 L2016.71 1485.58 L2016.71 1481.64 Z" fill="#000000" fill-rule="nonzero" fill-opacity="1" /><path clip-path="url(#clip700)" d="M2050.09 1481.64 L2066.41 1481.64 L2066.41 1485.58 L2044.46 1485.58 L2044.46 1481.64 Q2047.12 1478.89 2051.71 1474.26 Q2056.31 1469.61 2057.49 1468.27 Q2059.74 1465.74 2060.62 1464.01 Q2061.52 1462.25 2061.52 1460.56 Q2061.52 1457.8 2059.58 1456.07 Q2057.66 1454.33 2054.55 1454.33 Q2052.36 1454.33 2049.9 1455.09 Q2047.47 1455.86 2044.69 1457.41 L2044.69 1452.69 Q2047.52 1451.55 2049.97 1450.97 Q2052.43 1450.39 2054.46 1450.39 Q2059.83 1450.39 2063.03 1453.08 Q2066.22 1455.77 2066.22 1460.26 Q2066.22 1462.39 2065.41 1464.31 Q2064.62 1466.2 2062.52 1468.8 Q2061.94 1469.47 2058.84 1472.69 Q2055.74 1475.88 2050.09 1481.64 Z" fill="#000000" fill-rule="nonzero" fill-opacity="1" /><path clip-path="url(#clip700)" d="M2327.2 1481.64 L2334.84 1481.64 L2334.84 1455.28 L2326.53 1456.95 L2326.53 1452.69 L2334.79 1451.02 L2339.47 1451.02 L2339.47 1481.64 L2347.11 1481.64 L2347.11 1485.58 L2327.2 1485.58 L2327.2 1481.64 Z" fill="#000000" fill-rule="nonzero" fill-opacity="1" /><path clip-path="url(#clip700)" d="M2369.4 1455.09 L2357.59 1473.54 L2369.4 1473.54 L2369.4 1455.09 M2368.17 1451.02 L2374.05 1451.02 L2374.05 1473.54 L2378.98 1473.54 L2378.98 1477.43 L2374.05 1477.43 L2374.05 1485.58 L2369.4 1485.58 L2369.4 1477.43 L2353.8 1477.43 L2353.8 1472.92 L2368.17 1451.02 Z" fill="#000000" fill-rule="nonzero" fill-opacity="1" /><path clip-path="url(#clip700)" d="M1056.76 1520.52 L1096.96 1520.52 L1096.96 1525.93 L1080.09 1525.93 L1080.09 1568.04 L1073.63 1568.04 L1073.63 1525.93 L1056.76 1525.93 L1056.76 1520.52 Z" fill="#000000" fill-rule="nonzero" fill-opacity="1" /><path clip-path="url(#clip700)" d="M1100.9 1532.4 L1106.76 1532.4 L1106.76 1568.04 L1100.9 1568.04 L1100.9 1532.4 M1100.9 1518.52 L1106.76 1518.52 L1106.76 1525.93 L1100.9 1525.93 L1100.9 1518.52 Z" fill="#000000" fill-rule="nonzero" fill-opacity="1" /><path clip-path="url(#clip700)" d="M1146.77 1539.24 Q1148.96 1535.29 1152.02 1533.41 Q1155.08 1531.54 1159.21 1531.54 Q1164.78 1531.54 1167.81 1535.45 Q1170.83 1539.33 1170.83 1546.53 L1170.83 1568.04 L1164.94 1568.04 L1164.94 1546.72 Q1164.94 1541.59 1163.13 1539.11 Q1161.31 1536.63 1157.59 1536.63 Q1153.04 1536.63 1150.4 1539.65 Q1147.75 1542.68 1147.75 1547.9 L1147.75 1568.04 L1141.87 1568.04 L1141.87 1546.72 Q1141.87 1541.56 1140.05 1539.11 Q1138.24 1536.63 1134.45 1536.63 Q1129.96 1536.63 1127.32 1539.68 Q1124.68 1542.71 1124.68 1547.9 L1124.68 1568.04 L1118.79 1568.04 L1118.79 1532.4 L1124.68 1532.4 L1124.68 1537.93 Q1126.68 1534.66 1129.49 1533.1 Q1132.29 1531.54 1136.14 1531.54 Q1140.02 1531.54 1142.73 1533.51 Q1145.46 1535.48 1146.77 1539.24 Z" fill="#000000" fill-rule="nonzero" fill-opacity="1" /><path clip-path="url(#clip700)" d="M1213 1548.76 L1213 1551.62 L1186.08 1551.62 Q1186.46 1557.67 1189.7 1560.85 Q1192.98 1564 1198.81 1564 Q1202.18 1564 1205.33 1563.17 Q1208.52 1562.35 1211.63 1560.69 L1211.63 1566.23 Q1208.48 1567.57 1205.17 1568.27 Q1201.86 1568.97 1198.46 1568.97 Q1189.93 1568.97 1184.93 1564 Q1179.97 1559.04 1179.97 1550.57 Q1179.97 1541.82 1184.68 1536.69 Q1189.42 1531.54 1197.44 1531.54 Q1204.63 1531.54 1208.8 1536.18 Q1213 1540.8 1213 1548.76 M1207.15 1547.04 Q1207.08 1542.23 1204.44 1539.37 Q1201.83 1536.5 1197.5 1536.5 Q1192.6 1536.5 1189.64 1539.27 Q1186.71 1542.04 1186.27 1547.07 L1207.15 1547.04 Z" fill="#000000" fill-rule="nonzero" fill-opacity="1" /><path clip-path="url(#clip700)" d="M1243.34 1532.4 L1249.19 1532.4 L1249.19 1568.04 L1243.34 1568.04 L1243.34 1532.4 M1243.34 1518.52 L1249.19 1518.52 L1249.19 1525.93 L1243.34 1525.93 L1243.34 1518.52 Z" fill="#000000" fill-rule="nonzero" fill-opacity="1" /><path clip-path="url(#clip700)" d="M1291.08 1546.53 L1291.08 1568.04 L1285.22 1568.04 L1285.22 1546.72 Q1285.22 1541.66 1283.25 1539.14 Q1281.28 1536.63 1277.33 1536.63 Q1272.59 1536.63 1269.85 1539.65 Q1267.11 1542.68 1267.11 1547.9 L1267.11 1568.04 L1261.22 1568.04 L1261.22 1532.4 L1267.11 1532.4 L1267.11 1537.93 Q1269.21 1534.72 1272.05 1533.13 Q1274.91 1531.54 1278.63 1531.54 Q1284.78 1531.54 1287.93 1535.36 Q1291.08 1539.14 1291.08 1546.53 Z" fill="#000000" fill-rule="nonzero" fill-opacity="1" /><path clip-path="url(#clip700)" d="M1346.94 1537.81 L1346.94 1518.52 L1352.79 1518.52 L1352.79 1568.04 L1346.94 1568.04 L1346.94 1562.7 Q1345.09 1565.88 1342.26 1567.44 Q1339.46 1568.97 1335.51 1568.97 Q1329.05 1568.97 1324.98 1563.81 Q1320.93 1558.65 1320.93 1550.25 Q1320.93 1541.85 1324.98 1536.69 Q1329.05 1531.54 1335.51 1531.54 Q1339.46 1531.54 1342.26 1533.1 Q1345.09 1534.62 1346.94 1537.81 M1326.98 1550.25 Q1326.98 1556.71 1329.62 1560.4 Q1332.3 1564.07 1336.94 1564.07 Q1341.59 1564.07 1344.26 1560.4 Q1346.94 1556.71 1346.94 1550.25 Q1346.94 1543.79 1344.26 1540.13 Q1341.59 1536.44 1336.94 1536.44 Q1332.3 1536.44 1329.62 1540.13 Q1326.98 1543.79 1326.98 1550.25 Z" fill="#000000" fill-rule="nonzero" fill-opacity="1" /><path clip-path="url(#clip700)" d="M1381.06 1550.12 Q1373.96 1550.12 1371.22 1551.75 Q1368.49 1553.37 1368.49 1557.29 Q1368.49 1560.4 1370.52 1562.25 Q1372.59 1564.07 1376.12 1564.07 Q1380.99 1564.07 1383.92 1560.63 Q1386.88 1557.16 1386.88 1551.43 L1386.88 1550.12 L1381.06 1550.12 M1392.74 1547.71 L1392.74 1568.04 L1386.88 1568.04 L1386.88 1562.63 Q1384.88 1565.88 1381.89 1567.44 Q1378.89 1568.97 1374.57 1568.97 Q1369.09 1568.97 1365.84 1565.91 Q1362.63 1562.82 1362.63 1557.67 Q1362.63 1551.65 1366.64 1548.6 Q1370.68 1545.54 1378.67 1545.54 L1386.88 1545.54 L1386.88 1544.97 Q1386.88 1540.93 1384.21 1538.73 Q1381.57 1536.5 1376.76 1536.5 Q1373.71 1536.5 1370.81 1537.23 Q1367.91 1537.97 1365.24 1539.43 L1365.24 1534.02 Q1368.45 1532.78 1371.48 1532.17 Q1374.5 1531.54 1377.37 1531.54 Q1385.1 1531.54 1388.92 1535.55 Q1392.74 1539.56 1392.74 1547.71 Z" fill="#000000" fill-rule="nonzero" fill-opacity="1" /><path clip-path="url(#clip700)" d="M1419.63 1571.35 Q1417.15 1577.72 1414.8 1579.66 Q1412.44 1581.6 1408.49 1581.6 L1403.82 1581.6 L1403.82 1576.7 L1407.25 1576.7 Q1409.67 1576.7 1411.01 1575.56 Q1412.35 1574.41 1413.97 1570.14 L1415.02 1567.47 L1400.6 1532.4 L1406.81 1532.4 L1417.95 1560.28 L1429.09 1532.4 L1435.29 1532.4 L1419.63 1571.35 Z" fill="#000000" fill-rule="nonzero" fill-opacity="1" /><path clip-path="url(#clip700)" d="M1466.1 1533.45 L1466.1 1538.98 Q1463.62 1537.71 1460.95 1537.07 Q1458.27 1536.44 1455.41 1536.44 Q1451.05 1536.44 1448.85 1537.77 Q1446.69 1539.11 1446.69 1541.79 Q1446.69 1543.82 1448.25 1545 Q1449.81 1546.15 1454.52 1547.2 L1456.52 1547.64 Q1462.76 1548.98 1465.37 1551.43 Q1468.01 1553.85 1468.01 1558.21 Q1468.01 1563.17 1464.07 1566.07 Q1460.15 1568.97 1453.28 1568.97 Q1450.41 1568.97 1447.29 1568.39 Q1444.21 1567.85 1440.77 1566.74 L1440.77 1560.69 Q1444.01 1562.38 1447.17 1563.24 Q1450.32 1564.07 1453.4 1564.07 Q1457.54 1564.07 1459.77 1562.66 Q1462 1561.23 1462 1558.65 Q1462 1556.27 1460.37 1554.99 Q1458.78 1553.72 1453.34 1552.54 L1451.3 1552.07 Q1445.86 1550.92 1443.44 1548.56 Q1441.02 1546.18 1441.02 1542.04 Q1441.02 1537.01 1444.59 1534.27 Q1448.15 1531.54 1454.71 1531.54 Q1457.96 1531.54 1460.82 1532.01 Q1463.68 1532.49 1466.1 1533.45 Z" fill="#000000" fill-rule="nonzero" fill-opacity="1" /><polyline clip-path="url(#clip702)" style="stroke:#000000; stroke-linecap:round; stroke-linejoin:round; stroke-width:2; stroke-opacity:0.1; fill:none" points="172.015,1384.24 2352.76,1384.24 "/>
<polyline clip-path="url(#clip702)" style="stroke:#000000; stroke-linecap:round; stroke-linejoin:round; stroke-width:2; stroke-opacity:0.1; fill:none" points="172.015,1043.54 2352.76,1043.54 "/>
<polyline clip-path="url(#clip702)" style="stroke:#000000; stroke-linecap:round; stroke-linejoin:round; stroke-width:2; stroke-opacity:0.1; fill:none" points="172.015,702.846 2352.76,702.846 "/>
<polyline clip-path="url(#clip702)" style="stroke:#000000; stroke-linecap:round; stroke-linejoin:round; stroke-width:2; stroke-opacity:0.1; fill:none" points="172.015,362.15 2352.76,362.15 "/>
<polyline clip-path="url(#clip700)" style="stroke:#000000; stroke-linecap:round; stroke-linejoin:round; stroke-width:4; stroke-opacity:1; fill:none" points="172.015,1423.18 172.015,47.2441 "/>
<polyline clip-path="url(#clip700)" style="stroke:#000000; stroke-linecap:round; stroke-linejoin:round; stroke-width:4; stroke-opacity:1; fill:none" points="172.015,1384.24 190.912,1384.24 "/>
<polyline clip-path="url(#clip700)" style="stroke:#000000; stroke-linecap:round; stroke-linejoin:round; stroke-width:4; stroke-opacity:1; fill:none" points="172.015,1043.54 190.912,1043.54 "/>
<polyline clip-path="url(#clip700)" style="stroke:#000000; stroke-linecap:round; stroke-linejoin:round; stroke-width:4; stroke-opacity:1; fill:none" points="172.015,702.846 190.912,702.846 "/>
<polyline clip-path="url(#clip700)" style="stroke:#000000; stroke-linecap:round; stroke-linejoin:round; stroke-width:4; stroke-opacity:1; fill:none" points="172.015,362.15 190.912,362.15 "/>
<path clip-path="url(#clip700)" d="M124.07 1370.04 Q120.459 1370.04 118.631 1373.6 Q116.825 1377.14 116.825 1384.27 Q116.825 1391.38 118.631 1394.94 Q120.459 1398.49 124.07 1398.49 Q127.705 1398.49 129.51 1394.94 Q131.339 1391.38 131.339 1384.27 Q131.339 1377.14 129.51 1373.6 Q127.705 1370.04 124.07 1370.04 M124.07 1366.33 Q129.881 1366.33 132.936 1370.94 Q136.015 1375.52 136.015 1384.27 Q136.015 1393 132.936 1397.61 Q129.881 1402.19 124.07 1402.19 Q118.26 1402.19 115.182 1397.61 Q112.126 1393 112.126 1384.27 Q112.126 1375.52 115.182 1370.94 Q118.26 1366.33 124.07 1366.33 Z" fill="#000000" fill-rule="nonzero" fill-opacity="1" /><path clip-path="url(#clip700)" d="M57.7745 1056.89 L74.0939 1056.89 L74.0939 1060.82 L52.1495 1060.82 L52.1495 1056.89 Q54.8115 1054.13 59.3949 1049.5 Q64.0013 1044.85 65.1819 1043.51 Q67.4272 1040.98 68.3068 1039.25 Q69.2096 1037.49 69.2096 1035.8 Q69.2096 1033.04 67.2652 1031.31 Q65.3439 1029.57 62.2421 1029.57 Q60.043 1029.57 57.5893 1030.34 Q55.1588 1031.1 52.381 1032.65 L52.381 1027.93 Q55.2051 1026.79 57.6588 1026.22 Q60.1124 1025.64 62.1495 1025.64 Q67.5198 1025.64 70.7142 1028.32 Q73.9087 1031.01 73.9087 1035.5 Q73.9087 1037.63 73.0985 1039.55 Q72.3115 1041.45 70.205 1044.04 Q69.6263 1044.71 66.5245 1047.93 Q63.4226 1051.12 57.7745 1056.89 Z" fill="#000000" fill-rule="nonzero" fill-opacity="1" /><path clip-path="url(#clip700)" d="M93.9086 1029.34 Q90.2975 1029.34 88.4688 1032.91 Q86.6632 1036.45 86.6632 1043.58 Q86.6632 1050.68 88.4688 1054.25 Q90.2975 1057.79 93.9086 1057.79 Q97.5428 1057.79 99.3483 1054.25 Q101.177 1050.68 101.177 1043.58 Q101.177 1036.45 99.3483 1032.91 Q97.5428 1029.34 93.9086 1029.34 M93.9086 1025.64 Q99.7187 1025.64 102.774 1030.24 Q105.853 1034.83 105.853 1043.58 Q105.853 1052.3 102.774 1056.91 Q99.7187 1061.49 93.9086 1061.49 Q88.0984 1061.49 85.0197 1056.91 Q81.9642 1052.3 81.9642 1043.58 Q81.9642 1034.83 85.0197 1030.24 Q88.0984 1025.64 93.9086 1025.64 Z" fill="#000000" fill-rule="nonzero" fill-opacity="1" /><path clip-path="url(#clip700)" d="M124.07 1029.34 Q120.459 1029.34 118.631 1032.91 Q116.825 1036.45 116.825 1043.58 Q116.825 1050.68 118.631 1054.25 Q120.459 1057.79 124.07 1057.79 Q127.705 1057.79 129.51 1054.25 Q131.339 1050.68 131.339 1043.58 Q131.339 1036.45 129.51 1032.91 Q127.705 1029.34 124.07 1029.34 M124.07 1025.64 Q129.881 1025.64 132.936 1030.24 Q136.015 1034.83 136.015 1043.58 Q136.015 1052.3 132.936 1056.91 Q129.881 1061.49 124.07 1061.49 Q118.26 1061.49 115.182 1056.91 Q112.126 1052.3 112.126 1043.58 Q112.126 1034.83 115.182 1030.24 Q118.26 1025.64 124.07 1025.64 Z" fill="#000000" fill-rule="nonzero" fill-opacity="1" /><path clip-path="url(#clip700)" d="M66.5939 689.64 L54.7884 708.089 L66.5939 708.089 L66.5939 689.64 M65.367 685.566 L71.2466 685.566 L71.2466 708.089 L76.1772 708.089 L76.1772 711.978 L71.2466 711.978 L71.2466 720.126 L66.5939 720.126 L66.5939 711.978 L50.9921 711.978 L50.9921 707.464 L65.367 685.566 Z" fill="#000000" fill-rule="nonzero" fill-opacity="1" /><path clip-path="url(#clip700)" d="M93.9086 688.645 Q90.2975 688.645 88.4688 692.209 Q86.6632 695.751 86.6632 702.881 Q86.6632 709.987 88.4688 713.552 Q90.2975 717.093 93.9086 717.093 Q97.5428 717.093 99.3483 713.552 Q101.177 709.987 101.177 702.881 Q101.177 695.751 99.3483 692.209 Q97.5428 688.645 93.9086 688.645 M93.9086 684.941 Q99.7187 684.941 102.774 689.547 Q105.853 694.131 105.853 702.881 Q105.853 711.607 102.774 716.214 Q99.7187 720.797 93.9086 720.797 Q88.0984 720.797 85.0197 716.214 Q81.9642 711.607 81.9642 702.881 Q81.9642 694.131 85.0197 689.547 Q88.0984 684.941 93.9086 684.941 Z" fill="#000000" fill-rule="nonzero" fill-opacity="1" /><path clip-path="url(#clip700)" d="M124.07 688.645 Q120.459 688.645 118.631 692.209 Q116.825 695.751 116.825 702.881 Q116.825 709.987 118.631 713.552 Q120.459 717.093 124.07 717.093 Q127.705 717.093 129.51 713.552 Q131.339 709.987 131.339 702.881 Q131.339 695.751 129.51 692.209 Q127.705 688.645 124.07 688.645 M124.07 684.941 Q129.881 684.941 132.936 689.547 Q136.015 694.131 136.015 702.881 Q136.015 711.607 132.936 716.214 Q129.881 720.797 124.07 720.797 Q118.26 720.797 115.182 716.214 Q112.126 711.607 112.126 702.881 Q112.126 694.131 115.182 689.547 Q118.26 684.941 124.07 684.941 Z" fill="#000000" fill-rule="nonzero" fill-opacity="1" /><path clip-path="url(#clip700)" d="M64.3254 360.286 Q61.1773 360.286 59.3254 362.439 Q57.4967 364.592 57.4967 368.342 Q57.4967 372.069 59.3254 374.244 Q61.1773 376.397 64.3254 376.397 Q67.4735 376.397 69.3022 374.244 Q71.1541 372.069 71.1541 368.342 Q71.1541 364.592 69.3022 362.439 Q67.4735 360.286 64.3254 360.286 M73.6077 345.633 L73.6077 349.893 Q71.8485 349.059 70.0429 348.62 Q68.2606 348.18 66.5013 348.18 Q61.8717 348.18 59.418 351.305 Q56.9875 354.43 56.6402 360.749 Q58.006 358.735 60.0662 357.67 Q62.1263 356.583 64.6032 356.583 Q69.8115 356.583 72.8207 359.754 Q75.8531 362.902 75.8531 368.342 Q75.8531 373.666 72.705 376.883 Q69.5568 380.101 64.3254 380.101 Q58.33 380.101 55.1588 375.518 Q51.9875 370.911 51.9875 362.184 Q51.9875 353.99 55.8764 349.129 Q59.7652 344.245 66.3161 344.245 Q68.0754 344.245 69.8578 344.592 Q71.6633 344.939 73.6077 345.633 Z" fill="#000000" fill-rule="nonzero" fill-opacity="1" /><path clip-path="url(#clip700)" d="M93.9086 347.948 Q90.2975 347.948 88.4688 351.513 Q86.6632 355.055 86.6632 362.184 Q86.6632 369.291 88.4688 372.856 Q90.2975 376.397 93.9086 376.397 Q97.5428 376.397 99.3483 372.856 Q101.177 369.291 101.177 362.184 Q101.177 355.055 99.3483 351.513 Q97.5428 347.948 93.9086 347.948 M93.9086 344.245 Q99.7187 344.245 102.774 348.851 Q105.853 353.434 105.853 362.184 Q105.853 370.911 102.774 375.518 Q99.7187 380.101 93.9086 380.101 Q88.0984 380.101 85.0197 375.518 Q81.9642 370.911 81.9642 362.184 Q81.9642 353.434 85.0197 348.851 Q88.0984 344.245 93.9086 344.245 Z" fill="#000000" fill-rule="nonzero" fill-opacity="1" /><path clip-path="url(#clip700)" d="M124.07 347.948 Q120.459 347.948 118.631 351.513 Q116.825 355.055 116.825 362.184 Q116.825 369.291 118.631 372.856 Q120.459 376.397 124.07 376.397 Q127.705 376.397 129.51 372.856 Q131.339 369.291 131.339 362.184 Q131.339 355.055 129.51 351.513 Q127.705 347.948 124.07 347.948 M124.07 344.245 Q129.881 344.245 132.936 348.851 Q136.015 353.434 136.015 362.184 Q136.015 370.911 132.936 375.518 Q129.881 380.101 124.07 380.101 Q118.26 380.101 115.182 375.518 Q112.126 370.911 112.126 362.184 Q112.126 353.434 115.182 348.851 Q118.26 344.245 124.07 344.245 Z" fill="#000000" fill-rule="nonzero" fill-opacity="1" /><polyline clip-path="url(#clip702)" style="stroke:#009af9; stroke-linecap:round; stroke-linejoin:round; stroke-width:8; stroke-opacity:0.5; fill:none" points="172.015,86.1857 174.198,86.2258 176.381,86.2666 178.564,86.3082 180.747,86.3504 182.929,86.3934 185.112,86.4371 187.295,86.4816 189.478,86.5269 191.661,86.5729 193.844,86.6197 196.027,86.6673 198.21,86.7158 200.393,86.7651 202.576,86.8152 204.759,86.8662 206.942,86.9181 209.125,86.9709 211.307,87.0246 213.49,87.0792 215.673,87.1347 217.856,87.1912 220.039,87.2487 222.222,87.3072 224.405,87.3667 226.588,87.4272 228.771,87.4887 230.954,87.5513 233.137,87.615 235.32,87.6798 237.503,87.7457 239.685,87.8127 241.868,87.8809 244.051,87.9503 246.234,88.0208 248.417,88.0926 250.6,88.1656 252.783,88.2398 254.966,88.3154 257.149,88.3922 259.332,88.4703 261.515,88.5498 263.698,88.6307 265.881,88.713 268.063,88.7966 270.246,88.8817 272.429,88.9683 274.612,89.0563 276.795,89.1459 278.978,89.237 281.161,89.3297 283.344,89.4239 285.527,89.5198 287.71,89.6173 289.893,89.7165 292.076,89.8174 294.259,89.92 296.441,90.0244 298.624,90.1306 300.807,90.2386 302.99,90.3484 305.173,90.4601 307.356,90.5738 309.539,90.6893 311.722,90.8069 313.905,90.9265 316.088,91.0481 318.271,91.1718 320.454,91.2976 322.637,91.4256 324.819,91.5557 327.002,91.6881 329.185,91.8228 331.368,91.9597 333.551,92.099 335.734,92.2406 337.917,92.3847 340.1,92.5313 342.283,92.6803 344.466,92.8319 346.649,92.986 348.832,93.1428 351.015,93.3023 353.198,93.4645 355.38,93.6294 357.563,93.7972 359.746,93.9678 361.929,94.1413 364.112,94.3178 366.295,94.4973 368.478,94.6798 370.661,94.8654 372.844,95.0542 375.027,95.2461 377.21,95.4414 379.393,95.6399 381.576,95.8418 383.758,96.0472 385.941,96.256 388.124,96.4684 390.307,96.6843 392.49,96.9039 394.673,97.1272 396.856,97.3543 399.039,97.5853 401.222,97.8201 403.405,98.0589 405.588,98.3018 407.771,98.5487 409.954,98.7998 412.136,99.0552 414.319,99.3149 416.502,99.5789 418.685,99.8474 420.868,100.12 423.051,100.398 425.234,100.68 427.417,100.967 429.6,101.259 431.783,101.556 433.966,101.857 436.149,102.164 438.332,102.476 440.514,102.793 442.697,103.116 444.88,103.443 447.063,103.777 449.246,104.116 451.429,104.46 453.612,104.81 455.795,105.167 457.978,105.529 460.161,105.897 462.344,106.271 464.527,106.651 466.71,107.038 468.892,107.431 471.075,107.831 473.258,108.237 475.441,108.65 477.624,109.07 479.807,109.497 481.99,109.931 484.173,110.372 486.356,110.82 488.539,111.276 490.722,111.739 492.905,112.21 495.088,112.688 497.27,113.175 499.453,113.669 501.636,114.172 503.819,114.682 506.002,115.202 508.185,115.729 510.368,116.265 512.551,116.81 514.734,117.364 516.917,117.927 519.1,118.499 521.283,119.08 523.466,119.671 525.649,120.271 527.831,120.881 530.014,121.501 532.197,122.131 534.38,122.771 536.563,123.421 538.746,124.082 540.929,124.753 543.112,125.435 545.295,126.128 547.478,126.832 549.661,127.548 551.844,128.275 554.027,129.013 556.209,129.763 558.392,130.525 560.575,131.299 562.758,132.086 564.941,132.885 567.124,133.696 569.307,134.52 571.49,135.358 573.673,136.208 575.856,137.072 578.039,137.949 580.222,138.84 582.405,139.745 584.587,140.664 586.77,141.598 588.953,142.545 591.136,143.508 593.319,144.485 595.502,145.477 597.685,146.485 599.868,147.508 602.051,148.547 604.234,149.602 606.417,150.672 608.6,151.759 610.783,152.863 612.965,153.983 615.148,155.12 617.331,156.274 619.514,157.446 621.697,158.635 623.88,159.842 626.063,161.066 628.246,162.31 630.429,163.571 632.612,164.852 634.795,166.151 636.978,167.47 639.161,168.808 641.343,170.165 643.526,171.543 645.709,172.941 647.892,174.359 650.075,175.797 652.258,177.257 654.441,178.737 656.624,180.239 658.807,181.762 660.99,183.307 663.173,184.873 665.356,186.462 667.539,188.074 669.721,189.708 671.904,191.365 674.087,193.045 676.27,194.748 678.453,196.475 680.636,198.226 682.819,200 685.002,201.799 687.185,203.623 689.368,205.471 691.551,207.344 693.734,209.242 695.917,211.166 698.1,213.115 700.282,215.091 702.465,217.092 704.648,219.12 706.831,221.174 709.014,223.255 711.197,225.362 713.38,227.497 715.563,229.659 717.746,231.849 719.929,234.066 722.112,236.311 724.295,238.585 726.478,240.887 728.66,243.217 730.843,245.576 733.026,247.965 735.209,250.382 737.392,252.829 739.575,255.306 741.758,257.812 743.941,260.348 746.124,262.915 748.307,265.511 750.49,268.138 752.673,270.795 754.856,273.483 757.038,276.202 759.221,278.951 761.404,281.732 763.587,284.543 765.77,287.386 767.953,290.259 770.136,293.164 772.319,296.101 774.502,299.069 776.685,302.068 778.868,305.099 781.051,308.161 783.234,311.255 785.416,314.381 787.599,317.538 789.782,320.727 791.965,323.948 794.148,327.2 796.331,330.484 798.514,333.8 800.697,337.147 802.88,340.526 805.063,343.937 807.246,347.379 809.429,350.852 811.612,354.357 813.794,357.893 815.977,361.461 818.16,365.06 820.343,368.69 822.526,372.351 824.709,376.042 826.892,379.765 829.075,383.519 831.258,387.303 833.441,391.117 835.624,394.961 837.807,398.835 839.99,402.738 842.172,406.67 844.355,410.632 846.538,414.622 848.721,418.641 850.904,422.687 853.087,426.762 855.27,430.864 857.453,434.993 859.636,439.148 861.819,443.331 864.002,447.539 866.185,451.773 868.368,456.033 870.551,460.318 872.733,464.627 874.916,468.96 877.099,473.317 879.282,477.698 881.465,482.102 883.648,486.528 885.831,490.976 888.014,495.446 890.197,499.937 892.38,504.449 894.563,508.981 896.746,513.532 898.929,518.103 901.111,522.693 903.294,527.301 905.477,531.927 907.66,536.57 909.843,541.229 912.026,545.905 914.209,550.596 916.392,555.302 918.575,560.022 920.758,564.756 922.941,569.503 925.124,574.263 927.307,579.035 929.489,583.818 931.672,588.612 933.855,593.416 936.038,598.229 938.221,603.051 940.404,607.881 942.587,612.718 944.77,617.562 946.953,622.412 949.136,627.268 951.319,632.128 953.502,636.993 955.685,641.862 957.867,646.734 960.05,651.61 962.233,656.487 964.416,661.365 966.599,666.244 968.782,671.123 970.965,676.001 973.148,680.877 975.331,685.751 977.514,690.621 979.697,695.488 981.88,700.351 984.063,705.208 986.245,710.06 988.428,714.905 990.611,719.744 992.794,724.574 994.977,729.397 997.16,734.21 999.343,739.015 1001.53,743.809 1003.71,748.592 1005.89,753.364 1008.07,758.125 1010.26,762.873 1012.44,767.609 1014.62,772.331 1016.81,777.039 1018.99,781.732 1021.17,786.411 1023.36,791.075 1025.54,795.722 1027.72,800.353 1029.9,804.967 1032.09,809.564 1034.27,814.144 1036.45,818.705 1038.64,823.247 1040.82,827.77 1043,832.274 1045.18,836.758 1047.37,841.222 1049.55,845.665 1051.73,850.087 1053.92,854.488 1056.1,858.867 1058.28,863.224 1060.46,867.559 1062.65,871.871 1064.83,876.159 1067.01,880.425 1069.2,884.667 1071.38,888.884 1073.56,893.078 1075.75,897.247 1077.93,901.391 1080.11,905.51 1082.29,909.604 1084.48,913.672 1086.66,917.715 1088.84,921.732 1091.03,925.722 1093.21,929.686 1095.39,933.624 1097.57,937.535 1099.76,941.419 1101.94,945.276 1104.12,949.105 1106.31,952.908 1108.49,956.682 1110.67,960.43 1112.86,964.149 1115.04,967.84 1117.22,971.504 1119.4,975.139 1121.59,978.746 1123.77,982.324 1125.95,985.875 1128.14,989.398 1130.32,992.892 1132.5,996.358 1134.68,999.797 1136.87,1003.21 1139.05,1006.59 1141.23,1009.94 1143.42,1013.27 1145.6,1016.57 1147.78,1019.84 1149.96,1023.08 1152.15,1026.3 1154.33,1029.48 1156.51,1032.64 1158.7,1035.77 1160.88,1038.88 1163.06,1041.96 1165.25,1045 1167.43,1048.03 1169.61,1051.02 1171.79,1053.99 1173.98,1056.93 1176.16,1059.84 1178.34,1062.73 1180.53,1065.59 1182.71,1068.42 1184.89,1071.23 1187.07,1074.01 1189.26,1076.76 1191.44,1079.49 1193.62,1082.19 1195.81,1084.87 1197.99,1087.52 1200.17,1090.14 1202.35,1092.74 1204.54,1095.31 1206.72,1097.86 1208.9,1100.38 1211.09,1102.88 1213.27,1105.35 1215.45,1107.8 1217.64,1110.22 1219.82,1112.62 1222,1114.99 1224.18,1117.34 1226.37,1119.67 1228.55,1121.97 1230.73,1124.25 1232.92,1126.5 1235.1,1128.73 1237.28,1130.94 1239.46,1133.13 1241.65,1135.29 1243.83,1137.43 1246.01,1139.55 1248.2,1141.65 1250.38,1143.73 1252.56,1145.78 1254.75,1147.81 1256.93,1149.82 1259.11,1151.81 1261.29,1153.78 1263.48,1155.73 1265.66,1157.66 1267.84,1159.57 1270.03,1161.46 1272.21,1163.33 1274.39,1165.18 1276.57,1167 1278.76,1168.81 1280.94,1170.61 1283.12,1172.38 1285.31,1174.13 1287.49,1175.86 1289.67,1177.58 1291.85,1179.28 1294.04,1180.96 1296.22,1182.62 1298.4,1184.26 1300.59,1185.89 1302.77,1187.5 1304.95,1189.09 1307.14,1190.67 1309.32,1192.23 1311.5,1193.77 1313.68,1195.29 1315.87,1196.8 1318.05,1198.3 1320.23,1199.77 1322.42,1201.23 1324.6,1202.68 1326.78,1204.11 1328.96,1205.52 1331.15,1206.92 1333.33,1208.31 1335.51,1209.68 1337.7,1211.03 1339.88,1212.37 1342.06,1213.7 1344.25,1215.01 1346.43,1216.3 1348.61,1217.59 1350.79,1218.86 1352.98,1220.11 1355.16,1221.36 1357.34,1222.58 1359.53,1223.8 1361.71,1225 1363.89,1226.19 1366.07,1227.37 1368.26,1228.53 1370.44,1229.68 1372.62,1230.82 1374.81,1231.95 1376.99,1233.07 1379.17,1234.17 1381.35,1235.26 1383.54,1236.34 1385.72,1237.41 1387.9,1238.46 1390.09,1239.51 1392.27,1240.54 1394.45,1241.56 1396.64,1242.57 1398.82,1243.58 1401,1244.57 1403.18,1245.55 1405.37,1246.51 1407.55,1247.47 1409.73,1248.42 1411.92,1249.36 1414.1,1250.29 1416.28,1251.21 1418.46,1252.11 1420.65,1253.01 1422.83,1253.9 1425.01,1254.78 1427.2,1255.65 1429.38,1256.51 1431.56,1257.36 1433.74,1258.21 1435.93,1259.04 1438.11,1259.87 1440.29,1260.68 1442.48,1261.49 1444.66,1262.29 1446.84,1263.08 1449.03,1263.86 1451.21,1264.64 1453.39,1265.4 1455.57,1266.16 1457.76,1266.91 1459.94,1267.65 1462.12,1268.39 1464.31,1269.12 1466.49,1269.83 1468.67,1270.55 1470.85,1271.25 1473.04,1271.95 1475.22,1272.64 1477.4,1273.32 1479.59,1273.99 1481.77,1274.66 1483.95,1275.32 1486.14,1275.98 1488.32,1276.63 1490.5,1277.27 1492.68,1277.9 1494.87,1278.53 1497.05,1279.15 1499.23,1279.77 1501.42,1280.38 1503.6,1280.98 1505.78,1281.58 1507.96,1282.17 1510.15,1282.75 1512.33,1283.33 1514.51,1283.91 1516.7,1284.47 1518.88,1285.03 1521.06,1285.59 1523.24,1286.14 1525.43,1286.69 1527.61,1287.23 1529.79,1287.76 1531.98,1288.29 1534.16,1288.81 1536.34,1289.33 1538.53,1289.84 1540.71,1290.35 1542.89,1290.86 1545.07,1291.35 1547.26,1291.85 1549.44,1292.34 1551.62,1292.82 1553.81,1293.3 1555.99,1293.77 1558.17,1294.24 1560.35,1294.71 1562.54,1295.17 1564.72,1295.62 1566.9,1296.08 1569.09,1296.52 1571.27,1296.97 1573.45,1297.41 1575.63,1297.84 1577.82,1298.27 1580,1298.7 1582.18,1299.12 1584.37,1299.54 1586.55,1299.95 1588.73,1300.36 1590.92,1300.77 1593.1,1301.17 1595.28,1301.57 1597.46,1301.96 1599.65,1302.35 1601.83,1302.74 1604.01,1303.13 1606.2,1303.51 1608.38,1303.88 1610.56,1304.26 1612.74,1304.63 1614.93,1304.99 1617.11,1305.35 1619.29,1305.71 1621.48,1306.07 1623.66,1306.42 1625.84,1306.77 1628.03,1307.12 1630.21,1307.46 1632.39,1307.8 1634.57,1308.14 1636.76,1308.47 1638.94,1308.8 1641.12,1309.13 1643.31,1309.45 1645.49,1309.77 1647.67,1310.09 1649.85,1310.41 1652.04,1310.72 1654.22,1311.03 1656.4,1311.34 1658.59,1311.64 1660.77,1311.94 1662.95,1312.24 1665.13,1312.54 1667.32,1312.83 1669.5,1313.13 1671.68,1313.41 1673.87,1313.7 1676.05,1313.98 1678.23,1314.26 1680.42,1314.54 1682.6,1314.82 1684.78,1315.09 1686.96,1315.36 1689.15,1315.63 1691.33,1315.9 1693.51,1316.16 1695.7,1316.42 1697.88,1316.68 1700.06,1316.94 1702.24,1317.19 1704.43,1317.44 1706.61,1317.69 1708.79,1317.94 1710.98,1318.19 1713.16,1318.43 1715.34,1318.67 1717.53,1318.91 1719.71,1319.15 1721.89,1319.38 1724.07,1319.62 1726.26,1319.85 1728.44,1320.08 1730.62,1320.31 1732.81,1320.53 1734.99,1320.75 1737.17,1320.97 1739.35,1321.19 1741.54,1321.41 1743.72,1321.63 1745.9,1321.84 1748.09,1322.05 1750.27,1322.26 1752.45,1322.47 1754.63,1322.68 1756.82,1322.88 1759,1323.09 1761.18,1323.29 1763.37,1323.49 1765.55,1323.69 1767.73,1323.88 1769.92,1324.08 1772.1,1324.27 1774.28,1324.46 1776.46,1324.65 1778.65,1324.84 1780.83,1325.03 1783.01,1325.21 1785.2,1325.4 1787.38,1325.58 1789.56,1325.76 1791.74,1325.94 1793.93,1326.12 1796.11,1326.29 1798.29,1326.47 1800.48,1326.64 1802.66,1326.81 1804.84,1326.98 1807.02,1327.15 1809.21,1327.32 1811.39,1327.49 1813.57,1327.65 1815.76,1327.82 1817.94,1327.98 1820.12,1328.14 1822.31,1328.3 1824.49,1328.46 1826.67,1328.62 1828.85,1328.77 1831.04,1328.93 1833.22,1329.08 1835.4,1329.23 1837.59,1329.38 1839.77,1329.53 1841.95,1329.68 1844.13,1329.83 1846.32,1329.98 1848.5,1330.12 1850.68,1330.27 1852.87,1330.41 1855.05,1330.55 1857.23,1330.69 1859.42,1330.83 1861.6,1330.97 1863.78,1331.11 1865.96,1331.25 1868.15,1331.38 1870.33,1331.52 1872.51,1331.65 1874.7,1331.78 1876.88,1331.92 1879.06,1332.05 1881.24,1332.18 1883.43,1332.3 1885.61,1332.43 1887.79,1332.56 1889.98,1332.68 1892.16,1332.81 1894.34,1332.93 1896.52,1333.05 1898.71,1333.18 1900.89,1333.3 1903.07,1333.42 1905.26,1333.54 1907.44,1333.65 1909.62,1333.77 1911.81,1333.89 1913.99,1334 1916.17,1334.12 1918.35,1334.23 1920.54,1334.34 1922.72,1334.45 1924.9,1334.57 1927.09,1334.68 1929.27,1334.79 1931.45,1334.89 1933.63,1335 1935.82,1335.11 1938,1335.21 1940.18,1335.32 1942.37,1335.42 1944.55,1335.53 1946.73,1335.63 1948.91,1335.73 1951.1,1335.84 1953.28,1335.94 1955.46,1336.04 1957.65,1336.14 1959.83,1336.23 1962.01,1336.33 1964.2,1336.43 1966.38,1336.52 1968.56,1336.62 1970.74,1336.72 1972.93,1336.81 1975.11,1336.9 1977.29,1337 1979.48,1337.09 1981.66,1337.18 1983.84,1337.27 1986.02,1337.36 1988.21,1337.45 1990.39,1337.54 1992.57,1337.63 1994.76,1337.71 1996.94,1337.8 1999.12,1337.89 2001.31,1337.97 2003.49,1338.06 2005.67,1338.14 2007.85,1338.23 2010.04,1338.31 2012.22,1338.39 2014.4,1338.47 2016.59,1338.56 2018.77,1338.64 2020.95,1338.72 2023.13,1338.8 2025.32,1338.88 2027.5,1338.95 2029.68,1339.03 2031.87,1339.11 2034.05,1339.19 2036.23,1339.26 2038.41,1339.34 2040.6,1339.41 2042.78,1339.49 2044.96,1339.56 2047.15,1339.64 2049.33,1339.71 2051.51,1339.78 2053.7,1339.86 2055.88,1339.93 2058.06,1340 2060.24,1340.07 2062.43,1340.14 2064.61,1340.21 2066.79,1340.28 2068.98,1340.35 2071.16,1340.41 2073.34,1340.48 2075.52,1340.55 2077.71,1340.62 2079.89,1340.68 2082.07,1340.75 2084.26,1340.81 2086.44,1340.88 2088.62,1340.94 2090.81,1341.01 2092.99,1341.07 2095.17,1341.13 2097.35,1341.2 2099.54,1341.26 2101.72,1341.32 2103.9,1341.38 2106.09,1341.44 2108.27,1341.51 2110.45,1341.57 2112.63,1341.63 2114.82,1341.69 2117,1341.74 2119.18,1341.8 2121.37,1341.86 2123.55,1341.92 2125.73,1341.98 2127.91,1342.03 2130.1,1342.09 2132.28,1342.15 2134.46,1342.2 2136.65,1342.26 2138.83,1342.31 2141.01,1342.37 2143.2,1342.42 2145.38,1342.48 2147.56,1342.53 2149.74,1342.58 2151.93,1342.64 2154.11,1342.69 2156.29,1342.74 2158.48,1342.79 2160.66,1342.84 2162.84,1342.9 2165.02,1342.95 2167.21,1343 2169.39,1343.05 2171.57,1343.1 2173.76,1343.15 2175.94,1343.2 2178.12,1343.25 2180.3,1343.29 2182.49,1343.34 2184.67,1343.39 2186.85,1343.44 2189.04,1343.48 2191.22,1343.53 2193.4,1343.58 2195.59,1343.62 2197.77,1343.67 2199.95,1343.72 2202.13,1343.76 2204.32,1343.81 2206.5,1343.85 2208.68,1343.9 2210.87,1343.94 2213.05,1343.99 2215.23,1344.03 2217.41,1344.07 2219.6,1344.12 2221.78,1344.16 2223.96,1344.2 2226.15,1344.24 2228.33,1344.28 2230.51,1344.33 2232.7,1344.37 2234.88,1344.41 2237.06,1344.45 2239.24,1344.49 2241.43,1344.53 2243.61,1344.57 2245.79,1344.61 2247.98,1344.65 2250.16,1344.69 2252.34,1344.73 2254.52,1344.77 2256.71,1344.81 2258.89,1344.84 2261.07,1344.88 2263.26,1344.92 2265.44,1344.96 2267.62,1345 2269.8,1345.03 2271.99,1345.07 2274.17,1345.11 2276.35,1345.14 2278.54,1345.18 2280.72,1345.21 2282.9,1345.25 2285.09,1345.29 2287.27,1345.32 2289.45,1345.36 2291.63,1345.39 2293.82,1345.43 2296,1345.46 2298.18,1345.49 2300.37,1345.53 2302.55,1345.56 2304.73,1345.6 2306.91,1345.63 2309.1,1345.66 2311.28,1345.69 2313.46,1345.73 2315.65,1345.76 2317.83,1345.79 2320.01,1345.82 2322.19,1345.86 2324.38,1345.89 2326.56,1345.92 2328.74,1345.95 2330.93,1345.98 2333.11,1346.01 2335.29,1346.04 2337.48,1346.07 2339.66,1346.1 2341.84,1346.13 2344.02,1346.16 2346.21,1346.19 2348.39,1346.22 2350.57,1346.25 2352.76,1346.28 "/>
<polyline clip-path="url(#clip702)" style="stroke:#e26f46; stroke-linecap:round; stroke-linejoin:round; stroke-width:8; stroke-opacity:0.5; fill:none" points="172.015,1382.53 174.198,1382.51 176.381,1382.48 178.564,1382.44 180.747,1382.41 182.929,1382.38 185.112,1382.35 187.295,1382.32 189.478,1382.28 191.661,1382.25 193.844,1382.22 196.027,1382.18 198.21,1382.15 200.393,1382.11 202.576,1382.07 204.759,1382.04 206.942,1382 209.125,1381.96 211.307,1381.92 213.49,1381.88 215.673,1381.84 217.856,1381.8 220.039,1381.75 222.222,1381.71 224.405,1381.67 226.588,1381.62 228.771,1381.58 230.954,1381.53 233.137,1381.49 235.32,1381.44 237.503,1381.39 239.685,1381.34 241.868,1381.29 244.051,1381.24 246.234,1381.19 248.417,1381.14 250.6,1381.08 252.783,1381.03 254.966,1380.97 257.149,1380.92 259.332,1380.86 261.515,1380.8 263.698,1380.74 265.881,1380.68 268.063,1380.62 270.246,1380.56 272.429,1380.49 274.612,1380.43 276.795,1380.36 278.978,1380.3 281.161,1380.23 283.344,1380.16 285.527,1380.09 287.71,1380.02 289.893,1379.94 292.076,1379.87 294.259,1379.8 296.441,1379.72 298.624,1379.64 300.807,1379.56 302.99,1379.48 305.173,1379.4 307.356,1379.32 309.539,1379.23 311.722,1379.15 313.905,1379.06 316.088,1378.97 318.271,1378.88 320.454,1378.79 322.637,1378.69 324.819,1378.6 327.002,1378.5 329.185,1378.4 331.368,1378.3 333.551,1378.2 335.734,1378.09 337.917,1377.99 340.1,1377.88 342.283,1377.77 344.466,1377.66 346.649,1377.55 348.832,1377.43 351.015,1377.32 353.198,1377.2 355.38,1377.08 357.563,1376.95 359.746,1376.83 361.929,1376.7 364.112,1376.57 366.295,1376.44 368.478,1376.31 370.661,1376.17 372.844,1376.03 375.027,1375.89 377.21,1375.75 379.393,1375.6 381.576,1375.46 383.758,1375.31 385.941,1375.15 388.124,1375 390.307,1374.84 392.49,1374.68 394.673,1374.52 396.856,1374.35 399.039,1374.18 401.222,1374.01 403.405,1373.83 405.588,1373.66 407.771,1373.48 409.954,1373.29 412.136,1373.11 414.319,1372.92 416.502,1372.72 418.685,1372.53 420.868,1372.33 423.051,1372.12 425.234,1371.92 427.417,1371.71 429.6,1371.49 431.783,1371.28 433.966,1371.06 436.149,1370.83 438.332,1370.61 440.514,1370.37 442.697,1370.14 444.88,1369.9 447.063,1369.66 449.246,1369.41 451.429,1369.16 453.612,1368.9 455.795,1368.64 457.978,1368.38 460.161,1368.11 462.344,1367.83 464.527,1367.56 466.71,1367.27 468.892,1366.99 471.075,1366.7 473.258,1366.4 475.441,1366.1 477.624,1365.79 479.807,1365.48 481.99,1365.17 484.173,1364.84 486.356,1364.52 488.539,1364.18 490.722,1363.85 492.905,1363.5 495.088,1363.16 497.27,1362.8 499.453,1362.44 501.636,1362.08 503.819,1361.7 506.002,1361.33 508.185,1360.94 510.368,1360.55 512.551,1360.15 514.734,1359.75 516.917,1359.34 519.1,1358.93 521.283,1358.5 523.466,1358.07 525.649,1357.64 527.831,1357.2 530.014,1356.74 532.197,1356.29 534.38,1355.82 536.563,1355.35 538.746,1354.87 540.929,1354.38 543.112,1353.89 545.295,1353.39 547.478,1352.87 549.661,1352.36 551.844,1351.83 554.027,1351.29 556.209,1350.75 558.392,1350.2 560.575,1349.64 562.758,1349.07 564.941,1348.49 567.124,1347.9 569.307,1347.3 571.49,1346.7 573.673,1346.08 575.856,1345.46 578.039,1344.82 580.222,1344.18 582.405,1343.53 584.587,1342.86 586.77,1342.19 588.953,1341.5 591.136,1340.81 593.319,1340.1 595.502,1339.39 597.685,1338.66 599.868,1337.92 602.051,1337.18 604.234,1336.42 606.417,1335.64 608.6,1334.86 610.783,1334.07 612.965,1333.26 615.148,1332.44 617.331,1331.61 619.514,1330.77 621.697,1329.92 623.88,1329.05 626.063,1328.17 628.246,1327.28 630.429,1326.38 632.612,1325.46 634.795,1324.53 636.978,1323.58 639.161,1322.62 641.343,1321.65 643.526,1320.67 645.709,1319.67 647.892,1318.65 650.075,1317.63 652.258,1316.58 654.441,1315.53 656.624,1314.46 658.807,1313.37 660.99,1312.27 663.173,1311.15 665.356,1310.02 667.539,1308.87 669.721,1307.71 671.904,1306.54 674.087,1305.34 676.27,1304.13 678.453,1302.91 680.636,1301.67 682.819,1300.41 685.002,1299.13 687.185,1297.84 689.368,1296.54 691.551,1295.21 693.734,1293.87 695.917,1292.51 698.1,1291.14 700.282,1289.75 702.465,1288.34 704.648,1286.91 706.831,1285.47 709.014,1284 711.197,1282.52 713.38,1281.02 715.563,1279.51 717.746,1277.97 719.929,1276.42 722.112,1274.85 724.295,1273.26 726.478,1271.66 728.66,1270.03 730.843,1268.38 733.026,1266.72 735.209,1265.04 737.392,1263.34 739.575,1261.62 741.758,1259.88 743.941,1258.12 746.124,1256.34 748.307,1254.55 750.49,1252.73 752.673,1250.9 754.856,1249.05 757.038,1247.17 759.221,1245.28 761.404,1243.37 763.587,1241.44 765.77,1239.49 767.953,1237.52 770.136,1235.54 772.319,1233.53 774.502,1231.51 776.685,1229.46 778.868,1227.4 781.051,1225.32 783.234,1223.22 785.416,1221.1 787.599,1218.97 789.782,1216.81 791.965,1214.64 794.148,1212.45 796.331,1210.24 798.514,1208.01 800.697,1205.76 802.88,1203.5 805.063,1201.22 807.246,1198.92 809.429,1196.61 811.612,1194.28 813.794,1191.93 815.977,1189.56 818.16,1187.18 820.343,1184.78 822.526,1182.37 824.709,1179.94 826.892,1177.5 829.075,1175.03 831.258,1172.56 833.441,1170.07 835.624,1167.56 837.807,1165.04 839.99,1162.51 842.172,1159.96 844.355,1157.4 846.538,1154.83 848.721,1152.25 850.904,1149.65 853.087,1147.04 855.27,1144.42 857.453,1141.79 859.636,1139.15 861.819,1136.5 864.002,1133.84 866.185,1131.17 868.368,1128.49 870.551,1125.8 872.733,1123.11 874.916,1120.41 877.099,1117.7 879.282,1114.98 881.465,1112.26 883.648,1109.53 885.831,1106.8 888.014,1104.07 890.197,1101.32 892.38,1098.58 894.563,1095.83 896.746,1093.08 898.929,1090.33 901.111,1087.57 903.294,1084.82 905.477,1082.06 907.66,1079.31 909.843,1076.55 912.026,1073.8 914.209,1071.04 916.392,1068.29 918.575,1065.54 920.758,1062.8 922.941,1060.06 925.124,1057.32 927.307,1054.59 929.489,1051.86 931.672,1049.14 933.855,1046.43 936.038,1043.73 938.221,1041.03 940.404,1038.34 942.587,1035.66 944.77,1032.99 946.953,1030.33 949.136,1027.68 951.319,1025.05 953.502,1022.42 955.685,1019.81 957.867,1017.21 960.05,1014.63 962.233,1012.06 964.416,1009.5 966.599,1006.96 968.782,1004.43 970.965,1001.93 973.148,999.436 975.331,996.963 977.514,994.508 979.697,992.072 981.88,989.656 984.063,987.259 986.245,984.883 988.428,982.528 990.611,980.195 992.794,977.883 994.977,975.594 997.16,973.328 999.343,971.085 1001.53,968.866 1003.71,966.671 1005.89,964.5 1008.07,962.355 1010.26,960.235 1012.44,958.141 1014.62,956.074 1016.81,954.032 1018.99,952.018 1021.17,950.031 1023.36,948.072 1025.54,946.14 1027.72,944.237 1029.9,942.362 1032.09,940.516 1034.27,938.699 1036.45,936.912 1038.64,935.154 1040.82,933.426 1043,931.728 1045.18,930.06 1047.37,928.423 1049.55,926.816 1051.73,925.241 1053.92,923.697 1056.1,922.184 1058.28,920.702 1060.46,919.252 1062.65,917.834 1064.83,916.447 1067.01,915.093 1069.2,913.77 1071.38,912.48 1073.56,911.222 1075.75,909.996 1077.93,908.803 1080.11,907.642 1082.29,906.514 1084.48,905.418 1086.66,904.355 1088.84,903.324 1091.03,902.326 1093.21,901.36 1095.39,900.427 1097.57,899.526 1099.76,898.658 1101.94,897.822 1104.12,897.018 1106.31,896.246 1108.49,895.507 1110.67,894.8 1112.86,894.124 1115.04,893.481 1117.22,892.87 1119.4,892.29 1121.59,891.743 1123.77,891.227 1125.95,890.742 1128.14,890.288 1130.32,889.864 1132.5,889.472 1134.68,889.11 1136.87,888.778 1139.05,888.476 1141.23,888.204 1143.42,887.961 1145.6,887.748 1147.78,887.564 1149.96,887.409 1152.15,887.282 1154.33,887.184 1156.51,887.114 1158.7,887.071 1160.88,887.057 1163.06,887.07 1165.25,887.11 1167.43,887.178 1169.61,887.272 1171.79,887.392 1173.98,887.539 1176.16,887.712 1178.34,887.91 1180.53,888.134 1182.71,888.383 1184.89,888.657 1187.07,888.956 1189.26,889.28 1191.44,889.627 1193.62,889.999 1195.81,890.394 1197.99,890.812 1200.17,891.254 1202.35,891.718 1204.54,892.205 1206.72,892.714 1208.9,893.245 1211.09,893.798 1213.27,894.373 1215.45,894.968 1217.64,895.585 1219.82,896.221 1222,896.879 1224.18,897.556 1226.37,898.253 1228.55,898.969 1230.73,899.704 1232.92,900.458 1235.1,901.23 1237.28,902.021 1239.46,902.829 1241.65,903.655 1243.83,904.499 1246.01,905.359 1248.2,906.235 1250.38,907.128 1252.56,908.037 1254.75,908.962 1256.93,909.901 1259.11,910.856 1261.29,911.826 1263.48,912.809 1265.66,913.807 1267.84,914.818 1270.03,915.842 1272.21,916.88 1274.39,917.931 1276.57,918.994 1278.76,920.07 1280.94,921.157 1283.12,922.257 1285.31,923.369 1287.49,924.492 1289.67,925.626 1291.85,926.771 1294.04,927.928 1296.22,929.094 1298.4,930.271 1300.59,931.459 1302.77,932.656 1304.95,933.862 1307.14,935.079 1309.32,936.304 1311.5,937.539 1313.68,938.782 1315.87,940.035 1318.05,941.295 1320.23,942.564 1322.42,943.841 1324.6,945.125 1326.78,946.418 1328.96,947.717 1331.15,949.024 1333.33,950.338 1335.51,951.659 1337.7,952.986 1339.88,954.32 1342.06,955.66 1344.25,957.007 1346.43,958.359 1348.61,959.717 1350.79,961.08 1352.98,962.449 1355.16,963.823 1357.34,965.202 1359.53,966.585 1361.71,967.974 1363.89,969.367 1366.07,970.764 1368.26,972.166 1370.44,973.571 1372.62,974.98 1374.81,976.393 1376.99,977.81 1379.17,979.229 1381.35,980.652 1383.54,982.078 1385.72,983.507 1387.9,984.939 1390.09,986.373 1392.27,987.81 1394.45,989.248 1396.64,990.69 1398.82,992.133 1401,993.578 1403.18,995.024 1405.37,996.472 1407.55,997.922 1409.73,999.373 1411.92,1000.83 1414.1,1002.28 1416.28,1003.73 1418.46,1005.19 1420.65,1006.64 1422.83,1008.1 1425.01,1009.56 1427.2,1011.01 1429.38,1012.47 1431.56,1013.93 1433.74,1015.39 1435.93,1016.84 1438.11,1018.3 1440.29,1019.76 1442.48,1021.21 1444.66,1022.67 1446.84,1024.12 1449.03,1025.58 1451.21,1027.03 1453.39,1028.48 1455.57,1029.93 1457.76,1031.38 1459.94,1032.83 1462.12,1034.28 1464.31,1035.72 1466.49,1037.17 1468.67,1038.61 1470.85,1040.05 1473.04,1041.49 1475.22,1042.93 1477.4,1044.36 1479.59,1045.8 1481.77,1047.23 1483.95,1048.66 1486.14,1050.08 1488.32,1051.51 1490.5,1052.93 1492.68,1054.35 1494.87,1055.77 1497.05,1057.18 1499.23,1058.6 1501.42,1060.01 1503.6,1061.41 1505.78,1062.82 1507.96,1064.22 1510.15,1065.62 1512.33,1067.02 1514.51,1068.41 1516.7,1069.8 1518.88,1071.19 1521.06,1072.57 1523.24,1073.96 1525.43,1075.34 1527.61,1076.71 1529.79,1078.08 1531.98,1079.45 1534.16,1080.82 1536.34,1082.18 1538.53,1083.54 1540.71,1084.9 1542.89,1086.25 1545.07,1087.6 1547.26,1088.95 1549.44,1090.29 1551.62,1091.63 1553.81,1092.96 1555.99,1094.3 1558.17,1095.62 1560.35,1096.95 1562.54,1098.27 1564.72,1099.59 1566.9,1100.9 1569.09,1102.21 1571.27,1103.52 1573.45,1104.82 1575.63,1106.12 1577.82,1107.41 1580,1108.7 1582.18,1109.99 1584.37,1111.27 1586.55,1112.55 1588.73,1113.82 1590.92,1115.09 1593.1,1116.36 1595.28,1117.62 1597.46,1118.88 1599.65,1120.13 1601.83,1121.38 1604.01,1122.63 1606.2,1123.87 1608.38,1125.11 1610.56,1126.34 1612.74,1127.57 1614.93,1128.8 1617.11,1130.02 1619.29,1131.24 1621.48,1132.45 1623.66,1133.66 1625.84,1134.86 1628.03,1136.06 1630.21,1137.26 1632.39,1138.45 1634.57,1139.64 1636.76,1140.82 1638.94,1142 1641.12,1143.17 1643.31,1144.34 1645.49,1145.51 1647.67,1146.67 1649.85,1147.83 1652.04,1148.98 1654.22,1150.13 1656.4,1151.27 1658.59,1152.41 1660.77,1153.55 1662.95,1154.68 1665.13,1155.81 1667.32,1156.93 1669.5,1158.05 1671.68,1159.16 1673.87,1160.27 1676.05,1161.38 1678.23,1162.48 1680.42,1163.57 1682.6,1164.66 1684.78,1165.75 1686.96,1166.84 1689.15,1167.92 1691.33,1168.99 1693.51,1170.06 1695.7,1171.13 1697.88,1172.19 1700.06,1173.25 1702.24,1174.3 1704.43,1175.35 1706.61,1176.4 1708.79,1177.44 1710.98,1178.47 1713.16,1179.5 1715.34,1180.53 1717.53,1181.56 1719.71,1182.58 1721.89,1183.59 1724.07,1184.6 1726.26,1185.61 1728.44,1186.61 1730.62,1187.61 1732.81,1188.6 1734.99,1189.59 1737.17,1190.58 1739.35,1191.56 1741.54,1192.54 1743.72,1193.51 1745.9,1194.48 1748.09,1195.44 1750.27,1196.4 1752.45,1197.36 1754.63,1198.31 1756.82,1199.26 1759,1200.2 1761.18,1201.14 1763.37,1202.08 1765.55,1203.01 1767.73,1203.94 1769.92,1204.86 1772.1,1205.78 1774.28,1206.69 1776.46,1207.6 1778.65,1208.51 1780.83,1209.41 1783.01,1210.31 1785.2,1211.21 1787.38,1212.1 1789.56,1212.98 1791.74,1213.86 1793.93,1214.74 1796.11,1215.62 1798.29,1216.49 1800.48,1217.35 1802.66,1218.22 1804.84,1219.08 1807.02,1219.93 1809.21,1220.78 1811.39,1221.63 1813.57,1222.47 1815.76,1223.31 1817.94,1224.14 1820.12,1224.98 1822.31,1225.8 1824.49,1226.63 1826.67,1227.45 1828.85,1228.26 1831.04,1229.07 1833.22,1229.88 1835.4,1230.68 1837.59,1231.49 1839.77,1232.28 1841.95,1233.07 1844.13,1233.86 1846.32,1234.65 1848.5,1235.43 1850.68,1236.21 1852.87,1236.98 1855.05,1237.75 1857.23,1238.52 1859.42,1239.28 1861.6,1240.04 1863.78,1240.8 1865.96,1241.55 1868.15,1242.3 1870.33,1243.05 1872.51,1243.79 1874.7,1244.52 1876.88,1245.26 1879.06,1245.99 1881.24,1246.72 1883.43,1247.44 1885.61,1248.16 1887.79,1248.88 1889.98,1249.59 1892.16,1250.3 1894.34,1251.01 1896.52,1251.71 1898.71,1252.41 1900.89,1253.11 1903.07,1253.8 1905.26,1254.49 1907.44,1255.18 1909.62,1255.86 1911.81,1256.54 1913.99,1257.22 1916.17,1257.89 1918.35,1258.56 1920.54,1259.22 1922.72,1259.89 1924.9,1260.55 1927.09,1261.2 1929.27,1261.86 1931.45,1262.51 1933.63,1263.15 1935.82,1263.8 1938,1264.44 1940.18,1265.08 1942.37,1265.71 1944.55,1266.34 1946.73,1266.97 1948.91,1267.59 1951.1,1268.22 1953.28,1268.83 1955.46,1269.45 1957.65,1270.06 1959.83,1270.67 1962.01,1271.28 1964.2,1271.88 1966.38,1272.48 1968.56,1273.08 1970.74,1273.67 1972.93,1274.26 1975.11,1274.85 1977.29,1275.44 1979.48,1276.02 1981.66,1276.6 1983.84,1277.18 1986.02,1277.75 1988.21,1278.32 1990.39,1278.89 1992.57,1279.45 1994.76,1280.01 1996.94,1280.57 1999.12,1281.13 2001.31,1281.68 2003.49,1282.23 2005.67,1282.78 2007.85,1283.33 2010.04,1283.87 2012.22,1284.41 2014.4,1284.95 2016.59,1285.48 2018.77,1286.01 2020.95,1286.54 2023.13,1287.06 2025.32,1287.59 2027.5,1288.11 2029.68,1288.63 2031.87,1289.14 2034.05,1289.65 2036.23,1290.16 2038.41,1290.67 2040.6,1291.18 2042.78,1291.68 2044.96,1292.18 2047.15,1292.67 2049.33,1293.17 2051.51,1293.66 2053.7,1294.15 2055.88,1294.64 2058.06,1295.12 2060.24,1295.6 2062.43,1296.08 2064.61,1296.56 2066.79,1297.03 2068.98,1297.5 2071.16,1297.97 2073.34,1298.44 2075.52,1298.9 2077.71,1299.37 2079.89,1299.83 2082.07,1300.28 2084.26,1300.74 2086.44,1301.19 2088.62,1301.64 2090.81,1302.09 2092.99,1302.53 2095.17,1302.98 2097.35,1303.42 2099.54,1303.86 2101.72,1304.29 2103.9,1304.73 2106.09,1305.16 2108.27,1305.59 2110.45,1306.01 2112.63,1306.44 2114.82,1306.86 2117,1307.28 2119.18,1307.7 2121.37,1308.12 2123.55,1308.53 2125.73,1308.94 2127.91,1309.35 2130.1,1309.76 2132.28,1310.16 2134.46,1310.57 2136.65,1310.97 2138.83,1311.37 2141.01,1311.76 2143.2,1312.16 2145.38,1312.55 2147.56,1312.94 2149.74,1313.33 2151.93,1313.72 2154.11,1314.1 2156.29,1314.48 2158.48,1314.86 2160.66,1315.24 2162.84,1315.62 2165.02,1315.99 2167.21,1316.37 2169.39,1316.74 2171.57,1317.11 2173.76,1317.47 2175.94,1317.84 2178.12,1318.2 2180.3,1318.56 2182.49,1318.92 2184.67,1319.28 2186.85,1319.63 2189.04,1319.98 2191.22,1320.34 2193.4,1320.68 2195.59,1321.03 2197.77,1321.38 2199.95,1321.72 2202.13,1322.06 2204.32,1322.4 2206.5,1322.74 2208.68,1323.08 2210.87,1323.41 2213.05,1323.75 2215.23,1324.08 2217.41,1324.41 2219.6,1324.74 2221.78,1325.06 2223.96,1325.39 2226.15,1325.71 2228.33,1326.03 2230.51,1326.35 2232.7,1326.67 2234.88,1326.98 2237.06,1327.3 2239.24,1327.61 2241.43,1327.92 2243.61,1328.23 2245.79,1328.53 2247.98,1328.84 2250.16,1329.14 2252.34,1329.45 2254.52,1329.75 2256.71,1330.05 2258.89,1330.34 2261.07,1330.64 2263.26,1330.93 2265.44,1331.23 2267.62,1331.52 2269.8,1331.81 2271.99,1332.1 2274.17,1332.38 2276.35,1332.67 2278.54,1332.95 2280.72,1333.23 2282.9,1333.51 2285.09,1333.79 2287.27,1334.07 2289.45,1334.35 2291.63,1334.62 2293.82,1334.89 2296,1335.16 2298.18,1335.43 2300.37,1335.7 2302.55,1335.97 2304.73,1336.24 2306.91,1336.5 2309.1,1336.76 2311.28,1337.02 2313.46,1337.28 2315.65,1337.54 2317.83,1337.8 2320.01,1338.06 2322.19,1338.31 2324.38,1338.56 2326.56,1338.81 2328.74,1339.06 2330.93,1339.31 2333.11,1339.56 2335.29,1339.81 2337.48,1340.05 2339.66,1340.3 2341.84,1340.54 2344.02,1340.78 2346.21,1341.02 2348.39,1341.26 2350.57,1341.49 2352.76,1341.73 "/>
<polyline clip-path="url(#clip702)" style="stroke:#3da44d; stroke-linecap:round; stroke-linejoin:round; stroke-width:8; stroke-opacity:0.5; fill:none" points="172.015,1384.24 174.198,1384.23 176.381,1384.22 178.564,1384.21 180.747,1384.19 182.929,1384.18 185.112,1384.17 187.295,1384.16 189.478,1384.15 191.661,1384.14 193.844,1384.12 196.027,1384.11 198.21,1384.1 200.393,1384.08 202.576,1384.07 204.759,1384.06 206.942,1384.04 209.125,1384.03 211.307,1384.02 213.49,1384 215.673,1383.99 217.856,1383.97 220.039,1383.96 222.222,1383.94 224.405,1383.92 226.588,1383.91 228.771,1383.89 230.954,1383.87 233.137,1383.86 235.32,1383.84 237.503,1383.82 239.685,1383.81 241.868,1383.79 244.051,1383.77 246.234,1383.75 248.417,1383.73 250.6,1383.71 252.783,1383.69 254.966,1383.67 257.149,1383.65 259.332,1383.63 261.515,1383.61 263.698,1383.59 265.881,1383.57 268.063,1383.54 270.246,1383.52 272.429,1383.5 274.612,1383.47 276.795,1383.45 278.978,1383.43 281.161,1383.4 283.344,1383.38 285.527,1383.35 287.71,1383.32 289.893,1383.3 292.076,1383.27 294.259,1383.24 296.441,1383.22 298.624,1383.19 300.807,1383.16 302.99,1383.13 305.173,1383.1 307.356,1383.07 309.539,1383.04 311.722,1383.01 313.905,1382.97 316.088,1382.94 318.271,1382.91 320.454,1382.88 322.637,1382.84 324.819,1382.81 327.002,1382.77 329.185,1382.74 331.368,1382.7 333.551,1382.66 335.734,1382.62 337.917,1382.59 340.1,1382.55 342.283,1382.51 344.466,1382.47 346.649,1382.42 348.832,1382.38 351.015,1382.34 353.198,1382.3 355.38,1382.25 357.563,1382.21 359.746,1382.16 361.929,1382.12 364.112,1382.07 366.295,1382.02 368.478,1381.97 370.661,1381.92 372.844,1381.87 375.027,1381.82 377.21,1381.77 379.393,1381.71 381.576,1381.66 383.758,1381.6 385.941,1381.55 388.124,1381.49 390.307,1381.43 392.49,1381.38 394.673,1381.32 396.856,1381.25 399.039,1381.19 401.222,1381.13 403.405,1381.07 405.588,1381 407.771,1380.93 409.954,1380.87 412.136,1380.8 414.319,1380.73 416.502,1380.66 418.685,1380.58 420.868,1380.51 423.051,1380.44 425.234,1380.36 427.417,1380.28 429.6,1380.2 431.783,1380.12 433.966,1380.04 436.149,1379.96 438.332,1379.88 440.514,1379.79 442.697,1379.7 444.88,1379.62 447.063,1379.53 449.246,1379.44 451.429,1379.34 453.612,1379.25 455.795,1379.15 457.978,1379.05 460.161,1378.95 462.344,1378.85 464.527,1378.75 466.71,1378.65 468.892,1378.54 471.075,1378.43 473.258,1378.32 475.441,1378.21 477.624,1378.1 479.807,1377.98 481.99,1377.86 484.173,1377.74 486.356,1377.62 488.539,1377.5 490.722,1377.37 492.905,1377.24 495.088,1377.11 497.27,1376.98 499.453,1376.85 501.636,1376.71 503.819,1376.57 506.002,1376.43 508.185,1376.29 510.368,1376.14 512.551,1375.99 514.734,1375.84 516.917,1375.69 519.1,1375.53 521.283,1375.37 523.466,1375.21 525.649,1375.05 527.831,1374.88 530.014,1374.71 532.197,1374.54 534.38,1374.37 536.563,1374.19 538.746,1374.01 540.929,1373.82 543.112,1373.64 545.295,1373.45 547.478,1373.25 549.661,1373.06 551.844,1372.86 554.027,1372.65 556.209,1372.45 558.392,1372.24 560.575,1372.02 562.758,1371.81 564.941,1371.59 567.124,1371.36 569.307,1371.13 571.49,1370.9 573.673,1370.67 575.856,1370.43 578.039,1370.19 580.222,1369.94 582.405,1369.69 584.587,1369.43 586.77,1369.17 588.953,1368.91 591.136,1368.64 593.319,1368.37 595.502,1368.09 597.685,1367.81 599.868,1367.53 602.051,1367.24 604.234,1366.94 606.417,1366.64 608.6,1366.34 610.783,1366.03 612.965,1365.71 615.148,1365.39 617.331,1365.07 619.514,1364.74 621.697,1364.41 623.88,1364.07 626.063,1363.72 628.246,1363.37 630.429,1363.01 632.612,1362.65 634.795,1362.28 636.978,1361.91 639.161,1361.53 641.343,1361.14 643.526,1360.75 645.709,1360.35 647.892,1359.95 650.075,1359.54 652.258,1359.12 654.441,1358.69 656.624,1358.26 658.807,1357.83 660.99,1357.38 663.173,1356.93 665.356,1356.48 667.539,1356.01 669.721,1355.54 671.904,1355.06 674.087,1354.57 676.27,1354.08 678.453,1353.58 680.636,1353.07 682.819,1352.55 685.002,1352.03 687.185,1351.49 689.368,1350.95 691.551,1350.4 693.734,1349.84 695.917,1349.28 698.1,1348.7 700.282,1348.12 702.465,1347.53 704.648,1346.93 706.831,1346.32 709.014,1345.7 711.197,1345.07 713.38,1344.44 715.563,1343.79 717.746,1343.14 719.929,1342.47 722.112,1341.8 724.295,1341.11 726.478,1340.42 728.66,1339.71 730.843,1339 733.026,1338.27 735.209,1337.54 737.392,1336.79 739.575,1336.03 741.758,1335.27 743.941,1334.49 746.124,1333.7 748.307,1332.9 750.49,1332.09 752.673,1331.26 754.856,1330.43 757.038,1329.58 759.221,1328.73 761.404,1327.86 763.587,1326.97 765.77,1326.08 767.953,1325.17 770.136,1324.26 772.319,1323.33 774.502,1322.38 776.685,1321.43 778.868,1320.46 781.051,1319.48 783.234,1318.48 785.416,1317.48 787.599,1316.45 789.782,1315.42 791.965,1314.37 794.148,1313.31 796.331,1312.24 798.514,1311.15 800.697,1310.05 802.88,1308.93 805.063,1307.8 807.246,1306.66 809.429,1305.5 811.612,1304.32 813.794,1303.14 815.977,1301.93 818.16,1300.72 820.343,1299.48 822.526,1298.24 824.709,1296.98 826.892,1295.7 829.075,1294.41 831.258,1293.1 833.441,1291.77 835.624,1290.44 837.807,1289.08 839.99,1287.71 842.172,1286.33 844.355,1284.92 846.538,1283.51 848.721,1282.07 850.904,1280.62 853.087,1279.16 855.27,1277.67 857.453,1276.18 859.636,1274.66 861.819,1273.13 864.002,1271.58 866.185,1270.02 868.368,1268.44 870.551,1266.84 872.733,1265.22 874.916,1263.59 877.099,1261.94 879.282,1260.28 881.465,1258.6 883.648,1256.9 885.831,1255.18 888.014,1253.45 890.197,1251.7 892.38,1249.93 894.563,1248.15 896.746,1246.35 898.929,1244.53 901.111,1242.69 903.294,1240.84 905.477,1238.97 907.66,1237.08 909.843,1235.18 912.026,1233.26 914.209,1231.32 916.392,1229.37 918.575,1227.39 920.758,1225.4 922.941,1223.4 925.124,1221.37 927.307,1219.33 929.489,1217.28 931.672,1215.2 933.855,1213.11 936.038,1211 938.221,1208.88 940.404,1206.74 942.587,1204.58 944.77,1202.41 946.953,1200.22 949.136,1198.01 951.319,1195.78 953.502,1193.54 955.685,1191.29 957.867,1189.01 960.05,1186.72 962.233,1184.42 964.416,1182.09 966.599,1179.75 968.782,1177.4 970.965,1175.03 973.148,1172.65 975.331,1170.25 977.514,1167.83 979.697,1165.4 981.88,1162.95 984.063,1160.49 986.245,1158.02 988.428,1155.53 990.611,1153.02 992.794,1150.5 994.977,1147.97 997.16,1145.42 999.343,1142.86 1001.53,1140.28 1003.71,1137.7 1005.89,1135.09 1008.07,1132.48 1010.26,1129.85 1012.44,1127.21 1014.62,1124.55 1016.81,1121.89 1018.99,1119.21 1021.17,1116.52 1023.36,1113.81 1025.54,1111.1 1027.72,1108.37 1029.9,1105.63 1032.09,1102.88 1034.27,1100.12 1036.45,1097.34 1038.64,1094.56 1040.82,1091.76 1043,1088.96 1045.18,1086.14 1047.37,1083.31 1049.55,1080.48 1051.73,1077.63 1053.92,1074.77 1056.1,1071.91 1058.28,1069.03 1060.46,1066.15 1062.65,1063.25 1064.83,1060.35 1067.01,1057.44 1069.2,1054.52 1071.38,1051.59 1073.56,1048.66 1075.75,1045.72 1077.93,1042.76 1080.11,1039.81 1082.29,1036.84 1084.48,1033.87 1086.66,1030.89 1088.84,1027.9 1091.03,1024.91 1093.21,1021.91 1095.39,1018.91 1097.57,1015.9 1099.76,1012.88 1101.94,1009.86 1104.12,1006.84 1106.31,1003.8 1108.49,1000.77 1110.67,997.73 1112.86,994.685 1115.04,991.637 1117.22,988.585 1119.4,985.53 1121.59,982.47 1123.77,979.408 1125.95,976.342 1128.14,973.274 1130.32,970.202 1132.5,967.128 1134.68,964.052 1136.87,960.974 1139.05,957.894 1141.23,954.812 1143.42,951.728 1145.6,948.643 1147.78,945.557 1149.96,942.469 1152.15,939.381 1154.33,936.292 1156.51,933.203 1158.7,930.113 1160.88,927.023 1163.06,923.934 1165.25,920.844 1167.43,917.755 1169.61,914.666 1171.79,911.578 1173.98,908.49 1176.16,905.404 1178.34,902.319 1180.53,899.235 1182.71,896.152 1184.89,893.072 1187.07,889.993 1189.26,886.916 1191.44,883.841 1193.62,880.768 1195.81,877.698 1197.99,874.63 1200.17,871.564 1202.35,868.502 1204.54,865.443 1206.72,862.386 1208.9,859.333 1211.09,856.283 1213.27,853.237 1215.45,850.194 1217.64,847.155 1219.82,844.12 1222,841.089 1224.18,838.062 1226.37,835.039 1228.55,832.021 1230.73,829.007 1232.92,825.998 1235.1,822.994 1237.28,819.994 1239.46,816.999 1241.65,814.01 1243.83,811.025 1246.01,808.046 1248.2,805.073 1250.38,802.104 1252.56,799.142 1254.75,796.185 1256.93,793.234 1259.11,790.289 1261.29,787.35 1263.48,784.417 1265.66,781.491 1267.84,778.571 1270.03,775.658 1272.21,772.752 1274.39,769.853 1276.57,766.96 1278.76,764.075 1280.94,761.196 1283.12,758.324 1285.31,755.46 1287.49,752.602 1289.67,749.752 1291.85,746.909 1294.04,744.073 1296.22,741.244 1298.4,738.423 1300.59,735.609 1302.77,732.802 1304.95,730.003 1307.14,727.211 1309.32,724.427 1311.5,721.651 1313.68,718.882 1315.87,716.121 1318.05,713.368 1320.23,710.622 1322.42,707.884 1324.6,705.155 1326.78,702.433 1328.96,699.718 1331.15,697.012 1333.33,694.314 1335.51,691.624 1337.7,688.942 1339.88,686.268 1342.06,683.602 1344.25,680.945 1346.43,678.295 1348.61,675.654 1350.79,673.021 1352.98,670.397 1355.16,667.781 1357.34,665.173 1359.53,662.573 1361.71,659.982 1363.89,657.4 1366.07,654.826 1368.26,652.26 1370.44,649.703 1372.62,647.155 1374.81,644.615 1376.99,642.083 1379.17,639.561 1381.35,637.047 1383.54,634.542 1385.72,632.045 1387.9,629.557 1390.09,627.078 1392.27,624.608 1394.45,622.147 1396.64,619.694 1398.82,617.25 1401,614.816 1403.18,612.39 1405.37,609.972 1407.55,607.564 1409.73,605.165 1411.92,602.774 1414.1,600.393 1416.28,598.021 1418.46,595.657 1420.65,593.303 1422.83,590.957 1425.01,588.621 1427.2,586.294 1429.38,583.975 1431.56,581.666 1433.74,579.366 1435.93,577.075 1438.11,574.793 1440.29,572.52 1442.48,570.256 1444.66,568.001 1446.84,565.756 1449.03,563.519 1451.21,561.292 1453.39,559.074 1455.57,556.864 1457.76,554.665 1459.94,552.474 1462.12,550.292 1464.31,548.119 1466.49,545.956 1468.67,543.802 1470.85,541.657 1473.04,539.521 1475.22,537.394 1477.4,535.276 1479.59,533.168 1481.77,531.068 1483.95,528.978 1486.14,526.897 1488.32,524.824 1490.5,522.761 1492.68,520.706 1494.87,518.66 1497.05,516.623 1499.23,514.595 1501.42,512.576 1503.6,510.565 1505.78,508.563 1507.96,506.57 1510.15,504.586 1512.33,502.61 1514.51,500.643 1516.7,498.684 1518.88,496.735 1521.06,494.793 1523.24,492.861 1525.43,490.937 1527.61,489.021 1529.79,487.114 1531.98,485.216 1534.16,483.326 1536.34,481.444 1538.53,479.571 1540.71,477.707 1542.89,475.85 1545.07,474.003 1547.26,472.163 1549.44,470.332 1551.62,468.509 1553.81,466.695 1555.99,464.889 1558.17,463.091 1560.35,461.301 1562.54,459.52 1564.72,457.746 1566.9,455.981 1569.09,454.224 1571.27,452.475 1573.45,450.735 1575.63,449.002 1577.82,447.277 1580,445.561 1582.18,443.852 1584.37,442.152 1586.55,440.459 1588.73,438.774 1590.92,437.098 1593.1,435.429 1595.28,433.768 1597.46,432.115 1599.65,430.469 1601.83,428.832 1604.01,427.202 1606.2,425.58 1608.38,423.966 1610.56,422.359 1612.74,420.76 1614.93,419.169 1617.11,417.585 1619.29,416.009 1621.48,414.44 1623.66,412.879 1625.84,411.325 1628.03,409.779 1630.21,408.24 1632.39,406.709 1634.57,405.185 1636.76,403.669 1638.94,402.16 1641.12,400.658 1643.31,399.163 1645.49,397.676 1647.67,396.196 1649.85,394.723 1652.04,393.257 1654.22,391.799 1656.4,390.347 1658.59,388.903 1660.77,387.466 1662.95,386.035 1665.13,384.612 1667.32,383.196 1669.5,381.787 1671.68,380.385 1673.87,378.989 1676.05,377.601 1678.23,376.219 1680.42,374.844 1682.6,373.476 1684.78,372.115 1686.96,370.76 1689.15,369.413 1691.33,368.072 1693.51,366.737 1695.7,365.409 1697.88,364.088 1700.06,362.774 1702.24,361.465 1704.43,360.164 1706.61,358.869 1708.79,357.58 1710.98,356.298 1713.16,355.023 1715.34,353.753 1717.53,352.49 1719.71,351.234 1721.89,349.984 1724.07,348.74 1726.26,347.502 1728.44,346.271 1730.62,345.045 1732.81,343.826 1734.99,342.613 1737.17,341.407 1739.35,340.206 1741.54,339.011 1743.72,337.823 1745.9,336.64 1748.09,335.464 1750.27,334.293 1752.45,333.129 1754.63,331.97 1756.82,330.818 1759,329.671 1761.18,328.53 1763.37,327.395 1765.55,326.265 1767.73,325.142 1769.92,324.024 1772.1,322.912 1774.28,321.806 1776.46,320.705 1778.65,319.61 1780.83,318.52 1783.01,317.436 1785.2,316.358 1787.38,315.286 1789.56,314.218 1791.74,313.157 1793.93,312.1 1796.11,311.05 1798.29,310.004 1800.48,308.964 1802.66,307.93 1804.84,306.901 1807.02,305.877 1809.21,304.858 1811.39,303.845 1813.57,302.837 1815.76,301.834 1817.94,300.837 1820.12,299.844 1822.31,298.857 1824.49,297.875 1826.67,296.898 1828.85,295.926 1831.04,294.959 1833.22,293.997 1835.4,293.041 1837.59,292.089 1839.77,291.142 1841.95,290.2 1844.13,289.263 1846.32,288.331 1848.5,287.404 1850.68,286.482 1852.87,285.564 1855.05,284.652 1857.23,283.744 1859.42,282.84 1861.6,281.942 1863.78,281.048 1865.96,280.159 1868.15,279.275 1870.33,278.395 1872.51,277.52 1874.7,276.65 1876.88,275.784 1879.06,274.922 1881.24,274.065 1883.43,273.213 1885.61,272.365 1887.79,271.522 1889.98,270.683 1892.16,269.848 1894.34,269.018 1896.52,268.192 1898.71,267.371 1900.89,266.554 1903.07,265.741 1905.26,264.932 1907.44,264.128 1909.62,263.328 1911.81,262.532 1913.99,261.741 1916.17,260.953 1918.35,260.17 1920.54,259.391 1922.72,258.616 1924.9,257.845 1927.09,257.078 1929.27,256.316 1931.45,255.557 1933.63,254.802 1935.82,254.052 1938,253.305 1940.18,252.562 1942.37,251.824 1944.55,251.089 1946.73,250.358 1948.91,249.631 1951.1,248.908 1953.28,248.188 1955.46,247.473 1957.65,246.761 1959.83,246.054 1962.01,245.35 1964.2,244.649 1966.38,243.953 1968.56,243.26 1970.74,242.571 1972.93,241.885 1975.11,241.204 1977.29,240.526 1979.48,239.851 1981.66,239.18 1983.84,238.513 1986.02,237.849 1988.21,237.189 1990.39,236.533 1992.57,235.88 1994.76,235.23 1996.94,234.584 1999.12,233.941 2001.31,233.302 2003.49,232.666 2005.67,232.034 2007.85,231.405 2010.04,230.78 2012.22,230.158 2014.4,229.539 2016.59,228.923 2018.77,228.311 2020.95,227.702 2023.13,227.097 2025.32,226.495 2027.5,225.896 2029.68,225.3 2031.87,224.707 2034.05,224.118 2036.23,223.532 2038.41,222.948 2040.6,222.369 2042.78,221.792 2044.96,221.218 2047.15,220.648 2049.33,220.08 2051.51,219.516 2053.7,218.954 2055.88,218.396 2058.06,217.841 2060.24,217.288 2062.43,216.739 2064.61,216.193 2066.79,215.649 2068.98,215.109 2071.16,214.571 2073.34,214.037 2075.52,213.505 2077.71,212.976 2079.89,212.45 2082.07,211.927 2084.26,211.407 2086.44,210.89 2088.62,210.375 2090.81,209.863 2092.99,209.354 2095.17,208.848 2097.35,208.344 2099.54,207.843 2101.72,207.345 2103.9,206.85 2106.09,206.357 2108.27,205.867 2110.45,205.379 2112.63,204.895 2114.82,204.413 2117,203.933 2119.18,203.456 2121.37,202.982 2123.55,202.51 2125.73,202.041 2127.91,201.574 2130.1,201.11 2132.28,200.649 2134.46,200.189 2136.65,199.733 2138.83,199.279 2141.01,198.827 2143.2,198.378 2145.38,197.931 2147.56,197.487 2149.74,197.045 2151.93,196.605 2154.11,196.168 2156.29,195.733 2158.48,195.301 2160.66,194.871 2162.84,194.443 2165.02,194.018 2167.21,193.595 2169.39,193.174 2171.57,192.756 2173.76,192.34 2175.94,191.926 2178.12,191.514 2180.3,191.105 2182.49,190.698 2184.67,190.293 2186.85,189.89 2189.04,189.49 2191.22,189.091 2193.4,188.695 2195.59,188.301 2197.77,187.91 2199.95,187.52 2202.13,187.133 2204.32,186.747 2206.5,186.364 2208.68,185.983 2210.87,185.604 2213.05,185.227 2215.23,184.852 2217.41,184.479 2219.6,184.108 2221.78,183.739 2223.96,183.372 2226.15,183.007 2228.33,182.645 2230.51,182.284 2232.7,181.925 2234.88,181.568 2237.06,181.213 2239.24,180.86 2241.43,180.509 2243.61,180.16 2245.79,179.813 2247.98,179.468 2250.16,179.125 2252.34,178.783 2254.52,178.444 2256.71,178.106 2258.89,177.77 2261.07,177.436 2263.26,177.104 2265.44,176.774 2267.62,176.445 2269.8,176.118 2271.99,175.793 2274.17,175.47 2276.35,175.149 2278.54,174.829 2280.72,174.511 2282.9,174.195 2285.09,173.881 2287.27,173.568 2289.45,173.257 2291.63,172.948 2293.82,172.641 2296,172.335 2298.18,172.031 2300.37,171.728 2302.55,171.427 2304.73,171.128 2306.91,170.831 2309.1,170.535 2311.28,170.241 2313.46,169.948 2315.65,169.657 2317.83,169.368 2320.01,169.08 2322.19,168.794 2324.38,168.509 2326.56,168.226 2328.74,167.945 2330.93,167.665 2333.11,167.386 2335.29,167.109 2337.48,166.834 2339.66,166.56 2341.84,166.288 2344.02,166.017 2346.21,165.748 2348.39,165.48 2350.57,165.213 2352.76,164.948 "/>
<circle clip-path="url(#clip702)" cx="327.782" cy="1379.13" r="14.4" fill="#000000" fill-rule="evenodd" fill-opacity="1" stroke="none"/>
<circle clip-path="url(#clip702)" cx="483.549" cy="1370.61" r="14.4" fill="#000000" fill-rule="evenodd" fill-opacity="1" stroke="none"/>
<circle clip-path="url(#clip702)" cx="639.316" cy="1339.95" r="14.4" fill="#000000" fill-rule="evenodd" fill-opacity="1" stroke="none"/>
<circle clip-path="url(#clip702)" cx="795.084" cy="1254.77" r="14.4" fill="#000000" fill-rule="evenodd" fill-opacity="1" stroke="none"/>
<circle clip-path="url(#clip702)" cx="950.851" cy="1000.96" r="14.4" fill="#000000" fill-rule="evenodd" fill-opacity="1" stroke="none"/>
<circle clip-path="url(#clip702)" cx="1106.62" cy="876.601" r="14.4" fill="#000000" fill-rule="evenodd" fill-opacity="1" stroke="none"/>
<circle clip-path="url(#clip702)" cx="1262.39" cy="944.74" r="14.4" fill="#000000" fill-rule="evenodd" fill-opacity="1" stroke="none"/>
<circle clip-path="url(#clip702)" cx="1418.15" cy="987.327" r="14.4" fill="#000000" fill-rule="evenodd" fill-opacity="1" stroke="none"/>
<circle clip-path="url(#clip702)" cx="1573.92" cy="1062.28" r="14.4" fill="#000000" fill-rule="evenodd" fill-opacity="1" stroke="none"/>
<circle clip-path="url(#clip702)" cx="1729.69" cy="1166.19" r="14.4" fill="#000000" fill-rule="evenodd" fill-opacity="1" stroke="none"/>
<circle clip-path="url(#clip702)" cx="1885.45" cy="1268.4" r="14.4" fill="#000000" fill-rule="evenodd" fill-opacity="1" stroke="none"/>
<circle clip-path="url(#clip702)" cx="2041.22" cy="1334.84" r="14.4" fill="#000000" fill-rule="evenodd" fill-opacity="1" stroke="none"/>
<circle clip-path="url(#clip702)" cx="2196.99" cy="1360.39" r="14.4" fill="#000000" fill-rule="evenodd" fill-opacity="1" stroke="none"/>
<circle clip-path="url(#clip702)" cx="2352.76" cy="1377.42" r="14.4" fill="#000000" fill-rule="evenodd" fill-opacity="1" stroke="none"/>
<path clip-path="url(#clip700)" d="M1793.29 352.309 L2280.06 352.309 L2280.06 93.1086 L1793.29 93.1086  Z" fill="#ffffff" fill-rule="evenodd" fill-opacity="1"/>
<polyline clip-path="url(#clip700)" style="stroke:#000000; stroke-linecap:round; stroke-linejoin:round; stroke-width:4; stroke-opacity:1; fill:none" points="1793.29,352.309 2280.06,352.309 2280.06,93.1086 1793.29,93.1086 1793.29,352.309 "/>
<polyline clip-path="url(#clip700)" style="stroke:#009af9; stroke-linecap:round; stroke-linejoin:round; stroke-width:8; stroke-opacity:0.5; fill:none" points="1817.52,144.949 1962.9,144.949 "/>
<path clip-path="url(#clip700)" d="M2009.38 128.803 L2009.38 133.363 Q2006.72 132.09 2004.35 131.465 Q2001.99 130.84 1999.79 130.84 Q1995.97 130.84 1993.89 132.321 Q1991.83 133.803 1991.83 136.534 Q1991.83 138.826 1993.2 140.007 Q1994.59 141.164 1998.43 141.882 L2001.25 142.46 Q2006.48 143.456 2008.96 145.979 Q2011.46 148.479 2011.46 152.692 Q2011.46 157.715 2008.08 160.307 Q2004.72 162.9 1998.22 162.9 Q1995.77 162.9 1992.99 162.344 Q1990.23 161.789 1987.27 160.701 L1987.27 155.886 Q1990.12 157.483 1992.85 158.293 Q1995.58 159.104 1998.22 159.104 Q2002.22 159.104 2004.4 157.53 Q2006.58 155.956 2006.58 153.039 Q2006.58 150.493 2005 149.057 Q2003.45 147.622 1999.89 146.905 L1997.04 146.349 Q1991.81 145.307 1989.47 143.085 Q1987.13 140.863 1987.13 136.905 Q1987.13 132.321 1990.35 129.682 Q1993.59 127.044 1999.26 127.044 Q2001.69 127.044 2004.22 127.483 Q2006.74 127.923 2009.38 128.803 Z" fill="#000000" fill-rule="nonzero" fill-opacity="1" /><path clip-path="url(#clip700)" d="M2018.13 151.997 L2018.13 136.303 L2022.39 136.303 L2022.39 151.835 Q2022.39 155.516 2023.82 157.368 Q2025.26 159.196 2028.13 159.196 Q2031.58 159.196 2033.57 156.997 Q2035.58 154.798 2035.58 151.002 L2035.58 136.303 L2039.84 136.303 L2039.84 162.229 L2035.58 162.229 L2035.58 158.247 Q2034.03 160.608 2031.97 161.766 Q2029.93 162.9 2027.22 162.9 Q2022.76 162.9 2020.44 160.122 Q2018.13 157.344 2018.13 151.997 M2028.84 135.678 L2028.84 135.678 Z" fill="#000000" fill-rule="nonzero" fill-opacity="1" /><path clip-path="url(#clip700)" d="M2065.14 137.067 L2065.14 141.094 Q2063.34 140.169 2061.39 139.706 Q2059.45 139.243 2057.36 139.243 Q2054.19 139.243 2052.59 140.215 Q2051.02 141.187 2051.02 143.131 Q2051.02 144.613 2052.15 145.469 Q2053.29 146.303 2056.71 147.067 L2058.17 147.391 Q2062.71 148.363 2064.61 150.145 Q2066.53 151.905 2066.53 155.076 Q2066.53 158.687 2063.66 160.793 Q2060.81 162.9 2055.81 162.9 Q2053.73 162.9 2051.46 162.483 Q2049.21 162.09 2046.71 161.28 L2046.71 156.881 Q2049.08 158.108 2051.37 158.733 Q2053.66 159.335 2055.9 159.335 Q2058.91 159.335 2060.53 158.317 Q2062.15 157.275 2062.15 155.4 Q2062.15 153.664 2060.97 152.738 Q2059.82 151.812 2055.86 150.956 L2054.38 150.608 Q2050.42 149.775 2048.66 148.062 Q2046.9 146.326 2046.9 143.317 Q2046.9 139.659 2049.49 137.669 Q2052.09 135.678 2056.85 135.678 Q2059.21 135.678 2061.3 136.025 Q2063.38 136.372 2065.14 137.067 Z" fill="#000000" fill-rule="nonzero" fill-opacity="1" /><path clip-path="url(#clip700)" d="M2091.97 137.298 L2091.97 141.28 Q2090.16 140.284 2088.33 139.798 Q2086.53 139.289 2084.68 139.289 Q2080.53 139.289 2078.24 141.928 Q2075.95 144.544 2075.95 149.289 Q2075.95 154.034 2078.24 156.673 Q2080.53 159.289 2084.68 159.289 Q2086.53 159.289 2088.33 158.803 Q2090.16 158.293 2091.97 157.298 L2091.97 161.233 Q2090.19 162.067 2088.27 162.483 Q2086.37 162.9 2084.21 162.9 Q2078.36 162.9 2074.91 159.219 Q2071.46 155.539 2071.46 149.289 Q2071.46 142.946 2074.93 139.312 Q2078.43 135.678 2084.49 135.678 Q2086.46 135.678 2088.33 136.095 Q2090.21 136.488 2091.97 137.298 Z" fill="#000000" fill-rule="nonzero" fill-opacity="1" /><path clip-path="url(#clip700)" d="M2121.55 148.201 L2121.55 150.284 L2101.97 150.284 Q2102.25 154.682 2104.61 156.997 Q2106.99 159.289 2111.23 159.289 Q2113.68 159.289 2115.97 158.687 Q2118.29 158.085 2120.56 156.881 L2120.56 160.909 Q2118.27 161.881 2115.86 162.391 Q2113.45 162.9 2110.97 162.9 Q2104.77 162.9 2101.14 159.289 Q2097.52 155.678 2097.52 149.52 Q2097.52 143.155 2100.95 139.428 Q2104.4 135.678 2110.23 135.678 Q2115.46 135.678 2118.5 139.057 Q2121.55 142.414 2121.55 148.201 M2117.29 146.951 Q2117.25 143.456 2115.33 141.372 Q2113.43 139.289 2110.28 139.289 Q2106.71 139.289 2104.56 141.303 Q2102.43 143.317 2102.11 146.974 L2117.29 146.951 Z" fill="#000000" fill-rule="nonzero" fill-opacity="1" /><path clip-path="url(#clip700)" d="M2132.66 158.34 L2132.66 172.09 L2128.38 172.09 L2128.38 136.303 L2132.66 136.303 L2132.66 140.238 Q2134.01 137.923 2136.04 136.812 Q2138.1 135.678 2140.95 135.678 Q2145.67 135.678 2148.61 139.428 Q2151.58 143.178 2151.58 149.289 Q2151.58 155.4 2148.61 159.15 Q2145.67 162.9 2140.95 162.9 Q2138.1 162.9 2136.04 161.789 Q2134.01 160.655 2132.66 158.34 M2147.15 149.289 Q2147.15 144.59 2145.21 141.928 Q2143.29 139.243 2139.91 139.243 Q2136.53 139.243 2134.58 141.928 Q2132.66 144.59 2132.66 149.289 Q2132.66 153.988 2134.58 156.673 Q2136.53 159.335 2139.91 159.335 Q2143.29 159.335 2145.21 156.673 Q2147.15 153.988 2147.15 149.289 Z" fill="#000000" fill-rule="nonzero" fill-opacity="1" /><path clip-path="url(#clip700)" d="M2162.85 128.942 L2162.85 136.303 L2171.62 136.303 L2171.62 139.613 L2162.85 139.613 L2162.85 153.687 Q2162.85 156.858 2163.7 157.761 Q2164.58 158.664 2167.25 158.664 L2171.62 158.664 L2171.62 162.229 L2167.25 162.229 Q2162.32 162.229 2160.44 160.4 Q2158.57 158.548 2158.57 153.687 L2158.57 139.613 L2155.44 139.613 L2155.44 136.303 L2158.57 136.303 L2158.57 128.942 L2162.85 128.942 Z" fill="#000000" fill-rule="nonzero" fill-opacity="1" /><path clip-path="url(#clip700)" d="M2177.22 136.303 L2181.48 136.303 L2181.48 162.229 L2177.22 162.229 L2177.22 136.303 M2177.22 126.21 L2181.48 126.21 L2181.48 131.604 L2177.22 131.604 L2177.22 126.21 Z" fill="#000000" fill-rule="nonzero" fill-opacity="1" /><path clip-path="url(#clip700)" d="M2209.01 149.289 Q2209.01 144.59 2207.06 141.928 Q2205.14 139.243 2201.76 139.243 Q2198.38 139.243 2196.44 141.928 Q2194.51 144.59 2194.51 149.289 Q2194.51 153.988 2196.44 156.673 Q2198.38 159.335 2201.76 159.335 Q2205.14 159.335 2207.06 156.673 Q2209.01 153.988 2209.01 149.289 M2194.51 140.238 Q2195.86 137.923 2197.89 136.812 Q2199.95 135.678 2202.8 135.678 Q2207.52 135.678 2210.46 139.428 Q2213.43 143.178 2213.43 149.289 Q2213.43 155.4 2210.46 159.15 Q2207.52 162.9 2202.8 162.9 Q2199.95 162.9 2197.89 161.789 Q2195.86 160.655 2194.51 158.34 L2194.51 162.229 L2190.23 162.229 L2190.23 126.21 L2194.51 126.21 L2194.51 140.238 Z" fill="#000000" fill-rule="nonzero" fill-opacity="1" /><path clip-path="url(#clip700)" d="M2220.49 126.21 L2224.75 126.21 L2224.75 162.229 L2220.49 162.229 L2220.49 126.21 Z" fill="#000000" fill-rule="nonzero" fill-opacity="1" /><path clip-path="url(#clip700)" d="M2255.83 148.201 L2255.83 150.284 L2236.25 150.284 Q2236.53 154.682 2238.89 156.997 Q2241.27 159.289 2245.51 159.289 Q2247.96 159.289 2250.26 158.687 Q2252.57 158.085 2254.84 156.881 L2254.84 160.909 Q2252.55 161.881 2250.14 162.391 Q2247.73 162.9 2245.26 162.9 Q2239.05 162.9 2235.42 159.289 Q2231.81 155.678 2231.81 149.52 Q2231.81 143.155 2235.23 139.428 Q2238.68 135.678 2244.51 135.678 Q2249.75 135.678 2252.78 139.057 Q2255.83 142.414 2255.83 148.201 M2251.57 146.951 Q2251.53 143.456 2249.61 141.372 Q2247.71 139.289 2244.56 139.289 Q2241 139.289 2238.84 141.303 Q2236.71 143.317 2236.39 146.974 L2251.57 146.951 Z" fill="#000000" fill-rule="nonzero" fill-opacity="1" /><polyline clip-path="url(#clip700)" style="stroke:#e26f46; stroke-linecap:round; stroke-linejoin:round; stroke-width:8; stroke-opacity:0.5; fill:none" points="1817.52,196.789 1962.9,196.789 "/>
<path clip-path="url(#clip700)" d="M1987.13 179.509 L1991.81 179.509 L1991.81 214.069 L1987.13 214.069 L1987.13 179.509 Z" fill="#000000" fill-rule="nonzero" fill-opacity="1" /><path clip-path="url(#clip700)" d="M2022.48 198.421 L2022.48 214.069 L2018.22 214.069 L2018.22 198.559 Q2018.22 194.879 2016.78 193.05 Q2015.35 191.222 2012.48 191.222 Q2009.03 191.222 2007.04 193.421 Q2005.05 195.62 2005.05 199.416 L2005.05 214.069 L2000.77 214.069 L2000.77 188.143 L2005.05 188.143 L2005.05 192.171 Q2006.58 189.833 2008.64 188.675 Q2010.72 187.518 2013.43 187.518 Q2017.9 187.518 2020.19 190.296 Q2022.48 193.05 2022.48 198.421 Z" fill="#000000" fill-rule="nonzero" fill-opacity="1" /><path clip-path="url(#clip700)" d="M2044.1 178.05 L2044.1 181.592 L2040.03 181.592 Q2037.73 181.592 2036.83 182.518 Q2035.95 183.444 2035.95 185.851 L2035.95 188.143 L2042.96 188.143 L2042.96 191.453 L2035.95 191.453 L2035.95 214.069 L2031.67 214.069 L2031.67 191.453 L2027.59 191.453 L2027.59 188.143 L2031.67 188.143 L2031.67 186.337 Q2031.67 182.009 2033.68 180.041 Q2035.7 178.05 2040.07 178.05 L2044.1 178.05 Z" fill="#000000" fill-rule="nonzero" fill-opacity="1" /><path clip-path="url(#clip700)" d="M2069.84 200.041 L2069.84 202.124 L2050.26 202.124 Q2050.53 206.522 2052.9 208.837 Q2055.28 211.129 2059.52 211.129 Q2061.97 211.129 2064.26 210.527 Q2066.58 209.925 2068.84 208.721 L2068.84 212.749 Q2066.55 213.721 2064.15 214.231 Q2061.74 214.74 2059.26 214.74 Q2053.06 214.74 2049.42 211.129 Q2045.81 207.518 2045.81 201.36 Q2045.81 194.995 2049.24 191.268 Q2052.69 187.518 2058.52 187.518 Q2063.75 187.518 2066.78 190.897 Q2069.84 194.254 2069.84 200.041 M2065.58 198.791 Q2065.53 195.296 2063.61 193.212 Q2061.71 191.129 2058.57 191.129 Q2055 191.129 2052.85 193.143 Q2050.72 195.157 2050.4 198.814 L2065.58 198.791 Z" fill="#000000" fill-rule="nonzero" fill-opacity="1" /><path clip-path="url(#clip700)" d="M2095.49 189.138 L2095.49 193.12 Q2093.68 192.124 2091.85 191.638 Q2090.05 191.129 2088.2 191.129 Q2084.05 191.129 2081.76 193.768 Q2079.47 196.384 2079.47 201.129 Q2079.47 205.874 2081.76 208.513 Q2084.05 211.129 2088.2 211.129 Q2090.05 211.129 2091.85 210.643 Q2093.68 210.133 2095.49 209.138 L2095.49 213.073 Q2093.71 213.907 2091.78 214.323 Q2089.89 214.74 2087.73 214.74 Q2081.88 214.74 2078.43 211.059 Q2074.98 207.379 2074.98 201.129 Q2074.98 194.786 2078.45 191.152 Q2081.95 187.518 2088.01 187.518 Q2089.98 187.518 2091.85 187.935 Q2093.73 188.328 2095.49 189.138 Z" fill="#000000" fill-rule="nonzero" fill-opacity="1" /><path clip-path="url(#clip700)" d="M2107.11 180.782 L2107.11 188.143 L2115.88 188.143 L2115.88 191.453 L2107.11 191.453 L2107.11 205.527 Q2107.11 208.698 2107.96 209.601 Q2108.84 210.504 2111.51 210.504 L2115.88 210.504 L2115.88 214.069 L2111.51 214.069 Q2106.58 214.069 2104.7 212.24 Q2102.83 210.388 2102.83 205.527 L2102.83 191.453 L2099.7 191.453 L2099.7 188.143 L2102.83 188.143 L2102.83 180.782 L2107.11 180.782 Z" fill="#000000" fill-rule="nonzero" fill-opacity="1" /><path clip-path="url(#clip700)" d="M2143.66 200.041 L2143.66 202.124 L2124.08 202.124 Q2124.35 206.522 2126.71 208.837 Q2129.1 211.129 2133.33 211.129 Q2135.79 211.129 2138.08 210.527 Q2140.39 209.925 2142.66 208.721 L2142.66 212.749 Q2140.37 213.721 2137.96 214.231 Q2135.56 214.74 2133.08 214.74 Q2126.88 214.74 2123.24 211.129 Q2119.63 207.518 2119.63 201.36 Q2119.63 194.995 2123.06 191.268 Q2126.51 187.518 2132.34 187.518 Q2137.57 187.518 2140.6 190.897 Q2143.66 194.254 2143.66 200.041 M2139.4 198.791 Q2139.35 195.296 2137.43 193.212 Q2135.53 191.129 2132.39 191.129 Q2128.82 191.129 2126.67 193.143 Q2124.54 195.157 2124.21 198.814 L2139.4 198.791 Z" fill="#000000" fill-rule="nonzero" fill-opacity="1" /><path clip-path="url(#clip700)" d="M2167.71 192.078 L2167.71 178.05 L2171.97 178.05 L2171.97 214.069 L2167.71 214.069 L2167.71 210.18 Q2166.37 212.495 2164.31 213.629 Q2162.27 214.74 2159.4 214.74 Q2154.7 214.74 2151.74 210.99 Q2148.8 207.24 2148.8 201.129 Q2148.8 195.018 2151.74 191.268 Q2154.7 187.518 2159.4 187.518 Q2162.27 187.518 2164.31 188.652 Q2166.37 189.763 2167.71 192.078 M2153.2 201.129 Q2153.2 205.828 2155.12 208.513 Q2157.06 211.175 2160.44 211.175 Q2163.82 211.175 2165.77 208.513 Q2167.71 205.828 2167.71 201.129 Q2167.71 196.43 2165.77 193.768 Q2163.82 191.083 2160.44 191.083 Q2157.06 191.083 2155.12 193.768 Q2153.2 196.43 2153.2 201.129 Z" fill="#000000" fill-rule="nonzero" fill-opacity="1" /><polyline clip-path="url(#clip700)" style="stroke:#3da44d; stroke-linecap:round; stroke-linejoin:round; stroke-width:8; stroke-opacity:0.5; fill:none" points="1817.52,248.629 1962.9,248.629 "/>
<path clip-path="url(#clip700)" d="M2003.52 249.705 Q2005.03 250.214 2006.44 251.881 Q2007.87 253.548 2009.31 256.464 L2014.05 265.909 L2009.03 265.909 L2004.61 257.043 Q2002.9 253.571 2001.28 252.436 Q1999.68 251.302 1996.9 251.302 L1991.81 251.302 L1991.81 265.909 L1987.13 265.909 L1987.13 231.349 L1997.69 231.349 Q2003.61 231.349 2006.53 233.825 Q2009.45 236.302 2009.45 241.302 Q2009.45 244.566 2007.92 246.719 Q2006.41 248.872 2003.52 249.705 M1991.81 235.191 L1991.81 247.46 L1997.69 247.46 Q2001.07 247.46 2002.78 245.909 Q2004.52 244.335 2004.52 241.302 Q2004.52 238.27 2002.78 236.742 Q2001.07 235.191 1997.69 235.191 L1991.81 235.191 Z" fill="#000000" fill-rule="nonzero" fill-opacity="1" /><path clip-path="url(#clip700)" d="M2039.93 251.881 L2039.93 253.964 L2020.35 253.964 Q2020.63 258.362 2022.99 260.677 Q2025.37 262.969 2029.61 262.969 Q2032.06 262.969 2034.35 262.367 Q2036.67 261.765 2038.94 260.561 L2038.94 264.589 Q2036.65 265.561 2034.24 266.071 Q2031.83 266.58 2029.35 266.58 Q2023.15 266.58 2019.52 262.969 Q2015.9 259.358 2015.9 253.2 Q2015.9 246.835 2019.33 243.108 Q2022.78 239.358 2028.61 239.358 Q2033.84 239.358 2036.88 242.737 Q2039.93 246.094 2039.93 251.881 M2035.67 250.631 Q2035.63 247.136 2033.71 245.052 Q2031.81 242.969 2028.66 242.969 Q2025.09 242.969 2022.94 244.983 Q2020.81 246.997 2020.49 250.654 L2035.67 250.631 Z" fill="#000000" fill-rule="nonzero" fill-opacity="1" /><path clip-path="url(#clip700)" d="M2065.58 240.978 L2065.58 244.96 Q2063.77 243.964 2061.95 243.478 Q2060.14 242.969 2058.29 242.969 Q2054.15 242.969 2051.85 245.608 Q2049.56 248.224 2049.56 252.969 Q2049.56 257.714 2051.85 260.353 Q2054.15 262.969 2058.29 262.969 Q2060.14 262.969 2061.95 262.483 Q2063.77 261.973 2065.58 260.978 L2065.58 264.913 Q2063.8 265.747 2061.88 266.163 Q2059.98 266.58 2057.83 266.58 Q2051.97 266.58 2048.52 262.899 Q2045.07 259.219 2045.07 252.969 Q2045.07 246.626 2048.54 242.992 Q2052.04 239.358 2058.1 239.358 Q2060.07 239.358 2061.95 239.775 Q2063.82 240.168 2065.58 240.978 Z" fill="#000000" fill-rule="nonzero" fill-opacity="1" /><path clip-path="url(#clip700)" d="M2083.03 242.969 Q2079.61 242.969 2077.62 245.654 Q2075.63 248.316 2075.63 252.969 Q2075.63 257.622 2077.59 260.307 Q2079.59 262.969 2083.03 262.969 Q2086.44 262.969 2088.43 260.284 Q2090.42 257.598 2090.42 252.969 Q2090.42 248.362 2088.43 245.677 Q2086.44 242.969 2083.03 242.969 M2083.03 239.358 Q2088.59 239.358 2091.76 242.969 Q2094.93 246.58 2094.93 252.969 Q2094.93 259.335 2091.76 262.969 Q2088.59 266.58 2083.03 266.58 Q2077.46 266.58 2074.28 262.969 Q2071.14 259.335 2071.14 252.969 Q2071.14 246.58 2074.28 242.969 Q2077.46 239.358 2083.03 239.358 Z" fill="#000000" fill-rule="nonzero" fill-opacity="1" /><path clip-path="url(#clip700)" d="M2098.94 239.983 L2103.45 239.983 L2111.55 261.742 L2119.65 239.983 L2124.17 239.983 L2114.45 265.909 L2108.66 265.909 L2098.94 239.983 Z" fill="#000000" fill-rule="nonzero" fill-opacity="1" /><path clip-path="url(#clip700)" d="M2152.22 251.881 L2152.22 253.964 L2132.64 253.964 Q2132.92 258.362 2135.28 260.677 Q2137.66 262.969 2141.9 262.969 Q2144.35 262.969 2146.64 262.367 Q2148.96 261.765 2151.23 260.561 L2151.23 264.589 Q2148.94 265.561 2146.53 266.071 Q2144.12 266.58 2141.64 266.58 Q2135.44 266.58 2131.81 262.969 Q2128.2 259.358 2128.2 253.2 Q2128.2 246.835 2131.62 243.108 Q2135.07 239.358 2140.9 239.358 Q2146.14 239.358 2149.17 242.737 Q2152.22 246.094 2152.22 251.881 M2147.96 250.631 Q2147.92 247.136 2146 245.052 Q2144.1 242.969 2140.95 242.969 Q2137.39 242.969 2135.23 244.983 Q2133.1 246.997 2132.78 250.654 L2147.96 250.631 Z" fill="#000000" fill-rule="nonzero" fill-opacity="1" /><path clip-path="url(#clip700)" d="M2174.24 243.964 Q2173.52 243.548 2172.66 243.362 Q2171.83 243.154 2170.81 243.154 Q2167.2 243.154 2165.26 245.515 Q2163.33 247.853 2163.33 252.251 L2163.33 265.909 L2159.05 265.909 L2159.05 239.983 L2163.33 239.983 L2163.33 244.011 Q2164.68 241.649 2166.83 240.515 Q2168.98 239.358 2172.06 239.358 Q2172.5 239.358 2173.03 239.427 Q2173.57 239.474 2174.21 239.589 L2174.24 243.964 Z" fill="#000000" fill-rule="nonzero" fill-opacity="1" /><path clip-path="url(#clip700)" d="M2199.84 251.881 L2199.84 253.964 L2180.26 253.964 Q2180.53 258.362 2182.89 260.677 Q2185.28 262.969 2189.51 262.969 Q2191.97 262.969 2194.26 262.367 Q2196.58 261.765 2198.84 260.561 L2198.84 264.589 Q2196.55 265.561 2194.14 266.071 Q2191.74 266.58 2189.26 266.58 Q2183.06 266.58 2179.42 262.969 Q2175.81 259.358 2175.81 253.2 Q2175.81 246.835 2179.24 243.108 Q2182.69 239.358 2188.52 239.358 Q2193.75 239.358 2196.78 242.737 Q2199.84 246.094 2199.84 251.881 M2195.58 250.631 Q2195.53 247.136 2193.61 245.052 Q2191.71 242.969 2188.57 242.969 Q2185 242.969 2182.85 244.983 Q2180.72 246.997 2180.39 250.654 L2195.58 250.631 Z" fill="#000000" fill-rule="nonzero" fill-opacity="1" /><path clip-path="url(#clip700)" d="M2223.89 243.918 L2223.89 229.89 L2228.15 229.89 L2228.15 265.909 L2223.89 265.909 L2223.89 262.02 Q2222.55 264.335 2220.49 265.469 Q2218.45 266.58 2215.58 266.58 Q2210.88 266.58 2207.92 262.83 Q2204.98 259.08 2204.98 252.969 Q2204.98 246.858 2207.92 243.108 Q2210.88 239.358 2215.58 239.358 Q2218.45 239.358 2220.49 240.492 Q2222.55 241.603 2223.89 243.918 M2209.38 252.969 Q2209.38 257.668 2211.3 260.353 Q2213.24 263.015 2216.62 263.015 Q2220 263.015 2221.95 260.353 Q2223.89 257.668 2223.89 252.969 Q2223.89 248.27 2221.95 245.608 Q2220 242.923 2216.62 242.923 Q2213.24 242.923 2211.3 245.608 Q2209.38 248.27 2209.38 252.969 Z" fill="#000000" fill-rule="nonzero" fill-opacity="1" /><circle clip-path="url(#clip700)" cx="1890.21" cy="300.469" r="20.48" fill="#000000" fill-rule="evenodd" fill-opacity="1" stroke="none"/>
<path clip-path="url(#clip700)" d="M1991.81 287.031 L1991.81 313.906 L1997.46 313.906 Q2004.61 313.906 2007.92 310.665 Q2011.25 307.425 2011.25 300.434 Q2011.25 293.489 2007.92 290.272 Q2004.61 287.031 1997.46 287.031 L1991.81 287.031 M1987.13 283.189 L1996.74 283.189 Q2006.78 283.189 2011.48 287.378 Q2016.18 291.545 2016.18 300.434 Q2016.18 309.369 2011.46 313.559 Q2006.74 317.749 1996.74 317.749 L1987.13 317.749 L1987.13 283.189 Z" fill="#000000" fill-rule="nonzero" fill-opacity="1" /><path clip-path="url(#clip700)" d="M2035.23 304.716 Q2030.07 304.716 2028.08 305.897 Q2026.09 307.077 2026.09 309.925 Q2026.09 312.193 2027.57 313.536 Q2029.08 314.855 2031.65 314.855 Q2035.19 314.855 2037.32 312.355 Q2039.47 309.832 2039.47 305.665 L2039.47 304.716 L2035.23 304.716 M2043.73 302.957 L2043.73 317.749 L2039.47 317.749 L2039.47 313.813 Q2038.01 316.175 2035.84 317.309 Q2033.66 318.42 2030.51 318.42 Q2026.53 318.42 2024.17 316.198 Q2021.83 313.952 2021.83 310.202 Q2021.83 305.827 2024.75 303.605 Q2027.69 301.383 2033.5 301.383 L2039.47 301.383 L2039.47 300.966 Q2039.47 298.027 2037.53 296.429 Q2035.6 294.809 2032.11 294.809 Q2029.89 294.809 2027.78 295.341 Q2025.67 295.874 2023.73 296.939 L2023.73 293.003 Q2026.07 292.101 2028.27 291.661 Q2030.46 291.198 2032.55 291.198 Q2038.17 291.198 2040.95 294.114 Q2043.73 297.031 2043.73 302.957 Z" fill="#000000" fill-rule="nonzero" fill-opacity="1" /><path clip-path="url(#clip700)" d="M2056.71 284.462 L2056.71 291.823 L2065.49 291.823 L2065.49 295.133 L2056.71 295.133 L2056.71 309.207 Q2056.71 312.378 2057.57 313.281 Q2058.45 314.184 2061.11 314.184 L2065.49 314.184 L2065.49 317.749 L2061.11 317.749 Q2056.18 317.749 2054.31 315.92 Q2052.43 314.068 2052.43 309.207 L2052.43 295.133 L2049.31 295.133 L2049.31 291.823 L2052.43 291.823 L2052.43 284.462 L2056.71 284.462 Z" fill="#000000" fill-rule="nonzero" fill-opacity="1" /><path clip-path="url(#clip700)" d="M2082.87 304.716 Q2077.71 304.716 2075.72 305.897 Q2073.73 307.077 2073.73 309.925 Q2073.73 312.193 2075.21 313.536 Q2076.71 314.855 2079.28 314.855 Q2082.83 314.855 2084.96 312.355 Q2087.11 309.832 2087.11 305.665 L2087.11 304.716 L2082.87 304.716 M2091.37 302.957 L2091.37 317.749 L2087.11 317.749 L2087.11 313.813 Q2085.65 316.175 2083.47 317.309 Q2081.3 318.42 2078.15 318.42 Q2074.17 318.42 2071.81 316.198 Q2069.47 313.952 2069.47 310.202 Q2069.47 305.827 2072.39 303.605 Q2075.33 301.383 2081.14 301.383 L2087.11 301.383 L2087.11 300.966 Q2087.11 298.027 2085.16 296.429 Q2083.24 294.809 2079.75 294.809 Q2077.52 294.809 2075.42 295.341 Q2073.31 295.874 2071.37 296.939 L2071.37 293.003 Q2073.71 292.101 2075.9 291.661 Q2078.1 291.198 2080.19 291.198 Q2085.81 291.198 2088.59 294.114 Q2091.37 297.031 2091.37 302.957 Z" fill="#000000" fill-rule="nonzero" fill-opacity="1" /></svg>
