<?xml version="1.0" encoding="utf-8"?>
<svg xmlns="http://www.w3.org/2000/svg" xmlns:xlink="http://www.w3.org/1999/xlink" width="600" height="400" viewBox="0 0 2400 1600">
<defs>
  <clipPath id="clip790">
    <rect x="0" y="0" width="2400" height="1600"/>
  </clipPath>
</defs>
<path clip-path="url(#clip790)" d="M0 1600 L2400 1600 L2400 0 L0 0  Z" fill="#ffffff" fill-rule="evenodd" fill-opacity="1"/>
<defs>
  <clipPath id="clip791">
    <rect x="480" y="0" width="1681" height="1600"/>
  </clipPath>
</defs>
<path clip-path="url(#clip790)" d="M172.015 1423.18 L2352.76 1423.18 L2352.76 47.2441 L172.015 47.2441  Z" fill="#ffffff" fill-rule="evenodd" fill-opacity="1"/>
<defs>
  <clipPath id="clip792">
    <rect x="172" y="47" width="2182" height="1377"/>
  </clipPath>
</defs>
<polyline clip-path="url(#clip792)" style="stroke:#000000; stroke-linecap:round; stroke-linejoin:round; stroke-width:2; stroke-opacity:0.1; fill:none" points="172.015,1423.18 172.015,47.2441 "/>
<polyline clip-path="url(#clip792)" style="stroke:#000000; stroke-linecap:round; stroke-linejoin:round; stroke-width:2; stroke-opacity:0.1; fill:none" points="483.549,1423.18 483.549,47.2441 "/>
<polyline clip-path="url(#clip792)" style="stroke:#000000; stroke-linecap:round; stroke-linejoin:round; stroke-width:2; stroke-opacity:0.1; fill:none" points="795.084,1423.18 795.084,47.2441 "/>
<polyline clip-path="url(#clip792)" style="stroke:#000000; stroke-linecap:round; stroke-linejoin:round; stroke-width:2; stroke-opacity:0.1; fill:none" points="1106.62,1423.18 1106.62,47.2441 "/>
<polyline clip-path="url(#clip792)" style="stroke:#000000; stroke-linecap:round; stroke-linejoin:round; stroke-width:2; stroke-opacity:0.1; fill:none" points="1418.15,1423.18 1418.15,47.2441 "/>
<polyline clip-path="url(#clip792)" style="stroke:#000000; stroke-linecap:round; stroke-linejoin:round; stroke-width:2; stroke-opacity:0.1; fill:none" points="1729.69,1423.18 1729.69,47.2441 "/>
<polyline clip-path="url(#clip792)" style="stroke:#000000; stroke-linecap:round; stroke-linejoin:round; stroke-width:2; stroke-opacity:0.1; fill:none" points="2041.22,1423.18 2041.22,47.2441 "/>
<polyline clip-path="url(#clip792)" style="stroke:#000000; stroke-linecap:round; stroke-linejoin:round; stroke-width:2; stroke-opacity:0.1; fill:none" points="2352.76,1423.18 2352.76,47.2441 "/>
<polyline clip-path="url(#clip790)" style="stroke:#000000; stroke-linecap:round; stroke-linejoin:round; stroke-width:4; stroke-opacity:1; fill:none" points="172.015,1423.18 2352.76,1423.18 "/>
<polyline clip-path="url(#clip790)" style="stroke:#000000; stroke-linecap:round; stroke-linejoin:round; stroke-width:4; stroke-opacity:1; fill:none" points="172.015,1423.18 172.015,1404.28 "/>
<polyline clip-path="url(#clip790)" style="stroke:#000000; stroke-linecap:round; stroke-linejoin:round; stroke-width:4; stroke-opacity:1; fill:none" points="483.549,1423.18 483.549,1404.28 "/>
<polyline clip-path="url(#clip790)" style="stroke:#000000; stroke-linecap:round; stroke-linejoin:round; stroke-width:4; stroke-opacity:1; fill:none" points="795.084,1423.18 795.084,1404.28 "/>
<polyline clip-path="url(#clip790)" style="stroke:#000000; stroke-linecap:round; stroke-linejoin:round; stroke-width:4; stroke-opacity:1; fill:none" points="1106.62,1423.18 1106.62,1404.28 "/>
<polyline clip-path="url(#clip790)" style="stroke:#000000; stroke-linecap:round; stroke-linejoin:round; stroke-width:4; stroke-opacity:1; fill:none" points="1418.15,1423.18 1418.15,1404.28 "/>
<polyline clip-path="url(#clip790)" style="stroke:#000000; stroke-linecap:round; stroke-linejoin:round; stroke-width:4; stroke-opacity:1; fill:none" points="1729.69,1423.18 1729.69,1404.28 "/>
<polyline clip-path="url(#clip790)" style="stroke:#000000; stroke-linecap:round; stroke-linejoin:round; stroke-width:4; stroke-opacity:1; fill:none" points="2041.22,1423.18 2041.22,1404.28 "/>
<polyline clip-path="url(#clip790)" style="stroke:#000000; stroke-linecap:round; stroke-linejoin:round; stroke-width:4; stroke-opacity:1; fill:none" points="2352.76,1423.18 2352.76,1404.28 "/>
<path clip-path="url(#clip790)" d="M172.015 1454.1 Q168.404 1454.1 166.575 1457.66 Q164.769 1461.2 164.769 1468.33 Q164.769 1475.44 166.575 1479.01 Q168.404 1482.55 172.015 1482.55 Q175.649 1482.55 177.455 1479.01 Q179.283 1475.44 179.283 1468.33 Q179.283 1461.2 177.455 1457.66 Q175.649 1454.1 172.015 1454.1 M172.015 1450.39 Q177.825 1450.39 180.881 1455 Q183.959 1459.58 183.959 1468.33 Q183.959 1477.06 180.881 1481.67 Q177.825 1486.25 172.015 1486.25 Q166.205 1486.25 163.126 1481.67 Q160.07 1477.06 160.07 1468.33 Q160.07 1459.58 163.126 1455 Q166.205 1450.39 172.015 1450.39 Z" fill="#000000" fill-rule="nonzero" fill-opacity="1" /><path clip-path="url(#clip790)" d="M478.202 1481.64 L494.521 1481.64 L494.521 1485.58 L472.577 1485.58 L472.577 1481.64 Q475.239 1478.89 479.822 1474.26 Q484.429 1469.61 485.609 1468.27 Q487.855 1465.74 488.734 1464.01 Q489.637 1462.25 489.637 1460.56 Q489.637 1457.8 487.693 1456.07 Q485.771 1454.33 482.67 1454.33 Q480.471 1454.33 478.017 1455.09 Q475.586 1455.86 472.809 1457.41 L472.809 1452.69 Q475.633 1451.55 478.086 1450.97 Q480.54 1450.39 482.577 1450.39 Q487.947 1450.39 491.142 1453.08 Q494.336 1455.77 494.336 1460.26 Q494.336 1462.39 493.526 1464.31 Q492.739 1466.2 490.633 1468.8 Q490.054 1469.47 486.952 1472.69 Q483.85 1475.88 478.202 1481.64 Z" fill="#000000" fill-rule="nonzero" fill-opacity="1" /><path clip-path="url(#clip790)" d="M798.093 1455.09 L786.287 1473.54 L798.093 1473.54 L798.093 1455.09 M796.866 1451.02 L802.746 1451.02 L802.746 1473.54 L807.676 1473.54 L807.676 1477.43 L802.746 1477.43 L802.746 1485.58 L798.093 1485.58 L798.093 1477.43 L782.491 1477.43 L782.491 1472.92 L796.866 1451.02 Z" fill="#000000" fill-rule="nonzero" fill-opacity="1" /><path clip-path="url(#clip790)" d="M1107.02 1466.44 Q1103.88 1466.44 1102.02 1468.59 Q1100.19 1470.74 1100.19 1474.49 Q1100.19 1478.22 1102.02 1480.39 Q1103.88 1482.55 1107.02 1482.55 Q1110.17 1482.55 1112 1480.39 Q1113.85 1478.22 1113.85 1474.49 Q1113.85 1470.74 1112 1468.59 Q1110.17 1466.44 1107.02 1466.44 M1116.31 1451.78 L1116.31 1456.04 Q1114.55 1455.21 1112.74 1454.77 Q1110.96 1454.33 1109.2 1454.33 Q1104.57 1454.33 1102.12 1457.45 Q1099.69 1460.58 1099.34 1466.9 Q1100.7 1464.89 1102.76 1463.82 Q1104.82 1462.73 1107.3 1462.73 Q1112.51 1462.73 1115.52 1465.9 Q1118.55 1469.05 1118.55 1474.49 Q1118.55 1479.82 1115.4 1483.03 Q1112.25 1486.25 1107.02 1486.25 Q1101.03 1486.25 1097.86 1481.67 Q1094.69 1477.06 1094.69 1468.33 Q1094.69 1460.14 1098.57 1455.28 Q1102.46 1450.39 1109.01 1450.39 Q1110.77 1450.39 1112.56 1450.74 Q1114.36 1451.09 1116.31 1451.78 Z" fill="#000000" fill-rule="nonzero" fill-opacity="1" /><path clip-path="url(#clip790)" d="M1418.15 1469.17 Q1414.82 1469.17 1412.9 1470.95 Q1411 1472.73 1411 1475.86 Q1411 1478.98 1412.9 1480.77 Q1414.82 1482.55 1418.15 1482.55 Q1421.49 1482.55 1423.41 1480.77 Q1425.33 1478.96 1425.33 1475.86 Q1425.33 1472.73 1423.41 1470.95 Q1421.51 1469.17 1418.15 1469.17 M1413.48 1467.18 Q1410.47 1466.44 1408.78 1464.38 Q1407.11 1462.32 1407.11 1459.35 Q1407.11 1455.21 1410.05 1452.8 Q1413.01 1450.39 1418.15 1450.39 Q1423.31 1450.39 1426.25 1452.8 Q1429.19 1455.21 1429.19 1459.35 Q1429.19 1462.32 1427.5 1464.38 Q1425.84 1466.44 1422.85 1467.18 Q1426.23 1467.96 1428.11 1470.26 Q1430 1472.55 1430 1475.86 Q1430 1480.88 1426.93 1483.57 Q1423.87 1486.25 1418.15 1486.25 Q1412.44 1486.25 1409.36 1483.57 Q1406.3 1480.88 1406.3 1475.86 Q1406.3 1472.55 1408.2 1470.26 Q1410.1 1467.96 1413.48 1467.18 M1411.76 1459.79 Q1411.76 1462.48 1413.43 1463.98 Q1415.12 1465.49 1418.15 1465.49 Q1421.16 1465.49 1422.85 1463.98 Q1424.56 1462.48 1424.56 1459.79 Q1424.56 1457.11 1422.85 1455.6 Q1421.16 1454.1 1418.15 1454.1 Q1415.12 1454.1 1413.43 1455.6 Q1411.76 1457.11 1411.76 1459.79 Z" fill="#000000" fill-rule="nonzero" fill-opacity="1" /><path clip-path="url(#clip790)" d="M1704.37 1481.64 L1712.01 1481.64 L1712.01 1455.28 L1703.7 1456.95 L1703.7 1452.69 L1711.97 1451.02 L1716.64 1451.02 L1716.64 1481.64 L1724.28 1481.64 L1724.28 1485.58 L1704.37 1485.58 L1704.37 1481.64 Z" fill="#000000" fill-rule="nonzero" fill-opacity="1" /><path clip-path="url(#clip790)" d="M1743.73 1454.1 Q1740.12 1454.1 1738.29 1457.66 Q1736.48 1461.2 1736.48 1468.33 Q1736.48 1475.44 1738.29 1479.01 Q1740.12 1482.55 1743.73 1482.55 Q1747.36 1482.55 1749.17 1479.01 Q1750.99 1475.44 1750.99 1468.33 Q1750.99 1461.2 1749.17 1457.66 Q1747.36 1454.1 1743.73 1454.1 M1743.73 1450.39 Q1749.54 1450.39 1752.59 1455 Q1755.67 1459.58 1755.67 1468.33 Q1755.67 1477.06 1752.59 1481.67 Q1749.54 1486.25 1743.73 1486.25 Q1737.92 1486.25 1734.84 1481.67 Q1731.78 1477.06 1731.78 1468.33 Q1731.78 1459.58 1734.84 1455 Q1737.92 1450.39 1743.73 1450.39 Z" fill="#000000" fill-rule="nonzero" fill-opacity="1" /><path clip-path="url(#clip790)" d="M2016.71 1481.64 L2024.35 1481.64 L2024.35 1455.28 L2016.04 1456.95 L2016.04 1452.69 L2024.3 1451.02 L2028.98 1451.02 L2028.98 1481.64 L2036.62 1481.64 L2036.62 1485.58 L2016.71 1485.58 L2016.71 1481.64 Z" fill="#000000" fill-rule="nonzero" fill-opacity="1" /><path clip-path="url(#clip790)" d="M2050.09 1481.64 L2066.41 1481.64 L2066.41 1485.58 L2044.46 1485.58 L2044.46 1481.64 Q2047.12 1478.89 2051.71 1474.26 Q2056.31 1469.61 2057.49 1468.27 Q2059.74 1465.74 2060.62 1464.01 Q2061.52 1462.25 2061.52 1460.56 Q2061.52 1457.8 2059.58 1456.07 Q2057.66 1454.33 2054.55 1454.33 Q2052.36 1454.33 2049.9 1455.09 Q2047.47 1455.86 2044.69 1457.41 L2044.69 1452.69 Q2047.52 1451.55 2049.97 1450.97 Q2052.43 1450.39 2054.46 1450.39 Q2059.83 1450.39 2063.03 1453.08 Q2066.22 1455.77 2066.22 1460.26 Q2066.22 1462.39 2065.41 1464.31 Q2064.62 1466.2 2062.52 1468.8 Q2061.94 1469.47 2058.84 1472.69 Q2055.74 1475.88 2050.09 1481.64 Z" fill="#000000" fill-rule="nonzero" fill-opacity="1" /><path clip-path="url(#clip790)" d="M2327.2 1481.64 L2334.84 1481.64 L2334.84 1455.28 L2326.53 1456.95 L2326.53 1452.69 L2334.79 1451.02 L2339.47 1451.02 L2339.47 1481.64 L2347.11 1481.64 L2347.11 1485.58 L2327.2 1485.58 L2327.2 1481.64 Z" fill="#000000" fill-rule="nonzero" fill-opacity="1" /><path clip-path="url(#clip790)" d="M2369.4 1455.09 L2357.59 1473.54 L2369.4 1473.54 L2369.4 1455.09 M2368.17 1451.02 L2374.05 1451.02 L2374.05 1473.54 L2378.98 1473.54 L2378.98 1477.43 L2374.05 1477.43 L2374.05 1485.58 L2369.4 1485.58 L2369.4 1477.43 L2353.8 1477.43 L2353.8 1472.92 L2368.17 1451.02 Z" fill="#000000" fill-rule="nonzero" fill-opacity="1" /><path clip-path="url(#clip790)" d="M1056.76 1520.52 L1096.96 1520.52 L1096.96 1525.93 L1080.09 1525.93 L1080.09 1568.04 L1073.63 1568.04 L1073.63 1525.93 L1056.76 1525.93 L1056.76 1520.52 Z" fill="#000000" fill-rule="nonzero" fill-opacity="1" /><path clip-path="url(#clip790)" d="M1100.9 1532.4 L1106.76 1532.4 L1106.76 1568.04 L1100.9 1568.04 L1100.9 1532.4 M1100.9 1518.52 L1106.76 1518.52 L1106.76 1525.93 L1100.9 1525.93 L1100.9 1518.52 Z" fill="#000000" fill-rule="nonzero" fill-opacity="1" /><path clip-path="url(#clip790)" d="M1146.77 1539.24 Q1148.96 1535.29 1152.02 1533.41 Q1155.08 1531.54 1159.21 1531.54 Q1164.78 1531.54 1167.81 1535.45 Q1170.83 1539.33 1170.83 1546.53 L1170.83 1568.04 L1164.94 1568.04 L1164.94 1546.72 Q1164.94 1541.59 1163.13 1539.11 Q1161.31 1536.63 1157.59 1536.63 Q1153.04 1536.63 1150.4 1539.65 Q1147.75 1542.68 1147.75 1547.9 L1147.75 1568.04 L1141.87 1568.04 L1141.87 1546.72 Q1141.87 1541.56 1140.05 1539.11 Q1138.24 1536.63 1134.45 1536.63 Q1129.96 1536.63 1127.32 1539.68 Q1124.68 1542.71 1124.68 1547.9 L1124.68 1568.04 L1118.79 1568.04 L1118.79 1532.4 L1124.68 1532.4 L1124.68 1537.93 Q1126.68 1534.66 1129.49 1533.1 Q1132.29 1531.54 1136.14 1531.54 Q1140.02 1531.54 1142.73 1533.51 Q1145.46 1535.48 1146.77 1539.24 Z" fill="#000000" fill-rule="nonzero" fill-opacity="1" /><path clip-path="url(#clip790)" d="M1213 1548.76 L1213 1551.62 L1186.08 1551.62 Q1186.46 1557.67 1189.7 1560.85 Q1192.98 1564 1198.81 1564 Q1202.18 1564 1205.33 1563.17 Q1208.52 1562.35 1211.63 1560.69 L1211.63 1566.23 Q1208.48 1567.57 1205.17 1568.27 Q1201.86 1568.97 1198.46 1568.97 Q1189.93 1568.97 1184.93 1564 Q1179.97 1559.04 1179.97 1550.57 Q1179.97 1541.82 1184.68 1536.69 Q1189.42 1531.54 1197.44 1531.54 Q1204.63 1531.54 1208.8 1536.18 Q1213 1540.8 1213 1548.76 M1207.15 1547.04 Q1207.08 1542.23 1204.44 1539.37 Q1201.83 1536.5 1197.5 1536.5 Q1192.6 1536.5 1189.64 1539.27 Q1186.71 1542.04 1186.27 1547.07 L1207.15 1547.04 Z" fill="#000000" fill-rule="nonzero" fill-opacity="1" /><path clip-path="url(#clip790)" d="M1243.34 1532.4 L1249.19 1532.4 L1249.19 1568.04 L1243.34 1568.04 L1243.34 1532.4 M1243.34 1518.52 L1249.19 1518.52 L1249.19 1525.93 L1243.34 1525.93 L1243.34 1518.52 Z" fill="#000000" fill-rule="nonzero" fill-opacity="1" /><path clip-path="url(#clip790)" d="M1291.08 1546.53 L1291.08 1568.04 L1285.22 1568.04 L1285.22 1546.72 Q1285.22 1541.66 1283.25 1539.14 Q1281.28 1536.63 1277.33 1536.63 Q1272.59 1536.63 1269.85 1539.65 Q1267.11 1542.68 1267.11 1547.9 L1267.11 1568.04 L1261.22 1568.04 L1261.22 1532.4 L1267.11 1532.4 L1267.11 1537.93 Q1269.21 1534.72 1272.05 1533.13 Q1274.91 1531.54 1278.63 1531.54 Q1284.78 1531.54 1287.93 1535.36 Q1291.08 1539.14 1291.08 1546.53 Z" fill="#000000" fill-rule="nonzero" fill-opacity="1" /><path clip-path="url(#clip790)" d="M1346.94 1537.81 L1346.94 1518.52 L1352.79 1518.52 L1352.79 1568.04 L1346.94 1568.04 L1346.94 1562.7 Q1345.09 1565.88 1342.26 1567.44 Q1339.46 1568.97 1335.51 1568.97 Q1329.05 1568.97 1324.98 1563.81 Q1320.93 1558.65 1320.93 1550.25 Q1320.93 1541.85 1324.98 1536.69 Q1329.05 1531.54 1335.51 1531.54 Q1339.46 1531.54 1342.26 1533.1 Q1345.09 1534.62 1346.94 1537.81 M1326.98 1550.25 Q1326.98 1556.71 1329.62 1560.4 Q1332.3 1564.07 1336.94 1564.07 Q1341.59 1564.07 1344.26 1560.4 Q1346.94 1556.71 1346.94 1550.25 Q1346.94 1543.79 1344.26 1540.13 Q1341.59 1536.44 1336.94 1536.44 Q1332.3 1536.44 1329.62 1540.13 Q1326.98 1543.79 1326.98 1550.25 Z" fill="#000000" fill-rule="nonzero" fill-opacity="1" /><path clip-path="url(#clip790)" d="M1381.06 1550.12 Q1373.96 1550.12 1371.22 1551.75 Q1368.49 1553.37 1368.49 1557.29 Q1368.49 1560.4 1370.52 1562.25 Q1372.59 1564.07 1376.12 1564.07 Q1380.99 1564.07 1383.92 1560.63 Q1386.88 1557.16 1386.88 1551.43 L1386.88 1550.12 L1381.06 1550.12 M1392.74 1547.71 L1392.74 1568.04 L1386.88 1568.04 L1386.88 1562.63 Q1384.88 1565.88 1381.89 1567.44 Q1378.89 1568.97 1374.57 1568.97 Q1369.09 1568.97 1365.84 1565.91 Q1362.63 1562.82 1362.63 1557.67 Q1362.63 1551.65 1366.64 1548.6 Q1370.68 1545.54 1378.67 1545.54 L1386.88 1545.54 L1386.88 1544.97 Q1386.88 1540.93 1384.21 1538.73 Q1381.57 1536.5 1376.76 1536.5 Q1373.71 1536.5 1370.81 1537.23 Q1367.91 1537.97 1365.24 1539.43 L1365.24 1534.02 Q1368.45 1532.78 1371.48 1532.17 Q1374.5 1531.54 1377.37 1531.54 Q1385.1 1531.54 1388.92 1535.55 Q1392.74 1539.56 1392.74 1547.71 Z" fill="#000000" fill-rule="nonzero" fill-opacity="1" /><path clip-path="url(#clip790)" d="M1419.63 1571.35 Q1417.15 1577.72 1414.8 1579.66 Q1412.44 1581.6 1408.49 1581.6 L1403.82 1581.6 L1403.82 1576.7 L1407.25 1576.7 Q1409.67 1576.7 1411.01 1575.56 Q1412.35 1574.41 1413.97 1570.14 L1415.02 1567.47 L1400.6 1532.4 L1406.81 1532.4 L1417.95 1560.28 L1429.09 1532.4 L1435.29 1532.4 L1419.63 1571.35 Z" fill="#000000" fill-rule="nonzero" fill-opacity="1" /><path clip-path="url(#clip790)" d="M1466.1 1533.45 L1466.1 1538.98 Q1463.62 1537.71 1460.95 1537.07 Q1458.27 1536.44 1455.41 1536.44 Q1451.05 1536.44 1448.85 1537.77 Q1446.69 1539.11 1446.69 1541.79 Q1446.69 1543.82 1448.25 1545 Q1449.81 1546.15 1454.52 1547.2 L1456.52 1547.64 Q1462.76 1548.98 1465.37 1551.43 Q1468.01 1553.85 1468.01 1558.21 Q1468.01 1563.17 1464.07 1566.07 Q1460.15 1568.97 1453.28 1568.97 Q1450.41 1568.97 1447.29 1568.39 Q1444.21 1567.85 1440.77 1566.74 L1440.77 1560.69 Q1444.01 1562.38 1447.17 1563.24 Q1450.32 1564.07 1453.4 1564.07 Q1457.54 1564.07 1459.77 1562.66 Q1462 1561.23 1462 1558.65 Q1462 1556.27 1460.37 1554.99 Q1458.78 1553.72 1453.34 1552.54 L1451.3 1552.07 Q1445.86 1550.92 1443.44 1548.56 Q1441.02 1546.18 1441.02 1542.04 Q1441.02 1537.01 1444.59 1534.27 Q1448.15 1531.54 1454.71 1531.54 Q1457.96 1531.54 1460.82 1532.01 Q1463.68 1532.49 1466.1 1533.45 Z" fill="#000000" fill-rule="nonzero" fill-opacity="1" /><polyline clip-path="url(#clip792)" style="stroke:#000000; stroke-linecap:round; stroke-linejoin:round; stroke-width:2; stroke-opacity:0.1; fill:none" points="172.015,1384.24 2352.76,1384.24 "/>
<polyline clip-path="url(#clip792)" style="stroke:#000000; stroke-linecap:round; stroke-linejoin:round; stroke-width:2; stroke-opacity:0.1; fill:none" points="172.015,1043.54 2352.76,1043.54 "/>
<polyline clip-path="url(#clip792)" style="stroke:#000000; stroke-linecap:round; stroke-linejoin:round; stroke-width:2; stroke-opacity:0.1; fill:none" points="172.015,702.846 2352.76,702.846 "/>
<polyline clip-path="url(#clip792)" style="stroke:#000000; stroke-linecap:round; stroke-linejoin:round; stroke-width:2; stroke-opacity:0.1; fill:none" points="172.015,362.15 2352.76,362.15 "/>
<polyline clip-path="url(#clip790)" style="stroke:#000000; stroke-linecap:round; stroke-linejoin:round; stroke-width:4; stroke-opacity:1; fill:none" points="172.015,1423.18 172.015,47.2441 "/>
<polyline clip-path="url(#clip790)" style="stroke:#000000; stroke-linecap:round; stroke-linejoin:round; stroke-width:4; stroke-opacity:1; fill:none" points="172.015,1384.24 190.912,1384.24 "/>
<polyline clip-path="url(#clip790)" style="stroke:#000000; stroke-linecap:round; stroke-linejoin:round; stroke-width:4; stroke-opacity:1; fill:none" points="172.015,1043.54 190.912,1043.54 "/>
<polyline clip-path="url(#clip790)" style="stroke:#000000; stroke-linecap:round; stroke-linejoin:round; stroke-width:4; stroke-opacity:1; fill:none" points="172.015,702.846 190.912,702.846 "/>
<polyline clip-path="url(#clip790)" style="stroke:#000000; stroke-linecap:round; stroke-linejoin:round; stroke-width:4; stroke-opacity:1; fill:none" points="172.015,362.15 190.912,362.15 "/>
<path clip-path="url(#clip790)" d="M124.07 1370.04 Q120.459 1370.04 118.631 1373.6 Q116.825 1377.14 116.825 1384.27 Q116.825 1391.38 118.631 1394.94 Q120.459 1398.49 124.07 1398.49 Q127.705 1398.49 129.51 1394.94 Q131.339 1391.38 131.339 1384.27 Q131.339 1377.14 129.51 1373.6 Q127.705 1370.04 124.07 1370.04 M124.07 1366.33 Q129.881 1366.33 132.936 1370.94 Q136.015 1375.52 136.015 1384.27 Q136.015 1393 132.936 1397.61 Q129.881 1402.19 124.07 1402.19 Q118.26 1402.19 115.182 1397.61 Q112.126 1393 112.126 1384.27 Q112.126 1375.52 115.182 1370.94 Q118.26 1366.33 124.07 1366.33 Z" fill="#000000" fill-rule="nonzero" fill-opacity="1" /><path clip-path="url(#clip790)" d="M57.7745 1056.89 L74.0939 1056.89 L74.0939 1060.82 L52.1495 1060.82 L52.1495 1056.89 Q54.8115 1054.13 59.3949 1049.5 Q64.0013 1044.85 65.1819 1043.51 Q67.4272 1040.98 68.3068 1039.25 Q69.2096 1037.49 69.2096 1035.8 Q69.2096 1033.04 67.2652 1031.31 Q65.3439 1029.57 62.2421 1029.57 Q60.043 1029.57 57.5893 1030.34 Q55.1588 1031.1 52.381 1032.65 L52.381 1027.93 Q55.2051 1026.79 57.6588 1026.22 Q60.1124 1025.64 62.1495 1025.64 Q67.5198 1025.64 70.7142 1028.32 Q73.9087 1031.01 73.9087 1035.5 Q73.9087 1037.63 73.0985 1039.55 Q72.3115 1041.45 70.205 1044.04 Q69.6263 1044.71 66.5245 1047.93 Q63.4226 1051.12 57.7745 1056.89 Z" fill="#000000" fill-rule="nonzero" fill-opacity="1" /><path clip-path="url(#clip790)" d="M93.9086 1029.34 Q90.2975 1029.34 88.4688 1032.91 Q86.6632 1036.45 86.6632 1043.58 Q86.6632 1050.68 88.4688 1054.25 Q90.2975 1057.79 93.9086 1057.79 Q97.5428 1057.79 99.3483 1054.25 Q101.177 1050.68 101.177 1043.58 Q101.177 1036.45 99.3483 1032.91 Q97.5428 1029.34 93.9086 1029.34 M93.9086 1025.64 Q99.7187 1025.64 102.774 1030.24 Q105.853 1034.83 105.853 1043.58 Q105.853 1052.3 102.774 1056.91 Q99.7187 1061.49 93.9086 1061.49 Q88.0984 1061.49 85.0197 1056.91 Q81.9642 1052.3 81.9642 1043.58 Q81.9642 1034.83 85.0197 1030.24 Q88.0984 1025.64 93.9086 1025.64 Z" fill="#000000" fill-rule="nonzero" fill-opacity="1" /><path clip-path="url(#clip790)" d="M124.07 1029.34 Q120.459 1029.34 118.631 1032.91 Q116.825 1036.45 116.825 1043.58 Q116.825 1050.68 118.631 1054.25 Q120.459 1057.79 124.07 1057.79 Q127.705 1057.79 129.51 1054.25 Q131.339 1050.68 131.339 1043.58 Q131.339 1036.45 129.51 1032.91 Q127.705 1029.34 124.07 1029.34 M124.07 1025.64 Q129.881 1025.64 132.936 1030.24 Q136.015 1034.83 136.015 1043.58 Q136.015 1052.3 132.936 1056.91 Q129.881 1061.49 124.07 1061.49 Q118.26 1061.49 115.182 1056.91 Q112.126 1052.3 112.126 1043.58 Q112.126 1034.83 115.182 1030.24 Q118.26 1025.64 124.07 1025.64 Z" fill="#000000" fill-rule="nonzero" fill-opacity="1" /><path clip-path="url(#clip790)" d="M66.5939 689.64 L54.7884 708.089 L66.5939 708.089 L66.5939 689.64 M65.367 685.566 L71.2466 685.566 L71.2466 708.089 L76.1772 708.089 L76.1772 711.978 L71.2466 711.978 L71.2466 720.126 L66.5939 720.126 L66.5939 711.978 L50.9921 711.978 L50.9921 707.464 L65.367 685.566 Z" fill="#000000" fill-rule="nonzero" fill-opacity="1" /><path clip-path="url(#clip790)" d="M93.9086 688.645 Q90.2975 688.645 88.4688 692.209 Q86.6632 695.751 86.6632 702.881 Q86.6632 709.987 88.4688 713.552 Q90.2975 717.093 93.9086 717.093 Q97.5428 717.093 99.3483 713.552 Q101.177 709.987 101.177 702.881 Q101.177 695.751 99.3483 692.209 Q97.5428 688.645 93.9086 688.645 M93.9086 684.941 Q99.7187 684.941 102.774 689.547 Q105.853 694.131 105.853 702.881 Q105.853 711.607 102.774 716.214 Q99.7187 720.797 93.9086 720.797 Q88.0984 720.797 85.0197 716.214 Q81.9642 711.607 81.9642 702.881 Q81.9642 694.131 85.0197 689.547 Q88.0984 684.941 93.9086 684.941 Z" fill="#000000" fill-rule="nonzero" fill-opacity="1" /><path clip-path="url(#clip790)" d="M124.07 688.645 Q120.459 688.645 118.631 692.209 Q116.825 695.751 116.825 702.881 Q116.825 709.987 118.631 713.552 Q120.459 717.093 124.07 717.093 Q127.705 717.093 129.51 713.552 Q131.339 709.987 131.339 702.881 Q131.339 695.751 129.51 692.209 Q127.705 688.645 124.07 688.645 M124.07 684.941 Q129.881 684.941 132.936 689.547 Q136.015 694.131 136.015 702.881 Q136.015 711.607 132.936 716.214 Q129.881 720.797 124.07 720.797 Q118.26 720.797 115.182 716.214 Q112.126 711.607 112.126 702.881 Q112.126 694.131 115.182 689.547 Q118.26 684.941 124.07 684.941 Z" fill="#000000" fill-rule="nonzero" fill-opacity="1" /><path clip-path="url(#clip790)" d="M64.3254 360.286 Q61.1773 360.286 59.3254 362.439 Q57.4967 364.592 57.4967 368.342 Q57.4967 372.069 59.3254 374.244 Q61.1773 376.397 64.3254 376.397 Q67.4735 376.397 69.3022 374.244 Q71.1541 372.069 71.1541 368.342 Q71.1541 364.592 69.3022 362.439 Q67.4735 360.286 64.3254 360.286 M73.6077 345.633 L73.6077 349.893 Q71.8485 349.059 70.0429 348.62 Q68.2606 348.18 66.5013 348.18 Q61.8717 348.18 59.418 351.305 Q56.9875 354.43 56.6402 360.749 Q58.006 358.735 60.0662 357.67 Q62.1263 356.583 64.6032 356.583 Q69.8115 356.583 72.8207 359.754 Q75.8531 362.902 75.8531 368.342 Q75.8531 373.666 72.705 376.883 Q69.5568 380.101 64.3254 380.101 Q58.33 380.101 55.1588 375.518 Q51.9875 370.911 51.9875 362.184 Q51.9875 353.99 55.8764 349.129 Q59.7652 344.245 66.3161 344.245 Q68.0754 344.245 69.8578 344.592 Q71.6633 344.939 73.6077 345.633 Z" fill="#000000" fill-rule="nonzero" fill-opacity="1" /><path clip-path="url(#clip790)" d="M93.9086 347.948 Q90.2975 347.948 88.4688 351.513 Q86.6632 355.055 86.6632 362.184 Q86.6632 369.291 88.4688 372.856 Q90.2975 376.397 93.9086 376.397 Q97.5428 376.397 99.3483 372.856 Q101.177 369.291 101.177 362.184 Q101.177 355.055 99.3483 351.513 Q97.5428 347.948 93.9086 347.948 M93.9086 344.245 Q99.7187 344.245 102.774 348.851 Q105.853 353.434 105.853 362.184 Q105.853 370.911 102.774 375.518 Q99.7187 380.101 93.9086 380.101 Q88.0984 380.101 85.0197 375.518 Q81.9642 370.911 81.9642 362.184 Q81.9642 353.434 85.0197 348.851 Q88.0984 344.245 93.9086 344.245 Z" fill="#000000" fill-rule="nonzero" fill-opacity="1" /><path clip-path="url(#clip790)" d="M124.07 347.948 Q120.459 347.948 118.631 351.513 Q116.825 355.055 116.825 362.184 Q116.825 369.291 118.631 372.856 Q120.459 376.397 124.07 376.397 Q127.705 376.397 129.51 372.856 Q131.339 369.291 131.339 362.184 Q131.339 355.055 129.51 351.513 Q127.705 347.948 124.07 347.948 M124.07 344.245 Q129.881 344.245 132.936 348.851 Q136.015 353.434 136.015 362.184 Q136.015 370.911 132.936 375.518 Q129.881 380.101 124.07 380.101 Q118.26 380.101 115.182 375.518 Q112.126 370.911 112.126 362.184 Q112.126 353.434 115.182 348.851 Q118.26 344.245 124.07 344.245 Z" fill="#000000" fill-rule="nonzero" fill-opacity="1" /><polyline clip-path="url(#clip792)" style="stroke:#009af9; stroke-linecap:round; stroke-linejoin:round; stroke-width:8; stroke-opacity:0.5; fill:none" points="172.015,86.1857 327.782,89.3376 483.549,93.7701 639.316,101.379 795.084,114.594 950.851,137.315 1106.62,175.611 1262.39,238.011 1418.15,334.229 1573.92,470.4 1729.69,640.776 1885.45,822.769 2041.22,985.884 2196.99,1110.17 2352.76,1193.92 "/>
<polyline clip-path="url(#clip792)" style="stroke:#e26f46; stroke-linecap:round; stroke-linejoin:round; stroke-width:8; stroke-opacity:0.5; fill:none" points="172.015,1384.24 327.782,1382.06 483.549,1380.11 639.316,1376.95 795.084,1371.54 950.851,1362.34 1106.62,1347.15 1262.39,1323.3 1418.15,1288.89 1573.92,1245.84 1729.69,1203.6 1885.45,1177.98 2041.22,1180.78 2196.99,1209.22 2352.76,1249.62 "/>
<polyline clip-path="url(#clip792)" style="stroke:#3da44d; stroke-linecap:round; stroke-linejoin:round; stroke-width:8; stroke-opacity:0.5; fill:none" points="172.015,1382.53 327.782,1382.51 483.549,1381.37 639.316,1379.22 795.084,1375.46 950.851,1368.97 1106.62,1358.03 1262.39,1340.15 1418.15,1312.53 1573.92,1273.57 1729.69,1225.89 1885.45,1179 2041.22,1146.9 2196.99,1139.99 2352.76,1158.04 "/>
<polyline clip-path="url(#clip792)" style="stroke:#c271d2; stroke-linecap:round; stroke-linejoin:round; stroke-width:8; stroke-opacity:0.5; fill:none" points="172.015,1384.24 327.782,1383.29 483.549,1381.95 639.316,1379.65 795.084,1375.61 950.851,1368.57 1106.62,1356.41 1262.39,1335.74 1418.15,1301.55 1573.92,1247.39 1729.69,1166.93 1885.45,1057.45 2041.22,923.629 2196.99,777.817 2352.76,635.612 "/>
<circle clip-path="url(#clip792)" cx="327.782" cy="1379.13" r="14.4" fill="#ac8d18" fill-rule="evenodd" fill-opacity="1" stroke="#000000" stroke-opacity="1" stroke-width="3.2"/>
<circle clip-path="url(#clip792)" cx="483.549" cy="1370.61" r="14.4" fill="#ac8d18" fill-rule="evenodd" fill-opacity="1" stroke="#000000" stroke-opacity="1" stroke-width="3.2"/>
<circle clip-path="url(#clip792)" cx="639.316" cy="1339.95" r="14.4" fill="#ac8d18" fill-rule="evenodd" fill-opacity="1" stroke="#000000" stroke-opacity="1" stroke-width="3.2"/>
<circle clip-path="url(#clip792)" cx="795.084" cy="1254.77" r="14.4" fill="#ac8d18" fill-rule="evenodd" fill-opacity="1" stroke="#000000" stroke-opacity="1" stroke-width="3.2"/>
<circle clip-path="url(#clip792)" cx="950.851" cy="1000.96" r="14.4" fill="#ac8d18" fill-rule="evenodd" fill-opacity="1" stroke="#000000" stroke-opacity="1" stroke-width="3.2"/>
<circle clip-path="url(#clip792)" cx="1106.62" cy="876.601" r="14.4" fill="#ac8d18" fill-rule="evenodd" fill-opacity="1" stroke="#000000" stroke-opacity="1" stroke-width="3.2"/>
<circle clip-path="url(#clip792)" cx="1262.39" cy="944.74" r="14.4" fill="#ac8d18" fill-rule="evenodd" fill-opacity="1" stroke="#000000" stroke-opacity="1" stroke-width="3.2"/>
<circle clip-path="url(#clip792)" cx="1418.15" cy="987.327" r="14.4" fill="#ac8d18" fill-rule="evenodd" fill-opacity="1" stroke="#000000" stroke-opacity="1" stroke-width="3.2"/>
<circle clip-path="url(#clip792)" cx="1573.92" cy="1062.28" r="14.4" fill="#ac8d18" fill-rule="evenodd" fill-opacity="1" stroke="#000000" stroke-opacity="1" stroke-width="3.2"/>
<circle clip-path="url(#clip792)" cx="1729.69" cy="1166.19" r="14.4" fill="#ac8d18" fill-rule="evenodd" fill-opacity="1" stroke="#000000" stroke-opacity="1" stroke-width="3.2"/>
<circle clip-path="url(#clip792)" cx="1885.45" cy="1268.4" r="14.4" fill="#ac8d18" fill-rule="evenodd" fill-opacity="1" stroke="#000000" stroke-opacity="1" stroke-width="3.2"/>
<circle clip-path="url(#clip792)" cx="2041.22" cy="1334.84" r="14.4" fill="#ac8d18" fill-rule="evenodd" fill-opacity="1" stroke="#000000" stroke-opacity="1" stroke-width="3.2"/>
<circle clip-path="url(#clip792)" cx="2196.99" cy="1360.39" r="14.4" fill="#ac8d18" fill-rule="evenodd" fill-opacity="1" stroke="#000000" stroke-opacity="1" stroke-width="3.2"/>
<circle clip-path="url(#clip792)" cx="2352.76" cy="1377.42" r="14.4" fill="#ac8d18" fill-rule="evenodd" fill-opacity="1" stroke="#000000" stroke-opacity="1" stroke-width="3.2"/>
<path clip-path="url(#clip790)" d="M1793.29 404.149 L2280.06 404.149 L2280.06 93.1086 L1793.29 93.1086  Z" fill="#ffffff" fill-rule="evenodd" fill-opacity="1"/>
<polyline clip-path="url(#clip790)" style="stroke:#000000; stroke-linecap:round; stroke-linejoin:round; stroke-width:4; stroke-opacity:1; fill:none" points="1793.29,404.149 2280.06,404.149 2280.06,93.1086 1793.29,93.1086 1793.29,404.149 "/>
<polyline clip-path="url(#clip790)" style="stroke:#009af9; stroke-linecap:round; stroke-linejoin:round; stroke-width:8; stroke-opacity:0.5; fill:none" points="1817.52,144.949 1962.9,144.949 "/>
<path clip-path="url(#clip790)" d="M2009.38 128.803 L2009.38 133.363 Q2006.72 132.09 2004.35 131.465 Q2001.99 130.84 1999.79 130.84 Q1995.97 130.84 1993.89 132.321 Q1991.83 133.803 1991.83 136.534 Q1991.83 138.826 1993.2 140.007 Q1994.59 141.164 1998.43 141.882 L2001.25 142.46 Q2006.48 143.456 2008.96 145.979 Q2011.46 148.479 2011.46 152.692 Q2011.46 157.715 2008.08 160.307 Q2004.72 162.9 1998.22 162.9 Q1995.77 162.9 1992.99 162.344 Q1990.23 161.789 1987.27 160.701 L1987.27 155.886 Q1990.12 157.483 1992.85 158.293 Q1995.58 159.104 1998.22 159.104 Q2002.22 159.104 2004.4 157.53 Q2006.58 155.956 2006.58 153.039 Q2006.58 150.493 2005 149.057 Q2003.45 147.622 1999.89 146.905 L1997.04 146.349 Q1991.81 145.307 1989.47 143.085 Q1987.13 140.863 1987.13 136.905 Q1987.13 132.321 1990.35 129.682 Q1993.59 127.044 1999.26 127.044 Q2001.69 127.044 2004.22 127.483 Q2006.74 127.923 2009.38 128.803 Z" fill="#000000" fill-rule="nonzero" fill-opacity="1" /><path clip-path="url(#clip790)" d="M2018.13 151.997 L2018.13 136.303 L2022.39 136.303 L2022.39 151.835 Q2022.39 155.516 2023.82 157.368 Q2025.26 159.196 2028.13 159.196 Q2031.58 159.196 2033.57 156.997 Q2035.58 154.798 2035.58 151.002 L2035.58 136.303 L2039.84 136.303 L2039.84 162.229 L2035.58 162.229 L2035.58 158.247 Q2034.03 160.608 2031.97 161.766 Q2029.93 162.9 2027.22 162.9 Q2022.76 162.9 2020.44 160.122 Q2018.13 157.344 2018.13 151.997 M2028.84 135.678 L2028.84 135.678 Z" fill="#000000" fill-rule="nonzero" fill-opacity="1" /><path clip-path="url(#clip790)" d="M2065.14 137.067 L2065.14 141.094 Q2063.34 140.169 2061.39 139.706 Q2059.45 139.243 2057.36 139.243 Q2054.19 139.243 2052.59 140.215 Q2051.02 141.187 2051.02 143.131 Q2051.02 144.613 2052.15 145.469 Q2053.29 146.303 2056.71 147.067 L2058.17 147.391 Q2062.71 148.363 2064.61 150.145 Q2066.53 151.905 2066.53 155.076 Q2066.53 158.687 2063.66 160.793 Q2060.81 162.9 2055.81 162.9 Q2053.73 162.9 2051.46 162.483 Q2049.21 162.09 2046.71 161.28 L2046.71 156.881 Q2049.08 158.108 2051.37 158.733 Q2053.66 159.335 2055.9 159.335 Q2058.91 159.335 2060.53 158.317 Q2062.15 157.275 2062.15 155.4 Q2062.15 153.664 2060.97 152.738 Q2059.82 151.812 2055.86 150.956 L2054.38 150.608 Q2050.42 149.775 2048.66 148.062 Q2046.9 146.326 2046.9 143.317 Q2046.9 139.659 2049.49 137.669 Q2052.09 135.678 2056.85 135.678 Q2059.21 135.678 2061.3 136.025 Q2063.38 136.372 2065.14 137.067 Z" fill="#000000" fill-rule="nonzero" fill-opacity="1" /><path clip-path="url(#clip790)" d="M2091.97 137.298 L2091.97 141.28 Q2090.16 140.284 2088.33 139.798 Q2086.53 139.289 2084.68 139.289 Q2080.53 139.289 2078.24 141.928 Q2075.95 144.544 2075.95 149.289 Q2075.95 154.034 2078.24 156.673 Q2080.53 159.289 2084.68 159.289 Q2086.53 159.289 2088.33 158.803 Q2090.16 158.293 2091.97 157.298 L2091.97 161.233 Q2090.19 162.067 2088.27 162.483 Q2086.37 162.9 2084.21 162.9 Q2078.36 162.9 2074.91 159.219 Q2071.46 155.539 2071.46 149.289 Q2071.46 142.946 2074.93 139.312 Q2078.43 135.678 2084.49 135.678 Q2086.46 135.678 2088.33 136.095 Q2090.21 136.488 2091.97 137.298 Z" fill="#000000" fill-rule="nonzero" fill-opacity="1" /><path clip-path="url(#clip790)" d="M2121.55 148.201 L2121.55 150.284 L2101.97 150.284 Q2102.25 154.682 2104.61 156.997 Q2106.99 159.289 2111.23 159.289 Q2113.68 159.289 2115.97 158.687 Q2118.29 158.085 2120.56 156.881 L2120.56 160.909 Q2118.27 161.881 2115.86 162.391 Q2113.45 162.9 2110.97 162.9 Q2104.77 162.9 2101.14 159.289 Q2097.52 155.678 2097.52 149.52 Q2097.52 143.155 2100.95 139.428 Q2104.4 135.678 2110.23 135.678 Q2115.46 135.678 2118.5 139.057 Q2121.55 142.414 2121.55 148.201 M2117.29 146.951 Q2117.25 143.456 2115.33 141.372 Q2113.43 139.289 2110.28 139.289 Q2106.71 139.289 2104.56 141.303 Q2102.43 143.317 2102.11 146.974 L2117.29 146.951 Z" fill="#000000" fill-rule="nonzero" fill-opacity="1" /><path clip-path="url(#clip790)" d="M2132.66 158.34 L2132.66 172.09 L2128.38 172.09 L2128.38 136.303 L2132.66 136.303 L2132.66 140.238 Q2134.01 137.923 2136.04 136.812 Q2138.1 135.678 2140.95 135.678 Q2145.67 135.678 2148.61 139.428 Q2151.58 143.178 2151.58 149.289 Q2151.58 155.4 2148.61 159.15 Q2145.67 162.9 2140.95 162.9 Q2138.1 162.9 2136.04 161.789 Q2134.01 160.655 2132.66 158.34 M2147.15 149.289 Q2147.15 144.59 2145.21 141.928 Q2143.29 139.243 2139.91 139.243 Q2136.53 139.243 2134.58 141.928 Q2132.66 144.59 2132.66 149.289 Q2132.66 153.988 2134.58 156.673 Q2136.53 159.335 2139.91 159.335 Q2143.29 159.335 2145.21 156.673 Q2147.15 153.988 2147.15 149.289 Z" fill="#000000" fill-rule="nonzero" fill-opacity="1" /><path clip-path="url(#clip790)" d="M2162.85 128.942 L2162.85 136.303 L2171.62 136.303 L2171.62 139.613 L2162.85 139.613 L2162.85 153.687 Q2162.85 156.858 2163.7 157.761 Q2164.58 158.664 2167.25 158.664 L2171.62 158.664 L2171.62 162.229 L2167.25 162.229 Q2162.32 162.229 2160.44 160.4 Q2158.57 158.548 2158.57 153.687 L2158.57 139.613 L2155.44 139.613 L2155.44 136.303 L2158.57 136.303 L2158.57 128.942 L2162.85 128.942 Z" fill="#000000" fill-rule="nonzero" fill-opacity="1" /><path clip-path="url(#clip790)" d="M2177.22 136.303 L2181.48 136.303 L2181.48 162.229 L2177.22 162.229 L2177.22 136.303 M2177.22 126.21 L2181.48 126.21 L2181.48 131.604 L2177.22 131.604 L2177.22 126.21 Z" fill="#000000" fill-rule="nonzero" fill-opacity="1" /><path clip-path="url(#clip790)" d="M2209.01 149.289 Q2209.01 144.59 2207.06 141.928 Q2205.14 139.243 2201.76 139.243 Q2198.38 139.243 2196.44 141.928 Q2194.51 144.59 2194.51 149.289 Q2194.51 153.988 2196.44 156.673 Q2198.38 159.335 2201.76 159.335 Q2205.14 159.335 2207.06 156.673 Q2209.01 153.988 2209.01 149.289 M2194.51 140.238 Q2195.86 137.923 2197.89 136.812 Q2199.95 135.678 2202.8 135.678 Q2207.52 135.678 2210.46 139.428 Q2213.43 143.178 2213.43 149.289 Q2213.43 155.4 2210.46 159.15 Q2207.52 162.9 2202.8 162.9 Q2199.95 162.9 2197.89 161.789 Q2195.86 160.655 2194.51 158.34 L2194.51 162.229 L2190.23 162.229 L2190.23 126.21 L2194.51 126.21 L2194.51 140.238 Z" fill="#000000" fill-rule="nonzero" fill-opacity="1" /><path clip-path="url(#clip790)" d="M2220.49 126.21 L2224.75 126.21 L2224.75 162.229 L2220.49 162.229 L2220.49 126.21 Z" fill="#000000" fill-rule="nonzero" fill-opacity="1" /><path clip-path="url(#clip790)" d="M2255.83 148.201 L2255.83 150.284 L2236.25 150.284 Q2236.53 154.682 2238.89 156.997 Q2241.27 159.289 2245.51 159.289 Q2247.96 159.289 2250.26 158.687 Q2252.57 158.085 2254.84 156.881 L2254.84 160.909 Q2252.55 161.881 2250.14 162.391 Q2247.73 162.9 2245.26 162.9 Q2239.05 162.9 2235.42 159.289 Q2231.81 155.678 2231.81 149.52 Q2231.81 143.155 2235.23 139.428 Q2238.68 135.678 2244.51 135.678 Q2249.75 135.678 2252.78 139.057 Q2255.83 142.414 2255.83 148.201 M2251.57 146.951 Q2251.53 143.456 2249.61 141.372 Q2247.71 139.289 2244.56 139.289 Q2241 139.289 2238.84 141.303 Q2236.71 143.317 2236.39 146.974 L2251.57 146.951 Z" fill="#000000" fill-rule="nonzero" fill-opacity="1" /><polyline clip-path="url(#clip790)" style="stroke:#e26f46; stroke-linecap:round; stroke-linejoin:round; stroke-width:8; stroke-opacity:0.5; fill:none" points="1817.52,196.789 1962.9,196.789 "/>
<path clip-path="url(#clip790)" d="M1987.13 179.509 L2008.98 179.509 L2008.98 183.444 L1991.81 183.444 L1991.81 193.675 L2008.27 193.675 L2008.27 197.61 L1991.81 197.61 L1991.81 210.133 L2009.4 210.133 L2009.4 214.069 L1987.13 214.069 L1987.13 179.509 Z" fill="#000000" fill-rule="nonzero" fill-opacity="1" /><path clip-path="url(#clip790)" d="M2038.45 188.143 L2029.08 200.759 L2038.94 214.069 L2033.91 214.069 L2026.37 203.883 L2018.82 214.069 L2013.8 214.069 L2023.87 200.504 L2014.65 188.143 L2019.68 188.143 L2026.55 197.379 L2033.43 188.143 L2038.45 188.143 Z" fill="#000000" fill-rule="nonzero" fill-opacity="1" /><path clip-path="url(#clip790)" d="M2049.08 210.18 L2049.08 223.93 L2044.79 223.93 L2044.79 188.143 L2049.08 188.143 L2049.08 192.078 Q2050.42 189.763 2052.46 188.652 Q2054.52 187.518 2057.36 187.518 Q2062.09 187.518 2065.02 191.268 Q2067.99 195.018 2067.99 201.129 Q2067.99 207.24 2065.02 210.99 Q2062.09 214.74 2057.36 214.74 Q2054.52 214.74 2052.46 213.629 Q2050.42 212.495 2049.08 210.18 M2063.57 201.129 Q2063.57 196.43 2061.62 193.768 Q2059.7 191.083 2056.32 191.083 Q2052.94 191.083 2051 193.768 Q2049.08 196.43 2049.08 201.129 Q2049.08 205.828 2051 208.513 Q2052.94 211.175 2056.32 211.175 Q2059.7 211.175 2061.62 208.513 Q2063.57 205.828 2063.57 201.129 Z" fill="#000000" fill-rule="nonzero" fill-opacity="1" /><path clip-path="url(#clip790)" d="M2085.09 191.129 Q2081.67 191.129 2079.68 193.814 Q2077.69 196.476 2077.69 201.129 Q2077.69 205.782 2079.65 208.467 Q2081.65 211.129 2085.09 211.129 Q2088.5 211.129 2090.49 208.444 Q2092.48 205.758 2092.48 201.129 Q2092.48 196.522 2090.49 193.837 Q2088.5 191.129 2085.09 191.129 M2085.09 187.518 Q2090.65 187.518 2093.82 191.129 Q2096.99 194.74 2096.99 201.129 Q2096.99 207.495 2093.82 211.129 Q2090.65 214.74 2085.09 214.74 Q2079.52 214.74 2076.34 211.129 Q2073.2 207.495 2073.2 201.129 Q2073.2 194.74 2076.34 191.129 Q2079.52 187.518 2085.09 187.518 Z" fill="#000000" fill-rule="nonzero" fill-opacity="1" /><path clip-path="url(#clip790)" d="M2120.58 188.907 L2120.58 192.934 Q2118.77 192.009 2116.83 191.546 Q2114.89 191.083 2112.8 191.083 Q2109.63 191.083 2108.03 192.055 Q2106.46 193.027 2106.46 194.971 Q2106.46 196.453 2107.59 197.309 Q2108.73 198.143 2112.15 198.907 L2113.61 199.231 Q2118.15 200.203 2120.05 201.985 Q2121.97 203.745 2121.97 206.916 Q2121.97 210.527 2119.1 212.633 Q2116.25 214.74 2111.25 214.74 Q2109.17 214.74 2106.9 214.323 Q2104.65 213.93 2102.15 213.12 L2102.15 208.721 Q2104.52 209.948 2106.81 210.573 Q2109.1 211.175 2111.34 211.175 Q2114.35 211.175 2115.97 210.157 Q2117.59 209.115 2117.59 207.24 Q2117.59 205.504 2116.41 204.578 Q2115.26 203.652 2111.3 202.796 L2109.82 202.448 Q2105.86 201.615 2104.1 199.902 Q2102.34 198.166 2102.34 195.157 Q2102.34 191.499 2104.93 189.509 Q2107.52 187.518 2112.29 187.518 Q2114.65 187.518 2116.74 187.865 Q2118.82 188.212 2120.58 188.907 Z" fill="#000000" fill-rule="nonzero" fill-opacity="1" /><path clip-path="url(#clip790)" d="M2150.93 200.041 L2150.93 202.124 L2131.34 202.124 Q2131.62 206.522 2133.98 208.837 Q2136.37 211.129 2140.6 211.129 Q2143.06 211.129 2145.35 210.527 Q2147.66 209.925 2149.93 208.721 L2149.93 212.749 Q2147.64 213.721 2145.23 214.231 Q2142.83 214.74 2140.35 214.74 Q2134.14 214.74 2130.51 211.129 Q2126.9 207.518 2126.9 201.36 Q2126.9 194.995 2130.33 191.268 Q2133.77 187.518 2139.61 187.518 Q2144.84 187.518 2147.87 190.897 Q2150.93 194.254 2150.93 200.041 M2146.67 198.791 Q2146.62 195.296 2144.7 193.212 Q2142.8 191.129 2139.65 191.129 Q2136.09 191.129 2133.94 193.143 Q2131.81 195.157 2131.48 198.814 L2146.67 198.791 Z" fill="#000000" fill-rule="nonzero" fill-opacity="1" /><path clip-path="url(#clip790)" d="M2174.98 192.078 L2174.98 178.05 L2179.24 178.05 L2179.24 214.069 L2174.98 214.069 L2174.98 210.18 Q2173.64 212.495 2171.58 213.629 Q2169.54 214.74 2166.67 214.74 Q2161.97 214.74 2159.01 210.99 Q2156.07 207.24 2156.07 201.129 Q2156.07 195.018 2159.01 191.268 Q2161.97 187.518 2166.67 187.518 Q2169.54 187.518 2171.58 188.652 Q2173.64 189.763 2174.98 192.078 M2160.46 201.129 Q2160.46 205.828 2162.39 208.513 Q2164.33 211.175 2167.71 211.175 Q2171.09 211.175 2173.03 208.513 Q2174.98 205.828 2174.98 201.129 Q2174.98 196.43 2173.03 193.768 Q2171.09 191.083 2167.71 191.083 Q2164.33 191.083 2162.39 193.768 Q2160.46 196.43 2160.46 201.129 Z" fill="#000000" fill-rule="nonzero" fill-opacity="1" /><polyline clip-path="url(#clip790)" style="stroke:#3da44d; stroke-linecap:round; stroke-linejoin:round; stroke-width:8; stroke-opacity:0.5; fill:none" points="1817.52,248.629 1962.9,248.629 "/>
<path clip-path="url(#clip790)" d="M1987.13 231.349 L1991.81 231.349 L1991.81 265.909 L1987.13 265.909 L1987.13 231.349 Z" fill="#000000" fill-rule="nonzero" fill-opacity="1" /><path clip-path="url(#clip790)" d="M2022.48 250.261 L2022.48 265.909 L2018.22 265.909 L2018.22 250.399 Q2018.22 246.719 2016.78 244.89 Q2015.35 243.062 2012.48 243.062 Q2009.03 243.062 2007.04 245.261 Q2005.05 247.46 2005.05 251.256 L2005.05 265.909 L2000.77 265.909 L2000.77 239.983 L2005.05 239.983 L2005.05 244.011 Q2006.58 241.673 2008.64 240.515 Q2010.72 239.358 2013.43 239.358 Q2017.9 239.358 2020.19 242.136 Q2022.48 244.89 2022.48 250.261 Z" fill="#000000" fill-rule="nonzero" fill-opacity="1" /><path clip-path="url(#clip790)" d="M2044.1 229.89 L2044.1 233.432 L2040.03 233.432 Q2037.73 233.432 2036.83 234.358 Q2035.95 235.284 2035.95 237.691 L2035.95 239.983 L2042.96 239.983 L2042.96 243.293 L2035.95 243.293 L2035.95 265.909 L2031.67 265.909 L2031.67 243.293 L2027.59 243.293 L2027.59 239.983 L2031.67 239.983 L2031.67 238.177 Q2031.67 233.849 2033.68 231.881 Q2035.7 229.89 2040.07 229.89 L2044.1 229.89 Z" fill="#000000" fill-rule="nonzero" fill-opacity="1" /><path clip-path="url(#clip790)" d="M2069.84 251.881 L2069.84 253.964 L2050.26 253.964 Q2050.53 258.362 2052.9 260.677 Q2055.28 262.969 2059.52 262.969 Q2061.97 262.969 2064.26 262.367 Q2066.58 261.765 2068.84 260.561 L2068.84 264.589 Q2066.55 265.561 2064.15 266.071 Q2061.74 266.58 2059.26 266.58 Q2053.06 266.58 2049.42 262.969 Q2045.81 259.358 2045.81 253.2 Q2045.81 246.835 2049.24 243.108 Q2052.69 239.358 2058.52 239.358 Q2063.75 239.358 2066.78 242.737 Q2069.84 246.094 2069.84 251.881 M2065.58 250.631 Q2065.53 247.136 2063.61 245.052 Q2061.71 242.969 2058.57 242.969 Q2055 242.969 2052.85 244.983 Q2050.72 246.997 2050.4 250.654 L2065.58 250.631 Z" fill="#000000" fill-rule="nonzero" fill-opacity="1" /><path clip-path="url(#clip790)" d="M2095.49 240.978 L2095.49 244.96 Q2093.68 243.964 2091.85 243.478 Q2090.05 242.969 2088.2 242.969 Q2084.05 242.969 2081.76 245.608 Q2079.47 248.224 2079.47 252.969 Q2079.47 257.714 2081.76 260.353 Q2084.05 262.969 2088.2 262.969 Q2090.05 262.969 2091.85 262.483 Q2093.68 261.973 2095.49 260.978 L2095.49 264.913 Q2093.71 265.747 2091.78 266.163 Q2089.89 266.58 2087.73 266.58 Q2081.88 266.58 2078.43 262.899 Q2074.98 259.219 2074.98 252.969 Q2074.98 246.626 2078.45 242.992 Q2081.95 239.358 2088.01 239.358 Q2089.98 239.358 2091.85 239.775 Q2093.73 240.168 2095.49 240.978 Z" fill="#000000" fill-rule="nonzero" fill-opacity="1" /><path clip-path="url(#clip790)" d="M2107.11 232.622 L2107.11 239.983 L2115.88 239.983 L2115.88 243.293 L2107.11 243.293 L2107.11 257.367 Q2107.11 260.538 2107.96 261.441 Q2108.84 262.344 2111.51 262.344 L2115.88 262.344 L2115.88 265.909 L2111.51 265.909 Q2106.58 265.909 2104.7 264.08 Q2102.83 262.228 2102.83 257.367 L2102.83 243.293 L2099.7 243.293 L2099.7 239.983 L2102.83 239.983 L2102.83 232.622 L2107.11 232.622 Z" fill="#000000" fill-rule="nonzero" fill-opacity="1" /><path clip-path="url(#clip790)" d="M2143.66 251.881 L2143.66 253.964 L2124.08 253.964 Q2124.35 258.362 2126.71 260.677 Q2129.1 262.969 2133.33 262.969 Q2135.79 262.969 2138.08 262.367 Q2140.39 261.765 2142.66 260.561 L2142.66 264.589 Q2140.37 265.561 2137.96 266.071 Q2135.56 266.58 2133.08 266.58 Q2126.88 266.58 2123.24 262.969 Q2119.63 259.358 2119.63 253.2 Q2119.63 246.835 2123.06 243.108 Q2126.51 239.358 2132.34 239.358 Q2137.57 239.358 2140.6 242.737 Q2143.66 246.094 2143.66 251.881 M2139.4 250.631 Q2139.35 247.136 2137.43 245.052 Q2135.53 242.969 2132.39 242.969 Q2128.82 242.969 2126.67 244.983 Q2124.54 246.997 2124.21 250.654 L2139.4 250.631 Z" fill="#000000" fill-rule="nonzero" fill-opacity="1" /><path clip-path="url(#clip790)" d="M2167.71 243.918 L2167.71 229.89 L2171.97 229.89 L2171.97 265.909 L2167.71 265.909 L2167.71 262.02 Q2166.37 264.335 2164.31 265.469 Q2162.27 266.58 2159.4 266.58 Q2154.7 266.58 2151.74 262.83 Q2148.8 259.08 2148.8 252.969 Q2148.8 246.858 2151.74 243.108 Q2154.7 239.358 2159.4 239.358 Q2162.27 239.358 2164.31 240.492 Q2166.37 241.603 2167.71 243.918 M2153.2 252.969 Q2153.2 257.668 2155.12 260.353 Q2157.06 263.015 2160.44 263.015 Q2163.82 263.015 2165.77 260.353 Q2167.71 257.668 2167.71 252.969 Q2167.71 248.27 2165.77 245.608 Q2163.82 242.923 2160.44 242.923 Q2157.06 242.923 2155.12 245.608 Q2153.2 248.27 2153.2 252.969 Z" fill="#000000" fill-rule="nonzero" fill-opacity="1" /><polyline clip-path="url(#clip790)" style="stroke:#c271d2; stroke-linecap:round; stroke-linejoin:round; stroke-width:8; stroke-opacity:0.5; fill:none" points="1817.52,300.469 1962.9,300.469 "/>
<path clip-path="url(#clip790)" d="M2003.52 301.545 Q2005.03 302.054 2006.44 303.721 Q2007.87 305.388 2009.31 308.304 L2014.05 317.749 L2009.03 317.749 L2004.61 308.883 Q2002.9 305.411 2001.28 304.276 Q1999.68 303.142 1996.9 303.142 L1991.81 303.142 L1991.81 317.749 L1987.13 317.749 L1987.13 283.189 L1997.69 283.189 Q2003.61 283.189 2006.53 285.665 Q2009.45 288.142 2009.45 293.142 Q2009.45 296.406 2007.92 298.559 Q2006.41 300.712 2003.52 301.545 M1991.81 287.031 L1991.81 299.3 L1997.69 299.3 Q2001.07 299.3 2002.78 297.749 Q2004.52 296.175 2004.52 293.142 Q2004.52 290.11 2002.78 288.582 Q2001.07 287.031 1997.69 287.031 L1991.81 287.031 Z" fill="#000000" fill-rule="nonzero" fill-opacity="1" /><path clip-path="url(#clip790)" d="M2039.93 303.721 L2039.93 305.804 L2020.35 305.804 Q2020.63 310.202 2022.99 312.517 Q2025.37 314.809 2029.61 314.809 Q2032.06 314.809 2034.35 314.207 Q2036.67 313.605 2038.94 312.401 L2038.94 316.429 Q2036.65 317.401 2034.24 317.911 Q2031.83 318.42 2029.35 318.42 Q2023.15 318.42 2019.52 314.809 Q2015.9 311.198 2015.9 305.04 Q2015.9 298.675 2019.33 294.948 Q2022.78 291.198 2028.61 291.198 Q2033.84 291.198 2036.88 294.577 Q2039.93 297.934 2039.93 303.721 M2035.67 302.471 Q2035.63 298.976 2033.71 296.892 Q2031.81 294.809 2028.66 294.809 Q2025.09 294.809 2022.94 296.823 Q2020.81 298.837 2020.49 302.494 L2035.67 302.471 Z" fill="#000000" fill-rule="nonzero" fill-opacity="1" /><path clip-path="url(#clip790)" d="M2065.58 292.818 L2065.58 296.8 Q2063.77 295.804 2061.95 295.318 Q2060.14 294.809 2058.29 294.809 Q2054.15 294.809 2051.85 297.448 Q2049.56 300.064 2049.56 304.809 Q2049.56 309.554 2051.85 312.193 Q2054.15 314.809 2058.29 314.809 Q2060.14 314.809 2061.95 314.323 Q2063.77 313.813 2065.58 312.818 L2065.58 316.753 Q2063.8 317.587 2061.88 318.003 Q2059.98 318.42 2057.83 318.42 Q2051.97 318.42 2048.52 314.739 Q2045.07 311.059 2045.07 304.809 Q2045.07 298.466 2048.54 294.832 Q2052.04 291.198 2058.1 291.198 Q2060.07 291.198 2061.95 291.615 Q2063.82 292.008 2065.58 292.818 Z" fill="#000000" fill-rule="nonzero" fill-opacity="1" /><path clip-path="url(#clip790)" d="M2083.03 294.809 Q2079.61 294.809 2077.62 297.494 Q2075.63 300.156 2075.63 304.809 Q2075.63 309.462 2077.59 312.147 Q2079.59 314.809 2083.03 314.809 Q2086.44 314.809 2088.43 312.124 Q2090.42 309.438 2090.42 304.809 Q2090.42 300.202 2088.43 297.517 Q2086.44 294.809 2083.03 294.809 M2083.03 291.198 Q2088.59 291.198 2091.76 294.809 Q2094.93 298.42 2094.93 304.809 Q2094.93 311.175 2091.76 314.809 Q2088.59 318.42 2083.03 318.42 Q2077.46 318.42 2074.28 314.809 Q2071.14 311.175 2071.14 304.809 Q2071.14 298.42 2074.28 294.809 Q2077.46 291.198 2083.03 291.198 Z" fill="#000000" fill-rule="nonzero" fill-opacity="1" /><path clip-path="url(#clip790)" d="M2098.94 291.823 L2103.45 291.823 L2111.55 313.582 L2119.65 291.823 L2124.17 291.823 L2114.45 317.749 L2108.66 317.749 L2098.94 291.823 Z" fill="#000000" fill-rule="nonzero" fill-opacity="1" /><path clip-path="url(#clip790)" d="M2152.22 303.721 L2152.22 305.804 L2132.64 305.804 Q2132.92 310.202 2135.28 312.517 Q2137.66 314.809 2141.9 314.809 Q2144.35 314.809 2146.64 314.207 Q2148.96 313.605 2151.23 312.401 L2151.23 316.429 Q2148.94 317.401 2146.53 317.911 Q2144.12 318.42 2141.64 318.42 Q2135.44 318.42 2131.81 314.809 Q2128.2 311.198 2128.2 305.04 Q2128.2 298.675 2131.62 294.948 Q2135.07 291.198 2140.9 291.198 Q2146.14 291.198 2149.17 294.577 Q2152.22 297.934 2152.22 303.721 M2147.96 302.471 Q2147.92 298.976 2146 296.892 Q2144.1 294.809 2140.95 294.809 Q2137.39 294.809 2135.23 296.823 Q2133.1 298.837 2132.78 302.494 L2147.96 302.471 Z" fill="#000000" fill-rule="nonzero" fill-opacity="1" /><path clip-path="url(#clip790)" d="M2174.24 295.804 Q2173.52 295.388 2172.66 295.202 Q2171.83 294.994 2170.81 294.994 Q2167.2 294.994 2165.26 297.355 Q2163.33 299.693 2163.33 304.091 L2163.33 317.749 L2159.05 317.749 L2159.05 291.823 L2163.33 291.823 L2163.33 295.851 Q2164.68 293.489 2166.83 292.355 Q2168.98 291.198 2172.06 291.198 Q2172.5 291.198 2173.03 291.267 Q2173.57 291.314 2174.21 291.429 L2174.24 295.804 Z" fill="#000000" fill-rule="nonzero" fill-opacity="1" /><path clip-path="url(#clip790)" d="M2199.84 303.721 L2199.84 305.804 L2180.26 305.804 Q2180.53 310.202 2182.89 312.517 Q2185.28 314.809 2189.51 314.809 Q2191.97 314.809 2194.26 314.207 Q2196.58 313.605 2198.84 312.401 L2198.84 316.429 Q2196.55 317.401 2194.14 317.911 Q2191.74 318.42 2189.26 318.42 Q2183.06 318.42 2179.42 314.809 Q2175.81 311.198 2175.81 305.04 Q2175.81 298.675 2179.24 294.948 Q2182.69 291.198 2188.52 291.198 Q2193.75 291.198 2196.78 294.577 Q2199.84 297.934 2199.84 303.721 M2195.58 302.471 Q2195.53 298.976 2193.61 296.892 Q2191.71 294.809 2188.57 294.809 Q2185 294.809 2182.85 296.823 Q2180.72 298.837 2180.39 302.494 L2195.58 302.471 Z" fill="#000000" fill-rule="nonzero" fill-opacity="1" /><path clip-path="url(#clip790)" d="M2223.89 295.758 L2223.89 281.73 L2228.15 281.73 L2228.15 317.749 L2223.89 317.749 L2223.89 313.86 Q2222.55 316.175 2220.49 317.309 Q2218.45 318.42 2215.58 318.42 Q2210.88 318.42 2207.92 314.67 Q2204.98 310.92 2204.98 304.809 Q2204.98 298.698 2207.92 294.948 Q2210.88 291.198 2215.58 291.198 Q2218.45 291.198 2220.49 292.332 Q2222.55 293.443 2223.89 295.758 M2209.38 304.809 Q2209.38 309.508 2211.3 312.193 Q2213.24 314.855 2216.62 314.855 Q2220 314.855 2221.95 312.193 Q2223.89 309.508 2223.89 304.809 Q2223.89 300.11 2221.95 297.448 Q2220 294.763 2216.62 294.763 Q2213.24 294.763 2211.3 297.448 Q2209.38 300.11 2209.38 304.809 Z" fill="#000000" fill-rule="nonzero" fill-opacity="1" /><circle clip-path="url(#clip790)" cx="1890.21" cy="352.309" r="20.48" fill="#ac8d18" fill-rule="evenodd" fill-opacity="1" stroke="#000000" stroke-opacity="1" stroke-width="4.55111"/>
<path clip-path="url(#clip790)" d="M1991.81 338.871 L1991.81 365.746 L1997.46 365.746 Q2004.61 365.746 2007.92 362.505 Q2011.25 359.265 2011.25 352.274 Q2011.25 345.329 2007.92 342.112 Q2004.61 338.871 1997.46 338.871 L1991.81 338.871 M1987.13 335.029 L1996.74 335.029 Q2006.78 335.029 2011.48 339.218 Q2016.18 343.385 2016.18 352.274 Q2016.18 361.209 2011.46 365.399 Q2006.74 369.589 1996.74 369.589 L1987.13 369.589 L1987.13 335.029 Z" fill="#000000" fill-rule="nonzero" fill-opacity="1" /><path clip-path="url(#clip790)" d="M2035.23 356.556 Q2030.07 356.556 2028.08 357.737 Q2026.09 358.917 2026.09 361.765 Q2026.09 364.033 2027.57 365.376 Q2029.08 366.695 2031.65 366.695 Q2035.19 366.695 2037.32 364.195 Q2039.47 361.672 2039.47 357.505 L2039.47 356.556 L2035.23 356.556 M2043.73 354.797 L2043.73 369.589 L2039.47 369.589 L2039.47 365.653 Q2038.01 368.015 2035.84 369.149 Q2033.66 370.26 2030.51 370.26 Q2026.53 370.26 2024.17 368.038 Q2021.83 365.792 2021.83 362.042 Q2021.83 357.667 2024.75 355.445 Q2027.69 353.223 2033.5 353.223 L2039.47 353.223 L2039.47 352.806 Q2039.47 349.867 2037.53 348.269 Q2035.6 346.649 2032.11 346.649 Q2029.89 346.649 2027.78 347.181 Q2025.67 347.714 2023.73 348.779 L2023.73 344.843 Q2026.07 343.941 2028.27 343.501 Q2030.46 343.038 2032.55 343.038 Q2038.17 343.038 2040.95 345.954 Q2043.73 348.871 2043.73 354.797 Z" fill="#000000" fill-rule="nonzero" fill-opacity="1" /><path clip-path="url(#clip790)" d="M2056.71 336.302 L2056.71 343.663 L2065.49 343.663 L2065.49 346.973 L2056.71 346.973 L2056.71 361.047 Q2056.71 364.218 2057.57 365.121 Q2058.45 366.024 2061.11 366.024 L2065.49 366.024 L2065.49 369.589 L2061.11 369.589 Q2056.18 369.589 2054.31 367.76 Q2052.43 365.908 2052.43 361.047 L2052.43 346.973 L2049.31 346.973 L2049.31 343.663 L2052.43 343.663 L2052.43 336.302 L2056.71 336.302 Z" fill="#000000" fill-rule="nonzero" fill-opacity="1" /><path clip-path="url(#clip790)" d="M2082.87 356.556 Q2077.71 356.556 2075.72 357.737 Q2073.73 358.917 2073.73 361.765 Q2073.73 364.033 2075.21 365.376 Q2076.71 366.695 2079.28 366.695 Q2082.83 366.695 2084.96 364.195 Q2087.11 361.672 2087.11 357.505 L2087.11 356.556 L2082.87 356.556 M2091.37 354.797 L2091.37 369.589 L2087.11 369.589 L2087.11 365.653 Q2085.65 368.015 2083.47 369.149 Q2081.3 370.26 2078.15 370.26 Q2074.17 370.26 2071.81 368.038 Q2069.47 365.792 2069.47 362.042 Q2069.47 357.667 2072.39 355.445 Q2075.33 353.223 2081.14 353.223 L2087.11 353.223 L2087.11 352.806 Q2087.11 349.867 2085.16 348.269 Q2083.24 346.649 2079.75 346.649 Q2077.52 346.649 2075.42 347.181 Q2073.31 347.714 2071.37 348.779 L2071.37 344.843 Q2073.71 343.941 2075.9 343.501 Q2078.1 343.038 2080.19 343.038 Q2085.81 343.038 2088.59 345.954 Q2091.37 348.871 2091.37 354.797 Z" fill="#000000" fill-rule="nonzero" fill-opacity="1" /></svg>
