<?xml version="1.0" encoding="utf-8"?>
<svg xmlns="http://www.w3.org/2000/svg" xmlns:xlink="http://www.w3.org/1999/xlink" width="600" height="400" viewBox="0 0 2400 1600">
<defs>
  <clipPath id="clip780">
    <rect x="0" y="0" width="2400" height="1600"/>
  </clipPath>
</defs>
<path clip-path="url(#clip780)" d="M0 1600 L2400 1600 L2400 0 L0 0  Z" fill="#ffffff" fill-rule="evenodd" fill-opacity="1"/>
<defs>
  <clipPath id="clip781">
    <rect x="480" y="0" width="1681" height="1600"/>
  </clipPath>
</defs>
<path clip-path="url(#clip780)" d="M172.015 686.448 L2352.76 686.448 L2352.76 47.2441 L172.015 47.2441  Z" fill="#ffffff" fill-rule="evenodd" fill-opacity="1"/>
<defs>
  <clipPath id="clip782">
    <rect x="172" y="47" width="2182" height="640"/>
  </clipPath>
</defs>
<polyline clip-path="url(#clip782)" style="stroke:#000000; stroke-linecap:round; stroke-linejoin:round; stroke-width:2; stroke-opacity:0.1; fill:none" points="471.115,686.448 471.115,47.2441 "/>
<polyline clip-path="url(#clip782)" style="stroke:#000000; stroke-linecap:round; stroke-linejoin:round; stroke-width:2; stroke-opacity:0.1; fill:none" points="866.75,686.448 866.75,47.2441 "/>
<polyline clip-path="url(#clip782)" style="stroke:#000000; stroke-linecap:round; stroke-linejoin:round; stroke-width:2; stroke-opacity:0.1; fill:none" points="1262.39,686.448 1262.39,47.2441 "/>
<polyline clip-path="url(#clip782)" style="stroke:#000000; stroke-linecap:round; stroke-linejoin:round; stroke-width:2; stroke-opacity:0.1; fill:none" points="1658.02,686.448 1658.02,47.2441 "/>
<polyline clip-path="url(#clip782)" style="stroke:#000000; stroke-linecap:round; stroke-linejoin:round; stroke-width:2; stroke-opacity:0.1; fill:none" points="2053.66,686.448 2053.66,47.2441 "/>
<polyline clip-path="url(#clip780)" style="stroke:#000000; stroke-linecap:round; stroke-linejoin:round; stroke-width:4; stroke-opacity:1; fill:none" points="172.015,686.448 2352.76,686.448 "/>
<polyline clip-path="url(#clip780)" style="stroke:#000000; stroke-linecap:round; stroke-linejoin:round; stroke-width:4; stroke-opacity:1; fill:none" points="471.115,686.448 471.115,667.55 "/>
<polyline clip-path="url(#clip780)" style="stroke:#000000; stroke-linecap:round; stroke-linejoin:round; stroke-width:4; stroke-opacity:1; fill:none" points="866.75,686.448 866.75,667.55 "/>
<polyline clip-path="url(#clip780)" style="stroke:#000000; stroke-linecap:round; stroke-linejoin:round; stroke-width:4; stroke-opacity:1; fill:none" points="1262.39,686.448 1262.39,667.55 "/>
<polyline clip-path="url(#clip780)" style="stroke:#000000; stroke-linecap:round; stroke-linejoin:round; stroke-width:4; stroke-opacity:1; fill:none" points="1658.02,686.448 1658.02,667.55 "/>
<polyline clip-path="url(#clip780)" style="stroke:#000000; stroke-linecap:round; stroke-linejoin:round; stroke-width:4; stroke-opacity:1; fill:none" points="2053.66,686.448 2053.66,667.55 "/>
<path clip-path="url(#clip780)" d="M442.851 744.913 L459.171 744.913 L459.171 748.848 L437.226 748.848 L437.226 744.913 Q439.888 742.158 444.472 737.528 Q449.078 732.876 450.259 731.533 Q452.504 729.01 453.384 727.274 Q454.286 725.515 454.286 723.825 Q454.286 721.07 452.342 719.334 Q450.421 717.598 447.319 717.598 Q445.12 717.598 442.666 718.362 Q440.236 719.126 437.458 720.677 L437.458 715.955 Q440.282 714.82 442.736 714.242 Q445.189 713.663 447.226 713.663 Q452.597 713.663 455.791 716.348 Q458.985 719.033 458.985 723.524 Q458.985 725.654 458.175 727.575 Q457.388 729.473 455.282 732.066 Q454.703 732.737 451.601 735.954 Q448.499 739.149 442.851 744.913 Z" fill="#000000" fill-rule="nonzero" fill-opacity="1" /><path clip-path="url(#clip780)" d="M468.985 742.968 L473.87 742.968 L473.87 748.848 L468.985 748.848 L468.985 742.968 Z" fill="#000000" fill-rule="nonzero" fill-opacity="1" /><path clip-path="url(#clip780)" d="M484.101 714.288 L502.457 714.288 L502.457 718.223 L488.383 718.223 L488.383 726.695 Q489.402 726.348 490.42 726.186 Q491.439 726.001 492.457 726.001 Q498.244 726.001 501.624 729.172 Q505.004 732.343 505.004 737.76 Q505.004 743.339 501.532 746.44 Q498.059 749.519 491.74 749.519 Q489.564 749.519 487.295 749.149 Q485.05 748.778 482.643 748.038 L482.643 743.339 Q484.726 744.473 486.948 745.028 Q489.17 745.584 491.647 745.584 Q495.652 745.584 497.99 743.478 Q500.328 741.371 500.328 737.76 Q500.328 734.149 497.99 732.042 Q495.652 729.936 491.647 729.936 Q489.772 729.936 487.897 730.353 Q486.045 730.769 484.101 731.649 L484.101 714.288 Z" fill="#000000" fill-rule="nonzero" fill-opacity="1" /><path clip-path="url(#clip780)" d="M833.915 714.288 L852.271 714.288 L852.271 718.223 L838.197 718.223 L838.197 726.695 Q839.216 726.348 840.234 726.186 Q841.253 726.001 842.271 726.001 Q848.058 726.001 851.438 729.172 Q854.817 732.343 854.817 737.76 Q854.817 743.339 851.345 746.44 Q847.873 749.519 841.554 749.519 Q839.378 749.519 837.109 749.149 Q834.864 748.778 832.456 748.038 L832.456 743.339 Q834.54 744.473 836.762 745.028 Q838.984 745.584 841.461 745.584 Q845.466 745.584 847.804 743.478 Q850.141 741.371 850.141 737.76 Q850.141 734.149 847.804 732.042 Q845.466 729.936 841.461 729.936 Q839.586 729.936 837.711 730.353 Q835.859 730.769 833.915 731.649 L833.915 714.288 Z" fill="#000000" fill-rule="nonzero" fill-opacity="1" /><path clip-path="url(#clip780)" d="M864.03 742.968 L868.915 742.968 L868.915 748.848 L864.03 748.848 L864.03 742.968 Z" fill="#000000" fill-rule="nonzero" fill-opacity="1" /><path clip-path="url(#clip780)" d="M889.1 717.367 Q885.489 717.367 883.66 720.931 Q881.854 724.473 881.854 731.603 Q881.854 738.709 883.66 742.274 Q885.489 745.815 889.1 745.815 Q892.734 745.815 894.539 742.274 Q896.368 738.709 896.368 731.603 Q896.368 724.473 894.539 720.931 Q892.734 717.367 889.1 717.367 M889.1 713.663 Q894.91 713.663 897.965 718.269 Q901.044 722.853 901.044 731.603 Q901.044 740.329 897.965 744.936 Q894.91 749.519 889.1 749.519 Q883.289 749.519 880.211 744.936 Q877.155 740.329 877.155 731.603 Q877.155 722.853 880.211 718.269 Q883.289 713.663 889.1 713.663 Z" fill="#000000" fill-rule="nonzero" fill-opacity="1" /><path clip-path="url(#clip780)" d="M1228.7 714.288 L1250.93 714.288 L1250.93 716.279 L1238.38 748.848 L1233.5 748.848 L1245.3 718.223 L1228.7 718.223 L1228.7 714.288 Z" fill="#000000" fill-rule="nonzero" fill-opacity="1" /><path clip-path="url(#clip780)" d="M1260.05 742.968 L1264.93 742.968 L1264.93 748.848 L1260.05 748.848 L1260.05 742.968 Z" fill="#000000" fill-rule="nonzero" fill-opacity="1" /><path clip-path="url(#clip780)" d="M1275.16 714.288 L1293.52 714.288 L1293.52 718.223 L1279.45 718.223 L1279.45 726.695 Q1280.46 726.348 1281.48 726.186 Q1282.5 726.001 1283.52 726.001 Q1289.31 726.001 1292.69 729.172 Q1296.07 732.343 1296.07 737.76 Q1296.07 743.339 1292.59 746.44 Q1289.12 749.519 1282.8 749.519 Q1280.63 749.519 1278.36 749.149 Q1276.11 748.778 1273.7 748.038 L1273.7 743.339 Q1275.79 744.473 1278.01 745.028 Q1280.23 745.584 1282.71 745.584 Q1286.71 745.584 1289.05 743.478 Q1291.39 741.371 1291.39 737.76 Q1291.39 734.149 1289.05 732.042 Q1286.71 729.936 1282.71 729.936 Q1280.83 729.936 1278.96 730.353 Q1277.11 730.769 1275.16 731.649 L1275.16 714.288 Z" fill="#000000" fill-rule="nonzero" fill-opacity="1" /><path clip-path="url(#clip780)" d="M1610.09 744.913 L1617.73 744.913 L1617.73 718.547 L1609.42 720.214 L1609.42 715.955 L1617.69 714.288 L1622.36 714.288 L1622.36 744.913 L1630 744.913 L1630 748.848 L1610.09 748.848 L1610.09 744.913 Z" fill="#000000" fill-rule="nonzero" fill-opacity="1" /><path clip-path="url(#clip780)" d="M1649.44 717.367 Q1645.83 717.367 1644 720.931 Q1642.2 724.473 1642.2 731.603 Q1642.2 738.709 1644 742.274 Q1645.83 745.815 1649.44 745.815 Q1653.08 745.815 1654.88 742.274 Q1656.71 738.709 1656.71 731.603 Q1656.71 724.473 1654.88 720.931 Q1653.08 717.367 1649.44 717.367 M1649.44 713.663 Q1655.25 713.663 1658.31 718.269 Q1661.39 722.853 1661.39 731.603 Q1661.39 740.329 1658.31 744.936 Q1655.25 749.519 1649.44 749.519 Q1643.63 749.519 1640.56 744.936 Q1637.5 740.329 1637.5 731.603 Q1637.5 722.853 1640.56 718.269 Q1643.63 713.663 1649.44 713.663 Z" fill="#000000" fill-rule="nonzero" fill-opacity="1" /><path clip-path="url(#clip780)" d="M1669.61 742.968 L1674.49 742.968 L1674.49 748.848 L1669.61 748.848 L1669.61 742.968 Z" fill="#000000" fill-rule="nonzero" fill-opacity="1" /><path clip-path="url(#clip780)" d="M1694.68 717.367 Q1691.06 717.367 1689.24 720.931 Q1687.43 724.473 1687.43 731.603 Q1687.43 738.709 1689.24 742.274 Q1691.06 745.815 1694.68 745.815 Q1698.31 745.815 1700.12 742.274 Q1701.94 738.709 1701.94 731.603 Q1701.94 724.473 1700.12 720.931 Q1698.31 717.367 1694.68 717.367 M1694.68 713.663 Q1700.49 713.663 1703.54 718.269 Q1706.62 722.853 1706.62 731.603 Q1706.62 740.329 1703.54 744.936 Q1700.49 749.519 1694.68 749.519 Q1688.87 749.519 1685.79 744.936 Q1682.73 740.329 1682.73 731.603 Q1682.73 722.853 1685.79 718.269 Q1688.87 713.663 1694.68 713.663 Z" fill="#000000" fill-rule="nonzero" fill-opacity="1" /><path clip-path="url(#clip780)" d="M2006.23 744.913 L2013.86 744.913 L2013.86 718.547 L2005.55 720.214 L2005.55 715.955 L2013.82 714.288 L2018.49 714.288 L2018.49 744.913 L2026.13 744.913 L2026.13 748.848 L2006.23 748.848 L2006.23 744.913 Z" fill="#000000" fill-rule="nonzero" fill-opacity="1" /><path clip-path="url(#clip780)" d="M2039.6 744.913 L2055.92 744.913 L2055.92 748.848 L2033.98 748.848 L2033.98 744.913 Q2036.64 742.158 2041.23 737.528 Q2045.83 732.876 2047.01 731.533 Q2049.26 729.01 2050.14 727.274 Q2051.04 725.515 2051.04 723.825 Q2051.04 721.07 2049.1 719.334 Q2047.17 717.598 2044.07 717.598 Q2041.87 717.598 2039.42 718.362 Q2036.99 719.126 2034.21 720.677 L2034.21 715.955 Q2037.04 714.82 2039.49 714.242 Q2041.94 713.663 2043.98 713.663 Q2049.35 713.663 2052.54 716.348 Q2055.74 719.033 2055.74 723.524 Q2055.74 725.654 2054.93 727.575 Q2054.14 729.473 2052.04 732.066 Q2051.46 732.737 2048.35 735.954 Q2045.25 739.149 2039.6 744.913 Z" fill="#000000" fill-rule="nonzero" fill-opacity="1" /><path clip-path="url(#clip780)" d="M2065.74 742.968 L2070.62 742.968 L2070.62 748.848 L2065.74 748.848 L2065.74 742.968 Z" fill="#000000" fill-rule="nonzero" fill-opacity="1" /><path clip-path="url(#clip780)" d="M2080.85 714.288 L2099.21 714.288 L2099.21 718.223 L2085.14 718.223 L2085.14 726.695 Q2086.16 726.348 2087.17 726.186 Q2088.19 726.001 2089.21 726.001 Q2095 726.001 2098.38 729.172 Q2101.76 732.343 2101.76 737.76 Q2101.76 743.339 2098.29 746.44 Q2094.81 749.519 2088.49 749.519 Q2086.32 749.519 2084.05 749.149 Q2081.8 748.778 2079.4 748.038 L2079.4 743.339 Q2081.48 744.473 2083.7 745.028 Q2085.92 745.584 2088.4 745.584 Q2092.41 745.584 2094.74 743.478 Q2097.08 741.371 2097.08 737.76 Q2097.08 734.149 2094.74 732.042 Q2092.41 729.936 2088.4 729.936 Q2086.53 729.936 2084.65 730.353 Q2082.8 730.769 2080.85 731.649 L2080.85 714.288 Z" fill="#000000" fill-rule="nonzero" fill-opacity="1" /><polyline clip-path="url(#clip782)" style="stroke:#000000; stroke-linecap:round; stroke-linejoin:round; stroke-width:2; stroke-opacity:0.1; fill:none" points="172.015,668.359 2352.76,668.359 "/>
<polyline clip-path="url(#clip782)" style="stroke:#000000; stroke-linecap:round; stroke-linejoin:round; stroke-width:2; stroke-opacity:0.1; fill:none" points="172.015,510.292 2352.76,510.292 "/>
<polyline clip-path="url(#clip782)" style="stroke:#000000; stroke-linecap:round; stroke-linejoin:round; stroke-width:2; stroke-opacity:0.1; fill:none" points="172.015,352.226 2352.76,352.226 "/>
<polyline clip-path="url(#clip782)" style="stroke:#000000; stroke-linecap:round; stroke-linejoin:round; stroke-width:2; stroke-opacity:0.1; fill:none" points="172.015,194.159 2352.76,194.159 "/>
<polyline clip-path="url(#clip780)" style="stroke:#000000; stroke-linecap:round; stroke-linejoin:round; stroke-width:4; stroke-opacity:1; fill:none" points="172.015,686.448 172.015,47.2441 "/>
<polyline clip-path="url(#clip780)" style="stroke:#000000; stroke-linecap:round; stroke-linejoin:round; stroke-width:4; stroke-opacity:1; fill:none" points="172.015,668.359 190.912,668.359 "/>
<polyline clip-path="url(#clip780)" style="stroke:#000000; stroke-linecap:round; stroke-linejoin:round; stroke-width:4; stroke-opacity:1; fill:none" points="172.015,510.292 190.912,510.292 "/>
<polyline clip-path="url(#clip780)" style="stroke:#000000; stroke-linecap:round; stroke-linejoin:round; stroke-width:4; stroke-opacity:1; fill:none" points="172.015,352.226 190.912,352.226 "/>
<polyline clip-path="url(#clip780)" style="stroke:#000000; stroke-linecap:round; stroke-linejoin:round; stroke-width:4; stroke-opacity:1; fill:none" points="172.015,194.159 190.912,194.159 "/>
<path clip-path="url(#clip780)" d="M124.07 654.158 Q120.459 654.158 118.631 657.722 Q116.825 661.264 116.825 668.394 Q116.825 675.5 118.631 679.065 Q120.459 682.606 124.07 682.606 Q127.705 682.606 129.51 679.065 Q131.339 675.5 131.339 668.394 Q131.339 661.264 129.51 657.722 Q127.705 654.158 124.07 654.158 M124.07 650.454 Q129.881 650.454 132.936 655.06 Q136.015 659.644 136.015 668.394 Q136.015 677.12 132.936 681.727 Q129.881 686.31 124.07 686.31 Q118.26 686.31 115.182 681.727 Q112.126 677.12 112.126 668.394 Q112.126 659.644 115.182 655.06 Q118.26 650.454 124.07 650.454 Z" fill="#000000" fill-rule="nonzero" fill-opacity="1" /><path clip-path="url(#clip780)" d="M57.7745 523.637 L74.0939 523.637 L74.0939 527.572 L52.1495 527.572 L52.1495 523.637 Q54.8115 520.882 59.3949 516.253 Q64.0013 511.6 65.1819 510.258 Q67.4272 507.734 68.3068 505.998 Q69.2096 504.239 69.2096 502.549 Q69.2096 499.795 67.2652 498.059 Q65.3439 496.322 62.2421 496.322 Q60.043 496.322 57.5893 497.086 Q55.1588 497.85 52.381 499.401 L52.381 494.679 Q55.2051 493.545 57.6588 492.966 Q60.1124 492.387 62.1495 492.387 Q67.5198 492.387 70.7142 495.072 Q73.9087 497.758 73.9087 502.248 Q73.9087 504.378 73.0985 506.299 Q72.3115 508.197 70.205 510.79 Q69.6263 511.461 66.5245 514.679 Q63.4226 517.873 57.7745 523.637 Z" fill="#000000" fill-rule="nonzero" fill-opacity="1" /><path clip-path="url(#clip780)" d="M93.9086 496.091 Q90.2975 496.091 88.4688 499.656 Q86.6632 503.197 86.6632 510.327 Q86.6632 517.433 88.4688 520.998 Q90.2975 524.54 93.9086 524.54 Q97.5428 524.54 99.3483 520.998 Q101.177 517.433 101.177 510.327 Q101.177 503.197 99.3483 499.656 Q97.5428 496.091 93.9086 496.091 M93.9086 492.387 Q99.7187 492.387 102.774 496.994 Q105.853 501.577 105.853 510.327 Q105.853 519.054 102.774 523.66 Q99.7187 528.244 93.9086 528.244 Q88.0984 528.244 85.0197 523.66 Q81.9642 519.054 81.9642 510.327 Q81.9642 501.577 85.0197 496.994 Q88.0984 492.387 93.9086 492.387 Z" fill="#000000" fill-rule="nonzero" fill-opacity="1" /><path clip-path="url(#clip780)" d="M124.07 496.091 Q120.459 496.091 118.631 499.656 Q116.825 503.197 116.825 510.327 Q116.825 517.433 118.631 520.998 Q120.459 524.54 124.07 524.54 Q127.705 524.54 129.51 520.998 Q131.339 517.433 131.339 510.327 Q131.339 503.197 129.51 499.656 Q127.705 496.091 124.07 496.091 M124.07 492.387 Q129.881 492.387 132.936 496.994 Q136.015 501.577 136.015 510.327 Q136.015 519.054 132.936 523.66 Q129.881 528.244 124.07 528.244 Q118.26 528.244 115.182 523.66 Q112.126 519.054 112.126 510.327 Q112.126 501.577 115.182 496.994 Q118.26 492.387 124.07 492.387 Z" fill="#000000" fill-rule="nonzero" fill-opacity="1" /><path clip-path="url(#clip780)" d="M66.5939 339.02 L54.7884 357.469 L66.5939 357.469 L66.5939 339.02 M65.367 334.946 L71.2466 334.946 L71.2466 357.469 L76.1772 357.469 L76.1772 361.358 L71.2466 361.358 L71.2466 369.506 L66.5939 369.506 L66.5939 361.358 L50.9921 361.358 L50.9921 356.844 L65.367 334.946 Z" fill="#000000" fill-rule="nonzero" fill-opacity="1" /><path clip-path="url(#clip780)" d="M93.9086 338.024 Q90.2975 338.024 88.4688 341.589 Q86.6632 345.131 86.6632 352.26 Q86.6632 359.367 88.4688 362.932 Q90.2975 366.473 93.9086 366.473 Q97.5428 366.473 99.3483 362.932 Q101.177 359.367 101.177 352.26 Q101.177 345.131 99.3483 341.589 Q97.5428 338.024 93.9086 338.024 M93.9086 334.321 Q99.7187 334.321 102.774 338.927 Q105.853 343.51 105.853 352.26 Q105.853 360.987 102.774 365.594 Q99.7187 370.177 93.9086 370.177 Q88.0984 370.177 85.0197 365.594 Q81.9642 360.987 81.9642 352.26 Q81.9642 343.51 85.0197 338.927 Q88.0984 334.321 93.9086 334.321 Z" fill="#000000" fill-rule="nonzero" fill-opacity="1" /><path clip-path="url(#clip780)" d="M124.07 338.024 Q120.459 338.024 118.631 341.589 Q116.825 345.131 116.825 352.26 Q116.825 359.367 118.631 362.932 Q120.459 366.473 124.07 366.473 Q127.705 366.473 129.51 362.932 Q131.339 359.367 131.339 352.26 Q131.339 345.131 129.51 341.589 Q127.705 338.024 124.07 338.024 M124.07 334.321 Q129.881 334.321 132.936 338.927 Q136.015 343.51 136.015 352.26 Q136.015 360.987 132.936 365.594 Q129.881 370.177 124.07 370.177 Q118.26 370.177 115.182 365.594 Q112.126 360.987 112.126 352.26 Q112.126 343.51 115.182 338.927 Q118.26 334.321 124.07 334.321 Z" fill="#000000" fill-rule="nonzero" fill-opacity="1" /><path clip-path="url(#clip780)" d="M64.3254 192.296 Q61.1773 192.296 59.3254 194.448 Q57.4967 196.601 57.4967 200.351 Q57.4967 204.078 59.3254 206.254 Q61.1773 208.407 64.3254 208.407 Q67.4735 208.407 69.3022 206.254 Q71.1541 204.078 71.1541 200.351 Q71.1541 196.601 69.3022 194.448 Q67.4735 192.296 64.3254 192.296 M73.6077 177.643 L73.6077 181.902 Q71.8485 181.069 70.0429 180.629 Q68.2606 180.189 66.5013 180.189 Q61.8717 180.189 59.418 183.314 Q56.9875 186.439 56.6402 192.759 Q58.006 190.745 60.0662 189.68 Q62.1263 188.592 64.6032 188.592 Q69.8115 188.592 72.8207 191.763 Q75.8531 194.911 75.8531 200.351 Q75.8531 205.675 72.705 208.893 Q69.5568 212.11 64.3254 212.11 Q58.33 212.11 55.1588 207.527 Q51.9875 202.921 51.9875 194.194 Q51.9875 185.999 55.8764 181.138 Q59.7652 176.254 66.3161 176.254 Q68.0754 176.254 69.8578 176.601 Q71.6633 176.948 73.6077 177.643 Z" fill="#000000" fill-rule="nonzero" fill-opacity="1" /><path clip-path="url(#clip780)" d="M93.9086 179.958 Q90.2975 179.958 88.4688 183.523 Q86.6632 187.064 86.6632 194.194 Q86.6632 201.3 88.4688 204.865 Q90.2975 208.407 93.9086 208.407 Q97.5428 208.407 99.3483 204.865 Q101.177 201.3 101.177 194.194 Q101.177 187.064 99.3483 183.523 Q97.5428 179.958 93.9086 179.958 M93.9086 176.254 Q99.7187 176.254 102.774 180.861 Q105.853 185.444 105.853 194.194 Q105.853 202.921 102.774 207.527 Q99.7187 212.11 93.9086 212.11 Q88.0984 212.11 85.0197 207.527 Q81.9642 202.921 81.9642 194.194 Q81.9642 185.444 85.0197 180.861 Q88.0984 176.254 93.9086 176.254 Z" fill="#000000" fill-rule="nonzero" fill-opacity="1" /><path clip-path="url(#clip780)" d="M124.07 179.958 Q120.459 179.958 118.631 183.523 Q116.825 187.064 116.825 194.194 Q116.825 201.3 118.631 204.865 Q120.459 208.407 124.07 208.407 Q127.705 208.407 129.51 204.865 Q131.339 201.3 131.339 194.194 Q131.339 187.064 129.51 183.523 Q127.705 179.958 124.07 179.958 M124.07 176.254 Q129.881 176.254 132.936 180.861 Q136.015 185.444 136.015 194.194 Q136.015 202.921 132.936 207.527 Q129.881 212.11 124.07 212.11 Q118.26 212.11 115.182 207.527 Q112.126 202.921 112.126 194.194 Q112.126 185.444 115.182 180.861 Q118.26 176.254 124.07 176.254 Z" fill="#000000" fill-rule="nonzero" fill-opacity="1" /><path clip-path="url(#clip782)" d="M233.734 667.831 L391.988 668.007 L550.242 668.124 L708.496 668.203 L866.75 668.255 L1025 668.29 L1183.26 668.313 L1341.51 668.328 L1499.77 668.338 L1658.02 668.345 L1816.27 668.35 L1974.53 668.353 L2132.78 668.356 L2291.04 668.357 L2291.04 228.82 L2132.78 215.034 L1974.53 203.638 L1816.27 192.523 L1658.02 183.374 L1499.77 169.771 L1341.51 158.627 L1183.26 146.731 L1025 138.774 L866.75 135.596 L708.496 146.516 L550.242 178.998 L391.988 355.788 L233.734 642.861  Z" fill="#009af9" fill-rule="evenodd" fill-opacity="0.5"/>
<polyline clip-path="url(#clip782)" style="stroke:#009af9; stroke-linecap:round; stroke-linejoin:round; stroke-width:4; stroke-opacity:1; fill:none" points="233.734,665.01 391.988,654.56 550.242,617.248 708.496,541.839 866.75,529.42 1025,550.197 1183.26,575.725 1341.51,595.855 1499.77,613.54 1658.02,628.356 1816.27,638.783 1974.53,646.956 2132.78,652.866 2291.04,657.375 "/>
<polyline clip-path="url(#clip782)" style="stroke:#ff0000; stroke-linecap:round; stroke-linejoin:round; stroke-width:4; stroke-opacity:1; fill:none" stroke-dasharray="16, 10" points="-2008.73,65.3348 4533.5,65.3348 "/>
<path clip-path="url(#clip780)" d="M172.015 1486.45 L2352.76 1486.45 L2352.76 847.244 L172.015 847.244  Z" fill="#ffffff" fill-rule="evenodd" fill-opacity="1"/>
<defs>
  <clipPath id="clip783">
    <rect x="172" y="847" width="2182" height="640"/>
  </clipPath>
</defs>
<polyline clip-path="url(#clip783)" style="stroke:#000000; stroke-linecap:round; stroke-linejoin:round; stroke-width:2; stroke-opacity:0.1; fill:none" points="471.115,1486.45 471.115,847.244 "/>
<polyline clip-path="url(#clip783)" style="stroke:#000000; stroke-linecap:round; stroke-linejoin:round; stroke-width:2; stroke-opacity:0.1; fill:none" points="866.75,1486.45 866.75,847.244 "/>
<polyline clip-path="url(#clip783)" style="stroke:#000000; stroke-linecap:round; stroke-linejoin:round; stroke-width:2; stroke-opacity:0.1; fill:none" points="1262.39,1486.45 1262.39,847.244 "/>
<polyline clip-path="url(#clip783)" style="stroke:#000000; stroke-linecap:round; stroke-linejoin:round; stroke-width:2; stroke-opacity:0.1; fill:none" points="1658.02,1486.45 1658.02,847.244 "/>
<polyline clip-path="url(#clip783)" style="stroke:#000000; stroke-linecap:round; stroke-linejoin:round; stroke-width:2; stroke-opacity:0.1; fill:none" points="2053.66,1486.45 2053.66,847.244 "/>
<polyline clip-path="url(#clip780)" style="stroke:#000000; stroke-linecap:round; stroke-linejoin:round; stroke-width:4; stroke-opacity:1; fill:none" points="172.015,1486.45 2352.76,1486.45 "/>
<polyline clip-path="url(#clip780)" style="stroke:#000000; stroke-linecap:round; stroke-linejoin:round; stroke-width:4; stroke-opacity:1; fill:none" points="471.115,1486.45 471.115,1467.55 "/>
<polyline clip-path="url(#clip780)" style="stroke:#000000; stroke-linecap:round; stroke-linejoin:round; stroke-width:4; stroke-opacity:1; fill:none" points="866.75,1486.45 866.75,1467.55 "/>
<polyline clip-path="url(#clip780)" style="stroke:#000000; stroke-linecap:round; stroke-linejoin:round; stroke-width:4; stroke-opacity:1; fill:none" points="1262.39,1486.45 1262.39,1467.55 "/>
<polyline clip-path="url(#clip780)" style="stroke:#000000; stroke-linecap:round; stroke-linejoin:round; stroke-width:4; stroke-opacity:1; fill:none" points="1658.02,1486.45 1658.02,1467.55 "/>
<polyline clip-path="url(#clip780)" style="stroke:#000000; stroke-linecap:round; stroke-linejoin:round; stroke-width:4; stroke-opacity:1; fill:none" points="2053.66,1486.45 2053.66,1467.55 "/>
<path clip-path="url(#clip780)" d="M442.851 1544.91 L459.171 1544.91 L459.171 1548.85 L437.226 1548.85 L437.226 1544.91 Q439.888 1542.16 444.472 1537.53 Q449.078 1532.88 450.259 1531.53 Q452.504 1529.01 453.384 1527.27 Q454.286 1525.51 454.286 1523.82 Q454.286 1521.07 452.342 1519.33 Q450.421 1517.6 447.319 1517.6 Q445.12 1517.6 442.666 1518.36 Q440.236 1519.13 437.458 1520.68 L437.458 1515.95 Q440.282 1514.82 442.736 1514.24 Q445.189 1513.66 447.226 1513.66 Q452.597 1513.66 455.791 1516.35 Q458.985 1519.03 458.985 1523.52 Q458.985 1525.65 458.175 1527.57 Q457.388 1529.47 455.282 1532.07 Q454.703 1532.74 451.601 1535.95 Q448.499 1539.15 442.851 1544.91 Z" fill="#000000" fill-rule="nonzero" fill-opacity="1" /><path clip-path="url(#clip780)" d="M468.985 1542.97 L473.87 1542.97 L473.87 1548.85 L468.985 1548.85 L468.985 1542.97 Z" fill="#000000" fill-rule="nonzero" fill-opacity="1" /><path clip-path="url(#clip780)" d="M484.101 1514.29 L502.457 1514.29 L502.457 1518.22 L488.383 1518.22 L488.383 1526.7 Q489.402 1526.35 490.42 1526.19 Q491.439 1526 492.457 1526 Q498.244 1526 501.624 1529.17 Q505.004 1532.34 505.004 1537.76 Q505.004 1543.34 501.532 1546.44 Q498.059 1549.52 491.74 1549.52 Q489.564 1549.52 487.295 1549.15 Q485.05 1548.78 482.643 1548.04 L482.643 1543.34 Q484.726 1544.47 486.948 1545.03 Q489.17 1545.58 491.647 1545.58 Q495.652 1545.58 497.99 1543.48 Q500.328 1541.37 500.328 1537.76 Q500.328 1534.15 497.99 1532.04 Q495.652 1529.94 491.647 1529.94 Q489.772 1529.94 487.897 1530.35 Q486.045 1530.77 484.101 1531.65 L484.101 1514.29 Z" fill="#000000" fill-rule="nonzero" fill-opacity="1" /><path clip-path="url(#clip780)" d="M833.915 1514.29 L852.271 1514.29 L852.271 1518.22 L838.197 1518.22 L838.197 1526.7 Q839.216 1526.35 840.234 1526.19 Q841.253 1526 842.271 1526 Q848.058 1526 851.438 1529.17 Q854.817 1532.34 854.817 1537.76 Q854.817 1543.34 851.345 1546.44 Q847.873 1549.52 841.554 1549.52 Q839.378 1549.52 837.109 1549.15 Q834.864 1548.78 832.456 1548.04 L832.456 1543.34 Q834.54 1544.47 836.762 1545.03 Q838.984 1545.58 841.461 1545.58 Q845.466 1545.58 847.804 1543.48 Q850.141 1541.37 850.141 1537.76 Q850.141 1534.15 847.804 1532.04 Q845.466 1529.94 841.461 1529.94 Q839.586 1529.94 837.711 1530.35 Q835.859 1530.77 833.915 1531.65 L833.915 1514.29 Z" fill="#000000" fill-rule="nonzero" fill-opacity="1" /><path clip-path="url(#clip780)" d="M864.03 1542.97 L868.915 1542.97 L868.915 1548.85 L864.03 1548.85 L864.03 1542.97 Z" fill="#000000" fill-rule="nonzero" fill-opacity="1" /><path clip-path="url(#clip780)" d="M889.1 1517.37 Q885.489 1517.37 883.66 1520.93 Q881.854 1524.47 881.854 1531.6 Q881.854 1538.71 883.66 1542.27 Q885.489 1545.82 889.1 1545.82 Q892.734 1545.82 894.539 1542.27 Q896.368 1538.71 896.368 1531.6 Q896.368 1524.47 894.539 1520.93 Q892.734 1517.37 889.1 1517.37 M889.1 1513.66 Q894.91 1513.66 897.965 1518.27 Q901.044 1522.85 901.044 1531.6 Q901.044 1540.33 897.965 1544.94 Q894.91 1549.52 889.1 1549.52 Q883.289 1549.52 880.211 1544.94 Q877.155 1540.33 877.155 1531.6 Q877.155 1522.85 880.211 1518.27 Q883.289 1513.66 889.1 1513.66 Z" fill="#000000" fill-rule="nonzero" fill-opacity="1" /><path clip-path="url(#clip780)" d="M1228.7 1514.29 L1250.93 1514.29 L1250.93 1516.28 L1238.38 1548.85 L1233.5 1548.85 L1245.3 1518.22 L1228.7 1518.22 L1228.7 1514.29 Z" fill="#000000" fill-rule="nonzero" fill-opacity="1" /><path clip-path="url(#clip780)" d="M1260.05 1542.97 L1264.93 1542.97 L1264.93 1548.85 L1260.05 1548.85 L1260.05 1542.97 Z" fill="#000000" fill-rule="nonzero" fill-opacity="1" /><path clip-path="url(#clip780)" d="M1275.16 1514.29 L1293.52 1514.29 L1293.52 1518.22 L1279.45 1518.22 L1279.45 1526.7 Q1280.46 1526.35 1281.48 1526.19 Q1282.5 1526 1283.52 1526 Q1289.31 1526 1292.69 1529.17 Q1296.07 1532.34 1296.07 1537.76 Q1296.07 1543.34 1292.59 1546.44 Q1289.12 1549.52 1282.8 1549.52 Q1280.63 1549.52 1278.36 1549.15 Q1276.11 1548.78 1273.7 1548.04 L1273.7 1543.34 Q1275.79 1544.47 1278.01 1545.03 Q1280.23 1545.58 1282.71 1545.58 Q1286.71 1545.58 1289.05 1543.48 Q1291.39 1541.37 1291.39 1537.76 Q1291.39 1534.15 1289.05 1532.04 Q1286.71 1529.94 1282.71 1529.94 Q1280.83 1529.94 1278.96 1530.35 Q1277.11 1530.77 1275.16 1531.65 L1275.16 1514.29 Z" fill="#000000" fill-rule="nonzero" fill-opacity="1" /><path clip-path="url(#clip780)" d="M1610.09 1544.91 L1617.73 1544.91 L1617.73 1518.55 L1609.42 1520.21 L1609.42 1515.95 L1617.69 1514.29 L1622.36 1514.29 L1622.36 1544.91 L1630 1544.91 L1630 1548.85 L1610.09 1548.85 L1610.09 1544.91 Z" fill="#000000" fill-rule="nonzero" fill-opacity="1" /><path clip-path="url(#clip780)" d="M1649.44 1517.37 Q1645.83 1517.37 1644 1520.93 Q1642.2 1524.47 1642.2 1531.6 Q1642.2 1538.71 1644 1542.27 Q1645.83 1545.82 1649.44 1545.82 Q1653.08 1545.82 1654.88 1542.27 Q1656.71 1538.71 1656.71 1531.6 Q1656.71 1524.47 1654.88 1520.93 Q1653.08 1517.37 1649.44 1517.37 M1649.44 1513.66 Q1655.25 1513.66 1658.31 1518.27 Q1661.39 1522.85 1661.39 1531.6 Q1661.39 1540.33 1658.31 1544.94 Q1655.25 1549.52 1649.44 1549.52 Q1643.63 1549.52 1640.56 1544.94 Q1637.5 1540.33 1637.5 1531.6 Q1637.5 1522.85 1640.56 1518.27 Q1643.63 1513.66 1649.44 1513.66 Z" fill="#000000" fill-rule="nonzero" fill-opacity="1" /><path clip-path="url(#clip780)" d="M1669.61 1542.97 L1674.49 1542.97 L1674.49 1548.85 L1669.61 1548.85 L1669.61 1542.97 Z" fill="#000000" fill-rule="nonzero" fill-opacity="1" /><path clip-path="url(#clip780)" d="M1694.68 1517.37 Q1691.06 1517.37 1689.24 1520.93 Q1687.43 1524.47 1687.43 1531.6 Q1687.43 1538.71 1689.24 1542.27 Q1691.06 1545.82 1694.68 1545.82 Q1698.31 1545.82 1700.12 1542.27 Q1701.94 1538.71 1701.94 1531.6 Q1701.94 1524.47 1700.12 1520.93 Q1698.31 1517.37 1694.68 1517.37 M1694.68 1513.66 Q1700.49 1513.66 1703.54 1518.27 Q1706.62 1522.85 1706.62 1531.6 Q1706.62 1540.33 1703.54 1544.94 Q1700.49 1549.52 1694.68 1549.52 Q1688.87 1549.52 1685.79 1544.94 Q1682.73 1540.33 1682.73 1531.6 Q1682.73 1522.85 1685.79 1518.27 Q1688.87 1513.66 1694.68 1513.66 Z" fill="#000000" fill-rule="nonzero" fill-opacity="1" /><path clip-path="url(#clip780)" d="M2006.23 1544.91 L2013.86 1544.91 L2013.86 1518.55 L2005.55 1520.21 L2005.55 1515.95 L2013.82 1514.29 L2018.49 1514.29 L2018.49 1544.91 L2026.13 1544.91 L2026.13 1548.85 L2006.23 1548.85 L2006.23 1544.91 Z" fill="#000000" fill-rule="nonzero" fill-opacity="1" /><path clip-path="url(#clip780)" d="M2039.6 1544.91 L2055.92 1544.91 L2055.92 1548.85 L2033.98 1548.85 L2033.98 1544.91 Q2036.64 1542.16 2041.23 1537.53 Q2045.83 1532.88 2047.01 1531.53 Q2049.26 1529.01 2050.14 1527.27 Q2051.04 1525.51 2051.04 1523.82 Q2051.04 1521.07 2049.1 1519.33 Q2047.17 1517.6 2044.07 1517.6 Q2041.87 1517.6 2039.42 1518.36 Q2036.99 1519.13 2034.21 1520.68 L2034.21 1515.95 Q2037.04 1514.82 2039.49 1514.24 Q2041.94 1513.66 2043.98 1513.66 Q2049.35 1513.66 2052.54 1516.35 Q2055.74 1519.03 2055.74 1523.52 Q2055.74 1525.65 2054.93 1527.57 Q2054.14 1529.47 2052.04 1532.07 Q2051.46 1532.74 2048.35 1535.95 Q2045.25 1539.15 2039.6 1544.91 Z" fill="#000000" fill-rule="nonzero" fill-opacity="1" /><path clip-path="url(#clip780)" d="M2065.74 1542.97 L2070.62 1542.97 L2070.62 1548.85 L2065.74 1548.85 L2065.74 1542.97 Z" fill="#000000" fill-rule="nonzero" fill-opacity="1" /><path clip-path="url(#clip780)" d="M2080.85 1514.29 L2099.21 1514.29 L2099.21 1518.22 L2085.14 1518.22 L2085.14 1526.7 Q2086.16 1526.35 2087.17 1526.19 Q2088.19 1526 2089.21 1526 Q2095 1526 2098.38 1529.17 Q2101.76 1532.34 2101.76 1537.76 Q2101.76 1543.34 2098.29 1546.44 Q2094.81 1549.52 2088.49 1549.52 Q2086.32 1549.52 2084.05 1549.15 Q2081.8 1548.78 2079.4 1548.04 L2079.4 1543.34 Q2081.48 1544.47 2083.7 1545.03 Q2085.92 1545.58 2088.4 1545.58 Q2092.41 1545.58 2094.74 1543.48 Q2097.08 1541.37 2097.08 1537.76 Q2097.08 1534.15 2094.74 1532.04 Q2092.41 1529.94 2088.4 1529.94 Q2086.53 1529.94 2084.65 1530.35 Q2082.8 1530.77 2080.85 1531.65 L2080.85 1514.29 Z" fill="#000000" fill-rule="nonzero" fill-opacity="1" /><polyline clip-path="url(#clip783)" style="stroke:#000000; stroke-linecap:round; stroke-linejoin:round; stroke-width:2; stroke-opacity:0.1; fill:none" points="172.015,1468.38 2352.76,1468.38 "/>
<polyline clip-path="url(#clip783)" style="stroke:#000000; stroke-linecap:round; stroke-linejoin:round; stroke-width:2; stroke-opacity:0.1; fill:none" points="172.015,1310.31 2352.76,1310.31 "/>
<polyline clip-path="url(#clip783)" style="stroke:#000000; stroke-linecap:round; stroke-linejoin:round; stroke-width:2; stroke-opacity:0.1; fill:none" points="172.015,1152.24 2352.76,1152.24 "/>
<polyline clip-path="url(#clip783)" style="stroke:#000000; stroke-linecap:round; stroke-linejoin:round; stroke-width:2; stroke-opacity:0.1; fill:none" points="172.015,994.164 2352.76,994.164 "/>
<polyline clip-path="url(#clip780)" style="stroke:#000000; stroke-linecap:round; stroke-linejoin:round; stroke-width:4; stroke-opacity:1; fill:none" points="172.015,1486.45 172.015,847.244 "/>
<polyline clip-path="url(#clip780)" style="stroke:#000000; stroke-linecap:round; stroke-linejoin:round; stroke-width:4; stroke-opacity:1; fill:none" points="172.015,1468.38 190.912,1468.38 "/>
<polyline clip-path="url(#clip780)" style="stroke:#000000; stroke-linecap:round; stroke-linejoin:round; stroke-width:4; stroke-opacity:1; fill:none" points="172.015,1310.31 190.912,1310.31 "/>
<polyline clip-path="url(#clip780)" style="stroke:#000000; stroke-linecap:round; stroke-linejoin:round; stroke-width:4; stroke-opacity:1; fill:none" points="172.015,1152.24 190.912,1152.24 "/>
<polyline clip-path="url(#clip780)" style="stroke:#000000; stroke-linecap:round; stroke-linejoin:round; stroke-width:4; stroke-opacity:1; fill:none" points="172.015,994.164 190.912,994.164 "/>
<path clip-path="url(#clip780)" d="M124.07 1454.18 Q120.459 1454.18 118.631 1457.74 Q116.825 1461.29 116.825 1468.42 Q116.825 1475.52 118.631 1479.09 Q120.459 1482.63 124.07 1482.63 Q127.705 1482.63 129.51 1479.09 Q131.339 1475.52 131.339 1468.42 Q131.339 1461.29 129.51 1457.74 Q127.705 1454.18 124.07 1454.18 M124.07 1450.48 Q129.881 1450.48 132.936 1455.08 Q136.015 1459.67 136.015 1468.42 Q136.015 1477.14 132.936 1481.75 Q129.881 1486.33 124.07 1486.33 Q118.26 1486.33 115.182 1481.75 Q112.126 1477.14 112.126 1468.42 Q112.126 1459.67 115.182 1455.08 Q118.26 1450.48 124.07 1450.48 Z" fill="#000000" fill-rule="nonzero" fill-opacity="1" /><path clip-path="url(#clip780)" d="M57.7745 1323.65 L74.0939 1323.65 L74.0939 1327.59 L52.1495 1327.59 L52.1495 1323.65 Q54.8115 1320.9 59.3949 1316.27 Q64.0013 1311.62 65.1819 1310.27 Q67.4272 1307.75 68.3068 1306.01 Q69.2096 1304.25 69.2096 1302.57 Q69.2096 1299.81 67.2652 1298.07 Q65.3439 1296.34 62.2421 1296.34 Q60.043 1296.34 57.5893 1297.1 Q55.1588 1297.87 52.381 1299.42 L52.381 1294.69 Q55.2051 1293.56 57.6588 1292.98 Q60.1124 1292.4 62.1495 1292.4 Q67.5198 1292.4 70.7142 1295.09 Q73.9087 1297.77 73.9087 1302.26 Q73.9087 1304.39 73.0985 1306.32 Q72.3115 1308.21 70.205 1310.81 Q69.6263 1311.48 66.5245 1314.69 Q63.4226 1317.89 57.7745 1323.65 Z" fill="#000000" fill-rule="nonzero" fill-opacity="1" /><path clip-path="url(#clip780)" d="M93.9086 1296.11 Q90.2975 1296.11 88.4688 1299.67 Q86.6632 1303.21 86.6632 1310.34 Q86.6632 1317.45 88.4688 1321.01 Q90.2975 1324.56 93.9086 1324.56 Q97.5428 1324.56 99.3483 1321.01 Q101.177 1317.45 101.177 1310.34 Q101.177 1303.21 99.3483 1299.67 Q97.5428 1296.11 93.9086 1296.11 M93.9086 1292.4 Q99.7187 1292.4 102.774 1297.01 Q105.853 1301.59 105.853 1310.34 Q105.853 1319.07 102.774 1323.68 Q99.7187 1328.26 93.9086 1328.26 Q88.0984 1328.26 85.0197 1323.68 Q81.9642 1319.07 81.9642 1310.34 Q81.9642 1301.59 85.0197 1297.01 Q88.0984 1292.4 93.9086 1292.4 Z" fill="#000000" fill-rule="nonzero" fill-opacity="1" /><path clip-path="url(#clip780)" d="M124.07 1296.11 Q120.459 1296.11 118.631 1299.67 Q116.825 1303.21 116.825 1310.34 Q116.825 1317.45 118.631 1321.01 Q120.459 1324.56 124.07 1324.56 Q127.705 1324.56 129.51 1321.01 Q131.339 1317.45 131.339 1310.34 Q131.339 1303.21 129.51 1299.67 Q127.705 1296.11 124.07 1296.11 M124.07 1292.4 Q129.881 1292.4 132.936 1297.01 Q136.015 1301.59 136.015 1310.34 Q136.015 1319.07 132.936 1323.68 Q129.881 1328.26 124.07 1328.26 Q118.26 1328.26 115.182 1323.68 Q112.126 1319.07 112.126 1310.34 Q112.126 1301.59 115.182 1297.01 Q118.26 1292.4 124.07 1292.4 Z" fill="#000000" fill-rule="nonzero" fill-opacity="1" /><path clip-path="url(#clip780)" d="M66.5939 1139.03 L54.7884 1157.48 L66.5939 1157.48 L66.5939 1139.03 M65.367 1134.96 L71.2466 1134.96 L71.2466 1157.48 L76.1772 1157.48 L76.1772 1161.37 L71.2466 1161.37 L71.2466 1169.52 L66.5939 1169.52 L66.5939 1161.37 L50.9921 1161.37 L50.9921 1156.85 L65.367 1134.96 Z" fill="#000000" fill-rule="nonzero" fill-opacity="1" /><path clip-path="url(#clip780)" d="M93.9086 1138.03 Q90.2975 1138.03 88.4688 1141.6 Q86.6632 1145.14 86.6632 1152.27 Q86.6632 1159.38 88.4688 1162.94 Q90.2975 1166.48 93.9086 1166.48 Q97.5428 1166.48 99.3483 1162.94 Q101.177 1159.38 101.177 1152.27 Q101.177 1145.14 99.3483 1141.6 Q97.5428 1138.03 93.9086 1138.03 M93.9086 1134.33 Q99.7187 1134.33 102.774 1138.94 Q105.853 1143.52 105.853 1152.27 Q105.853 1161 102.774 1165.6 Q99.7187 1170.19 93.9086 1170.19 Q88.0984 1170.19 85.0197 1165.6 Q81.9642 1161 81.9642 1152.27 Q81.9642 1143.52 85.0197 1138.94 Q88.0984 1134.33 93.9086 1134.33 Z" fill="#000000" fill-rule="nonzero" fill-opacity="1" /><path clip-path="url(#clip780)" d="M124.07 1138.03 Q120.459 1138.03 118.631 1141.6 Q116.825 1145.14 116.825 1152.27 Q116.825 1159.38 118.631 1162.94 Q120.459 1166.48 124.07 1166.48 Q127.705 1166.48 129.51 1162.94 Q131.339 1159.38 131.339 1152.27 Q131.339 1145.14 129.51 1141.6 Q127.705 1138.03 124.07 1138.03 M124.07 1134.33 Q129.881 1134.33 132.936 1138.94 Q136.015 1143.52 136.015 1152.27 Q136.015 1161 132.936 1165.6 Q129.881 1170.19 124.07 1170.19 Q118.26 1170.19 115.182 1165.6 Q112.126 1161 112.126 1152.27 Q112.126 1143.52 115.182 1138.94 Q118.26 1134.33 124.07 1134.33 Z" fill="#000000" fill-rule="nonzero" fill-opacity="1" /><path clip-path="url(#clip780)" d="M64.3254 992.3 Q61.1773 992.3 59.3254 994.453 Q57.4967 996.606 57.4967 1000.36 Q57.4967 1004.08 59.3254 1006.26 Q61.1773 1008.41 64.3254 1008.41 Q67.4735 1008.41 69.3022 1006.26 Q71.1541 1004.08 71.1541 1000.36 Q71.1541 996.606 69.3022 994.453 Q67.4735 992.3 64.3254 992.3 M73.6077 977.648 L73.6077 981.907 Q71.8485 981.073 70.0429 980.634 Q68.2606 980.194 66.5013 980.194 Q61.8717 980.194 59.418 983.319 Q56.9875 986.444 56.6402 992.763 Q58.006 990.749 60.0662 989.684 Q62.1263 988.597 64.6032 988.597 Q69.8115 988.597 72.8207 991.768 Q75.8531 994.916 75.8531 1000.36 Q75.8531 1005.68 72.705 1008.9 Q69.5568 1012.11 64.3254 1012.11 Q58.33 1012.11 55.1588 1007.53 Q51.9875 1002.93 51.9875 994.198 Q51.9875 986.004 55.8764 981.143 Q59.7652 976.259 66.3161 976.259 Q68.0754 976.259 69.8578 976.606 Q71.6633 976.953 73.6077 977.648 Z" fill="#000000" fill-rule="nonzero" fill-opacity="1" /><path clip-path="url(#clip780)" d="M93.9086 979.962 Q90.2975 979.962 88.4688 983.527 Q86.6632 987.069 86.6632 994.198 Q86.6632 1001.3 88.4688 1004.87 Q90.2975 1008.41 93.9086 1008.41 Q97.5428 1008.41 99.3483 1004.87 Q101.177 1001.3 101.177 994.198 Q101.177 987.069 99.3483 983.527 Q97.5428 979.962 93.9086 979.962 M93.9086 976.259 Q99.7187 976.259 102.774 980.865 Q105.853 985.448 105.853 994.198 Q105.853 1002.93 102.774 1007.53 Q99.7187 1012.11 93.9086 1012.11 Q88.0984 1012.11 85.0197 1007.53 Q81.9642 1002.93 81.9642 994.198 Q81.9642 985.448 85.0197 980.865 Q88.0984 976.259 93.9086 976.259 Z" fill="#000000" fill-rule="nonzero" fill-opacity="1" /><path clip-path="url(#clip780)" d="M124.07 979.962 Q120.459 979.962 118.631 983.527 Q116.825 987.069 116.825 994.198 Q116.825 1001.3 118.631 1004.87 Q120.459 1008.41 124.07 1008.41 Q127.705 1008.41 129.51 1004.87 Q131.339 1001.3 131.339 994.198 Q131.339 987.069 129.51 983.527 Q127.705 979.962 124.07 979.962 M124.07 976.259 Q129.881 976.259 132.936 980.865 Q136.015 985.448 136.015 994.198 Q136.015 1002.93 132.936 1007.53 Q129.881 1012.11 124.07 1012.11 Q118.26 1012.11 115.182 1007.53 Q112.126 1002.93 112.126 994.198 Q112.126 985.448 115.182 980.865 Q118.26 976.259 124.07 976.259 Z" fill="#000000" fill-rule="nonzero" fill-opacity="1" /><path clip-path="url(#clip783)" d="M233.734 1467.77 L391.988 1467.9 L550.242 1468.01 L708.496 1468.09 L866.75 1468.16 L1025 1468.21 L1183.26 1468.25 L1341.51 1468.28 L1499.77 1468.3 L1658.02 1468.32 L1816.27 1468.33 L1974.53 1468.34 L2132.78 1468.35 L2291.04 1468.36 L2291.04 1064.3 L2132.78 1052.35 L1974.53 1039.08 L1816.27 1028.41 L1658.02 1018.15 L1499.77 1006.82 L1341.51 997.314 L1183.26 989.747 L1025 982.69 L866.75 982.489 L708.496 996.209 L550.242 1055.59 L391.988 1322.01 L233.734 1456.01  Z" fill="#009af9" fill-rule="evenodd" fill-opacity="0.5"/>
<polyline clip-path="url(#clip783)" style="stroke:#009af9; stroke-linecap:round; stroke-linejoin:round; stroke-width:4; stroke-opacity:1; fill:none" points="233.734,1466.39 391.988,1463.42 550.242,1456.16 708.496,1439.16 866.75,1403.22 1025,1350.04 1183.26,1328.45 1341.51,1332.09 1499.77,1344.3 1658.02,1358.34 1816.27,1372.22 1974.53,1385.33 2132.78,1396.87 2291.04,1407.13 "/>
<polyline clip-path="url(#clip783)" style="stroke:#ff0000; stroke-linecap:round; stroke-linejoin:round; stroke-width:4; stroke-opacity:1; fill:none" stroke-dasharray="16, 10" points="-2008.73,865.335 4533.5,865.335 "/>
</svg>
