<?xml version="1.0" encoding="utf-8"?>
<svg xmlns="http://www.w3.org/2000/svg" xmlns:xlink="http://www.w3.org/1999/xlink" width="600" height="400" viewBox="0 0 2400 1600">
<defs>
  <clipPath id="clip490">
    <rect x="0" y="0" width="2400" height="1600"/>
  </clipPath>
</defs>
<path clip-path="url(#clip490)" d="M0 1600 L2400 1600 L2400 0 L0 0  Z" fill="#ffffff" fill-rule="evenodd" fill-opacity="1"/>
<defs>
  <clipPath id="clip491">
    <rect x="480" y="0" width="1681" height="1600"/>
  </clipPath>
</defs>
<path clip-path="url(#clip490)" d="M47.2441 272.756 L1152.76 272.756 L1152.76 47.2441 L47.2441 47.2441  Z" fill="#ffffff" fill-rule="evenodd" fill-opacity="1"/>
<defs>
  <clipPath id="clip492">
    <rect x="47" y="47" width="1107" height="227"/>
  </clipPath>
</defs>
<polyline clip-path="url(#clip492)" style="stroke:#009af9; stroke-linecap:round; stroke-linejoin:round; stroke-width:4; stroke-opacity:1; fill:none" points="78.5322,266.373 83.773,266.37 89.0139,266.364 94.2548,266.354 99.4957,266.34 104.737,266.323 109.977,266.301 115.218,266.275 120.459,266.244 125.7,266.208 130.941,266.165 136.182,266.116 141.423,266.059 146.664,265.994 151.905,265.92 157.145,265.836 162.386,265.74 167.627,265.631 172.868,265.508 178.109,265.369 183.35,265.213 188.591,265.037 193.832,264.841 199.072,264.62 204.313,264.374 209.554,264.1 214.795,263.795 220.036,263.455 225.277,263.079 230.518,262.663 235.759,262.203 241,261.695 246.24,261.137 251.481,260.523 256.722,259.85 261.963,259.113 267.204,258.308 272.445,257.429 277.686,256.473 282.927,255.434 288.167,254.307 293.408,253.087 298.649,251.769 303.89,250.348 309.131,248.818 314.372,247.174 319.613,245.412 324.854,243.526 330.095,241.513 335.335,239.366 340.576,237.083 345.817,234.659 351.058,232.092 356.299,229.377 361.54,226.513 366.781,223.497 372.022,220.329 377.262,217.007 382.503,213.532 387.744,209.904 392.985,206.126 398.226,202.199 403.467,198.128 408.708,193.916 413.949,189.569 419.19,185.094 424.43,180.497 429.671,175.788 434.912,170.975 440.153,166.069 445.394,161.081 450.635,156.025 455.876,150.913 461.117,145.759 466.357,140.579 471.598,135.39 476.839,130.206 482.08,125.047 487.321,119.929 492.562,114.871 497.803,109.892 503.044,105.01 508.285,100.245 513.525,95.6156 518.766,91.1409 524.007,86.8396 529.248,82.7298 534.489,78.8295 539.73,75.1558 544.971,71.7251 550.212,68.5529 555.452,65.6538 560.693,63.0412 565.934,60.7273 571.175,58.723 576.416,57.0379 581.657,55.6799 586.898,54.6557 592.139,53.9701 597.38,53.6265 602.62,53.6265 607.861,53.9701 613.102,54.6557 618.343,55.6799 623.584,57.0379 628.825,58.723 634.066,60.7273 639.307,63.0412 644.548,65.6538 649.788,68.5529 655.029,71.7251 660.27,75.1558 665.511,78.8295 670.752,82.7298 675.993,86.8396 681.234,91.1409 686.475,95.6156 691.715,100.245 696.956,105.01 702.197,109.892 707.438,114.871 712.679,119.929 717.92,125.047 723.161,130.206 728.402,135.39 733.643,140.579 738.883,145.759 744.124,150.913 749.365,156.025 754.606,161.081 759.847,166.069 765.088,170.975 770.329,175.788 775.57,180.497 780.81,185.094 786.051,189.569 791.292,193.916 796.533,198.128 801.774,202.199 807.015,206.126 812.256,209.904 817.497,213.532 822.738,217.007 827.978,220.329 833.219,223.497 838.46,226.513 843.701,229.377 848.942,232.092 854.183,234.659 859.424,237.083 864.665,239.366 869.905,241.513 875.146,243.526 880.387,245.412 885.628,247.174 890.869,248.818 896.11,250.348 901.351,251.769 906.592,253.087 911.833,254.307 917.073,255.434 922.314,256.473 927.555,257.429 932.796,258.308 938.037,259.113 943.278,259.85 948.519,260.523 953.76,261.137 959,261.695 964.241,262.203 969.482,262.663 974.723,263.079 979.964,263.455 985.205,263.795 990.446,264.1 995.687,264.374 1000.93,264.62 1006.17,264.841 1011.41,265.037 1016.65,265.213 1021.89,265.369 1027.13,265.508 1032.37,265.631 1037.61,265.74 1042.85,265.836 1048.1,265.92 1053.34,265.994 1058.58,266.059 1063.82,266.116 1069.06,266.165 1074.3,266.208 1079.54,266.244 1084.78,266.275 1090.02,266.301 1095.26,266.323 1100.5,266.34 1105.75,266.354 1110.99,266.364 1116.23,266.37 1121.47,266.373 "/>
<polyline clip-path="url(#clip492)" style="stroke:#e26f46; stroke-linecap:round; stroke-linejoin:round; stroke-width:4; stroke-opacity:1; fill:none" points="600,498.268 600,-178.268 "/>
<path clip-path="url(#clip490)" d="M1247.24 272.756 L2352.76 272.756 L2352.76 47.2441 L1247.24 47.2441  Z" fill="#ffffff" fill-rule="evenodd" fill-opacity="1"/>
<defs>
  <clipPath id="clip493">
    <rect x="1247" y="47" width="1107" height="227"/>
  </clipPath>
</defs>
<polyline clip-path="url(#clip493)" style="stroke:#009af9; stroke-linecap:round; stroke-linejoin:round; stroke-width:4; stroke-opacity:1; fill:none" points="1278.53,266.291 1283.77,266.143 1289.01,265.772 1294.25,264.912 1299.5,263.072 1304.74,259.437 1309.98,252.821 1315.22,241.753 1320.46,224.782 1325.7,201.044 1330.94,170.956 1336.18,136.794 1341.42,102.758 1346.66,74.292 1351.9,56.7197 1357.15,53.6265 1362.39,65.6711 1367.63,90.3563 1372.87,122.873 1378.11,157.622 1383.35,189.764 1388.59,216.212 1393.83,235.846 1399.07,249.106 1404.31,257.296 1409.55,261.939 1414.8,264.36 1420.04,265.524 1425.28,266.04 1430.52,266.252 1435.76,266.332 1441,266.361 1446.24,266.37 1451.48,266.372 1456.72,266.373 1461.96,266.373 1467.2,266.373 1472.44,266.373 1477.69,266.373 1482.93,266.373 1488.17,266.373 1493.41,266.373 1498.65,266.373 1503.89,266.373 1509.13,266.373 1514.37,266.373 1519.61,266.373 1524.85,266.373 1530.09,266.373 1535.34,266.373 1540.58,266.373 1545.82,266.373 1551.06,266.373 1556.3,266.373 1561.54,266.373 1566.78,266.373 1572.02,266.373 1577.26,266.373 1582.5,266.373 1587.74,266.373 1592.99,266.373 1598.23,266.373 1603.47,266.373 1608.71,266.373 1613.95,266.373 1619.19,266.373 1624.43,266.373 1629.67,266.373 1634.91,266.373 1640.15,266.373 1645.39,266.373 1650.63,266.373 1655.88,266.373 1661.12,266.373 1666.36,266.373 1671.6,266.373 1676.84,266.373 1682.08,266.373 1687.32,266.373 1692.56,266.373 1697.8,266.373 1703.04,266.373 1708.28,266.373 1713.53,266.373 1718.77,266.373 1724.01,266.373 1729.25,266.373 1734.49,266.373 1739.73,266.373 1744.97,266.373 1750.21,266.373 1755.45,266.373 1760.69,266.373 1765.93,266.373 1771.18,266.373 1776.42,266.373 1781.66,266.373 1786.9,266.373 1792.14,266.373 1797.38,266.373 1802.62,266.373 1807.86,266.373 1813.1,266.373 1818.34,266.373 1823.58,266.373 1828.82,266.373 1834.07,266.373 1839.31,266.373 1844.55,266.373 1849.79,266.373 1855.03,266.373 1860.27,266.373 1865.51,266.373 1870.75,266.373 1875.99,266.373 1881.23,266.373 1886.47,266.373 1891.72,266.373 1896.96,266.373 1902.2,266.373 1907.44,266.373 1912.68,266.373 1917.92,266.373 1923.16,266.373 1928.4,266.373 1933.64,266.373 1938.88,266.373 1944.12,266.373 1949.37,266.373 1954.61,266.373 1959.85,266.373 1965.09,266.373 1970.33,266.373 1975.57,266.373 1980.81,266.373 1986.05,266.373 1991.29,266.373 1996.53,266.373 2001.77,266.373 2007.01,266.373 2012.26,266.373 2017.5,266.373 2022.74,266.373 2027.98,266.373 2033.22,266.373 2038.46,266.373 2043.7,266.373 2048.94,266.373 2054.18,266.373 2059.42,266.373 2064.66,266.373 2069.91,266.373 2075.15,266.373 2080.39,266.373 2085.63,266.373 2090.87,266.373 2096.11,266.373 2101.35,266.373 2106.59,266.373 2111.83,266.373 2117.07,266.373 2122.31,266.373 2127.56,266.373 2132.8,266.373 2138.04,266.373 2143.28,266.373 2148.52,266.373 2153.76,266.373 2159,266.373 2164.24,266.373 2169.48,266.371 2174.72,266.368 2179.96,266.359 2185.2,266.34 2190.45,266.3 2195.69,266.224 2200.93,266.088 2206.17,265.869 2211.41,265.545 2216.65,265.108 2221.89,264.577 2227.13,264.003 2232.37,263.466 2237.61,263.058 2242.85,262.859 2248.1,262.91 2253.34,263.201 2258.58,263.671 2263.82,264.233 2269.06,264.797 2274.3,265.294 2279.54,265.686 2284.78,265.967 2290.02,266.15 2295.26,266.259 2300.5,266.319 2305.75,266.349 2310.99,266.361 2316.23,266.361 2321.47,266.345 "/>
<polyline clip-path="url(#clip493)" style="stroke:#e26f46; stroke-linecap:round; stroke-linejoin:round; stroke-width:4; stroke-opacity:1; fill:none" points="1355.56,498.268 1355.56,-178.268 "/>
<path clip-path="url(#clip490)" d="M47.2441 592.756 L1152.76 592.756 L1152.76 367.244 L47.2441 367.244  Z" fill="#ffffff" fill-rule="evenodd" fill-opacity="1"/>
<defs>
  <clipPath id="clip494">
    <rect x="47" y="367" width="1107" height="227"/>
  </clipPath>
</defs>
<polyline clip-path="url(#clip494)" style="stroke:#009af9; stroke-linecap:round; stroke-linejoin:round; stroke-width:4; stroke-opacity:1; fill:none" points="78.5322,586.294 83.773,586.193 89.0139,585.977 94.2548,585.542 99.4957,584.708 104.737,583.192 109.977,580.568 115.218,576.262 120.459,569.559 125.7,559.678 130.941,545.91 136.182,527.818 141.423,505.473 146.664,479.66 151.905,451.982 157.145,424.785 162.386,400.876 167.627,383.065 172.868,373.627 178.109,373.823 183.35,383.627 188.591,401.729 193.832,425.823 199.072,453.089 204.313,480.732 209.554,506.43 214.795,528.614 220.036,546.531 225.277,560.134 230.518,569.875 235.759,576.469 241,580.697 246.24,583.267 251.481,584.751 256.722,585.564 261.963,585.988 267.204,586.198 272.445,586.297 277.686,586.342 282.927,586.361 288.167,586.369 293.408,586.372 298.649,586.373 303.89,586.373 309.131,586.373 314.372,586.373 319.613,586.373 324.854,586.373 330.095,586.373 335.335,586.373 340.576,586.373 345.817,586.373 351.058,586.373 356.299,586.373 361.54,586.373 366.781,586.373 372.022,586.373 377.262,586.373 382.503,586.373 387.744,586.373 392.985,586.373 398.226,586.373 403.467,586.373 408.708,586.373 413.949,586.373 419.19,586.373 424.43,586.373 429.671,586.373 434.912,586.373 440.153,586.373 445.394,586.373 450.635,586.373 455.876,586.373 461.117,586.373 466.357,586.373 471.598,586.373 476.839,586.373 482.08,586.373 487.321,586.373 492.562,586.373 497.803,586.373 503.044,586.373 508.285,586.373 513.525,586.373 518.766,586.373 524.007,586.373 529.248,586.373 534.489,586.373 539.73,586.373 544.971,586.373 550.212,586.373 555.452,586.373 560.693,586.373 565.934,586.373 571.175,586.373 576.416,586.373 581.657,586.373 586.898,586.373 592.139,586.373 597.38,586.373 602.62,586.373 607.861,586.373 613.102,586.373 618.343,586.373 623.584,586.373 628.825,586.373 634.066,586.373 639.307,586.373 644.548,586.373 649.788,586.373 655.029,586.373 660.27,586.373 665.511,586.373 670.752,586.373 675.993,586.373 681.234,586.373 686.475,586.373 691.715,586.373 696.956,586.373 702.197,586.373 707.438,586.373 712.679,586.373 717.92,586.373 723.161,586.373 728.402,586.373 733.643,586.373 738.883,586.373 744.124,586.373 749.365,586.373 754.606,586.373 759.847,586.373 765.088,586.373 770.329,586.373 775.57,586.373 780.81,586.373 786.051,586.373 791.292,586.373 796.533,586.373 801.774,586.373 807.015,586.373 812.256,586.373 817.497,586.373 822.738,586.373 827.978,586.373 833.219,586.373 838.46,586.373 843.701,586.373 848.942,586.373 854.183,586.373 859.424,586.373 864.665,586.373 869.905,586.373 875.146,586.373 880.387,586.373 885.628,586.373 890.869,586.373 896.11,586.373 901.351,586.373 906.592,586.373 911.833,586.373 917.073,586.373 922.314,586.373 927.555,586.371 932.796,586.368 938.037,586.362 943.278,586.35 948.519,586.326 953.76,586.282 959,586.207 964.241,586.083 969.482,585.889 974.723,585.604 979.964,585.205 985.205,584.679 990.446,584.028 995.687,583.274 1000.93,582.463 1006.17,581.664 1011.41,580.957 1016.65,580.426 1021.89,580.138 1027.13,580.132 1032.37,580.409 1037.61,580.932 1042.85,581.633 1048.1,582.431 1053.34,583.243 1058.58,584 1063.82,584.656 1069.06,585.186 1074.3,585.59 1079.54,585.88 1084.78,586.077 1090.02,586.203 1095.26,586.28 1100.5,586.324 1105.75,586.347 1110.99,586.357 1116.23,586.355 1121.47,586.339 "/>
<polyline clip-path="url(#clip494)" style="stroke:#e26f46; stroke-linecap:round; stroke-linejoin:round; stroke-width:4; stroke-opacity:1; fill:none" points="175.385,818.268 175.385,141.732 "/>
<path clip-path="url(#clip490)" d="M1247.24 592.756 L2352.76 592.756 L2352.76 367.244 L1247.24 367.244  Z" fill="#ffffff" fill-rule="evenodd" fill-opacity="1"/>
<defs>
  <clipPath id="clip495">
    <rect x="1247" y="367" width="1107" height="227"/>
  </clipPath>
</defs>
<polyline clip-path="url(#clip495)" style="stroke:#009af9; stroke-linecap:round; stroke-linejoin:round; stroke-width:4; stroke-opacity:1; fill:none" points="1278.53,586.296 1283.77,586.071 1289.01,585.334 1294.25,583.235 1299.5,578.042 1304.74,566.927 1309.98,546.454 1315.22,514.299 1320.46,471.903 1325.7,426.429 1330.94,389.735 1336.18,373.627 1341.42,383.782 1346.66,416.541 1351.9,461.019 1357.15,504.891 1362.39,539.721 1367.63,562.841 1372.87,575.913 1378.11,582.275 1383.35,584.958 1388.59,585.943 1393.83,586.258 1399.07,586.346 1404.31,586.368 1409.55,586.372 1414.8,586.373 1420.04,586.373 1425.28,586.373 1430.52,586.373 1435.76,586.373 1441,586.373 1446.24,586.373 1451.48,586.373 1456.72,586.373 1461.96,586.373 1467.2,586.373 1472.44,586.373 1477.69,586.373 1482.93,586.373 1488.17,586.373 1493.41,586.373 1498.65,586.373 1503.89,586.373 1509.13,586.373 1514.37,586.373 1519.61,586.373 1524.85,586.373 1530.09,586.373 1535.34,586.373 1540.58,586.373 1545.82,586.373 1551.06,586.373 1556.3,586.373 1561.54,586.373 1566.78,586.373 1572.02,586.373 1577.26,586.373 1582.5,586.373 1587.74,586.373 1592.99,586.373 1598.23,586.373 1603.47,586.373 1608.71,586.373 1613.95,586.373 1619.19,586.373 1624.43,586.373 1629.67,586.373 1634.91,586.373 1640.15,586.373 1645.39,586.373 1650.63,586.373 1655.88,586.373 1661.12,586.373 1666.36,586.373 1671.6,586.373 1676.84,586.373 1682.08,586.373 1687.32,586.373 1692.56,586.373 1697.8,586.373 1703.04,586.373 1708.28,586.373 1713.53,586.373 1718.77,586.373 1724.01,586.373 1729.25,586.373 1734.49,586.373 1739.73,586.373 1744.97,586.373 1750.21,586.373 1755.45,586.373 1760.69,586.373 1765.93,586.373 1771.18,586.373 1776.42,586.373 1781.66,586.373 1786.9,586.373 1792.14,586.373 1797.38,586.373 1802.62,586.373 1807.86,586.373 1813.1,586.373 1818.34,586.373 1823.58,586.373 1828.82,586.373 1834.07,586.373 1839.31,586.373 1844.55,586.373 1849.79,586.373 1855.03,586.373 1860.27,586.373 1865.51,586.373 1870.75,586.373 1875.99,586.373 1881.23,586.373 1886.47,586.373 1891.72,586.373 1896.96,586.373 1902.2,586.373 1907.44,586.373 1912.68,586.373 1917.92,586.373 1923.16,586.373 1928.4,586.373 1933.64,586.373 1938.88,586.373 1944.12,586.373 1949.37,586.373 1954.61,586.373 1959.85,586.373 1965.09,586.373 1970.33,586.373 1975.57,586.373 1980.81,586.373 1986.05,586.373 1991.29,586.373 1996.53,586.373 2001.77,586.373 2007.01,586.373 2012.26,586.373 2017.5,586.373 2022.74,586.373 2027.98,586.373 2033.22,586.373 2038.46,586.373 2043.7,586.373 2048.94,586.373 2054.18,586.373 2059.42,586.373 2064.66,586.373 2069.91,586.373 2075.15,586.373 2080.39,586.373 2085.63,586.373 2090.87,586.373 2096.11,586.373 2101.35,586.373 2106.59,586.373 2111.83,586.373 2117.07,586.373 2122.31,586.373 2127.56,586.373 2132.8,586.373 2138.04,586.373 2143.28,586.373 2148.52,586.373 2153.76,586.373 2159,586.373 2164.24,586.373 2169.48,586.373 2174.72,586.373 2179.96,586.373 2185.2,586.373 2190.45,586.373 2195.69,586.373 2200.93,586.373 2206.17,586.373 2211.41,586.37 2216.65,586.361 2221.89,586.338 2227.13,586.284 2232.37,586.172 2237.61,585.974 2242.85,585.675 2248.1,585.299 2253.34,584.918 2258.58,584.637 2263.82,584.55 2269.06,584.688 2274.3,585.002 2279.54,585.392 2284.78,585.756 2290.02,586.031 2295.26,586.207 2300.5,586.302 2305.75,586.346 2310.99,586.364 2316.23,586.367 2321.47,586.355 "/>
<polyline clip-path="url(#clip495)" style="stroke:#e26f46; stroke-linecap:round; stroke-linejoin:round; stroke-width:4; stroke-opacity:1; fill:none" points="1336.82,818.268 1336.82,141.732 "/>
<path clip-path="url(#clip490)" d="M47.2441 912.756 L1152.76 912.756 L1152.76 687.244 L47.2441 687.244  Z" fill="#ffffff" fill-rule="evenodd" fill-opacity="1"/>
<defs>
  <clipPath id="clip496">
    <rect x="47" y="687" width="1107" height="227"/>
  </clipPath>
</defs>
<polyline clip-path="url(#clip496)" style="stroke:#009af9; stroke-linecap:round; stroke-linejoin:round; stroke-width:4; stroke-opacity:1; fill:none" points="78.5322,906.373 83.773,906.37 89.0139,906.364 94.2548,906.354 99.4957,906.34 104.737,906.323 109.977,906.301 115.218,906.275 120.459,906.244 125.7,906.208 130.941,906.165 136.182,906.116 141.423,906.059 146.664,905.994 151.905,905.92 157.145,905.836 162.386,905.74 167.627,905.631 172.868,905.508 178.109,905.369 183.35,905.213 188.591,905.037 193.832,904.841 199.072,904.62 204.313,904.374 209.554,904.1 214.795,903.795 220.036,903.455 225.277,903.079 230.518,902.663 235.759,902.203 241,901.695 246.24,901.137 251.481,900.523 256.722,899.85 261.963,899.113 267.204,898.308 272.445,897.429 277.686,896.473 282.927,895.434 288.167,894.307 293.408,893.087 298.649,891.769 303.89,890.348 309.131,888.818 314.372,887.174 319.613,885.412 324.854,883.526 330.095,881.513 335.335,879.366 340.576,877.083 345.817,874.659 351.058,872.092 356.299,869.377 361.54,866.513 366.781,863.497 372.022,860.329 377.262,857.007 382.503,853.532 387.744,849.904 392.985,846.126 398.226,842.199 403.467,838.128 408.708,833.916 413.949,829.569 419.19,825.094 424.43,820.497 429.671,815.788 434.912,810.975 440.153,806.069 445.394,801.081 450.635,796.025 455.876,790.913 461.117,785.759 466.357,780.579 471.598,775.39 476.839,770.206 482.08,765.047 487.321,759.929 492.562,754.871 497.803,749.892 503.044,745.01 508.285,740.245 513.525,735.616 518.766,731.141 524.007,726.84 529.248,722.73 534.489,718.83 539.73,715.156 544.971,711.725 550.212,708.553 555.452,705.654 560.693,703.041 565.934,700.727 571.175,698.723 576.416,697.038 581.657,695.68 586.898,694.656 592.139,693.97 597.38,693.627 602.62,693.627 607.861,693.97 613.102,694.656 618.343,695.68 623.584,697.038 628.825,698.723 634.066,700.727 639.307,703.041 644.548,705.654 649.788,708.553 655.029,711.725 660.27,715.156 665.511,718.83 670.752,722.73 675.993,726.84 681.234,731.141 686.475,735.616 691.715,740.245 696.956,745.01 702.197,749.892 707.438,754.871 712.679,759.929 717.92,765.047 723.161,770.206 728.402,775.39 733.643,780.579 738.883,785.759 744.124,790.913 749.365,796.025 754.606,801.081 759.847,806.069 765.088,810.975 770.329,815.788 775.57,820.497 780.81,825.094 786.051,829.569 791.292,833.916 796.533,838.128 801.774,842.199 807.015,846.126 812.256,849.904 817.497,853.532 822.738,857.007 827.978,860.329 833.219,863.497 838.46,866.513 843.701,869.377 848.942,872.092 854.183,874.659 859.424,877.083 864.665,879.366 869.905,881.513 875.146,883.526 880.387,885.412 885.628,887.174 890.869,888.818 896.11,890.348 901.351,891.769 906.592,893.087 911.833,894.307 917.073,895.434 922.314,896.473 927.555,897.429 932.796,898.308 938.037,899.113 943.278,899.85 948.519,900.523 953.76,901.137 959,901.695 964.241,902.203 969.482,902.663 974.723,903.079 979.964,903.455 985.205,903.795 990.446,904.1 995.687,904.374 1000.93,904.62 1006.17,904.841 1011.41,905.037 1016.65,905.213 1021.89,905.369 1027.13,905.508 1032.37,905.631 1037.61,905.74 1042.85,905.836 1048.1,905.92 1053.34,905.994 1058.58,906.059 1063.82,906.116 1069.06,906.165 1074.3,906.208 1079.54,906.244 1084.78,906.275 1090.02,906.301 1095.26,906.323 1100.5,906.34 1105.75,906.354 1110.99,906.364 1116.23,906.37 1121.47,906.373 "/>
<polyline clip-path="url(#clip496)" style="stroke:#e26f46; stroke-linecap:round; stroke-linejoin:round; stroke-width:4; stroke-opacity:1; fill:none" points="600,1138.27 600,461.732 "/>
<path clip-path="url(#clip490)" d="M1247.24 912.756 L2352.76 912.756 L2352.76 687.244 L1247.24 687.244  Z" fill="#ffffff" fill-rule="evenodd" fill-opacity="1"/>
<defs>
  <clipPath id="clip497">
    <rect x="1247" y="687" width="1107" height="227"/>
  </clipPath>
</defs>
<polyline clip-path="url(#clip497)" style="stroke:#009af9; stroke-linecap:round; stroke-linejoin:round; stroke-width:4; stroke-opacity:1; fill:none" points="1278.53,906.373 1283.77,906.37 1289.01,906.364 1294.25,906.354 1299.5,906.34 1304.74,906.323 1309.98,906.301 1315.22,906.275 1320.46,906.244 1325.7,906.208 1330.94,906.165 1336.18,906.116 1341.42,906.059 1346.66,905.994 1351.9,905.92 1357.15,905.836 1362.39,905.74 1367.63,905.631 1372.87,905.508 1378.11,905.369 1383.35,905.213 1388.59,905.037 1393.83,904.841 1399.07,904.62 1404.31,904.374 1409.55,904.1 1414.8,903.795 1420.04,903.455 1425.28,903.079 1430.52,902.663 1435.76,902.203 1441,901.695 1446.24,901.137 1451.48,900.523 1456.72,899.85 1461.96,899.113 1467.2,898.308 1472.44,897.429 1477.69,896.473 1482.93,895.434 1488.17,894.307 1493.41,893.087 1498.65,891.769 1503.89,890.348 1509.13,888.818 1514.37,887.174 1519.61,885.412 1524.85,883.526 1530.09,881.513 1535.34,879.366 1540.58,877.083 1545.82,874.659 1551.06,872.092 1556.3,869.377 1561.54,866.513 1566.78,863.497 1572.02,860.329 1577.26,857.007 1582.5,853.532 1587.74,849.904 1592.99,846.126 1598.23,842.199 1603.47,838.128 1608.71,833.916 1613.95,829.569 1619.19,825.094 1624.43,820.497 1629.67,815.788 1634.91,810.975 1640.15,806.069 1645.39,801.081 1650.63,796.025 1655.88,790.913 1661.12,785.759 1666.36,780.579 1671.6,775.39 1676.84,770.206 1682.08,765.047 1687.32,759.929 1692.56,754.871 1697.8,749.892 1703.04,745.01 1708.28,740.245 1713.53,735.616 1718.77,731.141 1724.01,726.84 1729.25,722.73 1734.49,718.83 1739.73,715.156 1744.97,711.725 1750.21,708.553 1755.45,705.654 1760.69,703.041 1765.93,700.727 1771.18,698.723 1776.42,697.038 1781.66,695.68 1786.9,694.656 1792.14,693.97 1797.38,693.627 1802.62,693.627 1807.86,693.97 1813.1,694.656 1818.34,695.68 1823.58,697.038 1828.82,698.723 1834.07,700.727 1839.31,703.041 1844.55,705.654 1849.79,708.553 1855.03,711.725 1860.27,715.156 1865.51,718.83 1870.75,722.73 1875.99,726.84 1881.23,731.141 1886.47,735.616 1891.72,740.245 1896.96,745.01 1902.2,749.892 1907.44,754.871 1912.68,759.929 1917.92,765.047 1923.16,770.206 1928.4,775.39 1933.64,780.579 1938.88,785.759 1944.12,790.913 1949.37,796.025 1954.61,801.081 1959.85,806.069 1965.09,810.975 1970.33,815.788 1975.57,820.497 1980.81,825.094 1986.05,829.569 1991.29,833.916 1996.53,838.128 2001.77,842.199 2007.01,846.126 2012.26,849.904 2017.5,853.532 2022.74,857.007 2027.98,860.329 2033.22,863.497 2038.46,866.513 2043.7,869.377 2048.94,872.092 2054.18,874.659 2059.42,877.083 2064.66,879.366 2069.91,881.513 2075.15,883.526 2080.39,885.412 2085.63,887.174 2090.87,888.818 2096.11,890.348 2101.35,891.769 2106.59,893.087 2111.83,894.307 2117.07,895.434 2122.31,896.473 2127.56,897.429 2132.8,898.308 2138.04,899.113 2143.28,899.85 2148.52,900.523 2153.76,901.137 2159,901.695 2164.24,902.203 2169.48,902.663 2174.72,903.079 2179.96,903.455 2185.2,903.795 2190.45,904.1 2195.69,904.374 2200.93,904.62 2206.17,904.841 2211.41,905.037 2216.65,905.213 2221.89,905.369 2227.13,905.508 2232.37,905.631 2237.61,905.74 2242.85,905.836 2248.1,905.92 2253.34,905.994 2258.58,906.059 2263.82,906.116 2269.06,906.165 2274.3,906.208 2279.54,906.244 2284.78,906.275 2290.02,906.301 2295.26,906.323 2300.5,906.34 2305.75,906.354 2310.99,906.364 2316.23,906.37 2321.47,906.373 "/>
<polyline clip-path="url(#clip497)" style="stroke:#e26f46; stroke-linecap:round; stroke-linejoin:round; stroke-width:4; stroke-opacity:1; fill:none" points="1800,1138.27 1800,461.732 "/>
<path clip-path="url(#clip490)" d="M47.2441 1232.76 L1152.76 1232.76 L1152.76 1007.24 L47.2441 1007.24  Z" fill="#ffffff" fill-rule="evenodd" fill-opacity="1"/>
<defs>
  <clipPath id="clip498">
    <rect x="47" y="1007" width="1107" height="227"/>
  </clipPath>
</defs>
<polyline clip-path="url(#clip498)" style="stroke:#009af9; stroke-linecap:round; stroke-linejoin:round; stroke-width:4; stroke-opacity:1; fill:none" points="78.5322,1226.3 83.773,1226.37 89.0139,1226.3 94.2548,1226.28 99.4957,1226.13 104.737,1226.24 109.977,1226.31 115.218,1226.37 120.459,1226.36 125.7,1226.37 130.941,1226.36 136.182,1226.37 141.423,1226.37 146.664,1226.37 151.905,1226.37 157.145,1226.37 162.386,1226.37 167.627,1226.37 172.868,1226.37 178.109,1226.37 183.35,1226.37 188.591,1226.37 193.832,1226.37 199.072,1226.37 204.313,1226.37 209.554,1226.37 214.795,1226.37 220.036,1226.37 225.277,1226.37 230.518,1226.37 235.759,1226.37 241,1226.37 246.24,1226.37 251.481,1226.37 256.722,1226.37 261.963,1226.37 267.204,1226.37 272.445,1226.37 277.686,1226.37 282.927,1226.37 288.167,1226.37 293.408,1226.37 298.649,1226.37 303.89,1226.37 309.131,1226.37 314.372,1226.37 319.613,1226.37 324.854,1226.37 330.095,1226.37 335.335,1226.37 340.576,1226.37 345.817,1226.37 351.058,1226.37 356.299,1226.37 361.54,1226.37 366.781,1226.37 372.022,1226.37 377.262,1226.37 382.503,1226.37 387.744,1226.37 392.985,1226.37 398.226,1226.37 403.467,1226.37 408.708,1226.37 413.949,1226.37 419.19,1226.37 424.43,1226.37 429.671,1226.37 434.912,1226.37 440.153,1226.37 445.394,1226.37 450.635,1226.37 455.876,1226.37 461.117,1226.37 466.357,1226.37 471.598,1226.37 476.839,1226.37 482.08,1226.37 487.321,1226.37 492.562,1226.37 497.803,1226.37 503.044,1226.37 508.285,1226.37 513.525,1226.37 518.766,1226.37 524.007,1226.37 529.248,1226.37 534.489,1226.37 539.73,1226.37 544.971,1226.37 550.212,1226.37 555.452,1226.37 560.693,1226.37 565.934,1226.37 571.175,1226.37 576.416,1226.37 581.657,1226.37 586.898,1226.37 592.139,1226.37 597.38,1226.37 602.62,1226.37 607.861,1226.37 613.102,1226.37 618.343,1226.37 623.584,1226.37 628.825,1226.37 634.066,1226.37 639.307,1226.37 644.548,1226.37 649.788,1226.37 655.029,1226.37 660.27,1226.37 665.511,1226.37 670.752,1226.37 675.993,1226.37 681.234,1226.37 686.475,1226.37 691.715,1226.37 696.956,1226.37 702.197,1226.37 707.438,1226.37 712.679,1226.37 717.92,1226.37 723.161,1226.37 728.402,1226.37 733.643,1226.37 738.883,1226.37 744.124,1226.37 749.365,1226.37 754.606,1226.37 759.847,1226.37 765.088,1226.37 770.329,1226.37 775.57,1226.37 780.81,1226.37 786.051,1226.37 791.292,1226.37 796.533,1226.37 801.774,1226.37 807.015,1226.37 812.256,1226.37 817.497,1226.37 822.738,1226.37 827.978,1226.37 833.219,1226.37 838.46,1226.37 843.701,1226.37 848.942,1226.37 854.183,1226.37 859.424,1226.37 864.665,1226.37 869.905,1226.37 875.146,1226.37 880.387,1226.37 885.628,1226.37 890.869,1226.37 896.11,1226.37 901.351,1226.37 906.592,1226.37 911.833,1226.37 917.073,1226.37 922.314,1226.37 927.555,1226.37 932.796,1226.37 938.037,1226.37 943.278,1226.37 948.519,1226.37 953.76,1226.37 959,1226.37 964.241,1226.37 969.482,1226.37 974.723,1226.37 979.964,1226.37 985.205,1226.37 990.446,1226.37 995.687,1226.37 1000.93,1226.37 1006.17,1226.37 1011.41,1226.37 1016.65,1226.37 1021.89,1226.36 1027.13,1226.37 1032.37,1226.36 1037.61,1226.37 1042.85,1226.36 1048.1,1226.37 1053.34,1226.35 1058.58,1226.37 1063.82,1226.33 1069.06,1226.37 1074.3,1226.29 1079.54,1225.92 1084.78,1218.86 1090.02,1178.18 1095.26,1074.93 1100.5,1013.63 1105.75,1099.95 1110.99,1196.26 1116.23,1223.37 1121.47,1226.36 "/>
<polyline clip-path="url(#clip498)" style="stroke:#e26f46; stroke-linecap:round; stroke-linejoin:round; stroke-width:4; stroke-opacity:1; fill:none" points="1099.81,1458.27 1099.81,781.732 "/>
<path clip-path="url(#clip490)" d="M1247.24 1232.76 L2352.76 1232.76 L2352.76 1007.24 L1247.24 1007.24  Z" fill="#ffffff" fill-rule="evenodd" fill-opacity="1"/>
<defs>
  <clipPath id="clip499">
    <rect x="1247" y="1007" width="1107" height="227"/>
  </clipPath>
</defs>
<polyline clip-path="url(#clip499)" style="stroke:#009af9; stroke-linecap:round; stroke-linejoin:round; stroke-width:4; stroke-opacity:1; fill:none" points="1278.53,1226.37 1283.77,1226.37 1289.01,1226.36 1294.25,1226.35 1299.5,1226.34 1304.74,1226.32 1309.98,1226.3 1315.22,1226.28 1320.46,1226.24 1325.7,1226.21 1330.94,1226.17 1336.18,1226.12 1341.42,1226.06 1346.66,1225.99 1351.9,1225.92 1357.15,1225.84 1362.39,1225.74 1367.63,1225.63 1372.87,1225.51 1378.11,1225.37 1383.35,1225.21 1388.59,1225.04 1393.83,1224.84 1399.07,1224.62 1404.31,1224.37 1409.55,1224.1 1414.8,1223.79 1420.04,1223.46 1425.28,1223.08 1430.52,1222.66 1435.76,1222.2 1441,1221.7 1446.24,1221.14 1451.48,1220.52 1456.72,1219.85 1461.96,1219.11 1467.2,1218.31 1472.44,1217.43 1477.69,1216.47 1482.93,1215.43 1488.17,1214.31 1493.41,1213.09 1498.65,1211.77 1503.89,1210.35 1509.13,1208.82 1514.37,1207.17 1519.61,1205.41 1524.85,1203.53 1530.09,1201.51 1535.34,1199.37 1540.58,1197.08 1545.82,1194.66 1551.06,1192.09 1556.3,1189.38 1561.54,1186.51 1566.78,1183.5 1572.02,1180.33 1577.26,1177.01 1582.5,1173.53 1587.74,1169.9 1592.99,1166.13 1598.23,1162.2 1603.47,1158.13 1608.71,1153.92 1613.95,1149.57 1619.19,1145.09 1624.43,1140.5 1629.67,1135.79 1634.91,1130.97 1640.15,1126.07 1645.39,1121.08 1650.63,1116.02 1655.88,1110.91 1661.12,1105.76 1666.36,1100.58 1671.6,1095.39 1676.84,1090.21 1682.08,1085.05 1687.32,1079.93 1692.56,1074.87 1697.8,1069.89 1703.04,1065.01 1708.28,1060.24 1713.53,1055.62 1718.77,1051.14 1724.01,1046.84 1729.25,1042.73 1734.49,1038.83 1739.73,1035.16 1744.97,1031.73 1750.21,1028.55 1755.45,1025.65 1760.69,1023.04 1765.93,1020.73 1771.18,1018.72 1776.42,1017.04 1781.66,1015.68 1786.9,1014.66 1792.14,1013.97 1797.38,1013.63 1802.62,1013.63 1807.86,1013.97 1813.1,1014.66 1818.34,1015.68 1823.58,1017.04 1828.82,1018.72 1834.07,1020.73 1839.31,1023.04 1844.55,1025.65 1849.79,1028.55 1855.03,1031.73 1860.27,1035.16 1865.51,1038.83 1870.75,1042.73 1875.99,1046.84 1881.23,1051.14 1886.47,1055.62 1891.72,1060.24 1896.96,1065.01 1902.2,1069.89 1907.44,1074.87 1912.68,1079.93 1917.92,1085.05 1923.16,1090.21 1928.4,1095.39 1933.64,1100.58 1938.88,1105.76 1944.12,1110.91 1949.37,1116.02 1954.61,1121.08 1959.85,1126.07 1965.09,1130.97 1970.33,1135.79 1975.57,1140.5 1980.81,1145.09 1986.05,1149.57 1991.29,1153.92 1996.53,1158.13 2001.77,1162.2 2007.01,1166.13 2012.26,1169.9 2017.5,1173.53 2022.74,1177.01 2027.98,1180.33 2033.22,1183.5 2038.46,1186.51 2043.7,1189.38 2048.94,1192.09 2054.18,1194.66 2059.42,1197.08 2064.66,1199.37 2069.91,1201.51 2075.15,1203.53 2080.39,1205.41 2085.63,1207.17 2090.87,1208.82 2096.11,1210.35 2101.35,1211.77 2106.59,1213.09 2111.83,1214.31 2117.07,1215.43 2122.31,1216.47 2127.56,1217.43 2132.8,1218.31 2138.04,1219.11 2143.28,1219.85 2148.52,1220.52 2153.76,1221.14 2159,1221.7 2164.24,1222.2 2169.48,1222.66 2174.72,1223.08 2179.96,1223.46 2185.2,1223.79 2190.45,1224.1 2195.69,1224.37 2200.93,1224.62 2206.17,1224.84 2211.41,1225.04 2216.65,1225.21 2221.89,1225.37 2227.13,1225.51 2232.37,1225.63 2237.61,1225.74 2242.85,1225.84 2248.1,1225.92 2253.34,1225.99 2258.58,1226.06 2263.82,1226.12 2269.06,1226.17 2274.3,1226.21 2279.54,1226.24 2284.78,1226.28 2290.02,1226.3 2295.26,1226.32 2300.5,1226.34 2305.75,1226.35 2310.99,1226.36 2316.23,1226.37 2321.47,1226.37 "/>
<polyline clip-path="url(#clip499)" style="stroke:#e26f46; stroke-linecap:round; stroke-linejoin:round; stroke-width:4; stroke-opacity:1; fill:none" points="1800,1458.27 1800,781.732 "/>
<path clip-path="url(#clip490)" d="M47.2441 1552.76 L1152.76 1552.76 L1152.76 1327.24 L47.2441 1327.24  Z" fill="#ffffff" fill-rule="evenodd" fill-opacity="1"/>
<defs>
  <clipPath id="clip4910">
    <rect x="47" y="1327" width="1107" height="227"/>
  </clipPath>
</defs>
<polyline clip-path="url(#clip4910)" style="stroke:#009af9; stroke-linecap:round; stroke-linejoin:round; stroke-width:4; stroke-opacity:1; fill:none" points="78.5322,1546.37 83.773,1546.37 89.0139,1546.36 94.2548,1546.35 99.4957,1546.34 104.737,1546.32 109.977,1546.3 115.218,1546.28 120.459,1546.24 125.7,1546.21 130.941,1546.17 136.182,1546.12 141.423,1546.06 146.664,1545.99 151.905,1545.92 157.145,1545.84 162.386,1545.74 167.627,1545.63 172.868,1545.51 178.109,1545.37 183.35,1545.21 188.591,1545.04 193.832,1544.84 199.072,1544.62 204.313,1544.37 209.554,1544.1 214.795,1543.79 220.036,1543.46 225.277,1543.08 230.518,1542.66 235.759,1542.2 241,1541.7 246.24,1541.14 251.481,1540.52 256.722,1539.85 261.963,1539.11 267.204,1538.31 272.445,1537.43 277.686,1536.47 282.927,1535.43 288.167,1534.31 293.408,1533.09 298.649,1531.77 303.89,1530.35 309.131,1528.82 314.372,1527.17 319.613,1525.41 324.854,1523.53 330.095,1521.51 335.335,1519.37 340.576,1517.08 345.817,1514.66 351.058,1512.09 356.299,1509.38 361.54,1506.51 366.781,1503.5 372.022,1500.33 377.262,1497.01 382.503,1493.53 387.744,1489.9 392.985,1486.13 398.226,1482.2 403.467,1478.13 408.708,1473.92 413.949,1469.57 419.19,1465.09 424.43,1460.5 429.671,1455.79 434.912,1450.97 440.153,1446.07 445.394,1441.08 450.635,1436.02 455.876,1430.91 461.117,1425.76 466.357,1420.58 471.598,1415.39 476.839,1410.21 482.08,1405.05 487.321,1399.93 492.562,1394.87 497.803,1389.89 503.044,1385.01 508.285,1380.24 513.525,1375.62 518.766,1371.14 524.007,1366.84 529.248,1362.73 534.489,1358.83 539.73,1355.16 544.971,1351.73 550.212,1348.55 555.452,1345.65 560.693,1343.04 565.934,1340.73 571.175,1338.72 576.416,1337.04 581.657,1335.68 586.898,1334.66 592.139,1333.97 597.38,1333.63 602.62,1333.63 607.861,1333.97 613.102,1334.66 618.343,1335.68 623.584,1337.04 628.825,1338.72 634.066,1340.73 639.307,1343.04 644.548,1345.65 649.788,1348.55 655.029,1351.73 660.27,1355.16 665.511,1358.83 670.752,1362.73 675.993,1366.84 681.234,1371.14 686.475,1375.62 691.715,1380.24 696.956,1385.01 702.197,1389.89 707.438,1394.87 712.679,1399.93 717.92,1405.05 723.161,1410.21 728.402,1415.39 733.643,1420.58 738.883,1425.76 744.124,1430.91 749.365,1436.02 754.606,1441.08 759.847,1446.07 765.088,1450.97 770.329,1455.79 775.57,1460.5 780.81,1465.09 786.051,1469.57 791.292,1473.92 796.533,1478.13 801.774,1482.2 807.015,1486.13 812.256,1489.9 817.497,1493.53 822.738,1497.01 827.978,1500.33 833.219,1503.5 838.46,1506.51 843.701,1509.38 848.942,1512.09 854.183,1514.66 859.424,1517.08 864.665,1519.37 869.905,1521.51 875.146,1523.53 880.387,1525.41 885.628,1527.17 890.869,1528.82 896.11,1530.35 901.351,1531.77 906.592,1533.09 911.833,1534.31 917.073,1535.43 922.314,1536.47 927.555,1537.43 932.796,1538.31 938.037,1539.11 943.278,1539.85 948.519,1540.52 953.76,1541.14 959,1541.7 964.241,1542.2 969.482,1542.66 974.723,1543.08 979.964,1543.46 985.205,1543.79 990.446,1544.1 995.687,1544.37 1000.93,1544.62 1006.17,1544.84 1011.41,1545.04 1016.65,1545.21 1021.89,1545.37 1027.13,1545.51 1032.37,1545.63 1037.61,1545.74 1042.85,1545.84 1048.1,1545.92 1053.34,1545.99 1058.58,1546.06 1063.82,1546.12 1069.06,1546.17 1074.3,1546.21 1079.54,1546.24 1084.78,1546.28 1090.02,1546.3 1095.26,1546.32 1100.5,1546.34 1105.75,1546.35 1110.99,1546.36 1116.23,1546.37 1121.47,1546.37 "/>
<polyline clip-path="url(#clip4910)" style="stroke:#e26f46; stroke-linecap:round; stroke-linejoin:round; stroke-width:4; stroke-opacity:1; fill:none" points="600,1778.27 600,1101.73 "/>
<path clip-path="url(#clip490)" d="M1247.24 1552.76 L2352.76 1552.76 L2352.76 1327.24 L1247.24 1327.24  Z" fill="#ffffff" fill-rule="evenodd" fill-opacity="1"/>
<defs>
  <clipPath id="clip4911">
    <rect x="1247" y="1327" width="1107" height="227"/>
  </clipPath>
</defs>
<polyline clip-path="url(#clip4911)" style="stroke:#009af9; stroke-linecap:round; stroke-linejoin:round; stroke-width:4; stroke-opacity:1; fill:none" points="1278.53,1546.35 1283.77,1546.37 1289.01,1546.36 1294.25,1546.34 1299.5,1546.28 1304.74,1546.15 1309.98,1545.94 1315.22,1545.63 1320.46,1545.31 1325.7,1545.08 1330.94,1545.04 1336.18,1545.2 1341.42,1545.5 1346.66,1545.82 1351.9,1546.08 1357.15,1546.24 1362.39,1546.32 1367.63,1546.36 1372.87,1546.37 1378.11,1546.37 1383.35,1546.37 1388.59,1546.37 1393.83,1546.37 1399.07,1546.37 1404.31,1546.37 1409.55,1546.37 1414.8,1546.37 1420.04,1546.37 1425.28,1546.37 1430.52,1546.37 1435.76,1546.37 1441,1546.37 1446.24,1546.37 1451.48,1546.37 1456.72,1546.37 1461.96,1546.37 1467.2,1546.37 1472.44,1546.37 1477.69,1546.37 1482.93,1546.37 1488.17,1546.37 1493.41,1546.37 1498.65,1546.37 1503.89,1546.37 1509.13,1546.37 1514.37,1546.37 1519.61,1546.37 1524.85,1546.37 1530.09,1546.37 1535.34,1546.37 1540.58,1546.37 1545.82,1546.37 1551.06,1546.37 1556.3,1546.37 1561.54,1546.37 1566.78,1546.37 1572.02,1546.37 1577.26,1546.37 1582.5,1546.37 1587.74,1546.37 1592.99,1546.37 1598.23,1546.37 1603.47,1546.37 1608.71,1546.37 1613.95,1546.37 1619.19,1546.37 1624.43,1546.37 1629.67,1546.37 1634.91,1546.37 1640.15,1546.37 1645.39,1546.37 1650.63,1546.37 1655.88,1546.37 1661.12,1546.37 1666.36,1546.37 1671.6,1546.37 1676.84,1546.37 1682.08,1546.37 1687.32,1546.37 1692.56,1546.37 1697.8,1546.37 1703.04,1546.37 1708.28,1546.37 1713.53,1546.37 1718.77,1546.37 1724.01,1546.37 1729.25,1546.37 1734.49,1546.37 1739.73,1546.37 1744.97,1546.37 1750.21,1546.37 1755.45,1546.37 1760.69,1546.37 1765.93,1546.37 1771.18,1546.37 1776.42,1546.37 1781.66,1546.37 1786.9,1546.37 1792.14,1546.37 1797.38,1546.37 1802.62,1546.37 1807.86,1546.37 1813.1,1546.37 1818.34,1546.37 1823.58,1546.37 1828.82,1546.37 1834.07,1546.37 1839.31,1546.37 1844.55,1546.37 1849.79,1546.37 1855.03,1546.37 1860.27,1546.37 1865.51,1546.37 1870.75,1546.37 1875.99,1546.37 1881.23,1546.37 1886.47,1546.37 1891.72,1546.37 1896.96,1546.37 1902.2,1546.37 1907.44,1546.37 1912.68,1546.37 1917.92,1546.37 1923.16,1546.37 1928.4,1546.37 1933.64,1546.37 1938.88,1546.37 1944.12,1546.37 1949.37,1546.37 1954.61,1546.37 1959.85,1546.37 1965.09,1546.37 1970.33,1546.37 1975.57,1546.37 1980.81,1546.37 1986.05,1546.37 1991.29,1546.37 1996.53,1546.37 2001.77,1546.37 2007.01,1546.37 2012.26,1546.37 2017.5,1546.37 2022.74,1546.37 2027.98,1546.37 2033.22,1546.37 2038.46,1546.37 2043.7,1546.37 2048.94,1546.37 2054.18,1546.37 2059.42,1546.37 2064.66,1546.37 2069.91,1546.37 2075.15,1546.37 2080.39,1546.37 2085.63,1546.37 2090.87,1546.37 2096.11,1546.37 2101.35,1546.37 2106.59,1546.37 2111.83,1546.37 2117.07,1546.37 2122.31,1546.37 2127.56,1546.37 2132.8,1546.37 2138.04,1546.37 2143.28,1546.37 2148.52,1546.37 2153.76,1546.37 2159,1546.37 2164.24,1546.37 2169.48,1546.37 2174.72,1546.37 2179.96,1546.37 2185.2,1546.37 2190.45,1546.37 2195.69,1546.37 2200.93,1546.37 2206.17,1546.37 2211.41,1546.37 2216.65,1546.34 2221.89,1546.2 2227.13,1545.64 2232.37,1543.72 2237.61,1538.19 2242.85,1525.06 2248.1,1499.35 2253.34,1458.51 2258.58,1407.23 2263.82,1359.56 2269.06,1333.63 2274.3,1340.78 2279.54,1377.7 2284.78,1428.85 2290.02,1476.81 2295.26,1511.39 2300.5,1531.42 2305.75,1540.94 2310.99,1544.7 2316.23,1545.93 2321.47,1546.28 "/>
<polyline clip-path="url(#clip4911)" style="stroke:#e26f46; stroke-linecap:round; stroke-linejoin:round; stroke-width:4; stroke-opacity:1; fill:none" points="2270.63,1778.27 2270.63,1101.73 "/>
</svg>
