<?xml version="1.0" encoding="utf-8"?>
<svg xmlns="http://www.w3.org/2000/svg" xmlns:xlink="http://www.w3.org/1999/xlink" width="500" height="300" viewBox="0 0 2000 1200">
<defs>
  <clipPath id="clip600">
    <rect x="0" y="0" width="2000" height="1200"/>
  </clipPath>
</defs>
<path clip-path="url(#clip600)" d="M0 1200 L2000 1200 L2000 0 L0 0  Z" fill="#ffffff" fill-rule="evenodd" fill-opacity="1"/>
<defs>
  <clipPath id="clip601">
    <rect x="400" y="0" width="1401" height="1200"/>
  </clipPath>
</defs>
<path clip-path="url(#clip600)" d="M182.274 1093.9 L1952.76 1093.9 L1952.76 117.424 L182.274 117.424  Z" fill="#ffffff" fill-rule="evenodd" fill-opacity="1"/>
<defs>
  <clipPath id="clip602">
    <rect x="182" y="117" width="1771" height="977"/>
  </clipPath>
</defs>
<polyline clip-path="url(#clip602)" style="stroke:#000000; stroke-linecap:round; stroke-linejoin:round; stroke-width:2; stroke-opacity:0.1; fill:none" points="232.382,1093.9 232.382,117.424 "/>
<polyline clip-path="url(#clip602)" style="stroke:#000000; stroke-linecap:round; stroke-linejoin:round; stroke-width:2; stroke-opacity:0.1; fill:none" points="597.17,1093.9 597.17,117.424 "/>
<polyline clip-path="url(#clip602)" style="stroke:#000000; stroke-linecap:round; stroke-linejoin:round; stroke-width:2; stroke-opacity:0.1; fill:none" points="961.958,1093.9 961.958,117.424 "/>
<polyline clip-path="url(#clip602)" style="stroke:#000000; stroke-linecap:round; stroke-linejoin:round; stroke-width:2; stroke-opacity:0.1; fill:none" points="1326.75,1093.9 1326.75,117.424 "/>
<polyline clip-path="url(#clip602)" style="stroke:#000000; stroke-linecap:round; stroke-linejoin:round; stroke-width:2; stroke-opacity:0.1; fill:none" points="1691.53,1093.9 1691.53,117.424 "/>
<polyline clip-path="url(#clip600)" style="stroke:#000000; stroke-linecap:round; stroke-linejoin:round; stroke-width:4; stroke-opacity:1; fill:none" points="182.274,1093.9 1952.76,1093.9 "/>
<polyline clip-path="url(#clip600)" style="stroke:#000000; stroke-linecap:round; stroke-linejoin:round; stroke-width:4; stroke-opacity:1; fill:none" points="232.382,1093.9 232.382,1075.01 "/>
<polyline clip-path="url(#clip600)" style="stroke:#000000; stroke-linecap:round; stroke-linejoin:round; stroke-width:4; stroke-opacity:1; fill:none" points="597.17,1093.9 597.17,1075.01 "/>
<polyline clip-path="url(#clip600)" style="stroke:#000000; stroke-linecap:round; stroke-linejoin:round; stroke-width:4; stroke-opacity:1; fill:none" points="961.958,1093.9 961.958,1075.01 "/>
<polyline clip-path="url(#clip600)" style="stroke:#000000; stroke-linecap:round; stroke-linejoin:round; stroke-width:4; stroke-opacity:1; fill:none" points="1326.75,1093.9 1326.75,1075.01 "/>
<polyline clip-path="url(#clip600)" style="stroke:#000000; stroke-linecap:round; stroke-linejoin:round; stroke-width:4; stroke-opacity:1; fill:none" points="1691.53,1093.9 1691.53,1075.01 "/>
<path clip-path="url(#clip600)" d="M209.766 1121.62 Q206.155 1121.62 204.327 1125.19 Q202.521 1128.73 202.521 1135.86 Q202.521 1142.97 204.327 1146.53 Q206.155 1150.07 209.766 1150.07 Q213.401 1150.07 215.206 1146.53 Q217.035 1142.97 217.035 1135.86 Q217.035 1128.73 215.206 1125.19 Q213.401 1121.62 209.766 1121.62 M209.766 1117.92 Q215.577 1117.92 218.632 1122.53 Q221.711 1127.11 221.711 1135.86 Q221.711 1144.59 218.632 1149.19 Q215.577 1153.78 209.766 1153.78 Q203.956 1153.78 200.878 1149.19 Q197.822 1144.59 197.822 1135.86 Q197.822 1127.11 200.878 1122.53 Q203.956 1117.92 209.766 1117.92 Z" fill="#000000" fill-rule="nonzero" fill-opacity="1" /><path clip-path="url(#clip600)" d="M229.928 1147.22 L234.813 1147.22 L234.813 1153.1 L229.928 1153.1 L229.928 1147.22 Z" fill="#000000" fill-rule="nonzero" fill-opacity="1" /><path clip-path="url(#clip600)" d="M254.998 1121.62 Q251.387 1121.62 249.558 1125.19 Q247.752 1128.73 247.752 1135.86 Q247.752 1142.97 249.558 1146.53 Q251.387 1150.07 254.998 1150.07 Q258.632 1150.07 260.437 1146.53 Q262.266 1142.97 262.266 1135.86 Q262.266 1128.73 260.437 1125.19 Q258.632 1121.62 254.998 1121.62 M254.998 1117.92 Q260.808 1117.92 263.863 1122.53 Q266.942 1127.11 266.942 1135.86 Q266.942 1144.59 263.863 1149.19 Q260.808 1153.78 254.998 1153.78 Q249.187 1153.78 246.109 1149.19 Q243.053 1144.59 243.053 1135.86 Q243.053 1127.11 246.109 1122.53 Q249.187 1117.92 254.998 1117.92 Z" fill="#000000" fill-rule="nonzero" fill-opacity="1" /><path clip-path="url(#clip600)" d="M575.052 1121.62 Q571.441 1121.62 569.612 1125.19 Q567.807 1128.73 567.807 1135.86 Q567.807 1142.97 569.612 1146.53 Q571.441 1150.07 575.052 1150.07 Q578.686 1150.07 580.492 1146.53 Q582.32 1142.97 582.32 1135.86 Q582.32 1128.73 580.492 1125.19 Q578.686 1121.62 575.052 1121.62 M575.052 1117.92 Q580.862 1117.92 583.918 1122.53 Q586.996 1127.11 586.996 1135.86 Q586.996 1144.59 583.918 1149.19 Q580.862 1153.78 575.052 1153.78 Q569.242 1153.78 566.163 1149.19 Q563.108 1144.59 563.108 1135.86 Q563.108 1127.11 566.163 1122.53 Q569.242 1117.92 575.052 1117.92 Z" fill="#000000" fill-rule="nonzero" fill-opacity="1" /><path clip-path="url(#clip600)" d="M595.214 1147.22 L600.098 1147.22 L600.098 1153.1 L595.214 1153.1 L595.214 1147.22 Z" fill="#000000" fill-rule="nonzero" fill-opacity="1" /><path clip-path="url(#clip600)" d="M610.33 1118.54 L628.686 1118.54 L628.686 1122.48 L614.612 1122.48 L614.612 1130.95 Q615.63 1130.6 616.649 1130.44 Q617.667 1130.26 618.686 1130.26 Q624.473 1130.26 627.853 1133.43 Q631.232 1136.6 631.232 1142.02 Q631.232 1147.59 627.76 1150.7 Q624.288 1153.78 617.968 1153.78 Q615.792 1153.78 613.524 1153.4 Q611.279 1153.03 608.871 1152.29 L608.871 1147.59 Q610.955 1148.73 613.177 1149.28 Q615.399 1149.84 617.876 1149.84 Q621.88 1149.84 624.218 1147.73 Q626.556 1145.63 626.556 1142.02 Q626.556 1138.4 624.218 1136.3 Q621.88 1134.19 617.876 1134.19 Q616.001 1134.19 614.126 1134.61 Q612.274 1135.03 610.33 1135.9 L610.33 1118.54 Z" fill="#000000" fill-rule="nonzero" fill-opacity="1" /><path clip-path="url(#clip600)" d="M929.111 1149.17 L936.75 1149.17 L936.75 1122.8 L928.439 1124.47 L928.439 1120.21 L936.703 1118.54 L941.379 1118.54 L941.379 1149.17 L949.018 1149.17 L949.018 1153.1 L929.111 1153.1 L929.111 1149.17 Z" fill="#000000" fill-rule="nonzero" fill-opacity="1" /><path clip-path="url(#clip600)" d="M958.462 1147.22 L963.347 1147.22 L963.347 1153.1 L958.462 1153.1 L958.462 1147.22 Z" fill="#000000" fill-rule="nonzero" fill-opacity="1" /><path clip-path="url(#clip600)" d="M983.532 1121.62 Q979.921 1121.62 978.092 1125.19 Q976.286 1128.73 976.286 1135.86 Q976.286 1142.97 978.092 1146.53 Q979.921 1150.07 983.532 1150.07 Q987.166 1150.07 988.971 1146.53 Q990.8 1142.97 990.8 1135.86 Q990.8 1128.73 988.971 1125.19 Q987.166 1121.62 983.532 1121.62 M983.532 1117.92 Q989.342 1117.92 992.397 1122.53 Q995.476 1127.11 995.476 1135.86 Q995.476 1144.59 992.397 1149.19 Q989.342 1153.78 983.532 1153.78 Q977.722 1153.78 974.643 1149.19 Q971.587 1144.59 971.587 1135.86 Q971.587 1127.11 974.643 1122.53 Q977.722 1117.92 983.532 1117.92 Z" fill="#000000" fill-rule="nonzero" fill-opacity="1" /><path clip-path="url(#clip600)" d="M1294.4 1149.17 L1302.04 1149.17 L1302.04 1122.8 L1293.72 1124.47 L1293.72 1120.21 L1301.99 1118.54 L1306.66 1118.54 L1306.66 1149.17 L1314.3 1149.17 L1314.3 1153.1 L1294.4 1153.1 L1294.4 1149.17 Z" fill="#000000" fill-rule="nonzero" fill-opacity="1" /><path clip-path="url(#clip600)" d="M1323.75 1147.22 L1328.63 1147.22 L1328.63 1153.1 L1323.75 1153.1 L1323.75 1147.22 Z" fill="#000000" fill-rule="nonzero" fill-opacity="1" /><path clip-path="url(#clip600)" d="M1338.86 1118.54 L1357.22 1118.54 L1357.22 1122.48 L1343.15 1122.48 L1343.15 1130.95 Q1344.16 1130.6 1345.18 1130.44 Q1346.2 1130.26 1347.22 1130.26 Q1353.01 1130.26 1356.39 1133.43 Q1359.77 1136.6 1359.77 1142.02 Q1359.77 1147.59 1356.29 1150.7 Q1352.82 1153.78 1346.5 1153.78 Q1344.33 1153.78 1342.06 1153.4 Q1339.81 1153.03 1337.41 1152.29 L1337.41 1147.59 Q1339.49 1148.73 1341.71 1149.28 Q1343.93 1149.84 1346.41 1149.84 Q1350.41 1149.84 1352.75 1147.73 Q1355.09 1145.63 1355.09 1142.02 Q1355.09 1138.4 1352.75 1136.3 Q1350.41 1134.19 1346.41 1134.19 Q1344.53 1134.19 1342.66 1134.61 Q1340.81 1135.03 1338.86 1135.9 L1338.86 1118.54 Z" fill="#000000" fill-rule="nonzero" fill-opacity="1" /><path clip-path="url(#clip600)" d="M1662.77 1149.17 L1679.09 1149.17 L1679.09 1153.1 L1657.15 1153.1 L1657.15 1149.17 Q1659.81 1146.41 1664.39 1141.78 Q1669 1137.13 1670.18 1135.79 Q1672.42 1133.27 1673.3 1131.53 Q1674.21 1129.77 1674.21 1128.08 Q1674.21 1125.33 1672.26 1123.59 Q1670.34 1121.85 1667.24 1121.85 Q1665.04 1121.85 1662.59 1122.62 Q1660.16 1123.38 1657.38 1124.93 L1657.38 1120.21 Q1660.2 1119.08 1662.66 1118.5 Q1665.11 1117.92 1667.15 1117.92 Q1672.52 1117.92 1675.71 1120.6 Q1678.91 1123.29 1678.91 1127.78 Q1678.91 1129.91 1678.1 1131.83 Q1677.31 1133.73 1675.2 1136.32 Q1674.62 1136.99 1671.52 1140.21 Q1668.42 1143.4 1662.77 1149.17 Z" fill="#000000" fill-rule="nonzero" fill-opacity="1" /><path clip-path="url(#clip600)" d="M1688.91 1147.22 L1693.79 1147.22 L1693.79 1153.1 L1688.91 1153.1 L1688.91 1147.22 Z" fill="#000000" fill-rule="nonzero" fill-opacity="1" /><path clip-path="url(#clip600)" d="M1713.98 1121.62 Q1710.36 1121.62 1708.54 1125.19 Q1706.73 1128.73 1706.73 1135.86 Q1706.73 1142.97 1708.54 1146.53 Q1710.36 1150.07 1713.98 1150.07 Q1717.61 1150.07 1719.42 1146.53 Q1721.24 1142.97 1721.24 1135.86 Q1721.24 1128.73 1719.42 1125.19 Q1717.61 1121.62 1713.98 1121.62 M1713.98 1117.92 Q1719.79 1117.92 1722.84 1122.53 Q1725.92 1127.11 1725.92 1135.86 Q1725.92 1144.59 1722.84 1149.19 Q1719.79 1153.78 1713.98 1153.78 Q1708.17 1153.78 1705.09 1149.19 Q1702.03 1144.59 1702.03 1135.86 Q1702.03 1127.11 1705.09 1122.53 Q1708.17 1117.92 1713.98 1117.92 Z" fill="#000000" fill-rule="nonzero" fill-opacity="1" /><polyline clip-path="url(#clip602)" style="stroke:#000000; stroke-linecap:round; stroke-linejoin:round; stroke-width:2; stroke-opacity:0.1; fill:none" points="182.274,1067 1952.76,1067 "/>
<polyline clip-path="url(#clip602)" style="stroke:#000000; stroke-linecap:round; stroke-linejoin:round; stroke-width:2; stroke-opacity:0.1; fill:none" points="182.274,839.328 1952.76,839.328 "/>
<polyline clip-path="url(#clip602)" style="stroke:#000000; stroke-linecap:round; stroke-linejoin:round; stroke-width:2; stroke-opacity:0.1; fill:none" points="182.274,611.656 1952.76,611.656 "/>
<polyline clip-path="url(#clip602)" style="stroke:#000000; stroke-linecap:round; stroke-linejoin:round; stroke-width:2; stroke-opacity:0.1; fill:none" points="182.274,383.985 1952.76,383.985 "/>
<polyline clip-path="url(#clip602)" style="stroke:#000000; stroke-linecap:round; stroke-linejoin:round; stroke-width:2; stroke-opacity:0.1; fill:none" points="182.274,156.313 1952.76,156.313 "/>
<polyline clip-path="url(#clip600)" style="stroke:#000000; stroke-linecap:round; stroke-linejoin:round; stroke-width:4; stroke-opacity:1; fill:none" points="182.274,1093.9 182.274,117.424 "/>
<polyline clip-path="url(#clip600)" style="stroke:#000000; stroke-linecap:round; stroke-linejoin:round; stroke-width:4; stroke-opacity:1; fill:none" points="182.274,1067 201.172,1067 "/>
<polyline clip-path="url(#clip600)" style="stroke:#000000; stroke-linecap:round; stroke-linejoin:round; stroke-width:4; stroke-opacity:1; fill:none" points="182.274,839.328 201.172,839.328 "/>
<polyline clip-path="url(#clip600)" style="stroke:#000000; stroke-linecap:round; stroke-linejoin:round; stroke-width:4; stroke-opacity:1; fill:none" points="182.274,611.656 201.172,611.656 "/>
<polyline clip-path="url(#clip600)" style="stroke:#000000; stroke-linecap:round; stroke-linejoin:round; stroke-width:4; stroke-opacity:1; fill:none" points="182.274,383.985 201.172,383.985 "/>
<polyline clip-path="url(#clip600)" style="stroke:#000000; stroke-linecap:round; stroke-linejoin:round; stroke-width:4; stroke-opacity:1; fill:none" points="182.274,156.313 201.172,156.313 "/>
<path clip-path="url(#clip600)" d="M64.9365 1052.8 Q61.3254 1052.8 59.4967 1056.36 Q57.6912 1059.9 57.6912 1067.03 Q57.6912 1074.14 59.4967 1077.7 Q61.3254 1081.25 64.9365 1081.25 Q68.5707 1081.25 70.3763 1077.7 Q72.205 1074.14 72.205 1067.03 Q72.205 1059.9 70.3763 1056.36 Q68.5707 1052.8 64.9365 1052.8 M64.9365 1049.09 Q70.7467 1049.09 73.8022 1053.7 Q76.8809 1058.28 76.8809 1067.03 Q76.8809 1075.76 73.8022 1080.37 Q70.7467 1084.95 64.9365 1084.95 Q59.1264 1084.95 56.0477 1080.37 Q52.9921 1075.76 52.9921 1067.03 Q52.9921 1058.28 56.0477 1053.7 Q59.1264 1049.09 64.9365 1049.09 Z" fill="#000000" fill-rule="nonzero" fill-opacity="1" /><path clip-path="url(#clip600)" d="M85.0984 1078.4 L89.9827 1078.4 L89.9827 1084.28 L85.0984 1084.28 L85.0984 1078.4 Z" fill="#000000" fill-rule="nonzero" fill-opacity="1" /><path clip-path="url(#clip600)" d="M110.168 1052.8 Q106.557 1052.8 104.728 1056.36 Q102.922 1059.9 102.922 1067.03 Q102.922 1074.14 104.728 1077.7 Q106.557 1081.25 110.168 1081.25 Q113.802 1081.25 115.608 1077.7 Q117.436 1074.14 117.436 1067.03 Q117.436 1059.9 115.608 1056.36 Q113.802 1052.8 110.168 1052.8 M110.168 1049.09 Q115.978 1049.09 119.033 1053.7 Q122.112 1058.28 122.112 1067.03 Q122.112 1075.76 119.033 1080.37 Q115.978 1084.95 110.168 1084.95 Q104.358 1084.95 101.279 1080.37 Q98.2234 1075.76 98.2234 1067.03 Q98.2234 1058.28 101.279 1053.7 Q104.358 1049.09 110.168 1049.09 Z" fill="#000000" fill-rule="nonzero" fill-opacity="1" /><path clip-path="url(#clip600)" d="M140.33 1052.8 Q136.719 1052.8 134.89 1056.36 Q133.084 1059.9 133.084 1067.03 Q133.084 1074.14 134.89 1077.7 Q136.719 1081.25 140.33 1081.25 Q143.964 1081.25 145.769 1077.7 Q147.598 1074.14 147.598 1067.03 Q147.598 1059.9 145.769 1056.36 Q143.964 1052.8 140.33 1052.8 M140.33 1049.09 Q146.14 1049.09 149.195 1053.7 Q152.274 1058.28 152.274 1067.03 Q152.274 1075.76 149.195 1080.37 Q146.14 1084.95 140.33 1084.95 Q134.519 1084.95 131.441 1080.37 Q128.385 1075.76 128.385 1067.03 Q128.385 1058.28 131.441 1053.7 Q134.519 1049.09 140.33 1049.09 Z" fill="#000000" fill-rule="nonzero" fill-opacity="1" /><path clip-path="url(#clip600)" d="M65.9319 825.126 Q62.3208 825.126 60.4921 828.691 Q58.6865 832.233 58.6865 839.362 Q58.6865 846.469 60.4921 850.034 Q62.3208 853.575 65.9319 853.575 Q69.5661 853.575 71.3717 850.034 Q73.2004 846.469 73.2004 839.362 Q73.2004 832.233 71.3717 828.691 Q69.5661 825.126 65.9319 825.126 M65.9319 821.423 Q71.742 821.423 74.7976 826.029 Q77.8763 830.612 77.8763 839.362 Q77.8763 848.089 74.7976 852.696 Q71.742 857.279 65.9319 857.279 Q60.1217 857.279 57.043 852.696 Q53.9875 848.089 53.9875 839.362 Q53.9875 830.612 57.043 826.029 Q60.1217 821.423 65.9319 821.423 Z" fill="#000000" fill-rule="nonzero" fill-opacity="1" /><path clip-path="url(#clip600)" d="M86.0938 850.728 L90.978 850.728 L90.978 856.608 L86.0938 856.608 L86.0938 850.728 Z" fill="#000000" fill-rule="nonzero" fill-opacity="1" /><path clip-path="url(#clip600)" d="M105.191 852.672 L121.51 852.672 L121.51 856.608 L99.566 856.608 L99.566 852.672 Q102.228 849.918 106.811 845.288 Q111.418 840.635 112.598 839.293 Q114.844 836.77 115.723 835.034 Q116.626 833.274 116.626 831.585 Q116.626 828.83 114.682 827.094 Q112.76 825.358 109.658 825.358 Q107.459 825.358 105.006 826.122 Q102.575 826.886 99.7974 828.436 L99.7974 823.714 Q102.621 822.58 105.075 822.001 Q107.529 821.423 109.566 821.423 Q114.936 821.423 118.131 824.108 Q121.325 826.793 121.325 831.284 Q121.325 833.413 120.515 835.335 Q119.728 837.233 117.621 839.825 Q117.043 840.497 113.941 843.714 Q110.839 846.909 105.191 852.672 Z" fill="#000000" fill-rule="nonzero" fill-opacity="1" /><path clip-path="url(#clip600)" d="M131.371 822.048 L149.728 822.048 L149.728 825.983 L135.654 825.983 L135.654 834.455 Q136.672 834.108 137.691 833.946 Q138.709 833.76 139.728 833.76 Q145.515 833.76 148.894 836.932 Q152.274 840.103 152.274 845.52 Q152.274 851.098 148.802 854.2 Q145.33 857.279 139.01 857.279 Q136.834 857.279 134.566 856.908 Q132.32 856.538 129.913 855.797 L129.913 851.098 Q131.996 852.233 134.219 852.788 Q136.441 853.344 138.918 853.344 Q142.922 853.344 145.26 851.237 Q147.598 849.131 147.598 845.52 Q147.598 841.909 145.26 839.802 Q142.922 837.696 138.918 837.696 Q137.043 837.696 135.168 838.112 Q133.316 838.529 131.371 839.409 L131.371 822.048 Z" fill="#000000" fill-rule="nonzero" fill-opacity="1" /><path clip-path="url(#clip600)" d="M64.9365 597.455 Q61.3254 597.455 59.4967 601.02 Q57.6912 604.561 57.6912 611.691 Q57.6912 618.797 59.4967 622.362 Q61.3254 625.904 64.9365 625.904 Q68.5707 625.904 70.3763 622.362 Q72.205 618.797 72.205 611.691 Q72.205 604.561 70.3763 601.02 Q68.5707 597.455 64.9365 597.455 M64.9365 593.751 Q70.7467 593.751 73.8022 598.358 Q76.8809 602.941 76.8809 611.691 Q76.8809 620.418 73.8022 625.024 Q70.7467 629.607 64.9365 629.607 Q59.1264 629.607 56.0477 625.024 Q52.9921 620.418 52.9921 611.691 Q52.9921 602.941 56.0477 598.358 Q59.1264 593.751 64.9365 593.751 Z" fill="#000000" fill-rule="nonzero" fill-opacity="1" /><path clip-path="url(#clip600)" d="M85.0984 623.057 L89.9827 623.057 L89.9827 628.936 L85.0984 628.936 L85.0984 623.057 Z" fill="#000000" fill-rule="nonzero" fill-opacity="1" /><path clip-path="url(#clip600)" d="M100.214 594.376 L118.57 594.376 L118.57 598.311 L104.496 598.311 L104.496 606.784 Q105.515 606.436 106.534 606.274 Q107.552 606.089 108.571 606.089 Q114.358 606.089 117.737 609.26 Q121.117 612.432 121.117 617.848 Q121.117 623.427 117.645 626.529 Q114.172 629.607 107.853 629.607 Q105.677 629.607 103.409 629.237 Q101.163 628.867 98.7558 628.126 L98.7558 623.427 Q100.839 624.561 103.061 625.117 Q105.284 625.672 107.76 625.672 Q111.765 625.672 114.103 623.566 Q116.441 621.459 116.441 617.848 Q116.441 614.237 114.103 612.131 Q111.765 610.024 107.76 610.024 Q105.885 610.024 104.01 610.441 Q102.159 610.858 100.214 611.737 L100.214 594.376 Z" fill="#000000" fill-rule="nonzero" fill-opacity="1" /><path clip-path="url(#clip600)" d="M140.33 597.455 Q136.719 597.455 134.89 601.02 Q133.084 604.561 133.084 611.691 Q133.084 618.797 134.89 622.362 Q136.719 625.904 140.33 625.904 Q143.964 625.904 145.769 622.362 Q147.598 618.797 147.598 611.691 Q147.598 604.561 145.769 601.02 Q143.964 597.455 140.33 597.455 M140.33 593.751 Q146.14 593.751 149.195 598.358 Q152.274 602.941 152.274 611.691 Q152.274 620.418 149.195 625.024 Q146.14 629.607 140.33 629.607 Q134.519 629.607 131.441 625.024 Q128.385 620.418 128.385 611.691 Q128.385 602.941 131.441 598.358 Q134.519 593.751 140.33 593.751 Z" fill="#000000" fill-rule="nonzero" fill-opacity="1" /><path clip-path="url(#clip600)" d="M65.9319 369.783 Q62.3208 369.783 60.4921 373.348 Q58.6865 376.89 58.6865 384.02 Q58.6865 391.126 60.4921 394.691 Q62.3208 398.232 65.9319 398.232 Q69.5661 398.232 71.3717 394.691 Q73.2004 391.126 73.2004 384.02 Q73.2004 376.89 71.3717 373.348 Q69.5661 369.783 65.9319 369.783 M65.9319 366.08 Q71.742 366.08 74.7976 370.686 Q77.8763 375.27 77.8763 384.02 Q77.8763 392.746 74.7976 397.353 Q71.742 401.936 65.9319 401.936 Q60.1217 401.936 57.043 397.353 Q53.9875 392.746 53.9875 384.02 Q53.9875 375.27 57.043 370.686 Q60.1217 366.08 65.9319 366.08 Z" fill="#000000" fill-rule="nonzero" fill-opacity="1" /><path clip-path="url(#clip600)" d="M86.0938 395.385 L90.978 395.385 L90.978 401.265 L86.0938 401.265 L86.0938 395.385 Z" fill="#000000" fill-rule="nonzero" fill-opacity="1" /><path clip-path="url(#clip600)" d="M99.9826 366.705 L122.205 366.705 L122.205 368.696 L109.658 401.265 L104.774 401.265 L116.58 370.64 L99.9826 370.64 L99.9826 366.705 Z" fill="#000000" fill-rule="nonzero" fill-opacity="1" /><path clip-path="url(#clip600)" d="M131.371 366.705 L149.728 366.705 L149.728 370.64 L135.654 370.64 L135.654 379.112 Q136.672 378.765 137.691 378.603 Q138.709 378.418 139.728 378.418 Q145.515 378.418 148.894 381.589 Q152.274 384.76 152.274 390.177 Q152.274 395.756 148.802 398.857 Q145.33 401.936 139.01 401.936 Q136.834 401.936 134.566 401.566 Q132.32 401.195 129.913 400.455 L129.913 395.756 Q131.996 396.89 134.219 397.445 Q136.441 398.001 138.918 398.001 Q142.922 398.001 145.26 395.894 Q147.598 393.788 147.598 390.177 Q147.598 386.566 145.26 384.459 Q142.922 382.353 138.918 382.353 Q137.043 382.353 135.168 382.77 Q133.316 383.186 131.371 384.066 L131.371 366.705 Z" fill="#000000" fill-rule="nonzero" fill-opacity="1" /><path clip-path="url(#clip600)" d="M55.7467 169.658 L63.3856 169.658 L63.3856 143.293 L55.0754 144.959 L55.0754 140.7 L63.3393 139.033 L68.0152 139.033 L68.0152 169.658 L75.654 169.658 L75.654 173.593 L55.7467 173.593 L55.7467 169.658 Z" fill="#000000" fill-rule="nonzero" fill-opacity="1" /><path clip-path="url(#clip600)" d="M85.0984 167.714 L89.9827 167.714 L89.9827 173.593 L85.0984 173.593 L85.0984 167.714 Z" fill="#000000" fill-rule="nonzero" fill-opacity="1" /><path clip-path="url(#clip600)" d="M110.168 142.112 Q106.557 142.112 104.728 145.677 Q102.922 149.219 102.922 156.348 Q102.922 163.455 104.728 167.019 Q106.557 170.561 110.168 170.561 Q113.802 170.561 115.608 167.019 Q117.436 163.455 117.436 156.348 Q117.436 149.219 115.608 145.677 Q113.802 142.112 110.168 142.112 M110.168 138.408 Q115.978 138.408 119.033 143.015 Q122.112 147.598 122.112 156.348 Q122.112 165.075 119.033 169.681 Q115.978 174.265 110.168 174.265 Q104.358 174.265 101.279 169.681 Q98.2234 165.075 98.2234 156.348 Q98.2234 147.598 101.279 143.015 Q104.358 138.408 110.168 138.408 Z" fill="#000000" fill-rule="nonzero" fill-opacity="1" /><path clip-path="url(#clip600)" d="M140.33 142.112 Q136.719 142.112 134.89 145.677 Q133.084 149.219 133.084 156.348 Q133.084 163.455 134.89 167.019 Q136.719 170.561 140.33 170.561 Q143.964 170.561 145.769 167.019 Q147.598 163.455 147.598 156.348 Q147.598 149.219 145.769 145.677 Q143.964 142.112 140.33 142.112 M140.33 138.408 Q146.14 138.408 149.195 143.015 Q152.274 147.598 152.274 156.348 Q152.274 165.075 149.195 169.681 Q146.14 174.265 140.33 174.265 Q134.519 174.265 131.441 169.681 Q128.385 165.075 128.385 156.348 Q128.385 147.598 131.441 143.015 Q134.519 138.408 140.33 138.408 Z" fill="#000000" fill-rule="nonzero" fill-opacity="1" /><path clip-path="url(#clip600)" d="M1058.18 34.3355 L1068.1 62.3677 L1082.28 27.2059 L1090.18 27.2059 L1071.83 72.576 L1071.83 89.8329 L1064.38 89.8329 L1064.38 72.576 L1052.47 38.7104 Q1050.68 33.6063 1046.84 33.6063 L1044.85 33.6063 L1044.85 27.2059 L1047.69 27.2059 Q1055.67 27.2059 1058.18 34.3355 Z" fill="#000000" fill-rule="nonzero" fill-opacity="1" /><polyline clip-path="url(#clip602)" style="stroke:#009af9; stroke-linecap:round; stroke-linejoin:round; stroke-width:4; stroke-opacity:1; fill:none" points="232.382,397.533 235.101,393.549 237.819,389.578 240.538,385.622 243.256,381.68 268.394,346.04 293.531,312.138 318.668,280.387 343.805,251.183 358.912,235.016 374.018,219.983 389.125,206.156 404.231,193.602 417.003,184.027 429.776,175.441 442.548,167.874 455.32,161.354 469.195,155.485 483.069,150.904 496.943,147.631 510.818,145.68 523.608,145.06 536.399,145.573 549.19,147.218 561.981,149.987 575.694,154.195 589.407,159.666 603.121,166.378 616.834,174.303 632.722,184.958 648.61,197.137 664.498,210.773 680.386,225.794 694.505,240.238 708.625,255.65 722.744,271.967 736.864,289.123 749.245,304.802 761.627,321.025 774.008,337.743 786.39,354.907 813.388,393.642 840.386,433.748 867.545,474.963 894.703,516.556 924.731,562.415 954.758,607.577 983.329,649.425 1011.9,689.781 1026.75,710.062 1041.61,729.812 1056.46,748.998 1071.31,767.588 1096.32,797.475 1121.33,825.516 1136.59,841.701 1151.86,857.168 1167.12,871.916 1182.39,885.944 1196.37,898.168 1210.35,909.797 1224.34,920.84 1238.32,931.308 1264.15,949.167 1289.98,965.187 1316.15,979.644 1342.31,992.432 1371.64,1004.93 1400.96,1015.67 1427.53,1024.03 1454.1,1031.22 1484.53,1038.17 1514.95,1043.93 1543.12,1048.35 1571.29,1052.02 1626.83,1057.43 1680.76,1060.95 1736.04,1063.3 1796.61,1064.9 1884.6,1066.12 1902.65,1066.27 "/>
</svg>
