<svg xmlns="http://www.w3.org/2000/svg" width="258.8215pt" height="124.61093pt" viewBox="-72 -72 258.8215 124.61093" style="position: absolute; top: 0pt; left: 0pt; overflow: visible;">
<g transform="translate(37.91458129882812,-15.164535522460934)">
<g stroke-miterlimit="10" transform="scale(1,-1)"><g stroke="#000" fill="#000">
 <g stroke-width="0.4">
 <g stroke="#000">
 <g stroke-width="0.8">
 <g stroke="#000">
 <g stroke-width="0.8">
 <path d=" M -109.78459 -67.10547 h 258.02151 v 91.53183 h -258.02151 Z  " fill="none"/>
 </g>
 </g>
 <g transform="translate(-99.78459,-21.33955)">
 <g stroke="none" transform="scale(-1.00375,1.00375)translate(41.24790954589843,-15.164535522460934)scale(-1,-1)"><g fill="#000">
 <g stroke="none"> </g> </g>
 </g></g>
 </g>
 </g>
 <g transform="translate(-106.65161,-51.22249)">
 <g stroke="none" transform="scale(-1.00375,1.00375)translate(41.24790954589843,-15.164535522460934)scale(-1,-1)"><g fill="#000">
 <g stroke="none"> <text alignment-baseline="baseline" y="-15.164535522460934" x="41.24790954589843" style="font-family: cmr9;" font-size="9">Conditionally</text>
<text alignment-baseline="baseline" y="-4.164535522460937" x="41.24790954589843" style="font-family: cmr9;" font-size="9">Analytic</text>
</g> </g>
 </g></g>
 <path d=" M -71.13187 42.67911 C -71.13187 50.53621 -77.50113 56.90547 -85.35823 56.90547 C -93.21533 56.90547 -99.5846 50.53621 -99.5846 42.67911 C -99.5846 34.822 -93.21533 28.45274 -85.35823 28.45274 C -77.50113 28.45274 -71.13187 34.822 -71.13187 42.67911 Z M -85.35823 42.67911  " fill="none"/>
 <g transform="translate(-91.74365,40.01244)">
 <g stroke="none" transform="scale(-1.00375,1.00375)translate(41.24790954589843,-15.164535522460934)scale(-1,-1)"><g fill="#000">
 <g stroke="none"> <text alignment-baseline="baseline" y="-15.164535522460934" x="41.24790954589843" style="font-family: cmmi10;" font-size="10">X</text>
<text alignment-baseline="baseline" y="-13.664550781249996" x="49.53264999389647" style="font-family: cmr7;" font-size="7">0</text>
</g> </g>
 </g></g>
 <path d=" M -14.22638 42.67911 C -14.22638 50.53621 -20.59564 56.90547 -28.45274 56.90547 C -36.30984 56.90547 -42.67911 50.53621 -42.67911 42.67911 C -42.67911 34.822 -36.30984 28.45274 -28.45274 28.45274 C -20.59564 28.45274 -14.22638 34.822 -14.22638 42.67911 Z M -28.45274 42.67911  " fill="none"/>
 <g transform="translate(-34.83817,40.01244)">
 <g stroke="none" transform="scale(-1.00375,1.00375)translate(41.24790954589843,-15.164535522460934)scale(-1,-1)"><g fill="#000">
 <g stroke="none"> <text alignment-baseline="baseline" y="-15.164535522460934" x="41.24790954589843" style="font-family: cmmi10;" font-size="10">X</text>
<text alignment-baseline="baseline" y="-13.664550781249996" x="49.53264999389647" style="font-family: cmr7;" font-size="7">1</text>
</g> </g>
 </g></g>
 <path d=" M 42.67911 42.67911 C 42.67911 50.53621 36.30984 56.90547 28.45274 56.90547 C 20.59564 56.90547 14.22638 50.53621 14.22638 42.67911 C 14.22638 34.822 20.59564 28.45274 28.45274 28.45274 C 36.30984 28.45274 42.67911 34.822 42.67911 42.67911 Z M 28.45274 42.67911  " fill="none"/>
 <g transform="translate(22.06732,40.01244)">
 <g stroke="none" transform="scale(-1.00375,1.00375)translate(41.24790954589843,-15.164535522460934)scale(-1,-1)"><g fill="#000">
 <g stroke="none"> <text alignment-baseline="baseline" y="-15.164535522460934" x="41.24790954589843" style="font-family: cmmi10;" font-size="10">X</text>
<text alignment-baseline="baseline" y="-13.664550781249996" x="49.53264999389647" style="font-family: cmr7;" font-size="7">2</text>
</g> </g>
 </g></g>
 <path d=" M 99.5846 42.67911 C 99.5846 50.53621 93.21533 56.90547 85.35823 56.90547 C 77.50113 56.90547 71.13187 50.53621 71.13187 42.67911 C 71.13187 34.822 77.50113 28.45274 85.35823 28.45274 C 93.21533 28.45274 99.5846 34.822 99.5846 42.67911 Z M 85.35823 42.67911  " fill="none"/>
 <g transform="translate(78.97281,40.01244)">
 <g stroke="none" transform="scale(-1.00375,1.00375)translate(41.24790954589843,-15.164535522460934)scale(-1,-1)"><g fill="#000">
 <g stroke="none"> <text alignment-baseline="baseline" y="-15.164535522460934" x="41.24790954589843" style="font-family: cmmi10;" font-size="10">X</text>
<text alignment-baseline="baseline" y="-13.664550781249996" x="49.53264999389647" style="font-family: cmr7;" font-size="7">3</text>
</g> </g>
 </g></g>
 <path d=" M -71.13187 0.0 C -71.13187 7.8571 -77.50113 14.22636 -85.35823 14.22636 C -93.21533 14.22636 -99.5846 7.8571 -99.5846 0.0 C -99.5846 -7.8571 -93.21533 -14.22636 -85.35823 -14.22636 C -77.50113 -14.22636 -71.13187 -7.8571 -71.13187 0.0 Z M -85.35823 0.0  " fill="none"/>
 <g transform="translate(-91.0145,-2.66667)">
 <g stroke="none" transform="scale(-1.00375,1.00375)translate(41.24790954589843,-15.164535522460934)scale(-1,-1)"><g fill="#000">
 <g stroke="none"> <text alignment-baseline="baseline" y="-15.164535522460934" x="41.24790954589843" style="font-family: cmmi10;" font-size="10">Z</text>
<text alignment-baseline="baseline" y="-13.664550781249996" x="48.07431030273436" style="font-family: cmr7;" font-size="7">0</text>
</g> </g>
 </g></g>
 <path d=" M -14.22638 0.0 C -14.22638 7.8571 -20.59564 14.22636 -28.45274 14.22636 C -36.30984 14.22636 -42.67911 7.8571 -42.67911 0.0 C -42.67911 -7.8571 -36.30984 -14.22636 -28.45274 -14.22636 C -20.59564 -14.22636 -14.22638 -7.8571 -14.22638 0.0 Z M -28.45274 0.0  " fill="none"/>
 <g transform="translate(-34.10901,-2.66667)">
 <g stroke="none" transform="scale(-1.00375,1.00375)translate(41.24790954589843,-15.164535522460934)scale(-1,-1)"><g fill="#000">
 <g stroke="none"> <text alignment-baseline="baseline" y="-15.164535522460934" x="41.24790954589843" style="font-family: cmmi10;" font-size="10">Z</text>
<text alignment-baseline="baseline" y="-13.664550781249996" x="48.07431030273436" style="font-family: cmr7;" font-size="7">1</text>
</g> </g>
 </g></g>
 <path d=" M 42.67911 0.0 C 42.67911 7.8571 36.30984 14.22636 28.45274 14.22636 C 20.59564 14.22636 14.22638 7.8571 14.22638 0.0 C 14.22638 -7.8571 20.59564 -14.22636 28.45274 -14.22636 C 36.30984 -14.22636 42.67911 -7.8571 42.67911 0.0 Z M 28.45274 0.0  " fill="none"/>
 <g transform="translate(22.79648,-2.66667)">
 <g stroke="none" transform="scale(-1.00375,1.00375)translate(41.24790954589843,-15.164535522460934)scale(-1,-1)"><g fill="#000">
 <g stroke="none"> <text alignment-baseline="baseline" y="-15.164535522460934" x="41.24790954589843" style="font-family: cmmi10;" font-size="10">Z</text>
<text alignment-baseline="baseline" y="-13.664550781249996" x="48.07431030273436" style="font-family: cmr7;" font-size="7">2</text>
</g> </g>
 </g></g>
 <path d=" M 99.5846 0.0 C 99.5846 7.8571 93.21533 14.22636 85.35823 14.22636 C 77.50113 14.22636 71.13187 7.8571 71.13187 0.0 C 71.13187 -7.8571 77.50113 -14.22636 85.35823 -14.22636 C 93.21533 -14.22636 99.5846 -7.8571 99.5846 0.0 Z M 85.35823 0.0  " fill="none"/>
 <g transform="translate(79.70197,-2.66667)">
 <g stroke="none" transform="scale(-1.00375,1.00375)translate(41.24790954589843,-15.164535522460934)scale(-1,-1)"><g fill="#000">
 <g stroke="none"> <text alignment-baseline="baseline" y="-15.164535522460934" x="41.24790954589843" style="font-family: cmmi10;" font-size="10">Z</text>
<text alignment-baseline="baseline" y="-13.664550781249996" x="48.07431030273436" style="font-family: cmr7;" font-size="7">3</text>
</g> </g>
 </g></g>
 <g fill="#e6e6e6">
 <g fill="#e6e6e6">
 <path d=" M -14.22638 -42.67911 C -14.22638 -34.822 -20.59564 -28.45274 -28.45274 -28.45274 C -36.30984 -28.45274 -42.67911 -34.822 -42.67911 -42.67911 C -42.67911 -50.53621 -36.30984 -56.90547 -28.45274 -56.90547 C -20.59564 -56.90547 -14.22638 -50.53621 -14.22638 -42.67911 Z M -28.45274 -42.67911  "/>
 </g>
 <g transform="translate(-33.59859,-45.34578)">
 <g stroke="none" transform="scale(-1.00375,1.00375)translate(41.24790954589843,-15.164535522460934)scale(-1,-1)"><g fill="#000">
 <g stroke="none"> <text alignment-baseline="baseline" y="-15.164535522460934" x="41.24790954589843" style="font-family: cmmi10;" font-size="10">Y</text>
<text alignment-baseline="baseline" y="-13.664550781249996" x="47.05347824096679" style="font-family: cmr7;" font-size="7">1</text>
</g> </g>
 </g></g>
 </g>
 <g fill="#e6e6e6">
 <g fill="#e6e6e6">
 <path d=" M 42.67911 -42.67911 C 42.67911 -34.822 36.30984 -28.45274 28.45274 -28.45274 C 20.59564 -28.45274 14.22638 -34.822 14.22638 -42.67911 C 14.22638 -50.53621 20.59564 -56.90547 28.45274 -56.90547 C 36.30984 -56.90547 42.67911 -50.53621 42.67911 -42.67911 Z M 28.45274 -42.67911  "/>
 </g>
 <g transform="translate(23.3069,-45.34578)">
 <g stroke="none" transform="scale(-1.00375,1.00375)translate(41.24790954589843,-15.164535522460934)scale(-1,-1)"><g fill="#000">
 <g stroke="none"> <text alignment-baseline="baseline" y="-15.164535522460934" x="41.24790954589843" style="font-family: cmmi10;" font-size="10">Y</text>
<text alignment-baseline="baseline" y="-13.664550781249996" x="47.05347824096679" style="font-family: cmr7;" font-size="7">2</text>
</g> </g>
 </g></g>
 </g>
 <g fill="#e6e6e6">
 <g fill="#e6e6e6">
 <path d=" M 99.5846 -42.67911 C 99.5846 -34.822 93.21533 -28.45274 85.35823 -28.45274 C 77.50113 -28.45274 71.13187 -34.822 71.13187 -42.67911 C 71.13187 -50.53621 77.50113 -56.90547 85.35823 -56.90547 C 93.21533 -56.90547 99.5846 -50.53621 99.5846 -42.67911 Z M 85.35823 -42.67911  "/>
 </g>
 <g transform="translate(80.21239,-45.34578)">
 <g stroke="none" transform="scale(-1.00375,1.00375)translate(41.24790954589843,-15.164535522460934)scale(-1,-1)"><g fill="#000">
 <g stroke="none"> <text alignment-baseline="baseline" y="-15.164535522460934" x="41.24790954589843" style="font-family: cmmi10;" font-size="10">Y</text>
<text alignment-baseline="baseline" y="-13.664550781249996" x="47.05347824096679" style="font-family: cmr7;" font-size="7">3</text>
</g> </g>
 </g></g>
 </g>
 <g stroke-width="0.8">
 <path d=" M -70.93187 42.67911 L -47.559 42.67911  " fill="none"/>
 <g transform="translate(-47.559,42.67911)">
 <path d=" M 4.6799 0.0 C 3.29324 0.26 1.03998 1.03998 -0.51999 1.94995 L -0.51999 -1.94995 C 1.03998 -1.03998 3.29324 -0.26 4.6799 0.0  " stroke="none"/>
  </g>
 </g>
 <g stroke-width="0.8">
 <path d=" M -14.02638 42.67911 L 9.34648 42.67911  " fill="none"/>
 <g transform="translate(9.34648,42.67911)">
 <path d=" M 4.6799 0.0 C 3.29324 0.26 1.03998 1.03998 -0.51999 1.94995 L -0.51999 -1.94995 C 1.03998 -1.03998 3.29324 -0.26 4.6799 0.0  " stroke="none"/>
  </g>
 </g>
 <g stroke-width="0.8">
 <path d=" M 42.8791 42.67911 L 66.25197 42.67911  " fill="none"/>
 <g transform="translate(66.25197,42.67911)">
 <path d=" M 4.6799 0.0 C 3.29324 0.26 1.03998 1.03998 -0.51999 1.94995 L -0.51999 -1.94995 C 1.03998 -1.03998 3.29324 -0.26 4.6799 0.0  " stroke="none"/>
  </g>
 </g>
 <g stroke-width="0.8">
 <path d=" M -70.93187 0.0 L -47.559 0.0  " fill="none"/>
 <g transform="translate(-47.559,0.0)">
 <path d=" M 4.6799 0.0 C 3.29324 0.26 1.03998 1.03998 -0.51999 1.94995 L -0.51999 -1.94995 C 1.03998 -1.03998 3.29324 -0.26 4.6799 0.0  " stroke="none"/>
  </g>
 </g>
 <g stroke-width="0.8">
 <path d=" M -14.02638 0.0 L 9.34648 0.0  " fill="none"/>
 <g transform="translate(9.34648,0.0)">
 <path d=" M 4.6799 0.0 C 3.29324 0.26 1.03998 1.03998 -0.51999 1.94995 L -0.51999 -1.94995 C 1.03998 -1.03998 3.29324 -0.26 4.6799 0.0  " stroke="none"/>
  </g>
 </g>
 <g stroke-width="0.8">
 <path d=" M 42.8791 0.0 L 66.25197 0.0  " fill="none"/>
 <g transform="translate(66.25197,0.0)">
 <path d=" M 4.6799 0.0 C 3.29324 0.26 1.03998 1.03998 -0.51999 1.94995 L -0.51999 -1.94995 C 1.03998 -1.03998 3.29324 -0.26 4.6799 0.0  " stroke="none"/>
  </g>
 </g>
 <g stroke-width="0.8">
 <path d=" M -85.35823 28.25275 L -85.35823 19.10626  " fill="none"/>
 <g transform="matrix(0.0,-1.0,1.0,0.0,-85.35823,19.10626)">
 <path d=" M 4.6799 0.0 C 3.29324 0.26 1.03998 1.03998 -0.51999 1.94995 L -0.51999 -1.94995 C 1.03998 -1.03998 3.29324 -0.26 4.6799 0.0  " stroke="none"/>
  </g>
 </g>
 <g stroke-width="0.8">
 <path d=" M -28.45274 28.25275 L -28.45274 19.10626  " fill="none"/>
 <g transform="matrix(0.0,-1.0,1.0,0.0,-28.45274,19.10626)">
 <path d=" M 4.6799 0.0 C 3.29324 0.26 1.03998 1.03998 -0.51999 1.94995 L -0.51999 -1.94995 C 1.03998 -1.03998 3.29324 -0.26 4.6799 0.0  " stroke="none"/>
  </g>
 </g>
 <g stroke-width="0.8">
 <path d=" M 28.45274 28.25275 L 28.45274 19.10626  " fill="none"/>
 <g transform="matrix(0.0,-1.0,1.0,0.0,28.45274,19.10626)">
 <path d=" M 4.6799 0.0 C 3.29324 0.26 1.03998 1.03998 -0.51999 1.94995 L -0.51999 -1.94995 C 1.03998 -1.03998 3.29324 -0.26 4.6799 0.0  " stroke="none"/>
  </g>
 </g>
 <g stroke-width="0.8">
 <path d=" M 85.35823 28.25275 L 85.35823 19.10626  " fill="none"/>
 <g transform="matrix(0.0,-1.0,1.0,0.0,85.35823,19.10626)">
 <path d=" M 4.6799 0.0 C 3.29324 0.26 1.03998 1.03998 -0.51999 1.94995 L -0.51999 -1.94995 C 1.03998 -1.03998 3.29324 -0.26 4.6799 0.0  " stroke="none"/>
  </g>
 </g>
 <g stroke-width="0.8">
 <path d=" M -28.45274 -14.42636 L -28.45274 -23.57285  " fill="none"/>
 <g transform="matrix(0.0,-1.0,1.0,0.0,-28.45274,-23.57285)">
 <path d=" M 4.6799 0.0 C 3.29324 0.26 1.03998 1.03998 -0.51999 1.94995 L -0.51999 -1.94995 C 1.03998 -1.03998 3.29324 -0.26 4.6799 0.0  " stroke="none"/>
  </g>
 </g>
 <g stroke-width="0.8">
 <path d=" M 28.45274 -14.42636 L 28.45274 -23.57285  " fill="none"/>
 <g transform="matrix(0.0,-1.0,1.0,0.0,28.45274,-23.57285)">
 <path d=" M 4.6799 0.0 C 3.29324 0.26 1.03998 1.03998 -0.51999 1.94995 L -0.51999 -1.94995 C 1.03998 -1.03998 3.29324 -0.26 4.6799 0.0  " stroke="none"/>
  </g>
 </g>
 <g stroke-width="0.8">
 <path d=" M 85.35823 -14.42636 L 85.35823 -23.57285  " fill="none"/>
 <g transform="matrix(0.0,-1.0,1.0,0.0,85.35823,-23.57285)">
 <path d=" M 4.6799 0.0 C 3.29324 0.26 1.03998 1.03998 -0.51999 1.94995 L -0.51999 -1.94995 C 1.03998 -1.03998 3.29324 -0.26 4.6799 0.0  " stroke="none"/>
  </g>
 </g>
 <g transform="translate(121.37073,40.4569)">
 <g stroke="none" transform="scale(-1.00375,1.00375)translate(41.24790954589843,-15.164535522460934)scale(-1,-1)"><g fill="#000">
 <g stroke="none"> <text alignment-baseline="baseline" y="-15.164535522460934" x="41.24790954589843" style="font-family: cmsy10;" font-size="10">·</text>
<text alignment-baseline="baseline" y="-15.164535522460934" x="45.69232177734374" style="font-family: cmsy10;" font-size="10">·</text>
<text alignment-baseline="baseline" y="-15.164535522460934" x="50.13673400878905" style="font-family: cmsy10;" font-size="10">·</text>
</g> </g>
 </g></g>
 <g stroke-width="0.8">
 <path d=" M 99.78459 42.67911 L 113.15785 42.67911  " fill="none"/>
 <g transform="translate(113.15785,42.67911)">
 <path d=" M 4.6799 0.0 C 3.29324 0.26 1.03998 1.03998 -0.51999 1.94995 L -0.51999 -1.94995 C 1.03998 -1.03998 3.29324 -0.26 4.6799 0.0  " stroke="none"/>
  </g>
 </g>
 <g transform="translate(121.37073,-2.22221)">
 <g stroke="none" transform="scale(-1.00375,1.00375)translate(41.24790954589843,-15.164535522460934)scale(-1,-1)"><g fill="#000">
 <g stroke="none"> <text alignment-baseline="baseline" y="-15.164535522460934" x="41.24790954589843" style="font-family: cmsy10;" font-size="10">·</text>
<text alignment-baseline="baseline" y="-15.164535522460934" x="45.69232177734374" style="font-family: cmsy10;" font-size="10">·</text>
<text alignment-baseline="baseline" y="-15.164535522460934" x="50.13673400878905" style="font-family: cmsy10;" font-size="10">·</text>
</g> </g>
 </g></g>
 <g stroke-width="0.8">
 <path d=" M 99.78459 0.0 L 113.15785 0.0  " fill="none"/>
 <g transform="translate(113.15785,0.0)">
 <path d=" M 4.6799 0.0 C 3.29324 0.26 1.03998 1.03998 -0.51999 1.94995 L -0.51999 -1.94995 C 1.03998 -1.03998 3.29324 -0.26 4.6799 0.0  " stroke="none"/>
  </g>
 </g>
 <g transform="translate(121.37073,-44.90132)">
 <g stroke="none" transform="scale(-1.00375,1.00375)translate(41.24790954589843,-15.164535522460934)scale(-1,-1)"><g fill="#000">
 <g stroke="none"> <text alignment-baseline="baseline" y="-15.164535522460934" x="41.24790954589843" style="font-family: cmsy10;" font-size="10">·</text>
<text alignment-baseline="baseline" y="-15.164535522460934" x="45.69232177734374" style="font-family: cmsy10;" font-size="10">·</text>
<text alignment-baseline="baseline" y="-15.164535522460934" x="50.13673400878905" style="font-family: cmsy10;" font-size="10">·</text>
</g> </g>
 </g></g>
 <g stroke-width="0.4">
 </g>
 </g>
 </g>
 </g></g></svg>