<svg xmlns="http://www.w3.org/2000/svg" xmlns:xlink="http://www.w3.org/1999/xlink" width="800" height="600" viewBox="0 0 3200 2400">
<defs>
  <clipPath id="clip250">
    <rect x="0" y="0" width="3200" height="2400"></rect>
  </clipPath>
</defs>
<path clip-path="url(#clip250)" d="M0 2400 L3200 2400 L3200 0 L0 0  Z" fill="#ffffff" fill-rule="evenodd" fill-opacity="1"></path>
<defs>
  <clipPath id="clip251">
    <rect x="640" y="0" width="2241" height="2241"></rect>
  </clipPath>
</defs>
<path clip-path="url(#clip250)" d="M405.214 2063.19 L3011.02 2063.19 L3011.02 272.764 L405.214 272.764  Z" fill="#ffffff" fill-rule="evenodd" fill-opacity="1"></path>
<defs>
  <clipPath id="clip252">
    <rect x="405" y="272" width="2607" height="1791"></rect>
  </clipPath>
</defs>
<polyline clip-path="url(#clip252)" style="stroke:#000000; stroke-linecap:round; stroke-linejoin:round; stroke-width:2; stroke-opacity:0.1; fill:none" points="466.878,2063.19 466.878,272.764 "></polyline>
<polyline clip-path="url(#clip252)" style="stroke:#000000; stroke-linecap:round; stroke-linejoin:round; stroke-width:2; stroke-opacity:0.1; fill:none" points="1071.18,2063.19 1071.18,272.764 "></polyline>
<polyline clip-path="url(#clip252)" style="stroke:#000000; stroke-linecap:round; stroke-linejoin:round; stroke-width:2; stroke-opacity:0.1; fill:none" points="1675.49,2063.19 1675.49,272.764 "></polyline>
<polyline clip-path="url(#clip252)" style="stroke:#000000; stroke-linecap:round; stroke-linejoin:round; stroke-width:2; stroke-opacity:0.1; fill:none" points="2279.79,2063.19 2279.79,272.764 "></polyline>
<polyline clip-path="url(#clip252)" style="stroke:#000000; stroke-linecap:round; stroke-linejoin:round; stroke-width:2; stroke-opacity:0.1; fill:none" points="2884.1,2063.19 2884.1,272.764 "></polyline>
<polyline clip-path="url(#clip252)" style="stroke:#000000; stroke-linecap:round; stroke-linejoin:round; stroke-width:2; stroke-opacity:0.1; fill:none" points="405.214,2063.19 3011.02,2063.19 "></polyline>
<polyline clip-path="url(#clip252)" style="stroke:#000000; stroke-linecap:round; stroke-linejoin:round; stroke-width:2; stroke-opacity:0.1; fill:none" points="405.214,1636.9 3011.02,1636.9 "></polyline>
<polyline clip-path="url(#clip252)" style="stroke:#000000; stroke-linecap:round; stroke-linejoin:round; stroke-width:2; stroke-opacity:0.1; fill:none" points="405.214,1210.61 3011.02,1210.61 "></polyline>
<polyline clip-path="url(#clip252)" style="stroke:#000000; stroke-linecap:round; stroke-linejoin:round; stroke-width:2; stroke-opacity:0.1; fill:none" points="405.214,784.314 3011.02,784.314 "></polyline>
<polyline clip-path="url(#clip252)" style="stroke:#000000; stroke-linecap:round; stroke-linejoin:round; stroke-width:2; stroke-opacity:0.1; fill:none" points="405.214,358.023 3011.02,358.023 "></polyline>
<polyline clip-path="url(#clip250)" style="stroke:#000000; stroke-linecap:round; stroke-linejoin:round; stroke-width:4; stroke-opacity:1; fill:none" points="405.214,2063.19 3011.02,2063.19 "></polyline>
<polyline clip-path="url(#clip250)" style="stroke:#000000; stroke-linecap:round; stroke-linejoin:round; stroke-width:4; stroke-opacity:1; fill:none" points="466.878,2063.19 466.878,2044.29 "></polyline>
<polyline clip-path="url(#clip250)" style="stroke:#000000; stroke-linecap:round; stroke-linejoin:round; stroke-width:4; stroke-opacity:1; fill:none" points="1071.18,2063.19 1071.18,2044.29 "></polyline>
<polyline clip-path="url(#clip250)" style="stroke:#000000; stroke-linecap:round; stroke-linejoin:round; stroke-width:4; stroke-opacity:1; fill:none" points="1675.49,2063.19 1675.49,2044.29 "></polyline>
<polyline clip-path="url(#clip250)" style="stroke:#000000; stroke-linecap:round; stroke-linejoin:round; stroke-width:4; stroke-opacity:1; fill:none" points="2279.79,2063.19 2279.79,2044.29 "></polyline>
<polyline clip-path="url(#clip250)" style="stroke:#000000; stroke-linecap:round; stroke-linejoin:round; stroke-width:4; stroke-opacity:1; fill:none" points="2884.1,2063.19 2884.1,2044.29 "></polyline>
<path clip-path="url(#clip250)" d="M466.878 2100.51 Q463.266 2100.51 461.438 2104.07 Q459.632 2107.61 459.632 2114.74 Q459.632 2121.85 461.438 2125.41 Q463.266 2128.96 466.878 2128.96 Q470.512 2128.96 472.317 2125.41 Q474.146 2121.85 474.146 2114.74 Q474.146 2107.61 472.317 2104.07 Q470.512 2100.51 466.878 2100.51 M466.878 2096.8 Q472.688 2096.8 475.743 2101.41 Q478.822 2105.99 478.822 2114.74 Q478.822 2123.47 475.743 2128.08 Q472.688 2132.66 466.878 2132.66 Q461.067 2132.66 457.989 2128.08 Q454.933 2123.47 454.933 2114.74 Q454.933 2105.99 457.989 2101.41 Q461.067 2096.8 466.878 2096.8 Z" fill="#000000" fill-rule="nonzero" fill-opacity="1"></path><path clip-path="url(#clip250)" d="M1034.87 2128.05 L1051.19 2128.05 L1051.19 2131.99 L1029.25 2131.99 L1029.25 2128.05 Q1031.91 2125.3 1036.49 2120.67 Q1041.1 2116.02 1042.28 2114.67 Q1044.53 2112.15 1045.41 2110.41 Q1046.31 2108.65 1046.31 2106.96 Q1046.31 2104.21 1044.37 2102.47 Q1042.44 2100.74 1039.34 2100.74 Q1037.14 2100.74 1034.69 2101.5 Q1032.26 2102.27 1029.48 2103.82 L1029.48 2099.09 Q1032.3 2097.96 1034.76 2097.38 Q1037.21 2096.8 1039.25 2096.8 Q1044.62 2096.8 1047.81 2099.49 Q1051.01 2102.17 1051.01 2106.66 Q1051.01 2108.79 1050.2 2110.71 Q1049.41 2112.61 1047.3 2115.21 Q1046.73 2115.88 1043.62 2119.09 Q1040.52 2122.29 1034.87 2128.05 Z" fill="#000000" fill-rule="nonzero" fill-opacity="1"></path><path clip-path="url(#clip250)" d="M1061.05 2097.43 L1079.41 2097.43 L1079.41 2101.36 L1065.34 2101.36 L1065.34 2109.83 Q1066.36 2109.49 1067.37 2109.33 Q1068.39 2109.14 1069.41 2109.14 Q1075.2 2109.14 1078.58 2112.31 Q1081.96 2115.48 1081.96 2120.9 Q1081.96 2126.48 1078.49 2129.58 Q1075.01 2132.66 1068.69 2132.66 Q1066.52 2132.66 1064.25 2132.29 Q1062 2131.92 1059.6 2131.18 L1059.6 2126.48 Q1061.68 2127.61 1063.9 2128.17 Q1066.12 2128.72 1068.6 2128.72 Q1072.61 2128.72 1074.94 2126.62 Q1077.28 2124.51 1077.28 2120.9 Q1077.28 2117.29 1074.94 2115.18 Q1072.61 2113.08 1068.6 2113.08 Q1066.73 2113.08 1064.85 2113.49 Q1063 2113.91 1061.05 2114.79 L1061.05 2097.43 Z" fill="#000000" fill-rule="nonzero" fill-opacity="1"></path><path clip-path="url(#clip250)" d="M1101.17 2100.51 Q1097.56 2100.51 1095.73 2104.07 Q1093.92 2107.61 1093.92 2114.74 Q1093.92 2121.85 1095.73 2125.41 Q1097.56 2128.96 1101.17 2128.96 Q1104.8 2128.96 1106.61 2125.41 Q1108.44 2121.85 1108.44 2114.74 Q1108.44 2107.61 1106.61 2104.07 Q1104.8 2100.51 1101.17 2100.51 M1101.17 2096.8 Q1106.98 2096.8 1110.04 2101.41 Q1113.11 2105.99 1113.11 2114.74 Q1113.11 2123.47 1110.04 2128.08 Q1106.98 2132.66 1101.17 2132.66 Q1095.36 2132.66 1092.28 2128.08 Q1089.23 2123.47 1089.23 2114.74 Q1089.23 2105.99 1092.28 2101.41 Q1095.36 2096.8 1101.17 2096.8 Z" fill="#000000" fill-rule="nonzero" fill-opacity="1"></path><path clip-path="url(#clip250)" d="M1635.1 2097.43 L1653.46 2097.43 L1653.46 2101.36 L1639.39 2101.36 L1639.39 2109.83 Q1640.41 2109.49 1641.42 2109.33 Q1642.44 2109.14 1643.46 2109.14 Q1649.25 2109.14 1652.63 2112.31 Q1656.01 2115.48 1656.01 2120.9 Q1656.01 2126.48 1652.54 2129.58 Q1649.06 2132.66 1642.74 2132.66 Q1640.57 2132.66 1638.3 2132.29 Q1636.05 2131.92 1633.65 2131.18 L1633.65 2126.48 Q1635.73 2127.61 1637.95 2128.17 Q1640.17 2128.72 1642.65 2128.72 Q1646.66 2128.72 1648.99 2126.62 Q1651.33 2124.51 1651.33 2120.9 Q1651.33 2117.29 1648.99 2115.18 Q1646.66 2113.08 1642.65 2113.08 Q1640.78 2113.08 1638.9 2113.49 Q1637.05 2113.91 1635.1 2114.79 L1635.1 2097.43 Z" fill="#000000" fill-rule="nonzero" fill-opacity="1"></path><path clip-path="url(#clip250)" d="M1675.22 2100.51 Q1671.61 2100.51 1669.78 2104.07 Q1667.97 2107.61 1667.97 2114.74 Q1667.97 2121.85 1669.78 2125.41 Q1671.61 2128.96 1675.22 2128.96 Q1678.85 2128.96 1680.66 2125.41 Q1682.49 2121.85 1682.49 2114.74 Q1682.49 2107.61 1680.66 2104.07 Q1678.85 2100.51 1675.22 2100.51 M1675.22 2096.8 Q1681.03 2096.8 1684.09 2101.41 Q1687.16 2105.99 1687.16 2114.74 Q1687.16 2123.47 1684.09 2128.08 Q1681.03 2132.66 1675.22 2132.66 Q1669.41 2132.66 1666.33 2128.08 Q1663.28 2123.47 1663.28 2114.74 Q1663.28 2105.99 1666.33 2101.41 Q1669.41 2096.8 1675.22 2096.8 Z" fill="#000000" fill-rule="nonzero" fill-opacity="1"></path><path clip-path="url(#clip250)" d="M1705.38 2100.51 Q1701.77 2100.51 1699.94 2104.07 Q1698.14 2107.61 1698.14 2114.74 Q1698.14 2121.85 1699.94 2125.41 Q1701.77 2128.96 1705.38 2128.96 Q1709.02 2128.96 1710.82 2125.41 Q1712.65 2121.85 1712.65 2114.74 Q1712.65 2107.61 1710.82 2104.07 Q1709.02 2100.51 1705.38 2100.51 M1705.38 2096.8 Q1711.19 2096.8 1714.25 2101.41 Q1717.33 2105.99 1717.33 2114.74 Q1717.33 2123.47 1714.25 2128.08 Q1711.19 2132.66 1705.38 2132.66 Q1699.57 2132.66 1696.49 2128.08 Q1693.44 2123.47 1693.44 2114.74 Q1693.44 2105.99 1696.49 2101.41 Q1699.57 2096.8 1705.38 2096.8 Z" fill="#000000" fill-rule="nonzero" fill-opacity="1"></path><path clip-path="url(#clip250)" d="M2238.07 2097.43 L2260.29 2097.43 L2260.29 2099.42 L2247.74 2131.99 L2242.86 2131.99 L2254.66 2101.36 L2238.07 2101.36 L2238.07 2097.43 Z" fill="#000000" fill-rule="nonzero" fill-opacity="1"></path><path clip-path="url(#clip250)" d="M2269.46 2097.43 L2287.81 2097.43 L2287.81 2101.36 L2273.74 2101.36 L2273.74 2109.83 Q2274.76 2109.49 2275.77 2109.33 Q2276.79 2109.14 2277.81 2109.14 Q2283.6 2109.14 2286.98 2112.31 Q2290.36 2115.48 2290.36 2120.9 Q2290.36 2126.48 2286.89 2129.58 Q2283.41 2132.66 2277.09 2132.66 Q2274.92 2132.66 2272.65 2132.29 Q2270.4 2131.92 2268 2131.18 L2268 2126.48 Q2270.08 2127.61 2272.3 2128.17 Q2274.52 2128.72 2277 2128.72 Q2281.01 2128.72 2283.34 2126.62 Q2285.68 2124.51 2285.68 2120.9 Q2285.68 2117.29 2283.34 2115.18 Q2281.01 2113.08 2277 2113.08 Q2275.13 2113.08 2273.25 2113.49 Q2271.4 2113.91 2269.46 2114.79 L2269.46 2097.43 Z" fill="#000000" fill-rule="nonzero" fill-opacity="1"></path><path clip-path="url(#clip250)" d="M2309.57 2100.51 Q2305.96 2100.51 2304.13 2104.07 Q2302.33 2107.61 2302.33 2114.74 Q2302.33 2121.85 2304.13 2125.41 Q2305.96 2128.96 2309.57 2128.96 Q2313.21 2128.96 2315.01 2125.41 Q2316.84 2121.85 2316.84 2114.74 Q2316.84 2107.61 2315.01 2104.07 Q2313.21 2100.51 2309.57 2100.51 M2309.57 2096.8 Q2315.38 2096.8 2318.44 2101.41 Q2321.52 2105.99 2321.52 2114.74 Q2321.52 2123.47 2318.44 2128.08 Q2315.38 2132.66 2309.57 2132.66 Q2303.76 2132.66 2300.68 2128.08 Q2297.63 2123.47 2297.63 2114.74 Q2297.63 2105.99 2300.68 2101.41 Q2303.76 2096.8 2309.57 2096.8 Z" fill="#000000" fill-rule="nonzero" fill-opacity="1"></path><path clip-path="url(#clip250)" d="M2828.62 2128.05 L2836.26 2128.05 L2836.26 2101.69 L2827.95 2103.35 L2827.95 2099.09 L2836.21 2097.43 L2840.89 2097.43 L2840.89 2128.05 L2848.53 2128.05 L2848.53 2131.99 L2828.62 2131.99 L2828.62 2128.05 Z" fill="#000000" fill-rule="nonzero" fill-opacity="1"></path><path clip-path="url(#clip250)" d="M2867.97 2100.51 Q2864.36 2100.51 2862.53 2104.07 Q2860.73 2107.61 2860.73 2114.74 Q2860.73 2121.85 2862.53 2125.41 Q2864.36 2128.96 2867.97 2128.96 Q2871.61 2128.96 2873.41 2125.41 Q2875.24 2121.85 2875.24 2114.74 Q2875.24 2107.61 2873.41 2104.07 Q2871.61 2100.51 2867.97 2100.51 M2867.97 2096.8 Q2873.78 2096.8 2876.84 2101.41 Q2879.92 2105.99 2879.92 2114.74 Q2879.92 2123.47 2876.84 2128.08 Q2873.78 2132.66 2867.97 2132.66 Q2862.16 2132.66 2859.08 2128.08 Q2856.03 2123.47 2856.03 2114.74 Q2856.03 2105.99 2859.08 2101.41 Q2862.16 2096.8 2867.97 2096.8 Z" fill="#000000" fill-rule="nonzero" fill-opacity="1"></path><path clip-path="url(#clip250)" d="M2898.13 2100.51 Q2894.52 2100.51 2892.69 2104.07 Q2890.89 2107.61 2890.89 2114.74 Q2890.89 2121.85 2892.69 2125.41 Q2894.52 2128.96 2898.13 2128.96 Q2901.77 2128.96 2903.57 2125.41 Q2905.4 2121.85 2905.4 2114.74 Q2905.4 2107.61 2903.57 2104.07 Q2901.77 2100.51 2898.13 2100.51 M2898.13 2096.8 Q2903.94 2096.8 2907 2101.41 Q2910.08 2105.99 2910.08 2114.74 Q2910.08 2123.47 2907 2128.08 Q2903.94 2132.66 2898.13 2132.66 Q2892.32 2132.66 2889.25 2128.08 Q2886.19 2123.47 2886.19 2114.74 Q2886.19 2105.99 2889.25 2101.41 Q2892.32 2096.8 2898.13 2096.8 Z" fill="#000000" fill-rule="nonzero" fill-opacity="1"></path><path clip-path="url(#clip250)" d="M2928.3 2100.51 Q2924.69 2100.51 2922.86 2104.07 Q2921.05 2107.61 2921.05 2114.74 Q2921.05 2121.85 2922.86 2125.41 Q2924.69 2128.96 2928.3 2128.96 Q2931.93 2128.96 2933.74 2125.41 Q2935.57 2121.85 2935.57 2114.74 Q2935.57 2107.61 2933.74 2104.07 Q2931.93 2100.51 2928.3 2100.51 M2928.3 2096.8 Q2934.11 2096.8 2937.16 2101.41 Q2940.24 2105.99 2940.24 2114.74 Q2940.24 2123.47 2937.16 2128.08 Q2934.11 2132.66 2928.3 2132.66 Q2922.49 2132.66 2919.41 2128.08 Q2916.35 2123.47 2916.35 2114.74 Q2916.35 2105.99 2919.41 2101.41 Q2922.49 2096.8 2928.3 2096.8 Z" fill="#000000" fill-rule="nonzero" fill-opacity="1"></path><path clip-path="url(#clip250)" d="M1375.13 2176.89 Q1368.13 2176.89 1363.99 2182.11 Q1359.88 2187.33 1359.88 2196.34 Q1359.88 2205.31 1363.99 2210.53 Q1368.13 2215.75 1375.13 2215.75 Q1382.13 2215.75 1386.21 2210.53 Q1390.31 2205.31 1390.31 2196.34 Q1390.31 2187.33 1386.21 2182.11 Q1382.13 2176.89 1375.13 2176.89 M1375.13 2171.67 Q1385.12 2171.67 1391.11 2178.39 Q1397.09 2185.07 1397.09 2196.34 Q1397.09 2207.57 1391.11 2214.29 Q1385.12 2220.97 1375.13 2220.97 Q1365.1 2220.97 1359.09 2214.29 Q1353.1 2207.61 1353.1 2196.34 Q1353.1 2185.07 1359.09 2178.39 Q1365.1 2171.67 1375.13 2171.67 Z" fill="#000000" fill-rule="nonzero" fill-opacity="1"></path><path clip-path="url(#clip250)" d="M1432.48 2202.26 Q1432.48 2195.8 1429.81 2192.14 Q1427.17 2188.45 1422.52 2188.45 Q1417.87 2188.45 1415.2 2192.14 Q1412.56 2195.8 1412.56 2202.26 Q1412.56 2208.72 1415.2 2212.41 Q1417.87 2216.07 1422.52 2216.07 Q1427.17 2216.07 1429.81 2212.41 Q1432.48 2208.72 1432.48 2202.26 M1412.56 2189.81 Q1414.41 2186.63 1417.21 2185.1 Q1420.04 2183.54 1423.95 2183.54 Q1430.45 2183.54 1434.49 2188.7 Q1438.56 2193.86 1438.56 2202.26 Q1438.56 2210.66 1434.49 2215.82 Q1430.45 2220.97 1423.95 2220.97 Q1420.04 2220.97 1417.21 2219.45 Q1414.41 2217.89 1412.56 2214.7 L1412.56 2220.05 L1406.67 2220.05 L1406.67 2170.53 L1412.56 2170.53 L1412.56 2189.81 Z" fill="#000000" fill-rule="nonzero" fill-opacity="1"></path><path clip-path="url(#clip250)" d="M1471 2185.45 L1471 2190.99 Q1468.51 2189.72 1465.84 2189.08 Q1463.17 2188.45 1460.3 2188.45 Q1455.94 2188.45 1453.75 2189.78 Q1451.58 2191.12 1451.58 2193.79 Q1451.58 2195.83 1453.14 2197.01 Q1454.7 2198.15 1459.41 2199.2 L1461.42 2199.65 Q1467.65 2200.99 1470.26 2203.44 Q1472.91 2205.86 1472.91 2210.22 Q1472.91 2215.18 1468.96 2218.08 Q1465.04 2220.97 1458.17 2220.97 Q1455.3 2220.97 1452.19 2220.4 Q1449.1 2219.86 1445.66 2218.75 L1445.66 2212.7 Q1448.91 2214.39 1452.06 2215.25 Q1455.21 2216.07 1458.3 2216.07 Q1462.43 2216.07 1464.66 2214.67 Q1466.89 2213.24 1466.89 2210.66 Q1466.89 2208.28 1465.27 2207 Q1463.68 2205.73 1458.23 2204.55 L1456.2 2204.07 Q1450.75 2202.93 1448.33 2200.57 Q1445.92 2198.19 1445.92 2194.05 Q1445.92 2189.02 1449.48 2186.28 Q1453.05 2183.54 1459.6 2183.54 Q1462.85 2183.54 1465.71 2184.02 Q1468.58 2184.5 1471 2185.45 Z" fill="#000000" fill-rule="nonzero" fill-opacity="1"></path><path clip-path="url(#clip250)" d="M1512.72 2200.76 L1512.72 2203.63 L1485.8 2203.63 Q1486.18 2209.68 1489.43 2212.86 Q1492.7 2216.01 1498.53 2216.01 Q1501.9 2216.01 1505.05 2215.18 Q1508.24 2214.35 1511.35 2212.7 L1511.35 2218.24 Q1508.2 2219.57 1504.89 2220.27 Q1501.58 2220.97 1498.18 2220.97 Q1489.65 2220.97 1484.65 2216.01 Q1479.69 2211.04 1479.69 2202.58 Q1479.69 2193.82 1484.4 2188.7 Q1489.14 2183.54 1497.16 2183.54 Q1504.35 2183.54 1508.52 2188.19 Q1512.72 2192.81 1512.72 2200.76 M1506.87 2199.04 Q1506.8 2194.24 1504.16 2191.37 Q1501.55 2188.51 1497.22 2188.51 Q1492.32 2188.51 1489.36 2191.28 Q1486.43 2194.05 1485.99 2199.08 L1506.87 2199.04 Z" fill="#000000" fill-rule="nonzero" fill-opacity="1"></path><path clip-path="url(#clip250)" d="M1542.99 2189.88 Q1542.01 2189.31 1540.83 2189.05 Q1539.68 2188.76 1538.28 2188.76 Q1533.32 2188.76 1530.64 2192.01 Q1528 2195.23 1528 2201.27 L1528 2220.05 L1522.11 2220.05 L1522.11 2184.4 L1528 2184.4 L1528 2189.94 Q1529.85 2186.7 1532.81 2185.14 Q1535.77 2183.54 1540 2183.54 Q1540.61 2183.54 1541.34 2183.64 Q1542.07 2183.7 1542.96 2183.86 L1542.99 2189.88 Z" fill="#000000" fill-rule="nonzero" fill-opacity="1"></path><path clip-path="url(#clip250)" d="M1544.93 2184.4 L1551.14 2184.4 L1562.28 2214.32 L1573.42 2184.4 L1579.63 2184.4 L1566.26 2220.05 L1558.3 2220.05 L1544.93 2184.4 Z" fill="#000000" fill-rule="nonzero" fill-opacity="1"></path><path clip-path="url(#clip250)" d="M1618.2 2200.76 L1618.2 2203.63 L1591.28 2203.63 Q1591.66 2209.68 1594.9 2212.86 Q1598.18 2216.01 1604.01 2216.01 Q1607.38 2216.01 1610.53 2215.18 Q1613.72 2214.35 1616.83 2212.7 L1616.83 2218.24 Q1613.68 2219.57 1610.37 2220.27 Q1607.06 2220.97 1603.66 2220.97 Q1595.13 2220.97 1590.13 2216.01 Q1585.17 2211.04 1585.17 2202.58 Q1585.17 2193.82 1589.88 2188.7 Q1594.62 2183.54 1602.64 2183.54 Q1609.83 2183.54 1614 2188.19 Q1618.2 2192.81 1618.2 2200.76 M1612.35 2199.04 Q1612.28 2194.24 1609.64 2191.37 Q1607.03 2188.51 1602.7 2188.51 Q1597.8 2188.51 1594.84 2191.28 Q1591.91 2194.05 1591.47 2199.08 L1612.35 2199.04 Z" fill="#000000" fill-rule="nonzero" fill-opacity="1"></path><path clip-path="url(#clip250)" d="M1651.27 2189.81 L1651.27 2170.53 L1657.13 2170.53 L1657.13 2220.05 L1651.27 2220.05 L1651.27 2214.7 Q1649.43 2217.89 1646.59 2219.45 Q1643.79 2220.97 1639.85 2220.97 Q1633.39 2220.97 1629.31 2215.82 Q1625.27 2210.66 1625.27 2202.26 Q1625.27 2193.86 1629.31 2188.7 Q1633.39 2183.54 1639.85 2183.54 Q1643.79 2183.54 1646.59 2185.1 Q1649.43 2186.63 1651.27 2189.81 M1631.32 2202.26 Q1631.32 2208.72 1633.96 2212.41 Q1636.63 2216.07 1641.28 2216.07 Q1645.93 2216.07 1648.6 2212.41 Q1651.27 2208.72 1651.27 2202.26 Q1651.27 2195.8 1648.6 2192.14 Q1645.93 2188.45 1641.28 2188.45 Q1636.63 2188.45 1633.96 2192.14 Q1631.32 2195.8 1631.32 2202.26 Z" fill="#000000" fill-rule="nonzero" fill-opacity="1"></path><path clip-path="url(#clip250)" d="M1683.58 2172.53 L1723.78 2172.53 L1723.78 2177.94 L1706.91 2177.94 L1706.91 2220.05 L1700.45 2220.05 L1700.45 2177.94 L1683.58 2177.94 L1683.58 2172.53 Z" fill="#000000" fill-rule="nonzero" fill-opacity="1"></path><path clip-path="url(#clip250)" d="M1727.73 2184.4 L1733.58 2184.4 L1733.58 2220.05 L1727.73 2220.05 L1727.73 2184.4 M1727.73 2170.53 L1733.58 2170.53 L1733.58 2177.94 L1727.73 2177.94 L1727.73 2170.53 Z" fill="#000000" fill-rule="nonzero" fill-opacity="1"></path><path clip-path="url(#clip250)" d="M1773.59 2191.25 Q1775.79 2187.3 1778.84 2185.42 Q1781.9 2183.54 1786.04 2183.54 Q1791.61 2183.54 1794.63 2187.46 Q1797.65 2191.34 1797.65 2198.54 L1797.65 2220.05 L1791.76 2220.05 L1791.76 2198.73 Q1791.76 2193.6 1789.95 2191.12 Q1788.14 2188.64 1784.41 2188.64 Q1779.86 2188.64 1777.22 2191.66 Q1774.58 2194.68 1774.58 2199.9 L1774.58 2220.05 L1768.69 2220.05 L1768.69 2198.73 Q1768.69 2193.57 1766.87 2191.12 Q1765.06 2188.64 1761.27 2188.64 Q1756.78 2188.64 1754.14 2191.69 Q1751.5 2194.72 1751.5 2199.9 L1751.5 2220.05 L1745.61 2220.05 L1745.61 2184.4 L1751.5 2184.4 L1751.5 2189.94 Q1753.51 2186.66 1756.31 2185.1 Q1759.11 2183.54 1762.96 2183.54 Q1766.84 2183.54 1769.55 2185.52 Q1772.29 2187.49 1773.59 2191.25 Z" fill="#000000" fill-rule="nonzero" fill-opacity="1"></path><path clip-path="url(#clip250)" d="M1839.83 2200.76 L1839.83 2203.63 L1812.9 2203.63 Q1813.28 2209.68 1816.53 2212.86 Q1819.81 2216.01 1825.63 2216.01 Q1829 2216.01 1832.15 2215.18 Q1835.34 2214.35 1838.46 2212.7 L1838.46 2218.24 Q1835.31 2219.57 1832 2220.27 Q1828.69 2220.97 1825.28 2220.97 Q1816.75 2220.97 1811.75 2216.01 Q1806.79 2211.04 1806.79 2202.58 Q1806.79 2193.82 1811.5 2188.7 Q1816.24 2183.54 1824.26 2183.54 Q1831.45 2183.54 1835.62 2188.19 Q1839.83 2192.81 1839.83 2200.76 M1833.97 2199.04 Q1833.91 2194.24 1831.26 2191.37 Q1828.65 2188.51 1824.32 2188.51 Q1819.42 2188.51 1816.46 2191.28 Q1813.54 2194.05 1813.09 2199.08 L1833.97 2199.04 Z" fill="#000000" fill-rule="nonzero" fill-opacity="1"></path><path clip-path="url(#clip250)" d="M1884.23 2170.59 Q1879.96 2177.91 1877.89 2185.07 Q1875.82 2192.23 1875.82 2199.59 Q1875.82 2206.94 1877.89 2214.16 Q1879.99 2221.36 1884.23 2228.65 L1879.13 2228.65 Q1874.36 2221.17 1871.97 2213.94 Q1869.62 2206.72 1869.62 2199.59 Q1869.62 2192.49 1871.97 2185.29 Q1874.33 2178.1 1879.13 2170.59 L1884.23 2170.59 Z" fill="#000000" fill-rule="nonzero" fill-opacity="1"></path><path clip-path="url(#clip250)" d="M1919.05 2189.81 L1919.05 2170.53 L1924.9 2170.53 L1924.9 2220.05 L1919.05 2220.05 L1919.05 2214.7 Q1917.2 2217.89 1914.37 2219.45 Q1911.57 2220.97 1907.62 2220.97 Q1901.16 2220.97 1897.08 2215.82 Q1893.04 2210.66 1893.04 2202.26 Q1893.04 2193.86 1897.08 2188.7 Q1901.16 2183.54 1907.62 2183.54 Q1911.57 2183.54 1914.37 2185.1 Q1917.2 2186.63 1919.05 2189.81 M1899.09 2202.26 Q1899.09 2208.72 1901.73 2212.41 Q1904.41 2216.07 1909.05 2216.07 Q1913.7 2216.07 1916.37 2212.41 Q1919.05 2208.72 1919.05 2202.26 Q1919.05 2195.8 1916.37 2192.14 Q1913.7 2188.45 1909.05 2188.45 Q1904.41 2188.45 1901.73 2192.14 Q1899.09 2195.8 1899.09 2202.26 Z" fill="#000000" fill-rule="nonzero" fill-opacity="1"></path><path clip-path="url(#clip250)" d="M1953.17 2202.13 Q1946.07 2202.13 1943.33 2203.76 Q1940.59 2205.38 1940.59 2209.29 Q1940.59 2212.41 1942.63 2214.26 Q1944.7 2216.07 1948.23 2216.07 Q1953.1 2216.07 1956.03 2212.64 Q1958.99 2209.17 1958.99 2203.44 L1958.99 2202.13 L1953.17 2202.13 M1964.85 2199.71 L1964.85 2220.05 L1958.99 2220.05 L1958.99 2214.64 Q1956.99 2217.89 1953.99 2219.45 Q1951 2220.97 1946.67 2220.97 Q1941.2 2220.97 1937.95 2217.92 Q1934.74 2214.83 1934.74 2209.68 Q1934.74 2203.66 1938.75 2200.6 Q1942.79 2197.55 1950.78 2197.55 L1958.99 2197.55 L1958.99 2196.98 Q1958.99 2192.93 1956.32 2190.74 Q1953.68 2188.51 1948.87 2188.51 Q1945.81 2188.51 1942.92 2189.24 Q1940.02 2189.97 1937.35 2191.44 L1937.35 2186.03 Q1940.56 2184.79 1943.59 2184.18 Q1946.61 2183.54 1949.47 2183.54 Q1957.21 2183.54 1961.03 2187.55 Q1964.85 2191.57 1964.85 2199.71 Z" fill="#000000" fill-rule="nonzero" fill-opacity="1"></path><path clip-path="url(#clip250)" d="M1991.74 2223.36 Q1989.26 2229.73 1986.91 2231.67 Q1984.55 2233.61 1980.6 2233.61 L1975.92 2233.61 L1975.92 2228.71 L1979.36 2228.71 Q1981.78 2228.71 1983.12 2227.56 Q1984.45 2226.42 1986.08 2222.15 L1987.13 2219.48 L1972.71 2184.4 L1978.92 2184.4 L1990.06 2212.29 L2001.2 2184.4 L2007.4 2184.4 L1991.74 2223.36 Z" fill="#000000" fill-rule="nonzero" fill-opacity="1"></path><path clip-path="url(#clip250)" d="M2038.21 2185.45 L2038.21 2190.99 Q2035.73 2189.72 2033.06 2189.08 Q2030.38 2188.45 2027.52 2188.45 Q2023.16 2188.45 2020.96 2189.78 Q2018.8 2191.12 2018.8 2193.79 Q2018.8 2195.83 2020.36 2197.01 Q2021.92 2198.15 2026.63 2199.2 L2028.63 2199.65 Q2034.87 2200.99 2037.48 2203.44 Q2040.12 2205.86 2040.12 2210.22 Q2040.12 2215.18 2036.18 2218.08 Q2032.26 2220.97 2025.39 2220.97 Q2022.52 2220.97 2019.4 2220.4 Q2016.31 2219.86 2012.88 2218.75 L2012.88 2212.7 Q2016.12 2214.39 2019.27 2215.25 Q2022.43 2216.07 2025.51 2216.07 Q2029.65 2216.07 2031.88 2214.67 Q2034.11 2213.24 2034.11 2210.66 Q2034.11 2208.28 2032.48 2207 Q2030.89 2205.73 2025.45 2204.55 L2023.41 2204.07 Q2017.97 2202.93 2015.55 2200.57 Q2013.13 2198.19 2013.13 2194.05 Q2013.13 2189.02 2016.7 2186.28 Q2020.26 2183.54 2026.82 2183.54 Q2030.06 2183.54 2032.93 2184.02 Q2035.79 2184.5 2038.21 2185.45 Z" fill="#000000" fill-rule="nonzero" fill-opacity="1"></path><path clip-path="url(#clip250)" d="M2048.53 2170.59 L2053.62 2170.59 Q2058.39 2178.1 2060.75 2185.29 Q2063.13 2192.49 2063.13 2199.59 Q2063.13 2206.72 2060.75 2213.94 Q2058.39 2221.17 2053.62 2228.65 L2048.53 2228.65 Q2052.76 2221.36 2054.83 2214.16 Q2056.93 2206.94 2056.93 2199.59 Q2056.93 2192.23 2054.83 2185.07 Q2052.76 2177.91 2048.53 2170.59 Z" fill="#000000" fill-rule="nonzero" fill-opacity="1"></path><polyline clip-path="url(#clip250)" style="stroke:#000000; stroke-linecap:round; stroke-linejoin:round; stroke-width:4; stroke-opacity:1; fill:none" points="405.214,2063.19 405.214,272.764 "></polyline>
<polyline clip-path="url(#clip250)" style="stroke:#000000; stroke-linecap:round; stroke-linejoin:round; stroke-width:4; stroke-opacity:1; fill:none" points="405.214,2063.19 424.112,2063.19 "></polyline>
<polyline clip-path="url(#clip250)" style="stroke:#000000; stroke-linecap:round; stroke-linejoin:round; stroke-width:4; stroke-opacity:1; fill:none" points="405.214,1636.9 424.112,1636.9 "></polyline>
<polyline clip-path="url(#clip250)" style="stroke:#000000; stroke-linecap:round; stroke-linejoin:round; stroke-width:4; stroke-opacity:1; fill:none" points="405.214,1210.61 424.112,1210.61 "></polyline>
<polyline clip-path="url(#clip250)" style="stroke:#000000; stroke-linecap:round; stroke-linejoin:round; stroke-width:4; stroke-opacity:1; fill:none" points="405.214,784.314 424.112,784.314 "></polyline>
<polyline clip-path="url(#clip250)" style="stroke:#000000; stroke-linecap:round; stroke-linejoin:round; stroke-width:4; stroke-opacity:1; fill:none" points="405.214,358.023 424.112,358.023 "></polyline>
<path clip-path="url(#clip250)" d="M269.877 2048.99 Q266.266 2048.99 264.437 2052.55 Q262.631 2056.09 262.631 2063.22 Q262.631 2070.33 264.437 2073.89 Q266.266 2077.44 269.877 2077.44 Q273.511 2077.44 275.317 2073.89 Q277.145 2070.33 277.145 2063.22 Q277.145 2056.09 275.317 2052.55 Q273.511 2048.99 269.877 2048.99 M269.877 2045.28 Q275.687 2045.28 278.743 2049.89 Q281.821 2054.47 281.821 2063.22 Q281.821 2071.95 278.743 2076.56 Q275.687 2081.14 269.877 2081.14 Q264.067 2081.14 260.988 2076.56 Q257.932 2071.95 257.932 2063.22 Q257.932 2054.47 260.988 2049.89 Q264.067 2045.28 269.877 2045.28 Z" fill="#000000" fill-rule="nonzero" fill-opacity="1"></path><path clip-path="url(#clip250)" d="M290.039 2074.59 L294.923 2074.59 L294.923 2080.47 L290.039 2080.47 L290.039 2074.59 Z" fill="#000000" fill-rule="nonzero" fill-opacity="1"></path><path clip-path="url(#clip250)" d="M315.108 2048.99 Q311.497 2048.99 309.668 2052.55 Q307.863 2056.09 307.863 2063.22 Q307.863 2070.33 309.668 2073.89 Q311.497 2077.44 315.108 2077.44 Q318.742 2077.44 320.548 2073.89 Q322.377 2070.33 322.377 2063.22 Q322.377 2056.09 320.548 2052.55 Q318.742 2048.99 315.108 2048.99 M315.108 2045.28 Q320.918 2045.28 323.974 2049.89 Q327.052 2054.47 327.052 2063.22 Q327.052 2071.95 323.974 2076.56 Q320.918 2081.14 315.108 2081.14 Q309.298 2081.14 306.219 2076.56 Q303.164 2071.95 303.164 2063.22 Q303.164 2054.47 306.219 2049.89 Q309.298 2045.28 315.108 2045.28 Z" fill="#000000" fill-rule="nonzero" fill-opacity="1"></path><path clip-path="url(#clip250)" d="M345.27 2048.99 Q341.659 2048.99 339.83 2052.55 Q338.025 2056.09 338.025 2063.22 Q338.025 2070.33 339.83 2073.89 Q341.659 2077.44 345.27 2077.44 Q348.904 2077.44 350.71 2073.89 Q352.538 2070.33 352.538 2063.22 Q352.538 2056.09 350.71 2052.55 Q348.904 2048.99 345.27 2048.99 M345.27 2045.28 Q351.08 2045.28 354.136 2049.89 Q357.214 2054.47 357.214 2063.22 Q357.214 2071.95 354.136 2076.56 Q351.08 2081.14 345.27 2081.14 Q339.46 2081.14 336.381 2076.56 Q333.326 2071.95 333.326 2063.22 Q333.326 2054.47 336.381 2049.89 Q339.46 2045.28 345.27 2045.28 Z" fill="#000000" fill-rule="nonzero" fill-opacity="1"></path><path clip-path="url(#clip250)" d="M270.872 1622.7 Q267.261 1622.7 265.432 1626.26 Q263.627 1629.8 263.627 1636.93 Q263.627 1644.04 265.432 1647.6 Q267.261 1651.14 270.872 1651.14 Q274.506 1651.14 276.312 1647.6 Q278.141 1644.04 278.141 1636.93 Q278.141 1629.8 276.312 1626.26 Q274.506 1622.7 270.872 1622.7 M270.872 1618.99 Q276.682 1618.99 279.738 1623.6 Q282.817 1628.18 282.817 1636.93 Q282.817 1645.66 279.738 1650.26 Q276.682 1654.85 270.872 1654.85 Q265.062 1654.85 261.983 1650.26 Q258.928 1645.66 258.928 1636.93 Q258.928 1628.18 261.983 1623.6 Q265.062 1618.99 270.872 1618.99 Z" fill="#000000" fill-rule="nonzero" fill-opacity="1"></path><path clip-path="url(#clip250)" d="M291.034 1648.3 L295.918 1648.3 L295.918 1654.18 L291.034 1654.18 L291.034 1648.3 Z" fill="#000000" fill-rule="nonzero" fill-opacity="1"></path><path clip-path="url(#clip250)" d="M310.131 1650.24 L326.451 1650.24 L326.451 1654.18 L304.506 1654.18 L304.506 1650.24 Q307.168 1647.49 311.752 1642.86 Q316.358 1638.2 317.539 1636.86 Q319.784 1634.34 320.664 1632.6 Q321.566 1630.84 321.566 1629.15 Q321.566 1626.4 319.622 1624.66 Q317.701 1622.93 314.599 1622.93 Q312.4 1622.93 309.946 1623.69 Q307.516 1624.45 304.738 1626.01 L304.738 1621.28 Q307.562 1620.15 310.015 1619.57 Q312.469 1618.99 314.506 1618.99 Q319.877 1618.99 323.071 1621.68 Q326.265 1624.36 326.265 1628.85 Q326.265 1630.98 325.455 1632.9 Q324.668 1634.8 322.562 1637.39 Q321.983 1638.07 318.881 1641.28 Q315.779 1644.48 310.131 1650.24 Z" fill="#000000" fill-rule="nonzero" fill-opacity="1"></path><path clip-path="url(#clip250)" d="M336.312 1619.62 L354.668 1619.62 L354.668 1623.55 L340.594 1623.55 L340.594 1632.02 Q341.613 1631.68 342.631 1631.51 Q343.65 1631.33 344.668 1631.33 Q350.455 1631.33 353.835 1634.5 Q357.214 1637.67 357.214 1643.09 Q357.214 1648.67 353.742 1651.77 Q350.27 1654.85 343.95 1654.85 Q341.775 1654.85 339.506 1654.48 Q337.261 1654.11 334.853 1653.37 L334.853 1648.67 Q336.937 1649.8 339.159 1650.36 Q341.381 1650.91 343.858 1650.91 Q347.863 1650.91 350.2 1648.81 Q352.538 1646.7 352.538 1643.09 Q352.538 1639.48 350.2 1637.37 Q347.863 1635.26 343.858 1635.26 Q341.983 1635.26 340.108 1635.68 Q338.256 1636.1 336.312 1636.98 L336.312 1619.62 Z" fill="#000000" fill-rule="nonzero" fill-opacity="1"></path><path clip-path="url(#clip250)" d="M269.877 1196.4 Q266.266 1196.4 264.437 1199.97 Q262.631 1203.51 262.631 1210.64 Q262.631 1217.75 264.437 1221.31 Q266.266 1224.85 269.877 1224.85 Q273.511 1224.85 275.317 1221.31 Q277.145 1217.75 277.145 1210.64 Q277.145 1203.51 275.317 1199.97 Q273.511 1196.4 269.877 1196.4 M269.877 1192.7 Q275.687 1192.7 278.743 1197.31 Q281.821 1201.89 281.821 1210.64 Q281.821 1219.37 278.743 1223.97 Q275.687 1228.56 269.877 1228.56 Q264.067 1228.56 260.988 1223.97 Q257.932 1219.37 257.932 1210.64 Q257.932 1201.89 260.988 1197.31 Q264.067 1192.7 269.877 1192.7 Z" fill="#000000" fill-rule="nonzero" fill-opacity="1"></path><path clip-path="url(#clip250)" d="M290.039 1222.01 L294.923 1222.01 L294.923 1227.89 L290.039 1227.89 L290.039 1222.01 Z" fill="#000000" fill-rule="nonzero" fill-opacity="1"></path><path clip-path="url(#clip250)" d="M305.154 1193.33 L323.511 1193.33 L323.511 1197.26 L309.437 1197.26 L309.437 1205.73 Q310.455 1205.39 311.474 1205.22 Q312.492 1205.04 313.511 1205.04 Q319.298 1205.04 322.677 1208.21 Q326.057 1211.38 326.057 1216.8 Q326.057 1222.38 322.585 1225.48 Q319.113 1228.56 312.793 1228.56 Q310.617 1228.56 308.349 1228.19 Q306.103 1227.82 303.696 1227.07 L303.696 1222.38 Q305.779 1223.51 308.002 1224.07 Q310.224 1224.62 312.701 1224.62 Q316.705 1224.62 319.043 1222.51 Q321.381 1220.41 321.381 1216.8 Q321.381 1213.19 319.043 1211.08 Q316.705 1208.97 312.701 1208.97 Q310.826 1208.97 308.951 1209.39 Q307.099 1209.81 305.154 1210.69 L305.154 1193.33 Z" fill="#000000" fill-rule="nonzero" fill-opacity="1"></path><path clip-path="url(#clip250)" d="M345.27 1196.4 Q341.659 1196.4 339.83 1199.97 Q338.025 1203.51 338.025 1210.64 Q338.025 1217.75 339.83 1221.31 Q341.659 1224.85 345.27 1224.85 Q348.904 1224.85 350.71 1221.31 Q352.538 1217.75 352.538 1210.64 Q352.538 1203.51 350.71 1199.97 Q348.904 1196.4 345.27 1196.4 M345.27 1192.7 Q351.08 1192.7 354.136 1197.31 Q357.214 1201.89 357.214 1210.64 Q357.214 1219.37 354.136 1223.97 Q351.08 1228.56 345.27 1228.56 Q339.46 1228.56 336.381 1223.97 Q333.326 1219.37 333.326 1210.64 Q333.326 1201.89 336.381 1197.31 Q339.46 1192.7 345.27 1192.7 Z" fill="#000000" fill-rule="nonzero" fill-opacity="1"></path><path clip-path="url(#clip250)" d="M270.872 770.113 Q267.261 770.113 265.432 773.677 Q263.627 777.219 263.627 784.349 Q263.627 791.455 265.432 795.02 Q267.261 798.561 270.872 798.561 Q274.506 798.561 276.312 795.02 Q278.141 791.455 278.141 784.349 Q278.141 777.219 276.312 773.677 Q274.506 770.113 270.872 770.113 M270.872 766.409 Q276.682 766.409 279.738 771.015 Q282.817 775.599 282.817 784.349 Q282.817 793.075 279.738 797.682 Q276.682 802.265 270.872 802.265 Q265.062 802.265 261.983 797.682 Q258.928 793.075 258.928 784.349 Q258.928 775.599 261.983 771.015 Q265.062 766.409 270.872 766.409 Z" fill="#000000" fill-rule="nonzero" fill-opacity="1"></path><path clip-path="url(#clip250)" d="M291.034 795.714 L295.918 795.714 L295.918 801.594 L291.034 801.594 L291.034 795.714 Z" fill="#000000" fill-rule="nonzero" fill-opacity="1"></path><path clip-path="url(#clip250)" d="M304.923 767.034 L327.145 767.034 L327.145 769.025 L314.599 801.594 L309.715 801.594 L321.52 770.969 L304.923 770.969 L304.923 767.034 Z" fill="#000000" fill-rule="nonzero" fill-opacity="1"></path><path clip-path="url(#clip250)" d="M336.312 767.034 L354.668 767.034 L354.668 770.969 L340.594 770.969 L340.594 779.441 Q341.613 779.094 342.631 778.932 Q343.65 778.747 344.668 778.747 Q350.455 778.747 353.835 781.918 Q357.214 785.089 357.214 790.506 Q357.214 796.085 353.742 799.186 Q350.27 802.265 343.95 802.265 Q341.775 802.265 339.506 801.895 Q337.261 801.524 334.853 800.784 L334.853 796.085 Q336.937 797.219 339.159 797.774 Q341.381 798.33 343.858 798.33 Q347.863 798.33 350.2 796.224 Q352.538 794.117 352.538 790.506 Q352.538 786.895 350.2 784.788 Q347.863 782.682 343.858 782.682 Q341.983 782.682 340.108 783.099 Q338.256 783.515 336.312 784.395 L336.312 767.034 Z" fill="#000000" fill-rule="nonzero" fill-opacity="1"></path><path clip-path="url(#clip250)" d="M260.687 371.367 L268.326 371.367 L268.326 345.002 L260.016 346.669 L260.016 342.409 L268.28 340.743 L272.956 340.743 L272.956 371.367 L280.594 371.367 L280.594 375.303 L260.687 375.303 L260.687 371.367 Z" fill="#000000" fill-rule="nonzero" fill-opacity="1"></path><path clip-path="url(#clip250)" d="M290.039 369.423 L294.923 369.423 L294.923 375.303 L290.039 375.303 L290.039 369.423 Z" fill="#000000" fill-rule="nonzero" fill-opacity="1"></path><path clip-path="url(#clip250)" d="M315.108 343.821 Q311.497 343.821 309.668 347.386 Q307.863 350.928 307.863 358.057 Q307.863 365.164 309.668 368.729 Q311.497 372.27 315.108 372.27 Q318.742 372.27 320.548 368.729 Q322.377 365.164 322.377 358.057 Q322.377 350.928 320.548 347.386 Q318.742 343.821 315.108 343.821 M315.108 340.118 Q320.918 340.118 323.974 344.724 Q327.052 349.307 327.052 358.057 Q327.052 366.784 323.974 371.391 Q320.918 375.974 315.108 375.974 Q309.298 375.974 306.219 371.391 Q303.164 366.784 303.164 358.057 Q303.164 349.307 306.219 344.724 Q309.298 340.118 315.108 340.118 Z" fill="#000000" fill-rule="nonzero" fill-opacity="1"></path><path clip-path="url(#clip250)" d="M345.27 343.821 Q341.659 343.821 339.83 347.386 Q338.025 350.928 338.025 358.057 Q338.025 365.164 339.83 368.729 Q341.659 372.27 345.27 372.27 Q348.904 372.27 350.71 368.729 Q352.538 365.164 352.538 358.057 Q352.538 350.928 350.71 347.386 Q348.904 343.821 345.27 343.821 M345.27 340.118 Q351.08 340.118 354.136 344.724 Q357.214 349.307 357.214 358.057 Q357.214 366.784 354.136 371.391 Q351.08 375.974 345.27 375.974 Q339.46 375.974 336.381 371.391 Q333.326 366.784 333.326 358.057 Q333.326 349.307 336.381 344.724 Q339.46 340.118 345.27 340.118 Z" fill="#000000" fill-rule="nonzero" fill-opacity="1"></path><path clip-path="url(#clip250)" d="M149.716 1448.32 L155.986 1448.32 Q154.236 1451.98 153.376 1455.23 Q152.517 1458.48 152.517 1461.5 Q152.517 1466.75 154.554 1469.61 Q156.591 1472.45 160.347 1472.45 Q163.498 1472.45 165.121 1470.57 Q166.712 1468.66 167.699 1463.38 L168.495 1459.49 Q169.864 1452.3 173.333 1448.89 Q176.77 1445.46 182.563 1445.46 Q189.47 1445.46 193.035 1450.1 Q196.599 1454.72 196.599 1463.66 Q196.599 1467.04 195.836 1470.86 Q195.072 1474.64 193.576 1478.72 L186.955 1478.72 Q189.152 1474.8 190.266 1471.05 Q191.38 1467.29 191.38 1463.66 Q191.38 1458.16 189.215 1455.16 Q187.051 1452.17 183.041 1452.17 Q179.539 1452.17 177.566 1454.34 Q175.593 1456.47 174.606 1461.37 L173.842 1465.29 Q172.41 1472.48 169.354 1475.69 Q166.299 1478.91 160.856 1478.91 Q154.554 1478.91 150.926 1474.48 Q147.297 1470.03 147.297 1462.23 Q147.297 1458.89 147.902 1455.42 Q148.507 1451.95 149.716 1448.32 Z" fill="#000000" fill-rule="nonzero" fill-opacity="1"></path><path clip-path="url(#clip250)" d="M181.608 1436.29 L160.028 1436.29 L160.028 1430.43 L181.385 1430.43 Q186.446 1430.43 188.992 1428.46 Q191.507 1426.49 191.507 1422.54 Q191.507 1417.8 188.483 1415.06 Q185.459 1412.29 180.24 1412.29 L160.028 1412.29 L160.028 1406.44 L195.676 1406.44 L195.676 1412.29 L190.202 1412.29 Q193.448 1414.42 195.04 1417.26 Q196.599 1420.06 196.599 1423.78 Q196.599 1429.92 192.78 1433.11 Q188.961 1436.29 181.608 1436.29 M159.169 1421.55 L159.169 1421.55 Z" fill="#000000" fill-rule="nonzero" fill-opacity="1"></path><path clip-path="url(#clip250)" d="M165.503 1373.72 Q164.93 1374.7 164.675 1375.88 Q164.389 1377.03 164.389 1378.43 Q164.389 1383.39 167.636 1386.07 Q170.85 1388.71 176.898 1388.71 L195.676 1388.71 L195.676 1394.6 L160.028 1394.6 L160.028 1388.71 L165.567 1388.71 Q162.32 1386.86 160.761 1383.9 Q159.169 1380.94 159.169 1376.71 Q159.169 1376.1 159.265 1375.37 Q159.328 1374.64 159.487 1373.75 L165.503 1373.72 Z" fill="#000000" fill-rule="nonzero" fill-opacity="1"></path><path clip-path="url(#clip250)" d="M160.028 1371.77 L160.028 1365.57 L189.947 1354.43 L160.028 1343.29 L160.028 1337.08 L195.676 1350.45 L195.676 1358.41 L160.028 1371.77 Z" fill="#000000" fill-rule="nonzero" fill-opacity="1"></path><path clip-path="url(#clip250)" d="M160.028 1329 L160.028 1323.14 L195.676 1323.14 L195.676 1329 L160.028 1329 M146.151 1329 L146.151 1323.14 L153.567 1323.14 L153.567 1329 L146.151 1329 Z" fill="#000000" fill-rule="nonzero" fill-opacity="1"></path><path clip-path="url(#clip250)" d="M160.028 1315.09 L160.028 1308.88 L189.947 1297.74 L160.028 1286.6 L160.028 1280.39 L195.676 1293.76 L195.676 1301.72 L160.028 1315.09 Z" fill="#000000" fill-rule="nonzero" fill-opacity="1"></path><path clip-path="url(#clip250)" d="M177.757 1256.11 Q177.757 1263.21 179.38 1265.94 Q181.003 1268.68 184.918 1268.68 Q188.038 1268.68 189.884 1266.64 Q191.698 1264.58 191.698 1261.04 Q191.698 1256.17 188.26 1253.24 Q184.791 1250.28 179.062 1250.28 L177.757 1250.28 L177.757 1256.11 M175.338 1244.43 L195.676 1244.43 L195.676 1250.28 L190.266 1250.28 Q193.512 1252.29 195.072 1255.28 Q196.599 1258.27 196.599 1262.6 Q196.599 1268.08 193.544 1271.32 Q190.457 1274.54 185.3 1274.54 Q179.285 1274.54 176.229 1270.53 Q173.174 1266.49 173.174 1258.5 L173.174 1250.28 L172.601 1250.28 Q168.559 1250.28 166.362 1252.96 Q164.134 1255.6 164.134 1260.41 Q164.134 1263.46 164.866 1266.36 Q165.598 1269.25 167.063 1271.93 L161.652 1271.93 Q160.41 1268.71 159.806 1265.69 Q159.169 1262.67 159.169 1259.8 Q159.169 1252.07 163.18 1248.25 Q167.19 1244.43 175.338 1244.43 Z" fill="#000000" fill-rule="nonzero" fill-opacity="1"></path><path clip-path="url(#clip250)" d="M146.151 1232.37 L146.151 1226.51 L195.676 1226.51 L195.676 1232.37 L146.151 1232.37 Z" fill="#000000" fill-rule="nonzero" fill-opacity="1"></path><path clip-path="url(#clip250)" d="M153.44 1186.85 L171.296 1186.85 L171.296 1178.77 Q171.296 1174.28 168.972 1171.83 Q166.649 1169.38 162.352 1169.38 Q158.087 1169.38 155.763 1171.83 Q153.44 1174.28 153.44 1178.77 L153.44 1186.85 M148.156 1193.28 L148.156 1178.77 Q148.156 1170.78 151.785 1166.7 Q155.382 1162.6 162.352 1162.6 Q169.386 1162.6 172.983 1166.7 Q176.579 1170.78 176.579 1178.77 L176.579 1186.85 L195.676 1186.85 L195.676 1193.28 L148.156 1193.28 Z" fill="#000000" fill-rule="nonzero" fill-opacity="1"></path><path clip-path="url(#clip250)" d="M165.503 1134.72 Q164.93 1135.7 164.675 1136.88 Q164.389 1138.03 164.389 1139.43 Q164.389 1144.39 167.636 1147.06 Q170.85 1149.71 176.898 1149.71 L195.676 1149.71 L195.676 1155.59 L160.028 1155.59 L160.028 1149.71 L165.567 1149.71 Q162.32 1147.86 160.761 1144.9 Q159.169 1141.94 159.169 1137.71 Q159.169 1137.1 159.265 1136.37 Q159.328 1135.64 159.487 1134.75 L165.503 1134.72 Z" fill="#000000" fill-rule="nonzero" fill-opacity="1"></path><path clip-path="url(#clip250)" d="M164.134 1116.19 Q164.134 1120.9 167.826 1123.64 Q171.487 1126.38 177.884 1126.38 Q184.282 1126.38 187.974 1123.67 Q191.634 1120.93 191.634 1116.19 Q191.634 1111.51 187.942 1108.77 Q184.25 1106.04 177.884 1106.04 Q171.55 1106.04 167.858 1108.77 Q164.134 1111.51 164.134 1116.19 M159.169 1116.19 Q159.169 1108.55 164.134 1104.19 Q169.1 1099.83 177.884 1099.83 Q186.637 1099.83 191.634 1104.19 Q196.599 1108.55 196.599 1116.19 Q196.599 1123.86 191.634 1128.22 Q186.637 1132.55 177.884 1132.55 Q169.1 1132.55 164.134 1128.22 Q159.169 1123.86 159.169 1116.19 Z" fill="#000000" fill-rule="nonzero" fill-opacity="1"></path><path clip-path="url(#clip250)" d="M177.884 1064.53 Q171.423 1064.53 167.763 1067.21 Q164.071 1069.85 164.071 1074.5 Q164.071 1079.14 167.763 1081.82 Q171.423 1084.46 177.884 1084.46 Q184.345 1084.46 188.038 1081.82 Q191.698 1079.14 191.698 1074.5 Q191.698 1069.85 188.038 1067.21 Q184.345 1064.53 177.884 1064.53 M165.439 1084.46 Q162.256 1082.61 160.729 1079.81 Q159.169 1076.98 159.169 1073.06 Q159.169 1066.57 164.325 1062.53 Q169.482 1058.45 177.884 1058.45 Q186.287 1058.45 191.443 1062.53 Q196.599 1066.57 196.599 1073.06 Q196.599 1076.98 195.072 1079.81 Q193.512 1082.61 190.329 1084.46 L195.676 1084.46 L195.676 1090.35 L146.151 1090.35 L146.151 1084.46 L165.439 1084.46 Z" fill="#000000" fill-rule="nonzero" fill-opacity="1"></path><path clip-path="url(#clip250)" d="M177.757 1032.55 Q177.757 1039.64 179.38 1042.38 Q181.003 1045.12 184.918 1045.12 Q188.038 1045.12 189.884 1043.08 Q191.698 1041.01 191.698 1037.48 Q191.698 1032.61 188.26 1029.68 Q184.791 1026.72 179.062 1026.72 L177.757 1026.72 L177.757 1032.55 M175.338 1020.86 L195.676 1020.86 L195.676 1026.72 L190.266 1026.72 Q193.512 1028.73 195.072 1031.72 Q196.599 1034.71 196.599 1039.04 Q196.599 1044.51 193.544 1047.76 Q190.457 1050.97 185.3 1050.97 Q179.285 1050.97 176.229 1046.96 Q173.174 1042.92 173.174 1034.93 L173.174 1026.72 L172.601 1026.72 Q168.559 1026.72 166.362 1029.39 Q164.134 1032.04 164.134 1036.84 Q164.134 1039.9 164.866 1042.79 Q165.598 1045.69 167.063 1048.36 L161.652 1048.36 Q160.41 1045.15 159.806 1042.13 Q159.169 1039.1 159.169 1036.24 Q159.169 1028.5 163.18 1024.68 Q167.19 1020.86 175.338 1020.86 Z" fill="#000000" fill-rule="nonzero" fill-opacity="1"></path><path clip-path="url(#clip250)" d="M177.884 983.211 Q171.423 983.211 167.763 985.885 Q164.071 988.527 164.071 993.174 Q164.071 997.821 167.763 1000.49 Q171.423 1003.14 177.884 1003.14 Q184.345 1003.14 188.038 1000.49 Q191.698 997.821 191.698 993.174 Q191.698 988.527 188.038 985.885 Q184.345 983.211 177.884 983.211 M165.439 1003.14 Q162.256 1001.29 160.729 998.489 Q159.169 995.656 159.169 991.741 Q159.169 985.248 164.325 981.206 Q169.482 977.132 177.884 977.132 Q186.287 977.132 191.443 981.206 Q196.599 985.248 196.599 991.741 Q196.599 995.656 195.072 998.489 Q193.512 1001.29 190.329 1003.14 L195.676 1003.14 L195.676 1009.02 L146.151 1009.02 L146.151 1003.14 L165.439 1003.14 Z" fill="#000000" fill-rule="nonzero" fill-opacity="1"></path><path clip-path="url(#clip250)" d="M160.028 967.424 L160.028 961.568 L195.676 961.568 L195.676 967.424 L160.028 967.424 M146.151 967.424 L146.151 961.568 L153.567 961.568 L153.567 967.424 L146.151 967.424 Z" fill="#000000" fill-rule="nonzero" fill-opacity="1"></path><path clip-path="url(#clip250)" d="M146.151 949.314 L146.151 943.458 L195.676 943.458 L195.676 949.314 L146.151 949.314 Z" fill="#000000" fill-rule="nonzero" fill-opacity="1"></path><path clip-path="url(#clip250)" d="M160.028 931.204 L160.028 925.347 L195.676 925.347 L195.676 931.204 L160.028 931.204 M146.151 931.204 L146.151 925.347 L153.567 925.347 L153.567 931.204 L146.151 931.204 Z" fill="#000000" fill-rule="nonzero" fill-opacity="1"></path><path clip-path="url(#clip250)" d="M149.907 907.3 L160.028 907.3 L160.028 895.237 L164.58 895.237 L164.58 907.3 L183.932 907.3 Q188.292 907.3 189.534 906.123 Q190.775 904.913 190.775 901.253 L190.775 895.237 L195.676 895.237 L195.676 901.253 Q195.676 908.032 193.162 910.61 Q190.616 913.189 183.932 913.189 L164.58 913.189 L164.58 917.485 L160.028 917.485 L160.028 913.189 L149.907 913.189 L149.907 907.3 Z" fill="#000000" fill-rule="nonzero" fill-opacity="1"></path><path clip-path="url(#clip250)" d="M198.987 872.703 Q205.352 875.185 207.294 877.541 Q209.235 879.896 209.235 883.843 L209.235 888.521 L204.334 888.521 L204.334 885.084 Q204.334 882.665 203.188 881.328 Q202.042 879.991 197.777 878.368 L195.104 877.318 L160.028 891.736 L160.028 885.53 L187.91 874.39 L160.028 863.25 L160.028 857.043 L198.987 872.703 Z" fill="#000000" fill-rule="nonzero" fill-opacity="1"></path><path clip-path="url(#clip250)" d="M951.187 12.096 L959.37 12.096 L959.37 37.6572 L986.511 12.096 L997.043 12.096 L967.026 40.2903 L999.19 72.576 L988.415 72.576 L959.37 43.45 L959.37 72.576 L951.187 72.576 L951.187 12.096 Z" fill="#000000" fill-rule="nonzero" fill-opacity="1"></path><path clip-path="url(#clip250)" d="M1024.43 49.7694 Q1015.39 49.7694 1011.91 51.8354 Q1008.43 53.9013 1008.43 58.8839 Q1008.43 62.8538 1011.02 65.2034 Q1013.65 67.5124 1018.15 67.5124 Q1024.35 67.5124 1028.07 63.1374 Q1031.84 58.7219 1031.84 51.4303 L1031.84 49.7694 L1024.43 49.7694 M1039.29 46.6907 L1039.29 72.576 L1031.84 72.576 L1031.84 65.6895 Q1029.29 69.8214 1025.48 71.8063 Q1021.67 73.7508 1016.16 73.7508 Q1009.2 73.7508 1005.06 69.8619 Q1000.97 65.9325 1000.97 59.3701 Q1000.97 51.7138 1006.08 47.825 Q1011.22 43.9361 1021.39 43.9361 L1031.84 43.9361 L1031.84 43.2069 Q1031.84 38.0623 1028.44 35.2672 Q1025.08 32.4315 1018.96 32.4315 Q1015.07 32.4315 1011.38 33.3632 Q1007.7 34.295 1004.29 36.1584 L1004.29 29.2718 Q1008.39 27.692 1012.23 26.9223 Q1016.08 26.1121 1019.73 26.1121 Q1029.57 26.1121 1034.43 31.2163 Q1039.29 36.3204 1039.29 46.6907 Z" fill="#000000" fill-rule="nonzero" fill-opacity="1"></path><path clip-path="url(#clip250)" d="M1061.86 65.7705 L1061.86 89.8329 L1054.36 89.8329 L1054.36 27.2059 L1061.86 27.2059 L1061.86 34.0924 Q1064.21 30.0415 1067.77 28.0971 Q1071.38 26.1121 1076.36 26.1121 Q1084.62 26.1121 1089.77 32.6746 Q1094.95 39.2371 1094.95 49.9314 Q1094.95 60.6258 1089.77 67.1883 Q1084.62 73.7508 1076.36 73.7508 Q1071.38 73.7508 1067.77 71.8063 Q1064.21 69.8214 1061.86 65.7705 M1087.22 49.9314 Q1087.22 41.7081 1083.81 37.0496 Q1080.45 32.3505 1074.54 32.3505 Q1068.62 32.3505 1065.22 37.0496 Q1061.86 41.7081 1061.86 49.9314 Q1061.86 58.1548 1065.22 62.8538 Q1068.62 67.5124 1074.54 67.5124 Q1080.45 67.5124 1083.81 62.8538 Q1087.22 58.1548 1087.22 49.9314 Z" fill="#000000" fill-rule="nonzero" fill-opacity="1"></path><path clip-path="url(#clip250)" d="M1107.31 9.54393 L1114.76 9.54393 L1114.76 72.576 L1107.31 72.576 L1107.31 9.54393 Z" fill="#000000" fill-rule="nonzero" fill-opacity="1"></path><path clip-path="url(#clip250)" d="M1150.98 49.7694 Q1141.94 49.7694 1138.46 51.8354 Q1134.98 53.9013 1134.98 58.8839 Q1134.98 62.8538 1137.57 65.2034 Q1140.2 67.5124 1144.7 67.5124 Q1150.9 67.5124 1154.62 63.1374 Q1158.39 58.7219 1158.39 51.4303 L1158.39 49.7694 L1150.98 49.7694 M1165.84 46.6907 L1165.84 72.576 L1158.39 72.576 L1158.39 65.6895 Q1155.84 69.8214 1152.03 71.8063 Q1148.22 73.7508 1142.71 73.7508 Q1135.75 73.7508 1131.61 69.8619 Q1127.52 65.9325 1127.52 59.3701 Q1127.52 51.7138 1132.63 47.825 Q1137.77 43.9361 1147.94 43.9361 L1158.39 43.9361 L1158.39 43.2069 Q1158.39 38.0623 1154.99 35.2672 Q1151.63 32.4315 1145.51 32.4315 Q1141.62 32.4315 1137.93 33.3632 Q1134.25 34.295 1130.84 36.1584 L1130.84 29.2718 Q1134.94 27.692 1138.78 26.9223 Q1142.63 26.1121 1146.28 26.1121 Q1156.12 26.1121 1160.98 31.2163 Q1165.84 36.3204 1165.84 46.6907 Z" fill="#000000" fill-rule="nonzero" fill-opacity="1"></path><path clip-path="url(#clip250)" d="M1218.91 45.1919 L1218.91 72.576 L1211.46 72.576 L1211.46 45.4349 Q1211.46 38.994 1208.95 35.7938 Q1206.43 32.5936 1201.41 32.5936 Q1195.38 32.5936 1191.89 36.4419 Q1188.41 40.2903 1188.41 46.9338 L1188.41 72.576 L1180.91 72.576 L1180.91 27.2059 L1188.41 27.2059 L1188.41 34.2544 Q1191.08 30.163 1194.69 28.1376 Q1198.33 26.1121 1203.07 26.1121 Q1210.89 26.1121 1214.9 30.9732 Q1218.91 35.7938 1218.91 45.1919 Z" fill="#000000" fill-rule="nonzero" fill-opacity="1"></path><path clip-path="url(#clip250)" d="M1230.01 46.5287 L1251.85 46.5287 L1251.85 53.1722 L1230.01 53.1722 L1230.01 46.5287 Z" fill="#000000" fill-rule="nonzero" fill-opacity="1"></path><path clip-path="url(#clip250)" d="M1264.04 12.096 L1276.23 12.096 L1291.67 53.2532 L1307.18 12.096 L1319.37 12.096 L1319.37 72.576 L1311.39 72.576 L1311.39 19.4686 L1295.8 60.9499 L1287.57 60.9499 L1271.98 19.4686 L1271.98 72.576 L1264.04 72.576 L1264.04 12.096 Z" fill="#000000" fill-rule="nonzero" fill-opacity="1"></path><path clip-path="url(#clip250)" d="M1374.1 48.0275 L1374.1 51.6733 L1339.83 51.6733 Q1340.32 59.3701 1344.45 63.421 Q1348.62 67.4314 1356.03 67.4314 Q1360.33 67.4314 1364.34 66.3781 Q1368.39 65.3249 1372.36 63.2184 L1372.36 70.267 Q1368.35 71.9684 1364.14 72.8596 Q1359.92 73.7508 1355.59 73.7508 Q1344.73 73.7508 1338.37 67.4314 Q1332.05 61.1119 1332.05 50.3365 Q1332.05 39.1965 1338.05 32.6746 Q1344.08 26.1121 1354.29 26.1121 Q1363.45 26.1121 1368.75 32.0264 Q1374.1 37.9003 1374.1 48.0275 M1366.65 45.84 Q1366.57 39.7232 1363.2 36.0774 Q1359.88 32.4315 1354.37 32.4315 Q1348.14 32.4315 1344.37 35.9558 Q1340.64 39.4801 1340.07 45.8805 L1366.65 45.84 Z" fill="#000000" fill-rule="nonzero" fill-opacity="1"></path><path clip-path="url(#clip250)" d="M1386.34 27.2059 L1393.79 27.2059 L1393.79 72.576 L1386.34 72.576 L1386.34 27.2059 M1386.34 9.54393 L1393.79 9.54393 L1393.79 18.9825 L1386.34 18.9825 L1386.34 9.54393 Z" fill="#000000" fill-rule="nonzero" fill-opacity="1"></path><path clip-path="url(#clip250)" d="M1448.19 48.0275 L1448.19 51.6733 L1413.92 51.6733 Q1414.41 59.3701 1418.54 63.421 Q1422.71 67.4314 1430.13 67.4314 Q1434.42 67.4314 1438.43 66.3781 Q1442.48 65.3249 1446.45 63.2184 L1446.45 70.267 Q1442.44 71.9684 1438.23 72.8596 Q1434.01 73.7508 1429.68 73.7508 Q1418.82 73.7508 1412.46 67.4314 Q1406.14 61.1119 1406.14 50.3365 Q1406.14 39.1965 1412.14 32.6746 Q1418.18 26.1121 1428.38 26.1121 Q1437.54 26.1121 1442.85 32.0264 Q1448.19 37.9003 1448.19 48.0275 M1440.74 45.84 Q1440.66 39.7232 1437.3 36.0774 Q1433.97 32.4315 1428.46 32.4315 Q1422.23 32.4315 1418.46 35.9558 Q1414.73 39.4801 1414.17 45.8805 L1440.74 45.84 Z" fill="#000000" fill-rule="nonzero" fill-opacity="1"></path><path clip-path="url(#clip250)" d="M1486.72 34.1734 Q1485.46 33.4443 1483.96 33.1202 Q1482.5 32.7556 1480.72 32.7556 Q1474.4 32.7556 1471 36.8875 Q1467.64 40.9789 1467.64 48.6757 L1467.64 72.576 L1460.14 72.576 L1460.14 27.2059 L1467.64 27.2059 L1467.64 34.2544 Q1469.99 30.1225 1473.75 28.1376 Q1477.52 26.1121 1482.91 26.1121 Q1483.68 26.1121 1484.61 26.2337 Q1485.54 26.3147 1486.68 26.5172 L1486.72 34.1734 Z" fill="#000000" fill-rule="nonzero" fill-opacity="1"></path><path clip-path="url(#clip250)" d="M1557.49 14.0809 L1557.49 22.0612 Q1552.83 19.8332 1548.7 18.7395 Q1544.56 17.6457 1540.72 17.6457 Q1534.03 17.6457 1530.39 20.2383 Q1526.78 22.8309 1526.78 27.611 Q1526.78 31.6214 1529.17 33.6873 Q1531.6 35.7128 1538.33 36.9686 L1543.27 37.9813 Q1552.42 39.7232 1556.76 44.1387 Q1561.13 48.5136 1561.13 55.8863 Q1561.13 64.6767 1555.22 69.2137 Q1549.34 73.7508 1537.96 73.7508 Q1533.67 73.7508 1528.81 72.7785 Q1523.99 71.8063 1518.8 69.9024 L1518.8 61.4765 Q1523.78 64.2716 1528.56 65.6895 Q1533.34 67.1073 1537.96 67.1073 Q1544.97 67.1073 1548.78 64.3527 Q1552.58 61.598 1552.58 56.4939 Q1552.58 52.0379 1549.83 49.5264 Q1547.12 47.0148 1540.88 45.759 L1535.89 44.7868 Q1526.74 42.9639 1522.65 39.075 Q1518.56 35.1862 1518.56 28.2591 Q1518.56 20.2383 1524.19 15.6203 Q1529.86 11.0023 1539.78 11.0023 Q1544.04 11.0023 1548.45 11.7719 Q1552.87 12.5416 1557.49 14.0809 Z" fill="#000000" fill-rule="nonzero" fill-opacity="1"></path><path clip-path="url(#clip250)" d="M1572.8 54.671 L1572.8 27.2059 L1580.25 27.2059 L1580.25 54.3874 Q1580.25 60.8284 1582.76 64.0691 Q1585.28 67.2693 1590.3 67.2693 Q1596.33 67.2693 1599.82 63.421 Q1603.34 59.5726 1603.34 52.9291 L1603.34 27.2059 L1610.8 27.2059 L1610.8 72.576 L1603.34 72.576 L1603.34 65.6084 Q1600.63 69.7404 1597.02 71.7658 Q1593.46 73.7508 1588.72 73.7508 Q1580.9 73.7508 1576.85 68.8897 Q1572.8 64.0286 1572.8 54.671 M1591.55 26.1121 L1591.55 26.1121 Z" fill="#000000" fill-rule="nonzero" fill-opacity="1"></path><path clip-path="url(#clip250)" d="M1652.44 34.1734 Q1651.18 33.4443 1649.68 33.1202 Q1648.23 32.7556 1646.44 32.7556 Q1640.12 32.7556 1636.72 36.8875 Q1633.36 40.9789 1633.36 48.6757 L1633.36 72.576 L1625.87 72.576 L1625.87 27.2059 L1633.36 27.2059 L1633.36 34.2544 Q1635.71 30.1225 1639.48 28.1376 Q1643.24 26.1121 1648.63 26.1121 Q1649.4 26.1121 1650.33 26.2337 Q1651.26 26.3147 1652.4 26.5172 L1652.44 34.1734 Z" fill="#000000" fill-rule="nonzero" fill-opacity="1"></path><path clip-path="url(#clip250)" d="M1654.91 27.2059 L1662.81 27.2059 L1676.99 65.2844 L1691.17 27.2059 L1699.07 27.2059 L1682.05 72.576 L1671.92 72.576 L1654.91 27.2059 Z" fill="#000000" fill-rule="nonzero" fill-opacity="1"></path><path clip-path="url(#clip250)" d="M1709.35 27.2059 L1716.81 27.2059 L1716.81 72.576 L1709.35 72.576 L1709.35 27.2059 M1709.35 9.54393 L1716.81 9.54393 L1716.81 18.9825 L1709.35 18.9825 L1709.35 9.54393 Z" fill="#000000" fill-rule="nonzero" fill-opacity="1"></path><path clip-path="url(#clip250)" d="M1727.06 27.2059 L1734.96 27.2059 L1749.13 65.2844 L1763.31 27.2059 L1771.21 27.2059 L1754.2 72.576 L1744.07 72.576 L1727.06 27.2059 Z" fill="#000000" fill-rule="nonzero" fill-opacity="1"></path><path clip-path="url(#clip250)" d="M1802.12 49.7694 Q1793.09 49.7694 1789.6 51.8354 Q1786.12 53.9013 1786.12 58.8839 Q1786.12 62.8538 1788.71 65.2034 Q1791.34 67.5124 1795.84 67.5124 Q1802.04 67.5124 1805.77 63.1374 Q1809.53 58.7219 1809.53 51.4303 L1809.53 49.7694 L1802.12 49.7694 M1816.99 46.6907 L1816.99 72.576 L1809.53 72.576 L1809.53 65.6895 Q1806.98 69.8214 1803.17 71.8063 Q1799.37 73.7508 1793.86 73.7508 Q1786.89 73.7508 1782.76 69.8619 Q1778.67 65.9325 1778.67 59.3701 Q1778.67 51.7138 1783.77 47.825 Q1788.91 43.9361 1799.08 43.9361 L1809.53 43.9361 L1809.53 43.2069 Q1809.53 38.0623 1806.13 35.2672 Q1802.77 32.4315 1796.65 32.4315 Q1792.76 32.4315 1789.08 33.3632 Q1785.39 34.295 1781.99 36.1584 L1781.99 29.2718 Q1786.08 27.692 1789.93 26.9223 Q1793.78 26.1121 1797.42 26.1121 Q1807.26 26.1121 1812.13 31.2163 Q1816.99 36.3204 1816.99 46.6907 Z" fill="#000000" fill-rule="nonzero" fill-opacity="1"></path><path clip-path="url(#clip250)" d="M1832.34 9.54393 L1839.79 9.54393 L1839.79 72.576 L1832.34 72.576 L1832.34 9.54393 Z" fill="#000000" fill-rule="nonzero" fill-opacity="1"></path><path clip-path="url(#clip250)" d="M1927.37 16.7545 L1927.37 25.383 Q1923.24 21.5346 1918.54 19.6307 Q1913.88 17.7268 1908.62 17.7268 Q1898.25 17.7268 1892.74 24.0867 Q1887.23 30.4061 1887.23 42.3968 Q1887.23 54.3469 1892.74 60.7069 Q1898.25 67.0263 1908.62 67.0263 Q1913.88 67.0263 1918.54 65.1223 Q1923.24 63.2184 1927.37 59.3701 L1927.37 67.9175 Q1923.08 70.8341 1918.26 72.2924 Q1913.48 73.7508 1908.13 73.7508 Q1894.4 73.7508 1886.5 65.3654 Q1878.6 56.9395 1878.6 42.3968 Q1878.6 27.8135 1886.5 19.4281 Q1894.4 11.0023 1908.13 11.0023 Q1913.56 11.0023 1918.34 12.4606 Q1923.16 13.8784 1927.37 16.7545 Z" fill="#000000" fill-rule="nonzero" fill-opacity="1"></path><path clip-path="url(#clip250)" d="M1938.92 54.671 L1938.92 27.2059 L1946.37 27.2059 L1946.37 54.3874 Q1946.37 60.8284 1948.88 64.0691 Q1951.4 67.2693 1956.42 67.2693 Q1962.45 67.2693 1965.94 63.421 Q1969.46 59.5726 1969.46 52.9291 L1969.46 27.2059 L1976.92 27.2059 L1976.92 72.576 L1969.46 72.576 L1969.46 65.6084 Q1966.75 69.7404 1963.14 71.7658 Q1959.58 73.7508 1954.84 73.7508 Q1947.02 73.7508 1942.97 68.8897 Q1938.92 64.0286 1938.92 54.671 M1957.67 26.1121 L1957.67 26.1121 Z" fill="#000000" fill-rule="nonzero" fill-opacity="1"></path><path clip-path="url(#clip250)" d="M2018.56 34.1734 Q2017.3 33.4443 2015.81 33.1202 Q2014.35 32.7556 2012.56 32.7556 Q2006.25 32.7556 2002.84 36.8875 Q1999.48 40.9789 1999.48 48.6757 L1999.48 72.576 L1991.99 72.576 L1991.99 27.2059 L1999.48 27.2059 L1999.48 34.2544 Q2001.83 30.1225 2005.6 28.1376 Q2009.36 26.1121 2014.75 26.1121 Q2015.52 26.1121 2016.45 26.2337 Q2017.39 26.3147 2018.52 26.5172 L2018.56 34.1734 Z" fill="#000000" fill-rule="nonzero" fill-opacity="1"></path><path clip-path="url(#clip250)" d="M2021.03 27.2059 L2028.93 27.2059 L2043.11 65.2844 L2057.29 27.2059 L2065.19 27.2059 L2048.17 72.576 L2038.04 72.576 L2021.03 27.2059 Z" fill="#000000" fill-rule="nonzero" fill-opacity="1"></path><path clip-path="url(#clip250)" d="M2114.28 48.0275 L2114.28 51.6733 L2080.01 51.6733 Q2080.5 59.3701 2084.63 63.421 Q2088.8 67.4314 2096.22 67.4314 Q2100.51 67.4314 2104.52 66.3781 Q2108.57 65.3249 2112.54 63.2184 L2112.54 70.267 Q2108.53 71.9684 2104.32 72.8596 Q2100.1 73.7508 2095.77 73.7508 Q2084.91 73.7508 2078.55 67.4314 Q2072.23 61.1119 2072.23 50.3365 Q2072.23 39.1965 2078.23 32.6746 Q2084.27 26.1121 2094.47 26.1121 Q2103.63 26.1121 2108.94 32.0264 Q2114.28 37.9003 2114.28 48.0275 M2106.83 45.84 Q2106.75 39.7232 2103.39 36.0774 Q2100.06 32.4315 2094.55 32.4315 Q2088.32 32.4315 2084.55 35.9558 Q2080.82 39.4801 2080.26 45.8805 L2106.83 45.84 Z" fill="#000000" fill-rule="nonzero" fill-opacity="1"></path><path clip-path="url(#clip250)" d="M2155.44 28.5427 L2155.44 35.5912 Q2152.28 33.9709 2148.88 33.1607 Q2145.47 32.3505 2141.83 32.3505 Q2136.28 32.3505 2133.48 34.0519 Q2130.73 35.7533 2130.73 39.156 Q2130.73 41.7486 2132.71 43.2475 Q2134.7 44.7058 2140.69 46.0426 L2143.25 46.6097 Q2151.19 48.3111 2154.51 51.4303 Q2157.87 54.509 2157.87 60.0587 Q2157.87 66.3781 2152.85 70.0644 Q2147.86 73.7508 2139.11 73.7508 Q2135.47 73.7508 2131.5 73.0216 Q2127.57 72.3329 2123.19 70.9151 L2123.19 63.2184 Q2127.33 65.3654 2131.34 66.4591 Q2135.35 67.5124 2139.28 67.5124 Q2144.54 67.5124 2147.38 65.73 Q2150.21 63.9071 2150.21 60.6258 Q2150.21 57.5877 2148.15 55.9673 Q2146.12 54.3469 2139.2 52.8481 L2136.6 52.2405 Q2129.68 50.7821 2126.6 47.7845 Q2123.52 44.7463 2123.52 39.4801 Q2123.52 33.0797 2128.06 29.5959 Q2132.59 26.1121 2140.94 26.1121 Q2145.07 26.1121 2148.72 26.7198 Q2152.36 27.3274 2155.44 28.5427 Z" fill="#000000" fill-rule="nonzero" fill-opacity="1"></path><path clip-path="url(#clip250)" d="M2228.68 49.9314 Q2228.68 41.7081 2225.28 37.0496 Q2221.92 32.3505 2216 32.3505 Q2210.09 32.3505 2206.68 37.0496 Q2203.32 41.7081 2203.32 49.9314 Q2203.32 58.1548 2206.68 62.8538 Q2210.09 67.5124 2216 67.5124 Q2221.92 67.5124 2225.28 62.8538 Q2228.68 58.1548 2228.68 49.9314 M2203.32 34.0924 Q2205.67 30.0415 2209.24 28.0971 Q2212.84 26.1121 2217.82 26.1121 Q2226.09 26.1121 2231.23 32.6746 Q2236.42 39.2371 2236.42 49.9314 Q2236.42 60.6258 2231.23 67.1883 Q2226.09 73.7508 2217.82 73.7508 Q2212.84 73.7508 2209.24 71.8063 Q2205.67 69.8214 2203.32 65.7705 L2203.32 72.576 L2195.83 72.576 L2195.83 9.54393 L2203.32 9.54393 L2203.32 34.0924 Z" fill="#000000" fill-rule="nonzero" fill-opacity="1"></path><path clip-path="url(#clip250)" d="M2267.65 76.7889 Q2264.49 84.8907 2261.49 87.3618 Q2258.5 89.8329 2253.47 89.8329 L2247.52 89.8329 L2247.52 83.5945 L2251.89 83.5945 Q2254.97 83.5945 2256.67 82.1361 Q2258.37 80.6778 2260.44 75.2496 L2261.78 71.8468 L2243.43 27.2059 L2251.32 27.2059 L2265.5 62.6918 L2279.68 27.2059 L2287.58 27.2059 L2267.65 76.7889 Z" fill="#000000" fill-rule="nonzero" fill-opacity="1"></path><path clip-path="url(#clip250)" d="M2360.82 14.0809 L2360.82 22.0612 Q2356.16 19.8332 2352.03 18.7395 Q2347.9 17.6457 2344.05 17.6457 Q2337.37 17.6457 2333.72 20.2383 Q2330.12 22.8309 2330.12 27.611 Q2330.12 31.6214 2332.51 33.6873 Q2334.94 35.7128 2341.66 36.9686 L2346.6 37.9813 Q2355.76 39.7232 2360.09 44.1387 Q2364.47 48.5136 2364.47 55.8863 Q2364.47 64.6767 2358.55 69.2137 Q2352.68 73.7508 2341.3 73.7508 Q2337 73.7508 2332.14 72.7785 Q2327.32 71.8063 2322.13 69.9024 L2322.13 61.4765 Q2327.12 64.2716 2331.9 65.6895 Q2336.68 67.1073 2341.3 67.1073 Q2348.3 67.1073 2352.11 64.3527 Q2355.92 61.598 2355.92 56.4939 Q2355.92 52.0379 2353.16 49.5264 Q2350.45 47.0148 2344.21 45.759 L2339.23 44.7868 Q2330.07 42.9639 2325.98 39.075 Q2321.89 35.1862 2321.89 28.2591 Q2321.89 20.2383 2327.52 15.6203 Q2333.19 11.0023 2343.12 11.0023 Q2347.37 11.0023 2351.79 11.7719 Q2356.2 12.5416 2360.82 14.0809 Z" fill="#000000" fill-rule="nonzero" fill-opacity="1"></path><path clip-path="url(#clip250)" d="M2415.71 48.0275 L2415.71 51.6733 L2381.44 51.6733 Q2381.93 59.3701 2386.06 63.421 Q2390.23 67.4314 2397.64 67.4314 Q2401.94 67.4314 2405.95 66.3781 Q2410 65.3249 2413.97 63.2184 L2413.97 70.267 Q2409.96 71.9684 2405.75 72.8596 Q2401.53 73.7508 2397.2 73.7508 Q2386.34 73.7508 2379.98 67.4314 Q2373.66 61.1119 2373.66 50.3365 Q2373.66 39.1965 2379.66 32.6746 Q2385.69 26.1121 2395.9 26.1121 Q2405.06 26.1121 2410.36 32.0264 Q2415.71 37.9003 2415.71 48.0275 M2408.26 45.84 Q2408.18 39.7232 2404.81 36.0774 Q2401.49 32.4315 2395.98 32.4315 Q2389.74 32.4315 2385.98 35.9558 Q2382.25 39.4801 2381.68 45.8805 L2408.26 45.84 Z" fill="#000000" fill-rule="nonzero" fill-opacity="1"></path><path clip-path="url(#clip250)" d="M2464.2 27.2059 L2447.79 49.2833 L2465.05 72.576 L2456.26 72.576 L2443.05 54.752 L2429.85 72.576 L2421.06 72.576 L2438.68 48.8377 L2422.56 27.2059 L2431.35 27.2059 L2443.38 43.369 L2455.41 27.2059 L2464.2 27.2059 Z" fill="#000000" fill-rule="nonzero" fill-opacity="1"></path><polyline clip-path="url(#clip252)" style="stroke:#4682b4; stroke-linecap:round; stroke-linejoin:round; stroke-width:8; stroke-opacity:1; fill:none" points="493.467,395.091 495.884,395.091 495.884,407.448 498.301,407.448 498.301,432.16 503.136,432.16 503.136,444.517 529.725,444.517 529.725,456.873 539.394,456.873 539.394,469.229 541.811,469.229 541.811,481.585 594.99,481.585 594.99,506.298 597.407,506.298 597.407,518.654 609.493,518.654 609.493,531.01 611.911,531.01 611.911,543.367 623.997,543.367 623.997,568.079 638.5,568.079 638.5,580.435 662.672,580.435 662.672,592.792 679.593,592.792 679.593,617.504 689.262,617.504 689.262,629.861 691.679,629.861 691.679,642.217 696.513,642.217 696.513,654.573 720.685,654.573 720.685,666.929 725.52,666.929 725.52,679.286 732.772,679.286 732.772,691.642 747.275,691.642 747.275,703.998 752.109,703.998 752.109,716.354 783.533,716.354 783.533,728.711 785.95,728.711 785.95,753.423 793.202,753.423 793.202,765.779 810.122,765.779 810.122,778.136 814.957,778.136 814.957,790.492 822.209,790.492 822.209,802.848 843.964,802.848 843.964,827.561 860.884,827.561 860.884,864.63 868.136,864.63 868.136,876.986 877.805,876.986 877.805,889.342 887.473,889.342 889.891,889.342 889.891,901.83 892.308,901.83 892.308,914.318 894.725,914.318 894.725,926.805 899.56,926.805 899.56,951.781 901.977,951.781 901.977,964.268 904.394,964.268 904.394,989.244 909.228,989.244 909.228,1001.73 914.063,1001.73 921.315,1001.73 923.732,1001.73 923.732,1014.52 928.566,1014.52 940.652,1014.52 943.069,1014.52 943.069,1027.63 955.156,1027.63 955.156,1040.9 967.242,1040.9 967.242,1054.18 974.493,1054.18 974.493,1067.46 979.328,1067.46 979.328,1080.73 993.831,1080.73 993.831,1094.01 1001.08,1094.01 1003.5,1094.01 1003.5,1107.47 1005.92,1107.47 1005.92,1121.12 1010.75,1121.12 1020.42,1121.12 1020.42,1135.19 1022.84,1135.19 1022.84,1149.25 1039.76,1149.25 1044.59,1149.25 1044.59,1163.53 1061.51,1163.53 1061.51,1177.81 1092.94,1177.81 1112.27,1177.81 1112.27,1192.32 1117.11,1192.32 1117.11,1206.84 1119.53,1206.84 1119.53,1221.35 1141.28,1221.35 1150.95,1221.35 1150.95,1236.12 1153.37,1236.12 1153.37,1250.89 1155.78,1250.89 1155.78,1265.93 1158.2,1265.93 1158.2,1280.97 1163.04,1280.97 1163.04,1296.02 1170.29,1296.02 1170.29,1311.06 1172.71,1311.06 1192.04,1311.06 1194.46,1311.06 1194.46,1326.73 1199.29,1326.73 1199.29,1342.74 1206.55,1342.74 1206.55,1359.11 1216.22,1359.11 1216.22,1375.49 1240.39,1375.49 1240.39,1391.86 1262.14,1391.86 1262.14,1408.23 1281.48,1408.23 1281.48,1424.61 1320.16,1424.61 1320.16,1457.35 1344.33,1457.35 1344.33,1473.73 1346.74,1473.73 1346.74,1490.1 1363.67,1490.1 1363.67,1506.48 1402.34,1506.48 1402.34,1522.85 1409.59,1522.85 1409.59,1539.22 1419.26,1539.22 1419.26,1555.6 1443.43,1555.6 1465.19,1555.6 1501.45,1555.6 1501.45,1573.1 1503.86,1573.1 1503.86,1590.6 1535.29,1590.6 1535.29,1608.11 1540.12,1608.11 1566.71,1608.11 1566.71,1626.31 1571.55,1626.31 1571.55,1644.51 1573.96,1644.51 1578.8,1644.51 1578.8,1663.54 1619.89,1663.54 1619.89,1682.57 1721.41,1682.57 1721.41,1701.61 1733.5,1701.61 1733.5,1720.64 1755.25,1720.64 1755.25,1739.67 1815.69,1739.67 1815.69,1758.7 1837.44,1758.7 1837.44,1777.73 1854.36,1777.73 1854.36,1796.76 1876.12,1796.76 1876.12,1815.79 1948.63,1815.79 1948.63,1834.82 1975.22,1834.82 1975.22,1853.85 2021.15,1853.85 2021.15,1872.88 2050.16,1872.88 2050.16,1891.91 2132.34,1891.91 2132.34,1910.94 2175.85,1910.94 2175.85,1929.97 2378.9,1929.97 2378.9,1949 2415.16,1949 2434.49,1949 2434.49,1971.84 2497.34,1971.84 2601.28,1971.84 2601.28,2002.29 2908.27,2002.29 2937.27,2002.29 "></polyline>
<polyline clip-path="url(#clip252)" style="stroke:#ff7f50; stroke-linecap:round; stroke-linejoin:round; stroke-width:8; stroke-opacity:1; fill:none" points="478.964,376.969 611.911,376.969 611.911,395.915 614.328,395.915 614.328,414.861 616.745,414.861 616.745,433.808 657.838,433.808 657.838,452.754 662.672,452.754 662.672,471.7 689.262,471.7 696.513,471.7 696.513,490.875 720.685,490.875 725.52,490.875 725.52,510.286 761.778,510.286 761.778,529.697 817.374,529.697 817.374,568.52 836.712,568.52 836.712,587.931 868.136,587.931 868.136,607.342 870.553,607.342 870.553,626.754 885.056,626.754 889.891,626.754 894.725,626.754 906.811,626.754 906.811,646.985 916.48,646.985 916.48,667.217 930.983,667.217 935.818,667.217 935.818,687.746 947.904,687.746 947.904,708.275 952.738,708.275 952.738,749.333 955.156,749.333 957.573,749.333 969.659,749.333 969.659,770.524 976.911,770.524 1008.33,770.524 1013.17,770.524 1013.17,792.433 1034.92,792.433 1044.59,792.433 1044.59,814.727 1047.01,814.727 1054.26,814.727 1059.1,814.727 1059.1,837.847 1076.02,837.847 1109.86,837.847 1114.69,837.847 1114.69,861.873 1117.11,861.873 1124.36,861.873 1134.03,861.873 1155.78,861.873 1155.78,887.433 1172.71,887.433 1175.12,887.433 1175.12,913.561 1182.37,913.561 1204.13,913.561 1204.13,940.296 1216.22,940.296 1216.22,967.032 1228.3,967.032 1269.39,967.032 1288.73,967.032 1288.73,995.139 1300.82,995.139 1300.82,1023.25 1308.07,1023.25 1308.07,1051.35 1312.9,1051.35 1312.9,1079.46 1315.32,1079.46 1315.32,1107.56 1327.41,1107.56 1339.49,1107.56 1339.49,1136.52 1344.33,1136.52 1344.33,1165.48 1346.74,1165.48 1363.67,1165.48 1363.67,1195.4 1375.75,1195.4 1390.25,1195.4 1395.09,1195.4 1496.61,1195.4 1496.61,1228.78 1513.53,1228.78 1513.53,1262.16 1540.12,1262.16 1540.12,1295.53 1554.63,1295.53 1554.63,1328.91 1610.22,1328.91 1610.22,1362.29 1702.08,1362.29 1723.83,1362.29 1723.83,1399.18 1733.5,1399.18 1733.5,1436.07 1745.59,1436.07 1779.43,1436.07 1796.35,1436.07 1796.35,1477.87 1798.76,1477.87 1818.1,1477.87 1888.2,1477.87 2016.31,1477.87 2016.31,1531.08 2047.74,1531.08 2047.74,1584.29 2127.51,1584.29 2127.51,1637.5 2171.02,1637.5 2171.02,1690.71 2226.61,1690.71 2226.61,1743.93 2233.86,1743.93 2233.86,1797.14 2243.53,1797.14 2243.53,1850.35 2255.62,1850.35 2316.05,1850.35 2316.05,1921.29 2451.41,1921.29 2799.49,1921.29 "></polyline>
<path clip-path="url(#clip250)" d="M2499.35 487.965 L2924.16 487.965 L2924.16 332.445 L2499.35 332.445  Z" fill="#ffffff" fill-rule="evenodd" fill-opacity="1"></path>
<polyline clip-path="url(#clip250)" style="stroke:#000000; stroke-linecap:round; stroke-linejoin:round; stroke-width:4; stroke-opacity:1; fill:none" points="2499.35,487.965 2924.16,487.965 2924.16,332.445 2499.35,332.445 2499.35,487.965 "></polyline>
<polyline clip-path="url(#clip250)" style="stroke:#4682b4; stroke-linecap:round; stroke-linejoin:round; stroke-width:8; stroke-opacity:1; fill:none" points="2528.3,384.285 2702.02,384.285 "></polyline>
<path clip-path="url(#clip250)" d="M2730.97 367.005 L2737.94 367.005 L2746.76 390.524 L2755.63 367.005 L2762.59 367.005 L2762.59 401.565 L2758.03 401.565 L2758.03 371.218 L2749.12 394.922 L2744.42 394.922 L2735.51 371.218 L2735.51 401.565 L2730.97 401.565 L2730.97 367.005 Z" fill="#000000" fill-rule="nonzero" fill-opacity="1"></path><path clip-path="url(#clip250)" d="M2783.47 388.533 Q2778.31 388.533 2776.32 389.713 Q2774.33 390.894 2774.33 393.741 Q2774.33 396.01 2775.81 397.352 Q2777.32 398.672 2779.89 398.672 Q2783.43 398.672 2785.56 396.172 Q2787.71 393.649 2787.71 389.482 L2787.71 388.533 L2783.47 388.533 M2791.97 386.774 L2791.97 401.565 L2787.71 401.565 L2787.71 397.63 Q2786.25 399.991 2784.08 401.125 Q2781.9 402.236 2778.75 402.236 Q2774.77 402.236 2772.41 400.014 Q2770.07 397.769 2770.07 394.019 Q2770.07 389.644 2772.99 387.422 Q2775.93 385.2 2781.74 385.2 L2787.71 385.2 L2787.71 384.783 Q2787.71 381.843 2785.77 380.246 Q2783.84 378.625 2780.35 378.625 Q2778.13 378.625 2776.02 379.158 Q2773.91 379.69 2771.97 380.755 L2771.97 376.82 Q2774.31 375.917 2776.51 375.477 Q2778.71 375.014 2780.79 375.014 Q2786.41 375.014 2789.19 377.931 Q2791.97 380.848 2791.97 386.774 Z" fill="#000000" fill-rule="nonzero" fill-opacity="1"></path><path clip-path="url(#clip250)" d="M2800.74 365.547 L2805 365.547 L2805 401.565 L2800.74 401.565 L2800.74 365.547 Z" fill="#000000" fill-rule="nonzero" fill-opacity="1"></path><path clip-path="url(#clip250)" d="M2836.09 387.537 L2836.09 389.621 L2816.51 389.621 Q2816.78 394.019 2819.15 396.334 Q2821.53 398.625 2825.77 398.625 Q2828.22 398.625 2830.51 398.024 Q2832.83 397.422 2835.09 396.218 L2835.09 400.246 Q2832.8 401.218 2830.4 401.727 Q2827.99 402.236 2825.51 402.236 Q2819.31 402.236 2815.67 398.625 Q2812.06 395.014 2812.06 388.857 Q2812.06 382.491 2815.49 378.764 Q2818.94 375.014 2824.77 375.014 Q2830 375.014 2833.03 378.394 Q2836.09 381.75 2836.09 387.537 M2831.83 386.287 Q2831.78 382.792 2829.86 380.709 Q2827.96 378.625 2824.82 378.625 Q2821.25 378.625 2819.1 380.639 Q2816.97 382.653 2816.65 386.311 L2831.83 386.287 Z" fill="#000000" fill-rule="nonzero" fill-opacity="1"></path><polyline clip-path="url(#clip250)" style="stroke:#ff7f50; stroke-linecap:round; stroke-linejoin:round; stroke-width:8; stroke-opacity:1; fill:none" points="2528.3,436.125 2702.02,436.125 "></polyline>
<path clip-path="url(#clip250)" d="M2730.97 418.845 L2750.84 418.845 L2750.84 422.78 L2735.65 422.78 L2735.65 432.965 L2749.35 432.965 L2749.35 436.901 L2735.65 436.901 L2735.65 453.405 L2730.97 453.405 L2730.97 418.845 Z" fill="#000000" fill-rule="nonzero" fill-opacity="1"></path><path clip-path="url(#clip250)" d="M2777.64 439.377 L2777.64 441.461 L2758.06 441.461 Q2758.34 445.859 2760.7 448.174 Q2763.08 450.465 2767.32 450.465 Q2769.77 450.465 2772.06 449.864 Q2774.38 449.262 2776.65 448.058 L2776.65 452.086 Q2774.35 453.058 2771.95 453.567 Q2769.54 454.076 2767.06 454.076 Q2760.86 454.076 2757.22 450.465 Q2753.61 446.854 2753.61 440.697 Q2753.61 434.331 2757.04 430.604 Q2760.49 426.854 2766.32 426.854 Q2771.55 426.854 2774.59 430.234 Q2777.64 433.59 2777.64 439.377 M2773.38 438.127 Q2773.34 434.632 2771.41 432.549 Q2769.52 430.465 2766.37 430.465 Q2762.8 430.465 2760.65 432.479 Q2758.52 434.493 2758.2 438.151 L2773.38 438.127 Z" fill="#000000" fill-rule="nonzero" fill-opacity="1"></path><path clip-path="url(#clip250)" d="M2804.82 432.456 Q2806.41 429.586 2808.64 428.22 Q2810.86 426.854 2813.87 426.854 Q2817.92 426.854 2820.12 429.702 Q2822.32 432.526 2822.32 437.757 L2822.32 453.405 L2818.03 453.405 L2818.03 437.896 Q2818.03 434.169 2816.71 432.364 Q2815.4 430.558 2812.69 430.558 Q2809.38 430.558 2807.46 432.757 Q2805.53 434.956 2805.53 438.752 L2805.53 453.405 L2801.25 453.405 L2801.25 437.896 Q2801.25 434.146 2799.93 432.364 Q2798.61 430.558 2795.86 430.558 Q2792.59 430.558 2790.67 432.78 Q2788.75 434.979 2788.75 438.752 L2788.75 453.405 L2784.47 453.405 L2784.47 427.479 L2788.75 427.479 L2788.75 431.507 Q2790.21 429.123 2792.25 427.989 Q2794.28 426.854 2797.09 426.854 Q2799.91 426.854 2801.88 428.29 Q2803.87 429.725 2804.82 432.456 Z" fill="#000000" fill-rule="nonzero" fill-opacity="1"></path><path clip-path="url(#clip250)" d="M2842.59 440.373 Q2837.43 440.373 2835.44 441.553 Q2833.45 442.734 2833.45 445.581 Q2833.45 447.85 2834.93 449.192 Q2836.44 450.512 2839.01 450.512 Q2842.55 450.512 2844.68 448.012 Q2846.83 445.489 2846.83 441.322 L2846.83 440.373 L2842.59 440.373 M2851.09 438.614 L2851.09 453.405 L2846.83 453.405 L2846.83 449.47 Q2845.37 451.831 2843.2 452.965 Q2841.02 454.076 2837.87 454.076 Q2833.89 454.076 2831.53 451.854 Q2829.19 449.609 2829.19 445.859 Q2829.19 441.484 2832.11 439.262 Q2835.05 437.04 2840.86 437.04 L2846.83 437.04 L2846.83 436.623 Q2846.83 433.683 2844.89 432.086 Q2842.96 430.465 2839.47 430.465 Q2837.25 430.465 2835.14 430.998 Q2833.03 431.53 2831.09 432.595 L2831.09 428.66 Q2833.43 427.757 2835.63 427.317 Q2837.83 426.854 2839.91 426.854 Q2845.53 426.854 2848.31 429.771 Q2851.09 432.688 2851.09 438.614 Z" fill="#000000" fill-rule="nonzero" fill-opacity="1"></path><path clip-path="url(#clip250)" d="M2859.86 417.387 L2864.12 417.387 L2864.12 453.405 L2859.86 453.405 L2859.86 417.387 Z" fill="#000000" fill-rule="nonzero" fill-opacity="1"></path><path clip-path="url(#clip250)" d="M2895.21 439.377 L2895.21 441.461 L2875.63 441.461 Q2875.9 445.859 2878.27 448.174 Q2880.65 450.465 2884.89 450.465 Q2887.34 450.465 2889.63 449.864 Q2891.95 449.262 2894.21 448.058 L2894.21 452.086 Q2891.92 453.058 2889.52 453.567 Q2887.11 454.076 2884.63 454.076 Q2878.43 454.076 2874.79 450.465 Q2871.18 446.854 2871.18 440.697 Q2871.18 434.331 2874.61 430.604 Q2878.06 426.854 2883.89 426.854 Q2889.12 426.854 2892.15 430.234 Q2895.21 433.59 2895.21 439.377 M2890.95 438.127 Q2890.9 434.632 2888.98 432.549 Q2887.08 430.465 2883.94 430.465 Q2880.37 430.465 2878.22 432.479 Q2876.09 434.493 2875.77 438.151 L2890.95 438.127 Z" fill="#000000" fill-rule="nonzero" fill-opacity="1"></path></svg>