<svg xmlns="http://www.w3.org/2000/svg" xmlns:xlink="http://www.w3.org/1999/xlink" width="600" height="400" viewBox="0 0 2400 1600">
<defs>
  <clipPath id="clip480">
    <rect x="0" y="0" width="2400" height="1600"></rect>
  </clipPath>
</defs>
<path clip-path="url(#clip480)" d="M0 1600 L2400 1600 L2400 8.88178e-14 L0 8.88178e-14  Z" fill="#ffffff" fill-rule="evenodd" fill-opacity="1"></path>
<defs>
  <clipPath id="clip481">
    <rect x="480" y="0" width="1681" height="1600"></rect>
  </clipPath>
</defs>
<path clip-path="url(#clip480)" d="M249.542 1423.18 L2352.76 1423.18 L2352.76 47.2441 L249.542 47.2441  Z" fill="#ffffff" fill-rule="evenodd" fill-opacity="1"></path>
<defs>
  <clipPath id="clip482">
    <rect x="249" y="47" width="2104" height="1377"></rect>
  </clipPath>
</defs>
<polyline clip-path="url(#clip482)" style="stroke:#000000; stroke-linecap:round; stroke-linejoin:round; stroke-width:2; stroke-opacity:0.1; fill:none" points="309.067,1423.18 309.067,47.2441 "></polyline>
<polyline clip-path="url(#clip482)" style="stroke:#000000; stroke-linecap:round; stroke-linejoin:round; stroke-width:2; stroke-opacity:0.1; fill:none" points="805.108,1423.18 805.108,47.2441 "></polyline>
<polyline clip-path="url(#clip482)" style="stroke:#000000; stroke-linecap:round; stroke-linejoin:round; stroke-width:2; stroke-opacity:0.1; fill:none" points="1301.15,1423.18 1301.15,47.2441 "></polyline>
<polyline clip-path="url(#clip482)" style="stroke:#000000; stroke-linecap:round; stroke-linejoin:round; stroke-width:2; stroke-opacity:0.1; fill:none" points="1797.19,1423.18 1797.19,47.2441 "></polyline>
<polyline clip-path="url(#clip482)" style="stroke:#000000; stroke-linecap:round; stroke-linejoin:round; stroke-width:2; stroke-opacity:0.1; fill:none" points="2293.23,1423.18 2293.23,47.2441 "></polyline>
<polyline clip-path="url(#clip482)" style="stroke:#000000; stroke-linecap:round; stroke-linejoin:round; stroke-width:2; stroke-opacity:0.1; fill:none" points="249.542,1384.67 2352.76,1384.67 "></polyline>
<polyline clip-path="url(#clip482)" style="stroke:#000000; stroke-linecap:round; stroke-linejoin:round; stroke-width:2; stroke-opacity:0.1; fill:none" points="249.542,1060.05 2352.76,1060.05 "></polyline>
<polyline clip-path="url(#clip482)" style="stroke:#000000; stroke-linecap:round; stroke-linejoin:round; stroke-width:2; stroke-opacity:0.1; fill:none" points="249.542,735.43 2352.76,735.43 "></polyline>
<polyline clip-path="url(#clip482)" style="stroke:#000000; stroke-linecap:round; stroke-linejoin:round; stroke-width:2; stroke-opacity:0.1; fill:none" points="249.542,410.808 2352.76,410.808 "></polyline>
<polyline clip-path="url(#clip482)" style="stroke:#000000; stroke-linecap:round; stroke-linejoin:round; stroke-width:2; stroke-opacity:0.1; fill:none" points="249.542,86.1857 2352.76,86.1857 "></polyline>
<polyline clip-path="url(#clip480)" style="stroke:#000000; stroke-linecap:round; stroke-linejoin:round; stroke-width:4; stroke-opacity:1; fill:none" points="249.542,1423.18 2352.76,1423.18 "></polyline>
<polyline clip-path="url(#clip480)" style="stroke:#000000; stroke-linecap:round; stroke-linejoin:round; stroke-width:4; stroke-opacity:1; fill:none" points="309.067,1423.18 309.067,1404.28 "></polyline>
<polyline clip-path="url(#clip480)" style="stroke:#000000; stroke-linecap:round; stroke-linejoin:round; stroke-width:4; stroke-opacity:1; fill:none" points="805.108,1423.18 805.108,1404.28 "></polyline>
<polyline clip-path="url(#clip480)" style="stroke:#000000; stroke-linecap:round; stroke-linejoin:round; stroke-width:4; stroke-opacity:1; fill:none" points="1301.15,1423.18 1301.15,1404.28 "></polyline>
<polyline clip-path="url(#clip480)" style="stroke:#000000; stroke-linecap:round; stroke-linejoin:round; stroke-width:4; stroke-opacity:1; fill:none" points="1797.19,1423.18 1797.19,1404.28 "></polyline>
<polyline clip-path="url(#clip480)" style="stroke:#000000; stroke-linecap:round; stroke-linejoin:round; stroke-width:4; stroke-opacity:1; fill:none" points="2293.23,1423.18 2293.23,1404.28 "></polyline>
<path clip-path="url(#clip480)" d="M309.067 1454.1 Q305.456 1454.1 303.627 1457.66 Q301.822 1461.2 301.822 1468.33 Q301.822 1475.44 303.627 1479.01 Q305.456 1482.55 309.067 1482.55 Q312.701 1482.55 314.507 1479.01 Q316.335 1475.44 316.335 1468.33 Q316.335 1461.2 314.507 1457.66 Q312.701 1454.1 309.067 1454.1 M309.067 1450.39 Q314.877 1450.39 317.933 1455 Q321.011 1459.58 321.011 1468.33 Q321.011 1477.06 317.933 1481.67 Q314.877 1486.25 309.067 1486.25 Q303.257 1486.25 300.178 1481.67 Q297.123 1477.06 297.123 1468.33 Q297.123 1459.58 300.178 1455 Q303.257 1450.39 309.067 1450.39 Z" fill="#000000" fill-rule="nonzero" fill-opacity="1"></path><path clip-path="url(#clip480)" d="M764.726 1451.02 L783.083 1451.02 L783.083 1454.96 L769.009 1454.96 L769.009 1463.43 Q770.027 1463.08 771.046 1462.92 Q772.064 1462.73 773.083 1462.73 Q778.87 1462.73 782.249 1465.9 Q785.629 1469.08 785.629 1474.49 Q785.629 1480.07 782.157 1483.17 Q778.684 1486.25 772.365 1486.25 Q770.189 1486.25 767.921 1485.88 Q765.675 1485.51 763.268 1484.77 L763.268 1480.07 Q765.351 1481.2 767.573 1481.76 Q769.796 1482.32 772.272 1482.32 Q776.277 1482.32 778.615 1480.21 Q780.953 1478.1 780.953 1474.49 Q780.953 1470.88 778.615 1468.77 Q776.277 1466.67 772.272 1466.67 Q770.397 1466.67 768.523 1467.08 Q766.671 1467.5 764.726 1468.38 L764.726 1451.02 Z" fill="#000000" fill-rule="nonzero" fill-opacity="1"></path><path clip-path="url(#clip480)" d="M804.842 1454.1 Q801.231 1454.1 799.402 1457.66 Q797.596 1461.2 797.596 1468.33 Q797.596 1475.44 799.402 1479.01 Q801.231 1482.55 804.842 1482.55 Q808.476 1482.55 810.282 1479.01 Q812.11 1475.44 812.11 1468.33 Q812.11 1461.2 810.282 1457.66 Q808.476 1454.1 804.842 1454.1 M804.842 1450.39 Q810.652 1450.39 813.707 1455 Q816.786 1459.58 816.786 1468.33 Q816.786 1477.06 813.707 1481.67 Q810.652 1486.25 804.842 1486.25 Q799.032 1486.25 795.953 1481.67 Q792.897 1477.06 792.897 1468.33 Q792.897 1459.58 795.953 1455 Q799.032 1450.39 804.842 1450.39 Z" fill="#000000" fill-rule="nonzero" fill-opacity="1"></path><path clip-path="url(#clip480)" d="M835.004 1454.1 Q831.393 1454.1 829.564 1457.66 Q827.758 1461.2 827.758 1468.33 Q827.758 1475.44 829.564 1479.01 Q831.393 1482.55 835.004 1482.55 Q838.638 1482.55 840.443 1479.01 Q842.272 1475.44 842.272 1468.33 Q842.272 1461.2 840.443 1457.66 Q838.638 1454.1 835.004 1454.1 M835.004 1450.39 Q840.814 1450.39 843.869 1455 Q846.948 1459.58 846.948 1468.33 Q846.948 1477.06 843.869 1481.67 Q840.814 1486.25 835.004 1486.25 Q829.193 1486.25 826.115 1481.67 Q823.059 1477.06 823.059 1468.33 Q823.059 1459.58 826.115 1455 Q829.193 1450.39 835.004 1450.39 Z" fill="#000000" fill-rule="nonzero" fill-opacity="1"></path><path clip-path="url(#clip480)" d="M1245.67 1481.64 L1253.31 1481.64 L1253.31 1455.28 L1245 1456.95 L1245 1452.69 L1253.27 1451.02 L1257.94 1451.02 L1257.94 1481.64 L1265.58 1481.64 L1265.58 1485.58 L1245.67 1485.58 L1245.67 1481.64 Z" fill="#000000" fill-rule="nonzero" fill-opacity="1"></path><path clip-path="url(#clip480)" d="M1285.03 1454.1 Q1281.42 1454.1 1279.59 1457.66 Q1277.78 1461.2 1277.78 1468.33 Q1277.78 1475.44 1279.59 1479.01 Q1281.42 1482.55 1285.03 1482.55 Q1288.66 1482.55 1290.47 1479.01 Q1292.29 1475.44 1292.29 1468.33 Q1292.29 1461.2 1290.47 1457.66 Q1288.66 1454.1 1285.03 1454.1 M1285.03 1450.39 Q1290.84 1450.39 1293.89 1455 Q1296.97 1459.58 1296.97 1468.33 Q1296.97 1477.06 1293.89 1481.67 Q1290.84 1486.25 1285.03 1486.25 Q1279.22 1486.25 1276.14 1481.67 Q1273.08 1477.06 1273.08 1468.33 Q1273.08 1459.58 1276.14 1455 Q1279.22 1450.39 1285.03 1450.39 Z" fill="#000000" fill-rule="nonzero" fill-opacity="1"></path><path clip-path="url(#clip480)" d="M1315.19 1454.1 Q1311.58 1454.1 1309.75 1457.66 Q1307.94 1461.2 1307.94 1468.33 Q1307.94 1475.44 1309.75 1479.01 Q1311.58 1482.55 1315.19 1482.55 Q1318.82 1482.55 1320.63 1479.01 Q1322.46 1475.44 1322.46 1468.33 Q1322.46 1461.2 1320.63 1457.66 Q1318.82 1454.1 1315.19 1454.1 M1315.19 1450.39 Q1321 1450.39 1324.05 1455 Q1327.13 1459.58 1327.13 1468.33 Q1327.13 1477.06 1324.05 1481.67 Q1321 1486.25 1315.19 1486.25 Q1309.38 1486.25 1306.3 1481.67 Q1303.24 1477.06 1303.24 1468.33 Q1303.24 1459.58 1306.3 1455 Q1309.38 1450.39 1315.19 1450.39 Z" fill="#000000" fill-rule="nonzero" fill-opacity="1"></path><path clip-path="url(#clip480)" d="M1345.35 1454.1 Q1341.74 1454.1 1339.91 1457.66 Q1338.1 1461.2 1338.1 1468.33 Q1338.1 1475.44 1339.91 1479.01 Q1341.74 1482.55 1345.35 1482.55 Q1348.98 1482.55 1350.79 1479.01 Q1352.62 1475.44 1352.62 1468.33 Q1352.62 1461.2 1350.79 1457.66 Q1348.98 1454.1 1345.35 1454.1 M1345.35 1450.39 Q1351.16 1450.39 1354.22 1455 Q1357.29 1459.58 1357.29 1468.33 Q1357.29 1477.06 1354.22 1481.67 Q1351.16 1486.25 1345.35 1486.25 Q1339.54 1486.25 1336.46 1481.67 Q1333.41 1477.06 1333.41 1468.33 Q1333.41 1459.58 1336.46 1455 Q1339.54 1450.39 1345.35 1450.39 Z" fill="#000000" fill-rule="nonzero" fill-opacity="1"></path><path clip-path="url(#clip480)" d="M1741.72 1481.64 L1749.35 1481.64 L1749.35 1455.28 L1741.04 1456.95 L1741.04 1452.69 L1749.31 1451.02 L1753.98 1451.02 L1753.98 1481.64 L1761.62 1481.64 L1761.62 1485.58 L1741.72 1485.58 L1741.72 1481.64 Z" fill="#000000" fill-rule="nonzero" fill-opacity="1"></path><path clip-path="url(#clip480)" d="M1771.11 1451.02 L1789.47 1451.02 L1789.47 1454.96 L1775.4 1454.96 L1775.4 1463.43 Q1776.41 1463.08 1777.43 1462.92 Q1778.45 1462.73 1779.47 1462.73 Q1785.26 1462.73 1788.64 1465.9 Q1792.02 1469.08 1792.02 1474.49 Q1792.02 1480.07 1788.54 1483.17 Q1785.07 1486.25 1778.75 1486.25 Q1776.58 1486.25 1774.31 1485.88 Q1772.06 1485.51 1769.66 1484.77 L1769.66 1480.07 Q1771.74 1481.2 1773.96 1481.76 Q1776.18 1482.32 1778.66 1482.32 Q1782.66 1482.32 1785 1480.21 Q1787.34 1478.1 1787.34 1474.49 Q1787.34 1470.88 1785 1468.77 Q1782.66 1466.67 1778.66 1466.67 Q1776.78 1466.67 1774.91 1467.08 Q1773.06 1467.5 1771.11 1468.38 L1771.11 1451.02 Z" fill="#000000" fill-rule="nonzero" fill-opacity="1"></path><path clip-path="url(#clip480)" d="M1811.23 1454.1 Q1807.62 1454.1 1805.79 1457.66 Q1803.98 1461.2 1803.98 1468.33 Q1803.98 1475.44 1805.79 1479.01 Q1807.62 1482.55 1811.23 1482.55 Q1814.86 1482.55 1816.67 1479.01 Q1818.5 1475.44 1818.5 1468.33 Q1818.5 1461.2 1816.67 1457.66 Q1814.86 1454.1 1811.23 1454.1 M1811.23 1450.39 Q1817.04 1450.39 1820.09 1455 Q1823.17 1459.58 1823.17 1468.33 Q1823.17 1477.06 1820.09 1481.67 Q1817.04 1486.25 1811.23 1486.25 Q1805.42 1486.25 1802.34 1481.67 Q1799.28 1477.06 1799.28 1468.33 Q1799.28 1459.58 1802.34 1455 Q1805.42 1450.39 1811.23 1450.39 Z" fill="#000000" fill-rule="nonzero" fill-opacity="1"></path><path clip-path="url(#clip480)" d="M1841.39 1454.1 Q1837.78 1454.1 1835.95 1457.66 Q1834.15 1461.2 1834.15 1468.33 Q1834.15 1475.44 1835.95 1479.01 Q1837.78 1482.55 1841.39 1482.55 Q1845.03 1482.55 1846.83 1479.01 Q1848.66 1475.44 1848.66 1468.33 Q1848.66 1461.2 1846.83 1457.66 Q1845.03 1454.1 1841.39 1454.1 M1841.39 1450.39 Q1847.2 1450.39 1850.26 1455 Q1853.34 1459.58 1853.34 1468.33 Q1853.34 1477.06 1850.26 1481.67 Q1847.2 1486.25 1841.39 1486.25 Q1835.58 1486.25 1832.5 1481.67 Q1829.45 1477.06 1829.45 1468.33 Q1829.45 1459.58 1832.5 1455 Q1835.58 1450.39 1841.39 1450.39 Z" fill="#000000" fill-rule="nonzero" fill-opacity="1"></path><path clip-path="url(#clip480)" d="M2241.84 1481.64 L2258.16 1481.64 L2258.16 1485.58 L2236.22 1485.58 L2236.22 1481.64 Q2238.88 1478.89 2243.46 1474.26 Q2248.07 1469.61 2249.25 1468.27 Q2251.5 1465.74 2252.37 1464.01 Q2253.28 1462.25 2253.28 1460.56 Q2253.28 1457.8 2251.33 1456.07 Q2249.41 1454.33 2246.31 1454.33 Q2244.11 1454.33 2241.66 1455.09 Q2239.23 1455.86 2236.45 1457.41 L2236.45 1452.69 Q2239.27 1451.55 2241.73 1450.97 Q2244.18 1450.39 2246.22 1450.39 Q2251.59 1450.39 2254.78 1453.08 Q2257.98 1455.77 2257.98 1460.26 Q2257.98 1462.39 2257.17 1464.31 Q2256.38 1466.2 2254.27 1468.8 Q2253.69 1469.47 2250.59 1472.69 Q2247.49 1475.88 2241.84 1481.64 Z" fill="#000000" fill-rule="nonzero" fill-opacity="1"></path><path clip-path="url(#clip480)" d="M2277.98 1454.1 Q2274.37 1454.1 2272.54 1457.66 Q2270.73 1461.2 2270.73 1468.33 Q2270.73 1475.44 2272.54 1479.01 Q2274.37 1482.55 2277.98 1482.55 Q2281.61 1482.55 2283.42 1479.01 Q2285.24 1475.44 2285.24 1468.33 Q2285.24 1461.2 2283.42 1457.66 Q2281.61 1454.1 2277.98 1454.1 M2277.98 1450.39 Q2283.79 1450.39 2286.84 1455 Q2289.92 1459.58 2289.92 1468.33 Q2289.92 1477.06 2286.84 1481.67 Q2283.79 1486.25 2277.98 1486.25 Q2272.17 1486.25 2269.09 1481.67 Q2266.03 1477.06 2266.03 1468.33 Q2266.03 1459.58 2269.09 1455 Q2272.17 1450.39 2277.98 1450.39 Z" fill="#000000" fill-rule="nonzero" fill-opacity="1"></path><path clip-path="url(#clip480)" d="M2308.14 1454.1 Q2304.53 1454.1 2302.7 1457.66 Q2300.89 1461.2 2300.89 1468.33 Q2300.89 1475.44 2302.7 1479.01 Q2304.53 1482.55 2308.14 1482.55 Q2311.77 1482.55 2313.58 1479.01 Q2315.41 1475.44 2315.41 1468.33 Q2315.41 1461.2 2313.58 1457.66 Q2311.77 1454.1 2308.14 1454.1 M2308.14 1450.39 Q2313.95 1450.39 2317 1455 Q2320.08 1459.58 2320.08 1468.33 Q2320.08 1477.06 2317 1481.67 Q2313.95 1486.25 2308.14 1486.25 Q2302.33 1486.25 2299.25 1481.67 Q2296.19 1477.06 2296.19 1468.33 Q2296.19 1459.58 2299.25 1455 Q2302.33 1450.39 2308.14 1450.39 Z" fill="#000000" fill-rule="nonzero" fill-opacity="1"></path><path clip-path="url(#clip480)" d="M2338.3 1454.1 Q2334.69 1454.1 2332.86 1457.66 Q2331.05 1461.2 2331.05 1468.33 Q2331.05 1475.44 2332.86 1479.01 Q2334.69 1482.55 2338.3 1482.55 Q2341.93 1482.55 2343.74 1479.01 Q2345.57 1475.44 2345.57 1468.33 Q2345.57 1461.2 2343.74 1457.66 Q2341.93 1454.1 2338.3 1454.1 M2338.3 1450.39 Q2344.11 1450.39 2347.17 1455 Q2350.24 1459.58 2350.24 1468.33 Q2350.24 1477.06 2347.17 1481.67 Q2344.11 1486.25 2338.3 1486.25 Q2332.49 1486.25 2329.41 1481.67 Q2326.36 1477.06 2326.36 1468.33 Q2326.36 1459.58 2329.41 1455 Q2332.49 1450.39 2338.3 1450.39 Z" fill="#000000" fill-rule="nonzero" fill-opacity="1"></path><path clip-path="url(#clip480)" d="M1240.31 1522.27 L1240.31 1532.4 L1252.37 1532.4 L1252.37 1536.95 L1240.31 1536.95 L1240.31 1556.3 Q1240.31 1560.66 1241.49 1561.9 Q1242.7 1563.14 1246.36 1563.14 L1252.37 1563.14 L1252.37 1568.04 L1246.36 1568.04 Q1239.58 1568.04 1237 1565.53 Q1234.42 1562.98 1234.42 1556.3 L1234.42 1536.95 L1230.12 1536.95 L1230.12 1532.4 L1234.42 1532.4 L1234.42 1522.27 L1240.31 1522.27 Z" fill="#000000" fill-rule="nonzero" fill-opacity="1"></path><path clip-path="url(#clip480)" d="M1260.07 1532.4 L1265.93 1532.4 L1265.93 1568.04 L1260.07 1568.04 L1260.07 1532.4 M1260.07 1518.52 L1265.93 1518.52 L1265.93 1525.93 L1260.07 1525.93 L1260.07 1518.52 Z" fill="#000000" fill-rule="nonzero" fill-opacity="1"></path><path clip-path="url(#clip480)" d="M1305.94 1539.24 Q1308.14 1535.29 1311.19 1533.41 Q1314.25 1531.54 1318.38 1531.54 Q1323.95 1531.54 1326.98 1535.45 Q1330 1539.33 1330 1546.53 L1330 1568.04 L1324.11 1568.04 L1324.11 1546.72 Q1324.11 1541.59 1322.3 1539.11 Q1320.48 1536.63 1316.76 1536.63 Q1312.21 1536.63 1309.57 1539.65 Q1306.93 1542.68 1306.93 1547.9 L1306.93 1568.04 L1301.04 1568.04 L1301.04 1546.72 Q1301.04 1541.56 1299.22 1539.11 Q1297.41 1536.63 1293.62 1536.63 Q1289.13 1536.63 1286.49 1539.68 Q1283.85 1542.71 1283.85 1547.9 L1283.85 1568.04 L1277.96 1568.04 L1277.96 1532.4 L1283.85 1532.4 L1283.85 1537.93 Q1285.86 1534.66 1288.66 1533.1 Q1291.46 1531.54 1295.31 1531.54 Q1299.19 1531.54 1301.9 1533.51 Q1304.63 1535.48 1305.94 1539.24 Z" fill="#000000" fill-rule="nonzero" fill-opacity="1"></path><path clip-path="url(#clip480)" d="M1372.17 1548.76 L1372.17 1551.62 L1345.25 1551.62 Q1345.63 1557.67 1348.88 1560.85 Q1352.15 1564 1357.98 1564 Q1361.35 1564 1364.5 1563.17 Q1367.69 1562.35 1370.81 1560.69 L1370.81 1566.23 Q1367.65 1567.57 1364.34 1568.27 Q1361.03 1568.97 1357.63 1568.97 Q1349.1 1568.97 1344.1 1564 Q1339.14 1559.04 1339.14 1550.57 Q1339.14 1541.82 1343.85 1536.69 Q1348.59 1531.54 1356.61 1531.54 Q1363.8 1531.54 1367.97 1536.18 Q1372.17 1540.8 1372.17 1548.76 M1366.32 1547.04 Q1366.25 1542.23 1363.61 1539.37 Q1361 1536.5 1356.67 1536.5 Q1351.77 1536.5 1348.81 1539.27 Q1345.88 1542.04 1345.44 1547.07 L1366.32 1547.04 Z" fill="#000000" fill-rule="nonzero" fill-opacity="1"></path><polyline clip-path="url(#clip480)" style="stroke:#000000; stroke-linecap:round; stroke-linejoin:round; stroke-width:4; stroke-opacity:1; fill:none" points="249.542,1423.18 249.542,47.2441 "></polyline>
<polyline clip-path="url(#clip480)" style="stroke:#000000; stroke-linecap:round; stroke-linejoin:round; stroke-width:4; stroke-opacity:1; fill:none" points="249.542,1384.67 268.44,1384.67 "></polyline>
<polyline clip-path="url(#clip480)" style="stroke:#000000; stroke-linecap:round; stroke-linejoin:round; stroke-width:4; stroke-opacity:1; fill:none" points="249.542,1060.05 268.44,1060.05 "></polyline>
<polyline clip-path="url(#clip480)" style="stroke:#000000; stroke-linecap:round; stroke-linejoin:round; stroke-width:4; stroke-opacity:1; fill:none" points="249.542,735.43 268.44,735.43 "></polyline>
<polyline clip-path="url(#clip480)" style="stroke:#000000; stroke-linecap:round; stroke-linejoin:round; stroke-width:4; stroke-opacity:1; fill:none" points="249.542,410.808 268.44,410.808 "></polyline>
<polyline clip-path="url(#clip480)" style="stroke:#000000; stroke-linecap:round; stroke-linejoin:round; stroke-width:4; stroke-opacity:1; fill:none" points="249.542,86.1857 268.44,86.1857 "></polyline>
<path clip-path="url(#clip480)" d="M126.205 1370.47 Q122.593 1370.47 120.765 1374.04 Q118.959 1377.58 118.959 1384.71 Q118.959 1391.82 120.765 1395.38 Q122.593 1398.92 126.205 1398.92 Q129.839 1398.92 131.644 1395.38 Q133.473 1391.82 133.473 1384.71 Q133.473 1377.58 131.644 1374.04 Q129.839 1370.47 126.205 1370.47 M126.205 1366.77 Q132.015 1366.77 135.07 1371.38 Q138.149 1375.96 138.149 1384.71 Q138.149 1393.44 135.07 1398.04 Q132.015 1402.63 126.205 1402.63 Q120.394 1402.63 117.316 1398.04 Q114.26 1393.44 114.26 1384.71 Q114.26 1375.96 117.316 1371.38 Q120.394 1366.77 126.205 1366.77 Z" fill="#000000" fill-rule="nonzero" fill-opacity="1"></path><path clip-path="url(#clip480)" d="M146.366 1396.07 L151.251 1396.07 L151.251 1401.95 L146.366 1401.95 L146.366 1396.07 Z" fill="#000000" fill-rule="nonzero" fill-opacity="1"></path><path clip-path="url(#clip480)" d="M171.436 1370.47 Q167.825 1370.47 165.996 1374.04 Q164.19 1377.58 164.19 1384.71 Q164.19 1391.82 165.996 1395.38 Q167.825 1398.92 171.436 1398.92 Q175.07 1398.92 176.876 1395.38 Q178.704 1391.82 178.704 1384.71 Q178.704 1377.58 176.876 1374.04 Q175.07 1370.47 171.436 1370.47 M171.436 1366.77 Q177.246 1366.77 180.301 1371.38 Q183.38 1375.96 183.38 1384.71 Q183.38 1393.44 180.301 1398.04 Q177.246 1402.63 171.436 1402.63 Q165.626 1402.63 162.547 1398.04 Q159.491 1393.44 159.491 1384.71 Q159.491 1375.96 162.547 1371.38 Q165.626 1366.77 171.436 1366.77 Z" fill="#000000" fill-rule="nonzero" fill-opacity="1"></path><path clip-path="url(#clip480)" d="M201.598 1370.47 Q197.987 1370.47 196.158 1374.04 Q194.352 1377.58 194.352 1384.71 Q194.352 1391.82 196.158 1395.38 Q197.987 1398.92 201.598 1398.92 Q205.232 1398.92 207.037 1395.38 Q208.866 1391.82 208.866 1384.71 Q208.866 1377.58 207.037 1374.04 Q205.232 1370.47 201.598 1370.47 M201.598 1366.77 Q207.408 1366.77 210.463 1371.38 Q213.542 1375.96 213.542 1384.71 Q213.542 1393.44 210.463 1398.04 Q207.408 1402.63 201.598 1402.63 Q195.787 1402.63 192.709 1398.04 Q189.653 1393.44 189.653 1384.71 Q189.653 1375.96 192.709 1371.38 Q195.787 1366.77 201.598 1366.77 Z" fill="#000000" fill-rule="nonzero" fill-opacity="1"></path><path clip-path="url(#clip480)" d="M127.2 1045.85 Q123.589 1045.85 121.76 1049.42 Q119.955 1052.96 119.955 1060.09 Q119.955 1067.19 121.76 1070.76 Q123.589 1074.3 127.2 1074.3 Q130.834 1074.3 132.64 1070.76 Q134.468 1067.19 134.468 1060.09 Q134.468 1052.96 132.64 1049.42 Q130.834 1045.85 127.2 1045.85 M127.2 1042.15 Q133.01 1042.15 136.066 1046.75 Q139.144 1051.34 139.144 1060.09 Q139.144 1068.81 136.066 1073.42 Q133.01 1078 127.2 1078 Q121.39 1078 118.311 1073.42 Q115.256 1068.81 115.256 1060.09 Q115.256 1051.34 118.311 1046.75 Q121.39 1042.15 127.2 1042.15 Z" fill="#000000" fill-rule="nonzero" fill-opacity="1"></path><path clip-path="url(#clip480)" d="M147.362 1071.45 L152.246 1071.45 L152.246 1077.33 L147.362 1077.33 L147.362 1071.45 Z" fill="#000000" fill-rule="nonzero" fill-opacity="1"></path><path clip-path="url(#clip480)" d="M166.459 1073.4 L182.778 1073.4 L182.778 1077.33 L160.834 1077.33 L160.834 1073.4 Q163.496 1070.64 168.079 1066.01 Q172.686 1061.36 173.866 1060.02 Q176.112 1057.49 176.991 1055.76 Q177.894 1054 177.894 1052.31 Q177.894 1049.55 175.95 1047.82 Q174.028 1046.08 170.927 1046.08 Q168.727 1046.08 166.274 1046.85 Q163.843 1047.61 161.065 1049.16 L161.065 1044.44 Q163.89 1043.3 166.343 1042.73 Q168.797 1042.15 170.834 1042.15 Q176.204 1042.15 179.399 1044.83 Q182.593 1047.52 182.593 1052.01 Q182.593 1054.14 181.783 1056.06 Q180.996 1057.96 178.889 1060.55 Q178.311 1061.22 175.209 1064.44 Q172.107 1067.63 166.459 1073.4 Z" fill="#000000" fill-rule="nonzero" fill-opacity="1"></path><path clip-path="url(#clip480)" d="M192.639 1042.77 L210.996 1042.77 L210.996 1046.71 L196.922 1046.71 L196.922 1055.18 Q197.94 1054.83 198.959 1054.67 Q199.977 1054.48 200.996 1054.48 Q206.783 1054.48 210.162 1057.66 Q213.542 1060.83 213.542 1066.24 Q213.542 1071.82 210.07 1074.92 Q206.598 1078 200.278 1078 Q198.102 1078 195.834 1077.63 Q193.588 1077.26 191.181 1076.52 L191.181 1071.82 Q193.264 1072.96 195.487 1073.51 Q197.709 1074.07 200.186 1074.07 Q204.19 1074.07 206.528 1071.96 Q208.866 1069.86 208.866 1066.24 Q208.866 1062.63 206.528 1060.53 Q204.19 1058.42 200.186 1058.42 Q198.311 1058.42 196.436 1058.84 Q194.584 1059.25 192.639 1060.13 L192.639 1042.77 Z" fill="#000000" fill-rule="nonzero" fill-opacity="1"></path><path clip-path="url(#clip480)" d="M126.205 721.228 Q122.593 721.228 120.765 724.793 Q118.959 728.335 118.959 735.464 Q118.959 742.571 120.765 746.136 Q122.593 749.677 126.205 749.677 Q129.839 749.677 131.644 746.136 Q133.473 742.571 133.473 735.464 Q133.473 728.335 131.644 724.793 Q129.839 721.228 126.205 721.228 M126.205 717.525 Q132.015 717.525 135.07 722.131 Q138.149 726.715 138.149 735.464 Q138.149 744.191 135.07 748.798 Q132.015 753.381 126.205 753.381 Q120.394 753.381 117.316 748.798 Q114.26 744.191 114.26 735.464 Q114.26 726.715 117.316 722.131 Q120.394 717.525 126.205 717.525 Z" fill="#000000" fill-rule="nonzero" fill-opacity="1"></path><path clip-path="url(#clip480)" d="M146.366 746.83 L151.251 746.83 L151.251 752.71 L146.366 752.71 L146.366 746.83 Z" fill="#000000" fill-rule="nonzero" fill-opacity="1"></path><path clip-path="url(#clip480)" d="M161.482 718.15 L179.839 718.15 L179.839 722.085 L165.765 722.085 L165.765 730.557 Q166.783 730.21 167.802 730.048 Q168.82 729.863 169.839 729.863 Q175.626 729.863 179.005 733.034 Q182.385 736.205 182.385 741.622 Q182.385 747.201 178.913 750.302 Q175.44 753.381 169.121 753.381 Q166.945 753.381 164.677 753.011 Q162.431 752.64 160.024 751.9 L160.024 747.201 Q162.107 748.335 164.329 748.89 Q166.552 749.446 169.028 749.446 Q173.033 749.446 175.371 747.339 Q177.709 745.233 177.709 741.622 Q177.709 738.011 175.371 735.904 Q173.033 733.798 169.028 733.798 Q167.153 733.798 165.278 734.214 Q163.427 734.631 161.482 735.511 L161.482 718.15 Z" fill="#000000" fill-rule="nonzero" fill-opacity="1"></path><path clip-path="url(#clip480)" d="M201.598 721.228 Q197.987 721.228 196.158 724.793 Q194.352 728.335 194.352 735.464 Q194.352 742.571 196.158 746.136 Q197.987 749.677 201.598 749.677 Q205.232 749.677 207.037 746.136 Q208.866 742.571 208.866 735.464 Q208.866 728.335 207.037 724.793 Q205.232 721.228 201.598 721.228 M201.598 717.525 Q207.408 717.525 210.463 722.131 Q213.542 726.715 213.542 735.464 Q213.542 744.191 210.463 748.798 Q207.408 753.381 201.598 753.381 Q195.787 753.381 192.709 748.798 Q189.653 744.191 189.653 735.464 Q189.653 726.715 192.709 722.131 Q195.787 717.525 201.598 717.525 Z" fill="#000000" fill-rule="nonzero" fill-opacity="1"></path><path clip-path="url(#clip480)" d="M127.2 396.606 Q123.589 396.606 121.76 400.171 Q119.955 403.713 119.955 410.842 Q119.955 417.949 121.76 421.514 Q123.589 425.055 127.2 425.055 Q130.834 425.055 132.64 421.514 Q134.468 417.949 134.468 410.842 Q134.468 403.713 132.64 400.171 Q130.834 396.606 127.2 396.606 M127.2 392.903 Q133.01 392.903 136.066 397.509 Q139.144 402.092 139.144 410.842 Q139.144 419.569 136.066 424.176 Q133.01 428.759 127.2 428.759 Q121.39 428.759 118.311 424.176 Q115.256 419.569 115.256 410.842 Q115.256 402.092 118.311 397.509 Q121.39 392.903 127.2 392.903 Z" fill="#000000" fill-rule="nonzero" fill-opacity="1"></path><path clip-path="url(#clip480)" d="M147.362 422.208 L152.246 422.208 L152.246 428.088 L147.362 428.088 L147.362 422.208 Z" fill="#000000" fill-rule="nonzero" fill-opacity="1"></path><path clip-path="url(#clip480)" d="M161.251 393.528 L183.473 393.528 L183.473 395.518 L170.927 428.088 L166.042 428.088 L177.848 397.463 L161.251 397.463 L161.251 393.528 Z" fill="#000000" fill-rule="nonzero" fill-opacity="1"></path><path clip-path="url(#clip480)" d="M192.639 393.528 L210.996 393.528 L210.996 397.463 L196.922 397.463 L196.922 405.935 Q197.94 405.588 198.959 405.426 Q199.977 405.241 200.996 405.241 Q206.783 405.241 210.162 408.412 Q213.542 411.583 213.542 417 Q213.542 422.578 210.07 425.68 Q206.598 428.759 200.278 428.759 Q198.102 428.759 195.834 428.389 Q193.588 428.018 191.181 427.278 L191.181 422.578 Q193.264 423.713 195.487 424.268 Q197.709 424.824 200.186 424.824 Q204.19 424.824 206.528 422.717 Q208.866 420.611 208.866 417 Q208.866 413.389 206.528 411.282 Q204.19 409.176 200.186 409.176 Q198.311 409.176 196.436 409.592 Q194.584 410.009 192.639 410.889 L192.639 393.528 Z" fill="#000000" fill-rule="nonzero" fill-opacity="1"></path><path clip-path="url(#clip480)" d="M117.015 99.5305 L124.654 99.5305 L124.654 73.1649 L116.343 74.8316 L116.343 70.5723 L124.607 68.9057 L129.283 68.9057 L129.283 99.5305 L136.922 99.5305 L136.922 103.466 L117.015 103.466 L117.015 99.5305 Z" fill="#000000" fill-rule="nonzero" fill-opacity="1"></path><path clip-path="url(#clip480)" d="M146.366 97.5861 L151.251 97.5861 L151.251 103.466 L146.366 103.466 L146.366 97.5861 Z" fill="#000000" fill-rule="nonzero" fill-opacity="1"></path><path clip-path="url(#clip480)" d="M171.436 71.9844 Q167.825 71.9844 165.996 75.5492 Q164.19 79.0908 164.19 86.2204 Q164.19 93.3268 165.996 96.8916 Q167.825 100.433 171.436 100.433 Q175.07 100.433 176.876 96.8916 Q178.704 93.3268 178.704 86.2204 Q178.704 79.0908 176.876 75.5492 Q175.07 71.9844 171.436 71.9844 M171.436 68.2807 Q177.246 68.2807 180.301 72.8871 Q183.38 77.4704 183.38 86.2204 Q183.38 94.9472 180.301 99.5537 Q177.246 104.137 171.436 104.137 Q165.626 104.137 162.547 99.5537 Q159.491 94.9472 159.491 86.2204 Q159.491 77.4704 162.547 72.8871 Q165.626 68.2807 171.436 68.2807 Z" fill="#000000" fill-rule="nonzero" fill-opacity="1"></path><path clip-path="url(#clip480)" d="M201.598 71.9844 Q197.987 71.9844 196.158 75.5492 Q194.352 79.0908 194.352 86.2204 Q194.352 93.3268 196.158 96.8916 Q197.987 100.433 201.598 100.433 Q205.232 100.433 207.037 96.8916 Q208.866 93.3268 208.866 86.2204 Q208.866 79.0908 207.037 75.5492 Q205.232 71.9844 201.598 71.9844 M201.598 68.2807 Q207.408 68.2807 210.463 72.8871 Q213.542 77.4704 213.542 86.2204 Q213.542 94.9472 210.463 99.5537 Q207.408 104.137 201.598 104.137 Q195.787 104.137 192.709 99.5537 Q189.653 94.9472 189.653 86.2204 Q189.653 77.4704 192.709 72.8871 Q195.787 68.2807 201.598 68.2807 Z" fill="#000000" fill-rule="nonzero" fill-opacity="1"></path><path clip-path="url(#clip480)" d="M18.0438 758.574 L24.314 758.574 Q22.5634 762.234 21.704 765.481 Q20.8447 768.727 20.8447 771.751 Q20.8447 777.003 22.8817 779.867 Q24.9187 782.7 28.6745 782.7 Q31.8255 782.7 33.4488 780.822 Q35.0402 778.913 36.0269 773.629 L36.8226 769.746 Q38.1912 762.553 41.6605 759.147 Q45.098 755.71 50.8908 755.71 Q57.7976 755.71 61.3624 760.357 Q64.9272 764.972 64.9272 773.915 Q64.9272 777.289 64.1633 781.109 Q63.3994 784.896 61.9035 788.97 L55.2831 788.97 Q57.4793 785.055 58.5933 781.3 Q59.7073 777.544 59.7073 773.915 Q59.7073 768.409 57.543 765.417 Q55.3786 762.425 51.3682 762.425 Q47.8671 762.425 45.8937 764.59 Q43.9204 766.722 42.9337 771.624 L42.1698 775.539 Q40.7375 782.732 37.682 785.947 Q34.6264 789.161 29.1837 789.161 Q22.8817 789.161 19.2532 784.737 Q15.6248 780.281 15.6248 772.483 Q15.6248 769.141 16.2295 765.672 Q16.8343 762.203 18.0438 758.574 Z" fill="#000000" fill-rule="nonzero" fill-opacity="1"></path><path clip-path="url(#clip480)" d="M14.5426 731.87 Q21.8632 736.135 29.0246 738.204 Q36.186 740.273 43.5384 740.273 Q50.8908 740.273 58.1159 738.204 Q65.3091 736.103 72.5979 731.87 L72.5979 736.963 Q65.1182 741.737 57.8931 744.124 Q50.668 746.479 43.5384 746.479 Q36.4406 746.479 29.2474 744.124 Q22.0542 741.769 14.5426 736.963 L14.5426 731.87 Z" fill="#000000" fill-rule="nonzero" fill-opacity="1"></path><path clip-path="url(#clip480)" d="M18.2347 714.714 L28.3562 714.714 L28.3562 702.651 L32.9077 702.651 L32.9077 714.714 L52.2594 714.714 Q56.6199 714.714 57.8613 713.537 Q59.1026 712.327 59.1026 708.667 L59.1026 702.651 L64.0042 702.651 L64.0042 708.667 Q64.0042 715.446 61.4897 718.025 Q58.9434 720.603 52.2594 720.603 L32.9077 720.603 L32.9077 724.9 L28.3562 724.9 L28.3562 720.603 L18.2347 720.603 L18.2347 714.714 Z" fill="#000000" fill-rule="nonzero" fill-opacity="1"></path><path clip-path="url(#clip480)" d="M14.5426 695.872 L14.5426 690.779 Q22.0542 686.005 29.2474 683.65 Q36.4406 681.263 43.5384 681.263 Q50.668 681.263 57.8931 683.65 Q65.1182 686.005 72.5979 690.779 L72.5979 695.872 Q65.3091 691.639 58.1159 689.57 Q50.8908 687.469 43.5384 687.469 Q36.186 687.469 29.0246 689.57 Q21.8632 691.639 14.5426 695.872 Z" fill="#000000" fill-rule="nonzero" fill-opacity="1"></path><polyline clip-path="url(#clip482)" style="stroke:#009af9; stroke-linecap:round; stroke-linejoin:round; stroke-width:4; stroke-opacity:1; fill:none" points="309.067,86.1857 319.038,89.8808 329.008,96.6099 338.979,105.272 348.95,115.454 358.92,126.905 368.891,139.447 378.862,152.941 388.832,167.274 398.803,182.349 408.774,198.085 418.744,214.406 428.715,231.247 438.686,248.546 448.656,266.25 458.627,284.307 468.598,302.67 478.568,321.294 488.539,340.14 498.51,359.169 508.48,378.345 518.451,397.634 528.422,417.005 538.392,436.428 548.363,455.875 558.334,475.32 568.304,494.739 578.275,514.108 588.246,533.405 598.216,552.611 608.187,571.707 618.158,590.674 628.129,609.497 638.099,628.159 648.07,646.646 658.041,664.946 668.011,683.045 677.982,700.933 687.953,718.598 697.923,736.033 707.894,753.227 717.865,770.173 727.835,786.864 737.806,803.293 747.777,819.455 757.747,835.345 767.718,850.958 777.689,866.291 787.659,881.34 797.63,896.103 807.601,910.578 817.571,924.763 827.542,938.658 837.513,952.26 847.483,965.571 857.454,978.59 867.425,991.318 877.395,1003.76 887.366,1015.91 897.337,1027.77 907.307,1039.34 917.278,1050.64 927.249,1061.65 937.219,1072.38 947.19,1082.84 957.161,1093.03 967.131,1102.94 977.102,1112.6 987.073,1121.99 997.043,1131.12 1007.01,1139.99 1016.98,1148.62 1026.96,1157 1036.93,1165.14 1046.9,1173.04 1056.87,1180.7 1066.84,1188.14 1076.81,1195.35 1086.78,1202.35 1096.75,1209.12 1106.72,1215.69 1116.69,1222.04 1126.66,1228.2 1136.63,1234.16 1146.6,1239.93 1156.57,1245.5 1166.54,1250.9 1176.52,1256.11 1186.49,1261.15 1196.46,1266.02 1206.43,1270.72 1216.4,1275.26 1226.37,1279.65 1236.34,1283.88 1246.31,1287.96 1256.28,1291.89 1266.25,1295.69 1276.22,1299.35 1286.19,1302.88 1296.16,1306.27 1306.13,1309.55 1316.1,1312.7 1326.08,1315.73 1336.05,1318.65 1346.02,1321.46 1355.99,1324.16 1365.96,1326.76 1375.93,1329.26 1385.9,1331.67 1395.87,1333.97 1405.84,1336.19 1415.81,1338.32 1425.78,1340.37 1435.75,1342.33 1445.72,1344.22 1455.69,1346.03 1465.67,1347.76 1475.64,1349.43 1485.61,1351.02 1495.58,1352.55 1505.55,1354.02 1515.52,1355.42 1525.49,1356.77 1535.46,1358.06 1545.43,1359.29 1555.4,1360.48 1565.37,1361.61 1575.34,1362.69 1585.31,1363.73 1595.28,1364.72 1605.25,1365.66 1615.23,1366.57 1625.2,1367.44 1635.17,1368.26 1645.14,1369.05 1655.11,1369.81 1665.08,1370.53 1675.05,1371.22 1685.02,1371.88 1694.99,1372.51 1704.96,1373.11 1714.93,1373.68 1724.9,1374.22 1734.87,1374.74 1744.84,1375.24 1754.81,1375.71 1764.79,1376.16 1774.76,1376.59 1784.73,1377 1794.7,1377.39 1804.67,1377.76 1814.64,1378.11 1824.61,1378.45 1834.58,1378.77 1844.55,1379.07 1854.52,1379.36 1864.49,1379.64 1874.46,1379.9 1884.43,1380.15 1894.4,1380.39 1904.37,1380.61 1914.35,1380.83 1924.32,1381.03 1934.29,1381.22 1944.26,1381.41 1954.23,1381.58 1964.2,1381.75 1974.17,1381.9 1984.14,1382.05 1994.11,1382.19 2004.08,1382.33 2014.05,1382.46 2024.02,1382.58 2033.99,1382.69 2043.96,1382.8 2053.93,1382.9 2063.91,1383 2073.88,1383.09 2083.85,1383.18 2093.82,1383.26 2103.79,1383.34 2113.76,1383.42 2123.73,1383.49 2133.7,1383.55 2143.67,1383.62 2153.64,1383.68 2163.61,1383.73 2173.58,1383.79 2183.55,1383.84 2193.52,1383.88 2203.49,1383.93 2213.47,1383.97 2223.44,1384.01 2233.41,1384.05 2243.38,1384.09 2253.35,1384.12 2263.32,1384.15 2273.29,1384.18 2283.26,1384.21 2293.23,1384.24 "></polyline>
<path clip-path="url(#clip480)" d="M1704.62 196.789 L2282.65 196.789 L2282.65 93.1086 L1704.62 93.1086  Z" fill="#ffffff" fill-rule="evenodd" fill-opacity="1"></path>
<polyline clip-path="url(#clip480)" style="stroke:#000000; stroke-linecap:round; stroke-linejoin:round; stroke-width:4; stroke-opacity:1; fill:none" points="1704.62,196.789 2282.65,196.789 2282.65,93.1086 1704.62,93.1086 1704.62,196.789 "></polyline>
<polyline clip-path="url(#clip480)" style="stroke:#009af9; stroke-linecap:round; stroke-linejoin:round; stroke-width:4; stroke-opacity:1; fill:none" points="1727.99,144.949 1868.2,144.949 "></polyline>
<path clip-path="url(#clip480)" d="M1891.57 127.669 L1896.3 127.669 L1903.56 156.881 L1910.81 127.669 L1916.06 127.669 L1923.33 156.881 L1930.58 127.669 L1935.32 127.669 L1926.64 162.229 L1920.76 162.229 L1913.47 132.229 L1906.11 162.229 L1900.23 162.229 L1891.57 127.669 Z" fill="#000000" fill-rule="nonzero" fill-opacity="1"></path><path clip-path="url(#clip480)" d="M1960.74 148.201 L1960.74 150.284 L1941.16 150.284 Q1941.43 154.682 1943.8 156.997 Q1946.18 159.289 1950.42 159.289 Q1952.87 159.289 1955.16 158.687 Q1957.48 158.085 1959.74 156.881 L1959.74 160.909 Q1957.45 161.881 1955.05 162.391 Q1952.64 162.9 1950.16 162.9 Q1943.96 162.9 1940.32 159.289 Q1936.71 155.678 1936.71 149.52 Q1936.71 143.155 1940.14 139.428 Q1943.59 135.678 1949.42 135.678 Q1954.65 135.678 1957.68 139.057 Q1960.74 142.414 1960.74 148.201 M1956.48 146.951 Q1956.43 143.456 1954.51 141.372 Q1952.61 139.289 1949.47 139.289 Q1945.9 139.289 1943.75 141.303 Q1941.62 143.317 1941.3 146.974 L1956.48 146.951 Z" fill="#000000" fill-rule="nonzero" fill-opacity="1"></path><path clip-path="url(#clip480)" d="M1967.73 136.303 L1971.99 136.303 L1971.99 162.229 L1967.73 162.229 L1967.73 136.303 M1967.73 126.21 L1971.99 126.21 L1971.99 131.604 L1967.73 131.604 L1967.73 126.21 Z" fill="#000000" fill-rule="nonzero" fill-opacity="1"></path><path clip-path="url(#clip480)" d="M1999.51 149.289 Q1999.51 144.59 1997.57 141.928 Q1995.65 139.243 1992.27 139.243 Q1988.89 139.243 1986.94 141.928 Q1985.02 144.59 1985.02 149.289 Q1985.02 153.988 1986.94 156.673 Q1988.89 159.335 1992.27 159.335 Q1995.65 159.335 1997.57 156.673 Q1999.51 153.988 1999.51 149.289 M1985.02 140.238 Q1986.36 137.923 1988.4 136.812 Q1990.46 135.678 1993.31 135.678 Q1998.03 135.678 2000.97 139.428 Q2003.93 143.178 2003.93 149.289 Q2003.93 155.4 2000.97 159.15 Q1998.03 162.9 1993.31 162.9 Q1990.46 162.9 1988.4 161.789 Q1986.36 160.655 1985.02 158.34 L1985.02 162.229 L1980.74 162.229 L1980.74 126.21 L1985.02 126.21 L1985.02 140.238 Z" fill="#000000" fill-rule="nonzero" fill-opacity="1"></path><path clip-path="url(#clip480)" d="M2010.55 151.997 L2010.55 136.303 L2014.81 136.303 L2014.81 151.835 Q2014.81 155.516 2016.25 157.368 Q2017.68 159.196 2020.55 159.196 Q2024 159.196 2025.99 156.997 Q2028.01 154.798 2028.01 151.002 L2028.01 136.303 L2032.27 136.303 L2032.27 162.229 L2028.01 162.229 L2028.01 158.247 Q2026.46 160.608 2024.4 161.766 Q2022.36 162.9 2019.65 162.9 Q2015.18 162.9 2012.87 160.122 Q2010.55 157.344 2010.55 151.997 M2021.27 135.678 L2021.27 135.678 Z" fill="#000000" fill-rule="nonzero" fill-opacity="1"></path><path clip-path="url(#clip480)" d="M2041.04 126.21 L2045.3 126.21 L2045.3 162.229 L2041.04 162.229 L2041.04 126.21 Z" fill="#000000" fill-rule="nonzero" fill-opacity="1"></path><path clip-path="url(#clip480)" d="M2054.21 126.21 L2058.47 126.21 L2058.47 162.229 L2054.21 162.229 L2054.21 126.21 Z" fill="#000000" fill-rule="nonzero" fill-opacity="1"></path><path clip-path="url(#clip480)" d="M2098.98 137.067 L2098.98 141.094 Q2097.17 140.169 2095.23 139.706 Q2093.29 139.243 2091.2 139.243 Q2088.03 139.243 2086.43 140.215 Q2084.86 141.187 2084.86 143.131 Q2084.86 144.613 2085.99 145.469 Q2087.13 146.303 2090.55 147.067 L2092.01 147.391 Q2096.55 148.363 2098.45 150.145 Q2100.37 151.905 2100.37 155.076 Q2100.37 158.687 2097.5 160.793 Q2094.65 162.9 2089.65 162.9 Q2087.57 162.9 2085.3 162.483 Q2083.05 162.09 2080.55 161.28 L2080.55 156.881 Q2082.91 158.108 2085.21 158.733 Q2087.5 159.335 2089.74 159.335 Q2092.75 159.335 2094.37 158.317 Q2095.99 157.275 2095.99 155.4 Q2095.99 153.664 2094.81 152.738 Q2093.66 151.812 2089.7 150.956 L2088.22 150.608 Q2084.26 149.775 2082.5 148.062 Q2080.74 146.326 2080.74 143.317 Q2080.74 139.659 2083.33 137.669 Q2085.92 135.678 2090.69 135.678 Q2093.05 135.678 2095.14 136.025 Q2097.22 136.372 2098.98 137.067 Z" fill="#000000" fill-rule="nonzero" fill-opacity="1"></path><path clip-path="url(#clip480)" d="M2106.71 151.997 L2106.71 136.303 L2110.97 136.303 L2110.97 151.835 Q2110.97 155.516 2112.41 157.368 Q2113.84 159.196 2116.71 159.196 Q2120.16 159.196 2122.15 156.997 Q2124.16 154.798 2124.16 151.002 L2124.16 136.303 L2128.42 136.303 L2128.42 162.229 L2124.16 162.229 L2124.16 158.247 Q2122.61 160.608 2120.55 161.766 Q2118.52 162.9 2115.81 162.9 Q2111.34 162.9 2109.03 160.122 Q2106.71 157.344 2106.71 151.997 M2117.43 135.678 L2117.43 135.678 Z" fill="#000000" fill-rule="nonzero" fill-opacity="1"></path><path clip-path="url(#clip480)" d="M2152.22 140.284 Q2151.5 139.868 2150.65 139.682 Q2149.81 139.474 2148.79 139.474 Q2145.18 139.474 2143.24 141.835 Q2141.32 144.173 2141.32 148.571 L2141.32 162.229 L2137.04 162.229 L2137.04 136.303 L2141.32 136.303 L2141.32 140.331 Q2142.66 137.969 2144.81 136.835 Q2146.97 135.678 2150.04 135.678 Q2150.48 135.678 2151.02 135.747 Q2151.55 135.794 2152.2 135.909 L2152.22 140.284 Z" fill="#000000" fill-rule="nonzero" fill-opacity="1"></path><path clip-path="url(#clip480)" d="M2153.63 136.303 L2158.15 136.303 L2166.25 158.062 L2174.35 136.303 L2178.86 136.303 L2169.14 162.229 L2163.35 162.229 L2153.63 136.303 Z" fill="#000000" fill-rule="nonzero" fill-opacity="1"></path><path clip-path="url(#clip480)" d="M2184.74 136.303 L2189 136.303 L2189 162.229 L2184.74 162.229 L2184.74 136.303 M2184.74 126.21 L2189 126.21 L2189 131.604 L2184.74 131.604 L2184.74 126.21 Z" fill="#000000" fill-rule="nonzero" fill-opacity="1"></path><path clip-path="url(#clip480)" d="M2194.86 136.303 L2199.37 136.303 L2207.47 158.062 L2215.58 136.303 L2220.09 136.303 L2210.37 162.229 L2204.58 162.229 L2194.86 136.303 Z" fill="#000000" fill-rule="nonzero" fill-opacity="1"></path><path clip-path="url(#clip480)" d="M2237.75 149.196 Q2232.59 149.196 2230.6 150.377 Q2228.61 151.557 2228.61 154.405 Q2228.61 156.673 2230.09 158.016 Q2231.59 159.335 2234.16 159.335 Q2237.71 159.335 2239.84 156.835 Q2241.99 154.312 2241.99 150.145 L2241.99 149.196 L2237.75 149.196 M2246.25 147.437 L2246.25 162.229 L2241.99 162.229 L2241.99 158.293 Q2240.53 160.655 2238.35 161.789 Q2236.18 162.9 2233.03 162.9 Q2229.05 162.9 2226.69 160.678 Q2224.35 158.432 2224.35 154.682 Q2224.35 150.307 2227.27 148.085 Q2230.21 145.863 2236.02 145.863 L2241.99 145.863 L2241.99 145.446 Q2241.99 142.507 2240.04 140.909 Q2238.12 139.289 2234.63 139.289 Q2232.4 139.289 2230.3 139.821 Q2228.19 140.354 2226.25 141.419 L2226.25 137.483 Q2228.59 136.581 2230.78 136.141 Q2232.98 135.678 2235.07 135.678 Q2240.69 135.678 2243.47 138.594 Q2246.25 141.511 2246.25 147.437 Z" fill="#000000" fill-rule="nonzero" fill-opacity="1"></path><path clip-path="url(#clip480)" d="M2255.02 126.21 L2259.28 126.21 L2259.28 162.229 L2255.02 162.229 L2255.02 126.21 Z" fill="#000000" fill-rule="nonzero" fill-opacity="1"></path></svg>