<svg xmlns="http://www.w3.org/2000/svg" xmlns:xlink="http://www.w3.org/1999/xlink" width="600" height="400" viewBox="0 0 2400 1600">
<defs>
  <clipPath id="clip520">
    <rect x="0" y="0" width="2400" height="1600"></rect>
  </clipPath>
</defs>
<path clip-path="url(#clip520)" d="M0 1600 L2400 1600 L2400 8.88178e-14 L0 8.88178e-14  Z" fill="#ffffff" fill-rule="evenodd" fill-opacity="1"></path>
<defs>
  <clipPath id="clip521">
    <rect x="480" y="0" width="1681" height="1600"></rect>
  </clipPath>
</defs>
<path clip-path="url(#clip520)" d="M280.19 1423.18 L2352.76 1423.18 L2352.76 47.2441 L280.19 47.2441  Z" fill="#ffffff" fill-rule="evenodd" fill-opacity="1"></path>
<defs>
  <clipPath id="clip522">
    <rect x="280" y="47" width="2074" height="1377"></rect>
  </clipPath>
</defs>
<polyline clip-path="url(#clip522)" style="stroke:#000000; stroke-linecap:round; stroke-linejoin:round; stroke-width:2; stroke-opacity:0.1; fill:none" points="338.848,1423.18 338.848,47.2441 "></polyline>
<polyline clip-path="url(#clip522)" style="stroke:#000000; stroke-linecap:round; stroke-linejoin:round; stroke-width:2; stroke-opacity:0.1; fill:none" points="827.66,1423.18 827.66,47.2441 "></polyline>
<polyline clip-path="url(#clip522)" style="stroke:#000000; stroke-linecap:round; stroke-linejoin:round; stroke-width:2; stroke-opacity:0.1; fill:none" points="1316.47,1423.18 1316.47,47.2441 "></polyline>
<polyline clip-path="url(#clip522)" style="stroke:#000000; stroke-linecap:round; stroke-linejoin:round; stroke-width:2; stroke-opacity:0.1; fill:none" points="1805.29,1423.18 1805.29,47.2441 "></polyline>
<polyline clip-path="url(#clip522)" style="stroke:#000000; stroke-linecap:round; stroke-linejoin:round; stroke-width:2; stroke-opacity:0.1; fill:none" points="2294.1,1423.18 2294.1,47.2441 "></polyline>
<polyline clip-path="url(#clip522)" style="stroke:#000000; stroke-linecap:round; stroke-linejoin:round; stroke-width:2; stroke-opacity:0.1; fill:none" points="280.19,1384.24 2352.76,1384.24 "></polyline>
<polyline clip-path="url(#clip522)" style="stroke:#000000; stroke-linecap:round; stroke-linejoin:round; stroke-width:2; stroke-opacity:0.1; fill:none" points="280.19,1167.9 2352.76,1167.9 "></polyline>
<polyline clip-path="url(#clip522)" style="stroke:#000000; stroke-linecap:round; stroke-linejoin:round; stroke-width:2; stroke-opacity:0.1; fill:none" points="280.19,951.554 2352.76,951.554 "></polyline>
<polyline clip-path="url(#clip522)" style="stroke:#000000; stroke-linecap:round; stroke-linejoin:round; stroke-width:2; stroke-opacity:0.1; fill:none" points="280.19,735.212 2352.76,735.212 "></polyline>
<polyline clip-path="url(#clip522)" style="stroke:#000000; stroke-linecap:round; stroke-linejoin:round; stroke-width:2; stroke-opacity:0.1; fill:none" points="280.19,518.87 2352.76,518.87 "></polyline>
<polyline clip-path="url(#clip522)" style="stroke:#000000; stroke-linecap:round; stroke-linejoin:round; stroke-width:2; stroke-opacity:0.1; fill:none" points="280.19,302.528 2352.76,302.528 "></polyline>
<polyline clip-path="url(#clip522)" style="stroke:#000000; stroke-linecap:round; stroke-linejoin:round; stroke-width:2; stroke-opacity:0.1; fill:none" points="280.19,86.1857 2352.76,86.1857 "></polyline>
<polyline clip-path="url(#clip520)" style="stroke:#000000; stroke-linecap:round; stroke-linejoin:round; stroke-width:4; stroke-opacity:1; fill:none" points="280.19,1423.18 2352.76,1423.18 "></polyline>
<polyline clip-path="url(#clip520)" style="stroke:#000000; stroke-linecap:round; stroke-linejoin:round; stroke-width:4; stroke-opacity:1; fill:none" points="338.848,1423.18 338.848,1404.28 "></polyline>
<polyline clip-path="url(#clip520)" style="stroke:#000000; stroke-linecap:round; stroke-linejoin:round; stroke-width:4; stroke-opacity:1; fill:none" points="827.66,1423.18 827.66,1404.28 "></polyline>
<polyline clip-path="url(#clip520)" style="stroke:#000000; stroke-linecap:round; stroke-linejoin:round; stroke-width:4; stroke-opacity:1; fill:none" points="1316.47,1423.18 1316.47,1404.28 "></polyline>
<polyline clip-path="url(#clip520)" style="stroke:#000000; stroke-linecap:round; stroke-linejoin:round; stroke-width:4; stroke-opacity:1; fill:none" points="1805.29,1423.18 1805.29,1404.28 "></polyline>
<polyline clip-path="url(#clip520)" style="stroke:#000000; stroke-linecap:round; stroke-linejoin:round; stroke-width:4; stroke-opacity:1; fill:none" points="2294.1,1423.18 2294.1,1404.28 "></polyline>
<path clip-path="url(#clip520)" d="M338.848 1454.1 Q335.236 1454.1 333.408 1457.66 Q331.602 1461.2 331.602 1468.33 Q331.602 1475.44 333.408 1479.01 Q335.236 1482.55 338.848 1482.55 Q342.482 1482.55 344.287 1479.01 Q346.116 1475.44 346.116 1468.33 Q346.116 1461.2 344.287 1457.66 Q342.482 1454.1 338.848 1454.1 M338.848 1450.39 Q344.658 1450.39 347.713 1455 Q350.792 1459.58 350.792 1468.33 Q350.792 1477.06 347.713 1481.67 Q344.658 1486.25 338.848 1486.25 Q333.037 1486.25 329.959 1481.67 Q326.903 1477.06 326.903 1468.33 Q326.903 1459.58 329.959 1455 Q333.037 1450.39 338.848 1450.39 Z" fill="#000000" fill-rule="nonzero" fill-opacity="1"></path><path clip-path="url(#clip520)" d="M787.279 1451.02 L805.635 1451.02 L805.635 1454.96 L791.561 1454.96 L791.561 1463.43 Q792.579 1463.08 793.598 1462.92 Q794.616 1462.73 795.635 1462.73 Q801.422 1462.73 804.802 1465.9 Q808.181 1469.08 808.181 1474.49 Q808.181 1480.07 804.709 1483.17 Q801.237 1486.25 794.917 1486.25 Q792.741 1486.25 790.473 1485.88 Q788.228 1485.51 785.82 1484.77 L785.82 1480.07 Q787.904 1481.2 790.126 1481.76 Q792.348 1482.32 794.825 1482.32 Q798.829 1482.32 801.167 1480.21 Q803.505 1478.1 803.505 1474.49 Q803.505 1470.88 801.167 1468.77 Q798.829 1466.67 794.825 1466.67 Q792.95 1466.67 791.075 1467.08 Q789.223 1467.5 787.279 1468.38 L787.279 1451.02 Z" fill="#000000" fill-rule="nonzero" fill-opacity="1"></path><path clip-path="url(#clip520)" d="M827.394 1454.1 Q823.783 1454.1 821.954 1457.66 Q820.149 1461.2 820.149 1468.33 Q820.149 1475.44 821.954 1479.01 Q823.783 1482.55 827.394 1482.55 Q831.028 1482.55 832.834 1479.01 Q834.663 1475.44 834.663 1468.33 Q834.663 1461.2 832.834 1457.66 Q831.028 1454.1 827.394 1454.1 M827.394 1450.39 Q833.204 1450.39 836.26 1455 Q839.338 1459.58 839.338 1468.33 Q839.338 1477.06 836.26 1481.67 Q833.204 1486.25 827.394 1486.25 Q821.584 1486.25 818.505 1481.67 Q815.45 1477.06 815.45 1468.33 Q815.45 1459.58 818.505 1455 Q821.584 1450.39 827.394 1450.39 Z" fill="#000000" fill-rule="nonzero" fill-opacity="1"></path><path clip-path="url(#clip520)" d="M857.556 1454.1 Q853.945 1454.1 852.116 1457.66 Q850.311 1461.2 850.311 1468.33 Q850.311 1475.44 852.116 1479.01 Q853.945 1482.55 857.556 1482.55 Q861.19 1482.55 862.996 1479.01 Q864.824 1475.44 864.824 1468.33 Q864.824 1461.2 862.996 1457.66 Q861.19 1454.1 857.556 1454.1 M857.556 1450.39 Q863.366 1450.39 866.422 1455 Q869.5 1459.58 869.5 1468.33 Q869.5 1477.06 866.422 1481.67 Q863.366 1486.25 857.556 1486.25 Q851.746 1486.25 848.667 1481.67 Q845.612 1477.06 845.612 1468.33 Q845.612 1459.58 848.667 1455 Q851.746 1450.39 857.556 1450.39 Z" fill="#000000" fill-rule="nonzero" fill-opacity="1"></path><path clip-path="url(#clip520)" d="M1261 1481.64 L1268.64 1481.64 L1268.64 1455.28 L1260.33 1456.95 L1260.33 1452.69 L1268.59 1451.02 L1273.27 1451.02 L1273.27 1481.64 L1280.91 1481.64 L1280.91 1485.58 L1261 1485.58 L1261 1481.64 Z" fill="#000000" fill-rule="nonzero" fill-opacity="1"></path><path clip-path="url(#clip520)" d="M1300.35 1454.1 Q1296.74 1454.1 1294.91 1457.66 Q1293.11 1461.2 1293.11 1468.33 Q1293.11 1475.44 1294.91 1479.01 Q1296.74 1482.55 1300.35 1482.55 Q1303.98 1482.55 1305.79 1479.01 Q1307.62 1475.44 1307.62 1468.33 Q1307.62 1461.2 1305.79 1457.66 Q1303.98 1454.1 1300.35 1454.1 M1300.35 1450.39 Q1306.16 1450.39 1309.22 1455 Q1312.29 1459.58 1312.29 1468.33 Q1312.29 1477.06 1309.22 1481.67 Q1306.16 1486.25 1300.35 1486.25 Q1294.54 1486.25 1291.46 1481.67 Q1288.41 1477.06 1288.41 1468.33 Q1288.41 1459.58 1291.46 1455 Q1294.54 1450.39 1300.35 1450.39 Z" fill="#000000" fill-rule="nonzero" fill-opacity="1"></path><path clip-path="url(#clip520)" d="M1330.51 1454.1 Q1326.9 1454.1 1325.07 1457.66 Q1323.27 1461.2 1323.27 1468.33 Q1323.27 1475.44 1325.07 1479.01 Q1326.9 1482.55 1330.51 1482.55 Q1334.15 1482.55 1335.95 1479.01 Q1337.78 1475.44 1337.78 1468.33 Q1337.78 1461.2 1335.95 1457.66 Q1334.15 1454.1 1330.51 1454.1 M1330.51 1450.39 Q1336.32 1450.39 1339.38 1455 Q1342.46 1459.58 1342.46 1468.33 Q1342.46 1477.06 1339.38 1481.67 Q1336.32 1486.25 1330.51 1486.25 Q1324.7 1486.25 1321.62 1481.67 Q1318.57 1477.06 1318.57 1468.33 Q1318.57 1459.58 1321.62 1455 Q1324.7 1450.39 1330.51 1450.39 Z" fill="#000000" fill-rule="nonzero" fill-opacity="1"></path><path clip-path="url(#clip520)" d="M1360.67 1454.1 Q1357.06 1454.1 1355.23 1457.66 Q1353.43 1461.2 1353.43 1468.33 Q1353.43 1475.44 1355.23 1479.01 Q1357.06 1482.55 1360.67 1482.55 Q1364.31 1482.55 1366.11 1479.01 Q1367.94 1475.44 1367.94 1468.33 Q1367.94 1461.2 1366.11 1457.66 Q1364.31 1454.1 1360.67 1454.1 M1360.67 1450.39 Q1366.48 1450.39 1369.54 1455 Q1372.62 1459.58 1372.62 1468.33 Q1372.62 1477.06 1369.54 1481.67 Q1366.48 1486.25 1360.67 1486.25 Q1354.86 1486.25 1351.79 1481.67 Q1348.73 1477.06 1348.73 1468.33 Q1348.73 1459.58 1351.79 1455 Q1354.86 1450.39 1360.67 1450.39 Z" fill="#000000" fill-rule="nonzero" fill-opacity="1"></path><path clip-path="url(#clip520)" d="M1749.81 1481.64 L1757.45 1481.64 L1757.45 1455.28 L1749.14 1456.95 L1749.14 1452.69 L1757.4 1451.02 L1762.08 1451.02 L1762.08 1481.64 L1769.72 1481.64 L1769.72 1485.58 L1749.81 1485.58 L1749.81 1481.64 Z" fill="#000000" fill-rule="nonzero" fill-opacity="1"></path><path clip-path="url(#clip520)" d="M1779.21 1451.02 L1797.57 1451.02 L1797.57 1454.96 L1783.49 1454.96 L1783.49 1463.43 Q1784.51 1463.08 1785.53 1462.92 Q1786.55 1462.73 1787.57 1462.73 Q1793.35 1462.73 1796.73 1465.9 Q1800.11 1469.08 1800.11 1474.49 Q1800.11 1480.07 1796.64 1483.17 Q1793.17 1486.25 1786.85 1486.25 Q1784.67 1486.25 1782.4 1485.88 Q1780.16 1485.51 1777.75 1484.77 L1777.75 1480.07 Q1779.83 1481.2 1782.06 1481.76 Q1784.28 1482.32 1786.76 1482.32 Q1790.76 1482.32 1793.1 1480.21 Q1795.44 1478.1 1795.44 1474.49 Q1795.44 1470.88 1793.1 1468.77 Q1790.76 1466.67 1786.76 1466.67 Q1784.88 1466.67 1783.01 1467.08 Q1781.15 1467.5 1779.21 1468.38 L1779.21 1451.02 Z" fill="#000000" fill-rule="nonzero" fill-opacity="1"></path><path clip-path="url(#clip520)" d="M1819.32 1454.1 Q1815.71 1454.1 1813.89 1457.66 Q1812.08 1461.2 1812.08 1468.33 Q1812.08 1475.44 1813.89 1479.01 Q1815.71 1482.55 1819.32 1482.55 Q1822.96 1482.55 1824.76 1479.01 Q1826.59 1475.44 1826.59 1468.33 Q1826.59 1461.2 1824.76 1457.66 Q1822.96 1454.1 1819.32 1454.1 M1819.32 1450.39 Q1825.14 1450.39 1828.19 1455 Q1831.27 1459.58 1831.27 1468.33 Q1831.27 1477.06 1828.19 1481.67 Q1825.14 1486.25 1819.32 1486.25 Q1813.51 1486.25 1810.44 1481.67 Q1807.38 1477.06 1807.38 1468.33 Q1807.38 1459.58 1810.44 1455 Q1813.51 1450.39 1819.32 1450.39 Z" fill="#000000" fill-rule="nonzero" fill-opacity="1"></path><path clip-path="url(#clip520)" d="M1849.49 1454.1 Q1845.88 1454.1 1844.05 1457.66 Q1842.24 1461.2 1842.24 1468.33 Q1842.24 1475.44 1844.05 1479.01 Q1845.88 1482.55 1849.49 1482.55 Q1853.12 1482.55 1854.93 1479.01 Q1856.76 1475.44 1856.76 1468.33 Q1856.76 1461.2 1854.93 1457.66 Q1853.12 1454.1 1849.49 1454.1 M1849.49 1450.39 Q1855.3 1450.39 1858.35 1455 Q1861.43 1459.58 1861.43 1468.33 Q1861.43 1477.06 1858.35 1481.67 Q1855.3 1486.25 1849.49 1486.25 Q1843.68 1486.25 1840.6 1481.67 Q1837.54 1477.06 1837.54 1468.33 Q1837.54 1459.58 1840.6 1455 Q1843.68 1450.39 1849.49 1450.39 Z" fill="#000000" fill-rule="nonzero" fill-opacity="1"></path><path clip-path="url(#clip520)" d="M2242.71 1481.64 L2259.03 1481.64 L2259.03 1485.58 L2237.08 1485.58 L2237.08 1481.64 Q2239.75 1478.89 2244.33 1474.26 Q2248.94 1469.61 2250.12 1468.27 Q2252.36 1465.74 2253.24 1464.01 Q2254.14 1462.25 2254.14 1460.56 Q2254.14 1457.8 2252.2 1456.07 Q2250.28 1454.33 2247.18 1454.33 Q2244.98 1454.33 2242.52 1455.09 Q2240.09 1455.86 2237.32 1457.41 L2237.32 1452.69 Q2240.14 1451.55 2242.59 1450.97 Q2245.05 1450.39 2247.08 1450.39 Q2252.46 1450.39 2255.65 1453.08 Q2258.84 1455.77 2258.84 1460.26 Q2258.84 1462.39 2258.03 1464.31 Q2257.25 1466.2 2255.14 1468.8 Q2254.56 1469.47 2251.46 1472.69 Q2248.36 1475.88 2242.71 1481.64 Z" fill="#000000" fill-rule="nonzero" fill-opacity="1"></path><path clip-path="url(#clip520)" d="M2278.84 1454.1 Q2275.23 1454.1 2273.4 1457.66 Q2271.6 1461.2 2271.6 1468.33 Q2271.6 1475.44 2273.4 1479.01 Q2275.23 1482.55 2278.84 1482.55 Q2282.48 1482.55 2284.28 1479.01 Q2286.11 1475.44 2286.11 1468.33 Q2286.11 1461.2 2284.28 1457.66 Q2282.48 1454.1 2278.84 1454.1 M2278.84 1450.39 Q2284.65 1450.39 2287.71 1455 Q2290.79 1459.58 2290.79 1468.33 Q2290.79 1477.06 2287.71 1481.67 Q2284.65 1486.25 2278.84 1486.25 Q2273.03 1486.25 2269.95 1481.67 Q2266.9 1477.06 2266.9 1468.33 Q2266.9 1459.58 2269.95 1455 Q2273.03 1450.39 2278.84 1450.39 Z" fill="#000000" fill-rule="nonzero" fill-opacity="1"></path><path clip-path="url(#clip520)" d="M2309.01 1454.1 Q2305.39 1454.1 2303.57 1457.66 Q2301.76 1461.2 2301.76 1468.33 Q2301.76 1475.44 2303.57 1479.01 Q2305.39 1482.55 2309.01 1482.55 Q2312.64 1482.55 2314.45 1479.01 Q2316.27 1475.44 2316.27 1468.33 Q2316.27 1461.2 2314.45 1457.66 Q2312.64 1454.1 2309.01 1454.1 M2309.01 1450.39 Q2314.82 1450.39 2317.87 1455 Q2320.95 1459.58 2320.95 1468.33 Q2320.95 1477.06 2317.87 1481.67 Q2314.82 1486.25 2309.01 1486.25 Q2303.2 1486.25 2300.12 1481.67 Q2297.06 1477.06 2297.06 1468.33 Q2297.06 1459.58 2300.12 1455 Q2303.2 1450.39 2309.01 1450.39 Z" fill="#000000" fill-rule="nonzero" fill-opacity="1"></path><path clip-path="url(#clip520)" d="M2339.17 1454.1 Q2335.56 1454.1 2333.73 1457.66 Q2331.92 1461.2 2331.92 1468.33 Q2331.92 1475.44 2333.73 1479.01 Q2335.56 1482.55 2339.17 1482.55 Q2342.8 1482.55 2344.61 1479.01 Q2346.44 1475.44 2346.44 1468.33 Q2346.44 1461.2 2344.61 1457.66 Q2342.8 1454.1 2339.17 1454.1 M2339.17 1450.39 Q2344.98 1450.39 2348.03 1455 Q2351.11 1459.58 2351.11 1468.33 Q2351.11 1477.06 2348.03 1481.67 Q2344.98 1486.25 2339.17 1486.25 Q2333.36 1486.25 2330.28 1481.67 Q2327.22 1477.06 2327.22 1468.33 Q2327.22 1459.58 2330.28 1455 Q2333.36 1450.39 2339.17 1450.39 Z" fill="#000000" fill-rule="nonzero" fill-opacity="1"></path><path clip-path="url(#clip520)" d="M1255.63 1522.27 L1255.63 1532.4 L1267.7 1532.4 L1267.7 1536.95 L1255.63 1536.95 L1255.63 1556.3 Q1255.63 1560.66 1256.81 1561.9 Q1258.02 1563.14 1261.68 1563.14 L1267.7 1563.14 L1267.7 1568.04 L1261.68 1568.04 Q1254.9 1568.04 1252.32 1565.53 Q1249.74 1562.98 1249.74 1556.3 L1249.74 1536.95 L1245.45 1536.95 L1245.45 1532.4 L1249.74 1532.4 L1249.74 1522.27 L1255.63 1522.27 Z" fill="#000000" fill-rule="nonzero" fill-opacity="1"></path><path clip-path="url(#clip520)" d="M1275.4 1532.4 L1281.25 1532.4 L1281.25 1568.04 L1275.4 1568.04 L1275.4 1532.4 M1275.4 1518.52 L1281.25 1518.52 L1281.25 1525.93 L1275.4 1525.93 L1275.4 1518.52 Z" fill="#000000" fill-rule="nonzero" fill-opacity="1"></path><path clip-path="url(#clip520)" d="M1321.26 1539.24 Q1323.46 1535.29 1326.51 1533.41 Q1329.57 1531.54 1333.71 1531.54 Q1339.28 1531.54 1342.3 1535.45 Q1345.33 1539.33 1345.33 1546.53 L1345.33 1568.04 L1339.44 1568.04 L1339.44 1546.72 Q1339.44 1541.59 1337.62 1539.11 Q1335.81 1536.63 1332.08 1536.63 Q1327.53 1536.63 1324.89 1539.65 Q1322.25 1542.68 1322.25 1547.9 L1322.25 1568.04 L1316.36 1568.04 L1316.36 1546.72 Q1316.36 1541.56 1314.55 1539.11 Q1312.73 1536.63 1308.95 1536.63 Q1304.46 1536.63 1301.82 1539.68 Q1299.17 1542.71 1299.17 1547.9 L1299.17 1568.04 L1293.29 1568.04 L1293.29 1532.4 L1299.17 1532.4 L1299.17 1537.93 Q1301.18 1534.66 1303.98 1533.1 Q1306.78 1531.54 1310.63 1531.54 Q1314.52 1531.54 1317.22 1533.51 Q1319.96 1535.48 1321.26 1539.24 Z" fill="#000000" fill-rule="nonzero" fill-opacity="1"></path><path clip-path="url(#clip520)" d="M1387.5 1548.76 L1387.5 1551.62 L1360.57 1551.62 Q1360.95 1557.67 1364.2 1560.85 Q1367.48 1564 1373.3 1564 Q1376.68 1564 1379.83 1563.17 Q1383.01 1562.35 1386.13 1560.69 L1386.13 1566.23 Q1382.98 1567.57 1379.67 1568.27 Q1376.36 1568.97 1372.95 1568.97 Q1364.42 1568.97 1359.43 1564 Q1354.46 1559.04 1354.46 1550.57 Q1354.46 1541.82 1359.17 1536.69 Q1363.91 1531.54 1371.93 1531.54 Q1379.13 1531.54 1383.3 1536.18 Q1387.5 1540.8 1387.5 1548.76 M1381.64 1547.04 Q1381.58 1542.23 1378.94 1539.37 Q1376.33 1536.5 1372 1536.5 Q1367.1 1536.5 1364.14 1539.27 Q1361.21 1542.04 1360.76 1547.07 L1381.64 1547.04 Z" fill="#000000" fill-rule="nonzero" fill-opacity="1"></path><polyline clip-path="url(#clip520)" style="stroke:#000000; stroke-linecap:round; stroke-linejoin:round; stroke-width:4; stroke-opacity:1; fill:none" points="280.19,1423.18 280.19,47.2441 "></polyline>
<polyline clip-path="url(#clip520)" style="stroke:#000000; stroke-linecap:round; stroke-linejoin:round; stroke-width:4; stroke-opacity:1; fill:none" points="280.19,1384.24 299.088,1384.24 "></polyline>
<polyline clip-path="url(#clip520)" style="stroke:#000000; stroke-linecap:round; stroke-linejoin:round; stroke-width:4; stroke-opacity:1; fill:none" points="280.19,1167.9 299.088,1167.9 "></polyline>
<polyline clip-path="url(#clip520)" style="stroke:#000000; stroke-linecap:round; stroke-linejoin:round; stroke-width:4; stroke-opacity:1; fill:none" points="280.19,951.554 299.088,951.554 "></polyline>
<polyline clip-path="url(#clip520)" style="stroke:#000000; stroke-linecap:round; stroke-linejoin:round; stroke-width:4; stroke-opacity:1; fill:none" points="280.19,735.212 299.088,735.212 "></polyline>
<polyline clip-path="url(#clip520)" style="stroke:#000000; stroke-linecap:round; stroke-linejoin:round; stroke-width:4; stroke-opacity:1; fill:none" points="280.19,518.87 299.088,518.87 "></polyline>
<polyline clip-path="url(#clip520)" style="stroke:#000000; stroke-linecap:round; stroke-linejoin:round; stroke-width:4; stroke-opacity:1; fill:none" points="280.19,302.528 299.088,302.528 "></polyline>
<polyline clip-path="url(#clip520)" style="stroke:#000000; stroke-linecap:round; stroke-linejoin:round; stroke-width:4; stroke-opacity:1; fill:none" points="280.19,86.1857 299.088,86.1857 "></polyline>
<path clip-path="url(#clip520)" d="M126.691 1370.04 Q123.08 1370.04 121.251 1373.6 Q119.445 1377.14 119.445 1384.27 Q119.445 1391.38 121.251 1394.94 Q123.08 1398.49 126.691 1398.49 Q130.325 1398.49 132.13 1394.94 Q133.959 1391.38 133.959 1384.27 Q133.959 1377.14 132.13 1373.6 Q130.325 1370.04 126.691 1370.04 M126.691 1366.33 Q132.501 1366.33 135.556 1370.94 Q138.635 1375.52 138.635 1384.27 Q138.635 1393 135.556 1397.61 Q132.501 1402.19 126.691 1402.19 Q120.88 1402.19 117.802 1397.61 Q114.746 1393 114.746 1384.27 Q114.746 1375.52 117.802 1370.94 Q120.88 1366.33 126.691 1366.33 Z" fill="#000000" fill-rule="nonzero" fill-opacity="1"></path><path clip-path="url(#clip520)" d="M146.853 1395.64 L151.737 1395.64 L151.737 1401.52 L146.853 1401.52 L146.853 1395.64 Z" fill="#000000" fill-rule="nonzero" fill-opacity="1"></path><path clip-path="url(#clip520)" d="M171.922 1370.04 Q168.311 1370.04 166.482 1373.6 Q164.677 1377.14 164.677 1384.27 Q164.677 1391.38 166.482 1394.94 Q168.311 1398.49 171.922 1398.49 Q175.556 1398.49 177.362 1394.94 Q179.19 1391.38 179.19 1384.27 Q179.19 1377.14 177.362 1373.6 Q175.556 1370.04 171.922 1370.04 M171.922 1366.33 Q177.732 1366.33 180.788 1370.94 Q183.866 1375.52 183.866 1384.27 Q183.866 1393 180.788 1397.61 Q177.732 1402.19 171.922 1402.19 Q166.112 1402.19 163.033 1397.61 Q159.978 1393 159.978 1384.27 Q159.978 1375.52 163.033 1370.94 Q166.112 1366.33 171.922 1366.33 Z" fill="#000000" fill-rule="nonzero" fill-opacity="1"></path><path clip-path="url(#clip520)" d="M202.084 1370.04 Q198.473 1370.04 196.644 1373.6 Q194.838 1377.14 194.838 1384.27 Q194.838 1391.38 196.644 1394.94 Q198.473 1398.49 202.084 1398.49 Q205.718 1398.49 207.524 1394.94 Q209.352 1391.38 209.352 1384.27 Q209.352 1377.14 207.524 1373.6 Q205.718 1370.04 202.084 1370.04 M202.084 1366.33 Q207.894 1366.33 210.949 1370.94 Q214.028 1375.52 214.028 1384.27 Q214.028 1393 210.949 1397.61 Q207.894 1402.19 202.084 1402.19 Q196.274 1402.19 193.195 1397.61 Q190.139 1393 190.139 1384.27 Q190.139 1375.52 193.195 1370.94 Q196.274 1366.33 202.084 1366.33 Z" fill="#000000" fill-rule="nonzero" fill-opacity="1"></path><path clip-path="url(#clip520)" d="M232.246 1370.04 Q228.635 1370.04 226.806 1373.6 Q225 1377.14 225 1384.27 Q225 1391.38 226.806 1394.94 Q228.635 1398.49 232.246 1398.49 Q235.88 1398.49 237.685 1394.94 Q239.514 1391.38 239.514 1384.27 Q239.514 1377.14 237.685 1373.6 Q235.88 1370.04 232.246 1370.04 M232.246 1366.33 Q238.056 1366.33 241.111 1370.94 Q244.19 1375.52 244.19 1384.27 Q244.19 1393 241.111 1397.61 Q238.056 1402.19 232.246 1402.19 Q226.435 1402.19 223.357 1397.61 Q220.301 1393 220.301 1384.27 Q220.301 1375.52 223.357 1370.94 Q226.435 1366.33 232.246 1366.33 Z" fill="#000000" fill-rule="nonzero" fill-opacity="1"></path><path clip-path="url(#clip520)" d="M127.917 1153.69 Q124.306 1153.69 122.478 1157.26 Q120.672 1160.8 120.672 1167.93 Q120.672 1175.04 122.478 1178.6 Q124.306 1182.14 127.917 1182.14 Q131.552 1182.14 133.357 1178.6 Q135.186 1175.04 135.186 1167.93 Q135.186 1160.8 133.357 1157.26 Q131.552 1153.69 127.917 1153.69 M127.917 1149.99 Q133.728 1149.99 136.783 1154.6 Q139.862 1159.18 139.862 1167.93 Q139.862 1176.66 136.783 1181.26 Q133.728 1185.85 127.917 1185.85 Q122.107 1185.85 119.029 1181.26 Q115.973 1176.66 115.973 1167.93 Q115.973 1159.18 119.029 1154.6 Q122.107 1149.99 127.917 1149.99 Z" fill="#000000" fill-rule="nonzero" fill-opacity="1"></path><path clip-path="url(#clip520)" d="M148.079 1179.3 L152.964 1179.3 L152.964 1185.18 L148.079 1185.18 L148.079 1179.3 Z" fill="#000000" fill-rule="nonzero" fill-opacity="1"></path><path clip-path="url(#clip520)" d="M173.149 1153.69 Q169.538 1153.69 167.709 1157.26 Q165.903 1160.8 165.903 1167.93 Q165.903 1175.04 167.709 1178.6 Q169.538 1182.14 173.149 1182.14 Q176.783 1182.14 178.589 1178.6 Q180.417 1175.04 180.417 1167.93 Q180.417 1160.8 178.589 1157.26 Q176.783 1153.69 173.149 1153.69 M173.149 1149.99 Q178.959 1149.99 182.014 1154.6 Q185.093 1159.18 185.093 1167.93 Q185.093 1176.66 182.014 1181.26 Q178.959 1185.85 173.149 1185.85 Q167.339 1185.85 164.26 1181.26 Q161.204 1176.66 161.204 1167.93 Q161.204 1159.18 164.26 1154.6 Q167.339 1149.99 173.149 1149.99 Z" fill="#000000" fill-rule="nonzero" fill-opacity="1"></path><path clip-path="url(#clip520)" d="M203.311 1153.69 Q199.7 1153.69 197.871 1157.26 Q196.065 1160.8 196.065 1167.93 Q196.065 1175.04 197.871 1178.6 Q199.7 1182.14 203.311 1182.14 Q206.945 1182.14 208.75 1178.6 Q210.579 1175.04 210.579 1167.93 Q210.579 1160.8 208.75 1157.26 Q206.945 1153.69 203.311 1153.69 M203.311 1149.99 Q209.121 1149.99 212.176 1154.6 Q215.255 1159.18 215.255 1167.93 Q215.255 1176.66 212.176 1181.26 Q209.121 1185.85 203.311 1185.85 Q197.5 1185.85 194.422 1181.26 Q191.366 1176.66 191.366 1167.93 Q191.366 1159.18 194.422 1154.6 Q197.5 1149.99 203.311 1149.99 Z" fill="#000000" fill-rule="nonzero" fill-opacity="1"></path><path clip-path="url(#clip520)" d="M224.283 1181.24 L231.922 1181.24 L231.922 1154.88 L223.611 1156.54 L223.611 1152.28 L231.875 1150.62 L236.551 1150.62 L236.551 1181.24 L244.19 1181.24 L244.19 1185.18 L224.283 1185.18 L224.283 1181.24 Z" fill="#000000" fill-rule="nonzero" fill-opacity="1"></path><path clip-path="url(#clip520)" d="M128.288 937.353 Q124.677 937.353 122.848 940.918 Q121.043 944.459 121.043 951.589 Q121.043 958.695 122.848 962.26 Q124.677 965.802 128.288 965.802 Q131.922 965.802 133.728 962.26 Q135.556 958.695 135.556 951.589 Q135.556 944.459 133.728 940.918 Q131.922 937.353 128.288 937.353 M128.288 933.649 Q134.098 933.649 137.154 938.256 Q140.232 942.839 140.232 951.589 Q140.232 960.316 137.154 964.922 Q134.098 969.505 128.288 969.505 Q122.478 969.505 119.399 964.922 Q116.343 960.316 116.343 951.589 Q116.343 942.839 119.399 938.256 Q122.478 933.649 128.288 933.649 Z" fill="#000000" fill-rule="nonzero" fill-opacity="1"></path><path clip-path="url(#clip520)" d="M148.45 962.954 L153.334 962.954 L153.334 968.834 L148.45 968.834 L148.45 962.954 Z" fill="#000000" fill-rule="nonzero" fill-opacity="1"></path><path clip-path="url(#clip520)" d="M173.519 937.353 Q169.908 937.353 168.079 940.918 Q166.274 944.459 166.274 951.589 Q166.274 958.695 168.079 962.26 Q169.908 965.802 173.519 965.802 Q177.153 965.802 178.959 962.26 Q180.788 958.695 180.788 951.589 Q180.788 944.459 178.959 940.918 Q177.153 937.353 173.519 937.353 M173.519 933.649 Q179.329 933.649 182.385 938.256 Q185.463 942.839 185.463 951.589 Q185.463 960.316 182.385 964.922 Q179.329 969.505 173.519 969.505 Q167.709 969.505 164.63 964.922 Q161.575 960.316 161.575 951.589 Q161.575 942.839 164.63 938.256 Q167.709 933.649 173.519 933.649 Z" fill="#000000" fill-rule="nonzero" fill-opacity="1"></path><path clip-path="url(#clip520)" d="M203.681 937.353 Q200.07 937.353 198.241 940.918 Q196.436 944.459 196.436 951.589 Q196.436 958.695 198.241 962.26 Q200.07 965.802 203.681 965.802 Q207.315 965.802 209.121 962.26 Q210.949 958.695 210.949 951.589 Q210.949 944.459 209.121 940.918 Q207.315 937.353 203.681 937.353 M203.681 933.649 Q209.491 933.649 212.547 938.256 Q215.625 942.839 215.625 951.589 Q215.625 960.316 212.547 964.922 Q209.491 969.505 203.681 969.505 Q197.871 969.505 194.792 964.922 Q191.737 960.316 191.737 951.589 Q191.737 942.839 194.792 938.256 Q197.871 933.649 203.681 933.649 Z" fill="#000000" fill-rule="nonzero" fill-opacity="1"></path><path clip-path="url(#clip520)" d="M227.871 964.899 L244.19 964.899 L244.19 968.834 L222.246 968.834 L222.246 964.899 Q224.908 962.144 229.491 957.515 Q234.097 952.862 235.278 951.519 Q237.523 948.996 238.403 947.26 Q239.306 945.501 239.306 943.811 Q239.306 941.056 237.361 939.32 Q235.44 937.584 232.338 937.584 Q230.139 937.584 227.685 938.348 Q225.255 939.112 222.477 940.663 L222.477 935.941 Q225.301 934.806 227.755 934.228 Q230.209 933.649 232.246 933.649 Q237.616 933.649 240.81 936.334 Q244.005 939.019 244.005 943.51 Q244.005 945.64 243.195 947.561 Q242.408 949.459 240.301 952.052 Q239.722 952.723 236.621 955.941 Q233.519 959.135 227.871 964.899 Z" fill="#000000" fill-rule="nonzero" fill-opacity="1"></path><path clip-path="url(#clip520)" d="M127.339 721.011 Q123.728 721.011 121.899 724.575 Q120.093 728.117 120.093 735.247 Q120.093 742.353 121.899 745.918 Q123.728 749.46 127.339 749.46 Q130.973 749.46 132.779 745.918 Q134.607 742.353 134.607 735.247 Q134.607 728.117 132.779 724.575 Q130.973 721.011 127.339 721.011 M127.339 717.307 Q133.149 717.307 136.204 721.913 Q139.283 726.497 139.283 735.247 Q139.283 743.973 136.204 748.58 Q133.149 753.163 127.339 753.163 Q121.529 753.163 118.45 748.58 Q115.394 743.973 115.394 735.247 Q115.394 726.497 118.45 721.913 Q121.529 717.307 127.339 717.307 Z" fill="#000000" fill-rule="nonzero" fill-opacity="1"></path><path clip-path="url(#clip520)" d="M147.501 746.612 L152.385 746.612 L152.385 752.492 L147.501 752.492 L147.501 746.612 Z" fill="#000000" fill-rule="nonzero" fill-opacity="1"></path><path clip-path="url(#clip520)" d="M172.57 721.011 Q168.959 721.011 167.13 724.575 Q165.325 728.117 165.325 735.247 Q165.325 742.353 167.13 745.918 Q168.959 749.46 172.57 749.46 Q176.204 749.46 178.01 745.918 Q179.839 742.353 179.839 735.247 Q179.839 728.117 178.01 724.575 Q176.204 721.011 172.57 721.011 M172.57 717.307 Q178.38 717.307 181.436 721.913 Q184.514 726.497 184.514 735.247 Q184.514 743.973 181.436 748.58 Q178.38 753.163 172.57 753.163 Q166.76 753.163 163.681 748.58 Q160.626 743.973 160.626 735.247 Q160.626 726.497 163.681 721.913 Q166.76 717.307 172.57 717.307 Z" fill="#000000" fill-rule="nonzero" fill-opacity="1"></path><path clip-path="url(#clip520)" d="M202.732 721.011 Q199.121 721.011 197.292 724.575 Q195.487 728.117 195.487 735.247 Q195.487 742.353 197.292 745.918 Q199.121 749.46 202.732 749.46 Q206.366 749.46 208.172 745.918 Q210 742.353 210 735.247 Q210 728.117 208.172 724.575 Q206.366 721.011 202.732 721.011 M202.732 717.307 Q208.542 717.307 211.598 721.913 Q214.676 726.497 214.676 735.247 Q214.676 743.973 211.598 748.58 Q208.542 753.163 202.732 753.163 Q196.922 753.163 193.843 748.58 Q190.788 743.973 190.788 735.247 Q190.788 726.497 193.843 721.913 Q196.922 717.307 202.732 717.307 Z" fill="#000000" fill-rule="nonzero" fill-opacity="1"></path><path clip-path="url(#clip520)" d="M237.06 733.858 Q240.417 734.575 242.292 736.844 Q244.19 739.112 244.19 742.446 Q244.19 747.561 240.672 750.362 Q237.153 753.163 230.672 753.163 Q228.496 753.163 226.181 752.723 Q223.889 752.307 221.436 751.45 L221.436 746.936 Q223.38 748.071 225.695 748.649 Q228.01 749.228 230.533 749.228 Q234.931 749.228 237.222 747.492 Q239.537 745.756 239.537 742.446 Q239.537 739.39 237.384 737.677 Q235.255 735.941 231.435 735.941 L227.408 735.941 L227.408 732.099 L231.621 732.099 Q235.07 732.099 236.898 730.733 Q238.727 729.344 238.727 726.751 Q238.727 724.089 236.829 722.677 Q234.954 721.242 231.435 721.242 Q229.514 721.242 227.315 721.659 Q225.116 722.075 222.477 722.955 L222.477 718.788 Q225.139 718.048 227.454 717.677 Q229.792 717.307 231.852 717.307 Q237.176 717.307 240.278 719.738 Q243.38 722.145 243.38 726.265 Q243.38 729.136 241.736 731.126 Q240.093 733.094 237.06 733.858 Z" fill="#000000" fill-rule="nonzero" fill-opacity="1"></path><path clip-path="url(#clip520)" d="M126.205 504.669 Q122.593 504.669 120.765 508.233 Q118.959 511.775 118.959 518.905 Q118.959 526.011 120.765 529.576 Q122.593 533.117 126.205 533.117 Q129.839 533.117 131.644 529.576 Q133.473 526.011 133.473 518.905 Q133.473 511.775 131.644 508.233 Q129.839 504.669 126.205 504.669 M126.205 500.965 Q132.015 500.965 135.07 505.571 Q138.149 510.155 138.149 518.905 Q138.149 527.631 135.07 532.238 Q132.015 536.821 126.205 536.821 Q120.394 536.821 117.316 532.238 Q114.26 527.631 114.26 518.905 Q114.26 510.155 117.316 505.571 Q120.394 500.965 126.205 500.965 Z" fill="#000000" fill-rule="nonzero" fill-opacity="1"></path><path clip-path="url(#clip520)" d="M146.366 530.27 L151.251 530.27 L151.251 536.15 L146.366 536.15 L146.366 530.27 Z" fill="#000000" fill-rule="nonzero" fill-opacity="1"></path><path clip-path="url(#clip520)" d="M171.436 504.669 Q167.825 504.669 165.996 508.233 Q164.19 511.775 164.19 518.905 Q164.19 526.011 165.996 529.576 Q167.825 533.117 171.436 533.117 Q175.07 533.117 176.876 529.576 Q178.704 526.011 178.704 518.905 Q178.704 511.775 176.876 508.233 Q175.07 504.669 171.436 504.669 M171.436 500.965 Q177.246 500.965 180.301 505.571 Q183.38 510.155 183.38 518.905 Q183.38 527.631 180.301 532.238 Q177.246 536.821 171.436 536.821 Q165.626 536.821 162.547 532.238 Q159.491 527.631 159.491 518.905 Q159.491 510.155 162.547 505.571 Q165.626 500.965 171.436 500.965 Z" fill="#000000" fill-rule="nonzero" fill-opacity="1"></path><path clip-path="url(#clip520)" d="M201.598 504.669 Q197.987 504.669 196.158 508.233 Q194.352 511.775 194.352 518.905 Q194.352 526.011 196.158 529.576 Q197.987 533.117 201.598 533.117 Q205.232 533.117 207.037 529.576 Q208.866 526.011 208.866 518.905 Q208.866 511.775 207.037 508.233 Q205.232 504.669 201.598 504.669 M201.598 500.965 Q207.408 500.965 210.463 505.571 Q213.542 510.155 213.542 518.905 Q213.542 527.631 210.463 532.238 Q207.408 536.821 201.598 536.821 Q195.787 536.821 192.709 532.238 Q189.653 527.631 189.653 518.905 Q189.653 510.155 192.709 505.571 Q195.787 500.965 201.598 500.965 Z" fill="#000000" fill-rule="nonzero" fill-opacity="1"></path><path clip-path="url(#clip520)" d="M234.607 505.664 L222.801 524.113 L234.607 524.113 L234.607 505.664 M233.38 501.59 L239.259 501.59 L239.259 524.113 L244.19 524.113 L244.19 528.002 L239.259 528.002 L239.259 536.15 L234.607 536.15 L234.607 528.002 L219.005 528.002 L219.005 523.488 L233.38 501.59 Z" fill="#000000" fill-rule="nonzero" fill-opacity="1"></path><path clip-path="url(#clip520)" d="M127.686 288.326 Q124.075 288.326 122.246 291.891 Q120.441 295.433 120.441 302.562 Q120.441 309.669 122.246 313.234 Q124.075 316.775 127.686 316.775 Q131.32 316.775 133.126 313.234 Q134.954 309.669 134.954 302.562 Q134.954 295.433 133.126 291.891 Q131.32 288.326 127.686 288.326 M127.686 284.623 Q133.496 284.623 136.552 289.229 Q139.63 293.813 139.63 302.562 Q139.63 311.289 136.552 315.896 Q133.496 320.479 127.686 320.479 Q121.876 320.479 118.797 315.896 Q115.742 311.289 115.742 302.562 Q115.742 293.813 118.797 289.229 Q121.876 284.623 127.686 284.623 Z" fill="#000000" fill-rule="nonzero" fill-opacity="1"></path><path clip-path="url(#clip520)" d="M147.848 313.928 L152.732 313.928 L152.732 319.808 L147.848 319.808 L147.848 313.928 Z" fill="#000000" fill-rule="nonzero" fill-opacity="1"></path><path clip-path="url(#clip520)" d="M172.917 288.326 Q169.306 288.326 167.477 291.891 Q165.672 295.433 165.672 302.562 Q165.672 309.669 167.477 313.234 Q169.306 316.775 172.917 316.775 Q176.551 316.775 178.357 313.234 Q180.186 309.669 180.186 302.562 Q180.186 295.433 178.357 291.891 Q176.551 288.326 172.917 288.326 M172.917 284.623 Q178.727 284.623 181.783 289.229 Q184.862 293.813 184.862 302.562 Q184.862 311.289 181.783 315.896 Q178.727 320.479 172.917 320.479 Q167.107 320.479 164.028 315.896 Q160.973 311.289 160.973 302.562 Q160.973 293.813 164.028 289.229 Q167.107 284.623 172.917 284.623 Z" fill="#000000" fill-rule="nonzero" fill-opacity="1"></path><path clip-path="url(#clip520)" d="M203.079 288.326 Q199.468 288.326 197.639 291.891 Q195.834 295.433 195.834 302.562 Q195.834 309.669 197.639 313.234 Q199.468 316.775 203.079 316.775 Q206.713 316.775 208.519 313.234 Q210.348 309.669 210.348 302.562 Q210.348 295.433 208.519 291.891 Q206.713 288.326 203.079 288.326 M203.079 284.623 Q208.889 284.623 211.945 289.229 Q215.024 293.813 215.024 302.562 Q215.024 311.289 211.945 315.896 Q208.889 320.479 203.079 320.479 Q197.269 320.479 194.19 315.896 Q191.135 311.289 191.135 302.562 Q191.135 293.813 194.19 289.229 Q197.269 284.623 203.079 284.623 Z" fill="#000000" fill-rule="nonzero" fill-opacity="1"></path><path clip-path="url(#clip520)" d="M223.287 285.248 L241.644 285.248 L241.644 289.183 L227.57 289.183 L227.57 297.655 Q228.588 297.308 229.607 297.146 Q230.625 296.961 231.644 296.961 Q237.431 296.961 240.81 300.132 Q244.19 303.303 244.19 308.72 Q244.19 314.299 240.718 317.4 Q237.246 320.479 230.926 320.479 Q228.75 320.479 226.482 320.109 Q224.236 319.738 221.829 318.998 L221.829 314.299 Q223.912 315.433 226.135 315.988 Q228.357 316.544 230.834 316.544 Q234.838 316.544 237.176 314.437 Q239.514 312.331 239.514 308.72 Q239.514 305.109 237.176 303.002 Q234.838 300.896 230.834 300.896 Q228.959 300.896 227.084 301.312 Q225.232 301.729 223.287 302.609 L223.287 285.248 Z" fill="#000000" fill-rule="nonzero" fill-opacity="1"></path><path clip-path="url(#clip520)" d="M126.529 71.9844 Q122.918 71.9844 121.089 75.5492 Q119.283 79.0908 119.283 86.2204 Q119.283 93.3268 121.089 96.8916 Q122.918 100.433 126.529 100.433 Q130.163 100.433 131.968 96.8916 Q133.797 93.3268 133.797 86.2204 Q133.797 79.0908 131.968 75.5492 Q130.163 71.9844 126.529 71.9844 M126.529 68.2807 Q132.339 68.2807 135.394 72.8871 Q138.473 77.4704 138.473 86.2204 Q138.473 94.9472 135.394 99.5537 Q132.339 104.137 126.529 104.137 Q120.718 104.137 117.64 99.5537 Q114.584 94.9472 114.584 86.2204 Q114.584 77.4704 117.64 72.8871 Q120.718 68.2807 126.529 68.2807 Z" fill="#000000" fill-rule="nonzero" fill-opacity="1"></path><path clip-path="url(#clip520)" d="M146.691 97.5861 L151.575 97.5861 L151.575 103.466 L146.691 103.466 L146.691 97.5861 Z" fill="#000000" fill-rule="nonzero" fill-opacity="1"></path><path clip-path="url(#clip520)" d="M171.76 71.9844 Q168.149 71.9844 166.32 75.5492 Q164.515 79.0908 164.515 86.2204 Q164.515 93.3268 166.32 96.8916 Q168.149 100.433 171.76 100.433 Q175.394 100.433 177.2 96.8916 Q179.028 93.3268 179.028 86.2204 Q179.028 79.0908 177.2 75.5492 Q175.394 71.9844 171.76 71.9844 M171.76 68.2807 Q177.57 68.2807 180.626 72.8871 Q183.704 77.4704 183.704 86.2204 Q183.704 94.9472 180.626 99.5537 Q177.57 104.137 171.76 104.137 Q165.95 104.137 162.871 99.5537 Q159.815 94.9472 159.815 86.2204 Q159.815 77.4704 162.871 72.8871 Q165.95 68.2807 171.76 68.2807 Z" fill="#000000" fill-rule="nonzero" fill-opacity="1"></path><path clip-path="url(#clip520)" d="M201.922 71.9844 Q198.311 71.9844 196.482 75.5492 Q194.676 79.0908 194.676 86.2204 Q194.676 93.3268 196.482 96.8916 Q198.311 100.433 201.922 100.433 Q205.556 100.433 207.362 96.8916 Q209.19 93.3268 209.19 86.2204 Q209.19 79.0908 207.362 75.5492 Q205.556 71.9844 201.922 71.9844 M201.922 68.2807 Q207.732 68.2807 210.787 72.8871 Q213.866 77.4704 213.866 86.2204 Q213.866 94.9472 210.787 99.5537 Q207.732 104.137 201.922 104.137 Q196.112 104.137 193.033 99.5537 Q189.977 94.9472 189.977 86.2204 Q189.977 77.4704 193.033 72.8871 Q196.112 68.2807 201.922 68.2807 Z" fill="#000000" fill-rule="nonzero" fill-opacity="1"></path><path clip-path="url(#clip520)" d="M232.662 84.3223 Q229.514 84.3223 227.662 86.475 Q225.834 88.6278 225.834 92.3778 Q225.834 96.1046 227.662 98.2805 Q229.514 100.433 232.662 100.433 Q235.81 100.433 237.639 98.2805 Q239.491 96.1046 239.491 92.3778 Q239.491 88.6278 237.639 86.475 Q235.81 84.3223 232.662 84.3223 M241.945 69.6696 L241.945 73.9288 Q240.185 73.0955 238.38 72.6557 Q236.597 72.2158 234.838 72.2158 Q230.209 72.2158 227.755 75.3408 Q225.324 78.4658 224.977 84.7852 Q226.343 82.7713 228.403 81.7065 Q230.463 80.6186 232.94 80.6186 Q238.148 80.6186 241.158 83.7899 Q244.19 86.938 244.19 92.3778 Q244.19 97.7018 241.042 100.919 Q237.894 104.137 232.662 104.137 Q226.667 104.137 223.496 99.5537 Q220.324 94.9472 220.324 86.2204 Q220.324 78.026 224.213 73.1649 Q228.102 68.2807 234.653 68.2807 Q236.412 68.2807 238.195 68.6279 Q240 68.9751 241.945 69.6696 Z" fill="#000000" fill-rule="nonzero" fill-opacity="1"></path><path clip-path="url(#clip520)" d="M42.4881 758.463 L64.0042 758.463 L64.0042 764.319 L42.679 764.319 Q37.6183 764.319 35.1038 766.293 Q32.5894 768.266 32.5894 772.213 Q32.5894 776.955 35.6131 779.692 Q38.6368 782.43 43.8567 782.43 L64.0042 782.43 L64.0042 788.318 L14.479 788.318 L14.479 782.43 L33.8944 782.43 Q30.6797 780.329 29.0883 777.496 Q27.4968 774.632 27.4968 770.908 Q27.4968 764.765 31.3163 761.614 Q35.1038 758.463 42.4881 758.463 Z" fill="#000000" fill-rule="nonzero" fill-opacity="1"></path><path clip-path="url(#clip520)" d="M14.5426 732.713 Q21.8632 736.978 29.0246 739.047 Q36.186 741.116 43.5384 741.116 Q50.8908 741.116 58.1159 739.047 Q65.3091 736.947 72.5979 732.713 L72.5979 737.806 Q65.1182 742.58 57.8931 744.967 Q50.668 747.323 43.5384 747.323 Q36.4406 747.323 29.2474 744.967 Q22.0542 742.612 14.5426 737.806 L14.5426 732.713 Z" fill="#000000" fill-rule="nonzero" fill-opacity="1"></path><path clip-path="url(#clip520)" d="M18.2347 715.558 L28.3562 715.558 L28.3562 703.495 L32.9077 703.495 L32.9077 715.558 L52.2594 715.558 Q56.6199 715.558 57.8613 714.38 Q59.1026 713.171 59.1026 709.51 L59.1026 703.495 L64.0042 703.495 L64.0042 709.51 Q64.0042 716.29 61.4897 718.868 Q58.9434 721.446 52.2594 721.446 L32.9077 721.446 L32.9077 725.743 L28.3562 725.743 L28.3562 721.446 L18.2347 721.446 L18.2347 715.558 Z" fill="#000000" fill-rule="nonzero" fill-opacity="1"></path><path clip-path="url(#clip520)" d="M14.5426 696.715 L14.5426 691.623 Q22.0542 686.849 29.2474 684.493 Q36.4406 682.106 43.5384 682.106 Q50.668 682.106 57.8931 684.493 Q65.1182 686.849 72.5979 691.623 L72.5979 696.715 Q65.3091 692.482 58.1159 690.413 Q50.8908 688.313 43.5384 688.313 Q36.186 688.313 29.0246 690.413 Q21.8632 692.482 14.5426 696.715 Z" fill="#000000" fill-rule="nonzero" fill-opacity="1"></path><polyline clip-path="url(#clip522)" style="stroke:#009af9; stroke-linecap:round; stroke-linejoin:round; stroke-width:4; stroke-opacity:1; fill:none" points="338.848,1384.24 348.673,1292.22 358.498,1254.11 368.324,1224.86 378.149,1200.21 387.974,1178.48 397.8,1158.84 407.625,1140.79 417.451,1123.98 427.276,1108.19 437.101,1093.26 446.927,1079.05 456.752,1065.48 466.577,1052.47 476.403,1039.94 486.228,1027.86 496.054,1016.17 505.879,1004.84 515.704,993.845 525.53,983.148 535.355,972.728 545.181,962.566 555.006,952.643 564.831,942.943 574.657,933.451 584.482,924.156 594.307,915.044 604.133,906.106 613.958,897.333 623.784,888.714 633.609,880.243 643.434,871.912 653.26,863.714 663.085,855.644 672.91,847.694 682.736,839.861 692.561,832.139 702.387,824.524 712.212,817.01 722.037,809.595 731.863,802.275 741.688,795.045 751.514,787.903 761.339,780.846 771.164,773.87 780.99,766.973 790.815,760.152 800.64,753.405 810.466,746.729 820.291,740.123 830.117,733.583 839.942,727.109 849.767,720.698 859.593,714.348 869.418,708.058 879.244,701.826 889.069,695.65 898.894,689.529 908.72,683.461 918.545,677.446 928.37,671.481 938.196,665.566 948.021,659.7 957.847,653.88 967.672,648.106 977.497,642.377 987.323,636.693 997.148,631.051 1006.97,625.451 1016.8,619.892 1026.62,614.373 1036.45,608.893 1046.27,603.452 1056.1,598.049 1065.93,592.682 1075.75,587.352 1085.58,582.057 1095.4,576.797 1105.23,571.57 1115.05,566.378 1124.88,561.218 1134.7,556.09 1144.53,550.993 1154.35,545.928 1164.18,540.893 1174,535.888 1183.83,530.912 1193.66,525.965 1203.48,521.047 1213.31,516.156 1223.13,511.293 1232.96,506.457 1242.78,501.647 1252.61,496.863 1262.43,492.105 1272.26,487.372 1282.08,482.664 1291.91,477.981 1301.73,473.321 1311.56,468.686 1321.39,464.073 1331.21,459.484 1341.04,454.917 1350.86,450.373 1360.69,445.85 1370.51,441.35 1380.34,436.87 1390.16,432.412 1399.99,427.975 1409.81,423.558 1419.64,419.161 1429.46,414.784 1439.29,410.427 1449.12,406.089 1458.94,401.771 1468.77,397.471 1478.59,393.19 1488.42,388.928 1498.24,384.683 1508.07,380.457 1517.89,376.248 1527.72,372.057 1537.54,367.883 1547.37,363.726 1557.19,359.586 1567.02,355.462 1576.85,351.356 1586.67,347.265 1596.5,343.19 1606.32,339.132 1616.15,335.089 1625.97,331.061 1635.8,327.049 1645.62,323.052 1655.45,319.07 1665.27,315.103 1675.1,311.151 1684.92,307.213 1694.75,303.289 1704.58,299.38 1714.4,295.484 1724.23,291.603 1734.05,287.735 1743.88,283.881 1753.7,280.04 1763.53,276.213 1773.35,272.399 1783.18,268.597 1793,264.809 1802.83,261.034 1812.65,257.271 1822.48,253.52 1832.31,249.783 1842.13,246.057 1851.96,242.343 1861.78,238.642 1871.61,234.952 1881.43,231.275 1891.26,227.609 1901.08,223.954 1910.91,220.311 1920.73,216.68 1930.56,213.059 1940.38,209.45 1950.21,205.852 1960.04,202.265 1969.86,198.688 1979.69,195.123 1989.51,191.568 1999.34,188.024 2009.16,184.49 2018.99,180.966 2028.81,177.453 2038.64,173.95 2048.46,170.457 2058.29,166.974 2068.11,163.501 2077.94,160.038 2087.77,156.585 2097.59,153.141 2107.42,149.707 2117.24,146.283 2127.07,142.868 2136.89,139.462 2146.72,136.066 2156.54,132.678 2166.37,129.3 2176.19,125.931 2186.02,122.571 2195.84,119.22 2205.67,115.878 2215.5,112.545 2225.32,109.22 2235.15,105.904 2244.97,102.597 2254.8,99.2977 2264.62,96.0071 2274.45,92.725 2284.27,89.4512 2294.1,86.1857 "></polyline>
<path clip-path="url(#clip520)" d="M349.276 196.789 L900.419 196.789 L900.419 93.1086 L349.276 93.1086  Z" fill="#ffffff" fill-rule="evenodd" fill-opacity="1"></path>
<polyline clip-path="url(#clip520)" style="stroke:#000000; stroke-linecap:round; stroke-linejoin:round; stroke-width:4; stroke-opacity:1; fill:none" points="349.276,196.789 900.419,196.789 900.419,93.1086 349.276,93.1086 349.276,196.789 "></polyline>
<polyline clip-path="url(#clip520)" style="stroke:#009af9; stroke-linecap:round; stroke-linejoin:round; stroke-width:4; stroke-opacity:1; fill:none" points="372.304,144.949 510.475,144.949 "></polyline>
<path clip-path="url(#clip520)" d="M533.504 127.669 L538.226 127.669 L545.494 156.881 L552.74 127.669 L557.994 127.669 L565.263 156.881 L572.508 127.669 L577.253 127.669 L568.573 162.229 L562.693 162.229 L555.402 132.229 L548.041 162.229 L542.161 162.229 L533.504 127.669 Z" fill="#000000" fill-rule="nonzero" fill-opacity="1"></path><path clip-path="url(#clip520)" d="M602.67 148.201 L602.67 150.284 L583.087 150.284 Q583.364 154.682 585.726 156.997 Q588.11 159.289 592.346 159.289 Q594.8 159.289 597.091 158.687 Q599.406 158.085 601.675 156.881 L601.675 160.909 Q599.383 161.881 596.976 162.391 Q594.568 162.9 592.091 162.9 Q585.888 162.9 582.253 159.289 Q578.642 155.678 578.642 149.52 Q578.642 143.155 582.068 139.428 Q585.517 135.678 591.351 135.678 Q596.582 135.678 599.614 139.057 Q602.67 142.414 602.67 148.201 M598.411 146.951 Q598.364 143.456 596.443 141.372 Q594.545 139.289 591.397 139.289 Q587.832 139.289 585.679 141.303 Q583.55 143.317 583.226 146.974 L598.411 146.951 Z" fill="#000000" fill-rule="nonzero" fill-opacity="1"></path><path clip-path="url(#clip520)" d="M609.661 136.303 L613.92 136.303 L613.92 162.229 L609.661 162.229 L609.661 136.303 M609.661 126.21 L613.92 126.21 L613.92 131.604 L609.661 131.604 L609.661 126.21 Z" fill="#000000" fill-rule="nonzero" fill-opacity="1"></path><path clip-path="url(#clip520)" d="M641.443 149.289 Q641.443 144.59 639.498 141.928 Q637.577 139.243 634.198 139.243 Q630.818 139.243 628.873 141.928 Q626.952 144.59 626.952 149.289 Q626.952 153.988 628.873 156.673 Q630.818 159.335 634.198 159.335 Q637.577 159.335 639.498 156.673 Q641.443 153.988 641.443 149.289 M626.952 140.238 Q628.295 137.923 630.332 136.812 Q632.392 135.678 635.239 135.678 Q639.961 135.678 642.901 139.428 Q645.864 143.178 645.864 149.289 Q645.864 155.4 642.901 159.15 Q639.961 162.9 635.239 162.9 Q632.392 162.9 630.332 161.789 Q628.295 160.655 626.952 158.34 L626.952 162.229 L622.67 162.229 L622.67 126.21 L626.952 126.21 L626.952 140.238 Z" fill="#000000" fill-rule="nonzero" fill-opacity="1"></path><path clip-path="url(#clip520)" d="M652.484 151.997 L652.484 136.303 L656.744 136.303 L656.744 151.835 Q656.744 155.516 658.179 157.368 Q659.614 159.196 662.484 159.196 Q665.933 159.196 667.924 156.997 Q669.938 154.798 669.938 151.002 L669.938 136.303 L674.197 136.303 L674.197 162.229 L669.938 162.229 L669.938 158.247 Q668.387 160.608 666.327 161.766 Q664.29 162.9 661.582 162.9 Q657.114 162.9 654.799 160.122 Q652.484 157.344 652.484 151.997 M663.202 135.678 L663.202 135.678 Z" fill="#000000" fill-rule="nonzero" fill-opacity="1"></path><path clip-path="url(#clip520)" d="M682.97 126.21 L687.23 126.21 L687.23 162.229 L682.97 162.229 L682.97 126.21 Z" fill="#000000" fill-rule="nonzero" fill-opacity="1"></path><path clip-path="url(#clip520)" d="M696.142 126.21 L700.401 126.21 L700.401 162.229 L696.142 162.229 L696.142 126.21 Z" fill="#000000" fill-rule="nonzero" fill-opacity="1"></path><path clip-path="url(#clip520)" d="M745.933 146.581 L745.933 162.229 L741.674 162.229 L741.674 146.719 Q741.674 143.039 740.239 141.21 Q738.803 139.382 735.933 139.382 Q732.484 139.382 730.493 141.581 Q728.503 143.78 728.503 147.576 L728.503 162.229 L724.22 162.229 L724.22 126.21 L728.503 126.21 L728.503 140.331 Q730.03 137.993 732.091 136.835 Q734.174 135.678 736.882 135.678 Q741.35 135.678 743.641 138.456 Q745.933 141.21 745.933 146.581 Z" fill="#000000" fill-rule="nonzero" fill-opacity="1"></path><path clip-path="url(#clip520)" d="M766.211 149.196 Q761.049 149.196 759.058 150.377 Q757.067 151.557 757.067 154.405 Q757.067 156.673 758.549 158.016 Q760.053 159.335 762.623 159.335 Q766.164 159.335 768.294 156.835 Q770.447 154.312 770.447 150.145 L770.447 149.196 L766.211 149.196 M774.706 147.437 L774.706 162.229 L770.447 162.229 L770.447 158.293 Q768.988 160.655 766.813 161.789 Q764.637 162.9 761.489 162.9 Q757.507 162.9 755.146 160.678 Q752.808 158.432 752.808 154.682 Q752.808 150.307 755.725 148.085 Q758.664 145.863 764.475 145.863 L770.447 145.863 L770.447 145.446 Q770.447 142.507 768.502 140.909 Q766.581 139.289 763.086 139.289 Q760.864 139.289 758.757 139.821 Q756.651 140.354 754.706 141.419 L754.706 137.483 Q757.044 136.581 759.243 136.141 Q761.442 135.678 763.526 135.678 Q769.151 135.678 771.928 138.594 Q774.706 141.511 774.706 147.437 Z" fill="#000000" fill-rule="nonzero" fill-opacity="1"></path><path clip-path="url(#clip520)" d="M781.627 136.303 L801.859 136.303 L801.859 140.192 L785.84 158.826 L801.859 158.826 L801.859 162.229 L781.049 162.229 L781.049 158.34 L797.067 139.706 L781.627 139.706 L781.627 136.303 Z" fill="#000000" fill-rule="nonzero" fill-opacity="1"></path><path clip-path="url(#clip520)" d="M820.146 149.196 Q814.984 149.196 812.993 150.377 Q811.002 151.557 811.002 154.405 Q811.002 156.673 812.484 158.016 Q813.988 159.335 816.558 159.335 Q820.099 159.335 822.229 156.835 Q824.382 154.312 824.382 150.145 L824.382 149.196 L820.146 149.196 M828.641 147.437 L828.641 162.229 L824.382 162.229 L824.382 158.293 Q822.923 160.655 820.747 161.789 Q818.572 162.9 815.423 162.9 Q811.442 162.9 809.081 160.678 Q806.743 158.432 806.743 154.682 Q806.743 150.307 809.66 148.085 Q812.599 145.863 818.41 145.863 L824.382 145.863 L824.382 145.446 Q824.382 142.507 822.437 140.909 Q820.516 139.289 817.021 139.289 Q814.798 139.289 812.692 139.821 Q810.585 140.354 808.641 141.419 L808.641 137.483 Q810.979 136.581 813.178 136.141 Q815.377 135.678 817.46 135.678 Q823.085 135.678 825.863 138.594 Q828.641 141.511 828.641 147.437 Z" fill="#000000" fill-rule="nonzero" fill-opacity="1"></path><path clip-path="url(#clip520)" d="M852.437 140.284 Q851.72 139.868 850.863 139.682 Q850.03 139.474 849.011 139.474 Q845.4 139.474 843.456 141.835 Q841.534 144.173 841.534 148.571 L841.534 162.229 L837.252 162.229 L837.252 136.303 L841.534 136.303 L841.534 140.331 Q842.877 137.969 845.03 136.835 Q847.183 135.678 850.261 135.678 Q850.701 135.678 851.233 135.747 Q851.766 135.794 852.414 135.909 L852.437 140.284 Z" fill="#000000" fill-rule="nonzero" fill-opacity="1"></path><path clip-path="url(#clip520)" d="M873.131 140.238 L873.131 126.21 L877.391 126.21 L877.391 162.229 L873.131 162.229 L873.131 158.34 Q871.789 160.655 869.729 161.789 Q867.692 162.9 864.821 162.9 Q860.122 162.9 857.159 159.15 Q854.219 155.4 854.219 149.289 Q854.219 143.178 857.159 139.428 Q860.122 135.678 864.821 135.678 Q867.692 135.678 869.729 136.812 Q871.789 137.923 873.131 140.238 M858.618 149.289 Q858.618 153.988 860.539 156.673 Q862.483 159.335 865.863 159.335 Q869.243 159.335 871.187 156.673 Q873.131 153.988 873.131 149.289 Q873.131 144.59 871.187 141.928 Q869.243 139.243 865.863 139.243 Q862.483 139.243 860.539 141.928 Q858.618 144.59 858.618 149.289 Z" fill="#000000" fill-rule="nonzero" fill-opacity="1"></path></svg>